<svg width="1440" height="608" viewBox="0 0 1440 608" fill="none" xmlns="http://www.w3.org/2000/svg">
<path d="M910.361 0.724943C881.208 0.653829 852.865 11.9369 829.809 32.792C806.754 53.6471 790.299 82.8856 783.045 115.89C771.093 106.737 757.253 101.516 742.978 100.776C728.704 100.036 714.523 103.803 701.924 111.683C689.326 119.562 678.776 131.263 671.384 145.555C663.991 159.847 660.028 176.202 659.912 192.903C659.912 194.403 659.912 195.904 660.009 197.405C643.844 192.986 626.841 196.193 612.687 206.332C598.532 216.472 588.369 232.725 584.401 251.566C580.361 250.911 576.287 250.583 572.209 250.582C554.282 250.546 536.782 256.971 522.094 268.982C507.405 280.993 496.241 298.006 490.125 317.702C481.792 313.94 472.802 312.597 463.928 313.788C455.053 314.979 446.558 318.668 439.171 324.54C431.784 330.411 425.726 338.289 421.516 347.499C417.306 356.708 415.07 366.973 415 377.414V377.414C415 377.963 415 378.512 415 379.028C415 379.577 415 380.125 415 380.642L415.083 382.256L415.207 383.87C415.207 384.402 415.304 384.935 415.373 385.483C415.373 386.032 415.497 386.549 415.566 387.097C415.635 387.646 415.704 388.162 415.787 388.711C415.87 389.228 415.953 389.76 416.049 390.325C416.146 390.89 416.229 391.358 416.339 391.939C416.436 392.455 416.546 392.972 416.657 393.553L417.016 395.167C417.14 395.667 417.264 396.167 417.402 396.668L417.817 398.168L418.272 399.653C418.424 400.137 418.59 400.638 418.756 401.122C418.921 401.606 419.087 402.09 419.266 402.558C419.446 403.026 419.612 403.51 419.805 403.995C419.998 404.479 420.178 404.931 420.371 405.399C420.564 405.867 420.758 406.335 420.965 406.786C421.158 407.254 421.365 407.706 421.586 408.158C421.807 408.61 422.014 409.062 422.235 409.514L422.912 410.853L423.616 412.161C423.85 412.596 424.099 413.016 424.347 413.452L425.107 414.71C425.355 415.13 425.618 415.55 425.88 415.953C426.142 416.356 426.419 416.776 426.695 417.18L427.523 418.374C427.799 418.777 428.089 419.165 428.379 419.552L429.249 420.714L430.16 421.827C430.464 422.199 430.768 422.57 431.085 422.925C431.403 423.28 431.707 423.651 432.024 424.006L433.005 425.055L433.985 426.072L434.993 427.072L436.028 428.041L437.078 428.977L438.155 429.881L439.245 430.752L440.35 431.608L441.482 432.431L442.628 433.205L443.788 433.964L444.975 434.69L446.177 435.384L447.392 436.046L448.621 436.659L449.863 437.256L451.12 437.805L452.39 438.321L453.688 438.805L454.986 439.257L456.366 439.661C456.808 439.806 457.25 439.919 457.747 440.048L459.128 440.387C459.57 440.484 460.025 440.597 460.509 440.677L461.889 440.952L463.27 441.161C463.726 441.161 464.195 441.307 464.651 441.355L466.031 441.5L467.412 441.597H468.793H470.174C817.314 441.597 1167.75 438.369 1511.64 438.369C1522.93 438.319 1534.04 435.06 1544.01 428.874C1553.98 422.688 1562.52 413.76 1568.88 402.86C1575.25 391.96 1579.25 379.415 1580.54 366.305C1581.83 353.196 1580.38 339.915 1576.31 327.608C1572.23 315.301 1565.66 304.337 1557.15 295.661C1548.64 286.985 1538.46 280.856 1527.48 277.804C1516.49 274.752 1505.04 274.867 1494.1 278.14C1483.16 281.413 1473.07 287.746 1464.69 296.593C1463.73 274.288 1455.78 253.177 1442.35 237.282C1428.93 221.386 1410.98 211.817 1391.91 210.398C1372.84 208.978 1353.99 215.807 1338.95 229.583C1323.91 243.359 1313.73 263.12 1310.36 285.102C1306.42 279.888 1301.57 275.716 1296.14 272.864C1290.71 270.011 1284.83 268.544 1278.88 268.56C1277.66 268.56 1276.47 268.56 1275.29 268.737C1272.81 253.153 1267.38 238.415 1259.39 225.607C1251.4 212.8 1241.06 202.249 1229.12 194.73C1217.19 187.212 1203.96 182.917 1190.41 182.162C1176.87 181.408 1163.35 184.212 1150.85 190.369C1148.03 177.35 1142.55 165.323 1134.89 155.314C1127.23 145.306 1117.61 137.612 1106.85 132.889C1096.09 128.166 1084.52 126.555 1073.11 128.192C1061.71 129.829 1050.81 134.667 1041.35 142.292C1036.49 63.1811 979.701 0.724943 910.361 0.724943Z" fill="url(#paint0_linear)"/>
<path d="M381.382 77.7248C350.05 77.6758 319.591 86.0471 294.812 101.517C270.033 116.987 252.346 138.675 244.544 163.157C231.697 156.366 216.819 152.494 201.475 151.947C186.132 151.4 170.889 154.198 157.349 160.048C143.81 165.898 132.474 174.583 124.535 185.19C116.595 195.797 112.344 207.934 112.23 220.324C112.23 221.388 112.23 222.548 112.322 223.655C94.9477 220.378 76.6723 222.759 61.4592 230.281C46.2462 237.803 35.3219 249.861 31.0554 263.838C26.7155 263.351 22.3391 263.105 17.9573 263.104C-1.30939 263.077 -20.1174 267.846 -35.9023 276.758C-51.6872 285.671 -63.6808 298.294 -70.2477 312.908C-77.0975 310.789 -84.3726 309.706 -91.7086 309.715C-99.4707 309.695 -107.161 310.909 -114.342 313.288C-121.522 315.666 -128.052 319.162 -133.558 323.576C-139.063 327.991 -143.437 333.236 -146.43 339.014C-149.423 344.793 -150.976 350.99 -151 357.252V357.252C-151 357.667 -151 358.071 -151 358.486C-151 358.891 -151 359.295 -151 359.699C-151 360.104 -151 360.508 -150.908 360.912C-150.908 361.317 -150.815 361.721 -150.776 362.115C-150.736 362.509 -150.657 362.913 -150.604 363.307C-150.538 363.711 -150.472 364.105 -150.393 364.499L-150.156 365.669L-149.879 366.84L-149.562 367.989C-149.443 368.372 -149.338 368.755 -149.206 369.139C-149.074 369.522 -148.955 369.894 -148.824 370.267C-148.692 370.639 -148.56 371.022 -148.415 371.395C-148.27 371.767 -148.111 372.139 -147.966 372.459C-147.808 372.831 -147.65 373.193 -147.478 373.523L-146.964 374.587C-146.792 374.949 -146.608 375.311 -146.423 375.651C-146.238 375.992 -146.04 376.364 -145.843 376.715C-145.645 377.067 -145.434 377.418 -145.236 377.78C-145.038 378.141 -144.814 378.471 -144.589 378.844C-144.378 379.184 -144.154 379.539 -143.917 379.908L-143.218 380.908C-142.98 381.238 -142.743 381.568 -142.492 381.898L-141.74 382.866L-140.949 383.824C-140.685 384.143 -140.408 384.452 -140.144 384.761C-139.88 385.069 -139.577 385.378 -139.3 385.686L-138.429 386.591C-138.139 386.9 -137.836 387.187 -137.532 387.485C-137.229 387.783 -136.926 388.07 -136.622 388.358L-135.673 389.209C-135.356 389.486 -135.04 389.773 -134.71 390.039C-134.38 390.305 -134.05 390.592 -133.707 390.858L-132.692 391.656L-131.65 392.433L-130.594 393.189C-130.225 393.444 -129.869 393.689 -129.499 393.923L-128.391 394.647L-127.257 395.339C-126.888 395.562 -126.505 395.796 -126.11 396.009L-124.936 396.669L-123.748 397.297L-122.535 397.903L-121.308 398.489L-119.989 399.042C-119.567 399.233 -119.145 399.404 -118.67 399.585L-117.351 400.095L-116.032 400.585L-114.713 401.042L-113.394 401.489L-112.075 401.894L-110.756 402.288L-109.437 402.649L-108.038 402.979L-106.627 403.288L-105.189 403.565L-103.752 403.82L-102.301 404.044L-100.837 404.235L-99.3591 404.405C-98.8579 404.405 -98.3699 404.501 -97.8687 404.533C-97.3674 404.565 -96.8662 404.618 -96.3649 404.639L-94.8612 404.725H-93.3311H-91.801C281.266 404.725 657.908 402.352 1027.48 402.352C1039.61 402.311 1051.55 399.891 1062.27 395.3C1072.98 390.709 1082.15 384.085 1088.99 375.999C1095.83 367.912 1100.12 358.606 1101.51 348.882C1102.9 339.158 1101.33 329.307 1096.95 320.179C1092.57 311.052 1085.5 302.92 1076.36 296.486C1067.22 290.052 1056.27 285.508 1044.47 283.245C1032.66 280.983 1020.35 281.07 1008.6 283.499C996.846 285.929 986.001 290.627 977 297.19C975.947 280.651 967.393 265.003 952.968 253.222C938.543 241.441 919.252 234.35 898.767 233.298C878.282 232.247 858.033 237.309 841.873 247.52C825.714 257.731 814.771 272.379 811.129 288.676C806.892 284.81 801.684 281.717 795.85 279.601C790.017 277.486 783.691 276.396 777.295 276.406C775.976 276.406 774.657 276.406 773.444 276.534C770.779 264.989 764.943 254.072 756.365 244.585C747.786 235.097 736.683 227.28 723.87 221.707C711.057 216.135 696.86 212.948 682.321 212.381C667.782 211.814 653.27 213.881 639.85 218.43C636.827 208.764 630.947 199.833 622.712 192.401C614.478 184.968 604.135 179.255 592.568 175.751C581 172.246 568.553 171.054 556.29 172.276C544.027 173.498 532.314 177.099 522.151 182.77C516.941 124.059 455.909 77.7248 381.382 77.7248Z" fill="url(#paint1_linear)"/>
<path d="M817.396 125.725C858.805 125.671 899.061 134.736 931.809 151.49C964.556 168.243 987.929 191.73 998.236 218.242C1016.67 210.241 1038.24 205.991 1060.29 206.02C1122.59 206.02 1173.12 239.206 1173.12 280.144C1173.12 281.324 1173.12 282.504 1172.97 283.766C1179.7 282.73 1186.58 282.208 1193.48 282.209C1213.51 282.181 1232.98 286.612 1248.74 294.787C1264.5 302.962 1275.65 314.406 1280.37 327.276C1286.11 326.745 1291.89 326.477 1297.68 326.473C1323.15 326.446 1348.01 331.609 1368.87 341.259C1389.73 350.91 1405.59 364.577 1414.28 380.4C1426.12 377.388 1438.89 376.318 1451.49 377.281C1464.1 378.244 1476.16 381.212 1486.65 385.93C1497.14 390.649 1505.75 396.978 1511.73 404.375C1517.71 411.772 1520.89 420.017 1521 428.405C1521 428.853 1521 429.29 1521 429.726C1521 430.175 1521 430.611 1521 431.048C1521 431.496 1521 431.932 1520.88 432.369C1520.88 432.805 1520.77 433.23 1520.7 433.667C1520.62 434.103 1520.55 434.528 1520.46 434.964C1520.39 435.389 1520.3 435.814 1520.2 436.239L1519.88 437.513C1519.75 437.937 1519.64 438.362 1519.5 438.775C1519.36 439.188 1519.23 439.613 1519.09 440.026C1518.95 440.45 1518.79 440.851 1518.63 441.205C1518.47 441.559 1518.31 442.031 1518.13 442.385C1517.95 442.739 1517.77 443.199 1517.57 443.565L1516.98 444.745L1516.34 445.924C1516.13 446.325 1515.9 446.715 1515.66 447.104C1515.43 447.493 1515.18 447.883 1514.93 448.284C1514.68 448.685 1514.43 449.051 1514.18 449.464L1513.38 450.643L1512.52 451.752C1512.24 452.13 1511.95 452.496 1511.65 452.861L1510.72 453.947L1509.76 455.008C1509.44 455.362 1509.1 455.716 1508.76 456.07L1507.72 457.097L1506.63 458.123L1505.53 459.126L1504.38 460.105C1503.99 460.424 1503.6 460.754 1503.21 461.061C1502.81 461.367 1502.4 461.698 1501.99 462.005C1501.58 462.311 1501.17 462.63 1500.74 462.937L1499.46 463.833C1499.03 464.14 1498.58 464.435 1498.16 464.718L1496.8 465.579L1495.43 466.429L1494.02 467.243L1492.59 468.045L1491.12 468.824L1489.63 469.567L1488.11 470.298L1486.56 471.006L1484.99 471.69L1483.38 472.351L1481.76 472.976L1480.1 473.59L1478.42 474.168L1476.63 474.722L1474.85 475.253C1474.28 475.418 1473.69 475.595 1473.06 475.749L1471.28 476.233L1469.49 476.669L1467.71 477.082L1465.93 477.471L1464.14 477.837L1462.36 478.167L1460.48 478.474L1458.57 478.745L1456.65 478.981C1456 479.064 1455.36 479.123 1454.72 479.194C1454.07 479.264 1453.41 479.323 1452.75 479.371L1450.79 479.524L1448.81 479.642L1446.81 479.725H1444.81V607.225C951.746 607.225 461.427 607.225 -27 607.225C-43.0383 607.184 -68.2969 474.493 -82.4635 469.522C-96.6301 464.552 -108.756 457.378 -117.795 448.62C-126.834 439.862 -132.516 429.783 -134.351 419.25C-136.185 408.717 -134.118 398.047 -128.326 388.161C-122.535 378.274 -113.193 369.466 -101.106 362.497C-89.019 355.528 -74.5497 350.607 -58.9452 348.157C-43.3407 345.708 -27.069 345.803 -11.5329 348.436C4.00315 351.069 18.3375 356.16 30.2348 363.27C31.5941 345.348 42.8811 328.384 61.9448 315.609C81.0085 302.835 106.516 295.144 133.606 294.003C160.696 292.861 187.474 298.349 208.837 309.419C230.2 320.49 244.654 336.37 249.445 354.033C255.031 349.852 261.898 346.505 269.59 344.213C277.283 341.921 285.624 340.736 294.062 340.737C295.846 340.737 297.488 340.737 299.166 340.89C302.678 328.375 310.39 316.54 321.733 306.255C333.076 295.969 347.762 287.496 364.712 281.457C381.661 275.417 400.443 271.966 419.675 271.358C438.908 270.749 458.102 272.997 475.847 277.938C479.893 267.493 487.697 257.85 498.595 249.828C509.492 241.807 523.161 235.645 538.437 231.868C553.713 228.091 570.144 226.811 586.33 228.136C602.516 229.461 617.978 233.352 631.399 239.478C638.234 175.912 718.901 125.725 817.396 125.725Z" fill="url(#paint2_linear)"/>
<defs>
<linearGradient id="paint0_linear" x1="545.961" y1="659.774" x2="1538.94" y2="346.918" gradientUnits="userSpaceOnUse">
<stop stop-color="#3399BD"/>
<stop offset="0.225425" stop-color="#A9DEF5"/>
<stop offset="0.491774" stop-color="#A9DEF5"/>
<stop offset="1" stop-color="white" stop-opacity="0.69"/>
</linearGradient>
<linearGradient id="paint1_linear" x1="-565521" y1="449807" x2="-565521" y2="349314" gradientUnits="userSpaceOnUse">
<stop offset="0.229167" stop-color="#E9F8FF"/>
<stop offset="0.6875" stop-color="#CAEFFF"/>
</linearGradient>
<linearGradient id="paint2_linear" x1="693" y1="699" x2="692.434" y2="125.725" gradientUnits="userSpaceOnUse">
<stop offset="0.0116526" stop-color="#98D6F2"/>
<stop offset="0.07736" stop-color="#3399BD"/>
<stop offset="0.48707" stop-color="#56B1D1"/>
<stop offset="1" stop-color="#ACDFF2"/>
</linearGradient>
</defs>
</svg>
