<svg width="74" height="74" viewBox="0 0 74 74" fill="none" xmlns="http://www.w3.org/2000/svg">
<mask id="mask0" mask-type="alpha" maskUnits="userSpaceOnUse" x="0" y="0" width="74" height="74">
<circle cx="37" cy="37" r="37" fill="#C4C4C4"/>
</mask>
<g mask="url(#mask0)">
<path d="M37.1628 73.7327C57.6392 73.7327 74.2386 57.1333 74.2386 36.6569C74.2386 16.1805 57.6392 -0.418945 37.1628 -0.418945C16.6863 -0.418945 0.0869141 16.1805 0.0869141 36.6569C0.0869141 57.1333 16.6863 73.7327 37.1628 73.7327Z" fill="#0E47EF"/>
<g opacity="0.5">
</g>
<g opacity="0.2">
<path opacity="0.5" d="M27.9814 51.8936H23.9141V55.9609H27.9814V51.8936Z" fill="white"/>
<path opacity="0.5" d="M19.8476 23.4255H15.7803V27.4928H19.8476V23.4255Z" fill="white"/>
<path opacity="0.5" d="M15.7803 31.5591H11.7246C11.7246 30.4835 12.1519 29.4519 12.9125 28.6913C13.6731 27.9307 14.7047 27.5034 15.7803 27.5034V31.5591Z" fill="white"/>
<path opacity="0.5" d="M19.8477 31.5591H15.792C15.792 30.4835 16.2193 29.4519 16.9799 28.6913C17.7405 27.9307 18.7721 27.5034 19.8477 27.5034V31.5591Z" fill="white"/>
<path opacity="0.5" d="M15.7802 31.5591H11.7129V35.6264H15.7802V31.5591Z" fill="white"/>
<path opacity="0.5" d="M17.8139 35.6264C17.4117 35.6264 17.0185 35.5071 16.6841 35.2837C16.3497 35.0602 16.089 34.7426 15.9351 34.371C15.7812 33.9994 15.7409 33.5905 15.8194 33.196C15.8978 32.8015 16.0915 32.4391 16.3759 32.1547C16.6603 31.8703 17.0227 31.6766 17.4172 31.5982C17.8117 31.5197 18.2206 31.56 18.5922 31.7139C18.9638 31.8678 19.2814 32.1285 19.5048 32.4629C19.7283 32.7973 19.8476 33.1905 19.8476 33.5927C19.8476 34.1321 19.6333 34.6494 19.2519 35.0307C18.8706 35.4121 18.3533 35.6264 17.8139 35.6264Z" fill="white"/>
<path opacity="0.5" d="M17.8139 11.2262C17.4117 11.2262 17.0185 11.107 16.6841 10.8835C16.3497 10.6601 16.089 10.3424 15.9351 9.97084C15.7812 9.59923 15.7409 9.19033 15.8194 8.79584C15.8978 8.40135 16.0915 8.03899 16.3759 7.75458C16.6603 7.47017 17.0227 7.27648 17.4172 7.19801C17.8117 7.11954 18.2206 7.15982 18.5922 7.31374C18.9638 7.46766 19.2814 7.72832 19.5048 8.06275C19.7283 8.39718 19.8476 8.79037 19.8476 9.19259C19.8476 9.73195 19.6333 10.2492 19.2519 10.6306C18.8706 11.012 18.3533 11.2262 17.8139 11.2262Z" fill="white"/>
<path opacity="0.5" d="M13.7465 15.2922C13.3443 15.2922 12.9511 15.1729 12.6167 14.9494C12.2823 14.726 12.0216 14.4084 11.8677 14.0368C11.7138 13.6652 11.6735 13.2563 11.752 12.8618C11.8304 12.4673 12.0241 12.1049 12.3085 11.8205C12.5929 11.5361 12.9553 11.3424 13.3498 11.2639C13.7443 11.1855 14.1532 11.2257 14.5248 11.3797C14.8964 11.5336 15.214 11.7942 15.4375 12.1287C15.6609 12.4631 15.7802 12.8563 15.7802 13.2585C15.7802 13.7979 15.5659 14.3151 15.1846 14.6965C14.8032 15.0779 14.2859 15.2922 13.7465 15.2922Z" fill="white"/>
<path opacity="0.5" d="M17.8139 15.2922C17.4117 15.2922 17.0185 15.1729 16.6841 14.9494C16.3497 14.726 16.089 14.4084 15.9351 14.0368C15.7812 13.6652 15.7409 13.2563 15.8194 12.8618C15.8978 12.4673 16.0915 12.1049 16.3759 11.8205C16.6603 11.5361 17.0227 11.3424 17.4172 11.2639C17.8117 11.1855 18.2206 11.2257 18.5922 11.3797C18.9638 11.5336 19.2814 11.7942 19.5048 12.1287C19.7283 12.4631 19.8476 12.8563 19.8476 13.2585C19.8476 13.7979 19.6333 14.3151 19.2519 14.6965C18.8706 15.0779 18.3533 15.2922 17.8139 15.2922Z" fill="white"/>
<path opacity="0.5" d="M13.7465 19.3591C13.3443 19.3591 12.9511 19.2398 12.6167 19.0163C12.2823 18.7929 12.0216 18.4752 11.8677 18.1036C11.7138 17.732 11.6735 17.3231 11.752 16.9287C11.8304 16.5342 12.0241 16.1718 12.3085 15.8874C12.5929 15.603 12.9553 15.4093 13.3498 15.3308C13.7443 15.2524 14.1532 15.2926 14.5248 15.4466C14.8964 15.6005 15.214 15.8611 15.4375 16.1956C15.6609 16.53 15.7802 16.9232 15.7802 17.3254C15.7802 17.8648 15.5659 18.382 15.1846 18.7634C14.8032 19.1448 14.2859 19.3591 13.7465 19.3591" fill="white"/>
<path opacity="0.5" d="M17.8139 19.3591C17.4117 19.3591 17.0185 19.2398 16.6841 19.0163C16.3497 18.7929 16.089 18.4752 15.9351 18.1036C15.7812 17.732 15.7409 17.3231 15.8194 16.9287C15.8978 16.5342 16.0915 16.1718 16.3759 15.8874C16.6603 15.603 17.0227 15.4093 17.4172 15.3308C17.8117 15.2524 18.2206 15.2926 18.5922 15.4466C18.9638 15.6005 19.2814 15.8611 19.5048 16.1956C19.7283 16.53 19.8476 16.9232 19.8476 17.3254C19.8476 17.8648 19.6333 18.382 19.2519 18.7634C18.8706 19.1448 18.3533 19.3591 17.8139 19.3591" fill="white"/>
<path opacity="0.5" d="M13.7465 23.426C13.3443 23.426 12.9511 23.3067 12.6167 23.0832C12.2823 22.8598 12.0216 22.5421 11.8677 22.1705C11.7138 21.7989 11.6735 21.39 11.752 20.9956C11.8304 20.6011 12.0241 20.2387 12.3085 19.9543C12.5929 19.6699 12.9553 19.4762 13.3498 19.3977C13.7443 19.3193 14.1532 19.3595 14.5248 19.5134C14.8964 19.6674 15.214 19.928 15.4375 20.2625C15.6609 20.5969 15.7802 20.9901 15.7802 21.3923C15.7802 21.9317 15.5659 22.4489 15.1846 22.8303C14.8032 23.2117 14.2859 23.426 13.7465 23.426" fill="white"/>
<path opacity="0.5" d="M9.68014 11.2262C9.27792 11.2262 8.88473 11.107 8.5503 10.8835C8.21587 10.6601 7.95521 10.3424 7.80129 9.97084C7.64737 9.59923 7.60709 9.19033 7.68556 8.79584C7.76403 8.40135 7.95772 8.03899 8.24213 7.75458C8.52654 7.47017 8.8889 7.27648 9.28339 7.19801C9.67788 7.11954 10.0868 7.15982 10.4584 7.31374C10.83 7.46766 11.1476 7.72832 11.3711 8.06275C11.5945 8.39718 11.7138 8.79037 11.7138 9.19259C11.7138 9.73195 11.4995 10.2492 11.1181 10.6306C10.7368 11.012 10.2195 11.2262 9.68014 11.2262" fill="white"/>
<path opacity="0.5" d="M9.68014 15.2922C9.27792 15.2922 8.88473 15.1729 8.5503 14.9494C8.21587 14.726 7.95521 14.4084 7.80129 14.0368C7.64737 13.6652 7.60709 13.2563 7.68556 12.8618C7.76403 12.4673 7.95772 12.1049 8.24213 11.8205C8.52654 11.5361 8.8889 11.3424 9.28339 11.2639C9.67788 11.1855 10.0868 11.2257 10.4584 11.3797C10.83 11.5336 11.1476 11.7942 11.3711 12.1287C11.5945 12.4631 11.7138 12.8563 11.7138 13.2585C11.7138 13.7979 11.4995 14.3151 11.1181 14.6965C10.7368 15.0779 10.2195 15.2922 9.68014 15.2922" fill="white"/>
<path opacity="0.5" d="M9.68014 19.3591C9.27792 19.3591 8.88473 19.2398 8.5503 19.0163C8.21587 18.7929 7.95521 18.4752 7.80129 18.1036C7.64737 17.732 7.60709 17.3231 7.68556 16.9287C7.76403 16.5342 7.95772 16.1718 8.24213 15.8874C8.52654 15.603 8.8889 15.4093 9.28339 15.3308C9.67788 15.2524 10.0868 15.2926 10.4584 15.4466C10.83 15.6005 11.1476 15.8611 11.3711 16.1956C11.5945 16.53 11.7138 16.9232 11.7138 17.3254C11.7138 17.8648 11.4995 18.382 11.1181 18.7634C10.7368 19.1448 10.2195 19.3591 9.68014 19.3591" fill="white"/>
<path opacity="0.5" d="M9.68014 23.426C9.27792 23.426 8.88473 23.3067 8.5503 23.0832C8.21587 22.8598 7.95521 22.5421 7.80129 22.1705C7.64737 21.7989 7.60709 21.39 7.68556 20.9956C7.76403 20.6011 7.95772 20.2387 8.24213 19.9543C8.52654 19.6699 8.8889 19.4762 9.28339 19.3977C9.67788 19.3193 10.0868 19.3595 10.4584 19.5134C10.83 19.6674 11.1476 19.928 11.3711 20.2625C11.5945 20.5969 11.7138 20.9901 11.7138 21.3923C11.7138 21.9317 11.4995 22.4489 11.1181 22.8303C10.7368 23.2117 10.2195 23.426 9.68014 23.426" fill="white"/>
<path opacity="0.5" d="M5.61354 11.2261H3.5625V7.17034H5.59615C5.87535 7.14922 6.15589 7.18598 6.42022 7.27832C6.68454 7.37065 6.92695 7.51658 7.13227 7.70694C7.33758 7.89731 7.50137 8.12803 7.61338 8.38464C7.72539 8.64124 7.78321 8.91822 7.78321 9.1982C7.78321 9.47819 7.72539 9.75517 7.61338 10.0118C7.50137 10.2684 7.33758 10.4991 7.13227 10.6895C6.92695 10.8798 6.68454 11.0258 6.42022 11.1181C6.15589 11.2104 5.87535 11.2472 5.59615 11.2261" fill="white"/>
<path opacity="0.5" d="M5.61354 15.2917H3.5625V11.236H5.59615C5.87535 11.2149 6.15589 11.2517 6.42022 11.344C6.68454 11.4363 6.92695 11.5822 7.13227 11.7726C7.33758 11.963 7.50137 12.1937 7.61338 12.4503C7.72539 12.7069 7.78321 12.9839 7.78321 13.2639C7.78321 13.5439 7.72539 13.8208 7.61338 14.0774C7.50137 14.3341 7.33758 14.5648 7.13227 14.7551C6.92695 14.9455 6.68454 15.0914 6.42022 15.1838C6.15589 15.2761 5.87535 15.3129 5.59615 15.2917" fill="white"/>
<path opacity="0.5" d="M5.61354 19.3608H3.5625V15.3051H5.59615C5.87535 15.284 6.15589 15.3207 6.42022 15.4131C6.68454 15.5054 6.92695 15.6513 7.13227 15.8417C7.33758 16.0321 7.50137 16.2628 7.61338 16.5194C7.72539 16.776 7.78321 17.053 7.78321 17.333C7.78321 17.613 7.72539 17.8899 7.61338 18.1465C7.50137 18.4031 7.33758 18.6339 7.13227 18.8242C6.92695 19.0146 6.68454 19.1605 6.42022 19.2529C6.15589 19.3452 5.87535 19.3819 5.59615 19.3608" fill="white"/>
<path opacity="0.5" d="M5.61354 23.4255H3.5625V19.3698H5.59615C5.87535 19.3487 6.15589 19.3854 6.42022 19.4778C6.68454 19.5701 6.92695 19.716 7.13227 19.9064C7.33758 20.0968 7.50137 20.3275 7.61338 20.5841C7.72539 20.8407 7.78321 21.1177 7.78321 21.3977C7.78321 21.6777 7.72539 21.9546 7.61338 22.2112C7.50137 22.4678 7.33758 22.6986 7.13227 22.8889C6.92695 23.0793 6.68454 23.2252 6.42022 23.3176C6.15589 23.4099 5.87535 23.4466 5.59615 23.4255" fill="white"/>
<path opacity="0.5" d="M15.7802 -0.974854H11.7129V3.09245H15.7802V-0.974854Z" fill="white"/>
<path opacity="0.5" d="M23.9141 3.09307H19.8584C19.8584 2.01743 20.2857 0.985841 21.0463 0.225246C21.8069 -0.535349 22.8385 -0.962646 23.9141 -0.962646V3.09307Z" fill="white"/>
<path opacity="0.5" d="M13.7465 7.15935C13.2072 7.15935 12.6899 6.94509 12.3085 6.5637C11.9271 6.18232 11.7129 5.66505 11.7129 5.12569V3.09204H15.7686V5.12569C15.7686 5.66505 15.5544 6.18232 15.173 6.5637C14.7916 6.94509 14.2743 7.15935 13.735 7.15935" fill="white"/>
<path opacity="0.5" d="M17.8139 7.15935C17.2746 7.15935 16.7573 6.94509 16.3759 6.5637C15.9945 6.18232 15.7803 5.66505 15.7803 5.12569V3.09204H19.836V5.12569C19.836 5.66505 19.6217 6.18232 19.2403 6.5637C18.859 6.94509 18.3417 7.15935 17.8023 7.15935" fill="white"/>
<path opacity="0.5" d="M21.8813 7.15935C21.342 7.15935 20.8247 6.94509 20.4433 6.5637C20.0619 6.18232 19.8477 5.66505 19.8477 5.12569V3.09204H23.9034V5.12569C23.9034 5.66505 23.6891 6.18232 23.3077 6.5637C22.9263 6.94509 22.4091 7.15935 21.8697 7.15935" fill="white"/>
<path opacity="0.5" d="M11.7138 -0.974854H7.64648V3.09245H11.7138V-0.974854Z" fill="white"/>
<path opacity="0.5" d="M9.68014 7.15935C9.14078 7.15935 8.62351 6.94509 8.24213 6.5637C7.86074 6.18232 7.64648 5.66505 7.64648 5.12569V3.09204H11.7022V5.12569C11.7022 5.66505 11.4879 6.18232 11.1066 6.5637C10.7252 6.94509 10.2079 7.15935 9.66855 7.15935" fill="white"/>
<path opacity="0.5" d="M7.64719 3.09307H3.5625C3.5625 2.01743 3.9898 0.985841 4.75039 0.225246C5.51099 -0.535349 6.54258 -0.962646 7.61822 -0.962646L7.64719 3.09307Z" fill="white"/>
<path opacity="0.5" d="M5.61354 7.15899H3.5625V3.10327H7.61822V5.13693C7.61822 5.67628 7.40396 6.19355 7.02258 6.57494C6.64119 6.95632 6.12392 7.17058 5.58457 7.17058" fill="white"/>
<path opacity="0.5" d="M5.61381 27.4936H7.64747V23.4379H5.61381C5.33462 23.4168 5.05408 23.4536 4.78975 23.5459C4.52543 23.6382 4.28301 23.7842 4.0777 23.9745C3.87239 24.1649 3.7086 24.3956 3.59658 24.6522C3.48457 24.9088 3.42676 25.1858 3.42676 25.4658C3.42676 25.7458 3.48457 26.0227 3.59658 26.2794C3.7086 26.536 3.87239 26.7667 4.0777 26.957C4.28301 27.1474 4.52543 27.2933 4.78975 27.3857C5.05408 27.478 5.33462 27.5148 5.61381 27.4936" fill="white"/>
<path opacity="0.5" d="M5.61381 31.5593H7.64747V27.5036H5.61381C5.33462 27.4825 5.05408 27.5192 4.78975 27.6116C4.52543 27.7039 4.28301 27.8498 4.0777 28.0402C3.87239 28.2306 3.7086 28.4613 3.59658 28.7179C3.48457 28.9745 3.42676 29.2515 3.42676 29.5315C3.42676 29.8114 3.48457 30.0884 3.59658 30.345C3.7086 30.6016 3.87239 30.8323 4.0777 31.0227C4.28301 31.2131 4.52543 31.359 4.78975 31.4513C5.05408 31.5437 5.33462 31.5804 5.61381 31.5593" fill="white"/>
<path opacity="0.5" d="M5.61365 35.6273H7.6473V31.5715H5.61365C5.10231 31.6102 4.62445 31.8406 4.27579 32.2167C3.92713 32.5927 3.7334 33.0866 3.7334 33.5994C3.7334 34.1122 3.92713 34.6061 4.27579 34.9821C4.62445 35.3581 5.10231 35.5886 5.61365 35.6273" fill="white"/>
<path opacity="0.5" d="M11.7138 23.4255H7.64648V27.4928H11.7138V23.4255Z" fill="white"/>
<path opacity="0.5" d="M11.7138 27.4922H7.64648V31.5595H11.7138V27.4922Z" fill="white"/>
<path opacity="0.5" d="M1.54726 3.09245C1.94923 3.0913 2.34184 2.97106 2.67551 2.7469C3.00918 2.52274 3.26894 2.20473 3.42197 1.83303C3.57501 1.46133 3.61446 1.05261 3.53533 0.658507C3.45621 0.264399 3.26207 -0.0974212 2.97743 -0.381253C2.69279 -0.665086 2.33042 -0.858198 1.93609 -0.936198C1.54175 -1.0142 1.13315 -0.973589 0.761888 -0.819498C0.390624 -0.665406 0.0733522 -0.404746 -0.149853 -0.0704403C-0.373059 0.263866 -0.492186 0.656821 -0.492188 1.05879C-0.492187 1.59815 -0.277928 2.11542 0.103456 2.4968C0.48484 2.87819 1.00211 3.09245 1.54147 3.09245" fill="white"/>
<path opacity="0.5" d="M1.54726 11.2262C1.94923 11.2251 2.34184 11.1048 2.67551 10.8807C3.00918 10.6565 3.26894 10.3385 3.42197 9.96682C3.57501 9.59512 3.61446 9.1864 3.53533 8.7923C3.45621 8.39819 3.26207 8.03637 2.97743 7.75254C2.69279 7.4687 2.33042 7.27559 1.93609 7.19759C1.54175 7.11959 1.13315 7.1602 0.761888 7.31429C0.390624 7.46838 0.0733522 7.72904 -0.149853 8.06335C-0.373059 8.39765 -0.492186 8.79061 -0.492187 9.19258C-0.492189 9.46013 -0.439395 9.72506 -0.336832 9.97217C-0.23427 10.2193 -0.0839536 10.4437 0.105503 10.6326C0.294959 10.8216 0.519832 10.9712 0.767235 11.0731C1.01464 11.175 1.27971 11.227 1.54726 11.2262" fill="white"/>
<path opacity="0.5" d="M1.54713 3.09334C1.14419 3.08989 0.749307 3.20623 0.412596 3.42759C0.0758847 3.64894 -0.187477 3.96534 -0.344068 4.33662C-0.500659 4.70791 -0.54342 5.11735 -0.466925 5.51297C-0.39043 5.9086 -0.198128 6.27259 0.0855797 6.55874C0.369287 6.84489 0.731609 7.04031 1.12657 7.1202C1.52152 7.20009 1.93131 7.16084 2.30393 7.00745C2.67654 6.85405 2.99519 6.59341 3.21943 6.25861C3.44366 5.92381 3.56339 5.52994 3.5634 5.12699C3.5634 4.58763 3.34914 4.07036 2.96776 3.68898C2.58637 3.3076 2.06911 3.09334 1.52975 3.09334" fill="white"/>
<path opacity="0.5" d="M1.54726 15.2922C1.94923 15.291 2.34184 15.1708 2.67551 14.9466C3.00918 14.7225 3.26894 14.4044 3.42197 14.0327C3.57501 13.661 3.61446 13.2523 3.53533 12.8582C3.45621 12.4641 3.26207 12.1023 2.97743 11.8185C2.69279 11.5346 2.33042 11.3415 1.93609 11.2635C1.54175 11.1855 1.13315 11.2261 0.761888 11.3802C0.390624 11.5343 0.0733522 11.795 -0.149853 12.1293C-0.373059 12.4636 -0.492186 12.8565 -0.492188 13.2585C-0.492187 13.7979 -0.277928 14.3151 0.103456 14.6965C0.48484 15.0779 1.00211 15.2922 1.54147 15.2922" fill="white"/>
<path opacity="0.5" d="M32.0479 55.9605C30.9723 55.9605 29.9407 55.5332 29.1801 54.7726C28.4195 54.012 27.9922 52.9804 27.9922 51.9048H32.0479V55.9605Z" fill="white"/>
<path opacity="0.5" d="M36.1142 51.8936H32.0469V55.9609H36.1142V51.8936Z" fill="white"/>
<path opacity="0.5" d="M21.8813 51.893C21.4791 51.893 21.0859 51.7737 20.7515 51.5503C20.417 51.3268 20.1564 51.0092 20.0025 50.6376C19.8485 50.266 19.8083 49.8571 19.8867 49.4626C19.9652 49.0681 20.1589 48.7057 20.4433 48.4213C20.7277 48.1369 21.0901 47.9432 21.4846 47.8648C21.8791 47.7863 22.288 47.8266 22.6596 47.9805C23.0312 48.1344 23.3488 48.3951 23.5722 48.7295C23.7957 49.0639 23.915 49.4571 23.915 49.8593C23.915 50.3987 23.7007 50.916 23.3193 51.2973C22.9379 51.6787 22.4207 51.893 21.8813 51.893Z" fill="white"/>
<path opacity="0.5" d="M21.8813 55.9609C21.4791 55.9609 21.0859 55.8416 20.7515 55.6181C20.417 55.3947 20.1564 55.0771 20.0025 54.7055C19.8485 54.3339 19.8083 53.925 19.8867 53.5305C19.9652 53.136 20.1589 52.7736 20.4433 52.4892C20.7277 52.2048 21.0901 52.0111 21.4846 51.9326C21.8791 51.8542 22.288 51.8944 22.6596 52.0484C23.0312 52.2023 23.3488 52.4629 23.5722 52.7974C23.7957 53.1318 23.915 53.525 23.915 53.9272C23.915 54.4666 23.7007 54.9838 23.3193 55.3652C22.9379 55.7466 22.4207 55.9609 21.8813 55.9609Z" fill="white"/>
<path opacity="0.5" d="M25.9477 39.6933C25.5455 39.6933 25.1523 39.574 24.8179 39.3506C24.4834 39.1271 24.2228 38.8095 24.0689 38.4379C23.9149 38.0663 23.8747 37.6574 23.9531 37.2629C24.0316 36.8684 24.2253 36.506 24.5097 36.2216C24.7941 35.9372 25.1565 35.7435 25.551 35.6651C25.9455 35.5866 26.3544 35.6269 26.726 35.7808C27.0976 35.9347 27.4152 36.1954 27.6386 36.5298C27.8621 36.8642 27.9814 37.2574 27.9814 37.6596C27.9814 38.199 27.7671 38.7163 27.3857 39.0976C27.0043 39.479 26.4871 39.6933 25.9477 39.6933Z" fill="white"/>
<path opacity="0.5" d="M32.0479 39.6929H27.9922C27.9922 38.6173 28.4195 37.5857 29.1801 36.8251C29.9407 36.0645 30.9723 35.6372 32.0479 35.6372V39.6929Z" fill="white"/>
<path opacity="0.5" d="M36.1142 35.626H32.0469V39.6933H36.1142V35.626Z" fill="white"/>
<path opacity="0.5" d="M27.9814 39.6929H23.9141V43.7602H27.9814V39.6929Z" fill="white"/>
<path opacity="0.5" d="M30.0141 43.7602C29.6119 43.7602 29.2187 43.6409 28.8843 43.4174C28.5499 43.194 28.2892 42.8764 28.1353 42.5048C27.9813 42.1332 27.9411 41.7243 28.0195 41.3298C28.098 40.9353 28.2917 40.5729 28.5761 40.2885C28.8605 40.0041 29.2229 39.8104 29.6174 39.7319C30.0119 39.6535 30.4208 39.6938 30.7924 39.8477C31.164 40.0016 31.4816 40.2623 31.705 40.5967C31.9285 40.9311 32.0478 41.3243 32.0478 41.7265C32.0478 42.2659 31.8335 42.7832 31.4521 43.1645C31.0707 43.5459 30.5535 43.7602 30.0141 43.7602" fill="white"/>
<path opacity="0.5" d="M36.1143 43.7598C35.0387 43.7598 34.0071 43.3325 33.2465 42.5719C32.4859 41.8113 32.0586 40.7797 32.0586 39.7041H36.1143V43.7598Z" fill="white"/>
<path opacity="0.5" d="M30.0141 47.8261C29.6119 47.8261 29.2187 47.7068 28.8843 47.4834C28.5499 47.2599 28.2892 46.9423 28.1353 46.5707C27.9813 46.1991 27.9411 45.7902 28.0195 45.3957C28.098 45.0012 28.2917 44.6388 28.5761 44.3544C28.8605 44.07 29.2229 43.8763 29.6174 43.7979C30.0119 43.7194 30.4208 43.7597 30.7924 43.9136C31.164 44.0675 31.4816 44.3282 31.705 44.6626C31.9285 44.997 32.0478 45.3902 32.0478 45.7924C32.0478 46.0595 31.9952 46.324 31.893 46.5707C31.7908 46.8174 31.641 47.0416 31.4521 47.2305C31.2633 47.4193 31.0391 47.5691 30.7924 47.6713C30.5456 47.7735 30.2812 47.8261 30.0141 47.8261" fill="white"/>
<path opacity="0.5" d="M34.0805 47.8261C33.6783 47.8261 33.2851 47.7068 32.9507 47.4834C32.6163 47.2599 32.3556 46.9423 32.2017 46.5707C32.0478 46.1991 32.0075 45.7902 32.086 45.3957C32.1644 45.0012 32.3581 44.6388 32.6425 44.3544C32.9269 44.07 33.2893 43.8763 33.6838 43.7979C34.0783 43.7194 34.4872 43.7597 34.8588 43.9136C35.2304 44.0675 35.548 44.3282 35.7715 44.6626C35.9949 44.997 36.1142 45.3902 36.1142 45.7924C36.1142 46.0595 36.0616 46.324 35.9594 46.5707C35.8572 46.8174 35.7074 47.0416 35.5185 47.2305C35.3297 47.4193 35.1055 47.5691 34.8588 47.6713C34.612 47.7735 34.3476 47.8261 34.0805 47.8261Z" fill="white"/>
<path opacity="0.5" d="M25.9477 51.893C25.5455 51.893 25.1523 51.7737 24.8179 51.5503C24.4834 51.3268 24.2228 51.0092 24.0689 50.6376C23.9149 50.266 23.8747 49.8571 23.9531 49.4626C24.0316 49.0681 24.2253 48.7057 24.5097 48.4213C24.7941 48.1369 25.1565 47.9432 25.551 47.8648C25.9455 47.7863 26.3544 47.8266 26.726 47.9805C27.0976 48.1344 27.4152 48.3951 27.6386 48.7295C27.8621 49.0639 27.9814 49.4571 27.9814 49.8593C27.9814 50.3987 27.7671 50.916 27.3857 51.2973C27.0043 51.6787 26.4871 51.893 25.9477 51.893Z" fill="white"/>
<path opacity="0.5" d="M32.0478 47.8257H27.9805V51.893H32.0478V47.8257Z" fill="white"/>
<path opacity="0.5" d="M36.1143 51.8936H32.0586C32.0586 50.818 32.4859 49.7864 33.2465 49.0258C34.0071 48.2652 35.0387 47.8379 36.1143 47.8379V51.8936Z" fill="white"/>
<path opacity="0.5" d="M17.8138 39.6929H19.8475V35.6372H17.8138C17.3025 35.6759 16.8247 35.9063 16.476 36.2824C16.1273 36.6584 15.9336 37.1523 15.9336 37.6651C15.9336 38.1779 16.1273 38.6717 16.476 39.0478C16.8247 39.4238 17.3025 39.6542 17.8138 39.6929" fill="white"/>
<path opacity="0.5" d="M15.7803 43.7598H19.836V39.7041H17.8139C17.2746 39.7041 16.7573 39.9184 16.3759 40.2997C15.9945 40.6811 15.7803 41.1984 15.7803 41.7378V43.7598Z" fill="white"/>
<path opacity="0.5" d="M19.8476 43.7588H15.7803V47.8261H19.8476V43.7588Z" fill="white"/>
<path opacity="0.5" d="M15.7803 51.8936C16.8559 51.8936 17.8875 51.4663 18.6481 50.7057C19.4087 49.9451 19.836 48.9135 19.836 47.8379H15.7803V51.8936Z" fill="white"/>
<path opacity="0.5" d="M19.8477 39.6929H23.9034C23.9034 38.6173 23.4761 37.5857 22.7155 36.8251C21.9549 36.0645 20.9233 35.6372 19.8477 35.6372V39.6929Z" fill="white"/>
<path opacity="0.5" d="M23.915 39.6929H19.8477V43.7602H23.915V39.6929Z" fill="white"/>
<path opacity="0.5" d="M23.9141 47.8255V43.7698H19.8584C19.8584 44.8454 20.2857 45.877 21.0463 46.6376C21.8069 47.3982 22.8385 47.8255 23.9141 47.8255" fill="white"/>
<path opacity="0.5" d="M17.8139 55.9609C17.4117 55.9609 17.0185 55.8416 16.6841 55.6181C16.3497 55.3947 16.089 55.0771 15.9351 54.7055C15.7812 54.3339 15.7409 53.925 15.8194 53.5305C15.8978 53.136 16.0915 52.7736 16.3759 52.4892C16.6603 52.2048 17.0227 52.0111 17.4172 51.9326C17.8117 51.8542 18.2206 51.8944 18.5922 52.0484C18.9638 52.2023 19.2814 52.4629 19.5048 52.7974C19.7283 53.1318 19.8476 53.525 19.8476 53.9272C19.8476 54.4666 19.6333 54.9838 19.2519 55.3652C18.8706 55.7466 18.3533 55.9609 17.8139 55.9609Z" fill="white"/>
<path opacity="0.5" d="M3.58 27.4922H-0.487305V31.5595H3.58V27.4922Z" fill="white"/>
<path opacity="0.5" d="M3.58 31.5591H-0.487305V35.6264H3.58V31.5591Z" fill="white"/>
<path opacity="0.5" d="M3.56353 19.3607V15.3049H-0.492188C-0.492188 16.3806 -0.0648898 17.4122 0.695705 18.1728C1.4563 18.9334 2.48789 19.3607 3.56353 19.3607Z" fill="white"/>
<path opacity="0.5" d="M-0.492188 39.6929C0.583456 39.6929 1.61504 39.2656 2.37564 38.505C3.13623 37.7444 3.56353 36.7129 3.56353 35.6372H-0.492188V39.6929Z" fill="white"/>
<path opacity="0.5" d="M3.58 19.3586H-0.487305V23.426H3.58V19.3586Z" fill="white"/>
<path opacity="0.5" d="M3.58 23.4255H-0.487305V27.4928H3.58V23.4255Z" fill="white"/>
<path opacity="0.5" d="M-0.492188 47.8255H3.56353C3.56353 46.7499 3.13623 45.7183 2.37564 44.9577C1.61504 44.1971 0.583456 43.7698 -0.492188 43.7698V47.8255Z" fill="white"/>
<path opacity="0.5" d="M3.58 47.8257H-0.487305V51.893H3.58V47.8257Z" fill="white"/>
<path opacity="0.5" d="M-0.492188 43.7603H3.56353V41.7267C3.52485 41.2153 3.29442 40.7375 2.91838 40.3888C2.54235 40.0402 2.04848 39.8464 1.53567 39.8464C1.02287 39.8464 0.528995 40.0402 0.152961 40.3888C-0.223074 40.7375 -0.453506 41.2153 -0.492188 41.7267V43.7603Z" fill="white"/>
<path opacity="0.5" d="M3.58 51.8936H-0.487305V55.9609H3.58V51.8936Z" fill="white"/>
<path opacity="0.5" d="M3.58 55.9551H-0.487305V60.0224H3.58V55.9551Z" fill="white"/>
<path opacity="0.5" d="M3.58 60.0195H-0.487305V64.0868H3.58V60.0195Z" fill="white"/>
<path opacity="0.5" d="M3.58 64.0876H-0.487305V68.155H3.58V64.0876Z" fill="white"/>
<path opacity="0.5" d="M1.54726 72.2206C1.94923 72.2195 2.34184 72.0992 2.67551 71.8751C3.00918 71.6509 3.26894 71.3329 3.42197 70.9612C3.57501 70.5895 3.61446 70.1808 3.53533 69.7867C3.45621 69.3926 3.26207 69.0308 2.97743 68.7469C2.69279 68.4631 2.33042 68.27 1.93609 68.192C1.54175 68.114 1.13315 68.1546 0.761888 68.3087C0.390624 68.4628 0.0733522 68.7234 -0.149853 69.0577C-0.373059 69.392 -0.492186 69.785 -0.492188 70.187C-0.492187 70.7263 -0.277928 71.2436 0.103456 71.625C0.48484 72.0064 1.00211 72.2206 1.54147 72.2206" fill="white"/>
<path opacity="0.5" d="M-0.492188 76.2881H3.56353V72.2324C2.48789 72.2324 1.4563 72.6597 0.695705 73.4203C-0.0648898 74.1809 -0.492187 75.2125 -0.492188 76.2881" fill="white"/>
<path opacity="0.5" d="M52.3808 55.9551H48.3135V60.0224H52.3808V55.9551Z" fill="white"/>
<path opacity="0.5" d="M52.3808 60.0195H48.3135V64.0868H52.3808V60.0195Z" fill="white"/>
<path opacity="0.5" d="M56.4483 64.0875C55.3727 64.0875 54.3411 63.6602 53.5805 62.8996C52.8199 62.139 52.3926 61.1074 52.3926 60.0317H56.4483V64.0875Z" fill="white"/>
<path opacity="0.5" d="M52.3808 64.0876H48.3135V68.155H52.3808V64.0876Z" fill="white"/>
<path opacity="0.5" d="M56.4482 64.0876H52.3809V68.155H56.4482V64.0876Z" fill="white"/>
<path opacity="0.5" d="M52.3808 68.1533H48.3135V72.2206H52.3808V68.1533Z" fill="white"/>
<path opacity="0.5" d="M56.4483 72.2212H52.3926C52.3926 71.1456 52.8199 70.114 53.5805 69.3534C54.3411 68.5928 55.3727 68.1655 56.4483 68.1655V72.2212Z" fill="white"/>
<path opacity="0.5" d="M52.3808 72.2214H48.3135V76.2887H52.3808V72.2214Z" fill="white"/>
<path opacity="0.5" d="M56.4482 72.2214H52.3809V76.2887H56.4482V72.2214Z" fill="white"/>
<path opacity="0.5" d="M48.3154 55.9551H44.248V60.0224H48.3154V55.9551Z" fill="white"/>
<path opacity="0.5" d="M48.3154 60.0195H44.248V64.0868H48.3154V60.0195Z" fill="white"/>
<path opacity="0.5" d="M48.3154 64.0876H44.248V68.155H48.3154V64.0876Z" fill="white"/>
<path opacity="0.5" d="M48.3154 68.1533H44.248V72.2206H48.3154V68.1533Z" fill="white"/>
<path opacity="0.5" d="M48.3154 72.2214H44.248V76.2887H48.3154V72.2214Z" fill="white"/>
<path opacity="0.5" d="M72.7099 47.8257H68.6426V51.893H72.7099V47.8257Z" fill="white"/>
<path opacity="0.5" d="M72.7099 51.8936H68.6426V55.9609H72.7099V51.8936Z" fill="white"/>
<path opacity="0.5" d="M72.7099 39.6929H68.6426V43.7602H72.7099V39.6929Z" fill="white"/>
<path opacity="0.5" d="M76.7764 43.7598H72.7207C72.7207 42.6842 73.148 41.6526 73.9086 40.892C74.6692 40.1314 75.7008 39.7041 76.7764 39.7041V43.7598Z" fill="white"/>
<path opacity="0.5" d="M76.7764 47.8255H72.7207C72.7207 46.7499 73.148 45.7183 73.9086 44.9577C74.6692 44.1971 75.7008 43.7698 76.7764 43.7698V47.8255Z" fill="white"/>
<path opacity="0.5" d="M76.7763 47.8257H72.709V51.893H76.7763V47.8257Z" fill="white"/>
<path opacity="0.5" d="M76.7763 51.8936H72.709V55.9609H76.7763V51.8936Z" fill="white"/>
<path opacity="0.5" d="M68.6425 35.626H64.5752V39.6933H68.6425V35.626Z" fill="white"/>
<path opacity="0.5" d="M68.6426 43.7598C67.567 43.7598 66.5354 43.3325 65.7748 42.5719C65.0142 41.8113 64.5869 40.7797 64.5869 39.7041H68.6426V43.7598Z" fill="white"/>
<path opacity="0.5" d="M32.0479 60.0218H27.9922C27.9922 58.9461 28.4195 57.9145 29.1801 57.154C29.9407 56.3934 30.9723 55.9661 32.0479 55.9661V60.0218Z" fill="white"/>
<path opacity="0.5" d="M36.1142 55.9551H32.0469V60.0224H36.1142V55.9551Z" fill="white"/>
<path opacity="0.5" d="M34.0805 64.0868C33.6783 64.0868 33.2851 63.9676 32.9507 63.7441C32.6163 63.5206 32.3556 63.203 32.2017 62.8314C32.0478 62.4598 32.0075 62.0509 32.086 61.6564C32.1644 61.2619 32.3581 60.8996 32.6425 60.6152C32.9269 60.3308 33.2893 60.1371 33.6838 60.0586C34.0783 59.9801 34.4872 60.0204 34.8588 60.1743C35.2304 60.3283 35.548 60.5889 35.7715 60.9233C35.9949 61.2578 36.1142 61.651 36.1142 62.0532C36.1142 62.5925 35.8999 63.1098 35.5185 63.4912C35.1372 63.8726 34.6199 64.0868 34.0805 64.0868Z" fill="white"/>
<path opacity="0.5" d="M36.1142 64.0876H32.0469V68.155H36.1142V64.0876Z" fill="white"/>
<path opacity="0.5" d="M70.6762 15.2922C70.1369 15.2922 69.6196 15.0779 69.2382 14.6965C68.8568 14.3151 68.6426 13.7979 68.6426 13.2585V11.2249H72.6983V13.2585C72.6983 13.7979 72.484 14.3151 72.1027 14.6965C71.7213 15.0779 71.204 15.2922 70.6646 15.2922" fill="white"/>
<path opacity="0.5" d="M70.6762 19.3591C70.274 19.3591 69.8808 19.2398 69.5464 19.0163C69.212 18.7929 68.9513 18.4752 68.7974 18.1036C68.6435 17.732 68.6032 17.3231 68.6817 16.9287C68.7601 16.5342 68.9538 16.1718 69.2382 15.8874C69.5226 15.603 69.885 15.4093 70.2795 15.3308C70.674 15.2524 71.0829 15.2926 71.4545 15.4466C71.8261 15.6005 72.1437 15.8611 72.3672 16.1956C72.5906 16.53 72.7099 16.9232 72.7099 17.3254C72.7099 17.8648 72.4956 18.382 72.1142 18.7634C71.7329 19.1448 71.2156 19.3591 70.6762 19.3591" fill="white"/>
<path opacity="0.5" d="M56.4482 11.2249H52.3809V15.2922H56.4482V11.2249Z" fill="white"/>
<path opacity="0.5" d="M60.5088 15.2916H56.4531C56.4531 14.2159 56.8804 13.1843 57.641 12.4237C58.4016 11.6631 59.4332 11.2358 60.5088 11.2358V15.2916Z" fill="white"/>
<path opacity="0.5" d="M62.5424 15.2916H60.5088V11.2358H64.5645V13.2695C64.5645 13.5366 64.5119 13.801 64.4097 14.0477C64.3075 14.2945 64.1577 14.5187 63.9689 14.7075C63.78 14.8963 63.5558 15.0461 63.3091 15.1483C63.0624 15.2505 62.7979 15.3031 62.5309 15.3031" fill="white"/>
<path opacity="0.5" d="M66.6089 15.2922C66.0695 15.2922 65.5522 15.0779 65.1708 14.6965C64.7895 14.3151 64.5752 13.7979 64.5752 13.2585V11.2249H68.6309V13.2585C68.6309 13.5256 68.5783 13.79 68.4761 14.0368C68.3739 14.2835 68.2241 14.5077 68.0353 14.6965C67.8464 14.8854 67.6222 15.0352 67.3755 15.1374C67.1288 15.2396 66.8643 15.2922 66.5973 15.2922" fill="white"/>
<path opacity="0.5" d="M62.5424 19.3607H60.5088V15.3049H62.5424C63.0538 15.3436 63.5316 15.574 63.8803 15.9501C64.229 16.3261 64.4227 16.82 64.4227 17.3328C64.4227 17.8456 64.229 18.3395 63.8803 18.7155C63.5316 19.0915 63.0538 19.322 62.5424 19.3607" fill="white"/>
<path opacity="0.5" d="M66.6089 19.3591C66.2066 19.3591 65.8134 19.2398 65.479 19.0163C65.1446 18.7929 64.8839 18.4752 64.73 18.1036C64.5761 17.732 64.5358 17.3231 64.6143 16.9287C64.6927 16.5342 64.8864 16.1718 65.1708 15.8874C65.4553 15.603 65.8176 15.4093 66.2121 15.3308C66.6066 15.2524 67.0155 15.2926 67.3871 15.4466C67.7587 15.6005 68.0763 15.8611 68.2998 16.1956C68.5232 16.53 68.6425 16.9232 68.6425 17.3254C68.6425 17.5925 68.5899 17.8569 68.4877 18.1036C68.3855 18.3504 68.2357 18.5746 68.0469 18.7634C67.858 18.9523 67.6338 19.1021 67.3871 19.2043C67.1404 19.3065 66.8759 19.3591 66.6089 19.3591Z" fill="white"/>
<path opacity="0.5" d="M62.5424 23.4253H60.5088V19.3696H62.5424C63.0538 19.4083 63.5316 19.6387 63.8803 20.0148C64.229 20.3908 64.4227 20.8847 64.4227 21.3975C64.4227 21.9103 64.229 22.4042 63.8803 22.7802C63.5316 23.1562 63.0538 23.3867 62.5424 23.4253" fill="white"/>
<path opacity="0.5" d="M66.6089 23.426C66.2066 23.426 65.8134 23.3067 65.479 23.0832C65.1446 22.8598 64.8839 22.5421 64.73 22.1705C64.5761 21.7989 64.5358 21.39 64.6143 20.9956C64.6927 20.6011 64.8864 20.2387 65.1708 19.9543C65.4553 19.6699 65.8176 19.4762 66.2121 19.3977C66.6066 19.3193 67.0155 19.3595 67.3871 19.5134C67.7587 19.6674 68.0763 19.928 68.2998 20.2625C68.5232 20.5969 68.6425 20.9901 68.6425 21.3923C68.6425 21.6594 68.5899 21.9238 68.4877 22.1705C68.3855 22.4173 68.2357 22.6415 68.0469 22.8303C67.858 23.0192 67.6338 23.1689 67.3871 23.2711C67.1404 23.3733 66.8759 23.426 66.6089 23.426" fill="white"/>
<path opacity="0.5" d="M44.248 23.4255H40.1807V27.4928H44.248V23.4255Z" fill="white"/>
<path opacity="0.5" d="M52.3808 23.4255H48.3135V27.4928H52.3808V23.4255Z" fill="white"/>
<path opacity="0.5" d="M54.4145 27.4936H52.3809V23.4379H54.4145C54.6937 23.4168 54.9742 23.4536 55.2386 23.5459C55.5029 23.6382 55.7453 23.7842 55.9506 23.9745C56.1559 24.1649 56.3197 24.3956 56.4317 24.6522C56.5438 24.9088 56.6016 25.1858 56.6016 25.4658C56.6016 25.7458 56.5438 26.0227 56.4317 26.2794C56.3197 26.536 56.1559 26.7667 55.9506 26.957C55.7453 27.1474 55.5029 27.2933 55.2386 27.3857C54.9742 27.478 54.6937 27.5148 54.4145 27.4936" fill="white"/>
<path opacity="0.5" d="M44.248 27.4922H40.1807V31.5595H44.248V27.4922Z" fill="white"/>
<path opacity="0.5" d="M52.3808 27.4922H48.3135V31.5595H52.3808V27.4922Z" fill="white"/>
<path opacity="0.5" d="M54.4145 31.5593H52.3809V27.5036H54.4145C54.6937 27.4825 54.9742 27.5192 55.2386 27.6116C55.5029 27.7039 55.7453 27.8498 55.9506 28.0402C56.1559 28.2306 56.3197 28.4613 56.4317 28.7179C56.5438 28.9745 56.6016 29.2515 56.6016 29.5315C56.6016 29.8114 56.5438 30.0884 56.4317 30.345C56.3197 30.6016 56.1559 30.8323 55.9506 31.0227C55.7453 31.2131 55.5029 31.359 55.2386 31.4513C54.9742 31.5437 54.6937 31.5804 54.4145 31.5593" fill="white"/>
<path opacity="0.5" d="M48.3154 31.5591H44.248V35.6264H48.3154V31.5591Z" fill="white"/>
<path opacity="0.5" d="M52.3819 35.6273H48.3262C48.3262 34.5516 48.7535 33.52 49.5141 32.7594C50.2747 31.9988 51.3062 31.5715 52.3819 31.5715V35.6273Z" fill="white"/>
<path opacity="0.5" d="M56.4483 35.6273H52.3926V31.5715H54.4262C54.9656 31.5715 55.4829 31.7858 55.8642 32.1672C56.2456 32.5486 56.4599 33.0658 56.4599 33.6052L56.4483 35.6273Z" fill="white"/>
<path opacity="0.5" d="M58.4809 31.5595C58.0784 31.5606 57.6846 31.4423 57.3494 31.2196C57.0142 30.9968 56.7527 30.6796 56.5979 30.3081C56.4431 29.9366 56.402 29.5275 56.4798 29.1327C56.5576 28.7378 56.7508 28.3749 57.035 28.0899C57.3192 27.8049 57.6815 27.6106 58.0762 27.5317C58.4708 27.4528 58.88 27.4927 59.252 27.6464C59.6239 27.8002 59.9419 28.0608 60.1656 28.3954C60.3893 28.73 60.5087 29.1234 60.5087 29.5258C60.5087 30.0642 60.2953 30.5806 59.9151 30.9618C59.535 31.343 59.0192 31.558 58.4809 31.5595" fill="white"/>
<path opacity="0.5" d="M40.1817 31.5591H36.126C36.126 30.4835 36.5533 29.4519 37.3139 28.6913C38.0745 27.9307 39.1061 27.5034 40.1817 27.5034V31.5591Z" fill="white"/>
<path opacity="0.5" d="M40.1806 31.5591H36.1133V35.6264H40.1806V31.5591Z" fill="white"/>
<path opacity="0.5" d="M64.5762 68.1544H60.5205V64.0986C61.5962 64.0986 62.6277 64.5259 63.3883 65.2865C64.1489 66.0471 64.5762 67.0787 64.5762 68.1544" fill="white"/>
<path opacity="0.5" d="M50.3422 11.2262C49.94 11.2262 49.5468 11.107 49.2124 10.8835C48.878 10.6601 48.6173 10.3424 48.4634 9.97084C48.3095 9.59923 48.2692 9.19033 48.3477 8.79584C48.4261 8.40135 48.6198 8.03899 48.9042 7.75458C49.1887 7.47017 49.551 7.27648 49.9455 7.19801C50.34 7.11954 50.7489 7.15982 51.1205 7.31374C51.4921 7.46766 51.8097 7.72832 52.0332 8.06275C52.2566 8.39718 52.3759 8.79037 52.3759 9.19259C52.3759 9.73195 52.1616 10.2492 51.7803 10.6306C51.3989 11.012 50.8816 11.2262 50.3422 11.2262Z" fill="white"/>
<path opacity="0.5" d="M54.4087 11.2262C54.0064 11.2262 53.6132 11.107 53.2788 10.8835C52.9444 10.6601 52.6837 10.3424 52.5298 9.97084C52.3759 9.59923 52.3356 9.19033 52.4141 8.79584C52.4925 8.40135 52.6862 8.03899 52.9706 7.75458C53.2551 7.47017 53.6174 7.27648 54.0119 7.19801C54.4064 7.11954 54.8153 7.15982 55.1869 7.31374C55.5585 7.46766 55.8761 7.72832 56.0996 8.06275C56.323 8.39718 56.4423 8.79037 56.4423 9.19259C56.4423 9.73195 56.228 10.2492 55.8467 10.6306C55.4653 11.012 54.948 11.2262 54.4087 11.2262Z" fill="white"/>
<path opacity="0.5" d="M64.5761 31.5591H60.5088V35.6264H64.5761V31.5591Z" fill="white"/>
<path opacity="0.5" d="M64.5752 35.6273V31.5715H68.6309C68.6309 32.6472 68.2036 33.6788 67.443 34.4394C66.6824 35.2 65.6508 35.6273 64.5752 35.6273" fill="white"/>
<path opacity="0.5" d="M76.7763 31.5591H72.709V35.6264H76.7763V31.5591Z" fill="white"/>
<path opacity="0.5" d="M68.6425 23.4255H64.5752V27.4928H68.6425V23.4255Z" fill="white"/>
<path opacity="0.5" d="M72.7099 23.4255H68.6426V27.4928H72.7099V23.4255Z" fill="white"/>
<path opacity="0.5" d="M68.6425 27.4922H64.5752V31.5595H68.6425V27.4922Z" fill="white"/>
<path opacity="0.5" d="M72.7099 27.4922H68.6426V31.5595H72.7099V27.4922Z" fill="white"/>
<path opacity="0.5" d="M74.7426 31.5595C74.3404 31.5595 73.9472 31.4402 73.6128 31.2168C73.2784 30.9933 73.0177 30.6757 72.8638 30.3041C72.7099 29.9325 72.6696 29.5236 72.7481 29.1291C72.8265 28.7346 73.0202 28.3722 73.3046 28.0878C73.589 27.8034 73.9514 27.6097 74.3459 27.5313C74.7404 27.4528 75.1493 27.4931 75.5209 27.647C75.8925 27.8009 76.2101 28.0616 76.4336 28.396C76.657 28.7304 76.7763 29.1236 76.7763 29.5258C76.7763 30.0652 76.562 30.5825 76.1806 30.9639C75.7993 31.3452 75.282 31.5595 74.7426 31.5595Z" fill="white"/>
<path opacity="0.5" d="M21.8813 11.2262C21.4791 11.2262 21.0859 11.107 20.7515 10.8835C20.417 10.6601 20.1564 10.3424 20.0025 9.97084C19.8485 9.59923 19.8083 9.19033 19.8867 8.79584C19.9652 8.40135 20.1589 8.03899 20.4433 7.75458C20.7277 7.47017 21.0901 7.27648 21.4846 7.19801C21.8791 7.11954 22.288 7.15982 22.6596 7.31374C23.0312 7.46766 23.3488 7.72832 23.5722 8.06275C23.7957 8.39718 23.915 8.79037 23.915 9.19259C23.915 9.73195 23.7007 10.2492 23.3193 10.6306C22.9379 11.012 22.4207 11.2262 21.8813 11.2262Z" fill="white"/>
<path opacity="0.5" d="M27.9814 7.15894H23.9141V11.2262H27.9814V7.15894Z" fill="white"/>
<path opacity="0.5" d="M30.0141 11.2262C29.6119 11.2262 29.2187 11.107 28.8843 10.8835C28.5499 10.6601 28.2892 10.3424 28.1353 9.97084C27.9813 9.59923 27.9411 9.19033 28.0195 8.79584C28.098 8.40135 28.2917 8.03899 28.5761 7.75458C28.8605 7.47017 29.2229 7.27648 29.6174 7.19801C30.0119 7.11954 30.4208 7.15982 30.7924 7.31374C31.164 7.46766 31.4816 7.72832 31.705 8.06275C31.9285 8.39718 32.0478 8.79037 32.0478 9.19259C32.0478 9.73195 31.8335 10.2492 31.4521 10.6306C31.0707 11.012 30.5535 11.2262 30.0141 11.2262" fill="white"/>
<path opacity="0.5" d="M40.1806 7.15894H36.1133V11.2262H40.1806V7.15894Z" fill="white"/>
<path opacity="0.5" d="M36.1143 11.2259C35.0387 11.2259 34.0071 10.7986 33.2465 10.038C32.4859 9.2774 32.0586 8.24581 32.0586 7.17017H36.1143V11.2259Z" fill="white"/>
<path opacity="0.5" d="M23.915 11.2249H19.8477V15.2922H23.915V11.2249Z" fill="white"/>
<path opacity="0.5" d="M25.9477 15.2922C25.5455 15.2922 25.1523 15.1729 24.8179 14.9494C24.4834 14.726 24.2228 14.4084 24.0689 14.0368C23.9149 13.6652 23.8747 13.2563 23.9531 12.8618C24.0316 12.4673 24.2253 12.1049 24.5097 11.8205C24.7941 11.5361 25.1565 11.3424 25.551 11.2639C25.9455 11.1855 26.3544 11.2257 26.726 11.3797C27.0976 11.5336 27.4152 11.7942 27.6386 12.1287C27.8621 12.4631 27.9814 12.8563 27.9814 13.2585C27.9814 13.7979 27.7671 14.3151 27.3857 14.6965C27.0043 15.0779 26.4871 15.2922 25.9477 15.2922Z" fill="white"/>
<path opacity="0.5" d="M23.915 15.2917H19.8477V19.3591H23.915V15.2917Z" fill="white"/>
<path opacity="0.5" d="M23.9141 19.3607V15.3049H27.9698C27.9698 16.3806 27.5425 17.4122 26.7819 18.1728C26.0213 18.9334 24.9897 19.3607 23.9141 19.3607" fill="white"/>
<path opacity="0.5" d="M23.9141 23.4253C22.8385 23.4253 21.8069 22.9981 21.0463 22.2375C20.2857 21.4769 19.8584 20.4453 19.8584 19.3696H23.9141V23.4253Z" fill="white"/>
<path opacity="0.5" d="M27.9814 19.3586H23.9141V23.426H27.9814V19.3586Z" fill="white"/>
<path opacity="0.5" d="M30.0141 15.2922C29.6119 15.2922 29.2187 15.1729 28.8843 14.9494C28.5499 14.726 28.2892 14.4084 28.1353 14.0368C27.9813 13.6652 27.9411 13.2563 28.0195 12.8618C28.098 12.4673 28.2917 12.1049 28.5761 11.8205C28.8605 11.5361 29.2229 11.3424 29.6174 11.2639C30.0119 11.1855 30.4208 11.2257 30.7924 11.3797C31.164 11.5336 31.4816 11.7942 31.705 12.1287C31.9285 12.4631 32.0478 12.8563 32.0478 13.2585C32.0478 13.7979 31.8335 14.3151 31.4521 14.6965C31.0707 15.0779 30.5535 15.2922 30.0141 15.2922" fill="white"/>
<path opacity="0.5" d="M36.1142 11.2249H32.0469V15.2922H36.1142V11.2249Z" fill="white"/>
<path opacity="0.5" d="M32.0478 15.2917H27.9805V19.3591H32.0478V15.2917Z" fill="white"/>
<path opacity="0.5" d="M36.1142 15.2917H32.0469V19.3591H36.1142V15.2917Z" fill="white"/>
<path opacity="0.5" d="M32.0478 19.3586H27.9805V23.426H32.0478V19.3586Z" fill="white"/>
<path opacity="0.5" d="M36.1143 23.4253H32.0586C32.0586 22.3497 32.4859 21.3181 33.2465 20.5575C34.0071 19.7969 35.0387 19.3696 36.1143 19.3696V23.4253Z" fill="white"/>
<path opacity="0.5" d="M36.1133 19.3607V15.3049H40.169C40.169 16.3806 39.7417 17.4122 38.9811 18.1728C38.2205 18.9334 37.1889 19.3607 36.1133 19.3607" fill="white"/>
<path opacity="0.5" d="M21.8813 27.4928C21.4791 27.4928 21.0859 27.3736 20.7515 27.1501C20.417 26.9267 20.1564 26.609 20.0025 26.2374C19.8485 25.8658 19.8083 25.4569 19.8867 25.0624C19.9652 24.668 20.1589 24.3056 20.4433 24.0212C20.7277 23.7368 21.0901 23.5431 21.4846 23.4646C21.8791 23.3861 22.288 23.4264 22.6596 23.5803C23.0312 23.7343 23.3488 23.9949 23.5722 24.3294C23.7957 24.6638 23.915 25.057 23.915 25.4592C23.915 25.9985 23.7007 26.5158 23.3193 26.8972C22.9379 27.2786 22.4207 27.4928 21.8813 27.4928" fill="white"/>
<path opacity="0.5" d="M32.0469 27.4935V23.4377H36.1026C36.1026 24.5134 35.6753 25.545 34.9147 26.3056C34.1541 27.0662 33.1225 27.4935 32.0469 27.4935Z" fill="white"/>
<path opacity="0.5" d="M36.1143 31.5591H32.0586V27.5034C33.1342 27.5034 34.1658 27.9307 34.9264 28.6913C35.687 29.4519 36.1143 30.4835 36.1143 31.5591Z" fill="white"/>
<path opacity="0.5" d="M36.1142 31.5591H32.0469V35.6264H36.1142V31.5591Z" fill="white"/>
<path opacity="0.5" d="M25.9477 27.4928C25.5455 27.4928 25.1523 27.3736 24.8179 27.1501C24.4834 26.9267 24.2228 26.609 24.0689 26.2374C23.9149 25.8658 23.8747 25.4569 23.9531 25.0624C24.0316 24.668 24.2253 24.3056 24.5097 24.0212C24.7941 23.7368 25.1565 23.5431 25.551 23.4646C25.9455 23.3861 26.3544 23.4264 26.726 23.5803C27.0976 23.7343 27.4152 23.9949 27.6386 24.3294C27.8621 24.6638 27.9814 25.057 27.9814 25.4592C27.9814 25.9985 27.7671 26.5158 27.3857 26.8972C27.0043 27.2786 26.4871 27.4928 25.9477 27.4928" fill="white"/>
<path opacity="0.5" d="M32.0478 31.5591H27.9805V35.6264H32.0478V31.5591Z" fill="white"/>
<path opacity="0.5" d="M27.9815 3.09307C26.9059 3.09307 25.8743 2.66577 25.1137 1.90518C24.3531 1.14459 23.9258 0.112997 23.9258 -0.962646H27.9815V3.09307Z" fill="white"/>
<path opacity="0.5" d="M32.0478 -0.974854H27.9805V3.09245H32.0478V-0.974854Z" fill="white"/>
<path opacity="0.5" d="M13.7465 51.8936H11.7129V47.8379H15.7686V49.8715C15.7686 50.1386 15.716 50.4031 15.6138 50.6498C15.5116 50.8965 15.3618 51.1207 15.173 51.3096C14.9841 51.4984 14.7599 51.6482 14.5132 51.7504C14.2665 51.8526 14.002 51.9052 13.735 51.9052" fill="white"/>
<path opacity="0.5" d="M13.7465 55.9607H11.7129V51.905H13.7465C14.0257 51.8838 14.3063 51.9206 14.5706 52.0129C14.8349 52.1053 15.0773 52.2512 15.2827 52.4416C15.488 52.6319 15.6518 52.8626 15.7638 53.1193C15.8758 53.3759 15.9336 53.6528 15.9336 53.9328C15.9336 54.2128 15.8758 54.4898 15.7638 54.7464C15.6518 55.003 15.488 55.2337 15.2827 55.4241C15.0773 55.6145 14.8349 55.7604 14.5706 55.8527C14.3063 55.945 14.0257 55.9818 13.7465 55.9607" fill="white"/>
<path opacity="0.5" d="M11.7138 47.8257H7.64648V51.893H11.7138V47.8257Z" fill="white"/>
<path opacity="0.5" d="M7.64719 43.7598H3.5625V39.7041C4.63814 39.7041 5.66973 40.1314 6.43033 40.892C7.19092 41.6526 7.61822 42.6842 7.61822 43.7598" fill="white"/>
<path opacity="0.5" d="M7.64739 43.7588H3.58008V47.8261H7.64739V43.7588Z" fill="white"/>
<path opacity="0.5" d="M7.64739 51.8936H3.58008V55.9609H7.64739V51.8936Z" fill="white"/>
<path opacity="0.5" d="M40.1806 35.626H36.1133V39.6933H40.1806V35.626Z" fill="white"/>
<path opacity="0.5" d="M44.248 35.626H40.1807V39.6933H44.248V35.626Z" fill="white"/>
<path opacity="0.5" d="M48.3154 35.626H44.248V39.6933H48.3154V35.626Z" fill="white"/>
<path opacity="0.5" d="M40.1806 39.6929H36.1133V43.7602H40.1806V39.6929Z" fill="white"/>
<path opacity="0.5" d="M48.3145 43.7598C47.2389 43.7598 46.2073 43.3325 45.4467 42.5719C44.6861 41.8113 44.2588 40.7797 44.2588 39.7041H48.3145V43.7598Z" fill="white"/>
<path opacity="0.5" d="M52.3808 39.6929H48.3135V43.7602H52.3808V39.6929Z" fill="white"/>
<path opacity="0.5" d="M40.1806 43.7588H36.1133V47.8261H40.1806V43.7588Z" fill="white"/>
<path opacity="0.5" d="M44.248 43.7588H40.1807V47.8261H44.248V43.7588Z" fill="white"/>
<path opacity="0.5" d="M48.3145 47.8255H44.2588C44.2588 46.7499 44.6861 45.7183 45.4467 44.9577C46.2073 44.1971 47.2389 43.7698 48.3145 43.7698V47.8255Z" fill="white"/>
<path opacity="0.5" d="M52.3819 47.8255H48.3262V43.7698C49.4018 43.7698 50.4334 44.1971 51.194 44.9577C51.9546 45.7183 52.3819 46.7499 52.3819 47.8255" fill="white"/>
<path opacity="0.5" d="M38.1469 51.893C37.8799 51.893 37.6154 51.8404 37.3687 51.7382C37.122 51.636 36.8978 51.4862 36.7089 51.2973C36.5201 51.1085 36.3703 50.8843 36.2681 50.6376C36.1659 50.3908 36.1133 50.1264 36.1133 49.8593V47.8257H40.169V49.8593C40.169 50.3967 39.9563 50.9122 39.5775 51.2933C39.1986 51.6743 38.6843 51.8899 38.1469 51.893" fill="white"/>
<path opacity="0.5" d="M42.2143 51.893C41.675 51.893 41.1577 51.6787 40.7763 51.2973C40.3949 50.916 40.1807 50.3987 40.1807 49.8593V47.8257H44.2364V49.8593C44.2364 50.3987 44.0221 50.916 43.6407 51.2973C43.2594 51.6787 42.7421 51.893 42.2027 51.893" fill="white"/>
<path opacity="0.5" d="M46.2817 51.893C45.7423 51.893 45.2251 51.6787 44.8437 51.2973C44.4623 50.916 44.248 50.3987 44.248 49.8593V47.8257H48.3038V49.8593C48.3022 50.3982 48.0875 50.9146 47.7064 51.2957C47.3254 51.6767 46.809 51.8915 46.2701 51.893" fill="white"/>
<path opacity="0.5" d="M38.1469 55.9609C37.7447 55.9609 37.3515 55.8416 37.0171 55.6181C36.6827 55.3947 36.422 55.0771 36.2681 54.7055C36.1142 54.3339 36.0739 53.925 36.1524 53.5305C36.2308 53.136 36.4245 52.7736 36.7089 52.4892C36.9933 52.2048 37.3557 52.0111 37.7502 51.9326C38.1447 51.8542 38.5536 51.8944 38.9252 52.0484C39.2968 52.2023 39.6144 52.4629 39.8379 52.7974C40.0613 53.1318 40.1806 53.525 40.1806 53.9272C40.1806 54.4666 39.9663 54.9838 39.5849 55.3652C39.2036 55.7466 38.6863 55.9609 38.1469 55.9609Z" fill="white"/>
<path opacity="0.5" d="M42.2143 55.9609C41.8121 55.9609 41.4189 55.8416 41.0845 55.6181C40.7501 55.3947 40.4894 55.0771 40.3355 54.7055C40.1815 54.3339 40.1413 53.925 40.2197 53.5305C40.2982 53.136 40.4919 52.7736 40.7763 52.4892C41.0607 52.2048 41.4231 52.0111 41.8176 51.9326C42.2121 51.8542 42.621 51.8944 42.9926 52.0484C43.3642 52.2023 43.6818 52.4629 43.9052 52.7974C44.1287 53.1318 44.248 53.525 44.248 53.9272C44.248 54.4666 44.0337 54.9838 43.6523 55.3652C43.2709 55.7466 42.7537 55.9609 42.2143 55.9609" fill="white"/>
<path opacity="0.5" d="M52.3808 51.893H50.3471C49.8078 51.893 49.2905 51.6787 48.9091 51.2973C48.5277 50.916 48.3135 50.3987 48.3135 49.8593V47.8257H52.3692L52.3808 51.893Z" fill="white"/>
<path opacity="0.5" d="M64.5761 35.626H60.5088V39.6933H64.5761V35.626Z" fill="white"/>
<path opacity="0.5" d="M68.6425 47.8257H64.5752V51.893H68.6425V47.8257Z" fill="white"/>
<path opacity="0.5" d="M68.6425 51.8936H64.5752V55.9609H68.6425V51.8936Z" fill="white"/>
<path opacity="0.5" d="M52.3817 55.9605H50.348C49.8367 55.9218 49.3588 55.6914 49.0102 55.3154C48.6615 54.9393 48.4678 54.4454 48.4678 53.9326C48.4678 53.4198 48.6615 52.926 49.0102 52.5499C49.3588 52.1739 49.8367 51.9435 50.348 51.9048H52.3817V55.9605Z" fill="white"/>
<path opacity="0.5" d="M56.4482 43.7588H52.3809V47.8261H56.4482V43.7588Z" fill="white"/>
<path opacity="0.5" d="M56.4482 47.8257H52.3809V51.893H56.4482V47.8257Z" fill="white"/>
<path opacity="0.5" d="M56.4482 51.8936H52.3809V55.9609H56.4482V51.8936Z" fill="white"/>
<path opacity="0.5" d="M7.64747 60.022H5.61381C5.33462 60.0431 5.05408 60.0063 4.78975 59.914C4.52543 59.8217 4.28301 59.6757 4.0777 59.4854C3.87239 59.295 3.7086 59.0643 3.59658 58.8077C3.48457 58.5511 3.42676 58.2741 3.42676 57.9941C3.42676 57.7141 3.48457 57.4371 3.59658 57.1805C3.7086 56.9239 3.87239 56.6932 4.0777 56.5028C4.28301 56.3125 4.52543 56.1666 4.78975 56.0742C5.05408 55.9819 5.33462 55.9451 5.61381 55.9662H7.64747V60.022Z" fill="white"/>
<path opacity="0.5" d="M7.6473 64.0875H5.61365C5.10231 64.0488 4.62445 63.8183 4.27579 63.4423C3.92713 63.0663 3.7334 62.5724 3.7334 62.0596C3.7334 61.5468 3.92713 61.0529 4.27579 60.6769C4.62445 60.3009 5.10231 60.0704 5.61365 60.0317H7.6473V64.0875Z" fill="white"/>
<path opacity="0.5" d="M7.64719 68.155H3.5625V66.1213C3.5625 65.5819 3.77676 65.0647 4.15814 64.6833C4.53953 64.3019 5.0568 64.0876 5.59615 64.0876H7.62981L7.64719 68.155Z" fill="white"/>
<path opacity="0.5" d="M7.64739 68.1533H3.58008V72.2206H7.64739V68.1533Z" fill="white"/>
<path opacity="0.5" d="M7.64739 72.2214H3.58008V76.2887H7.64739V72.2214Z" fill="white"/>
<path opacity="0.5" d="M15.7802 55.9604V60.022H11.7129V55.9604" fill="white"/>
<path opacity="0.5" d="M19.8476 55.9604V60.022H15.7803V55.9604" fill="white"/>
<path opacity="0.5" d="M23.915 55.9604V60.022H19.8477V55.9604" fill="white"/>
<path opacity="0.5" d="M15.7803 64.0875C14.7047 64.0875 13.6731 63.6602 12.9125 62.8996C12.1519 62.139 11.7246 61.1074 11.7246 60.0317H15.7803V64.0875Z" fill="white"/>
<path opacity="0.5" d="M19.8476 60.0195H15.7803V64.0868H19.8476V60.0195Z" fill="white"/>
<path opacity="0.5" d="M23.9141 64.0875H19.8584C19.8584 63.0118 20.2857 61.9802 21.0463 61.2196C21.8069 60.459 22.8385 60.0317 23.9141 60.0317V64.0875Z" fill="white"/>
<path opacity="0.5" d="M15.7802 64.0876H11.7129V68.155H15.7802V64.0876Z" fill="white"/>
<path opacity="0.5" d="M19.8477 68.1544H15.792C15.792 67.0787 16.2193 66.0471 16.9799 65.2865C17.7405 64.5259 18.7721 64.0986 19.8477 64.0986V68.1544Z" fill="white"/>
<path opacity="0.5" d="M23.915 64.0876H19.8477V68.155H23.915V64.0876Z" fill="white"/>
<path opacity="0.5" d="M27.9814 64.0876H23.9141V68.155H27.9814V64.0876Z" fill="white"/>
<path opacity="0.5" d="M13.7465 72.2206C13.3443 72.2206 12.9511 72.1014 12.6167 71.8779C12.2823 71.6544 12.0216 71.3368 11.8677 70.9652C11.7138 70.5936 11.6735 70.1847 11.752 69.7902C11.8304 69.3957 12.0241 69.0334 12.3085 68.749C12.5929 68.4646 12.9553 68.2709 13.3498 68.1924C13.7443 68.1139 14.1532 68.1542 14.5248 68.3081C14.8964 68.462 15.214 68.7227 15.4375 69.0571C15.6609 69.3916 15.7802 69.7848 15.7802 70.187C15.7802 70.7263 15.5659 71.2436 15.1846 71.625C14.8032 72.0064 14.2859 72.2206 13.7465 72.2206Z" fill="white"/>
<path opacity="0.5" d="M19.8476 68.1533H15.7803V72.2206H19.8476V68.1533Z" fill="white"/>
<path opacity="0.5" d="M23.915 68.1533H19.8477V72.2206H23.915V68.1533Z" fill="white"/>
<path opacity="0.5" d="M27.9814 68.1533H23.9141V72.2206H27.9814V68.1533Z" fill="white"/>
<path opacity="0.5" d="M13.7465 76.2887C13.3443 76.2887 12.9511 76.1695 12.6167 75.946C12.2823 75.7225 12.0216 75.4049 11.8677 75.0333C11.7138 74.6617 11.6735 74.2528 11.752 73.8583C11.8304 73.4639 12.0241 73.1015 12.3085 72.8171C12.5929 72.5327 12.9553 72.339 13.3498 72.2605C13.7443 72.182 14.1532 72.2223 14.5248 72.3762C14.8964 72.5302 15.214 72.7908 15.4375 73.1253C15.6609 73.4597 15.7802 73.8529 15.7802 74.2551C15.7802 74.7944 15.5659 75.3117 15.1846 75.6931C14.8032 76.0745 14.2859 76.2887 13.7465 76.2887" fill="white"/>
<path opacity="0.5" d="M23.915 72.2214H19.8477V76.2887H23.915V72.2214Z" fill="white"/>
<path opacity="0.5" d="M25.9477 76.2887C25.5455 76.2887 25.1523 76.1695 24.8179 75.946C24.4834 75.7225 24.2228 75.4049 24.0689 75.0333C23.9149 74.6617 23.8747 74.2528 23.9531 73.8583C24.0316 73.4639 24.2253 73.1015 24.5097 72.8171C24.7941 72.5327 25.1565 72.339 25.551 72.2605C25.9455 72.182 26.3544 72.2223 26.726 72.3762C27.0976 72.5302 27.4152 72.7908 27.6386 73.1253C27.8621 73.4597 27.9814 73.8529 27.9814 74.2551C27.9814 74.7944 27.7671 75.3117 27.3857 75.6931C27.0043 76.0745 26.4871 76.2887 25.9477 76.2887Z" fill="white"/>
<path opacity="0.5" d="M11.7138 55.9604V60.022H7.64648V55.9604" fill="white"/>
<path opacity="0.5" d="M11.7138 60.0195H7.64648V64.0868H11.7138V60.0195Z" fill="white"/>
<path opacity="0.5" d="M11.7138 64.0876H7.64648V68.155H11.7138V64.0876Z" fill="white"/>
<path opacity="0.5" d="M9.68014 72.2206C9.27792 72.2206 8.88473 72.1014 8.5503 71.8779C8.21587 71.6544 7.95521 71.3368 7.80129 70.9652C7.64737 70.5936 7.60709 70.1847 7.68556 69.7902C7.76403 69.3957 7.95772 69.0334 8.24213 68.749C8.52654 68.4646 8.8889 68.2709 9.28339 68.1924C9.67788 68.1139 10.0868 68.1542 10.4584 68.3081C10.83 68.462 11.1476 68.7227 11.3711 69.0571C11.5945 69.3916 11.7138 69.7848 11.7138 70.187C11.7138 70.7263 11.4995 71.2436 11.1181 71.625C10.7368 72.0064 10.2195 72.2206 9.68014 72.2206" fill="white"/>
<path opacity="0.5" d="M11.7139 76.2881H7.6582V72.2324C8.73385 72.2324 9.76543 72.6597 10.526 73.4203C11.2866 74.1809 11.7139 75.2125 11.7139 76.2881Z" fill="white"/>
</g>
<g opacity="0.4">
<path opacity="0.5" d="M76.7763 72.2209H72.709V76.2883H76.7763V72.2209Z" fill="white"/>
<path opacity="0.5" d="M72.7099 72.2209H68.6426V76.2883H72.7099V72.2209Z" fill="white"/>
<path opacity="0.5" d="M60.5146 64.0859H56.4473V68.1532H60.5146V64.0859Z" fill="white"/>
<path opacity="0.5" d="M60.5146 68.1528H56.4473V72.2201H60.5146V68.1528Z" fill="white"/>
<path opacity="0.5" d="M64.5761 68.1528H60.5088V72.2201H64.5761V68.1528Z" fill="white"/>
<path opacity="0.5" d="M68.6426 72.2198H64.5869V68.1641C65.6626 68.1641 66.6941 68.5914 67.4547 69.352C68.2153 70.1126 68.6426 71.1441 68.6426 72.2198" fill="white"/>
<path opacity="0.5" d="M60.5146 72.2209H56.4473V76.2883H60.5146V72.2209Z" fill="white"/>
<path opacity="0.5" d="M64.5761 72.2209H60.5088V76.2883H64.5761V72.2209Z" fill="white"/>
<path opacity="0.5" d="M68.6435 72.2209H64.5762V76.2883H68.6435V72.2209Z" fill="white"/>
<path opacity="0.5" d="M72.71 39.6924H68.6543V35.6367C69.7299 35.6367 70.7615 36.064 71.5221 36.8246C72.2827 37.5852 72.71 38.6168 72.71 39.6924Z" fill="white"/>
<path opacity="0.5" d="M76.7763 35.6245H72.709V39.6918H76.7763V35.6245Z" fill="white"/>
<path opacity="0.5" d="M72.7099 43.7583H68.6426V47.8256H72.7099V43.7583Z" fill="white"/>
<path opacity="0.5" d="M40.1817 60.0213H36.126C36.126 58.9457 36.5533 57.9141 37.3139 57.1535C38.0745 56.3929 39.1061 55.9656 40.1817 55.9656V60.0213Z" fill="white"/>
<path opacity="0.5" d="M44.248 55.9534H40.1807V60.0207H44.248V55.9534Z" fill="white"/>
<path opacity="0.5" d="M32.0478 60.019H27.9805V64.0863H32.0478V60.019Z" fill="white"/>
<path opacity="0.5" d="M40.1806 60.019H36.1133V64.0863H40.1806V60.019Z" fill="white"/>
<path opacity="0.5" d="M44.2481 64.086H40.1924V60.0303C41.268 60.0303 42.2996 60.4576 43.0602 61.2182C43.8208 61.9788 44.2481 63.0103 44.2481 64.086" fill="white"/>
<path opacity="0.5" d="M32.0478 64.0859H27.9805V68.1532H32.0478V64.0859Z" fill="white"/>
<path opacity="0.5" d="M38.1469 68.1532C37.7447 68.1532 37.3515 68.034 37.0171 67.8105C36.6827 67.5871 36.422 67.2694 36.2681 66.8978C36.1142 66.5262 36.0739 66.1173 36.1524 65.7228C36.2308 65.3284 36.4245 64.966 36.7089 64.6816C36.9933 64.3972 37.3557 64.2035 37.7502 64.125C38.1447 64.0465 38.5536 64.0868 38.9252 64.2407C39.2968 64.3947 39.6144 64.6553 39.8379 64.9898C40.0613 65.3242 40.1806 65.7174 40.1806 66.1196C40.1806 66.659 39.9663 67.1762 39.5849 67.5576C39.2036 67.939 38.6863 68.1532 38.1469 68.1532Z" fill="white"/>
<path opacity="0.5" d="M44.248 64.0859H40.1807V68.1532H44.248V64.0859Z" fill="white"/>
<path opacity="0.5" d="M34.0805 72.2201C33.6783 72.2201 33.2851 72.1009 32.9507 71.8774C32.6163 71.6539 32.3556 71.3363 32.2017 70.9647C32.0478 70.5931 32.0075 70.1842 32.086 69.7897C32.1644 69.3953 32.3581 69.0329 32.6425 68.7485C32.9269 68.4641 33.2893 68.2704 33.6838 68.1919C34.0783 68.1134 34.4872 68.1537 34.8588 68.3076C35.2304 68.4616 35.548 68.7222 35.7715 69.0566C35.9949 69.3911 36.1142 69.7843 36.1142 70.1865C36.1142 70.7258 35.8999 71.2431 35.5185 71.6245C35.1372 72.0059 34.6199 72.2201 34.0805 72.2201" fill="white"/>
<path opacity="0.5" d="M38.1469 72.2201C37.7447 72.2201 37.3515 72.1009 37.0171 71.8774C36.6827 71.6539 36.422 71.3363 36.2681 70.9647C36.1142 70.5931 36.0739 70.1842 36.1524 69.7897C36.2308 69.3953 36.4245 69.0329 36.7089 68.7485C36.9933 68.4641 37.3557 68.2704 37.7502 68.1919C38.1447 68.1134 38.5536 68.1537 38.9252 68.3076C39.2968 68.4616 39.6144 68.7222 39.8379 69.0566C40.0613 69.3911 40.1806 69.7843 40.1806 70.1865C40.1806 70.7258 39.9663 71.2431 39.5849 71.6245C39.2036 72.0059 38.6863 72.2201 38.1469 72.2201" fill="white"/>
<path opacity="0.5" d="M38.1469 76.2883C37.7447 76.2883 37.3515 76.169 37.0171 75.9455C36.6827 75.7221 36.422 75.4045 36.2681 75.0329C36.1142 74.6612 36.0739 74.2524 36.1524 73.8579C36.2308 73.4634 36.4245 73.101 36.7089 72.8166C36.9933 72.5322 37.3557 72.3385 37.7502 72.26C38.1447 72.1816 38.5536 72.2218 38.9252 72.3758C39.2968 72.5297 39.6144 72.7903 39.8379 73.1248C40.0613 73.4592 40.1806 73.8524 40.1806 74.2546C40.1806 74.794 39.9663 75.3112 39.5849 75.6926C39.2036 76.074 38.6863 76.2883 38.1469 76.2883Z" fill="white"/>
<path opacity="0.5" d="M44.248 72.2209H40.1807V76.2883H44.248V72.2209Z" fill="white"/>
<path opacity="0.5" d="M52.3818 11.2244H48.3145V15.2917H52.3818V11.2244Z" fill="white"/>
<path opacity="0.5" d="M52.3818 15.2913H48.3145V19.3586H52.3818V15.2913Z" fill="white"/>
<path opacity="0.5" d="M54.4087 19.3586C54.0064 19.3586 53.6132 19.2393 53.2788 19.0158C52.9444 18.7924 52.6837 18.4748 52.5298 18.1032C52.3759 17.7316 52.3356 17.3227 52.4141 16.9282C52.4925 16.5337 52.6862 16.1713 52.9706 15.8869C53.2551 15.6025 53.6174 15.4088 54.0119 15.3303C54.4064 15.2519 54.8153 15.2921 55.1869 15.4461C55.5585 15.6 55.8761 15.8606 56.0996 16.1951C56.323 16.5295 56.4423 16.9227 56.4423 17.3249C56.4423 17.8643 56.228 18.3815 55.8467 18.7629C55.4653 19.1443 54.948 19.3586 54.4087 19.3586" fill="white"/>
<path opacity="0.5" d="M58.4751 19.3586C58.0728 19.3586 57.6797 19.2393 57.3452 19.0158C57.0108 18.7924 56.7501 18.4748 56.5962 18.1032C56.4423 17.7316 56.402 17.3227 56.4805 16.9282C56.559 16.5337 56.7526 16.1713 57.037 15.8869C57.3215 15.6025 57.6838 15.4088 58.0783 15.3303C58.4728 15.2519 58.8817 15.2921 59.2533 15.4461C59.6249 15.6 59.9425 15.8606 60.166 16.1951C60.3894 16.5295 60.5087 16.9227 60.5087 17.3249C60.5087 17.592 60.4561 17.8564 60.3539 18.1032C60.2517 18.3499 60.1019 18.5741 59.9131 18.7629C59.7242 18.9518 59.5 19.1016 59.2533 19.2038C59.0066 19.306 58.7421 19.3586 58.4751 19.3586" fill="white"/>
<path opacity="0.5" d="M52.3818 19.3582H48.3145V23.4255H52.3818V19.3582Z" fill="white"/>
<path opacity="0.5" d="M56.4482 19.3582H52.3809V23.4255H56.4482V19.3582Z" fill="white"/>
<path opacity="0.5" d="M60.5087 19.3582H56.4414V23.4255H60.5087V19.3582Z" fill="white"/>
<path opacity="0.5" d="M48.3154 19.3582H44.248V23.4255H48.3154V19.3582Z" fill="white"/>
<path opacity="0.5" d="M48.3154 23.425H44.248V27.4924H48.3154V23.425Z" fill="white"/>
<path opacity="0.5" d="M44.248 31.5586H40.1807V35.6259H44.248V31.5586Z" fill="white"/>
<path opacity="0.5" d="M60.5088 35.626H56.4531V33.5923C56.4319 33.3131 56.4687 33.0326 56.561 32.7683C56.6534 32.5039 56.7993 32.2615 56.9897 32.0562C57.18 31.8509 57.4107 31.6871 57.6673 31.5751C57.924 31.4631 58.2009 31.4053 58.4809 31.4053C58.7609 31.4053 59.0379 31.4631 59.2945 31.5751C59.5511 31.6871 59.7818 31.8509 59.9722 32.0562C60.1625 32.2615 60.3085 32.5039 60.4008 32.7683C60.4931 33.0326 60.5299 33.3131 60.5088 33.5923V35.626Z" fill="white"/>
<path opacity="0.5" d="M40.1806 23.425H36.1133V27.4924H40.1806V23.425Z" fill="white"/>
<path opacity="0.5" d="M72.7099 68.1528H68.6426V72.2201H72.7099V68.1528Z" fill="white"/>
<path opacity="0.5" d="M76.7763 68.1528H72.709V72.2201H76.7763V68.1528Z" fill="white"/>
<path opacity="0.5" d="M66.6098 60.0207C66.2076 60.0207 65.8144 59.9014 65.48 59.6779C65.1456 59.4545 64.8849 59.1369 64.731 58.7653C64.5771 58.3937 64.5368 57.9848 64.6152 57.5903C64.6937 57.1958 64.8874 56.8334 65.1718 56.549C65.4562 56.2646 65.8186 56.0709 66.2131 55.9924C66.6076 55.914 67.0165 55.9543 67.3881 56.1082C67.7597 56.2621 68.0773 56.5228 68.3007 56.8572C68.5242 57.1916 68.6435 57.5848 68.6435 57.987C68.6435 58.2541 68.5909 58.5185 68.4887 58.7653C68.3865 59.012 68.2367 59.2362 68.0478 59.425C67.859 59.6139 67.6348 59.7637 67.3881 59.8659C67.1413 59.9681 66.8769 60.0207 66.6098 60.0207" fill="white"/>
<path opacity="0.5" d="M72.7099 55.959H68.6426V60.0263H72.7099V55.959Z" fill="white"/>
<path opacity="0.5" d="M76.7764 60.0213H72.7207C72.7207 58.9457 73.148 57.9141 73.9086 57.1535C74.6692 56.3929 75.7008 55.9656 76.7764 55.9656V60.0213Z" fill="white"/>
<path opacity="0.5" d="M68.6435 60.019H64.5762V64.0863H68.6435V60.019Z" fill="white"/>
<path opacity="0.5" d="M72.7099 60.019H68.6426V64.0863H72.7099V60.019Z" fill="white"/>
<path opacity="0.5" d="M76.7763 60.019H72.709V64.0863H76.7763V60.019Z" fill="white"/>
<path opacity="0.5" d="M68.6435 64.0859H64.5762V68.1532H68.6435V64.0859Z" fill="white"/>
<path opacity="0.5" d="M72.7099 64.0859H68.6426V68.1532H72.7099V64.0859Z" fill="white"/>
<path opacity="0.5" d="M76.7763 64.0859H72.709V68.1532H76.7763V64.0859Z" fill="white"/>
<path opacity="0.5" d="M64.5761 55.959H60.5088V60.0263H64.5761V55.959Z" fill="white"/>
<path opacity="0.5" d="M64.5761 60.019H60.5088V64.0863H64.5761V60.019Z" fill="white"/>
<path opacity="0.5" d="M74.7426 3.09099C74.3404 3.09099 73.9472 2.97172 73.6128 2.74826C73.2784 2.5248 73.0177 2.20718 72.8638 1.83558C72.7099 1.46398 72.6696 1.05508 72.7481 0.66059C72.8265 0.2661 73.0202 -0.0962626 73.3046 -0.380674C73.589 -0.665086 73.9514 -0.858772 74.3459 -0.937241C74.7404 -1.01571 75.1493 -0.975437 75.5209 -0.821515C75.8925 -0.667592 76.2101 -0.406934 76.4336 -0.0725013C76.657 0.261931 76.7763 0.655118 76.7763 1.05734C76.7763 1.59669 76.562 2.11396 76.1806 2.49535C75.7993 2.87673 75.282 3.09099 74.7426 3.09099Z" fill="white"/>
<path opacity="0.5" d="M74.7426 7.15788C74.3404 7.15788 73.9472 7.03861 73.6128 6.81515C73.2784 6.59169 73.0177 6.27408 72.8638 5.90248C72.7099 5.53088 72.6696 5.12197 72.7481 4.72748C72.8265 4.33299 73.0202 3.97063 73.3046 3.68622C73.589 3.40181 73.9514 3.20812 74.3459 3.12965C74.7404 3.05118 75.1493 3.09146 75.5209 3.24538C75.8925 3.3993 76.2101 3.65996 76.4336 3.99439C76.657 4.32883 76.7763 4.72201 76.7763 5.12423C76.7763 5.66359 76.562 6.18086 76.1806 6.56224C75.7993 6.94363 75.282 7.15788 74.7426 7.15788Z" fill="white"/>
<path opacity="0.5" d="M76.7764 11.2259H72.7207V9.19226C72.7594 8.68092 72.9898 8.20307 73.3658 7.8544C73.7419 7.50574 74.2358 7.31201 74.7486 7.31201C75.2614 7.31201 75.7552 7.50574 76.1313 7.8544C76.5073 8.20307 76.7377 8.68092 76.7764 9.19226V11.2259Z" fill="white"/>
<path opacity="0.5" d="M70.6762 3.09099C70.274 3.09099 69.8808 2.97172 69.5464 2.74826C69.212 2.5248 68.9513 2.20718 68.7974 1.83558C68.6435 1.46398 68.6032 1.05508 68.6817 0.66059C68.7601 0.2661 68.9538 -0.0962626 69.2382 -0.380674C69.5226 -0.665086 69.885 -0.858772 70.2795 -0.937241C70.674 -1.01571 71.0829 -0.975437 71.4545 -0.821515C71.8261 -0.667592 72.1437 -0.406934 72.3672 -0.0725013C72.5906 0.261931 72.7099 0.655118 72.7099 1.05734C72.7099 1.59669 72.4956 2.11396 72.1142 2.49535C71.7329 2.87673 71.2156 3.09099 70.6762 3.09099" fill="white"/>
<path opacity="0.5" d="M70.6762 7.15788C70.274 7.15788 69.8808 7.03861 69.5464 6.81515C69.212 6.59169 68.9513 6.27408 68.7974 5.90248C68.6435 5.53088 68.6032 5.12197 68.6817 4.72748C68.7601 4.33299 68.9538 3.97063 69.2382 3.68622C69.5226 3.40181 69.885 3.20812 70.2795 3.12965C70.674 3.05118 71.0829 3.09146 71.4545 3.24538C71.8261 3.3993 72.1437 3.65996 72.3672 3.99439C72.5906 4.32883 72.7099 4.72201 72.7099 5.12423C72.7099 5.66359 72.4956 6.18086 72.1142 6.56224C71.7329 6.94363 71.2156 7.15788 70.6762 7.15788" fill="white"/>
<path opacity="0.5" d="M72.71 11.2259H68.6543V9.19226C68.693 8.68092 68.9234 8.20307 69.2994 7.8544C69.6755 7.50574 70.1694 7.31201 70.6822 7.31201C71.195 7.31201 71.6888 7.50574 72.0649 7.8544C72.4409 8.20307 72.6713 8.68092 72.71 9.19226V11.2259Z" fill="white"/>
<path opacity="0.5" d="M62.5424 3.09099C62.1402 3.09099 61.747 2.97172 61.4126 2.74826C61.0782 2.5248 60.8175 2.20718 60.6636 1.83558C60.5097 1.46398 60.4694 1.05508 60.5479 0.66059C60.6263 0.2661 60.82 -0.0962626 61.1044 -0.380674C61.3888 -0.665086 61.7512 -0.858772 62.1457 -0.937241C62.5402 -1.01571 62.9491 -0.975437 63.3207 -0.821515C63.6923 -0.667592 64.0099 -0.406934 64.2334 -0.0725013C64.4568 0.261931 64.5761 0.655118 64.5761 1.05734C64.5761 1.59669 64.3618 2.11396 63.9805 2.49535C63.5991 2.87673 63.0818 3.09099 62.5424 3.09099Z" fill="white"/>
<path opacity="0.5" d="M50.3422 7.15788C49.94 7.15788 49.5468 7.03861 49.2124 6.81515C48.878 6.59169 48.6173 6.27408 48.4634 5.90248C48.3095 5.53088 48.2692 5.12197 48.3477 4.72748C48.4261 4.33299 48.6198 3.97063 48.9042 3.68622C49.1887 3.40181 49.551 3.20812 49.9455 3.12965C50.34 3.05118 50.7489 3.09146 51.1205 3.24538C51.4921 3.3993 51.8097 3.65996 52.0332 3.99439C52.2566 4.32883 52.3759 4.72201 52.3759 5.12423C52.3759 5.66359 52.1616 6.18086 51.7803 6.56224C51.3989 6.94363 50.8816 7.15788 50.3422 7.15788Z" fill="white"/>
<path opacity="0.5" d="M54.4087 7.15788C54.0064 7.15788 53.6132 7.03861 53.2788 6.81515C52.9444 6.59169 52.6837 6.27408 52.5298 5.90248C52.3759 5.53088 52.3356 5.12197 52.4141 4.72748C52.4925 4.33299 52.6862 3.97063 52.9706 3.68622C53.2551 3.40181 53.6174 3.20812 54.0119 3.12965C54.4064 3.05118 54.8153 3.09146 55.1869 3.24538C55.5585 3.3993 55.8761 3.65996 56.0996 3.99439C56.323 4.32883 56.4423 4.72201 56.4423 5.12423C56.4423 5.66359 56.228 6.18086 55.8467 6.56224C55.4653 6.94363 54.948 7.15788 54.4087 7.15788Z" fill="white"/>
<path opacity="0.5" d="M58.4751 7.15788C58.0728 7.15788 57.6797 7.03861 57.3452 6.81515C57.0108 6.59169 56.7501 6.27408 56.5962 5.90248C56.4423 5.53088 56.402 5.12197 56.4805 4.72748C56.559 4.33299 56.7526 3.97063 57.037 3.68622C57.3215 3.40181 57.6838 3.20812 58.0783 3.12965C58.4728 3.05118 58.8817 3.09146 59.2533 3.24538C59.6249 3.3993 59.9425 3.65996 60.166 3.99439C60.3894 4.32883 60.5087 4.72201 60.5087 5.12423C60.5087 5.39129 60.4561 5.65574 60.3539 5.90248C60.2517 6.14921 60.1019 6.3734 59.9131 6.56224C59.7242 6.75108 59.5 6.90088 59.2533 7.00308C59.0066 7.10528 58.7421 7.15788 58.4751 7.15788" fill="white"/>
<path opacity="0.5" d="M62.5424 7.15788C62.1402 7.15788 61.747 7.03861 61.4126 6.81515C61.0782 6.59169 60.8175 6.27408 60.6636 5.90248C60.5097 5.53088 60.4694 5.12197 60.5479 4.72748C60.6263 4.33299 60.82 3.97063 61.1044 3.68622C61.3888 3.40181 61.7512 3.20812 62.1457 3.12965C62.5402 3.05118 62.9491 3.09146 63.3207 3.24538C63.6923 3.3993 64.0099 3.65996 64.2334 3.99439C64.4568 4.32883 64.5761 4.72201 64.5761 5.12423C64.5761 5.66359 64.3618 6.18086 63.9805 6.56224C63.5991 6.94363 63.0818 7.15788 62.5424 7.15788Z" fill="white"/>
<path opacity="0.5" d="M66.6088 7.15868C66.0974 7.12 65.6196 6.88957 65.2709 6.51353C64.9222 6.1375 64.7285 5.64363 64.7285 5.13082C64.7285 4.61802 64.9222 4.12414 65.2709 3.74811C65.6196 3.37208 66.0974 3.14164 66.6088 3.10296V3.10296C66.888 3.08184 67.1685 3.1186 67.4328 3.21094C67.6972 3.30327 67.9396 3.44919 68.1449 3.63956C68.3502 3.82993 68.514 4.06064 68.626 4.31725C68.738 4.57386 68.7958 4.85083 68.7958 5.13082C68.7958 5.41081 68.738 5.68778 68.626 5.94439C68.514 6.201 68.3502 6.43171 68.1449 6.62208C67.9396 6.81245 67.6972 6.95837 67.4328 7.05071C67.1685 7.14304 66.888 7.1798 66.6088 7.15868" fill="white"/>
<path opacity="0.5" d="M64.5761 11.2258H62.5424C62.1402 11.2258 61.747 11.1065 61.4126 10.883C61.0782 10.6596 60.8175 10.3419 60.6636 9.97035C60.5097 9.59875 60.4694 9.18985 60.5479 8.79536C60.6263 8.40087 60.82 8.0385 61.1044 7.75409C61.3888 7.46968 61.7512 7.27599 62.1457 7.19752C62.5402 7.11906 62.9491 7.15933 63.3207 7.31325C63.6923 7.46717 64.0099 7.72783 64.2334 8.06226C64.4568 8.3967 64.5761 8.78988 64.5761 9.1921V11.2258Z" fill="white"/>
<path opacity="0.5" d="M68.6426 11.2258H64.5869V9.1921C64.5869 8.65274 64.8012 8.13547 65.1826 7.75409C65.5639 7.37271 66.0812 7.15845 66.6206 7.15845V7.15845C66.8876 7.15845 67.1521 7.21105 67.3988 7.31325C67.6456 7.41545 67.8697 7.56525 68.0586 7.75409C68.2474 7.94293 68.3972 8.16712 68.4994 8.41385C68.6016 8.66059 68.6542 8.92504 68.6542 9.1921L68.6426 11.2258Z" fill="white"/>
<path opacity="0.5" d="M46.2749 11.2258C45.8726 11.2258 45.4795 11.1065 45.145 10.883C44.8106 10.6596 44.5499 10.3419 44.396 9.97035C44.2421 9.59875 44.2018 9.18985 44.2803 8.79536C44.3588 8.40087 44.5524 8.0385 44.8369 7.75409C45.1213 7.46968 45.4836 7.27599 45.8781 7.19752C46.2726 7.11906 46.6815 7.15933 47.0531 7.31325C47.4247 7.46717 47.7423 7.72783 47.9658 8.06226C48.1892 8.3967 48.3085 8.78988 48.3085 9.1921C48.3085 9.45917 48.2559 9.72361 48.1537 9.97035C48.0515 10.2171 47.9017 10.4413 47.7129 10.6301C47.524 10.819 47.2998 10.9688 47.0531 11.071C46.8064 11.1732 46.5419 11.2258 46.2749 11.2258" fill="white"/>
<path opacity="0.5" d="M76.7763 15.2913H72.709V19.3586H76.7763V15.2913Z" fill="white"/>
<path opacity="0.5" d="M72.7099 19.3582H68.6426V23.4255H72.7099V19.3582Z" fill="white"/>
<path opacity="0.5" d="M76.7763 19.3582H72.709V23.4255H76.7763V19.3582Z" fill="white"/>
<path opacity="0.5" d="M76.7763 23.425H72.709V27.4924H76.7763V23.425Z" fill="white"/>
<path opacity="0.5" d="M68.6433 1.05829C68.6388 1.45949 68.5156 1.85038 68.2894 2.18175C68.0632 2.51312 67.744 2.77017 67.372 2.92054C67 3.07092 66.5919 3.1079 66.1989 3.02683C65.806 2.94576 65.4458 2.75027 65.1637 2.46496C64.8816 2.17965 64.6902 1.81726 64.6136 1.42342C64.537 1.02957 64.5786 0.621868 64.7332 0.251614C64.8877 -0.118639 65.1484 -0.434894 65.4823 -0.657346C65.8162 -0.879799 66.2085 -0.998509 66.6097 -0.998535C66.8768 -0.998535 67.1412 -0.945933 67.3879 -0.843732C67.6347 -0.741532 67.8589 -0.591734 68.0477 -0.402892C68.2365 -0.21405 68.3863 0.0101386 68.4885 0.256873C68.5907 0.503607 68.6433 0.768055 68.6433 1.03512" fill="white"/>
<path opacity="0.5" d="M58.4809 60.0207C58.0784 60.0218 57.6846 59.9035 57.3494 59.6808C57.0142 59.458 56.7527 59.1408 56.5979 58.7693C56.4431 58.3978 56.402 57.9887 56.4798 57.5938C56.5576 57.199 56.7508 56.8361 57.035 56.5511C57.3192 56.2661 57.6815 56.0718 58.0762 55.9929C58.4708 55.9139 58.88 55.9539 59.252 56.1076C59.6239 56.2614 59.9419 56.522 60.1656 56.8566C60.3893 57.1911 60.5087 57.5845 60.5087 57.987C60.5087 58.5254 60.2953 59.0418 59.9151 59.423C59.535 59.8042 59.0192 60.0191 58.4809 60.0207" fill="white"/>
<path opacity="0.5" d="M44.2481 11.2254H40.1924V7.16968C41.268 7.16968 42.2996 7.59698 43.0602 8.35757C43.8208 9.11817 44.2481 10.1498 44.2481 11.2254" fill="white"/>
<path opacity="0.5" d="M44.2481 19.358C43.1725 19.358 42.1409 18.9307 41.3803 18.1701C40.6197 17.4095 40.1924 16.3779 40.1924 15.3022H44.2481V19.358Z" fill="white"/>
<path opacity="0.5" d="M44.248 19.3582H40.1807V23.4255H44.248V19.3582Z" fill="white"/>
<path opacity="0.5" d="M40.1806 11.2244H36.1133V15.2917H40.1806V11.2244Z" fill="white"/>
<path opacity="0.5" d="M40.1806 19.3582H36.1133V23.4255H40.1806V19.3582Z" fill="white"/>
<path opacity="0.5" d="M32.0478 23.425H27.9805V27.4924H32.0478V23.425Z" fill="white"/>
<path opacity="0.5" d="M23.915 27.4907H19.8477V31.558H23.915V27.4907Z" fill="white"/>
<path opacity="0.5" d="M23.915 31.5586H19.8477V35.6259H23.915V31.5586Z" fill="white"/>
<path opacity="0.5" d="M27.9814 27.4907H23.9141V31.558H27.9814V27.4907Z" fill="white"/>
<path opacity="0.5" d="M27.9814 31.5586H23.9141V35.6259H27.9814V31.5586Z" fill="white"/>
<path opacity="0.5" d="M32.0478 27.4907H27.9805V31.558H32.0478V27.4907Z" fill="white"/>
<path opacity="0.5" d="M36.1143 3.09161H32.0586C32.0586 2.01596 32.4859 0.984376 33.2465 0.223781C34.0071 -0.536814 35.0387 -0.964111 36.1143 -0.964111V3.09161Z" fill="white"/>
<path opacity="0.5" d="M38.1469 3.09099C37.7447 3.09099 37.3515 2.97172 37.0171 2.74826C36.6827 2.5248 36.422 2.20718 36.2681 1.83558C36.1142 1.46398 36.0739 1.05508 36.1524 0.66059C36.2308 0.2661 36.4245 -0.0962626 36.7089 -0.380674C36.9933 -0.665086 37.3557 -0.858772 37.7502 -0.937241C38.1447 -1.01571 38.5536 -0.975437 38.9252 -0.821515C39.2968 -0.667592 39.6144 -0.406934 39.8379 -0.0725013C40.0613 0.261931 40.1806 0.655118 40.1806 1.05734C40.1806 1.59669 39.9663 2.11396 39.5849 2.49535C39.2036 2.87673 38.6863 3.09099 38.1469 3.09099Z" fill="white"/>
<path opacity="0.5" d="M44.248 -0.976318H40.1807V3.09099H44.248V-0.976318Z" fill="white"/>
<path opacity="0.5" d="M32.0478 3.09058H27.9805V7.15788H32.0478V3.09058Z" fill="white"/>
<path opacity="0.5" d="M36.1142 3.09058H32.0469V7.15788H36.1142V3.09058Z" fill="white"/>
<path opacity="0.5" d="M44.248 3.09058H40.1807V7.15788H44.248V3.09058Z" fill="white"/>
<path opacity="0.5" d="M11.7138 51.8909H7.64648V55.9582H11.7138V51.8909Z" fill="white"/>
<path opacity="0.5" d="M15.7812 35.6245H11.7139V39.6918H15.7812V35.6245Z" fill="white"/>
<path opacity="0.5" d="M13.7475 43.7597C13.3453 43.7597 12.9521 43.6404 12.6177 43.417C12.2833 43.1935 12.0226 42.8759 11.8687 42.5043C11.7147 42.1327 11.6745 41.7238 11.7529 41.3293C11.8314 40.9348 12.0251 40.5724 12.3095 40.288C12.5939 40.0036 12.9563 39.8099 13.3508 39.7315C13.7453 39.653 14.1542 39.6933 14.5258 39.8472C14.8974 40.0011 15.215 40.2618 15.4384 40.5962C15.6619 40.9306 15.7812 41.3238 15.7812 41.726C15.7812 42.2654 15.5669 42.7827 15.1855 43.164C14.8041 43.5454 14.2869 43.7597 13.7475 43.7597Z" fill="white"/>
<path opacity="0.5" d="M13.7475 47.8256C13.3453 47.8256 12.9521 47.7063 12.6177 47.4829C12.2833 47.2594 12.0226 46.9418 11.8687 46.5702C11.7147 46.1986 11.6745 45.7897 11.7529 45.3952C11.8314 45.0007 12.0251 44.6384 12.3095 44.3539C12.5939 44.0695 12.9563 43.8758 13.3508 43.7974C13.7453 43.7189 14.1542 43.7592 14.5258 43.9131C14.8974 44.067 15.215 44.3277 15.4384 44.6621C15.6619 44.9965 15.7812 45.3897 15.7812 45.792C15.7812 46.059 15.7286 46.3235 15.6264 46.5702C15.5242 46.8169 15.3744 47.0411 15.1855 47.23C14.9967 47.4188 14.7725 47.5686 14.5258 47.6708C14.279 47.773 14.0146 47.8256 13.7475 47.8256Z" fill="white"/>
<path opacity="0.5" d="M11.7138 35.6245H7.64648V39.6918H11.7138V35.6245Z" fill="white"/>
<path opacity="0.5" d="M11.7139 47.825H7.6582V43.7693C8.73385 43.7693 9.76543 44.1966 10.526 44.9572C11.2866 45.7178 11.7139 46.7494 11.7139 47.825" fill="white"/>
<path opacity="0.5" d="M7.64752 39.6924C6.57187 39.6924 5.54028 39.2651 4.77969 38.5045C4.01909 37.744 3.5918 36.7124 3.5918 35.6367H7.64752V39.6924Z" fill="white"/>
<path opacity="0.5" d="M7.64739 47.8252H3.58008V51.8925H7.64739V47.8252Z" fill="white"/>
<path opacity="0.5" d="M52.3819 39.6924H48.3262C48.3262 38.6168 48.7535 37.5852 49.5141 36.8246C50.2747 36.064 51.3062 35.6367 52.3819 35.6367V39.6924Z" fill="white"/>
<path opacity="0.5" d="M58.4751 39.6918C58.0728 39.6918 57.6797 39.5725 57.3452 39.3491C57.0108 39.1256 56.7501 38.808 56.5962 38.4364C56.4423 38.0648 56.402 37.6559 56.4805 37.2614C56.559 36.8669 56.7526 36.5046 57.037 36.2202C57.3215 35.9357 57.6838 35.7421 58.0783 35.6636C58.4728 35.5851 58.8817 35.6254 59.2533 35.7793C59.6249 35.9332 59.9425 36.1939 60.166 36.5283C60.3894 36.8628 60.5087 37.2559 60.5087 37.6582C60.5087 37.9252 60.4561 38.1897 60.3539 38.4364C60.2517 38.6831 60.1019 38.9073 59.9131 39.0962C59.7242 39.285 59.5 39.4348 59.2533 39.537C59.0066 39.6392 58.7421 39.6918 58.4751 39.6918" fill="white"/>
<path opacity="0.5" d="M58.4751 43.7597C58.0728 43.7597 57.6797 43.6404 57.3452 43.417C57.0108 43.1935 56.7501 42.8759 56.5962 42.5043C56.4423 42.1327 56.402 41.7238 56.4805 41.3293C56.559 40.9348 56.7526 40.5724 57.037 40.288C57.3215 40.0036 57.6838 39.8099 58.0783 39.7315C58.4728 39.653 58.8817 39.6933 59.2533 39.8472C59.6249 40.0011 59.9425 40.2618 60.166 40.5962C60.3894 40.9306 60.5087 41.3238 60.5087 41.726C60.5087 41.9931 60.4561 42.2575 60.3539 42.5043C60.2517 42.751 60.1019 42.9752 59.9131 43.164C59.7242 43.3529 59.5 43.5027 59.2533 43.6049C59.0066 43.7071 58.7421 43.7597 58.4751 43.7597" fill="white"/>
<path opacity="0.5" d="M64.5761 39.6924H60.5088V43.7597H64.5761V39.6924Z" fill="white"/>
<path opacity="0.5" d="M60.5087 43.7583H56.4414V47.8256H60.5087V43.7583Z" fill="white"/>
<path opacity="0.5" d="M64.5761 43.7583H60.5088V47.8256H64.5761V43.7583Z" fill="white"/>
<path opacity="0.5" d="M60.5087 47.8252H56.4414V51.8925H60.5087V47.8252Z" fill="white"/>
<path opacity="0.5" d="M64.5753 51.8919H60.5195C60.5195 50.8163 60.9468 49.7847 61.7074 49.0241C62.468 48.2635 63.4996 47.8362 64.5753 47.8362V51.8919Z" fill="white"/>
<path opacity="0.5" d="M64.5761 51.8909H60.5088V55.9582H64.5761V51.8909Z" fill="white"/>
<path opacity="0.5" d="M52.3809 39.6924V35.6367H56.4366C56.4366 36.7124 56.0093 37.744 55.2487 38.5045C54.4881 39.2651 53.4565 39.6924 52.3809 39.6924" fill="white"/>
<path opacity="0.5" d="M54.4144 43.7597C54.012 43.7608 53.6182 43.6425 53.283 43.4198C52.9478 43.197 52.6863 42.8798 52.5315 42.5083C52.3767 42.1368 52.3356 41.7277 52.4134 41.3328C52.4912 40.938 52.6844 40.5751 52.9686 40.2901C53.2528 40.0051 53.6151 39.8108 54.0098 39.7319C54.4044 39.6529 54.8136 39.6929 55.1856 39.8466C55.5575 40.0004 55.8755 40.261 56.0992 40.5956C56.3229 40.9301 56.4423 41.3236 56.4423 41.726C56.4423 42.2644 56.2288 42.7808 55.8487 43.162C55.4686 43.5432 54.9528 43.7581 54.4144 43.7597" fill="white"/>
</g>
<path d="M45.5801 17.4175V20.6215H48.7841L45.5801 17.4175Z" fill="white"/>
<path d="M51.1934 22.2268V54.3322L24.7363 54.2916V56.6957H51.1934H52.1029H53.5975V22.2268H51.1934Z" fill="white"/>
<path d="M49.5888 38.8924V22.2256H43.9752V16.6179H20.7275V52.6915H49.5888V38.8924ZM29.5446 19.0221H31.1493V20.621H29.5446V19.0221ZM26.3411 19.0221H27.9457V20.621H26.3411V19.0221ZM24.7364 20.621H23.1317V19.0221H24.7364V20.621ZM42.9557 43.0692H25.5764V41.4645H42.9557V43.0692ZM43.6392 39.0604H25.5416V37.4557H43.6334L43.6392 39.0604ZM44.7979 35.0516H25.5416V33.4469H44.7805L44.7979 35.0516ZM44.7979 31.0427H25.5416V29.4438H44.7805L44.7979 31.0427ZM44.7979 27.0339H25.5416V25.435H44.7805L44.7979 27.0339Z" fill="white"/>
</g>
</svg>
