<svg width="74" height="75" viewBox="0 0 74 75" fill="none" xmlns="http://www.w3.org/2000/svg">
<mask id="mask0" mask-type="alpha" maskUnits="userSpaceOnUse" x="0" y="0" width="74" height="75">
<circle cx="37" cy="37.2979" r="37" fill="#C4C4C4"/>
</mask>
<g mask="url(#mask0)">
<path d="M36.7282 74.8201C57.4748 74.8201 74.2933 58.0017 74.2933 37.255C74.2933 16.5084 57.4748 -0.310059 36.7282 -0.310059C15.9816 -0.310059 -0.836914 16.5084 -0.836914 37.255C-0.836914 58.0017 15.9816 74.8201 36.7282 74.8201Z" fill="#0E47EF"/>
<g opacity="0.2">
<path opacity="0.5" d="M45.5911 47.0273H41.4707V51.1478H45.5911V47.0273Z" fill="white"/>
<path opacity="0.5" d="M16.7532 55.2666H12.6328V59.387H16.7532V55.2666Z" fill="white"/>
<path opacity="0.5" d="M20.8802 59.3879V63.4966C19.7905 63.4966 18.7454 63.0637 17.9749 62.2932C17.2044 61.5227 16.7715 60.4776 16.7715 59.3879H20.8802Z" fill="white"/>
<path opacity="0.5" d="M20.8802 55.2666V59.3753C19.7905 59.3753 18.7454 58.9424 17.9749 58.1719C17.2044 57.4014 16.7715 56.3563 16.7715 55.2666H20.8802Z" fill="white"/>
<path opacity="0.5" d="M24.9954 59.3879H20.875V63.5084H24.9954V59.3879Z" fill="white"/>
<path opacity="0.5" d="M24.9886 57.3268C24.9886 57.7343 24.8678 58.1326 24.6414 58.4714C24.415 58.8102 24.0932 59.0743 23.7168 59.2302C23.3403 59.3861 22.9261 59.4269 22.5264 59.3474C22.1268 59.2679 21.7597 59.0717 21.4716 58.7836C21.1835 58.4955 20.9872 58.1284 20.9078 57.7287C20.8283 57.3291 20.8691 56.9149 21.025 56.5384C21.1809 56.1619 21.445 55.8402 21.7838 55.6138C22.1226 55.3874 22.5209 55.2666 22.9284 55.2666C23.1989 55.2666 23.4668 55.3199 23.7168 55.4234C23.9667 55.527 24.1939 55.6787 24.3852 55.87C24.5765 56.0613 24.7282 56.2884 24.8318 56.5384C24.9353 56.7884 24.9886 57.0563 24.9886 57.3268Z" fill="white"/>
<path opacity="0.5" d="M0.272767 57.3268C0.272767 57.7343 0.151938 58.1326 -0.0744413 58.4714C-0.30082 58.8102 -0.622581 59.0743 -0.999036 59.2302C-1.37549 59.3861 -1.78973 59.4269 -2.18937 59.3474C-2.58901 59.2679 -2.95611 59.0717 -3.24423 58.7836C-3.53236 58.4955 -3.72858 58.1284 -3.80807 57.7287C-3.88756 57.3291 -3.84676 56.9149 -3.69083 56.5384C-3.5349 56.1619 -3.27084 55.8402 -2.93204 55.6138C-2.59324 55.3874 -2.19492 55.2666 -1.78744 55.2666C-1.51689 55.2666 -1.24899 55.3199 -0.999036 55.4234C-0.749079 55.527 -0.521963 55.6787 -0.330655 55.87C-0.139347 56.0613 0.0124071 56.2884 0.115942 56.5384C0.219478 56.7884 0.272767 57.0563 0.272767 57.3268" fill="white"/>
<path opacity="0.5" d="M4.39288 61.4482C4.39288 61.8556 4.27205 62.2539 4.04568 62.5927C3.8193 62.9315 3.49754 63.1956 3.12108 63.3515C2.74463 63.5075 2.33039 63.5483 1.93075 63.4688C1.5311 63.3893 1.16401 63.1931 0.875884 62.9049C0.587758 62.6168 0.391542 62.2497 0.312048 61.8501C0.232555 61.4504 0.273354 61.0362 0.429286 60.6597C0.585219 60.2833 0.849281 59.9615 1.18808 59.7351C1.52688 59.5088 1.9252 59.3879 2.33267 59.3879C2.87907 59.3879 3.4031 59.605 3.78946 59.9914C4.17583 60.3777 4.39288 60.9017 4.39288 61.4482" fill="white"/>
<path opacity="0.5" d="M4.39288 57.3268C4.39288 57.7343 4.27205 58.1326 4.04568 58.4714C3.8193 58.8102 3.49754 59.0743 3.12108 59.2302C2.74463 59.3861 2.33039 59.4269 1.93075 59.3474C1.5311 59.2679 1.16401 59.0717 0.875884 58.7836C0.587758 58.4955 0.391542 58.1284 0.312048 57.7287C0.232555 57.3291 0.273354 56.9149 0.429286 56.5384C0.585219 56.1619 0.849281 55.8402 1.18808 55.6138C1.52688 55.3874 1.9252 55.2666 2.33267 55.2666C2.60322 55.2666 2.87112 55.3199 3.12108 55.4234C3.37104 55.527 3.59815 55.6787 3.78946 55.87C3.98077 56.0613 4.13252 56.2884 4.23606 56.5384C4.3396 56.7884 4.39288 57.0563 4.39288 57.3268" fill="white"/>
<path opacity="0.5" d="M8.513 61.4482C8.513 61.8556 8.39217 62.2539 8.16579 62.5927C7.93941 62.9315 7.61765 63.1956 7.2412 63.3515C6.86474 63.5075 6.4505 63.5483 6.05086 63.4688C5.65122 63.3893 5.28413 63.1931 4.996 62.9049C4.70788 62.6168 4.51166 62.2497 4.43217 61.8501C4.35267 61.4504 4.39347 61.0362 4.5494 60.6597C4.70534 60.2833 4.9694 59.9615 5.3082 59.7351C5.647 59.5088 6.04532 59.3879 6.45279 59.3879C6.99919 59.3879 7.52321 59.605 7.90958 59.9914C8.29594 60.3777 8.513 60.9017 8.513 61.4482" fill="white"/>
<path opacity="0.5" d="M8.513 57.3268C8.513 57.7343 8.39217 58.1326 8.16579 58.4714C7.93941 58.8102 7.61765 59.0743 7.2412 59.2302C6.86474 59.3861 6.4505 59.4269 6.05086 59.3474C5.65122 59.2679 5.28413 59.0717 4.996 58.7836C4.70788 58.4955 4.51166 58.1284 4.43217 57.7287C4.35267 57.3291 4.39347 56.9149 4.5494 56.5384C4.70534 56.1619 4.9694 55.8402 5.3082 55.6138C5.647 55.3874 6.04532 55.2666 6.45279 55.2666C6.72334 55.2666 6.99124 55.3199 7.2412 55.4234C7.49115 55.527 7.71827 55.6787 7.90958 55.87C8.10089 56.0613 8.25264 56.2884 8.35618 56.5384C8.45971 56.7884 8.513 57.0563 8.513 57.3268" fill="white"/>
<path opacity="0.5" d="M12.6624 61.4482C12.6624 61.8556 12.5416 62.2539 12.3152 62.5927C12.0888 62.9315 11.7671 63.1956 11.3906 63.3515C11.0142 63.5075 10.5999 63.5483 10.2003 63.4688C9.80064 63.3893 9.43354 63.1931 9.14541 62.9049C8.85729 62.6168 8.66107 62.2497 8.58158 61.8501C8.50209 61.4504 8.54288 61.0362 8.69882 60.6597C8.85475 60.2833 9.11881 59.9615 9.45761 59.7351C9.79641 59.5088 10.1947 59.3879 10.6022 59.3879C11.1486 59.3879 11.6726 59.605 12.059 59.9914C12.4454 60.3777 12.6624 60.9017 12.6624 61.4482" fill="white"/>
<path opacity="0.5" d="M0.272767 65.5685C0.272767 65.976 0.151938 66.3743 -0.0744413 66.7131C-0.30082 67.0519 -0.622581 67.316 -0.999036 67.4719C-1.37549 67.6278 -1.78973 67.6686 -2.18937 67.5891C-2.58901 67.5096 -2.95611 67.3134 -3.24423 67.0253C-3.53236 66.7372 -3.72858 66.3701 -3.80807 65.9704C-3.88756 65.5708 -3.84676 65.1566 -3.69083 64.7801C-3.5349 64.4036 -3.27084 64.0819 -2.93204 63.8555C-2.59324 63.6291 -2.19492 63.5083 -1.78744 63.5083C-1.24104 63.5083 -0.71702 63.7254 -0.330655 64.1117C0.0557094 64.4981 0.272767 65.0221 0.272767 65.5685Z" fill="white"/>
<path opacity="0.5" d="M4.39288 65.5685C4.39288 65.976 4.27205 66.3743 4.04568 66.7131C3.8193 67.0519 3.49754 67.316 3.12108 67.4719C2.74463 67.6278 2.33039 67.6686 1.93075 67.5891C1.5311 67.5096 1.16401 67.3134 0.875884 67.0253C0.587758 66.7372 0.391542 66.3701 0.312048 65.9704C0.232555 65.5708 0.273354 65.1566 0.429286 64.7801C0.585219 64.4036 0.849281 64.0819 1.18808 63.8555C1.52688 63.6291 1.9252 63.5083 2.33267 63.5083C2.87907 63.5083 3.4031 63.7254 3.78946 64.1117C4.17583 64.4981 4.39288 65.0221 4.39288 65.5685" fill="white"/>
<path opacity="0.5" d="M8.513 65.5685C8.513 65.976 8.39217 66.3743 8.16579 66.7131C7.93941 67.0519 7.61765 67.316 7.2412 67.4719C6.86474 67.6278 6.4505 67.6686 6.05086 67.5891C5.65122 67.5096 5.28413 67.3134 4.996 67.0253C4.70788 66.7372 4.51166 66.3701 4.43217 65.9704C4.35267 65.5708 4.39347 65.1566 4.5494 64.7801C4.70534 64.4036 4.9694 64.0819 5.3082 63.8555C5.647 63.6291 6.04532 63.5083 6.45279 63.5083C6.99919 63.5083 7.52321 63.7254 7.90958 64.1117C8.29594 64.4981 8.513 65.0221 8.513 65.5685Z" fill="white"/>
<path opacity="0.5" d="M12.6624 65.5685C12.6624 65.976 12.5416 66.3743 12.3152 66.7131C12.0888 67.0519 11.7671 67.316 11.3906 67.4719C11.0142 67.6278 10.5999 67.6686 10.2003 67.5891C9.80064 67.5096 9.43354 67.3134 9.14541 67.0253C8.85729 66.7372 8.66107 66.3701 8.58158 65.9704C8.50209 65.5708 8.54288 65.1566 8.69882 64.7801C8.85475 64.4036 9.11881 64.0819 9.45761 63.8555C9.79641 63.6291 10.1947 63.5083 10.6022 63.5083C11.1486 63.5083 11.6726 63.7254 12.059 64.1117C12.4454 64.4981 12.6624 65.0221 12.6624 65.5685Z" fill="white"/>
<path opacity="0.5" d="M0.271779 69.6897V71.7499H-3.8369V69.6897C-3.8583 69.4069 -3.82106 69.1227 -3.72752 68.8549C-3.63398 68.5871 -3.48615 68.3416 -3.2933 68.1336C-3.10044 67.9256 -2.86671 67.7596 -2.60676 67.6462C-2.3468 67.5327 -2.06621 67.4741 -1.78256 67.4741C-1.49892 67.4741 -1.21833 67.5327 -0.958368 67.6462C-0.69841 67.7596 -0.464683 67.9256 -0.271828 68.1336C-0.0789732 68.3416 0.0688544 68.5871 0.162395 68.8549C0.255936 69.1227 0.293175 69.4069 0.271779 69.6897" fill="white"/>
<path opacity="0.5" d="M4.3919 69.6897V71.7499H0.283213V69.6897C0.261818 69.4069 0.299057 69.1227 0.392597 68.8549C0.486138 68.5871 0.633966 68.3416 0.826821 68.1336C1.01968 67.9256 1.2534 67.7596 1.51336 67.6462C1.77332 67.5327 2.05391 67.4741 2.33755 67.4741C2.6212 67.4741 2.90179 67.5327 3.16175 67.6462C3.42171 67.7596 3.65543 67.9256 3.84829 68.1336C4.04114 68.3416 4.18897 68.5871 4.28251 68.8549C4.37605 69.1227 4.41329 69.4069 4.3919 69.6897" fill="white"/>
<path opacity="0.5" d="M8.51299 69.6897V71.7499H4.40431V69.6897C4.38291 69.4069 4.42015 69.1227 4.51369 68.8549C4.60723 68.5871 4.75506 68.3416 4.94791 68.1336C5.14077 67.9256 5.3745 67.7596 5.63445 67.6462C5.89441 67.5327 6.175 67.4741 6.45865 67.4741C6.74229 67.4741 7.02288 67.5327 7.28284 67.6462C7.5428 67.7596 7.77653 67.9256 7.96938 68.1336C8.16224 68.3416 8.31006 68.5871 8.40361 68.8549C8.49715 69.1227 8.53439 69.4069 8.51299 69.6897" fill="white"/>
<path opacity="0.5" d="M12.6634 69.6897V71.7499H8.5547V69.6897C8.5333 69.4069 8.57054 69.1227 8.66408 68.8549C8.75762 68.5871 8.90545 68.3416 9.09831 68.1336C9.29116 67.9256 9.52489 67.7596 9.78485 67.6462C10.0448 67.5327 10.3254 67.4741 10.609 67.4741C10.8927 67.4741 11.1733 67.5327 11.4332 67.6462C11.6932 67.7596 11.9269 67.9256 12.1198 68.1336C12.3126 68.3416 12.4605 68.5871 12.554 68.8549C12.6475 69.1227 12.6848 69.4069 12.6634 69.6897" fill="white"/>
<path opacity="0.5" d="M16.7708 69.6899V67.6296H12.6621V69.6899C12.6407 69.9727 12.678 70.2569 12.7715 70.5247C12.865 70.7925 13.0129 71.038 13.2057 71.246C13.3986 71.454 13.6323 71.6199 13.8923 71.7334C14.1522 71.8469 14.4328 71.9055 14.7165 71.9055C15.0001 71.9055 15.2807 71.8469 15.5407 71.7334C15.8006 71.6199 16.0343 71.454 16.2272 71.246C16.4201 71.038 16.5679 70.7925 16.6614 70.5247C16.755 70.2569 16.7922 69.9727 16.7708 69.6899" fill="white"/>
<path opacity="0.5" d="M20.8802 69.6899V67.6296H16.7715V69.6899C16.8107 70.2079 17.0441 70.692 17.4251 71.0452C17.806 71.3984 18.3063 71.5947 18.8258 71.5947C19.3453 71.5947 19.8456 71.3984 20.2266 71.0452C20.6075 70.692 20.841 70.2079 20.8802 69.6899" fill="white"/>
<path opacity="0.5" d="M24.9896 69.6899V67.6296H20.8809V69.6899C20.8595 69.9727 20.8967 70.2569 20.9903 70.5247C21.0838 70.7925 21.2316 71.038 21.4245 71.246C21.6173 71.454 21.8511 71.6199 22.111 71.7334C22.371 71.8469 22.6516 71.9055 22.9352 71.9055C23.2189 71.9055 23.4994 71.8469 23.7594 71.7334C24.0194 71.6199 24.2531 71.454 24.4459 71.246C24.6388 71.038 24.7866 70.7925 24.8802 70.5247C24.9737 70.2569 25.0109 69.9727 24.9896 69.6899" fill="white"/>
<path opacity="0.5" d="M16.7532 63.5083H12.6328V67.6287H16.7532V63.5083Z" fill="white"/>
<path opacity="0.5" d="M20.8743 63.5083H16.7539V67.6287H20.8743V63.5083Z" fill="white"/>
<path opacity="0.5" d="M0.272767 73.8102C0.272767 73.4027 0.151938 73.0044 -0.0744413 72.6656C-0.30082 72.3268 -0.622581 72.0628 -0.999036 71.9068C-1.37549 71.7509 -1.78973 71.7101 -2.18937 71.7896C-2.58901 71.8691 -2.95611 72.0653 -3.24423 72.3534C-3.53236 72.6415 -3.72858 73.0086 -3.80807 73.4083C-3.88756 73.8079 -3.84676 74.2222 -3.69083 74.5986C-3.5349 74.9751 -3.27084 75.2968 -2.93204 75.5232C-2.59324 75.7496 -2.19492 75.8704 -1.78744 75.8704C-1.24104 75.8704 -0.71702 75.6534 -0.330655 75.267C0.0557094 74.8806 0.272767 74.3566 0.272767 73.8102Z" fill="white"/>
<path opacity="0.5" d="M4.39288 73.8102C4.39288 73.4027 4.27205 73.0044 4.04568 72.6656C3.8193 72.3268 3.49754 72.0628 3.12108 71.9068C2.74463 71.7509 2.33039 71.7101 1.93075 71.7896C1.5311 71.8691 1.16401 72.0653 0.875884 72.3534C0.587758 72.6415 0.391542 73.0086 0.312048 73.4083C0.232555 73.8079 0.273354 74.2222 0.429286 74.5986C0.585219 74.9751 0.849281 75.2968 1.18808 75.5232C1.52688 75.7496 1.9252 75.8704 2.33267 75.8704C2.87907 75.8704 3.4031 75.6534 3.78946 75.267C4.17583 74.8806 4.39288 74.3566 4.39288 73.8102" fill="white"/>
<path opacity="0.5" d="M45.5911 42.907C45.5911 43.9967 45.1582 45.0417 44.3877 45.8123C43.6172 46.5828 42.5721 47.0157 41.4824 47.0157V42.907H45.5911Z" fill="white"/>
<path opacity="0.5" d="M45.5911 38.7856H41.4707V42.9061H45.5911V38.7856Z" fill="white"/>
<path opacity="0.5" d="M41.47 53.2077C41.47 53.6151 41.3492 54.0135 41.1228 54.3523C40.8964 54.6911 40.5747 54.9551 40.1982 55.1111C39.8218 55.267 39.4075 55.3078 39.0079 55.2283C38.6083 55.1488 38.2412 54.9526 37.953 54.6645C37.6649 54.3763 37.4687 54.0092 37.3892 53.6096C37.3097 53.21 37.3505 52.7957 37.5064 52.4193C37.6624 52.0428 37.9264 51.721 38.2652 51.4947C38.604 51.2683 39.0024 51.1475 39.4098 51.1475C39.6804 51.1475 39.9483 51.2007 40.1982 51.3043C40.4482 51.4078 40.6753 51.5596 40.8666 51.7509C41.0579 51.9422 41.2097 52.1693 41.3132 52.4193C41.4167 52.6692 41.47 52.9371 41.47 53.2077" fill="white"/>
<path opacity="0.5" d="M45.5911 53.2077C45.5911 53.6151 45.4703 54.0135 45.2439 54.3523C45.0175 54.6911 44.6958 54.9551 44.3193 55.1111C43.9429 55.267 43.5286 55.3078 43.129 55.2283C42.7293 55.1488 42.3623 54.9526 42.0741 54.6645C41.786 54.3763 41.5898 54.0092 41.5103 53.6096C41.4308 53.21 41.4716 52.7957 41.6275 52.4193C41.7835 52.0428 42.0475 51.721 42.3863 51.4947C42.7251 51.2683 43.1234 51.1475 43.5309 51.1475C44.0773 51.1475 44.6013 51.3645 44.9877 51.7509C45.3741 52.1372 45.5911 52.6613 45.5911 53.2077Z" fill="white"/>
<path opacity="0.5" d="M29.097 49.0876C29.097 49.495 28.9762 49.8933 28.7498 50.2321C28.5234 50.5709 28.2016 50.835 27.8252 50.9909C27.4487 51.1469 27.0345 51.1877 26.6348 51.1082C26.2352 51.0287 25.8681 50.8325 25.58 50.5443C25.2919 50.2562 25.0956 49.8891 25.0162 49.4895C24.9367 49.0898 24.9775 48.6756 25.1334 48.2991C25.2893 47.9227 25.5534 47.6009 25.8922 47.3745C26.231 47.1482 26.6293 47.0273 27.0368 47.0273C27.5832 47.0273 28.1072 47.2444 28.4936 47.6308C28.8799 48.0171 29.097 48.5412 29.097 49.0876Z" fill="white"/>
<path opacity="0.5" d="M29.097 42.907V47.0157C28.0073 47.0157 26.9622 46.5828 26.1917 45.8123C25.4212 45.0417 24.9883 43.9967 24.9883 42.907H29.097Z" fill="white"/>
<path opacity="0.5" d="M29.1146 38.7856H24.9941V42.9061H29.1146V38.7856Z" fill="white"/>
<path opacity="0.5" d="M33.2357 47.0273H29.1152V51.1478H33.2357V47.0273Z" fill="white"/>
<path opacity="0.5" d="M33.2357 44.9672C33.2357 45.3747 33.1148 45.773 32.8884 46.1118C32.6621 46.4506 32.3403 46.7147 31.9639 46.8706C31.5874 47.0265 31.1732 47.0673 30.7735 46.9878C30.3739 46.9083 30.0068 46.7121 29.7187 46.424C29.4305 46.1359 29.2343 45.7688 29.1548 45.3691C29.0753 44.9695 29.1161 44.5552 29.2721 44.1788C29.428 43.8023 29.6921 43.4806 30.0309 43.2542C30.3697 43.0278 30.768 42.907 31.1754 42.907C31.446 42.907 31.7139 42.9603 31.9639 43.0638C32.2138 43.1673 32.4409 43.3191 32.6322 43.5104C32.8235 43.7017 32.9753 43.9288 33.0788 44.1788C33.1824 44.4287 33.2357 44.6966 33.2357 44.9672" fill="white"/>
<path opacity="0.5" d="M33.2356 38.7856C33.2356 39.8753 32.8028 40.9204 32.0322 41.6909C31.2617 42.4614 30.2166 42.8943 29.127 42.8943V38.7856H33.2356Z" fill="white"/>
<path opacity="0.5" d="M37.3567 44.9672C37.3567 45.3747 37.2359 45.773 37.0095 46.1118C36.7832 46.4506 36.4614 46.7147 36.0849 46.8706C35.7085 47.0265 35.2943 47.0673 34.8946 46.9878C34.495 46.9083 34.1279 46.7121 33.8397 46.424C33.5516 46.1359 33.3554 45.7688 33.2759 45.3691C33.1964 44.9695 33.2372 44.5552 33.3932 44.1788C33.5491 43.8023 33.8131 43.4806 34.1519 43.2542C34.4907 43.0278 34.8891 42.907 35.2965 42.907C35.5671 42.907 35.835 42.9603 36.0849 43.0638C36.3349 43.1673 36.562 43.3191 36.7533 43.5104C36.9446 43.7017 37.0964 43.9288 37.1999 44.1788C37.3035 44.4287 37.3567 44.6966 37.3567 44.9672" fill="white"/>
<path opacity="0.5" d="M37.3567 40.8459C37.3567 41.2533 37.2359 41.6516 37.0095 41.9904C36.7832 42.3292 36.4614 42.5933 36.0849 42.7492C35.7085 42.9052 35.2943 42.946 34.8946 42.8665C34.495 42.787 34.1279 42.5908 33.8397 42.3026C33.5516 42.0145 33.3554 41.6474 33.2759 41.2478C33.1964 40.8481 33.2372 40.4339 33.3932 40.0574C33.5491 39.681 33.8131 39.3592 34.1519 39.1329C34.4907 38.9065 34.8891 38.7856 35.2965 38.7856C35.5671 38.7856 35.835 38.8389 36.0849 38.9425C36.3349 39.046 36.562 39.1978 36.7533 39.3891C36.9446 39.5804 37.0964 39.8075 37.1999 40.0574C37.3035 40.3074 37.3567 40.5753 37.3567 40.8459" fill="white"/>
<path opacity="0.5" d="M41.47 49.0876C41.47 49.495 41.3492 49.8933 41.1228 50.2321C40.8964 50.5709 40.5747 50.835 40.1982 50.9909C39.8218 51.1469 39.4075 51.1877 39.0079 51.1082C38.6083 51.0287 38.2412 50.8325 37.953 50.5443C37.6649 50.2562 37.4687 49.8891 37.3892 49.4895C37.3097 49.0898 37.3505 48.6756 37.5064 48.2991C37.6624 47.9227 37.9264 47.6009 38.2652 47.3745C38.604 47.1482 39.0024 47.0273 39.4098 47.0273C39.6804 47.0273 39.9483 47.0806 40.1982 47.1842C40.4482 47.2877 40.6753 47.4395 40.8666 47.6308C41.0579 47.8221 41.2097 48.0492 41.3132 48.2991C41.4167 48.5491 41.47 48.817 41.47 49.0876" fill="white"/>
<path opacity="0.5" d="M41.4769 42.907H37.3564V47.0274H41.4769V42.907Z" fill="white"/>
<path opacity="0.5" d="M41.47 38.7856V42.8943C40.3803 42.8943 39.3353 42.4614 38.5647 41.6909C37.7942 40.9204 37.3613 39.8753 37.3613 38.7856H41.47Z" fill="white"/>
<path opacity="0.5" d="M29.097 57.3268V55.2666H24.9883V57.3268C24.9669 57.6096 25.0041 57.8939 25.0977 58.1616C25.1912 58.4294 25.339 58.675 25.5319 58.883C25.7248 59.091 25.9585 59.2569 26.2184 59.3704C26.4784 59.4839 26.759 59.5424 27.0426 59.5424C27.3263 59.5424 27.6069 59.4839 27.8668 59.3704C28.1268 59.2569 28.3605 59.091 28.5534 58.883C28.7462 58.675 28.894 58.4294 28.9876 58.1616C29.0811 57.8939 29.1184 57.6096 29.097 57.3268" fill="white"/>
<path opacity="0.5" d="M33.2357 59.3887V55.28H29.0977V57.3402C29.0977 57.8866 29.3147 58.4107 29.7011 58.797C30.0874 59.1834 30.6115 59.4005 31.1579 59.4005L33.2357 59.3887Z" fill="white"/>
<path opacity="0.5" d="M37.3567 55.2666H33.2363V59.387H37.3567V55.2666Z" fill="white"/>
<path opacity="0.5" d="M41.47 59.3887C41.47 58.299 41.0371 57.254 40.2666 56.4834C39.4961 55.7129 38.451 55.28 37.3613 55.28V59.3887H41.47Z" fill="white"/>
<path opacity="0.5" d="M29.097 55.2684V51.1597C28.0073 51.1597 26.9622 51.5925 26.1917 52.3631C25.4212 53.1336 24.9883 54.1787 24.9883 55.2684H29.097Z" fill="white"/>
<path opacity="0.5" d="M33.2357 51.1475H29.1152V55.2679H33.2357V51.1475Z" fill="white"/>
<path opacity="0.5" d="M37.3558 51.1475H33.2471V55.2561C34.3368 55.2561 35.3818 54.8233 36.1523 54.0527C36.9229 53.2822 37.3558 52.2372 37.3558 51.1475" fill="white"/>
<path opacity="0.5" d="M45.5911 57.3268C45.5911 57.7343 45.4703 58.1326 45.2439 58.4714C45.0175 58.8102 44.6958 59.0743 44.3193 59.2302C43.9429 59.3861 43.5286 59.4269 43.129 59.3474C42.7293 59.2679 42.3623 59.0717 42.0741 58.7836C41.786 58.4955 41.5898 58.1284 41.5103 57.7287C41.4308 57.3291 41.4716 56.9149 41.6275 56.5384C41.7835 56.1619 42.0475 55.8402 42.3863 55.6138C42.7251 55.3874 43.1234 55.2666 43.5309 55.2666C43.8015 55.2666 44.0694 55.3199 44.3193 55.4234C44.5693 55.527 44.7964 55.6787 44.9877 55.87C45.179 56.0613 45.3308 56.2884 45.4343 56.5384C45.5378 56.7884 45.5911 57.0563 45.5911 57.3268" fill="white"/>
<path opacity="0.5" d="M20.8743 71.75H16.7539V75.8704H20.8743V71.75Z" fill="white"/>
<path opacity="0.5" d="M24.9954 71.75H20.875V75.8704H24.9954V71.75Z" fill="white"/>
<path opacity="0.5" d="M8.51298 71.75H4.4043V75.8587C5.49399 75.8587 6.53905 75.4258 7.30957 74.6553C8.0801 73.8847 8.51298 72.8397 8.51298 71.75" fill="white"/>
<path opacity="0.5" d="M29.097 75.8709C29.097 74.7812 28.6641 73.7361 27.8936 72.9656C27.123 72.1951 26.078 71.7622 24.9883 71.7622V75.8709H29.097Z" fill="white"/>
<path opacity="0.5" d="M12.6331 71.75H8.5127V75.8704H12.6331V71.75Z" fill="white"/>
<path opacity="0.5" d="M16.7532 71.75H12.6328V75.8704H16.7532V71.75Z" fill="white"/>
<path opacity="0.5" d="M37.3558 75.8709V71.7622C36.2661 71.7622 35.221 72.1951 34.4505 72.9656C33.6799 73.7361 33.2471 74.7812 33.2471 75.8709H37.3558Z" fill="white"/>
<path opacity="0.5" d="M41.4769 71.75H37.3564V75.8704H41.4769V71.75Z" fill="white"/>
<path opacity="0.5" d="M33.2355 75.8709V71.7622H31.1753C30.6573 71.8014 30.1732 72.0348 29.82 72.4158C29.4668 72.7967 29.2705 73.297 29.2705 73.8165C29.2705 74.336 29.4668 74.8364 29.82 75.2173C30.1732 75.5983 30.6573 75.8317 31.1753 75.8709H33.2355Z" fill="white"/>
<path opacity="0.5" d="M45.5911 71.75H41.4707V75.8704H45.5911V71.75Z" fill="white"/>
<path opacity="0.5" d="M49.7122 71.75H45.5918V75.8704H49.7122V71.75Z" fill="white"/>
<path opacity="0.5" d="M53.8314 71.75H49.7109V75.8704H53.8314V71.75Z" fill="white"/>
<path opacity="0.5" d="M57.9525 71.75H53.832V75.8704H57.9525V71.75Z" fill="white"/>
<path opacity="0.5" d="M62.0735 73.8102C62.0735 73.4027 61.9527 73.0044 61.7263 72.6656C61.5 72.3268 61.1782 72.0628 60.8017 71.9068C60.4253 71.7509 60.0111 71.7101 59.6114 71.7896C59.2118 71.8691 58.8447 72.0653 58.5566 72.3534C58.2684 72.6415 58.0722 73.0086 57.9927 73.4083C57.9132 73.8079 57.954 74.2222 58.11 74.5986C58.2659 74.9751 58.5299 75.2968 58.8687 75.5232C59.2075 75.7496 59.6059 75.8704 60.0133 75.8704C60.5597 75.8704 61.0838 75.6534 61.4701 75.267C61.8565 74.8806 62.0735 74.3566 62.0735 73.8102Z" fill="white"/>
<path opacity="0.5" d="M66.1927 75.8709V71.7622H62.084C62.084 72.8519 62.5169 73.897 63.2874 74.6675C64.0579 75.438 65.103 75.8709 66.1927 75.8709" fill="white"/>
<path opacity="0.5" d="M70.3138 71.75H66.1934V75.8704H70.3138V71.75Z" fill="white"/>
<path opacity="0.5" d="M49.7122 22.3035H45.5918V26.4239H49.7122V22.3035Z" fill="white"/>
<path opacity="0.5" d="M53.8314 22.3035H49.7109V26.4239H53.8314V22.3035Z" fill="white"/>
<path opacity="0.5" d="M53.8323 18.1912C53.8323 19.2809 53.3994 20.3259 52.6289 21.0964C51.8584 21.867 50.8133 22.2998 49.7236 22.2998V18.1912H53.8323Z" fill="white"/>
<path opacity="0.5" d="M57.9525 22.3035H53.832V26.4239H57.9525V22.3035Z" fill="white"/>
<path opacity="0.5" d="M57.9525 18.1912H53.832V22.3116H57.9525V18.1912Z" fill="white"/>
<path opacity="0.5" d="M62.0735 22.3035H57.9531V26.4239H62.0735V22.3035Z" fill="white"/>
<path opacity="0.5" d="M62.0726 18.1912V22.2998C60.9829 22.2998 59.9378 21.867 59.1673 21.0964C58.3967 20.3259 57.9639 19.2809 57.9639 18.1912H62.0726Z" fill="white"/>
<path opacity="0.5" d="M66.1927 22.3035H62.0723V26.4239H66.1927V22.3035Z" fill="white"/>
<path opacity="0.5" d="M66.1927 18.1912H62.0723V22.3116H66.1927V18.1912Z" fill="white"/>
<path opacity="0.5" d="M70.3138 22.3035V26.4121C69.2241 26.4121 68.179 25.9793 67.4085 25.2087C66.638 24.4382 66.2051 23.3932 66.2051 22.3035H70.3138Z" fill="white"/>
<path opacity="0.5" d="M70.3138 18.1912H66.1934V22.3116H70.3138V18.1912Z" fill="white"/>
<path opacity="0.5" d="M70.3138 14.0696V18.1783C69.2241 18.1783 68.179 17.7454 67.4085 16.9749C66.638 16.2043 66.2051 15.1593 66.2051 14.0696H70.3138Z" fill="white"/>
<path opacity="0.5" d="M70.3138 14.0691H66.2051V9.96045C67.2948 9.96045 68.3398 10.3933 69.1104 11.1639C69.8809 11.9344 70.3138 12.9794 70.3138 14.0691Z" fill="white"/>
<path opacity="0.5" d="M49.7122 26.4304H45.5918V30.5508H49.7122V26.4304Z" fill="white"/>
<path opacity="0.5" d="M53.8314 26.4304H49.7109V30.5508H53.8314V26.4304Z" fill="white"/>
<path opacity="0.5" d="M57.9525 26.4304H53.832V30.5508H57.9525V26.4304Z" fill="white"/>
<path opacity="0.5" d="M62.0735 26.4304H57.9531V30.5508H62.0735V26.4304Z" fill="white"/>
<path opacity="0.5" d="M66.1927 26.4304H62.0723V30.5508H66.1927V26.4304Z" fill="white"/>
<path opacity="0.5" d="M70.3138 26.4248V30.5335H66.2051C66.2051 29.4438 66.638 28.3987 67.4085 27.6282C68.179 26.8577 69.2241 26.4248 70.3138 26.4248" fill="white"/>
<path opacity="0.5" d="M41.4769 1.70898H37.3564V5.82941H41.4769V1.70898Z" fill="white"/>
<path opacity="0.5" d="M45.5911 1.70898H41.4707V5.82941H45.5911V1.70898Z" fill="white"/>
<path opacity="0.5" d="M33.2357 1.70898H29.1152V5.82941H33.2357V1.70898Z" fill="white"/>
<path opacity="0.5" d="M33.2356 -2.41235V1.69633C32.1459 1.69633 31.1009 1.26345 30.3304 0.492924C29.5598 -0.277603 29.127 -1.32266 29.127 -2.41235H33.2356Z" fill="white"/>
<path opacity="0.5" d="M37.3558 -2.41235V1.69633C36.2661 1.69633 35.221 1.26345 34.4505 0.492924C33.6799 -0.277603 33.2471 -1.32266 33.2471 -2.41235H37.3558Z" fill="white"/>
<path opacity="0.5" d="M41.4769 -2.41235H37.3564V1.70807H41.4769V-2.41235Z" fill="white"/>
<path opacity="0.5" d="M45.5911 -2.41235H41.4707V1.70807H45.5911V-2.41235Z" fill="white"/>
<path opacity="0.5" d="M29.1146 5.82812H24.9941V9.94855H29.1146V5.82812Z" fill="white"/>
<path opacity="0.5" d="M33.2356 5.82812C33.2356 6.91782 32.8028 7.96288 32.0322 8.7334C31.2617 9.50393 30.2166 9.93681 29.127 9.93681V5.82812H33.2356Z" fill="white"/>
<path opacity="0.5" d="M49.7112 42.907V47.0157C48.6215 47.0157 47.5765 46.5828 46.8059 45.8123C46.0354 45.0417 45.6025 43.9967 45.6025 42.907H49.7112Z" fill="white"/>
<path opacity="0.5" d="M49.7122 38.7856H45.5918V42.9061H49.7122V38.7856Z" fill="white"/>
<path opacity="0.5" d="M53.8314 40.8459C53.8314 41.2533 53.7105 41.6516 53.4842 41.9904C53.2578 42.3292 52.936 42.5933 52.5596 42.7492C52.1831 42.9052 51.7689 42.946 51.3692 42.8665C50.9696 42.787 50.6025 42.5908 50.3144 42.3026C50.0262 42.0145 49.83 41.6474 49.7505 41.2478C49.671 40.8481 49.7118 40.4339 49.8678 40.0574C50.0237 39.681 50.2878 39.3592 50.6266 39.1329C50.9654 38.9065 51.3637 38.7856 51.7711 38.7856C52.0417 38.7856 52.3096 38.8389 52.5596 38.9425C52.8095 39.046 53.0366 39.1978 53.2279 39.3891C53.4192 39.5804 53.571 39.8075 53.6745 40.0574C53.7781 40.3074 53.8314 40.5753 53.8314 40.8459" fill="white"/>
<path opacity="0.5" d="M57.9525 38.7856H53.832V42.9061H57.9525V38.7856Z" fill="white"/>
<path opacity="0.5" d="M4.39288 3.7975C4.39288 4.3439 4.17583 4.86792 3.78946 5.25428C3.4031 5.64065 2.87907 5.85771 2.33267 5.85771H0.272461V1.74902H2.33267C2.87705 1.74901 3.3993 1.96446 3.78533 2.34829C4.17136 2.73212 4.38978 3.25313 4.39288 3.7975" fill="white"/>
<path opacity="0.5" d="M8.513 3.798C8.513 4.20548 8.39217 4.6038 8.16579 4.9426C7.93941 5.2814 7.61765 5.54546 7.2412 5.70139C6.86474 5.85732 6.4505 5.89812 6.05086 5.81863C5.65122 5.73914 5.28413 5.54292 4.996 5.25479C4.70788 4.96667 4.51166 4.59957 4.43217 4.19993C4.35267 3.80029 4.39347 3.38605 4.5494 3.0096C4.70534 2.63314 4.9694 2.31138 5.3082 2.085C5.647 1.85862 6.04532 1.73779 6.45279 1.73779C6.99919 1.73779 7.52321 1.95485 7.90958 2.34121C8.29594 2.72758 8.513 3.2516 8.513 3.798Z" fill="white"/>
<path opacity="0.5" d="M4.39288 18.1912H0.272461V22.3116H4.39288V18.1912Z" fill="white"/>
<path opacity="0.5" d="M4.39189 14.0696V18.1783C3.3022 18.1783 2.25714 17.7454 1.48661 16.9749C0.716081 16.2043 0.283203 15.1593 0.283203 14.0696H4.39189Z" fill="white"/>
<path opacity="0.5" d="M4.39189 12.0148V14.0691H0.283203V9.96045H2.33167C2.87706 9.96045 3.4002 10.1767 3.78639 10.5618C4.17259 10.9469 4.39033 11.4694 4.39189 12.0148Z" fill="white"/>
<path opacity="0.5" d="M4.39288 7.9076C4.39288 8.454 4.17583 8.97803 3.78946 9.36439C3.4031 9.75076 2.87907 9.96781 2.33267 9.96781H0.272461V5.85913H2.33267C2.87705 5.85912 3.3993 6.07457 3.78533 6.4584C4.17136 6.84223 4.38978 7.36324 4.39288 7.9076" fill="white"/>
<path opacity="0.5" d="M8.51298 12.0154V14.0697H4.4043V12.0154C4.44348 11.4974 4.67693 11.0133 5.05787 10.6601C5.43882 10.3069 5.93914 10.1106 6.45864 10.1106C6.97814 10.1106 7.47846 10.3069 7.85941 10.6601C8.24035 11.0133 8.47379 11.4974 8.51298 12.0154" fill="white"/>
<path opacity="0.5" d="M8.513 7.90714C8.513 8.31461 8.39217 8.71293 8.16579 9.05173C7.93941 9.39053 7.61765 9.65459 7.2412 9.81052C6.86474 9.96645 6.4505 10.0073 6.05086 9.92776C5.65122 9.84827 5.28413 9.65205 4.996 9.36392C4.70788 9.0758 4.51166 8.7087 4.43217 8.30906C4.35267 7.90942 4.39347 7.49518 4.5494 7.11873C4.70534 6.74227 4.9694 6.42051 5.3082 6.19413C5.647 5.96775 6.04532 5.84692 6.45279 5.84692C6.99919 5.84692 7.52321 6.06398 7.90958 6.45035C8.29594 6.83671 8.513 7.36073 8.513 7.90714Z" fill="white"/>
<path opacity="0.5" d="M12.6624 12.0154V14.0697H8.55371V12.0154C8.5929 11.4974 8.82634 11.0133 9.20728 10.6601C9.58823 10.3069 10.0886 10.1106 10.6081 10.1106C11.1276 10.1106 11.6279 10.3069 12.0088 10.6601C12.3898 11.0133 12.6232 11.4974 12.6624 12.0154" fill="white"/>
<path opacity="0.5" d="M12.6624 7.90714C12.6624 8.31461 12.5416 8.71293 12.3152 9.05173C12.0888 9.39053 11.7671 9.65459 11.3906 9.81052C11.0142 9.96645 10.5999 10.0073 10.2003 9.92776C9.80064 9.84827 9.43354 9.65205 9.14541 9.36392C8.85729 9.0758 8.66107 8.7087 8.58158 8.30906C8.50209 7.90942 8.54288 7.49518 8.69882 7.11873C8.85475 6.74227 9.11881 6.42051 9.45761 6.19413C9.79641 5.96775 10.1947 5.84692 10.6022 5.84692C11.1486 5.84692 11.6726 6.06398 12.059 6.45035C12.4454 6.83671 12.6624 7.36073 12.6624 7.90714Z" fill="white"/>
<path opacity="0.5" d="M16.7532 30.5452H12.6328V34.6656H16.7532V30.5452Z" fill="white"/>
<path opacity="0.5" d="M16.7532 22.3035H12.6328V26.4239H16.7532V22.3035Z" fill="white"/>
<path opacity="0.5" d="M16.7708 20.2315V22.2917H12.6621V20.2315C12.7013 19.7134 12.9347 19.2294 13.3157 18.8761C13.6966 18.5229 14.197 18.3267 14.7165 18.3267C15.236 18.3267 15.7363 18.5229 16.1172 18.8761C16.4982 19.2294 16.7316 19.7134 16.7708 20.2315" fill="white"/>
<path opacity="0.5" d="M20.8743 30.5452H16.7539V34.6656H20.8743V30.5452Z" fill="white"/>
<path opacity="0.5" d="M20.8743 22.3035H16.7539V26.4239H20.8743V22.3035Z" fill="white"/>
<path opacity="0.5" d="M20.8802 20.2315V22.2917H16.7715V20.2315C16.8107 19.7134 17.0441 19.2294 17.4251 18.8761C17.806 18.5229 18.3063 18.3267 18.8258 18.3267C19.3453 18.3267 19.8456 18.5229 20.2266 18.8761C20.6075 19.2294 20.841 19.7134 20.8802 20.2315Z" fill="white"/>
<path opacity="0.5" d="M24.9954 26.4248H20.875V30.5452H24.9954V26.4248Z" fill="white"/>
<path opacity="0.5" d="M24.9895 22.3035V26.4121C23.8999 26.4121 22.8548 25.9793 22.0843 25.2087C21.3137 24.4382 20.8809 23.3932 20.8809 22.3035H24.9895Z" fill="white"/>
<path opacity="0.5" d="M24.9895 18.1883V22.2969H20.8809V20.2309C20.8824 19.6855 21.1002 19.163 21.4864 18.7779C21.8725 18.3928 22.3957 18.1765 22.9411 18.1765L24.9895 18.1883Z" fill="white"/>
<path opacity="0.5" d="M20.8802 16.1244C20.8802 16.5319 20.7594 16.9302 20.533 17.269C20.3066 17.6078 19.9848 17.8719 19.6084 18.0278C19.2319 18.1837 18.8177 18.2245 18.4181 18.145C18.0184 18.0656 17.6513 17.8693 17.3632 17.5812C17.0751 17.2931 16.8788 16.926 16.7994 16.5263C16.7199 16.1267 16.7607 15.7125 16.9166 15.336C17.0725 14.9596 17.3366 14.6378 17.6754 14.4114C18.0142 14.185 18.4125 14.0642 18.82 14.0642C19.3664 14.0642 19.8904 14.2813 20.2768 14.6676C20.6631 15.054 20.8802 15.578 20.8802 16.1244Z" fill="white"/>
<path opacity="0.5" d="M20.8802 34.6665V38.7752C19.7905 38.7752 18.7454 38.3423 17.9749 37.5718C17.2044 36.8013 16.7715 35.7562 16.7715 34.6665H20.8802Z" fill="white"/>
<path opacity="0.5" d="M24.9954 34.6665H20.875V38.7869H24.9954V34.6665Z" fill="white"/>
<path opacity="0.5" d="M74.4339 38.7856H70.3135V42.9061H74.4339V38.7856Z" fill="white"/>
<path opacity="0.5" d="M74.4339 34.6665H70.3135V38.7869H74.4339V34.6665Z" fill="white"/>
<path opacity="0.5" d="M74.4339 42.907H70.3135V47.0274H74.4339V42.907Z" fill="white"/>
<path opacity="0.5" d="M74.4339 5.82812H70.3135V9.94855H74.4339V5.82812Z" fill="white"/>
<path opacity="0.5" d="M74.4339 -2.41235H70.3135V1.70807H74.4339V-2.41235Z" fill="white"/>
<path opacity="0.5" d="M57.9524 9.94946V14.0581H53.8438C53.8438 12.9685 54.2766 11.9234 55.0472 11.1529C55.8177 10.3823 56.8627 9.94946 57.9524 9.94946" fill="white"/>
<path opacity="0.5" d="M0.272767 24.3693C0.272767 24.7768 0.151938 25.1751 -0.0744413 25.5139C-0.30082 25.8527 -0.622581 26.1167 -0.999036 26.2727C-1.37549 26.4286 -1.78973 26.4694 -2.18937 26.3899C-2.58901 26.3104 -2.95611 26.1142 -3.24423 25.8261C-3.53236 25.538 -3.72858 25.1709 -3.80807 24.7712C-3.88756 24.3716 -3.84676 23.9573 -3.69083 23.5809C-3.5349 23.2044 -3.27084 22.8827 -2.93204 22.6563C-2.59324 22.4299 -2.19492 22.3091 -1.78744 22.3091C-1.24104 22.3091 -0.71702 22.5261 -0.330655 22.9125C0.0557094 23.2989 0.272767 23.8229 0.272767 24.3693Z" fill="white"/>
<path opacity="0.5" d="M0.272767 20.2314C0.272767 20.6388 0.151938 21.0371 -0.0744413 21.3759C-0.30082 21.7147 -0.622581 21.9788 -0.999036 22.1347C-1.37549 22.2907 -1.78973 22.3315 -2.18937 22.252C-2.58901 22.1725 -2.95611 21.9763 -3.24423 21.6881C-3.53236 21.4 -3.72858 21.0329 -3.80807 20.6333C-3.88756 20.2336 -3.84676 19.8194 -3.69083 19.4429C-3.5349 19.0665 -3.27084 18.7447 -2.93204 18.5184C-2.59324 18.292 -2.19492 18.1711 -1.78744 18.1711C-1.24104 18.1711 -0.71702 18.3882 -0.330655 18.7746C0.0557094 19.1609 0.272767 19.685 0.272767 20.2314Z" fill="white"/>
<path opacity="0.5" d="M24.9954 9.94946H20.875V14.0699H24.9954V9.94946Z" fill="white"/>
<path opacity="0.5" d="M24.9895 9.94779H20.8809V5.83911C21.9705 5.83911 23.0156 6.27199 23.7861 7.04252C24.5567 7.81304 24.9895 8.8581 24.9895 9.94779" fill="white"/>
<path opacity="0.5" d="M24.9954 -2.41235H20.875V1.70807H24.9954V-2.41235Z" fill="white"/>
<path opacity="0.5" d="M16.7532 5.82812H12.6328V9.94855H16.7532V5.82812Z" fill="white"/>
<path opacity="0.5" d="M16.7532 1.70898H12.6328V5.82941H16.7532V1.70898Z" fill="white"/>
<path opacity="0.5" d="M20.8743 5.82812H16.7539V9.94855H20.8743V5.82812Z" fill="white"/>
<path opacity="0.5" d="M20.8743 1.70898H16.7539V5.82941H20.8743V1.70898Z" fill="white"/>
<path opacity="0.5" d="M20.8802 -0.352143C20.8802 0.0553286 20.7594 0.45365 20.533 0.792449C20.3066 1.13125 19.9848 1.39531 19.6084 1.55124C19.2319 1.70718 18.8177 1.74798 18.4181 1.66848C18.0184 1.58899 17.6513 1.39277 17.3632 1.10465C17.0751 0.816521 16.8788 0.449427 16.7994 0.0497847C16.7199 -0.349857 16.7607 -0.764097 16.9166 -1.14055C17.0725 -1.51701 17.3366 -1.83877 17.6754 -2.06515C18.0142 -2.29152 18.4125 -2.41235 18.82 -2.41235C19.3664 -2.41235 19.8904 -2.1953 20.2768 -1.80893C20.6631 -1.42257 20.8802 -0.898545 20.8802 -0.352143Z" fill="white"/>
<path opacity="0.5" d="M0.272767 53.2077C0.272767 53.6151 0.151938 54.0135 -0.0744413 54.3523C-0.30082 54.6911 -0.622581 54.9551 -0.999036 55.1111C-1.37549 55.267 -1.78973 55.3078 -2.18937 55.2283C-2.58901 55.1488 -2.95611 54.9526 -3.24423 54.6645C-3.53236 54.3763 -3.72858 54.0092 -3.80807 53.6096C-3.88756 53.21 -3.84676 52.7957 -3.69083 52.4193C-3.5349 52.0428 -3.27084 51.721 -2.93204 51.4947C-2.59324 51.2683 -2.19492 51.1475 -1.78744 51.1475C-1.24104 51.1475 -0.71702 51.3645 -0.330655 51.7509C0.0557094 52.1372 0.272767 52.6613 0.272767 53.2077Z" fill="white"/>
<path opacity="0.5" d="M0.272766 47.0273H-3.84766V51.1478H0.272766V47.0273Z" fill="white"/>
<path opacity="0.5" d="M0.272767 44.9672C0.272767 45.3747 0.151938 45.773 -0.0744413 46.1118C-0.30082 46.4506 -0.622581 46.7147 -0.999036 46.8706C-1.37549 47.0265 -1.78973 47.0673 -2.18937 46.9878C-2.58901 46.9083 -2.95611 46.7121 -3.24423 46.424C-3.53236 46.1359 -3.72858 45.7688 -3.80807 45.3691C-3.88756 44.9695 -3.84676 44.5552 -3.69083 44.1788C-3.5349 43.8023 -3.27084 43.4806 -2.93204 43.2542C-2.59324 43.0278 -2.19492 42.907 -1.78744 42.907C-1.51689 42.907 -1.24899 42.9603 -0.999036 43.0638C-0.749079 43.1673 -0.521963 43.3191 -0.330655 43.5104C-0.139347 43.7017 0.0124071 43.9288 0.115942 44.1788C0.219478 44.4287 0.272767 44.6966 0.272767 44.9672" fill="white"/>
<path opacity="0.5" d="M0.272766 34.6721H-3.84766V38.7925H0.272766V34.6721Z" fill="white"/>
<path opacity="0.5" d="M0.272745 38.7856C0.272745 39.8753 -0.160132 40.9204 -0.93066 41.6909C-1.70119 42.4614 -2.74625 42.8943 -3.83594 42.8943V38.7856H0.272745Z" fill="white"/>
<path opacity="0.5" d="M4.39288 51.1475H0.272461V55.2679H4.39288V51.1475Z" fill="white"/>
<path opacity="0.5" d="M4.39288 49.0876C4.39288 49.495 4.27205 49.8933 4.04568 50.2321C3.8193 50.5709 3.49754 50.835 3.12108 50.9909C2.74463 51.1469 2.33039 51.1877 1.93075 51.1082C1.5311 51.0287 1.16401 50.8325 0.875884 50.5443C0.587758 50.2562 0.391542 49.8891 0.312048 49.4895C0.232555 49.0898 0.273354 48.6756 0.429286 48.2991C0.585219 47.9227 0.849281 47.6009 1.18808 47.3745C1.52688 47.1482 1.9252 47.0273 2.33267 47.0273C2.87907 47.0273 3.4031 47.2444 3.78946 47.6308C4.17583 48.0171 4.39288 48.5412 4.39288 49.0876" fill="white"/>
<path opacity="0.5" d="M8.513 51.1475H4.39258V55.2679H8.513V51.1475Z" fill="white"/>
<path opacity="0.5" d="M8.51298 51.147H4.4043V47.0383C5.49399 47.0383 6.53905 47.4712 7.30957 48.2417C8.0801 49.0123 8.51298 50.0573 8.51298 51.147" fill="white"/>
<path opacity="0.5" d="M12.6624 51.1475C12.6624 52.2372 12.2295 53.2822 11.459 54.0527C10.6885 54.8233 9.6434 55.2561 8.55371 55.2561V51.1475H12.6624Z" fill="white"/>
<path opacity="0.5" d="M12.6331 47.0273H8.5127V51.1478H12.6331V47.0273Z" fill="white"/>
<path opacity="0.5" d="M4.39288 44.9672C4.39288 45.3747 4.27205 45.773 4.04568 46.1118C3.8193 46.4506 3.49754 46.7147 3.12108 46.8706C2.74463 47.0265 2.33039 47.0673 1.93075 46.9878C1.5311 46.9083 1.16401 46.7121 0.875884 46.424C0.587758 46.1359 0.391542 45.7688 0.312048 45.3691C0.232555 44.9695 0.273354 44.5552 0.429286 44.1788C0.585219 43.8023 0.849281 43.4806 1.18808 43.2542C1.52688 43.0278 1.9252 42.907 2.33267 42.907C2.60322 42.907 2.87112 42.9603 3.12108 43.0638C3.37104 43.1673 3.59815 43.3191 3.78946 43.5104C3.98077 43.7017 4.13252 43.9288 4.23606 44.1788C4.3396 44.4287 4.39288 44.6966 4.39288 44.9672" fill="white"/>
<path opacity="0.5" d="M4.39288 38.7856H0.272461V42.9061H4.39288V38.7856Z" fill="white"/>
<path opacity="0.5" d="M8.513 42.907H4.39258V47.0274H8.513V42.907Z" fill="white"/>
<path opacity="0.5" d="M8.513 38.7856H4.39258V42.9061H8.513V38.7856Z" fill="white"/>
<path opacity="0.5" d="M12.6331 42.907H8.5127V47.0274H12.6331V42.907Z" fill="white"/>
<path opacity="0.5" d="M12.6624 38.7856V42.8943C11.5727 42.8943 10.5276 42.4614 9.75712 41.6909C8.98659 40.9204 8.55371 39.8753 8.55371 38.7856H12.6624Z" fill="white"/>
<path opacity="0.5" d="M8.51298 38.7864H4.4043V34.6777C5.49399 34.6777 6.53905 35.1106 7.30957 35.8811C8.0801 36.6517 8.51298 37.6967 8.51298 38.7864" fill="white"/>
<path opacity="0.5" d="M16.7708 53.2077C16.7708 53.6151 16.65 54.0135 16.4236 54.3523C16.1972 54.6911 15.8755 54.9551 15.499 55.1111C15.1226 55.267 14.7083 55.3078 14.3087 55.2283C13.909 55.1488 13.5419 54.9526 13.2538 54.6645C12.9657 54.3763 12.7695 54.0092 12.69 53.6096C12.6105 53.21 12.6513 52.7957 12.8072 52.4193C12.9631 52.0428 13.2272 51.721 13.566 51.4947C13.9048 51.2683 14.3031 51.1475 14.7106 51.1475C15.257 51.1475 15.781 51.3645 16.1674 51.7509C16.5538 52.1372 16.7708 52.6613 16.7708 53.2077Z" fill="white"/>
<path opacity="0.5" d="M16.7708 42.9065H12.6621V38.7979C13.7518 38.7979 14.7969 39.2307 15.5674 40.0013C16.3379 40.7718 16.7708 41.8168 16.7708 42.9065Z" fill="white"/>
<path opacity="0.5" d="M20.8802 38.7856V42.8943H16.7715C16.7715 41.8046 17.2044 40.7596 17.9749 39.9891C18.7454 39.2185 19.7905 38.7856 20.8802 38.7856" fill="white"/>
<path opacity="0.5" d="M24.9954 38.7856H20.875V42.9061H24.9954V38.7856Z" fill="white"/>
<path opacity="0.5" d="M16.7708 49.0876C16.7708 49.495 16.65 49.8933 16.4236 50.2321C16.1972 50.5709 15.8755 50.835 15.499 50.9909C15.1226 51.1469 14.7083 51.1877 14.3087 51.1082C13.909 51.0287 13.5419 50.8325 13.2538 50.5443C12.9657 50.2562 12.7695 49.8891 12.69 49.4895C12.6105 49.0898 12.6513 48.6756 12.8072 48.2991C12.9631 47.9227 13.2272 47.6009 13.566 47.3745C13.9048 47.1482 14.3031 47.0273 14.7106 47.0273C15.257 47.0273 15.781 47.2444 16.1674 47.6308C16.5538 48.0171 16.7708 48.5412 16.7708 49.0876Z" fill="white"/>
<path opacity="0.5" d="M24.9954 42.907H20.875V47.0274H24.9954V42.907Z" fill="white"/>
<path opacity="0.5" d="M41.47 61.4476V63.5079H37.3613V59.3992H39.4157C39.6862 59.3992 39.9541 59.4525 40.2041 59.556C40.454 59.6595 40.6811 59.8113 40.8725 60.0026C41.0638 60.1939 41.2155 60.421 41.3191 60.671C41.4226 60.9209 41.4759 61.1888 41.4759 61.4594" fill="white"/>
<path opacity="0.5" d="M45.5911 61.4468V63.507H41.4824V61.4468C41.461 61.164 41.4983 60.8798 41.5918 60.612C41.6854 60.3442 41.8332 60.0986 42.026 59.8906C42.2189 59.6826 42.4526 59.5167 42.7126 59.4032C42.9725 59.2898 43.2531 59.2312 43.5368 59.2312C43.8204 59.2312 44.101 59.2898 44.361 59.4032C44.6209 59.5167 44.8547 59.6826 45.0475 59.8906C45.2404 60.0986 45.3882 60.3442 45.4817 60.612C45.5753 60.8798 45.6125 61.164 45.5911 61.4468Z" fill="white"/>
<path opacity="0.5" d="M41.4769 63.5083H37.3564V67.6287H41.4769V63.5083Z" fill="white"/>
<path opacity="0.5" d="M33.2357 67.6296V71.7383H29.0977C29.0977 70.6486 29.5305 69.6036 30.3011 68.833C31.0716 68.0625 32.1166 67.6296 33.2063 67.6296" fill="white"/>
<path opacity="0.5" d="M37.3567 67.6296H33.2363V71.7501H37.3567V67.6296Z" fill="white"/>
<path opacity="0.5" d="M45.5911 67.6296H41.4707V71.7501H45.5911V67.6296Z" fill="white"/>
<path opacity="0.5" d="M29.1146 34.6665H24.9941V38.7869H29.1146V34.6665Z" fill="white"/>
<path opacity="0.5" d="M29.1146 30.5452H24.9941V34.6656H29.1146V30.5452Z" fill="white"/>
<path opacity="0.5" d="M29.1146 26.4304H24.9941V30.5508H29.1146V26.4304Z" fill="white"/>
<path opacity="0.5" d="M33.2357 34.6665H29.1152V38.7869H33.2357V34.6665Z" fill="white"/>
<path opacity="0.5" d="M33.2356 26.4304C33.2356 27.5201 32.8028 28.5652 32.0322 29.3357C31.2617 30.1062 30.2166 30.5391 29.127 30.5391V26.4304H33.2356Z" fill="white"/>
<path opacity="0.5" d="M33.2357 22.3091H29.1152V26.4295H33.2357V22.3091Z" fill="white"/>
<path opacity="0.5" d="M37.3567 34.6665H33.2363V38.7869H37.3567V34.6665Z" fill="white"/>
<path opacity="0.5" d="M37.3567 30.5452H33.2363V34.6656H37.3567V30.5452Z" fill="white"/>
<path opacity="0.5" d="M37.3558 26.4304V30.5391C36.2661 30.5391 35.221 30.1062 34.4505 29.3357C33.6799 28.5652 33.2471 27.5201 33.2471 26.4304H37.3558Z" fill="white"/>
<path opacity="0.5" d="M37.3558 22.3091V26.4178H33.2471C33.2471 25.3281 33.6799 24.283 34.4505 23.5125C35.221 22.742 36.2661 22.3091 37.3558 22.3091" fill="white"/>
<path opacity="0.5" d="M41.471 36.7262C41.471 36.9968 41.4177 37.2647 41.3142 37.5146C41.2106 37.7646 41.0589 37.9917 40.8676 38.183C40.6763 38.3743 40.4492 38.5261 40.1992 38.6296C39.9492 38.7331 39.6813 38.7864 39.4108 38.7864H37.3564V34.6777H39.4108C39.6813 34.6777 39.9492 34.731 40.1992 34.8346C40.4492 34.9381 40.6763 35.0898 40.8676 35.2812C41.0589 35.4725 41.2106 35.6996 41.3142 35.9495C41.4177 36.1995 41.471 36.4674 41.471 36.7379" fill="white"/>
<path opacity="0.5" d="M41.471 32.6058C41.471 32.8764 41.4177 33.1443 41.3142 33.3943C41.2106 33.6442 41.0589 33.8713 40.8676 34.0626C40.6763 34.2539 40.4492 34.4057 40.1992 34.5092C39.9492 34.6128 39.6813 34.6661 39.4108 34.6661H37.3564V30.5574H39.4108C39.6813 30.5574 39.9492 30.6107 40.1992 30.7142C40.4492 30.8177 40.6763 30.9695 40.8676 31.1608C41.0589 31.3521 41.2106 31.5792 41.3142 31.8292C41.4177 32.0791 41.471 32.347 41.471 32.6176" fill="white"/>
<path opacity="0.5" d="M41.471 28.4845C41.471 28.7551 41.4177 29.023 41.3142 29.2729C41.2106 29.5229 41.0589 29.75 40.8676 29.9413C40.6763 30.1326 40.4492 30.2844 40.1992 30.3879C39.9492 30.4914 39.6813 30.5447 39.4108 30.5447H37.3564V26.436H39.4108C39.9562 26.436 40.4793 26.6523 40.8655 27.0374C41.2517 27.4225 41.4694 27.945 41.471 28.4904" fill="white"/>
<path opacity="0.5" d="M45.5911 36.7267C45.5911 37.1342 45.4703 37.5325 45.2439 37.8713C45.0175 38.2101 44.6958 38.4742 44.3193 38.6301C43.9429 38.786 43.5286 38.8268 43.129 38.7473C42.7293 38.6678 42.3623 38.4716 42.0741 38.1835C41.786 37.8954 41.5898 37.5283 41.5103 37.1286C41.4308 36.729 41.4716 36.3148 41.6275 35.9383C41.7835 35.5619 42.0475 35.2401 42.3863 35.0137C42.7251 34.7873 43.1234 34.6665 43.5309 34.6665C44.0773 34.6665 44.6013 34.8836 44.9877 35.2699C45.3741 35.6563 45.5911 36.1803 45.5911 36.7267Z" fill="white"/>
<path opacity="0.5" d="M45.5911 32.6054C45.5911 33.0128 45.4703 33.4112 45.2439 33.75C45.0175 34.0888 44.6958 34.3528 44.3193 34.5088C43.9429 34.6647 43.5286 34.7055 43.129 34.626C42.7293 34.5465 42.3623 34.3503 42.0741 34.0622C41.786 33.774 41.5898 33.4069 41.5103 33.0073C41.4308 32.6077 41.4716 32.1934 41.6275 31.817C41.7835 31.4405 42.0475 31.1188 42.3863 30.8924C42.7251 30.666 43.1234 30.5452 43.5309 30.5452C44.0773 30.5452 44.6013 30.7622 44.9877 31.1486C45.3741 31.535 45.5911 32.059 45.5911 32.6054" fill="white"/>
<path opacity="0.5" d="M41.471 22.3098V24.3407C41.471 24.8876 41.2541 25.4123 40.8679 25.7996C40.4817 26.1869 39.9577 26.4052 39.4108 26.4068H37.3564V22.2981L41.471 22.3098Z" fill="white"/>
<path opacity="0.5" d="M29.1146 9.94946H24.9941V14.0699H29.1146V9.94946Z" fill="white"/>
<path opacity="0.5" d="M41.4769 5.82812H37.3564V9.94855H41.4769V5.82812Z" fill="white"/>
<path opacity="0.5" d="M45.5911 5.82812H41.4707V9.94855H45.5911V5.82812Z" fill="white"/>
<path opacity="0.5" d="M45.5911 22.3103V24.3412C45.6125 24.624 45.5753 24.9083 45.4817 25.176C45.3882 25.4438 45.2404 25.6894 45.0475 25.8974C44.8547 26.1054 44.6209 26.2713 44.361 26.3848C44.101 26.4983 43.8204 26.5568 43.5368 26.5568C43.2531 26.5568 42.9725 26.4983 42.7126 26.3848C42.4526 26.2713 42.2189 26.1054 42.026 25.8974C41.8332 25.6894 41.6854 25.4438 41.5918 25.176C41.4983 24.9083 41.461 24.624 41.4824 24.3412V22.2869L45.5911 22.3103Z" fill="white"/>
<path opacity="0.5" d="M37.3567 18.1912H33.2363V22.3116H37.3567V18.1912Z" fill="white"/>
<path opacity="0.5" d="M41.4769 18.1912H37.3564V22.3116H41.4769V18.1912Z" fill="white"/>
<path opacity="0.5" d="M45.5911 18.1912H41.4707V22.3116H45.5911V18.1912Z" fill="white"/>
<path opacity="0.5" d="M49.7112 67.6296V69.6899C49.672 70.2079 49.4386 70.692 49.0576 71.0452C48.6767 71.3984 48.1764 71.5947 47.6569 71.5947C47.1374 71.5947 46.6371 71.3984 46.2561 71.0452C45.8752 70.692 45.6417 70.2079 45.6025 69.6899V67.6296H49.7112Z" fill="white"/>
<path opacity="0.5" d="M53.8323 67.6296V69.6899C53.7931 70.2079 53.5597 70.692 53.1787 71.0452C52.7978 71.3984 52.2975 71.5947 51.778 71.5947C51.2585 71.5947 50.7582 71.3984 50.3772 71.0452C49.9963 70.692 49.7628 70.2079 49.7236 69.6899V67.6296H53.8323Z" fill="white"/>
<path opacity="0.5" d="M57.9525 67.6304V71.7391H55.8922C55.3458 71.7391 54.8218 71.522 54.4355 71.1357C54.0491 70.7493 53.832 70.2253 53.832 69.6789V67.6187L57.9525 67.6304Z" fill="white"/>
<path opacity="0.5" d="M62.0735 67.6296H57.9531V71.7501H62.0735V67.6296Z" fill="white"/>
<path opacity="0.5" d="M66.1927 67.6296H62.0723V71.7501H66.1927V67.6296Z" fill="white"/>
<path opacity="0.5" d="M45.5918 59.3879H49.7122V63.5084H45.5918" fill="white"/>
<path opacity="0.5" d="M45.5918 55.2666H49.7122V59.387H45.5918" fill="white"/>
<path opacity="0.5" d="M45.5918 51.1475H49.7122V55.2679H45.5918" fill="white"/>
<path opacity="0.5" d="M53.8323 59.3879C53.8323 60.4776 53.3994 61.5227 52.6289 62.2932C51.8584 63.0637 50.8133 63.4966 49.7236 63.4966V59.3879H53.8323Z" fill="white"/>
<path opacity="0.5" d="M53.8314 55.2666H49.7109V59.387H53.8314V55.2666Z" fill="white"/>
<path opacity="0.5" d="M53.8323 51.1475V55.2561C52.7426 55.2561 51.6976 54.8233 50.927 54.0527C50.1565 53.2822 49.7236 52.2372 49.7236 51.1475H53.8323Z" fill="white"/>
<path opacity="0.5" d="M57.9525 59.3879H53.832V63.5084H57.9525V59.3879Z" fill="white"/>
<path opacity="0.5" d="M57.9524 55.2666V59.3753C56.8627 59.3753 55.8177 58.9424 55.0472 58.1719C54.2766 57.4014 53.8438 56.3563 53.8438 55.2666H57.9524Z" fill="white"/>
<path opacity="0.5" d="M57.9525 51.1475H53.832V55.2679H57.9525V51.1475Z" fill="white"/>
<path opacity="0.5" d="M57.9525 47.0273H53.832V51.1478H57.9525V47.0273Z" fill="white"/>
<path opacity="0.5" d="M62.0735 61.4482C62.0735 61.8556 61.9527 62.2539 61.7263 62.5927C61.5 62.9315 61.1782 63.1956 60.8017 63.3515C60.4253 63.5075 60.0111 63.5483 59.6114 63.4688C59.2118 63.3893 58.8447 63.1931 58.5566 62.9049C58.2684 62.6168 58.0722 62.2497 57.9927 61.8501C57.9132 61.4504 57.954 61.0362 58.11 60.6597C58.2659 60.2833 58.5299 59.9615 58.8687 59.7351C59.2075 59.5088 59.6059 59.3879 60.0133 59.3879C60.5597 59.3879 61.0838 59.605 61.4701 59.9914C61.8565 60.3777 62.0735 60.9017 62.0735 61.4482" fill="white"/>
<path opacity="0.5" d="M62.0735 55.2666H57.9531V59.387H62.0735V55.2666Z" fill="white"/>
<path opacity="0.5" d="M62.0735 51.1475H57.9531V55.2679H62.0735V51.1475Z" fill="white"/>
<path opacity="0.5" d="M62.0735 47.0273H57.9531V51.1478H62.0735V47.0273Z" fill="white"/>
<path opacity="0.5" d="M66.1927 61.4482C66.1927 61.8556 66.0719 62.2539 65.8455 62.5927C65.6191 62.9315 65.2973 63.1956 64.9209 63.3515C64.5444 63.5075 64.1302 63.5483 63.7306 63.4688C63.3309 63.3893 62.9638 63.1931 62.6757 62.9049C62.3876 62.6168 62.1913 62.2497 62.1119 61.8501C62.0324 61.4504 62.0732 61.0362 62.2291 60.6597C62.385 60.2833 62.6491 59.9615 62.9879 59.7351C63.3267 59.5088 63.725 59.3879 64.1325 59.3879C64.6789 59.3879 65.2029 59.605 65.5893 59.9914C65.9756 60.3777 66.1927 60.9017 66.1927 61.4482" fill="white"/>
<path opacity="0.5" d="M66.1927 51.1475H62.0723V55.2679H66.1927V51.1475Z" fill="white"/>
<path opacity="0.5" d="M66.1927 49.0876C66.1927 49.495 66.0719 49.8933 65.8455 50.2321C65.6191 50.5709 65.2973 50.835 64.9209 50.9909C64.5444 51.1469 64.1302 51.1877 63.7306 51.1082C63.3309 51.0287 62.9638 50.8325 62.6757 50.5443C62.3876 50.2562 62.1913 49.8891 62.1119 49.4895C62.0324 49.0898 62.0732 48.6756 62.2291 48.2991C62.385 47.9227 62.6491 47.6009 62.9879 47.3745C63.3267 47.1482 63.725 47.0273 64.1325 47.0273C64.6789 47.0273 65.2029 47.2444 65.5893 47.6308C65.9756 48.0171 66.1927 48.5412 66.1927 49.0876Z" fill="white"/>
<path opacity="0.5" d="M45.5918 63.5083H49.7122V67.6287H45.5918" fill="white"/>
<path opacity="0.5" d="M53.8314 63.5083H49.7109V67.6287H53.8314V63.5083Z" fill="white"/>
<path opacity="0.5" d="M57.9525 63.5083H53.832V67.6287H57.9525V63.5083Z" fill="white"/>
<path opacity="0.5" d="M62.0735 65.5685C62.0735 65.976 61.9527 66.3743 61.7263 66.7131C61.5 67.0519 61.1782 67.316 60.8017 67.4719C60.4253 67.6278 60.0111 67.6686 59.6114 67.5891C59.2118 67.5096 58.8447 67.3134 58.5566 67.0253C58.2684 66.7372 58.0722 66.3701 57.9927 65.9704C57.9132 65.5708 57.954 65.1566 58.11 64.7801C58.2659 64.4036 58.5299 64.0819 58.8687 63.8555C59.2075 63.6291 59.6059 63.5083 60.0133 63.5083C60.5597 63.5083 61.0838 63.7254 61.4701 64.1117C61.8565 64.4981 62.0735 65.0221 62.0735 65.5685Z" fill="white"/>
<path opacity="0.5" d="M66.1927 63.5083V67.617H62.084C62.084 66.5273 62.5169 65.4822 63.2874 64.7117C64.0579 63.9412 65.103 63.5083 66.1927 63.5083" fill="white"/>
<path opacity="0.5" d="M70.3138 63.5083H66.1934V67.6287H70.3138V63.5083Z" fill="white"/>
<path opacity="0.5" d="M70.3138 59.3879H66.1934V63.5084H70.3138V59.3879Z" fill="white"/>
<path opacity="0.5" d="M70.3138 55.2666H66.1934V59.387H70.3138V55.2666Z" fill="white"/>
<path opacity="0.5" d="M70.3138 51.1475H66.1934V55.2679H70.3138V51.1475Z" fill="white"/>
<path opacity="0.5" d="M74.4339 63.5083H70.3135V67.6287H74.4339V63.5083Z" fill="white"/>
<path opacity="0.5" d="M74.4339 59.3879H70.3135V63.5084H74.4339V59.3879Z" fill="white"/>
<path opacity="0.5" d="M74.4339 55.2666H70.3135V59.387H74.4339V55.2666Z" fill="white"/>
<path opacity="0.5" d="M74.4339 51.1475H70.3135V55.2679H74.4339V51.1475Z" fill="white"/>
<path opacity="0.5" d="M70.3138 67.6296H66.1934V71.7501H70.3138V67.6296Z" fill="white"/>
<path opacity="0.5" d="M74.4339 67.6296V71.7383C73.3442 71.7383 72.2991 71.3054 71.5286 70.5349C70.7581 69.7644 70.3252 68.7193 70.3252 67.6296H74.4339Z" fill="white"/>
</g>
<g opacity="0.4">
<path opacity="0.5" d="M66.1927 -2.41138H62.0723V1.70904H66.1927V-2.41138Z" fill="white"/>
<path opacity="0.5" d="M70.3138 -0.351166C70.3138 0.0563052 70.193 0.454626 69.9666 0.793426C69.7402 1.13223 69.4184 1.39629 69.042 1.55222C68.6655 1.70815 68.2513 1.74895 67.8516 1.66946C67.452 1.58997 67.0849 1.39375 66.7968 1.10562C66.5087 0.817497 66.3124 0.450403 66.2329 0.0507613C66.1535 -0.348881 66.1943 -0.76312 66.3502 -1.13957C66.5061 -1.51603 66.7702 -1.83779 67.109 -2.06417C67.4478 -2.29055 67.8461 -2.41138 68.2536 -2.41138C68.8 -2.41138 69.324 -2.19432 69.7104 -1.80796C70.0967 -1.42159 70.3138 -0.897568 70.3138 -0.351166Z" fill="white"/>
<path opacity="0.5" d="M66.1927 1.70898H62.0723V5.82941H66.1927V1.70898Z" fill="white"/>
<path opacity="0.5" d="M70.3138 1.70898H66.1934V5.82941H70.3138V1.70898Z" fill="white"/>
<path opacity="0.5" d="M57.9525 14.0696H53.832V18.19H57.9525V14.0696Z" fill="white"/>
<path opacity="0.5" d="M62.0735 14.0696H57.9531V18.19H62.0735V14.0696Z" fill="white"/>
<path opacity="0.5" d="M62.0735 9.94946H57.9531V14.0699H62.0735V9.94946Z" fill="white"/>
<path opacity="0.5" d="M62.0735 5.82812V9.93681H57.9648C57.9648 8.84712 58.3977 7.80206 59.1683 7.03153C59.9388 6.261 60.9838 5.82812 62.0735 5.82812" fill="white"/>
<path opacity="0.5" d="M66.1927 14.0696H62.0723V18.19H66.1927V14.0696Z" fill="white"/>
<path opacity="0.5" d="M66.1927 9.94946H62.0723V14.0699H66.1927V9.94946Z" fill="white"/>
<path opacity="0.5" d="M66.1927 5.82812H62.0723V9.94855H66.1927V5.82812Z" fill="white"/>
<path opacity="0.5" d="M70.3138 5.82812V9.93681H66.2051C66.2051 8.84712 66.638 7.80206 67.4085 7.03153C68.179 6.261 69.2241 5.82812 70.3138 5.82812" fill="white"/>
<path opacity="0.5" d="M29.097 1.70898V5.81767H24.9883C24.9883 4.72798 25.4212 3.68292 26.1917 2.91239C26.9622 2.14186 28.0073 1.70898 29.097 1.70898V1.70898Z" fill="white"/>
<path opacity="0.5" d="M29.1146 -2.41138H24.9941V1.70904H29.1146V-2.41138Z" fill="white"/>
<path opacity="0.5" d="M37.3567 1.70898H33.2363V5.82941H37.3567V1.70898Z" fill="white"/>
<path opacity="0.5" d="M49.7112 34.6665V38.7752C48.6215 38.7752 47.5765 38.3423 46.8059 37.5718C46.0354 36.8013 45.6025 35.7562 45.6025 34.6665H49.7112Z" fill="white"/>
<path opacity="0.5" d="M49.7122 30.5452H45.5918V34.6656H49.7122V30.5452Z" fill="white"/>
<path opacity="0.5" d="M53.8323 42.907H49.7119V47.0274H53.8323V42.907Z" fill="white"/>
<path opacity="0.5" d="M53.8323 34.6665H49.7119V38.7869H53.8323V34.6665Z" fill="white"/>
<path opacity="0.5" d="M53.8323 30.5452V34.6538H49.7236C49.7236 33.5642 50.1565 32.5191 50.927 31.7486C51.6976 30.978 52.7426 30.5452 53.8323 30.5452" fill="white"/>
<path opacity="0.5" d="M57.9525 42.907H53.832V47.0274H57.9525V42.907Z" fill="white"/>
<path opacity="0.5" d="M57.9525 36.7267C57.9525 37.1342 57.8316 37.5325 57.6052 37.8713C57.3789 38.2101 57.0571 38.4742 56.6807 38.6301C56.3042 38.786 55.89 38.8268 55.4903 38.7473C55.0907 38.6678 54.7236 38.4716 54.4355 38.1835C54.1473 37.8954 53.9511 37.5283 53.8716 37.1286C53.7921 36.729 53.8329 36.3148 53.9889 35.9383C54.1448 35.5619 54.4089 35.2401 54.7477 35.0137C55.0865 34.7873 55.4848 34.6665 55.8922 34.6665C56.4386 34.6665 56.9627 34.8836 57.349 35.2699C57.7354 35.6563 57.9525 36.1803 57.9525 36.7267Z" fill="white"/>
<path opacity="0.5" d="M57.9525 30.5452H53.832V34.6656H57.9525V30.5452Z" fill="white"/>
<path opacity="0.5" d="M62.0735 40.8459C62.0735 41.2533 61.9527 41.6516 61.7263 41.9904C61.5 42.3292 61.1782 42.5933 60.8017 42.7492C60.4253 42.9052 60.0111 42.946 59.6114 42.8665C59.2118 42.787 58.8447 42.5908 58.5566 42.3026C58.2684 42.0145 58.0722 41.6474 57.9927 41.2478C57.9132 40.8481 57.954 40.4339 58.11 40.0574C58.2659 39.681 58.5299 39.3592 58.8687 39.1329C59.2075 38.9065 59.6059 38.7856 60.0133 38.7856C60.2839 38.7856 60.5518 38.8389 60.8017 38.9425C61.0517 39.046 61.2788 39.1978 61.4701 39.3891C61.6614 39.5804 61.8132 39.8075 61.9167 40.0574C62.0203 40.3074 62.0735 40.5753 62.0735 40.8459" fill="white"/>
<path opacity="0.5" d="M62.0735 36.7267C62.0735 37.1342 61.9527 37.5325 61.7263 37.8713C61.5 38.2101 61.1782 38.4742 60.8017 38.6301C60.4253 38.786 60.0111 38.8268 59.6114 38.7473C59.2118 38.6678 58.8447 38.4716 58.5566 38.1835C58.2684 37.8954 58.0722 37.5283 57.9927 37.1286C57.9132 36.729 57.954 36.3148 58.11 35.9383C58.2659 35.5619 58.5299 35.2401 58.8687 35.0137C59.2075 34.7873 59.6059 34.6665 60.0133 34.6665C60.5597 34.6665 61.0838 34.8836 61.4701 35.2699C61.8565 35.6563 62.0735 36.1803 62.0735 36.7267Z" fill="white"/>
<path opacity="0.5" d="M66.1927 36.7267C66.1927 37.1342 66.0719 37.5325 65.8455 37.8713C65.6191 38.2101 65.2973 38.4742 64.9209 38.6301C64.5444 38.786 64.1302 38.8268 63.7306 38.7473C63.3309 38.6678 62.9638 38.4716 62.6757 38.1835C62.3876 37.8954 62.1913 37.5283 62.1119 37.1286C62.0324 36.729 62.0732 36.3148 62.2291 35.9383C62.385 35.5619 62.6491 35.2401 62.9879 35.0137C63.3267 34.7873 63.725 34.6665 64.1325 34.6665C64.6789 34.6665 65.2029 34.8836 65.5893 35.2699C65.9756 35.6563 66.1927 36.1803 66.1927 36.7267Z" fill="white"/>
<path opacity="0.5" d="M66.1927 30.5452H62.0723V34.6656H66.1927V30.5452Z" fill="white"/>
<path opacity="0.5" d="M70.3138 30.5452H66.1934V34.6656H70.3138V30.5452Z" fill="white"/>
<path opacity="0.5" d="M4.39288 22.3091H0.272461V26.4295H4.39288V22.3091Z" fill="white"/>
<path opacity="0.5" d="M8.513 22.3091H4.39258V26.4295H8.513V22.3091Z" fill="white"/>
<path opacity="0.5" d="M8.513 20.2314C8.513 20.6388 8.39217 21.0371 8.16579 21.3759C7.93941 21.7147 7.61765 21.9788 7.2412 22.1347C6.86474 22.2907 6.4505 22.3315 6.05086 22.252C5.65122 22.1725 5.28413 21.9763 4.996 21.6881C4.70788 21.4 4.51166 21.0329 4.43217 20.6333C4.35267 20.2336 4.39347 19.8194 4.5494 19.4429C4.70534 19.0665 4.9694 18.7447 5.3082 18.5184C5.647 18.292 6.04532 18.1711 6.45279 18.1711C6.99919 18.1711 7.52321 18.3882 7.90958 18.7746C8.29594 19.1609 8.513 19.685 8.513 20.2314Z" fill="white"/>
<path opacity="0.5" d="M8.513 16.1244C8.513 16.5319 8.39217 16.9302 8.16579 17.269C7.93941 17.6078 7.61765 17.8719 7.2412 18.0278C6.86474 18.1837 6.4505 18.2245 6.05086 18.145C5.65122 18.0656 5.28413 17.8693 4.996 17.5812C4.70788 17.2931 4.51166 16.926 4.43217 16.5263C4.35267 16.1267 4.39347 15.7125 4.5494 15.336C4.70534 14.9596 4.9694 14.6378 5.3082 14.4114C5.647 14.185 6.04532 14.0642 6.45279 14.0642C6.99919 14.0642 7.52321 14.2813 7.90958 14.6676C8.29594 15.054 8.513 15.578 8.513 16.1244Z" fill="white"/>
<path opacity="0.5" d="M12.6341 22.3091H8.51367V26.4295H12.6341V22.3091Z" fill="white"/>
<path opacity="0.5" d="M12.6341 18.1912H8.51367V22.3116H12.6341V18.1912Z" fill="white"/>
<path opacity="0.5" d="M12.6341 14.0696H8.51367V18.19H12.6341V14.0696Z" fill="white"/>
<path opacity="0.5" d="M12.6341 26.4248H8.51367V30.5452H12.6341V26.4248Z" fill="white"/>
<path opacity="0.5" d="M16.7542 26.4248H12.6338V30.5452H16.7542V26.4248Z" fill="white"/>
<path opacity="0.5" d="M24.9954 30.5452H20.875V34.6656H24.9954V30.5452Z" fill="white"/>
<path opacity="0.5" d="M24.9887 14.0701V18.1788H22.9344C22.6515 18.2002 22.3673 18.1629 22.0995 18.0694C21.8318 17.9758 21.5862 17.828 21.3782 17.6352C21.1702 17.4423 21.0043 17.2086 20.8908 16.9486C20.7773 16.6887 20.7188 16.4081 20.7188 16.1244C20.7188 15.8408 20.7773 15.5602 20.8908 15.3002C21.0043 15.0403 21.1702 14.8065 21.3782 14.6137C21.5862 14.4208 21.8318 14.273 22.0995 14.1795C22.3673 14.0859 22.6515 14.0487 22.9344 14.0701H24.9887Z" fill="white"/>
<path opacity="0.5" d="M16.7542 34.6665H12.6338V38.7869H16.7542V34.6665Z" fill="white"/>
<path opacity="0.5" d="M74.4339 14.0696H70.3135V18.19H74.4339V14.0696Z" fill="white"/>
<path opacity="0.5" d="M74.4339 9.94946H70.3135V14.0699H74.4339V9.94946Z" fill="white"/>
<path opacity="0.5" d="M74.4339 18.1912H70.3135V22.3116H74.4339V18.1912Z" fill="white"/>
<path opacity="0.5" d="M74.4339 30.5452H70.3135V34.6656H74.4339V30.5452Z" fill="white"/>
<path opacity="0.5" d="M74.4339 22.3091H70.3135V26.4295H74.4339V22.3091Z" fill="white"/>
<path opacity="0.5" d="M74.4339 1.70898H70.3135V5.82941H74.4339V1.70898Z" fill="white"/>
<path opacity="0.5" d="M62.0735 1.70898H57.9531V5.82941H62.0735V1.70898Z" fill="white"/>
<path opacity="0.5" d="M62.0735 -2.41138H57.9531V1.70904H62.0735V-2.41138Z" fill="white"/>
<path opacity="0.5" d="M49.7122 7.90714C49.7122 8.31461 49.5914 8.71293 49.365 9.05173C49.1386 9.39053 48.8169 9.65459 48.4404 9.81052C48.064 9.96645 47.6497 10.0073 47.2501 9.92776C46.8504 9.84827 46.4833 9.65205 46.1952 9.36392C45.9071 9.0758 45.7109 8.7087 45.6314 8.30906C45.5519 7.90942 45.5927 7.49518 45.7486 7.11873C45.9046 6.74227 46.1686 6.42051 46.5074 6.19413C46.8462 5.96775 47.2445 5.84692 47.652 5.84692C48.1984 5.84692 48.7224 6.06398 49.1088 6.45035C49.4952 6.83671 49.7122 7.36073 49.7122 7.90714Z" fill="white"/>
<path opacity="0.5" d="M49.7122 1.70898H45.5918V5.82941H49.7122V1.70898Z" fill="white"/>
<path opacity="0.5" d="M49.7112 -2.41138V1.69731C48.6215 1.69731 47.5765 1.26443 46.8059 0.493901C46.0354 -0.276627 45.6025 -1.32169 45.6025 -2.41138H49.7112Z" fill="white"/>
<path opacity="0.5" d="M53.8323 5.82812H49.7119V9.94855H53.8323V5.82812Z" fill="white"/>
<path opacity="0.5" d="M53.8323 1.70898H49.7119V5.82941H53.8323V1.70898Z" fill="white"/>
<path opacity="0.5" d="M53.8323 -2.41138H49.7119V1.70904H53.8323V-2.41138Z" fill="white"/>
<path opacity="0.5" d="M57.9525 5.82812H53.832V9.94855H57.9525V5.82812Z" fill="white"/>
<path opacity="0.5" d="M57.9525 1.70898H53.832V5.82941H57.9525V1.70898Z" fill="white"/>
<path opacity="0.5" d="M57.9525 -2.41138H53.832V1.70904H57.9525V-2.41138Z" fill="white"/>
<path opacity="0.5" d="M49.7122 9.94946H45.5918V14.0699H49.7122V9.94946Z" fill="white"/>
<path opacity="0.5" d="M53.8323 9.94946H49.7119V14.0699H53.8323V9.94946Z" fill="white"/>
<path opacity="0.5" d="M0.271658 -2.41138V1.69731H-1.78855C-2.30657 1.65812 -2.79067 1.42468 -3.14388 1.04373C-3.4971 0.662788 -3.69336 0.162465 -3.69336 -0.357035C-3.69336 -0.876536 -3.4971 -1.37686 -3.14388 -1.7578C-2.79067 -2.13875 -2.30657 -2.37219 -1.78855 -2.41138H0.271658Z" fill="white"/>
<path opacity="0.5" d="M0.271658 1.70898V5.81767H-1.78855C-2.30657 5.77848 -2.79067 5.54504 -3.14388 5.16409C-3.4971 4.78315 -3.69336 4.28283 -3.69336 3.76333C-3.69336 3.24383 -3.4971 2.7435 -3.14388 2.36256C-2.79067 1.98161 -2.30657 1.74817 -1.78855 1.70898H0.271658Z" fill="white"/>
<path opacity="0.5" d="M0.272767 9.94946V12.0155C0.272767 12.423 0.151938 12.8213 -0.0744413 13.1601C-0.30082 13.4989 -0.622581 13.763 -0.999036 13.9189C-1.37549 14.0749 -1.78973 14.1157 -2.18937 14.0362C-2.58901 13.9567 -2.95611 13.7605 -3.24423 13.4723C-3.53236 13.1842 -3.72858 12.8171 -3.80807 12.4175C-3.88756 12.0178 -3.84676 11.6036 -3.69083 11.2271C-3.5349 10.8507 -3.27084 10.5289 -2.93204 10.3025C-2.59324 10.0762 -2.19492 9.95533 -1.78744 9.95533L0.272767 9.94946Z" fill="white"/>
<path opacity="0.5" d="M0.272766 5.82812V9.93681H-1.78745C-2.3288 9.93686 -2.84842 9.72384 -3.23396 9.3438C-3.61949 8.96376 -3.83994 8.44725 -3.84766 7.90595V7.90595C-3.84766 7.35954 -3.6306 6.83552 -3.24423 6.44916C-2.85787 6.06279 -2.33385 5.84573 -1.78745 5.84573L0.272766 5.82812Z" fill="white"/>
<path opacity="0.5" d="M0.272767 28.4906C0.272767 28.8981 0.151938 29.2964 -0.0744413 29.6352C-0.30082 29.974 -0.622581 30.2381 -0.999036 30.394C-1.37549 30.5499 -1.78973 30.5907 -2.18937 30.5113C-2.58901 30.4318 -2.95611 30.2355 -3.24423 29.9474C-3.53236 29.6593 -3.72858 29.2922 -3.80807 28.8926C-3.88756 28.4929 -3.84676 28.0787 -3.69083 27.7022C-3.5349 27.3258 -3.27084 27.004 -2.93204 26.7776C-2.59324 26.5512 -2.19492 26.4304 -1.78744 26.4304C-1.24104 26.4304 -0.71702 26.6475 -0.330655 27.0338C0.0557094 27.4202 0.272767 27.9442 0.272767 28.4906" fill="white"/>
<path opacity="0.5" d="M8.513 -2.41138H4.39258V1.70904H8.513V-2.41138Z" fill="white"/>
<path opacity="0.5" d="M12.6341 1.70898H8.51367V5.82941H12.6341V1.70898Z" fill="white"/>
<path opacity="0.5" d="M12.6341 -2.41138H8.51367V1.70904H12.6341V-2.41138Z" fill="white"/>
<path opacity="0.5" d="M16.7542 -2.41138H12.6338V1.70904H16.7542V-2.41138Z" fill="white"/>
<path opacity="0.5" d="M49.7122 16.1244C49.7122 16.5319 49.5914 16.9302 49.365 17.269C49.1386 17.6078 48.8169 17.8719 48.4404 18.0278C48.064 18.1837 47.6497 18.2245 47.2501 18.145C46.8504 18.0656 46.4833 17.8693 46.1952 17.5812C45.9071 17.2931 45.7109 16.926 45.6314 16.5263C45.5519 16.1267 45.5927 15.7125 45.7486 15.336C45.9046 14.9596 46.1686 14.6378 46.5074 14.4114C46.8462 14.185 47.2445 14.0642 47.652 14.0642C48.1984 14.0642 48.7224 14.2813 49.1088 14.6676C49.4952 15.054 49.7122 15.578 49.7122 16.1244Z" fill="white"/>
<path opacity="0.5" d="M0.272745 30.5508V34.6595H-3.83594C-3.83594 33.5698 -3.40306 32.5247 -2.63253 31.7542C-1.862 30.9837 -0.816945 30.5508 0.272745 30.5508" fill="white"/>
<path opacity="0.5" d="M8.51298 30.5452C8.51298 31.6349 8.0801 32.6799 7.30957 33.4504C6.53905 34.221 5.49399 34.6538 4.4043 34.6538V30.5452H8.51298Z" fill="white"/>
<path opacity="0.5" d="M12.6341 30.5452H8.51367V34.6656H12.6341V30.5452Z" fill="white"/>
<path opacity="0.5" d="M4.39288 34.6665H0.272461V38.7869H4.39288V34.6665Z" fill="white"/>
<path opacity="0.5" d="M12.6341 34.6665H8.51367V38.7869H12.6341V34.6665Z" fill="white"/>
<path opacity="0.5" d="M16.7542 42.907H12.6338V47.0274H16.7542V42.907Z" fill="white"/>
<path opacity="0.5" d="M20.8743 51.1487H16.7539V55.2691H20.8743V51.1487Z" fill="white"/>
<path opacity="0.5" d="M24.9954 51.1487H20.875V55.2691H24.9954V51.1487Z" fill="white"/>
<path opacity="0.5" d="M20.8743 47.0273H16.7539V51.1478H20.8743V47.0273Z" fill="white"/>
<path opacity="0.5" d="M24.9954 47.0273H20.875V51.1478H24.9954V47.0273Z" fill="white"/>
<path opacity="0.5" d="M20.8743 42.907H16.7539V47.0274H20.8743V42.907Z" fill="white"/>
<path opacity="0.5" d="M45.5911 63.5083H41.4707V67.6287H45.5911V63.5083Z" fill="white"/>
<path opacity="0.5" d="M29.1146 59.3879H24.9941V63.5084H29.1146V59.3879Z" fill="white"/>
<path opacity="0.5" d="M33.2357 61.4482C33.2357 61.8556 33.1148 62.2539 32.8884 62.5927C32.6621 62.9315 32.3403 63.1956 31.9639 63.3515C31.5874 63.5075 31.1732 63.5483 30.7735 63.4688C30.3739 63.3893 30.0068 63.1931 29.7187 62.9049C29.4305 62.6168 29.2343 62.2497 29.1548 61.8501C29.0753 61.4504 29.1161 61.0362 29.2721 60.6597C29.428 60.2833 29.6921 59.9615 30.0309 59.7351C30.3697 59.5088 30.768 59.3879 31.1754 59.3879C31.7218 59.3879 32.2459 59.605 32.6322 59.9914C33.0186 60.3777 33.2357 60.9017 33.2357 61.4482" fill="white"/>
<path opacity="0.5" d="M37.3567 61.4482C37.3567 61.8556 37.2359 62.2539 37.0095 62.5927C36.7832 62.9315 36.4614 63.1956 36.0849 63.3515C35.7085 63.5075 35.2943 63.5483 34.8946 63.4688C34.495 63.3893 34.1279 63.1931 33.8397 62.9049C33.5516 62.6168 33.3554 62.2497 33.2759 61.8501C33.1964 61.4504 33.2372 61.0362 33.3932 60.6597C33.5491 60.2833 33.8131 59.9615 34.1519 59.7351C34.4907 59.5088 34.8891 59.3879 35.2965 59.3879C35.8429 59.3879 36.367 59.605 36.7533 59.9914C37.1397 60.3777 37.3567 60.9017 37.3567 61.4482" fill="white"/>
<path opacity="0.5" d="M29.1146 63.5083H24.9941V67.6287H29.1146V63.5083Z" fill="white"/>
<path opacity="0.5" d="M37.3558 63.5083V67.617H33.2471C33.2471 66.5273 33.6799 65.4822 34.4505 64.7117C35.221 63.9412 36.2661 63.5083 37.3558 63.5083" fill="white"/>
<path opacity="0.5" d="M29.097 67.6296C29.097 68.7193 28.6641 69.7644 27.8936 70.5349C27.123 71.3054 26.078 71.7383 24.9883 71.7383V67.6296H29.097Z" fill="white"/>
<path opacity="0.5" d="M41.4769 67.6296H37.3564V71.7501H41.4769V67.6296Z" fill="white"/>
<path opacity="0.5" d="M29.097 22.3091V26.4178C28.0073 26.4178 26.9622 25.9849 26.1917 25.2144C25.4212 24.4438 24.9883 23.3988 24.9883 22.3091H29.097Z" fill="white"/>
<path opacity="0.5" d="M29.097 16.1244C29.097 16.5319 28.9762 16.9302 28.7498 17.269C28.5234 17.6078 28.2016 17.8719 27.8252 18.0278C27.4487 18.1837 27.0345 18.2245 26.6348 18.145C26.2352 18.0656 25.8681 17.8693 25.58 17.5812C25.2919 17.2931 25.0956 16.926 25.0162 16.5263C24.9367 16.1267 24.9775 15.7125 25.1334 15.336C25.2893 14.9596 25.5534 14.6378 25.8922 14.4114C26.231 14.185 26.6293 14.0642 27.0368 14.0642C27.5832 14.0642 28.1072 14.2813 28.4936 14.6676C28.8799 15.054 29.097 15.578 29.097 16.1244Z" fill="white"/>
<path opacity="0.5" d="M33.2357 16.1244C33.2357 16.5319 33.1148 16.9302 32.8884 17.269C32.6621 17.6078 32.3403 17.8719 31.9639 18.0278C31.5874 18.1837 31.1732 18.2245 30.7735 18.145C30.3739 18.0656 30.0068 17.8693 29.7187 17.5812C29.4305 17.2931 29.2343 16.926 29.1548 16.5263C29.0753 16.1267 29.1161 15.7125 29.2721 15.336C29.428 14.9596 29.6921 14.6378 30.0309 14.4114C30.3697 14.185 30.768 14.0642 31.1754 14.0642C31.7214 14.0658 32.2445 14.2833 32.6305 14.6693C33.0166 15.0554 33.2341 15.5785 33.2357 16.1244Z" fill="white"/>
<path opacity="0.5" d="M33.2357 9.94946H29.1152V14.0699H33.2357V9.94946Z" fill="white"/>
<path opacity="0.5" d="M37.3567 14.0696H33.2363V18.19H37.3567V14.0696Z" fill="white"/>
<path opacity="0.5" d="M37.3567 9.94946H33.2363V14.0699H37.3567V9.94946Z" fill="white"/>
<path opacity="0.5" d="M41.4769 14.0696H37.3564V18.19H41.4769V14.0696Z" fill="white"/>
<path opacity="0.5" d="M41.47 9.94946V14.0581C40.3803 14.0581 39.3353 13.6253 38.5647 12.8547C37.7942 12.0842 37.3613 11.0392 37.3613 9.94946H41.47Z" fill="white"/>
<path opacity="0.5" d="M45.5911 9.94946H41.4707V14.0699H45.5911V9.94946Z" fill="white"/>
<path opacity="0.5" d="M29.097 22.3108H24.9883V18.2021C26.078 18.2021 27.123 18.635 27.8936 19.4056C28.6641 20.1761 29.097 21.2211 29.097 22.3108Z" fill="white"/>
<path opacity="0.5" d="M33.2357 20.2314C33.2357 20.6388 33.1148 21.0371 32.8884 21.3759C32.6621 21.7147 32.3403 21.9788 31.9639 22.1347C31.5874 22.2907 31.1732 22.3315 30.7735 22.252C30.3739 22.1725 30.0068 21.9763 29.7187 21.6881C29.4305 21.4 29.2343 21.0329 29.1548 20.6333C29.0753 20.2336 29.1161 19.8194 29.2721 19.4429C29.428 19.0665 29.6921 18.7447 30.0309 18.5184C30.3697 18.292 30.768 18.1711 31.1754 18.1711C31.7214 18.1727 32.2445 18.3902 32.6305 18.7763C33.0166 19.1623 33.2341 19.6854 33.2357 20.2314" fill="white"/>
<path opacity="0.5" d="M74.4339 47.0273H70.3135V51.1478H74.4339V47.0273Z" fill="white"/>
<path opacity="0.5" d="M70.3138 49.0876C70.3138 49.495 70.193 49.8933 69.9666 50.2321C69.7402 50.5709 69.4184 50.835 69.042 50.9909C68.6655 51.1469 68.2513 51.1877 67.8516 51.1082C67.452 51.0287 67.0849 50.8325 66.7968 50.5443C66.5087 50.2562 66.3124 49.8891 66.2329 49.4895C66.1535 49.0898 66.1943 48.6756 66.3502 48.2991C66.5061 47.9227 66.7702 47.6009 67.109 47.3745C67.4478 47.1482 67.8461 47.0273 68.2536 47.0273C68.8 47.0273 69.324 47.2444 69.7104 47.6308C70.0967 48.0171 70.3138 48.5412 70.3138 49.0876Z" fill="white"/>
</g>
<path d="M25.1007 28.4494L22.3596 26.6885C22.2186 26.5949 22.0535 26.5439 21.8842 26.5417H21.6905C21.5664 26.5657 21.4493 26.6171 21.3477 26.6923C21.2461 26.7674 21.1627 26.8644 21.1035 26.9761L14.0601 37.9815C13.9885 38.0859 13.9387 38.2036 13.9135 38.3276C13.8883 38.4516 13.8882 38.5794 13.9133 38.7035C13.9304 38.83 13.9792 38.9501 14.0551 39.0527C14.131 39.1554 14.2317 39.2371 14.3477 39.2904L17.0888 41.0513C17.193 41.1231 17.3107 41.1732 17.4348 41.1984C17.5588 41.2236 17.6867 41.2235 17.8107 41.198C17.9366 41.1789 18.0558 41.1294 18.1581 41.0537C18.2604 40.978 18.3427 40.8784 18.3977 40.7637L25.4411 29.7583C25.5079 29.6508 25.5521 29.5309 25.5711 29.4059C25.5901 29.2808 25.5835 29.1532 25.5517 29.0308C25.5198 28.9084 25.4634 28.7937 25.3859 28.6938C25.3084 28.5938 25.2113 28.5106 25.1007 28.4494V28.4494ZM18.1336 38.4687C17.9593 38.721 17.7049 38.9072 17.4116 38.9969C17.3177 38.9969 17.2649 39.0498 17.1709 39.0498C16.9474 39.059 16.7276 38.9906 16.5488 38.8561C16.3852 38.7936 16.2377 38.6954 16.117 38.5686C15.9963 38.4418 15.9054 38.2896 15.8512 38.1232C15.7969 37.9567 15.7806 37.7802 15.8033 37.6066C15.8261 37.4331 15.8874 37.2668 15.9827 37.1199C16.0781 36.9731 16.2051 36.8495 16.3544 36.7581C16.5037 36.6666 16.6716 36.6098 16.8457 36.5917C17.0198 36.5735 17.1958 36.5946 17.3608 36.6533C17.5257 36.712 17.6754 36.8068 17.799 36.9308C18.0482 37.1083 18.2335 37.3615 18.3272 37.6528C18.3507 37.7948 18.3456 37.9401 18.3123 38.0802C18.2791 38.2203 18.2183 38.3523 18.1336 38.4687V38.4687Z" fill="white"/>
<path d="M59.4189 37.9421L52.3754 26.9837C52.2369 26.7744 52.0291 26.6207 51.7885 26.5493H51.6359C51.4502 26.553 51.2685 26.6035 51.1076 26.6961L48.3665 28.4569C48.2624 28.5232 48.1724 28.6093 48.1016 28.7104C48.0308 28.8114 47.9806 28.9254 47.9539 29.0459C47.9272 29.1664 47.9245 29.2909 47.9459 29.4124C47.9674 29.534 48.0126 29.65 48.0789 29.7541L55.1224 40.7125C55.1881 40.8172 55.2739 40.9078 55.375 40.9791C55.476 41.0503 55.5901 41.1008 55.7108 41.1275C55.8315 41.1543 55.9563 41.1568 56.078 41.1349C56.1996 41.1131 56.3157 41.0673 56.4195 41.0001L59.1606 39.2393C59.3661 39.1008 59.5085 38.8868 59.5568 38.6439C59.6052 38.4009 59.5556 38.1487 59.4189 37.9421ZM56.9185 38.8108C56.7294 38.9229 56.5158 38.9874 56.2963 38.9986C56.2132 39.0061 56.1298 38.9898 56.0556 38.9517C55.9029 38.9246 55.7585 38.8629 55.6333 38.7713C55.5082 38.6798 55.4057 38.5607 55.3337 38.4234C55.2517 38.2972 55.1968 38.1553 55.1726 38.0068C55.1483 37.8583 55.1552 37.7063 55.1928 37.5606C55.2199 37.4079 55.2816 37.2634 55.3731 37.1383C55.4647 37.0132 55.5837 36.9106 55.7211 36.8386C55.9776 36.6802 56.2853 36.6265 56.5804 36.6888C56.8754 36.7511 57.1352 36.9246 57.3058 37.1732C57.454 37.446 57.4964 37.7639 57.4249 38.066C57.3535 38.3681 57.1732 38.6333 56.9185 38.8108V38.8108Z" fill="white"/>
<path d="M48.1732 42.0792L47.2928 41.0169C44.5048 37.8943 40.5604 35.5875 38.9287 34.6719L38.2067 35.7812C37.923 36.2274 37.5036 36.5708 37.0102 36.761C36.5168 36.9512 35.9755 36.9781 35.4657 36.8377H35.3717C34.7766 36.6452 34.2744 36.238 33.963 35.6955C33.6516 35.153 33.5533 34.514 33.6872 33.903C33.9158 32.835 34.3226 31.8131 34.8904 30.8801L33.7165 30.6865C32.8592 30.5846 31.9907 30.7334 31.2161 31.1149L30.5 31.5023C30.0461 31.7496 29.5422 31.8913 29.0259 31.9167C28.5096 31.9421 27.9943 31.8506 27.5183 31.6491L26.0744 31.021L20.3457 40.0073L22.4118 41.4042L23.5153 40.3008C23.9655 39.8591 24.5692 39.6088 25.1998 39.6023C25.7795 39.6146 26.3354 39.8347 26.7664 40.2225C27.1973 40.6104 27.4746 41.1402 27.5476 41.7153C27.9394 41.6214 28.3487 41.6298 28.7362 41.7398C29.1238 41.8498 29.4765 42.0576 29.7605 42.3434C30.1931 42.7948 30.4331 43.3968 30.4296 44.0221C30.4397 44.184 30.4239 44.3465 30.3826 44.5034C30.8905 44.5484 31.3663 44.7708 31.7268 45.1314H31.7796C32.0633 45.4154 32.2695 45.7674 32.3784 46.1538C32.4873 46.5401 32.4954 46.948 32.4018 47.3384C32.9282 47.383 33.4215 47.614 33.7928 47.9899V48.0368C34.2296 48.4884 34.4719 49.0932 34.4678 49.7214C34.4629 50.2395 34.2944 50.7428 33.9865 51.1594L35.1604 52.6033C35.4615 52.8854 35.861 53.0384 36.2735 53.0296C36.6859 53.0208 37.0786 52.851 37.3674 52.5564C37.6635 52.2616 37.8357 51.8647 37.8487 51.447C37.8515 51.052 37.6974 50.672 37.4202 50.3905L36.9389 49.9092C36.8221 49.7772 36.7577 49.6071 36.7577 49.4309C36.7577 49.2546 36.8221 49.0845 36.9389 48.9525C37.0724 48.8365 37.2433 48.7726 37.4202 48.7726C37.5971 48.7726 37.768 48.8365 37.9015 48.9525L38.8113 49.8623C38.9592 50.0115 39.1352 50.13 39.3291 50.2108C39.523 50.2917 39.7311 50.3333 39.9412 50.3333C40.1513 50.3333 40.3593 50.2917 40.5533 50.2108C40.7472 50.13 40.9232 50.0115 41.0711 49.8623L41.118 49.8153C41.3986 49.5152 41.5547 49.1197 41.5547 48.7089C41.5547 48.2981 41.3986 47.9026 41.118 47.6025L40.1085 46.5929C39.988 46.4628 39.9211 46.2919 39.9211 46.1146C39.9211 45.9372 39.988 45.7664 40.1085 45.6362C40.242 45.5202 40.4129 45.4563 40.5898 45.4563C40.7667 45.4563 40.9376 45.5202 41.0711 45.6362L42.515 47.0742C42.6604 47.2169 42.8331 47.3288 43.0226 47.4034C43.2122 47.4781 43.4148 47.5138 43.6185 47.5086V47.5086C43.8221 47.5138 44.0247 47.4781 44.2143 47.4034C44.4039 47.3288 44.5765 47.2169 44.7219 47.0742C45.0172 46.7812 45.1893 46.3865 45.2032 45.9708C45.1917 45.5677 45.0354 45.1822 44.763 44.8849L43.2252 43.3471C43.1602 43.2855 43.1092 43.2106 43.0758 43.1276C43.0424 43.0445 43.0273 42.9552 43.0315 42.8658C43.0247 42.7761 43.0387 42.686 43.0723 42.6025C43.1059 42.5191 43.1582 42.4445 43.2252 42.3845C43.3572 42.2677 43.5273 42.2032 43.7036 42.2032C43.8798 42.2032 44.0499 42.2677 44.1819 42.3845L46.0602 44.2568C46.2233 44.4232 46.4178 44.5556 46.6324 44.6463C46.847 44.737 47.0774 44.7841 47.3104 44.7851H47.3574C47.5654 44.7819 47.7707 44.7372 47.9612 44.6535C48.1517 44.5699 48.3236 44.449 48.4667 44.2979C48.6053 44.1592 48.715 43.9944 48.7895 43.8131C48.8641 43.6318 48.902 43.4375 48.9011 43.2414C48.8937 43.0427 48.8621 42.8456 48.8071 42.6545C48.5545 42.5139 48.3376 42.3171 48.1732 42.0792V42.0792Z" fill="white"/>
<path d="M41.3009 30.7331L39.135 30.0111C38.6413 29.8488 38.1084 29.8502 37.6155 30.0152C37.1227 30.1801 36.6963 30.4999 36.3998 30.9268L36.3 31.0677C35.6755 32.0008 35.2352 33.0448 35.0029 34.1433C34.9463 34.4355 34.9978 34.7383 35.1479 34.9953C35.298 35.2523 35.5364 35.446 35.8187 35.5403C36.051 35.6093 36.2996 35.5995 36.5258 35.5125C36.7519 35.4254 36.9429 35.2659 37.069 35.059L38.1313 33.4272C38.1965 33.3328 38.2845 33.2564 38.3871 33.2051C38.4897 33.1538 38.6037 33.1293 38.7183 33.1337C38.8171 33.1268 38.916 33.145 39.0059 33.1866C39.2935 33.3274 46.5541 36.9313 49.9174 42.1728L53.2806 40.2476L47.3583 31.0677C45.3467 31.5137 43.2511 31.398 41.3009 30.7331V30.7331Z" fill="white"/>
<path d="M32.843 49.0449C32.6476 48.8608 32.3895 48.758 32.121 48.7573C31.8384 48.7575 31.5654 48.8596 31.3521 49.0449L29.7673 50.6297C29.6645 50.7248 29.5825 50.8401 29.5264 50.9684C29.4704 51.0966 29.4414 51.2351 29.4414 51.3751C29.4414 51.5151 29.4704 51.6536 29.5264 51.7819C29.5825 51.9102 29.6645 52.0255 29.7673 52.1206C29.9692 52.3079 30.2344 52.4119 30.5098 52.4119C30.7852 52.4119 31.0504 52.3079 31.2523 52.1206L32.843 50.5358C33.0331 50.3254 33.136 50.0504 33.1306 49.7669C33.1481 49.632 33.1309 49.4949 33.0806 49.3685C33.0302 49.2422 32.9484 49.1308 32.843 49.0449Z" fill="white"/>
<path d="M30.8234 46.2114C30.6146 46.0186 30.3385 45.9154 30.0545 45.9238C29.7719 45.924 29.4989 46.0261 29.2856 46.2114L27.2664 48.2306C27.0751 48.4379 26.9719 48.7115 26.9788 48.9936C26.979 49.2762 27.0812 49.5492 27.2664 49.7625C27.4712 49.9465 27.7367 50.0482 28.0119 50.0482C28.2871 50.0482 28.5526 49.9465 28.7573 49.7625L30.7764 47.7434C30.8849 47.6489 30.9727 47.5329 31.0343 47.4029C31.0959 47.2729 31.13 47.1315 31.1344 46.9877C31.1388 46.8438 31.1135 46.7006 31.0599 46.5671C31.0064 46.4335 30.9259 46.3124 30.8234 46.2114V46.2114Z" fill="white"/>
<path d="M29.139 44.0985C29.1387 43.816 29.0366 43.543 28.8513 43.3296C28.6431 43.1352 28.3672 43.0299 28.0824 43.0361C27.7991 43.038 27.526 43.1422 27.3135 43.3296L24.9129 45.7303C24.7185 45.9385 24.6132 46.2144 24.6194 46.4992C24.6212 46.7825 24.7255 47.0556 24.9129 47.2681C25.1148 47.4554 25.38 47.5595 25.6554 47.5595C25.9308 47.5595 26.196 47.4554 26.3979 47.2681L28.8044 44.8851C28.9137 44.7859 29.0002 44.6643 29.0579 44.5285C29.1157 44.3927 29.1433 44.246 29.139 44.0985V44.0985Z" fill="white"/>
<path d="M25.9691 41.3097C25.7656 41.1022 25.4905 40.9805 25.2001 40.9692C24.9181 40.972 24.6459 41.0738 24.4312 41.2568L22.4121 43.276C22.2193 43.4848 22.1161 43.7608 22.1245 44.0449C22.1247 44.3274 22.2268 44.6005 22.4121 44.8138C22.6206 45.0071 22.8969 45.1105 23.181 45.1014C23.4636 45.1012 23.7366 44.9991 23.9499 44.8138L25.9691 42.7947C26.1538 42.5915 26.2562 42.3268 26.2562 42.0522C26.2562 41.7776 26.1538 41.5128 25.9691 41.3097V41.3097Z" fill="white"/>
</g>
</svg>
