<svg width="196" height="746" viewBox="0 0 196 746" fill="none" xmlns="http://www.w3.org/2000/svg">
<rect opacity="0.1" x="2" y="361" width="192" height="385" fill="url(#paint0_linear)"/>
<rect opacity="0.2" x="27" y="361" width="143" height="385" fill="url(#paint1_linear)"/>
<rect opacity="0.3" x="49" y="361" width="91" height="385" fill="url(#paint2_linear)"/>
<path opacity="0.3" d="M94.0007 729.583L53 384.157C53 321.281 132.917 321.281 132.917 384.157L94.0007 729.583Z" fill="url(#paint3_linear)"/>
<path opacity="0.4" d="M93.7579 639.589L62.334 373.347C62.334 324.884 123.584 324.884 123.584 373.347L93.7579 639.589Z" fill="url(#paint4_linear)"/>
<path opacity="0.6" d="M93.4529 522.205L74 359.247C74 329.584 111.917 329.584 111.917 359.247L93.4529 522.205Z" fill="url(#paint5_linear)"/>
<path d="M103.728 94.5994H92.1895V106.138H103.728V94.5994Z" fill="#3CA3D6"/>
<path d="M80.6454 106.138H92.1663V117.659C89.1061 117.659 86.1713 116.443 84.0074 114.279C81.8436 112.116 80.6279 109.181 80.6279 106.121V106.121L80.6454 106.138Z" fill="#3CA3D6"/>
<path d="M103.728 106.138H92.1895V117.677H103.728V106.138Z" fill="#3CA3D6"/>
<path d="M92.1663 117.658V129.196H80.6455C80.6455 126.139 81.8587 123.207 84.0188 121.044C86.1789 118.88 89.1092 117.663 92.1663 117.658V117.658Z" fill="#3CA3D6"/>
<path d="M103.728 123.451C103.728 120.265 101.145 117.682 97.9586 117.682C94.7724 117.682 92.1895 120.265 92.1895 123.451C92.1895 126.637 94.7724 129.22 97.9586 129.22C101.145 129.22 103.728 126.637 103.728 123.451Z" fill="#3CA3D6"/>
<path d="M92.1838 129.22H80.6455V140.758H92.1838V129.22Z" fill="#3CA3D6"/>
<path d="M103.728 140.758H92.1895V152.297H103.728V140.758Z" fill="#3CA3D6"/>
<path d="M80.6455 152.302C83.7026 152.307 86.633 153.525 88.793 155.688C90.9531 157.852 92.1663 160.784 92.1663 163.841V163.841H80.6455V152.302Z" fill="#3CA3D6"/>
<path d="M115.267 106.138C118.325 106.137 121.258 107.349 123.423 109.509C125.588 111.67 126.806 114.601 126.811 117.659V117.659H115.267V106.138Z" fill="#3CA3D6"/>
<path d="M103.728 163.841H92.1895V175.379H103.728V163.841Z" fill="#3CA3D6"/>
<path d="M103.728 163.841H109.497C111.027 163.841 112.494 164.449 113.576 165.531C114.658 166.612 115.266 168.08 115.266 169.61V175.408H103.728V163.841Z" fill="#5CC7F2"/>
<path d="M121.042 163.841C122.572 163.841 124.039 164.449 125.121 165.531C126.203 166.612 126.811 168.08 126.811 169.61V175.408H115.267V169.639C115.263 168.879 115.409 168.125 115.698 167.421C115.987 166.717 116.411 166.078 116.948 165.539C117.485 165 118.123 164.572 118.825 164.281C119.528 163.99 120.281 163.84 121.042 163.841V163.841Z" fill="#3CA3D6"/>
<path d="M92.166 175.409H103.704V186.947C100.644 186.947 97.7094 185.732 95.5455 183.568C93.3817 181.404 92.166 178.469 92.166 175.409V175.409Z" fill="#5CC7F2"/>
<path d="M115.266 175.38H103.728V186.918H115.266V175.38Z" fill="#3CA3D6"/>
<path d="M126.805 175.38H115.267V186.918H126.805V175.38Z" fill="#3CA3D6"/>
<path d="M103.728 186.924V198.462H92.166C92.166 196.945 92.4652 195.443 93.0465 194.042C93.6279 192.64 94.4799 191.367 95.5538 190.295C96.6277 189.224 97.9024 188.374 99.305 187.796C100.708 187.217 102.21 186.921 103.728 186.924V186.924Z" fill="#3CA3D6"/>
<path d="M103.728 186.924C106.788 186.924 109.723 188.14 111.886 190.304C114.05 192.467 115.266 195.402 115.266 198.462V198.462H103.728V186.924Z" fill="#3CA3D6"/>
<path d="M126.805 186.924H115.267V198.462H126.805V186.924Z" fill="#5CC7F2"/>
<path d="M103.728 198.461H92.1895V210H103.728V198.461Z" fill="#3CA3D6"/>
<path d="M115.266 198.461H103.728V210H115.266V198.461Z" fill="#5CC7F2"/>
<path d="M103.728 210H92.1895V221.539H103.728V210Z" fill="#3CA3D6"/>
<path d="M115.266 210H103.728V221.539H115.266V210Z" fill="#3CA3D6"/>
<path d="M57.5627 186.924H46.0244V198.462H57.5627V186.924Z" fill="#3CA3D6"/>
<path d="M126.805 198.461H115.267V210H126.805V198.461Z" fill="#3CA3D6"/>
<path d="M126.805 210H115.267V221.539H126.805V210Z" fill="white"/>
<path d="M92.1663 233.083V244.621H80.6455C80.6455 241.564 81.8587 238.632 84.0188 236.469C86.1789 234.305 89.1092 233.088 92.1663 233.083V233.083Z" fill="#3CA3D6"/>
<path d="M92.166 233.083H97.9352C99.4653 233.083 100.933 233.691 102.015 234.773C103.097 235.855 103.704 237.322 103.704 238.852V238.852C103.704 240.382 103.097 241.85 102.015 242.932C100.933 244.014 99.4653 244.621 97.9352 244.621H92.166V233.083Z" fill="#3CA3D6"/>
<path d="M92.166 244.62H97.9352C99.4653 244.62 100.933 245.228 102.015 246.31C103.097 247.392 103.704 248.859 103.704 250.39V250.39C103.704 251.92 103.097 253.387 102.015 254.469C100.933 255.551 99.4653 256.159 97.9352 256.159H92.166V244.62Z" fill="#3CA3D6"/>
<path d="M80.6454 256.165H92.1663V267.703C89.1061 267.703 86.1713 266.487 84.0074 264.324C81.8436 262.16 80.6279 259.225 80.6279 256.165V256.165H80.6454Z" fill="#3CA3D6"/>
<path d="M92.1663 267.704V279.242H80.6455C80.6455 276.185 81.8587 273.253 84.0188 271.089C86.1789 268.926 89.1092 267.708 92.1663 267.704V267.704Z" fill="#3CA3D6"/>
<path d="M103.728 273.473C103.728 270.287 101.145 267.704 97.9586 267.704C94.7724 267.704 92.1895 270.287 92.1895 273.473C92.1895 276.659 94.7724 279.242 97.9586 279.242C101.145 279.242 103.728 276.659 103.728 273.473Z" fill="#3CA3D6"/>
<path d="M92.1838 296.555C92.1838 293.369 89.6009 290.786 86.4147 290.786C83.2285 290.786 80.6455 293.369 80.6455 296.555C80.6455 299.742 83.2285 302.324 86.4147 302.324C89.6009 302.324 92.1838 299.742 92.1838 296.555Z" fill="#3CA3D6"/>
<path d="M103.728 290.786H92.1895V302.324H103.728V290.786Z" fill="#3CA3D6"/>
<path d="M103.728 302.323H92.1895V313.862H103.728V302.323Z" fill="#3CA3D6"/>
<path d="M63.3375 106.138C64.8676 106.138 66.335 106.746 67.4169 107.828C68.4989 108.91 69.1067 110.377 69.1067 111.907V117.659H57.5684V111.89C57.5684 110.36 58.1762 108.892 59.2581 107.81C60.34 106.728 61.8074 106.121 63.3375 106.121V106.138Z" fill="#3CA3D6"/>
<path d="M57.5684 163.841H69.1067V175.408C66.0465 175.408 63.1117 174.193 60.9479 172.029C58.784 169.865 57.5684 166.93 57.5684 163.87V163.87V163.841Z" fill="#3CA3D6"/>
<path d="M69.1067 192.693C69.1067 189.507 66.5237 186.924 63.3375 186.924C60.1513 186.924 57.5684 189.507 57.5684 192.693C57.5684 195.879 60.1513 198.462 63.3375 198.462C66.5237 198.462 69.1067 195.879 69.1067 192.693Z" fill="#3CA3D6"/>
<path d="M69.1067 204.231C69.1067 201.044 66.5237 198.461 63.3375 198.461C60.1513 198.461 57.5684 201.044 57.5684 204.231C57.5684 207.417 60.1513 210 63.3375 210C66.5237 210 69.1067 207.417 69.1067 204.231Z" fill="#3CA3D6"/>
<path d="M149.829 233.083C146.769 233.083 143.834 231.867 141.67 229.704C139.506 227.54 138.291 224.605 138.291 221.545V221.545H149.829V233.083Z" fill="#5CC7F2"/>
<path d="M149.829 221.544H138.291C138.291 218.484 139.506 215.549 141.67 213.385C143.834 211.221 146.769 210.006 149.829 210.006V210.006V221.544V221.544Z" fill="#5CC7F2"/>
<path d="M69.1067 244.62H57.5684V256.159H69.1067V244.62Z" fill="#3CA3D6"/>
<path d="M69.1067 256.165V267.703H57.5684C57.5684 264.643 58.784 261.708 60.9479 259.544C63.1117 257.38 66.0465 256.165 69.1067 256.165V256.165Z" fill="#3CA3D6"/>
<path d="M69.1067 279.247H57.5684V290.786H69.1067V279.247Z" fill="#3CA3D6"/>
<path d="M74.8766 94.5994H80.6458V106.138H74.8766C73.3465 106.138 71.8791 105.53 70.7972 104.448C69.7152 103.366 69.1074 101.899 69.1074 100.369V100.369C69.1074 98.8385 69.7152 97.371 70.7972 96.2891C71.8791 95.2072 73.3465 94.5994 74.8766 94.5994V94.5994Z" fill="#3CA3D6"/>
<path d="M115.266 94.5994H103.728V106.138H115.266V94.5994Z" fill="#5CC7F2"/>
<path d="M126.805 94.5994H115.267V106.138H126.805V94.5994Z" fill="#3CA3D6"/>
<path d="M138.284 94.5994H126.746V106.138H138.284V94.5994Z" fill="white"/>
<path d="M115.266 106.138H103.728V117.677H115.266V106.138Z" fill="#3CA3D6"/>
<path d="M69.1074 117.658H80.6458C80.6458 119.173 80.3473 120.674 79.7674 122.073C79.1876 123.473 78.3377 124.745 77.2663 125.817C76.1948 126.888 74.9228 127.738 73.5229 128.318C72.1231 128.898 70.6227 129.196 69.1074 129.196V129.196V117.658Z" fill="#3CA3D6"/>
<path d="M115.266 117.682H103.728V129.22H115.266V117.682Z" fill="#3CA3D6"/>
<path d="M126.805 117.682H115.267V129.22H126.805V117.682Z" fill="#5CC7F2"/>
<path d="M80.6458 129.22H69.1074V140.758H80.6458V129.22Z" fill="#5CC7F2"/>
<path d="M103.728 129.22H115.266V134.989C115.266 136.519 114.658 137.987 113.576 139.069C112.494 140.15 111.027 140.758 109.497 140.758H103.728V129.22Z" fill="#5CC7F2"/>
<path d="M115.267 129.22H126.805V134.989C126.805 136.519 126.197 137.987 125.115 139.069C124.033 140.15 122.566 140.758 121.036 140.758V140.758C119.506 140.758 118.038 140.15 116.956 139.069C115.874 137.987 115.267 136.519 115.267 134.989V129.22V129.22Z" fill="#3CA3D6"/>
<path d="M80.6458 140.758H69.1074V152.297H80.6458V140.758Z" fill="#3CA3D6"/>
<path d="M103.728 140.758H109.497C111.027 140.758 112.494 141.366 113.576 142.448C114.658 143.53 115.266 144.997 115.266 146.527V146.527C115.266 148.058 114.658 149.525 113.576 150.607C112.494 151.689 111.027 152.297 109.497 152.297H103.728V140.758Z" fill="#3CA3D6"/>
<path d="M69.1074 152.302C70.6227 152.302 72.1231 152.601 73.5229 153.181C74.9228 153.761 76.1948 154.611 77.2663 155.682C78.3377 156.753 79.1876 158.025 79.7674 159.425C80.3473 160.825 80.6458 162.326 80.6458 163.841V163.841H69.1074V152.302Z" fill="#5CC7F2"/>
<path d="M103.728 152.302H92.1895V163.841H103.728V152.302Z" fill="#5CC7F2"/>
<path d="M103.728 152.302H109.497C111.027 152.302 112.494 152.91 113.576 153.992C114.658 155.074 115.266 156.542 115.266 158.072V158.072C115.266 159.602 114.658 161.069 113.576 162.151C112.494 163.233 111.027 163.841 109.497 163.841H103.728V152.302Z" fill="#3CA3D6"/>
<path d="M126.805 146.527C126.805 143.341 124.222 140.758 121.036 140.758C117.85 140.758 115.267 143.341 115.267 146.527C115.267 149.714 117.85 152.297 121.036 152.297C124.222 152.297 126.805 149.714 126.805 146.527Z" fill="white"/>
<path d="M126.805 158.072C126.805 154.885 124.222 152.302 121.036 152.302C117.85 152.302 115.267 154.885 115.267 158.072C115.267 161.258 117.85 163.841 121.036 163.841C124.222 163.841 126.805 161.258 126.805 158.072Z" fill="white"/>
<path d="M80.6454 163.841H92.1663V175.408C89.1061 175.408 86.1713 174.193 84.0074 172.029C81.8436 169.865 80.6279 166.93 80.6279 163.87V163.87L80.6454 163.841Z" fill="#3CA3D6"/>
<path d="M80.6458 175.38H69.1074V186.918H80.6458V175.38Z" fill="#5CC7F2"/>
<path d="M57.5627 152.302H46.0244V163.841H57.5627V152.302Z" fill="#3CA3D6"/>
<path d="M57.5627 140.758H46.0244V152.297H57.5627V140.758Z" fill="#3CA3D6"/>
<path d="M57.5627 117.682H46.0244V129.22H57.5627V117.682Z" fill="#3CA3D6"/>
<path d="M57.5686 106.138H46.0244L57.5686 94.5994V106.138Z" fill="#3CA3D6"/>
<path d="M69.1074 186.924H80.6458V198.462C77.5856 198.462 74.6508 197.247 72.4869 195.083C70.3231 192.919 69.1074 189.984 69.1074 186.924V186.924Z" fill="#3CA3D6"/>
<path d="M92.1838 198.461H80.6455V210H92.1838V198.461Z" fill="#5CC7F2"/>
<path d="M80.6458 198.461H69.1074V210H80.6458V198.461Z" fill="#3CA3D6"/>
<path d="M80.6458 215.77C80.6458 212.583 78.0628 210 74.8766 210C71.6904 210 69.1074 212.583 69.1074 215.77C69.1074 218.956 71.6904 221.539 74.8766 221.539C78.0628 221.539 80.6458 218.956 80.6458 215.77Z" fill="#5CC7F2"/>
<path d="M92.1838 221.544H80.6455V233.082H92.1838V221.544Z" fill="#3CA3D6"/>
<path d="M92.166 221.544H103.704V227.325C103.704 228.855 103.097 230.322 102.015 231.404C100.933 232.486 99.4653 233.094 97.9352 233.094H92.166V221.544Z" fill="#5CC7F2"/>
<path d="M103.728 221.544H115.266V227.325C115.266 228.855 114.658 230.322 113.576 231.404C112.494 232.486 111.027 233.094 109.497 233.094V233.094C107.967 233.094 106.499 232.486 105.417 231.404C104.335 230.322 103.728 228.855 103.728 227.325V221.556V221.544Z" fill="#3CA3D6"/>
<path d="M115.267 221.544H126.805V227.325C126.805 228.855 126.197 230.322 125.115 231.404C124.033 232.486 122.566 233.094 121.036 233.094V233.094C119.506 233.094 118.038 232.486 116.956 231.404C115.874 230.322 115.267 228.855 115.267 227.325V221.556V221.544Z" fill="#5CC7F2"/>
<path d="M57.5627 233.083H46.0244V244.621H57.5627V233.083Z" fill="#3CA3D6"/>
<path d="M115.266 238.852C115.266 235.666 112.683 233.083 109.497 233.083C106.31 233.083 103.728 235.666 103.728 238.852C103.728 242.038 106.31 244.621 109.497 244.621C112.683 244.621 115.266 242.038 115.266 238.852Z" fill="#3CA3D6"/>
<path d="M126.805 238.852C126.805 235.666 124.222 233.083 121.036 233.083C117.85 233.083 115.267 235.666 115.267 238.852C115.267 242.038 117.85 244.621 121.036 244.621C124.222 244.621 126.805 242.038 126.805 238.852Z" fill="#5CC7F2"/>
<path d="M115.266 250.39C115.266 247.203 112.683 244.62 109.497 244.62C106.31 244.62 103.728 247.203 103.728 250.39C103.728 253.576 106.31 256.159 109.497 256.159C112.683 256.159 115.266 253.576 115.266 250.39Z" fill="#3CA3D6"/>
<path d="M126.805 250.39C126.805 247.203 124.222 244.62 121.036 244.62C117.85 244.62 115.267 247.203 115.267 250.39C115.267 253.576 117.85 256.159 121.036 256.159C124.222 256.159 126.805 253.576 126.805 250.39Z" fill="#5CC7F2"/>
<path d="M109.497 256.165C111.027 256.165 112.494 256.773 113.576 257.855C114.658 258.936 115.266 260.404 115.266 261.934V267.703H103.728V261.934C103.728 260.404 104.335 258.936 105.417 257.855C106.499 256.773 107.967 256.165 109.497 256.165V256.165Z" fill="#3CA3D6"/>
<path d="M121.042 256.165C122.572 256.165 124.039 256.773 125.121 257.855C126.203 258.936 126.811 260.404 126.811 261.934V267.703H115.267V261.934C115.267 261.176 115.416 260.425 115.706 259.725C115.997 259.025 116.422 258.388 116.958 257.852C117.495 257.317 118.131 256.892 118.832 256.602C119.533 256.313 120.283 256.164 121.042 256.165V256.165Z" fill="white"/>
<path d="M80.6458 273.473C80.6458 270.287 78.0628 267.704 74.8766 267.704C71.6904 267.704 69.1074 270.287 69.1074 273.473C69.1074 276.659 71.6904 279.242 74.8766 279.242C78.0628 279.242 80.6458 276.659 80.6458 273.473Z" fill="#3CA3D6"/>
<path d="M115.266 267.704H103.728V279.242H115.266V267.704Z" fill="#5CC7F2"/>
<path d="M126.805 267.704H115.267V279.242H126.805V267.704Z" fill="#3CA3D6"/>
<path d="M115.266 279.247H103.728V290.786H115.266V279.247Z" fill="#3CA3D6"/>
<path d="M126.811 279.242V290.78H115.267C115.267 289.264 115.565 287.763 116.145 286.363C116.726 284.963 117.576 283.691 118.648 282.619C119.72 281.548 120.993 280.698 122.393 280.118C123.794 279.539 125.295 279.241 126.811 279.242V279.242Z" fill="#5CC7F2"/>
<path d="M80.6458 290.786H69.1074V302.324H80.6458V290.786Z" fill="#3CA3D6"/>
<path d="M126.805 290.786H115.267V302.324H126.805V290.786Z" fill="#3CA3D6"/>
<path d="M115.266 290.786H103.728V302.324H115.266V290.786Z" fill="white"/>
<path d="M115.266 302.323H103.728V313.862H115.266V302.323Z" fill="#5CC7F2"/>
<path d="M126.805 302.323H115.267V313.862H126.805V302.323Z" fill="#5CC7F2"/>
<path d="M138.285 313.868V302.323H149.829L138.285 313.868Z" fill="#5CC7F2"/>
<path d="M92.1838 313.868H80.6455V325.406H92.1838V313.868Z" fill="#3CA3D6"/>
<path d="M115.266 313.868H103.728V325.406H115.266V313.868Z" fill="white"/>
<path d="M126.805 313.868H115.267V325.406H126.805V313.868Z" fill="#3CA3D6"/>
<path d="M138.284 106.138H126.746V117.677H138.284V106.138Z" fill="#5CC7F2"/>
<path d="M149.829 106.138H138.285V94.5994L149.829 106.138Z" fill="#5CC7F2"/>
<path d="M149.823 106.138H138.285V117.677H149.823V106.138Z" fill="#5CC7F2"/>
<path d="M138.291 210.006H149.829V198.468H138.291V210.006Z" fill="white"/>
<path d="M138.285 198.461V186.923H149.829C149.829 188.439 149.53 189.94 148.95 191.34C148.37 192.74 147.52 194.012 146.448 195.084C145.375 196.156 144.103 197.005 142.702 197.585C141.302 198.164 139.801 198.462 138.285 198.461V198.461Z" fill="#5CC7F2"/>
<path d="M138.291 186.924H149.829V175.386H138.291V186.924Z" fill="#3CA3D6"/>
<path d="M138.284 233.083H126.746V244.621H138.284V233.083Z" fill="white"/>
<path d="M149.823 244.62H138.285V256.159H149.823V244.62Z" fill="#5CC7F2"/>
<path d="M138.284 192.693C138.284 189.507 135.701 186.924 132.515 186.924C129.329 186.924 126.746 189.507 126.746 192.693C126.746 195.879 129.329 198.462 132.515 198.462C135.701 198.462 138.284 195.879 138.284 192.693Z" fill="#5CC7F2"/>
<path d="M132.515 198.461C133.273 198.461 134.023 198.611 134.723 198.901C135.423 199.191 136.059 199.615 136.595 200.151C137.13 200.687 137.555 201.323 137.845 202.023C138.135 202.723 138.284 203.473 138.284 204.231V210H126.746V204.231C126.746 202.701 127.354 201.233 128.436 200.151C129.518 199.069 130.985 198.461 132.515 198.461V198.461Z" fill="white"/>
<path d="M138.284 244.62V256.159H126.746C126.746 253.099 127.962 250.164 130.126 248C132.289 245.836 135.224 244.62 138.284 244.62V244.62Z" fill="#3CA3D6"/>
<path d="M138.285 117.658H149.823V129.196H144.083C142.553 129.196 141.086 128.588 140.004 127.507C138.922 126.425 138.314 124.957 138.314 123.427V117.658H138.285Z" fill="#5CC7F2"/>
<path d="M144.084 129.22H149.853V140.758H144.084C142.554 140.758 141.086 140.15 140.004 139.069C138.922 137.987 138.314 136.519 138.314 134.989V134.989C138.314 133.459 138.922 131.992 140.004 130.91C141.086 129.828 142.554 129.22 144.084 129.22Z" fill="#5CC7F2"/>
<path d="M144.084 140.758H149.853V152.297H144.084C142.554 152.297 141.086 151.689 140.004 150.607C138.922 149.525 138.314 148.058 138.314 146.527V146.527C138.314 144.997 138.922 143.53 140.004 142.448C141.086 141.366 142.554 140.758 144.084 140.758V140.758Z" fill="white"/>
<path d="M138.284 140.758H126.746V152.297H138.284V140.758Z" fill="#5CC7F2"/>
<path d="M144.084 152.302H149.853V163.841H144.084C142.554 163.841 141.086 163.233 140.004 162.151C138.922 161.069 138.314 159.602 138.314 158.072V158.072C138.314 156.542 138.922 155.074 140.004 153.992C141.086 152.91 142.554 152.302 144.084 152.302V152.302Z" fill="#5CC7F2"/>
<path d="M144.084 163.841H149.853V175.408H144.084C142.554 175.408 141.086 174.8 140.004 173.719C138.922 172.637 138.315 171.169 138.315 169.639V169.639C138.311 168.879 138.457 168.126 138.745 167.422C139.033 166.719 139.458 166.08 139.994 165.541C140.53 165.002 141.167 164.574 141.869 164.283C142.571 163.991 143.324 163.841 144.084 163.841V163.841Z" fill="#5CC7F2"/>
<path d="M92.1838 83.0549H80.6455V94.5933H92.1838V83.0549Z" fill="#3CA3D6"/>
<path d="M69.1067 88.8241C69.1067 85.6379 66.5237 83.0549 63.3375 83.0549C60.1513 83.0549 57.5684 85.6379 57.5684 88.8241C57.5684 92.0103 60.1513 94.5933 63.3375 94.5933C66.5237 94.5933 69.1067 92.0103 69.1067 88.8241Z" fill="#3CA3D6"/>
<path d="M115.266 83.0549H103.728V94.5933H115.266V83.0549Z" fill="#3CA3D6"/>
<path d="M126.805 83.0549H115.267V94.5933H126.805V83.0549Z" fill="#3CA3D6"/>
<path d="M138.284 83.0549H126.746V94.5933H138.284V83.0549Z" fill="#5CC7F2"/>
<path d="M138.285 233.083H149.829L138.285 244.621V233.083Z" fill="#5CC7F2"/>
<path d="M149.823 267.704H138.285V279.242H149.823V267.704Z" fill="#5CC7F2"/>
<path d="M46.0244 290.786H57.5628V302.33C56.047 302.33 54.5462 302.031 53.1459 301.451C51.7456 300.871 50.4734 300.02 49.4019 298.948C48.3304 297.876 47.4806 296.604 46.9011 295.203C46.3215 293.802 46.0236 292.301 46.0244 290.786V290.786Z" fill="#5CC7F2"/>
<path d="M149.823 296.555C149.823 293.369 147.241 290.786 144.054 290.786C140.868 290.786 138.285 293.369 138.285 296.555C138.285 299.742 140.868 302.324 144.054 302.324C147.241 302.324 149.823 299.742 149.823 296.555Z" fill="#5CC7F2"/>
<path d="M126.746 117.658H138.284V123.427C138.284 124.957 137.677 126.425 136.595 127.507C135.513 128.588 134.045 129.196 132.515 129.196V129.196C130.985 129.196 129.518 128.588 128.436 127.507C127.354 126.425 126.746 124.957 126.746 123.427V117.658V117.658Z" fill="white"/>
<path d="M138.284 134.989C138.284 131.803 135.701 129.22 132.515 129.22C129.329 129.22 126.746 131.803 126.746 134.989C126.746 138.175 129.329 140.758 132.515 140.758C135.701 140.758 138.284 138.175 138.284 134.989Z" fill="#5CC7F2"/>
<path d="M138.284 158.072C138.284 154.885 135.701 152.302 132.515 152.302C129.329 152.302 126.746 154.885 126.746 158.072C126.746 161.258 129.329 163.841 132.515 163.841C135.701 163.841 138.284 161.258 138.284 158.072Z" fill="#3CA3D6"/>
<path d="M138.284 169.61C138.284 166.424 135.701 163.841 132.515 163.841C129.329 163.841 126.746 166.424 126.746 169.61C126.746 172.796 129.329 175.379 132.515 175.379C135.701 175.379 138.284 172.796 138.284 169.61Z" fill="#5CC7F2"/>
<path d="M138.284 210H126.746V221.539H138.284V210Z" fill="#5CC7F2"/>
<path d="M138.284 221.544H126.746V233.082H138.284V221.544Z" fill="white"/>
<path d="M138.284 256.165H126.746V267.703H138.284V256.165Z" fill="#5CC7F2"/>
<path d="M126.746 290.786V279.242H138.284L126.746 290.786Z" fill="white"/>
<path d="M46.0244 325.406V313.868H57.5686L46.0244 325.406Z" fill="#5CC7F2"/>
<path d="M138.284 296.555C138.284 293.369 135.701 290.786 132.515 290.786C129.329 290.786 126.746 293.369 126.746 296.555C126.746 299.742 129.329 302.324 132.515 302.324C135.701 302.324 138.284 299.742 138.284 296.555Z" fill="#5CC7F2"/>
<path d="M138.284 302.323H126.746V313.862H138.284V302.323Z" fill="white"/>
<path d="M149.829 325.406V313.868H138.285L149.829 325.406Z" fill="#5CC7F2"/>
<path d="M103.728 17.3074H92.1895V28.8457H103.728V17.3074Z" fill="#5CC7F2"/>
<path d="M103.728 5.76904H92.1895V17.3074H103.728V5.76904Z" fill="#3CA3D6"/>
<path d="M92.1897 17.3074H80.6455L92.1897 5.76904V17.3074Z" fill="#5CC7F2"/>
<path d="M103.728 17.3074V5.76904L115.266 17.3074H103.728Z" fill="#5CC7F2"/>
<path d="M115.266 17.3074V28.8515L103.728 17.3074H115.266Z" fill="#3CA3D6"/>
<path d="M92.1838 63.4724H80.6455V75.0107H92.1838V63.4724Z" fill="#5CC7F2"/>
<path d="M103.728 63.4724H92.1895V75.0107H103.728V63.4724Z" fill="#3CA3D6"/>
<path d="M92.1838 28.8516H80.6455V40.3899H92.1838V28.8516Z" fill="#3CA3D6"/>
<path d="M103.728 28.8516H92.1895V40.3899H103.728V28.8516Z" fill="#3CA3D6"/>
<path d="M80.6458 40.3899H69.1074V51.9282H80.6458V40.3899Z" fill="#3CA3D6"/>
<path d="M103.728 40.3899V51.9282H92.166C92.166 50.411 92.4652 48.9087 93.0465 47.5073C93.6279 46.1059 94.4799 44.8329 95.5538 43.7612C96.6277 42.6894 97.9024 41.84 99.305 41.2615C100.708 40.683 102.21 40.3868 103.728 40.3899V40.3899Z" fill="#3CA3D6"/>
<path d="M92.1838 57.6979C92.1838 54.5117 89.6009 51.9287 86.4147 51.9287C83.2285 51.9287 80.6455 54.5117 80.6455 57.6979C80.6455 60.8841 83.2285 63.467 86.4147 63.467C89.6009 63.467 92.1838 60.8841 92.1838 57.6979Z" fill="#3CA3D6"/>
<path d="M115.266 63.4724H103.728V75.0107H115.266V63.4724Z" fill="#3CA3D6"/>
<path d="M126.805 63.4724C129.865 63.4724 132.8 64.6881 134.964 66.8519C137.127 69.0158 138.343 71.9506 138.343 75.0107V75.0107H126.805V63.4724Z" fill="#5CC7F2"/>
<path d="M126.805 63.4724H115.267V75.0107H126.805V63.4724Z" fill="#3CA3D6"/>
<path d="M115.267 40.3899V28.8516L126.811 40.3899H115.267Z" fill="#3CA3D6"/>
<path d="M115.267 51.9282V40.3899L126.811 51.9282H115.267Z" fill="#5CC7F2"/>
<path d="M115.266 34.6207C115.266 31.4345 112.683 28.8516 109.497 28.8516C106.31 28.8516 103.728 31.4345 103.728 34.6207C103.728 37.8069 106.31 40.3899 109.497 40.3899C112.683 40.3899 115.266 37.8069 115.266 34.6207Z" fill="#5CC7F2"/>
<path d="M103.728 40.3899H115.266C115.266 43.45 114.05 46.3849 111.886 48.5487C109.723 50.7126 106.788 51.9282 103.728 51.9282V51.9282V40.3899Z" fill="white"/>
<path d="M92.166 51.9287H103.704C103.705 53.4444 103.407 54.9455 102.828 56.346C102.248 57.7466 101.398 59.0193 100.327 60.0913C99.2554 61.1634 97.9832 62.0138 96.5829 62.594C95.1826 63.1742 93.6817 63.4729 92.166 63.4729V63.4729V51.9287Z" fill="#5CC7F2"/>
<path d="M103.728 51.9287C106.788 51.9287 109.723 53.1444 111.886 55.3082C114.05 57.4721 115.266 60.4069 115.266 63.467V63.467H103.728V51.9287Z" fill="#5CC7F2"/>
<path d="M126.805 51.9287H115.267V63.467H126.805V51.9287Z" fill="white"/>
<path d="M80.6458 63.4724H69.1074V75.0107H80.6458V63.4724Z" fill="#3CA3D6"/>
<path d="M92.1838 94.5994H80.6455V106.138H92.1838V94.5994Z" fill="#2D82B7"/>
<path d="M103.728 129.22H92.1895V140.758H103.728V129.22Z" fill="#2D82B7"/>
<path d="M57.5627 210H46.0244V221.539H57.5627V210Z" fill="#2D82B7"/>
<path d="M92.1838 244.62H80.6455V256.159H92.1838V244.62Z" fill="#2D82B7"/>
<path d="M92.166 256.165H97.9352C99.4653 256.165 100.933 256.773 102.015 257.855C103.097 258.936 103.704 260.404 103.704 261.934V267.703H92.166V256.165Z" fill="#2D82B7"/>
<path d="M92.1838 279.247H80.6455V290.786H92.1838V279.247Z" fill="#2D82B7"/>
<path d="M92.1663 302.323V313.862H80.6455C80.6455 310.805 81.8587 307.873 84.0188 305.709C86.1789 303.546 89.1092 302.328 92.1663 302.323V302.323Z" fill="#2D82B7"/>
<path d="M69.1067 100.369C69.1067 97.1823 66.5237 94.5994 63.3375 94.5994C60.1513 94.5994 57.5684 97.1823 57.5684 100.369C57.5684 103.555 60.1513 106.138 63.3375 106.138C66.5237 106.138 69.1067 103.555 69.1067 100.369Z" fill="#2D82B7"/>
<path d="M69.1067 117.682H57.5684V129.22H69.1067V117.682Z" fill="#2D82B7"/>
<path d="M69.1067 129.22H57.5684V140.758H69.1067V129.22Z" fill="#2D82B7"/>
<path d="M69.1067 140.758V152.297H57.5684C57.5684 149.236 58.784 146.302 60.9479 144.138C63.1117 141.974 66.0465 140.758 69.1067 140.758V140.758Z" fill="#2D82B7"/>
<path d="M69.1067 152.302H57.5684V163.841H69.1067V152.302Z" fill="#2D82B7"/>
<path d="M69.1067 175.38H57.5684V186.918H69.1067V175.38Z" fill="#2D82B7"/>
<path d="M57.5684 210C59.0836 210 60.584 210.299 61.9839 210.879C63.3838 211.459 64.6558 212.309 65.7272 213.38C66.7986 214.451 67.6485 215.723 68.2284 217.123C68.8082 218.523 69.1067 220.024 69.1067 221.539V221.539H57.5684V210Z" fill="#2D82B7"/>
<path d="M57.5684 221.544H69.1067C69.1067 224.604 67.891 227.539 65.7272 229.703C63.5633 231.867 60.6285 233.082 57.5684 233.082V233.082V221.544Z" fill="#2D82B7"/>
<path d="M69.1067 233.083H57.5684V244.621H69.1067V233.083Z" fill="#2D82B7"/>
<path d="M57.5684 267.704C60.6285 267.704 63.5633 268.919 65.7272 271.083C67.891 273.247 69.1067 276.182 69.1067 279.242V279.242H57.5684V267.704Z" fill="#2D82B7"/>
<path d="M69.1067 290.786H57.5684V302.324H69.1067V290.786Z" fill="#2D82B7"/>
<path d="M57.5686 313.868L46.0244 302.323H57.5686V313.868Z" fill="#2D82B7"/>
<path d="M80.6458 106.138H69.1074V117.677H80.6458V106.138Z" fill="#2D82B7"/>
<path d="M80.6458 163.841H69.1074V175.379H80.6458V163.841Z" fill="#2D82B7"/>
<path d="M57.5627 163.841H46.0244V175.379H57.5627V163.841Z" fill="#2D82B7"/>
<path d="M46.0244 129.22C49.0846 129.22 52.0194 130.436 54.1832 132.599C56.3471 134.763 57.5627 137.698 57.5627 140.758V140.758H46.0244V129.22Z" fill="#2D82B7"/>
<path d="M57.5627 106.138H46.0244V117.677H57.5627V106.138Z" fill="#2D82B7"/>
<path d="M80.6454 175.409H92.1662V175.566C92.1662 178.586 90.9666 181.483 88.8312 183.618C86.6957 185.753 83.7995 186.953 80.7796 186.953H80.6221V175.409H80.6454Z" fill="#2D82B7"/>
<path d="M80.6455 186.924C83.7026 186.929 86.633 188.146 88.793 190.31C90.9531 192.473 92.1663 195.405 92.1663 198.462V198.462H80.6455V186.924Z" fill="#2D82B7"/>
<path d="M80.6458 227.313C80.6458 224.127 78.0628 221.544 74.8766 221.544C71.6904 221.544 69.1074 224.127 69.1074 227.313C69.1074 230.499 71.6904 233.082 74.8766 233.082C78.0628 233.082 80.6458 230.499 80.6458 227.313Z" fill="#2D82B7"/>
<path d="M80.6458 233.083H69.1074V244.621H80.6458V233.083Z" fill="#2D82B7"/>
<path d="M80.6458 244.62H69.1074V256.159H80.6458V244.62Z" fill="#5CC7F2"/>
<path d="M80.6458 261.934C80.6458 258.748 78.0628 256.165 74.8766 256.165C71.6904 256.165 69.1074 258.748 69.1074 261.934C69.1074 265.12 71.6904 267.703 74.8766 267.703C78.0628 267.703 80.6458 265.12 80.6458 261.934Z" fill="#2D82B7"/>
<path d="M80.6458 279.247H69.1074V290.786H80.6458V279.247Z" fill="#2D82B7"/>
<path d="M80.6458 302.323H69.1074V313.862H80.6458V302.323Z" fill="#2D82B7"/>
<path d="M103.728 313.868H92.1895V325.406H103.728V313.868Z" fill="#2D82B7"/>
<path d="M80.6458 313.868H69.1074V325.406H80.6458V313.868Z" fill="#5CC7F2"/>
<path d="M57.5686 186.924H46.0244V175.38L57.5686 186.924Z" fill="#2D82B7"/>
<path d="M138.284 181.149C138.284 177.963 135.701 175.38 132.515 175.38C129.329 175.38 126.746 177.963 126.746 181.149C126.746 184.335 129.329 186.918 132.515 186.918C135.701 186.918 138.284 184.335 138.284 181.149Z" fill="#2D82B7"/>
<path d="M57.5686 233.082H46.0244L57.5686 221.544V233.082Z" fill="#2D82B7"/>
<path d="M103.728 83.0549H92.1895V94.5933H103.728V83.0549Z" fill="#2D82B7"/>
<path d="M74.8766 83.0549H80.6458V94.5933H74.8766C73.3465 94.5933 71.8791 93.9855 70.7972 92.9035C69.7152 91.8216 69.1074 90.3542 69.1074 88.8241V88.8241C69.1074 87.294 69.7152 85.8266 70.7972 84.7447C71.8791 83.6628 73.3465 83.0549 74.8766 83.0549V83.0549Z" fill="#2D82B7"/>
<path d="M57.5627 250.39C57.5627 247.203 54.9798 244.62 51.7936 244.62C48.6074 244.62 46.0244 247.203 46.0244 250.39C46.0244 253.576 48.6074 256.159 51.7936 256.159C54.9798 256.159 57.5627 253.576 57.5627 250.39Z" fill="#2D82B7"/>
<path d="M149.823 256.165H138.285V267.703H149.823V256.165Z" fill="#2D82B7"/>
<path d="M57.5627 267.704H46.0244V279.242H57.5627V267.704Z" fill="#2D82B7"/>
<path d="M57.5627 256.165H46.0244V267.703H57.5627V256.165Z" fill="#2D82B7"/>
<path d="M149.823 279.247H138.285V290.786H149.823V279.247Z" fill="#2D82B7"/>
<path d="M57.5627 285.016C57.5627 281.83 54.9798 279.247 51.7936 279.247C48.6074 279.247 46.0244 281.83 46.0244 285.016C46.0244 288.203 48.6074 290.786 51.7936 290.786C54.9798 290.786 57.5627 288.203 57.5627 285.016Z" fill="#2D82B7"/>
<path d="M57.5684 313.868V302.323H69.1067L57.5684 313.868Z" fill="#2D82B7"/>
<path d="M46.0244 198.461H57.5686V210L46.0244 198.461Z" fill="#2D82B7"/>
<path d="M69.1074 325.402C66.0473 325.402 63.1124 324.186 60.9486 322.022C58.7847 319.858 57.5691 316.923 57.5691 313.863V313.863H69.1074V325.402Z" fill="#2D82B7"/>
<path d="M126.746 313.868H138.284C138.284 316.928 137.069 319.863 134.905 322.027C132.741 324.191 129.806 325.406 126.746 325.406V325.406V313.868Z" fill="#2D82B7"/>
<path d="M0.169922 417.731C0.169922 414.671 1.38558 411.736 3.54944 409.572C5.71329 407.408 8.64811 406.193 11.7083 406.193V406.193V417.731H0.169922Z" fill="#5CC7F2"/>
<path d="M11.6953 440.807C10.1786 440.807 8.67677 440.508 7.27574 439.927C5.8747 439.346 4.60195 438.495 3.53029 437.421C2.45862 436.348 1.60908 435.074 1.03026 433.672C0.451431 432.27 0.154681 430.768 0.156981 429.251V429.251H11.6953L11.6953 440.807Z" fill="#3CA3D6"/>
<path d="M23.0938 394.649H34.6321V406.187C31.5719 406.187 28.6371 404.972 26.4732 402.808C24.3094 400.644 23.0937 397.709 23.0938 394.649V394.649Z" fill="#5CC7F2"/>
<path d="M23.0881 383.109H11.5498V394.648H23.0881V383.109Z" fill="#5CC7F2"/>
<path d="M23.0938 429.269V417.731H34.6321L23.0938 429.269Z" fill="#3CA3D6"/>
<path d="M23.094 360.028V371.566H11.5498C11.5498 370.05 11.8484 368.549 12.4287 367.149C13.0089 365.749 13.8593 364.477 14.9314 363.405C16.0034 362.334 17.2761 361.484 18.6767 360.904C20.0772 360.325 21.5782 360.027 23.094 360.028V360.028Z" fill="#2D82B7"/>
<path d="M34.6321 406.187H23.0938V417.726H34.6321V406.187Z" fill="#2D82B7"/>
<path d="M23.0881 400.418C23.0881 397.231 20.5052 394.648 17.319 394.648C14.1327 394.648 11.5498 397.231 11.5498 400.418C11.5498 403.604 14.1327 406.187 17.319 406.187C20.5052 406.187 23.0881 403.604 23.0881 400.418Z" fill="#2D82B7"/>
<path d="M23.094 360.028H11.5498L23.094 348.49V360.028Z" fill="#2D82B7"/>
<path d="M0.157227 440.807H11.6956L0.157227 452.351V440.807Z" fill="#2D82B7"/>
<path d="M34.6321 354.259C34.6321 351.072 32.0491 348.49 28.8629 348.49C25.6767 348.49 23.0938 351.072 23.0938 354.259C23.0938 357.445 25.6767 360.028 28.8629 360.028C32.0491 360.028 34.6321 357.445 34.6321 354.259Z" fill="#2D82B7"/>
<path d="M11.5498 371.565H23.0881V383.109C21.5724 383.109 20.0715 382.811 18.6713 382.231C17.271 381.65 15.9987 380.8 14.9272 379.728C13.8557 378.656 13.0059 377.383 12.4264 375.983C11.8469 374.582 11.549 373.081 11.5498 371.565V371.565Z" fill="#2D82B7"/>
<path d="M34.6321 371.566H23.0938V383.104H34.6321V371.566Z" fill="#2D82B7"/>
<path d="M34.6321 360.028H23.0938V371.566H34.6321V360.028Z" fill="#3CA3D6"/>
<path d="M34.6321 383.109H23.0938V394.648H34.6321V383.109Z" fill="#2D82B7"/>
<path d="M23.0881 417.731H11.5498V429.269H23.0881V417.731Z" fill="#2D82B7"/>
<path d="M11.5498 417.731V406.187H23.094L11.5498 417.731Z" fill="#2D82B7"/>
<path d="M11.5498 440.807V429.268H23.094L11.5498 440.807Z" fill="#2D82B7"/>
<path d="M11.55 383.109V394.648H0.0117188L11.55 383.109Z" fill="#2D82B7"/>
<path d="M0.0117188 394.648H11.55V406.187L0.0117188 394.648Z" fill="#2D82B7"/>
<path d="M23.0938 406.187H34.6321V417.731L23.0938 406.187Z" fill="#2D82B7"/>
<path d="M0.0234375 429.269V417.731H11.5676L0.0234375 429.269Z" fill="#2D82B7"/>
<path d="M149.52 383.109V371.571C152.58 371.571 155.515 372.787 157.678 374.951C159.842 377.114 161.058 380.049 161.058 383.109V383.109H149.52V383.109Z" fill="#3CA3D6"/>
<path d="M149.537 394.648H161.075C161.075 397.709 159.86 400.643 157.696 402.807C155.532 404.971 152.597 406.187 149.537 406.187V406.187V394.648Z" fill="#3CA3D6"/>
<path d="M126.601 371.583V360.045H138.139C138.139 363.105 136.923 366.04 134.759 368.204C132.596 370.368 129.661 371.583 126.601 371.583V371.583Z" fill="#5CC7F2"/>
<path d="M138.145 360.028H149.684V348.489H138.145V360.028Z" fill="#3CA3D6"/>
<path d="M149.684 336.945H138.139V325.407C141.2 325.407 144.134 326.622 146.298 328.786C148.462 330.95 149.678 333.885 149.678 336.945V336.945H149.684Z" fill="#2D82B7"/>
<path d="M126.601 383.109H138.14V371.571H126.601V383.109Z" fill="#2D82B7"/>
<path d="M138.145 365.797C138.145 368.983 140.728 371.566 143.914 371.566C147.101 371.566 149.684 368.983 149.684 365.797C149.684 362.611 147.101 360.028 143.914 360.028C140.728 360.028 138.145 362.611 138.145 365.797Z" fill="#2D82B7"/>
<path d="M161.075 406.187H149.537L161.075 417.731V406.187Z" fill="#2D82B7"/>
<path d="M138.14 348.49V336.945H149.678C149.678 340.005 148.462 342.94 146.298 345.104C144.135 347.268 141.2 348.484 138.14 348.484V348.484V348.49Z" fill="#2D82B7"/>
<path d="M126.601 348.49H138.14V336.951H126.601V348.49Z" fill="#3CA3D6"/>
<path d="M126.601 336.945H138.14V325.407H126.601V336.945Z" fill="#3CA3D6"/>
<path d="M126.601 360.028H138.14V348.489H126.601V360.028Z" fill="#2D82B7"/>
<path d="M138.145 394.648H149.684V383.11H138.145V394.648Z" fill="#3CA3D6"/>
<path d="M69.1072 394.648H80.6455V383.11H69.1072V394.648Z" fill="#2D82B7"/>
<path d="M149.684 383.11V371.566H138.14L149.684 383.11Z" fill="#2D82B7"/>
<path d="M149.684 406.187V394.648H138.14L149.684 406.187Z" fill="#2D82B7"/>
<path d="M149.684 348.49V360.028H161.222L149.684 348.49Z" fill="#2D82B7"/>
<path d="M161.222 360.028H149.684V371.566L161.222 360.028Z" fill="#2D82B7"/>
<path d="M138.139 371.566H126.601V383.11L138.139 371.566Z" fill="#2D82B7"/>
<path d="M161.21 394.648V383.109H149.666L161.21 394.648Z" fill="#2D82B7"/>
<path d="M161.222 417.731V406.187H172.76L161.222 417.731Z" fill="#5CC7F2"/>
<path d="M172.76 383.11V371.566H184.304L172.76 383.11Z" fill="white"/>
<path d="M172.76 348.49H161.222V360.028H172.76V348.49Z" fill="#3CA3D6"/>
<path d="M172.76 348.49H184.304L172.76 360.028V348.49Z" fill="#5CC7F2"/>
<path d="M184.298 365.797C184.298 362.611 181.715 360.028 178.529 360.028C175.343 360.028 172.76 362.611 172.76 365.797C172.76 368.983 175.343 371.566 178.529 371.566C181.715 371.566 184.298 368.983 184.298 365.797Z" fill="#5CC7F2"/>
<path d="M172.76 371.566H161.222V383.104H172.76V371.566Z" fill="#5CC7F2"/>
<path d="M184.298 383.109H172.76V394.648H184.298V383.109Z" fill="#3CA3D6"/>
<path d="M184.298 394.648H172.76V406.187H184.298V394.648Z" fill="white"/>
<path d="M184.077 394.648V383.109H195.615L184.077 394.648Z" fill="#5CC7F2"/>
<path d="M184.141 417.731V406.193C187.201 406.193 190.136 407.408 192.299 409.572C194.463 411.736 195.679 414.671 195.679 417.731V417.731H184.141V417.731Z" fill="#3CA3D6"/>
<path d="M184.158 429.268H195.697C195.699 430.785 195.402 432.287 194.823 433.689C194.244 435.091 193.395 436.365 192.323 437.438C191.252 438.512 189.979 439.363 188.578 439.944C187.177 440.525 185.675 440.824 184.158 440.824V440.824V429.268Z" fill="#5CC7F2"/>
<path d="M161.221 417.731H172.76V406.193H161.221V417.731Z" fill="#5CC7F2"/>
<path d="M172.766 429.268H184.305V417.73H172.766V429.268Z" fill="#3CA3D6"/>
<path d="M172.76 429.269V417.731H161.222L172.76 429.269Z" fill="#5CC7F2"/>
<path d="M184.304 417.731V406.187H172.76L184.304 417.731Z" fill="#5CC7F2"/>
<path d="M195.831 429.269V417.731H184.287L195.831 429.269Z" fill="#5CC7F2"/>
<path d="M172.76 360.028H161.222V371.566H172.76V360.028Z" fill="#2D82B7"/>
<path d="M172.76 383.109H161.222V394.648H172.76V383.109Z" fill="#3CA3D6"/>
<path d="M184.141 406.187V394.648H195.685L184.141 406.187Z" fill="#2D82B7"/>
<path d="M195.697 440.807H184.158L195.697 452.351V440.807Z" fill="#2D82B7"/>
<path d="M184.304 440.807V429.268H172.76L184.304 440.807Z" fill="#2D82B7"/>
<path d="M69.2356 383.11V371.566H57.6973L69.2356 383.11Z" fill="#5CC7F2"/>
<path d="M57.6975 348.489V336.945H46.1592L57.6975 348.489Z" fill="#2D82B7"/>
<path d="M46.1589 331.176C46.1589 334.362 48.7419 336.945 51.9281 336.945C55.1143 336.945 57.6973 334.362 57.6973 331.176C57.6973 327.99 55.1143 325.407 51.9281 325.407C48.7419 325.407 46.1589 327.99 46.1589 331.176Z" fill="#5CC7F2"/>
<path d="M57.7039 348.49H69.2422V336.951H57.7039V348.49Z" fill="#5CC7F2"/>
<path d="M57.7039 371.566H69.2422V360.028H57.7039V371.566Z" fill="#5CC7F2"/>
<path d="M46.1589 360.028H57.6973V348.489H46.1589V360.028Z" fill="#3CA3D6"/>
<path d="M46.1589 371.566H57.6973V360.028H46.1589V371.566Z" fill="#2D82B7"/>
<path d="M46.387 360.028V348.49H34.8486L46.387 360.028Z" fill="#5CC7F2"/>
<path d="M34.8486 348.489H46.387V336.945L34.8486 348.489Z" fill="#5CC7F2"/>
<path d="M34.7783 383.109C34.7783 380.049 35.9939 377.114 38.1578 374.951C40.3217 372.787 43.2565 371.571 46.3166 371.571V371.571V383.109H34.7783Z" fill="#3CA3D6"/>
<path d="M46.3047 406.187C43.2445 406.187 40.3097 404.972 38.1459 402.808C35.982 400.644 34.7664 397.709 34.7664 394.649V394.649H46.3047V406.187Z" fill="#5CC7F2"/>
<path d="M69.2356 371.566H57.6973V383.104H69.2356V371.566Z" fill="#2D82B7"/>
<path d="M57.6975 383.109H46.1592V394.648H57.6975V383.109Z" fill="#3CA3D6"/>
<path d="M57.6973 394.648V383.109H69.2356L57.6973 394.648Z" fill="#5CC7F2"/>
<path d="M46.1592 383.11V371.566H57.6975L46.1592 383.11Z" fill="#5CC7F2"/>
<path d="M34.6328 394.648V383.109H46.1711L34.6328 394.648Z" fill="#3CA3D6"/>
<path d="M57.7039 336.945H69.2422V325.407H57.7039V336.945Z" fill="#2D82B7"/>
<path d="M57.7039 360.028H69.2422V348.489H57.7039V360.028Z" fill="#2D82B7"/>
<path d="M46.3167 371.566V360.028H34.7783L46.3167 371.566Z" fill="#2D82B7"/>
<path d="M46.1592 406.187V394.648H57.6975L46.1592 406.187Z" fill="#2D82B7"/>
<path d="M115.267 383.109H109.497C107.967 383.109 106.5 382.502 105.418 381.42C104.336 380.338 103.728 378.87 103.728 377.34V377.34C103.728 375.81 104.336 374.343 105.418 373.261C106.5 372.179 107.967 371.571 109.497 371.571H115.267V383.109Z" fill="#3CA3D6"/>
<path d="M103.728 354.258C103.728 357.445 106.311 360.028 109.497 360.028C112.684 360.028 115.267 357.445 115.267 354.258C115.267 351.072 112.684 348.489 109.497 348.489C106.311 348.489 103.728 351.072 103.728 354.258Z" fill="#3CA3D6"/>
<path d="M103.728 336.945H115.267V325.407H103.728V336.945Z" fill="#3CA3D6"/>
<path d="M92.1892 377.34C92.1892 380.526 94.7722 383.109 97.9584 383.109C101.145 383.109 103.728 380.526 103.728 377.34C103.728 374.154 101.145 371.571 97.9584 371.571C94.7722 371.571 92.1892 374.154 92.1892 377.34Z" fill="#3CA3D6"/>
<path d="M80.6511 377.34C80.6511 380.526 83.2341 383.109 86.4203 383.109C89.6065 383.109 92.1895 380.526 92.1895 377.34C92.1895 374.154 89.6065 371.571 86.4203 371.571C83.2341 371.571 80.6511 374.154 80.6511 377.34Z" fill="#5CC7F2"/>
<path d="M97.9585 371.566C96.4284 371.566 94.961 370.958 93.8791 369.876C92.7971 368.794 92.1893 367.327 92.1893 365.797V360.028H103.751V365.797C103.751 367.327 103.143 368.794 102.061 369.876C100.979 370.958 99.5119 371.566 97.9818 371.566H97.9585Z" fill="#3CA3D6"/>
<path d="M86.4145 371.566C84.8844 371.566 83.417 370.958 82.335 369.876C81.2531 368.794 80.6453 367.327 80.6453 365.797V360.028H92.1895V365.797C92.1895 366.555 92.04 367.306 91.7497 368.006C91.4595 368.706 91.034 369.342 90.4976 369.878C89.9613 370.414 89.3246 370.839 88.624 371.128C87.9234 371.418 87.1726 371.567 86.4145 371.566V371.566Z" fill="#2D82B7"/>
<path d="M92.1892 360.028H103.728V348.489H92.1892V360.028Z" fill="#3CA3D6"/>
<path d="M80.6511 360.028H92.1895V348.489H80.6511V360.028Z" fill="#3CA3D6"/>
<path d="M92.1892 348.49H103.728V336.951H92.1892V348.49Z" fill="#3CA3D6"/>
<path d="M80.6686 348.49V336.951H92.1895C92.1895 340.008 90.9762 342.94 88.8161 345.104C86.6561 347.267 83.7257 348.485 80.6686 348.49V348.49Z" fill="#5CC7F2"/>
<path d="M80.6511 336.945H92.1895V325.407H80.6511V336.945Z" fill="#3CA3D6"/>
<path d="M92.1892 336.945H103.728V325.407H92.1892V336.945Z" fill="#5CC7F2"/>
<path d="M115.267 371.566H109.497C107.967 371.566 106.5 370.958 105.418 369.876C104.336 368.794 103.728 367.327 103.728 365.797V360.028H115.267V371.566Z" fill="white"/>
<path d="M80.6455 429.268C79.1303 429.268 77.6299 428.97 76.23 428.39C74.8301 427.81 73.5581 426.96 72.4867 425.889C71.4152 424.817 70.5653 423.545 69.9855 422.145C69.4056 420.746 69.1072 419.245 69.1072 417.73V417.73H80.6455V429.268Z" fill="#2D82B7"/>
<path d="M115.267 417.731H126.805C126.805 420.791 125.589 423.726 123.425 425.89C121.262 428.054 118.327 429.269 115.267 429.269V429.269V417.731Z" fill="#2D82B7"/>
<path d="M80.6455 28.8515V17.3074L92.1897 28.8515H80.6455Z" fill="#2D82B7"/>
<path d="M97.9586 0L103.728 5.76917H92.1895L97.9586 0Z" fill="#5CC7F2"/>
<path d="M69.1074 51.9287H80.6458V63.467H74.8766C73.3465 63.467 71.8791 62.8592 70.7972 61.7773C69.7152 60.6954 69.1074 59.228 69.1074 57.6979V51.9287V51.9287Z" fill="#2D82B7"/>
<path d="M92.1838 40.3899H80.6455V51.9282H92.1838V40.3899Z" fill="#2D82B7"/>
<path d="M69.1067 75.0107H57.5684L69.1067 63.4724V75.0107Z" fill="#2D82B7"/>
<path d="M80.6458 40.3899H69.1074L80.6458 28.8516V40.3899Z" fill="#2D82B7"/>
<path d="M149.986 336.945C149.986 333.885 151.202 330.95 153.366 328.786C155.53 326.622 158.464 325.407 161.525 325.407V325.407V336.945H149.986Z" fill="#3CA3D6"/>
<path d="M184.45 336.945V348.489H172.906L184.45 336.945Z" fill="#5CC7F2"/>
<path d="M184.45 313.868C185.966 313.866 187.468 314.164 188.869 314.743C190.271 315.322 191.544 316.172 192.617 317.243C193.689 318.315 194.54 319.587 195.121 320.988C195.701 322.389 196 323.89 196 325.406V325.406H184.45V313.868Z" fill="white"/>
<path d="M161.525 319.637C161.525 316.451 158.942 313.868 155.756 313.868C152.569 313.868 149.986 316.451 149.986 319.637C149.986 322.823 152.569 325.406 155.756 325.406C158.942 325.406 161.525 322.823 161.525 319.637Z" fill="#2D82B7"/>
<path d="M195.989 331.175C195.989 327.989 193.406 325.406 190.219 325.406C187.033 325.406 184.45 327.989 184.45 331.175C184.45 334.362 187.033 336.945 190.219 336.945C193.406 336.945 195.989 334.362 195.989 331.175Z" fill="#2D82B7"/>
<path d="M172.906 336.945H161.367V348.483H172.906V336.945Z" fill="#2D82B7"/>
<path d="M172.906 336.945H161.367V325.406L172.906 336.945Z" fill="#2D82B7"/>
<path d="M149.841 348.489V336.945H161.379L149.841 348.489Z" fill="#2D82B7"/>
<path d="M195.988 348.489C194.472 348.491 192.969 348.193 191.568 347.614C190.166 347.034 188.893 346.184 187.82 345.112C186.747 344.04 185.896 342.767 185.316 341.365C184.736 339.964 184.438 338.462 184.438 336.945V336.945H195.988V348.489Z" fill="#3CA3D6"/>
<path d="M11.5618 319.637C11.5618 316.451 8.97882 313.868 5.7926 313.868C2.60638 313.868 0.0234375 316.451 0.0234375 319.637C0.0234375 322.823 2.60638 325.406 5.7926 325.406C8.97882 325.406 11.5618 322.823 11.5618 319.637Z" fill="#5CC7F2"/>
<path d="M11.5618 325.406H0.0234375V336.945H11.5618V325.406Z" fill="#3CA3D6"/>
<path d="M34.4863 336.945V325.407C37.5465 325.407 40.4813 326.622 42.6452 328.786C44.809 330.95 46.0246 333.885 46.0246 336.945V336.945H34.4863Z" fill="#3CA3D6"/>
<path d="M23.1062 348.49H34.6445V336.951H23.1062V348.49Z" fill="#3CA3D6"/>
<path d="M23.1055 348.49H11.5671C11.5671 345.429 12.7828 342.495 14.9466 340.331C17.1105 338.167 20.0453 336.951 23.1055 336.951V336.951V348.49Z" fill="#3CA3D6"/>
<path d="M22.9482 336.945H34.4866V325.406L22.9482 336.945Z" fill="#5CC7F2"/>
<path d="M46.0247 313.868V325.406H34.4863L46.0247 313.868Z" fill="#2D82B7"/>
<path d="M0 336.945H11.5675C11.5683 338.463 11.2694 339.967 10.6881 341.369C10.1068 342.772 9.25436 344.046 8.17976 345.118C7.10516 346.19 5.82948 347.04 4.42584 347.619C3.02219 348.197 1.51818 348.493 0 348.489V348.489V336.945Z" fill="#2D82B7"/>
<path d="M92.1838 383.109H80.6455V394.648H92.1838V383.109Z" fill="#3CA3D6"/>
<path d="M103.728 383.109H92.1895V394.648H103.728V383.109Z" fill="#3CA3D6"/>
<path d="M115.266 383.109H103.728V394.648H115.266V383.109Z" fill="#5CC7F2"/>
<path d="M80.6458 394.648H69.1074V406.187H80.6458V394.648Z" fill="#3CA3D6"/>
<path d="M103.728 394.648H92.1895V406.187H103.728V394.648Z" fill="#2D82B7"/>
<path d="M115.266 394.648H103.728V406.187H115.266V394.648Z" fill="#3CA3D6"/>
<path d="M115.272 417.726V406.187H103.734V417.726H115.272Z" fill="#5CC7F2"/>
<path d="M103.728 417.73V406.192H92.1892V417.73H103.728Z" fill="#3CA3D6"/>
<path d="M92.1895 417.726V406.187H80.6511V417.726H92.1895Z" fill="#2D82B7"/>
<path d="M80.6514 417.726V406.187H69.113V417.726H80.6514Z" fill="#5CC7F2"/>
<path d="M126.811 417.73V406.192H115.272V417.73H126.811Z" fill="#3CA3D6"/>
<path d="M115.267 348.49C118.327 348.49 121.262 349.705 123.425 351.869C125.589 354.033 126.805 356.968 126.805 360.028V360.028H115.267V348.49Z" fill="#3CA3D6"/>
<path d="M126.805 336.95H115.267V348.489H126.805V336.95Z" fill="#3CA3D6"/>
<path d="M126.805 360.028H115.267V371.566H126.805V360.028Z" fill="#5CC7F2"/>
<path d="M115.267 371.572H126.805V377.341C126.805 378.871 126.197 380.339 125.115 381.421C124.033 382.503 122.566 383.11 121.036 383.11V383.11C119.506 383.11 118.038 382.503 116.956 381.421C115.874 380.339 115.267 378.871 115.267 377.341V371.572V371.572Z" fill="#3CA3D6"/>
<path d="M126.805 388.879C126.805 385.692 124.222 383.109 121.036 383.109C117.85 383.109 115.267 385.692 115.267 388.879C115.267 392.065 117.85 394.648 121.036 394.648C124.222 394.648 126.805 392.065 126.805 388.879Z" fill="white"/>
<path d="M126.805 400.418C126.805 397.231 124.222 394.648 121.036 394.648C117.85 394.648 115.267 397.231 115.267 400.418C115.267 403.604 117.85 406.187 121.036 406.187C124.222 406.187 126.805 403.604 126.805 400.418Z" fill="white"/>
<path d="M126.805 325.406H115.267V336.945H126.805V325.406Z" fill="white"/>
<path d="M69.1074 348.49H80.6458V360.028C77.5856 360.028 74.6508 358.812 72.4869 356.648C70.3231 354.484 69.1074 351.55 69.1074 348.49V348.49Z" fill="#3CA3D6"/>
<path d="M80.6458 360.028V371.566H69.1074C69.1074 368.506 70.3231 365.571 72.4869 363.407C74.6508 361.243 77.5856 360.028 80.6458 360.028V360.028Z" fill="#3CA3D6"/>
<path d="M80.6458 371.572H69.1074V383.11H80.6458V371.572Z" fill="#2D82B7"/>
<path d="M80.6458 325.406H69.1074V336.945H80.6458V325.406Z" fill="#3CA3D6"/>
<path d="M80.6458 336.95H69.1074V348.489H80.6458V336.95Z" fill="#2D82B7"/>
<path d="M103.728 429.269V417.731H92.1892V429.269H103.728Z" fill="#3CA3D6"/>
<path d="M103.728 429.269V417.731H115.266L103.728 429.269Z" fill="#2D82B7"/>
<path d="M92.1897 417.731V429.269H80.6455L92.1897 417.731Z" fill="#2D82B7"/>
<path d="M5.79238 360.022C8.97861 360.022 11.5615 357.44 11.5615 354.253C11.5615 351.067 8.97861 348.484 5.79238 348.484C2.60616 348.484 0.0232105 351.067 0.0232105 354.253C0.0232105 357.44 2.60616 360.022 5.79238 360.022Z" fill="#3CA3D6"/>
<path d="M11.5674 371.566V360.028H0.0290356V371.566H11.5674Z" fill="#5CC7F2"/>
<path d="M11.5674 383.104V371.566H0.0290699V383.104H11.5674Z" fill="#3CA3D6"/>
<path d="M184.45 360.028C185.966 360.026 187.468 360.323 188.869 360.903C190.271 361.482 191.544 362.331 192.617 363.403C193.689 364.475 194.54 365.747 195.121 367.148C195.701 368.548 196 370.05 196 371.566V371.566H184.45V360.028Z" fill="#5CC7F2"/>
<path d="M184.45 371.566H196C196 374.626 194.785 377.561 192.621 379.725C190.457 381.889 187.522 383.104 184.462 383.104V383.104V371.566H184.45Z" fill="#5CC7F2"/>
<path d="M195.989 360.028H184.45L195.989 348.49V360.028Z" fill="white"/>
<defs>
<linearGradient id="paint0_linear" x1="98" y1="361" x2="98" y2="746" gradientUnits="userSpaceOnUse">
<stop stop-color="white"/>
<stop offset="0.148417" stop-color="white" stop-opacity="0.85586"/>
<stop offset="1" stop-color="white" stop-opacity="0"/>
</linearGradient>
<linearGradient id="paint1_linear" x1="98.5" y1="361" x2="98.5" y2="746" gradientUnits="userSpaceOnUse">
<stop stop-color="white"/>
<stop offset="0.148417" stop-color="white" stop-opacity="0.85586"/>
<stop offset="1" stop-color="white" stop-opacity="0"/>
</linearGradient>
<linearGradient id="paint2_linear" x1="94.5" y1="361" x2="94.5" y2="746" gradientUnits="userSpaceOnUse">
<stop stop-color="white"/>
<stop offset="0.148417" stop-color="white" stop-opacity="0.85586"/>
<stop offset="1" stop-color="white" stop-opacity="0"/>
</linearGradient>
<linearGradient id="paint3_linear" x1="92.9583" y1="337" x2="92.9583" y2="729.583" gradientUnits="userSpaceOnUse">
<stop stop-color="white"/>
<stop offset="1" stop-color="white" stop-opacity="0"/>
</linearGradient>
<linearGradient id="paint4_linear" x1="92.959" y1="337" x2="92.959" y2="639.589" gradientUnits="userSpaceOnUse">
<stop stop-color="white"/>
<stop offset="1" stop-color="white" stop-opacity="0"/>
</linearGradient>
<linearGradient id="paint5_linear" x1="92.9583" y1="337" x2="92.9583" y2="522.205" gradientUnits="userSpaceOnUse">
<stop stop-color="white"/>
<stop offset="1" stop-color="white" stop-opacity="0"/>
</linearGradient>
</defs>
</svg>
