<svg width="74" height="74" viewBox="0 0 74 74" fill="none" xmlns="http://www.w3.org/2000/svg">
<mask id="mask0" mask-type="alpha" maskUnits="userSpaceOnUse" x="0" y="0" width="74" height="74">
<circle cx="37" cy="37" r="37" fill="#C4C4C4"/>
</mask>
<g mask="url(#mask0)">
<path d="M37.178 74.3327C57.6639 74.3327 74.271 57.7256 74.271 37.2397C74.271 16.7538 57.6639 0.146729 37.178 0.146729C16.6921 0.146729 0.0849609 16.7538 0.0849609 37.2397C0.0849609 57.7256 16.6921 74.3327 37.178 74.3327Z" fill="#0E47EF"/>
<g opacity="0.5">
<path opacity="0.5" d="M77.9515 28.001H73.8828V32.0696H77.9515V28.001Z" fill="white"/>
<path opacity="0.5" d="M77.9515 23.9331H73.8828V28.0017H77.9515V23.9331Z" fill="white"/>
<path opacity="0.5" d="M73.8828 15.7947H77.9399C77.9399 16.8707 77.5124 17.9026 76.7516 18.6634C75.9907 19.4243 74.9588 19.8517 73.8828 19.8517V15.7947Z" fill="white"/>
<path opacity="0.5" d="M8.79618 60.5439H4.72754V64.6126H8.79618V60.5439Z" fill="white"/>
<path opacity="0.5" d="M4.72782 64.613H0.65918V68.6817H4.72782V64.613Z" fill="white"/>
<path opacity="0.5" d="M0.665039 70.7164C0.665041 70.3138 0.784499 69.9203 1.00829 69.5856C1.23208 69.251 1.55014 68.9902 1.9222 68.8364C2.29426 68.6826 2.70359 68.6427 3.09837 68.7216C3.49315 68.8006 3.85562 68.9949 4.13989 69.28C4.42416 69.5651 4.61745 69.9281 4.69529 70.3231C4.77313 70.7181 4.73202 71.1273 4.57715 71.499C4.42229 71.8706 4.16065 72.1879 3.82534 72.4107C3.49004 72.6336 3.09616 72.7519 2.69356 72.7508C2.15503 72.7492 1.63908 72.5342 1.25883 72.1529C0.87857 71.7715 0.665037 71.255 0.665039 70.7164" fill="white"/>
<path opacity="0.5" d="M0.665039 74.7843C0.665041 74.3817 0.784499 73.9882 1.00829 73.6535C1.23208 73.3188 1.55014 73.0581 1.9222 72.9043C2.29426 72.7505 2.70359 72.7106 3.09837 72.7895C3.49315 72.8685 3.85562 73.0628 4.13989 73.3479C4.42416 73.633 4.61745 73.996 4.69529 74.391C4.77313 74.786 4.73202 75.1952 4.57715 75.5668C4.42229 75.9385 4.16065 76.2558 3.82534 76.4786C3.49004 76.7014 3.09616 76.8198 2.69356 76.8186C2.15503 76.8171 1.63908 76.6021 1.25883 76.2207C0.87857 75.8394 0.665037 75.3228 0.665039 74.7843" fill="white"/>
<path opacity="0.5" d="M-3.39258 72.7504V68.6934H0.664468C0.664468 69.7694 0.237031 70.8013 -0.523813 71.5621C-1.28466 72.323 -2.31658 72.7504 -3.39258 72.7504Z" fill="white"/>
<path opacity="0.5" d="M0.658482 72.75H-3.41016V76.8186H0.658482V72.75Z" fill="white"/>
<path opacity="0.5" d="M0.664976 64.6115V62.5772C0.643849 62.2979 0.68062 62.0173 0.772985 61.7528C0.86535 61.4884 1.01132 61.2459 1.20175 61.0406C1.39218 60.8352 1.62297 60.6713 1.87966 60.5593C2.13635 60.4472 2.41342 60.3894 2.6935 60.3894C2.97358 60.3894 3.25064 60.4472 3.50733 60.5593C3.76403 60.6713 3.99482 60.8352 4.18525 61.0406C4.37568 61.2459 4.52165 61.4884 4.61401 61.7528C4.70638 62.0173 4.74315 62.2979 4.72202 62.5772V64.6115H0.664976Z" fill="white"/>
</g>
<g opacity="0.2">
<path opacity="0.5" d="M49.4768 3.5874H45.4082V7.65604H49.4768V3.5874Z" fill="white"/>
<path opacity="0.5" d="M57.6136 32.0691H53.5449V36.1377H57.6136V32.0691Z" fill="white"/>
<path opacity="0.5" d="M57.6143 28.001H61.6713C61.6713 29.077 61.2439 30.1089 60.483 30.8697C59.7222 31.6306 58.6903 32.058 57.6143 32.058V28.001Z" fill="white"/>
<path opacity="0.5" d="M53.5449 28.001H57.602C57.602 29.077 57.1745 30.1089 56.4137 30.8697C55.6528 31.6306 54.6209 32.058 53.5449 32.058V28.001Z" fill="white"/>
<path opacity="0.5" d="M61.6829 23.9319H57.6143V28.0005H61.6829V23.9319Z" fill="white"/>
<path opacity="0.5" d="M55.5792 23.9084C55.9816 23.9084 56.3749 24.0278 56.7094 24.2513C57.044 24.4748 57.3047 24.7925 57.4587 25.1643C57.6127 25.536 57.653 25.945 57.5745 26.3396C57.496 26.7343 57.3022 27.0967 57.0177 27.3812C56.7332 27.6658 56.3707 27.8595 55.9761 27.938C55.5815 28.0165 55.1725 27.9762 54.8007 27.8222C54.429 27.6683 54.1113 27.4075 53.8878 27.073C53.6642 26.7384 53.5449 26.3451 53.5449 25.9428C53.5449 25.4032 53.7593 24.8858 54.1408 24.5043C54.5223 24.1228 55.0397 23.9084 55.5792 23.9084" fill="white"/>
<path opacity="0.5" d="M73.8828 64.6118H77.9399C77.9399 65.6878 77.5124 66.7197 76.7516 67.4806C75.9907 68.2414 74.9588 68.6689 73.8828 68.6689V64.6118Z" fill="white"/>
<path opacity="0.5" d="M77.9515 60.5439H73.8828V64.6126H77.9515V60.5439Z" fill="white"/>
<path opacity="0.5" d="M77.9515 56.4758H73.8828V60.5445H77.9515V56.4758Z" fill="white"/>
<path opacity="0.5" d="M55.5792 48.3389C55.9816 48.3389 56.3749 48.4582 56.7094 48.6817C57.044 48.9052 57.3047 49.223 57.4587 49.5947C57.6127 49.9664 57.653 50.3754 57.5745 50.7701C57.496 51.1647 57.3022 51.5272 57.0177 51.8117C56.7332 52.0962 56.3707 52.2899 55.9761 52.3684C55.5815 52.4469 55.1725 52.4066 54.8007 52.2527C54.429 52.0987 54.1113 51.8379 53.8878 51.5034C53.6642 51.1689 53.5449 50.7755 53.5449 50.3732C53.5449 50.106 53.5975 49.8415 53.6998 49.5947C53.802 49.3479 53.9519 49.1236 54.1408 48.9347C54.3297 48.7458 54.5539 48.596 54.8007 48.4937C55.0476 48.3915 55.3121 48.3389 55.5792 48.3389" fill="white"/>
<path opacity="0.5" d="M59.6486 44.2698C60.0509 44.2698 60.4442 44.3891 60.7788 44.6126C61.1133 44.8362 61.3741 45.1539 61.528 45.5256C61.682 45.8973 61.7223 46.3064 61.6438 46.701C61.5653 47.0956 61.3716 47.4581 61.0871 47.7426C60.8026 48.0271 60.4401 48.2208 60.0455 48.2993C59.6508 48.3778 59.2418 48.3375 58.8701 48.1836C58.4984 48.0296 58.1806 47.7688 57.9571 47.4343C57.7336 47.0998 57.6143 46.7064 57.6143 46.3041C57.6143 45.7646 57.8286 45.2471 58.2101 44.8656C58.5916 44.4841 59.109 44.2698 59.6486 44.2698Z" fill="white"/>
<path opacity="0.5" d="M55.5792 44.2698C55.9816 44.2698 56.3749 44.3891 56.7094 44.6126C57.044 44.8362 57.3047 45.1539 57.4587 45.5256C57.6127 45.8973 57.653 46.3064 57.5745 46.701C57.496 47.0956 57.3022 47.4581 57.0177 47.7426C56.7332 48.0271 56.3707 48.2208 55.9761 48.2993C55.5815 48.3778 55.1725 48.3375 54.8007 48.1836C54.429 48.0296 54.1113 47.7688 53.8878 47.4343C53.6642 47.0998 53.5449 46.7064 53.5449 46.3041C53.5449 45.7646 53.7593 45.2471 54.1408 44.8656C54.5223 44.4841 55.0397 44.2698 55.5792 44.2698" fill="white"/>
<path opacity="0.5" d="M59.6486 40.2007C60.0509 40.2007 60.4442 40.32 60.7788 40.5435C61.1133 40.7671 61.3741 41.0848 61.528 41.4565C61.682 41.8282 61.7223 42.2373 61.6438 42.6319C61.5653 43.0265 61.3716 43.389 61.0871 43.6735C60.8026 43.958 60.4401 44.1517 60.0455 44.2302C59.6508 44.3087 59.2418 44.2684 58.8701 44.1145C58.4984 43.9605 58.1806 43.6998 57.9571 43.3652C57.7336 43.0307 57.6143 42.6374 57.6143 42.235C57.6158 41.6959 57.8306 41.1794 58.2118 40.7982C58.593 40.417 59.1095 40.2022 59.6486 40.2007Z" fill="white"/>
<path opacity="0.5" d="M55.5792 40.2007C55.9816 40.2007 56.3749 40.32 56.7094 40.5435C57.044 40.7671 57.3047 41.0848 57.4587 41.4565C57.6127 41.8282 57.653 42.2373 57.5745 42.6319C57.496 43.0265 57.3022 43.389 57.0177 43.6735C56.7332 43.958 56.3707 44.1517 55.9761 44.2302C55.5815 44.3087 55.1725 44.2684 54.8007 44.1145C54.429 43.9605 54.1113 43.6998 53.8878 43.3652C53.6642 43.0307 53.5449 42.6374 53.5449 42.235C53.5449 41.6955 53.7593 41.178 54.1408 40.7965C54.5223 40.415 55.0397 40.2007 55.5792 40.2007" fill="white"/>
<path opacity="0.5" d="M59.6486 36.1382C60.0512 36.1382 60.4447 36.2576 60.7794 36.4814C61.1141 36.7052 61.3748 37.0233 61.5286 37.3953C61.6824 37.7674 61.7223 38.1767 61.6434 38.5715C61.5644 38.9663 61.3701 39.3288 61.085 39.613C60.7999 39.8973 60.4369 40.0906 60.0419 40.1684C59.6469 40.2463 59.2377 40.2052 58.8661 40.0503C58.4944 39.8954 58.1771 39.6338 57.9543 39.2985C57.7315 38.9632 57.6131 38.5693 57.6143 38.1667C57.6158 37.6282 57.8308 37.1122 58.2122 36.732C58.5935 36.3517 59.11 36.1382 59.6486 36.1382" fill="white"/>
<path opacity="0.5" d="M63.7179 48.3389C64.1203 48.3389 64.5136 48.4582 64.8481 48.6817C65.1827 48.9052 65.4434 49.223 65.5974 49.5947C65.7513 49.9664 65.7916 50.3754 65.7131 50.7701C65.6347 51.1647 65.4409 51.5272 65.1564 51.8117C64.8719 52.0962 64.5094 52.2899 64.1148 52.3684C63.7202 52.4469 63.3111 52.4066 62.9394 52.2527C62.5677 52.0987 62.25 51.8379 62.0264 51.5034C61.8029 51.1689 61.6836 50.7755 61.6836 50.3732C61.6836 50.106 61.7362 49.8415 61.8384 49.5947C61.9407 49.3479 62.0905 49.1236 62.2794 48.9347C62.4683 48.7458 62.6926 48.596 62.9394 48.4937C63.1862 48.3915 63.4508 48.3389 63.7179 48.3389" fill="white"/>
<path opacity="0.5" d="M63.7179 44.2698C64.1203 44.2698 64.5136 44.3891 64.8481 44.6126C65.1827 44.8362 65.4434 45.1539 65.5974 45.5256C65.7513 45.8973 65.7916 46.3064 65.7131 46.701C65.6347 47.0956 65.4409 47.4581 65.1564 47.7426C64.8719 48.0271 64.5094 48.2208 64.1148 48.2993C63.7202 48.3778 63.3111 48.3375 62.9394 48.1836C62.5677 48.0296 62.25 47.7688 62.0264 47.4343C61.8029 47.0998 61.6836 46.7064 61.6836 46.3041C61.6836 45.7646 61.8979 45.2471 62.2794 44.8656C62.6609 44.4841 63.1784 44.2698 63.7179 44.2698Z" fill="white"/>
<path opacity="0.5" d="M63.7179 40.2007C64.1203 40.2007 64.5136 40.32 64.8481 40.5435C65.1827 40.7671 65.4434 41.0848 65.5974 41.4565C65.7513 41.8282 65.7916 42.2373 65.7131 42.6319C65.6347 43.0265 65.4409 43.389 65.1564 43.6735C64.8719 43.958 64.5094 44.1517 64.1148 44.2302C63.7202 44.3087 63.3111 44.2684 62.9394 44.1145C62.5677 43.9605 62.25 43.6998 62.0264 43.3652C61.8029 43.0307 61.6836 42.6374 61.6836 42.235C61.6851 41.6959 61.8999 41.1794 62.2811 40.7982C62.6623 40.417 63.1788 40.2022 63.7179 40.2007Z" fill="white"/>
<path opacity="0.5" d="M63.7179 36.1382C64.1205 36.1382 64.5141 36.2576 64.8487 36.4814C65.1834 36.7052 65.4441 37.0233 65.5979 37.3953C65.7517 37.7674 65.7917 38.1767 65.7127 38.5715C65.6338 38.9663 65.4394 39.3288 65.1543 39.613C64.8693 39.8973 64.5062 40.0906 64.1112 40.1684C63.7162 40.2463 63.307 40.2052 62.9354 40.0503C62.5638 39.8954 62.2465 39.6338 62.0236 39.2985C61.8008 38.9632 61.6825 38.5693 61.6836 38.1667C61.6851 37.6282 61.9001 37.1122 62.2815 36.732C62.6628 36.3517 63.1794 36.1382 63.7179 36.1382" fill="white"/>
<path opacity="0.5" d="M67.7861 48.3389H69.8147V52.3959H67.7861C67.2746 52.3572 66.7966 52.1267 66.4478 51.7506C66.0991 51.3744 65.9053 50.8804 65.9053 50.3674C65.9053 49.8544 66.0991 49.3604 66.4478 48.9842C66.7966 48.6081 67.2746 48.3776 67.7861 48.3389" fill="white"/>
<path opacity="0.5" d="M67.7861 44.2698H69.8147V48.3268H67.7861C67.2746 48.2881 66.7966 48.0576 66.4478 47.6815C66.0991 47.3053 65.9053 46.8113 65.9053 46.2983C65.9053 45.7853 66.0991 45.2913 66.4478 44.9151C66.7966 44.539 67.2746 44.3085 67.7861 44.2698Z" fill="white"/>
<path opacity="0.5" d="M67.7861 40.2007H69.8147V44.2577H67.7861C67.2746 44.219 66.7966 43.9885 66.4478 43.6124C66.0991 43.2362 65.9053 42.7422 65.9053 42.2292C65.9053 41.7162 66.0991 41.2222 66.4478 40.846C66.7966 40.4699 67.2746 40.2394 67.7861 40.2007" fill="white"/>
<path opacity="0.5" d="M67.7854 36.1384H69.814V40.1954H67.7854C67.5061 40.2165 67.2255 40.1798 66.9611 40.0874C66.6967 39.995 66.4542 39.8491 66.2488 39.6586C66.0434 39.4682 65.8796 39.2374 65.7675 38.9807C65.6555 38.724 65.5977 38.447 65.5977 38.1669C65.5977 37.8868 65.6555 37.6097 65.7675 37.3531C65.8796 37.0964 66.0434 36.8656 66.2488 36.6751C66.4542 36.4847 66.6967 36.3387 66.9611 36.2464C67.2255 36.154 67.5061 36.1172 67.7854 36.1384Z" fill="white"/>
<path opacity="0.5" d="M61.6829 72.75H57.6143V76.8186H61.6829V72.75Z" fill="white"/>
<path opacity="0.5" d="M57.6137 72.75V76.807H53.5566C53.5566 75.7311 53.9841 74.6991 54.7449 73.9383C55.5058 73.1774 56.5377 72.75 57.6137 72.75" fill="white"/>
<path opacity="0.5" d="M53.5462 72.75H49.4775V76.8186H53.5462V72.75Z" fill="white"/>
<path opacity="0.5" d="M61.6829 68.6809H57.6143V72.7495H61.6829V68.6809Z" fill="white"/>
<path opacity="0.5" d="M49.4775 68.6809H53.5346C53.5346 69.7569 53.1071 70.7888 52.3463 71.5497C51.5855 72.3105 50.5535 72.738 49.4775 72.738V68.6809Z" fill="white"/>
<path opacity="0.5" d="M61.6829 64.6118H57.6143V68.6805H61.6829V64.6118Z" fill="white"/>
<path opacity="0.5" d="M57.6136 64.6118H53.5449V68.6805H57.6136V64.6118Z" fill="white"/>
<path opacity="0.5" d="M53.5462 64.6118H49.4775V68.6805H53.5462V64.6118Z" fill="white"/>
<path opacity="0.5" d="M61.6829 60.5439H57.6143V64.6126H61.6829V60.5439Z" fill="white"/>
<path opacity="0.5" d="M55.5792 60.5439C55.9816 60.5439 56.3749 60.6633 56.7094 60.8868C57.044 61.1103 57.3047 61.428 57.4587 61.7998C57.6127 62.1715 57.653 62.5805 57.5745 62.9751C57.496 63.3698 57.3022 63.7322 57.0177 64.0167C56.7332 64.3012 56.3707 64.495 55.9761 64.5735C55.5815 64.652 55.1725 64.6117 54.8007 64.4577C54.429 64.3038 54.1113 64.043 53.8878 63.7085C53.6642 63.3739 53.5449 62.9806 53.5449 62.5783C53.5449 62.0387 53.7593 61.5213 54.1408 61.1398C54.5223 60.7583 55.0397 60.5439 55.5792 60.5439" fill="white"/>
<path opacity="0.5" d="M53.5462 60.5439H49.4775V64.6126H53.5462V60.5439Z" fill="white"/>
<path opacity="0.5" d="M61.6829 56.4758H57.6143V60.5445H61.6829V56.4758Z" fill="white"/>
<path opacity="0.5" d="M49.4775 56.4758H53.5346C53.5346 57.5518 53.1071 58.5837 52.3463 59.3446C51.5855 60.1054 50.5535 60.5329 49.4775 60.5329V56.4758Z" fill="white"/>
<path opacity="0.5" d="M59.6487 52.4067C59.9159 52.4067 60.1804 52.4594 60.4272 52.5616C60.674 52.6638 60.8983 52.8137 61.0872 53.0026C61.2761 53.1915 61.4259 53.4157 61.5282 53.6626C61.6304 53.9094 61.683 54.1739 61.683 54.4411V56.4754H57.626V54.4411C57.626 53.9015 57.8403 53.3841 58.2218 53.0026C58.6033 52.6211 59.1208 52.4067 59.6603 52.4067" fill="white"/>
<path opacity="0.5" d="M55.5794 52.4067C55.8465 52.4067 56.1111 52.4594 56.3579 52.5616C56.6047 52.6638 56.8289 52.8137 57.0178 53.0026C57.2067 53.1915 57.3566 53.4157 57.4588 53.6626C57.5611 53.9094 57.6137 54.1739 57.6137 54.4411V56.4754H53.5566V54.4411C53.5566 53.9015 53.771 53.3841 54.1525 53.0026C54.534 52.6211 55.0514 52.4067 55.591 52.4067" fill="white"/>
<path opacity="0.5" d="M51.511 52.4067C52.0505 52.4067 52.568 52.6211 52.9495 53.0026C53.331 53.3841 53.5453 53.9015 53.5453 54.4411V56.4754H49.4883V54.4411C49.4883 53.9015 49.7026 53.3841 50.0841 53.0026C50.4656 52.6211 50.9831 52.4067 51.5226 52.4067" fill="white"/>
<path opacity="0.5" d="M61.6836 72.75H65.7406V76.807C64.6646 76.807 63.6327 76.3796 62.8719 75.6188C62.111 74.8579 61.6836 73.826 61.6836 72.75" fill="white"/>
<path opacity="0.5" d="M65.7522 68.6809H61.6836V72.7495H65.7522V68.6809Z" fill="white"/>
<path opacity="0.5" d="M65.7522 64.6118H61.6836V68.6805H65.7522V64.6118Z" fill="white"/>
<path opacity="0.5" d="M61.6836 60.5439H65.7406V64.601C64.6646 64.601 63.6327 64.1736 62.8719 63.4127C62.111 62.6519 61.6836 61.6199 61.6836 60.5439" fill="white"/>
<path opacity="0.5" d="M65.7522 56.4758H61.6836V60.5445H65.7522V56.4758Z" fill="white"/>
<path opacity="0.5" d="M63.718 52.4067C64.2576 52.4067 64.775 52.6211 65.1565 53.0026C65.538 53.3841 65.7524 53.9015 65.7524 54.4411V56.4754H61.6953V54.4411C61.6953 53.9015 61.9096 53.3841 62.2911 53.0026C62.6727 52.6211 63.1901 52.4067 63.7296 52.4067" fill="white"/>
<path opacity="0.5" d="M67.7863 72.75C68.1886 72.75 68.5819 72.8693 68.9165 73.0928C69.251 73.3164 69.5118 73.6341 69.6657 74.0058C69.8197 74.3775 69.86 74.7866 69.7815 75.1812C69.703 75.5758 69.5093 75.9383 69.2248 76.2228C68.9402 76.5073 68.5778 76.701 68.1831 76.7795C67.7885 76.858 67.3795 76.8178 67.0078 76.6638C66.636 76.5098 66.3183 76.2491 66.0948 75.9145C65.8713 75.58 65.752 75.1867 65.752 74.7843C65.752 74.2448 65.9663 73.7273 66.3478 73.3458C66.7293 72.9643 67.2467 72.75 67.7863 72.75" fill="white"/>
<path opacity="0.5" d="M69.8206 64.6118H65.752V68.6805H69.8206V64.6118Z" fill="white"/>
<path opacity="0.5" d="M69.8206 60.5439H65.752V64.6126H69.8206V60.5439Z" fill="white"/>
<path opacity="0.5" d="M65.752 56.4758H69.809C69.809 57.5518 69.3816 58.5837 68.6207 59.3446C67.8599 60.1054 66.8279 60.5329 65.752 60.5329V56.4758Z" fill="white"/>
<path opacity="0.5" d="M67.7863 52.4067H69.8149V56.4638H65.7578V54.4411C65.7578 53.9015 65.9721 53.3841 66.3537 53.0026C66.7352 52.6211 67.2526 52.4067 67.7921 52.4067" fill="white"/>
<path opacity="0.5" d="M77.9526 11.738H73.8955C73.8955 12.2708 74.0004 12.7984 74.2043 13.2906C74.4082 13.7828 74.7071 14.2301 75.0838 14.6068C75.8446 15.3676 76.8766 15.7951 77.9526 15.7951V11.738Z" fill="white"/>
<path opacity="0.5" d="M75.9171 7.68115C75.5148 7.68115 75.1215 7.80046 74.7869 8.024C74.4524 8.24753 74.1916 8.56525 74.0377 8.93697C73.8837 9.30869 73.8434 9.71773 73.9219 10.1123C74.0004 10.507 74.1942 10.8694 74.4787 11.154C74.7632 11.4385 75.1256 11.6322 75.5203 11.7107C75.9149 11.7892 76.3239 11.7489 76.6956 11.5949C77.0674 11.441 77.3851 11.1802 77.6086 10.8457C77.8321 10.5111 77.9515 10.1178 77.9515 9.71547C77.9515 9.17594 77.7371 8.6585 77.3556 8.27699C76.9741 7.89548 76.4567 7.68115 75.9171 7.68115Z" fill="white"/>
<path opacity="0.5" d="M75.9171 52.4067C75.5148 52.4067 75.1215 52.5261 74.7869 52.7496C74.4524 52.9731 74.1916 53.2908 74.0377 53.6626C73.8837 54.0343 73.8434 54.4433 73.9219 54.8379C74.0004 55.2326 74.1942 55.595 74.4787 55.8795C74.7632 56.164 75.1256 56.3578 75.5203 56.4363C75.9149 56.5148 76.3239 56.4745 76.6956 56.3205C77.0674 56.1665 77.3851 55.9058 77.6086 55.5713C77.8321 55.2367 77.9515 54.8434 77.9515 54.4411C77.9515 53.9015 77.7371 53.3841 77.3556 53.0026C76.9741 52.6211 76.4567 52.4067 75.9171 52.4067" fill="white"/>
<path opacity="0.5" d="M75.9171 48.3389C75.5148 48.3389 75.1215 48.4582 74.7869 48.6817C74.4524 48.9052 74.1916 49.223 74.0377 49.5947C73.8837 49.9664 73.8434 50.3754 73.9219 50.7701C74.0004 51.1647 74.1942 51.5272 74.4787 51.8117C74.7632 52.0962 75.1256 52.2899 75.5203 52.3684C75.9149 52.4469 76.3239 52.4066 76.6956 52.2527C77.0674 52.0987 77.3851 51.8379 77.6086 51.5034C77.8321 51.1689 77.9515 50.7755 77.9515 50.3732C77.9515 50.106 77.8988 49.8415 77.7966 49.5947C77.6944 49.3479 77.5445 49.1236 77.3556 48.9347C77.1667 48.7458 76.9424 48.596 76.6956 48.4937C76.4488 48.3915 76.1843 48.3389 75.9171 48.3389" fill="white"/>
<path opacity="0.5" d="M75.9171 44.2698C75.5148 44.2698 75.1215 44.3891 74.7869 44.6126C74.4524 44.8362 74.1916 45.1539 74.0377 45.5256C73.8837 45.8973 73.8434 46.3064 73.9219 46.701C74.0004 47.0956 74.1942 47.4581 74.4787 47.7426C74.7632 48.0271 75.1256 48.2208 75.5203 48.2993C75.9149 48.3778 76.3239 48.3375 76.6956 48.1836C77.0674 48.0296 77.3851 47.7688 77.6086 47.4343C77.8321 47.0998 77.9515 46.7064 77.9515 46.3041C77.9515 45.7646 77.7371 45.2471 77.3556 44.8656C76.9741 44.4841 76.4567 44.2698 75.9171 44.2698Z" fill="white"/>
<path opacity="0.5" d="M73.8891 72.75H69.832V74.7843C69.8856 75.2849 70.1224 75.748 70.4969 76.0846C70.8714 76.4211 71.3571 76.6073 71.8606 76.6073C72.364 76.6073 72.8497 76.4211 73.2242 76.0846C73.5987 75.748 73.8355 75.2849 73.8891 74.7843V72.75Z" fill="white"/>
<path opacity="0.5" d="M73.8831 68.6809H69.8145V72.7495H73.8831V68.6809Z" fill="white"/>
<path opacity="0.5" d="M73.8891 64.6118H69.832C69.832 65.6878 70.2595 66.7197 71.0203 67.4806C71.7812 68.2414 72.8131 68.6689 73.8891 68.6689V64.6118Z" fill="white"/>
<path opacity="0.5" d="M73.8831 60.5439H69.8145V64.6126H73.8831V60.5439Z" fill="white"/>
<path opacity="0.5" d="M67.7863 32.0693H65.752V36.1263H67.7863C68.0656 36.1474 68.3462 36.1107 68.6106 36.0183C68.875 35.9259 69.1175 35.78 69.3229 35.5895C69.5283 35.3991 69.6921 35.1683 69.8042 34.9116C69.9162 34.6549 69.974 34.3779 69.974 34.0978C69.974 33.8177 69.9162 33.5406 69.8042 33.284C69.6921 33.0273 69.5283 32.7965 69.3229 32.606C69.1175 32.4156 68.875 32.2696 68.6106 32.1773C68.3462 32.0849 68.0656 32.0481 67.7863 32.0693Z" fill="white"/>
<path opacity="0.5" d="M67.7863 28.001H65.752V32.058H67.7863C68.2978 32.0193 68.7758 31.7888 69.1246 31.4127C69.4733 31.0365 69.6671 30.5425 69.6671 30.0295C69.6671 29.5165 69.4733 29.0225 69.1246 28.6463C68.7758 28.2702 68.2978 28.0397 67.7863 28.001" fill="white"/>
<path opacity="0.5" d="M67.7863 23.9084H65.752V27.9655H67.7863C68.2978 27.9268 68.7758 27.6963 69.1246 27.3201C69.4733 26.944 69.6671 26.4499 69.6671 25.937C69.6671 25.424 69.4733 24.93 69.1246 24.5538C68.7758 24.1776 68.2978 23.9471 67.7863 23.9084" fill="white"/>
<path opacity="0.5" d="M65.7522 32.0691H61.6836V36.1377H65.7522V32.0691Z" fill="white"/>
<path opacity="0.5" d="M65.7522 28.001H61.6836V32.0696H65.7522V28.001Z" fill="white"/>
<path opacity="0.5" d="M77.9515 -0.479492H73.8828V3.58915H77.9515V-0.479492Z" fill="white"/>
<path opacity="0.5" d="M71.8488 56.4758C71.4464 56.4758 71.0531 56.5951 70.7186 56.8187C70.384 57.0422 70.1233 57.3599 69.9693 57.7316C69.8153 58.1034 69.775 58.5124 69.8535 58.907C69.932 59.3016 70.1258 59.6641 70.4103 59.9486C70.6948 60.2331 71.0573 60.4269 71.4519 60.5054C71.8465 60.5839 72.2556 60.5436 72.6273 60.3896C72.999 60.2356 73.3167 59.9749 73.5403 59.6404C73.7638 59.3058 73.8831 58.9125 73.8831 58.5101C73.8831 57.9706 73.6688 57.4532 73.2873 57.0717C72.9057 56.6902 72.3883 56.4758 71.8488 56.4758" fill="white"/>
<path opacity="0.5" d="M71.8488 48.3389C71.4464 48.3389 71.0531 48.4582 70.7186 48.6817C70.384 48.9052 70.1233 49.223 69.9693 49.5947C69.8153 49.9664 69.775 50.3754 69.8535 50.7701C69.932 51.1647 70.1258 51.5272 70.4103 51.8117C70.6948 52.0962 71.0573 52.2899 71.4519 52.3684C71.8465 52.4469 72.2556 52.4066 72.6273 52.2527C72.999 52.0987 73.3167 51.8379 73.5403 51.5034C73.7638 51.1689 73.8831 50.7755 73.8831 50.3732C73.8831 49.8337 73.6688 49.3162 73.2873 48.9347C72.9057 48.5532 72.3883 48.3389 71.8488 48.3389Z" fill="white"/>
<path opacity="0.5" d="M71.8488 56.4754C72.2514 56.4765 72.6453 56.3582 72.9806 56.1353C73.3159 55.9125 73.5776 55.5952 73.7324 55.2236C73.8873 54.852 73.9284 54.4427 73.8506 54.0477C73.7727 53.6527 73.5794 53.2897 73.2952 53.0046C73.0109 52.7195 72.6484 52.5252 72.2536 52.4463C71.8589 52.3673 71.4495 52.4072 71.0775 52.561C70.7054 52.7148 70.3874 52.9756 70.1636 53.3102C69.9398 53.6449 69.8203 54.0385 69.8203 54.4411C69.8203 54.9796 70.0338 55.4961 70.4141 55.8775C70.7944 56.2588 71.3103 56.4738 71.8488 56.4754Z" fill="white"/>
<path opacity="0.5" d="M71.8488 44.2698C71.4464 44.2698 71.0531 44.3891 70.7186 44.6126C70.384 44.8362 70.1233 45.1539 69.9693 45.5256C69.8153 45.8973 69.775 46.3064 69.8535 46.701C69.932 47.0956 70.1258 47.4581 70.4103 47.7426C70.6948 48.0271 71.0573 48.2208 71.4519 48.2993C71.8465 48.3778 72.2556 48.3375 72.6273 48.1836C72.999 48.0296 73.3167 47.7688 73.5403 47.4343C73.7638 47.0998 73.8831 46.7064 73.8831 46.3041C73.8831 45.7646 73.6688 45.2471 73.2873 44.8656C72.9057 44.4841 72.3883 44.2698 71.8488 44.2698" fill="white"/>
<path opacity="0.5" d="M41.3398 3.5874C42.4158 3.5874 43.4478 4.01484 44.2086 4.77568C44.9695 5.53653 45.3969 6.56845 45.3969 7.64445H41.3398V3.5874Z" fill="white"/>
<path opacity="0.5" d="M41.3401 3.5874H37.2715V7.65604H41.3401V3.5874Z" fill="white"/>
<path opacity="0.5" d="M51.5119 7.68115C51.9142 7.68115 52.3075 7.80046 52.6421 8.024C52.9766 8.24753 53.2373 8.56525 53.3913 8.93697C53.5453 9.30869 53.5856 9.71773 53.5071 10.1123C53.4286 10.507 53.2348 10.8694 52.9503 11.154C52.6658 11.4385 52.3034 11.6322 51.9087 11.7107C51.5141 11.7892 51.1051 11.7489 50.7334 11.5949C50.3616 11.441 50.0439 11.1802 49.8204 10.8457C49.5968 10.5111 49.4775 10.1178 49.4775 9.71547C49.4775 9.17594 49.6919 8.6585 50.0734 8.27699C50.4549 7.89548 50.9723 7.68115 51.5119 7.68115Z" fill="white"/>
<path opacity="0.5" d="M51.5119 3.5874C51.9142 3.5874 52.3075 3.70671 52.6421 3.93025C52.9766 4.15378 53.2373 4.4715 53.3913 4.84322C53.5453 5.21494 53.5856 5.62398 53.5071 6.0186C53.4286 6.41322 53.2348 6.7757 52.9503 7.0602C52.6658 7.34471 52.3034 7.53846 51.9087 7.61695C51.5141 7.69545 51.1051 7.65516 50.7334 7.50119C50.3616 7.34721 50.0439 7.08647 49.8204 6.75193C49.5968 6.41739 49.4775 6.02407 49.4775 5.62172C49.4775 5.08219 49.6919 4.56475 50.0734 4.18324C50.4549 3.80173 50.9723 3.5874 51.5119 3.5874" fill="white"/>
<path opacity="0.5" d="M47.4425 19.8516C47.8449 19.8516 48.2382 19.9709 48.5727 20.1944C48.9073 20.4179 49.168 20.7357 49.322 21.1074C49.476 21.4791 49.5162 21.8881 49.4378 22.2828C49.3593 22.6774 49.1655 23.0399 48.881 23.3244C48.5965 23.6089 48.234 23.8026 47.8394 23.8811C47.4448 23.9596 47.0357 23.9193 46.664 23.7653C46.2923 23.6114 45.9746 23.3506 45.751 23.0161C45.5275 22.6815 45.4082 22.2882 45.4082 21.8859C45.4082 21.3463 45.6225 20.8289 46.004 20.4474C46.3856 20.0659 46.903 19.8516 47.4425 19.8516Z" fill="white"/>
<path opacity="0.5" d="M41.3398 19.8516H45.3969C45.3969 20.9276 44.9695 21.9595 44.2086 22.7203C43.4478 23.4812 42.4158 23.9086 41.3398 23.9086V19.8516Z" fill="white"/>
<path opacity="0.5" d="M41.3401 19.864H37.2715V23.9327H41.3401V19.864Z" fill="white"/>
<path opacity="0.5" d="M49.4768 15.7947H45.4082V19.8633H49.4768V15.7947Z" fill="white"/>
<path opacity="0.5" d="M43.3742 15.7947C43.7765 15.7947 44.1698 15.914 44.5044 16.1375C44.8389 16.3611 45.0997 16.6788 45.2536 17.0505C45.4076 17.4222 45.4479 17.8313 45.3694 18.2259C45.2909 18.6205 45.0971 18.983 44.8126 19.2675C44.5281 19.552 44.1657 19.7457 43.771 19.8242C43.3764 19.9027 42.9674 19.8624 42.5957 19.7085C42.2239 19.5545 41.9062 19.2937 41.6827 18.9592C41.4592 18.6247 41.3398 18.2313 41.3398 17.829C41.3398 17.2895 41.5542 16.772 41.9357 16.3905C42.3172 16.009 42.8346 15.7947 43.3742 15.7947Z" fill="white"/>
<path opacity="0.5" d="M37.2715 15.7947C38.3475 15.7947 39.3794 16.2221 40.1402 16.983C40.9011 17.7438 41.3285 18.7757 41.3285 19.8517H37.2715V15.7947Z" fill="white"/>
<path opacity="0.5" d="M43.3742 11.738C43.7765 11.738 44.1698 11.8573 44.5044 12.0809C44.8389 12.3044 45.0997 12.6221 45.2536 12.9939C45.4076 13.3656 45.4479 13.7746 45.3694 14.1692C45.2909 14.5639 45.0971 14.9263 44.8126 15.2108C44.5281 15.4953 44.1657 15.6891 43.771 15.7676C43.3764 15.8461 42.9674 15.8058 42.5957 15.6518C42.2239 15.4978 41.9062 15.2371 41.6827 14.9026C41.4592 14.568 41.3398 14.1747 41.3398 13.7724C41.3398 13.2328 41.5542 12.7154 41.9357 12.3339C42.3172 11.9524 42.8346 11.738 43.3742 11.738" fill="white"/>
<path opacity="0.5" d="M39.3058 11.738C39.7082 11.738 40.1015 11.8573 40.436 12.0809C40.7705 12.3044 41.0313 12.6221 41.1853 12.9939C41.3392 13.3656 41.3795 13.7746 41.301 14.1692C41.2225 14.5639 41.0288 14.9263 40.7443 15.2108C40.4598 15.4953 40.0973 15.6891 39.7027 15.7676C39.3081 15.8461 38.899 15.8058 38.5273 15.6518C38.1556 15.4978 37.8379 15.2371 37.6143 14.9026C37.3908 14.568 37.2715 14.1747 37.2715 13.7724C37.2715 13.2328 37.4858 12.7154 37.8673 12.3339C38.2488 11.9524 38.7663 11.738 39.3058 11.738" fill="white"/>
<path opacity="0.5" d="M47.4425 7.68115C47.8449 7.68115 48.2382 7.80046 48.5727 8.024C48.9073 8.24753 49.168 8.56525 49.322 8.93697C49.476 9.30869 49.5162 9.71773 49.4378 10.1123C49.3593 10.507 49.1655 10.8694 48.881 11.154C48.5965 11.4385 48.234 11.6322 47.8394 11.7107C47.4448 11.7892 47.0357 11.7489 46.664 11.5949C46.2923 11.441 45.9746 11.1802 45.751 10.8457C45.5275 10.5111 45.4082 10.1178 45.4082 9.71547C45.4082 9.17594 45.6225 8.6585 46.004 8.27699C46.3856 7.89548 46.903 7.68115 47.4425 7.68115Z" fill="white"/>
<path opacity="0.5" d="M45.4085 7.65869H41.3398V11.7273H45.4085V7.65869Z" fill="white"/>
<path opacity="0.5" d="M37.2715 7.68115H41.3285C41.3285 8.75715 40.9011 9.78907 40.1402 10.5499C39.3794 11.3108 38.3475 11.7382 37.2715 11.7382V7.68115Z" fill="white"/>
<path opacity="0.5" d="M55.5792 19.8508H53.5449V23.9078H55.5792C55.8585 23.9289 56.1392 23.8922 56.4036 23.7998C56.668 23.7074 56.9105 23.5615 57.1159 23.371C57.3212 23.1806 57.4851 22.9498 57.5971 22.6931C57.7092 22.4364 57.767 22.1594 57.767 21.8793C57.767 21.5992 57.7092 21.3221 57.5971 21.0655C57.4851 20.8088 57.3212 20.578 57.1159 20.3875C56.9105 20.1971 56.668 20.0511 56.4036 19.9588C56.1392 19.8664 55.8585 19.8296 55.5792 19.8508" fill="white"/>
<path opacity="0.5" d="M57.6137 15.7947H53.5566V19.8517H55.591C56.1305 19.8517 56.6479 19.6374 57.0294 19.2559C57.4109 18.8744 57.6253 18.3569 57.6253 17.8174L57.6137 15.7947Z" fill="white"/>
<path opacity="0.5" d="M57.6136 11.7268H53.5449V15.7954H57.6136V11.7268Z" fill="white"/>
<path opacity="0.5" d="M57.6137 7.68115C56.5377 7.68115 55.5058 8.10859 54.7449 8.86943C53.9841 9.63028 53.5566 10.6622 53.5566 11.7382H57.6137V7.68115Z" fill="white"/>
<path opacity="0.5" d="M53.5453 19.8516H49.4883C49.4883 20.9276 49.9157 21.9595 50.6766 22.7203C51.4374 23.4812 52.4693 23.9086 53.5453 23.9086V19.8516Z" fill="white"/>
<path opacity="0.5" d="M53.5462 15.7947H49.4775V19.8633H53.5462V15.7947Z" fill="white"/>
<path opacity="0.5" d="M49.4775 11.738V15.7951H53.5346C53.5346 14.7191 53.1071 13.6872 52.3463 12.9263C51.5855 12.1655 50.5535 11.738 49.4775 11.738" fill="white"/>
<path opacity="0.5" d="M55.5792 3.5874C55.9816 3.5874 56.3749 3.70671 56.7094 3.93025C57.044 4.15378 57.3047 4.4715 57.4587 4.84322C57.6127 5.21494 57.653 5.62398 57.5745 6.0186C57.496 6.41322 57.3022 6.7757 57.0177 7.0602C56.7332 7.34471 56.3707 7.53846 55.9761 7.61695C55.5815 7.69545 55.1725 7.65516 54.8007 7.50119C54.429 7.34721 54.1113 7.08647 53.8878 6.75193C53.6642 6.41739 53.5449 6.02407 53.5449 5.62172C53.5449 5.08219 53.7593 4.56475 54.1408 4.18324C54.5223 3.80173 55.0397 3.5874 55.5792 3.5874" fill="white"/>
<path opacity="0.5" d="M73.8889 28.001H69.8203V32.0696H73.8889V28.001Z" fill="white"/>
<path opacity="0.5" d="M73.8889 23.9319H69.8203V28.0005H73.8889V23.9319Z" fill="white"/>
<path opacity="0.5" d="M69.8203 40.2007V44.2577H73.8774C73.8774 43.1817 73.4499 42.1498 72.6891 41.389C71.9282 40.6281 70.8963 40.2007 69.8203 40.2007" fill="white"/>
<path opacity="0.5" d="M73.8832 19.8516C72.8072 19.8516 71.7753 20.279 71.0145 21.0398C70.2536 21.8007 69.8262 22.8326 69.8262 23.9086H73.8832V19.8516Z" fill="white"/>
<path opacity="0.5" d="M73.8889 36.1382H69.8203V40.2068H73.8889V36.1382Z" fill="white"/>
<path opacity="0.5" d="M73.8889 32.0691H69.8203V36.1377H73.8889V32.0691Z" fill="white"/>
<path opacity="0.5" d="M73.8832 11.738H69.8262C69.8262 12.2708 69.9311 12.7984 70.135 13.2906C70.3389 13.7828 70.6377 14.2301 71.0145 14.6068C71.7753 15.3676 72.8072 15.7951 73.8832 15.7951V11.738Z" fill="white"/>
<path opacity="0.5" d="M73.8889 7.65869H69.8203V11.7273H73.8889V7.65869Z" fill="white"/>
<path opacity="0.5" d="M73.8832 15.7947H69.8261V17.829C69.805 18.1083 69.8418 18.3889 69.9341 18.6533C70.0265 18.9177 70.1725 19.1602 70.3629 19.3656C70.5533 19.571 70.7841 19.7348 71.0408 19.8469C71.2975 19.9589 71.5746 20.0168 71.8546 20.0168C72.1347 20.0168 72.4118 19.9589 72.6685 19.8469C72.9252 19.7348 73.1559 19.571 73.3464 19.3656C73.5368 19.1602 73.6828 18.9177 73.7751 18.6533C73.8675 18.3889 73.9043 18.1083 73.8832 17.829V15.7947Z" fill="white"/>
<path opacity="0.5" d="M73.8889 3.5874H69.8203V7.65604H73.8889V3.5874Z" fill="white"/>
<path opacity="0.5" d="M73.8889 -0.479492H69.8203V3.58915H73.8889V-0.479492Z" fill="white"/>
<path opacity="0.5" d="M77.9515 19.864H73.8828V23.9327H77.9515V19.864Z" fill="white"/>
<path opacity="0.5" d="M77.9515 40.2007H73.8828V44.2693H77.9515V40.2007Z" fill="white"/>
<path opacity="0.5" d="M77.9515 36.1382H73.8828V40.2068H77.9515V36.1382Z" fill="white"/>
<path opacity="0.5" d="M77.9515 32.0691H73.8828V36.1377H77.9515V32.0691Z" fill="white"/>
<path opacity="0.5" d="M25.0657 -0.479492H20.9971V3.58915H25.0657V-0.479492Z" fill="white"/>
<path opacity="0.5" d="M29.1341 -0.479492H25.0654V3.58915H29.1341V-0.479492Z" fill="white"/>
<path opacity="0.5" d="M4.72293 7.65869H0.654297V11.7273H4.72293V7.65869Z" fill="white"/>
<path opacity="0.5" d="M4.72293 3.5874H0.654297V7.65604H4.72293V3.5874Z" fill="white"/>
<path opacity="0.5" d="M4.72293 15.7947H0.654297V19.8633H4.72293V15.7947Z" fill="white"/>
<path opacity="0.5" d="M-3.39258 15.7947H0.664468C0.664468 16.8707 0.237031 17.9026 -0.523813 18.6634C-1.28466 19.4243 -2.31658 19.8517 -3.39258 19.8517L-3.39258 15.7947Z" fill="white"/>
<path opacity="0.5" d="M-3.39258 11.738H0.664468C0.664468 12.2708 0.55953 12.7984 0.355644 13.2906C0.151758 13.7828 -0.147082 14.2301 -0.523813 14.6068C-0.900545 14.9835 -1.34779 15.2824 -1.84001 15.4863C-2.33224 15.6901 -2.8598 15.7951 -3.39258 15.7951L-3.39258 11.738Z" fill="white"/>
<path opacity="0.5" d="M0.653599 7.65869H-3.41504V11.7273H0.653599V7.65869Z" fill="white"/>
<path opacity="0.5" d="M0.653599 3.5874H-3.41504V7.65604H0.653599V3.5874Z" fill="white"/>
<path opacity="0.5" d="M8.79032 19.864H4.72168V23.9327H8.79032V19.864Z" fill="white"/>
<path opacity="0.5" d="M4.72168 15.7947C5.79768 15.7947 6.8296 16.2221 7.59044 16.983C8.35129 17.7438 8.77873 18.7757 8.77873 19.8517H4.72168V15.7947Z" fill="white"/>
<path opacity="0.5" d="M41.3398 -0.479492H45.3969C45.3969 0.596503 44.9695 1.62843 44.2086 2.38927C43.4478 3.15012 42.4158 3.57755 41.3398 3.57755V-0.479492Z" fill="white"/>
<path opacity="0.5" d="M41.3401 -0.479492H37.2715V3.58915H41.3401V-0.479492Z" fill="white"/>
<path opacity="0.5" d="M2.68777 44.2698C3.2273 44.2698 3.74474 44.4841 4.12625 44.8656C4.50776 45.2471 4.72209 45.7646 4.72209 46.3041V48.3384H0.665039V46.3041C0.665037 45.7656 0.87857 45.249 1.25883 44.8677C1.63908 44.4863 2.15503 44.2713 2.69356 44.2698" fill="white"/>
<path opacity="0.5" d="M2.68777 40.2007C3.0906 40.1984 3.48505 40.3158 3.82111 40.5379C4.15718 40.76 4.41972 41.077 4.57548 41.4485C4.73123 41.82 4.77317 42.2294 4.69599 42.6248C4.61881 43.0201 4.42598 43.3837 4.14194 43.6694C3.85791 43.955 3.49545 44.1499 3.10052 44.2294C2.70558 44.3088 2.29596 44.2692 1.92356 44.1156C1.55116 43.962 1.23276 43.7012 1.00871 43.3664C0.784654 43.0316 0.665046 42.6379 0.665039 42.235C0.665037 41.6965 0.87857 41.1799 1.25883 40.7986C1.63908 40.4173 2.15503 40.2023 2.69356 40.2007" fill="white"/>
<path opacity="0.5" d="M20.9964 44.2698H16.9277V48.3384H20.9964V44.2698Z" fill="white"/>
<path opacity="0.5" d="M12.8359 44.2698H16.893C16.893 45.3458 16.4655 46.3777 15.7047 47.1385C14.9439 47.8994 13.9119 48.3268 12.8359 48.3268V44.2698Z" fill="white"/>
<path opacity="0.5" d="M10.8252 44.2698H12.8363V48.3268H8.7793V46.3041C8.7793 45.7646 8.99363 45.2471 9.37514 44.8656C9.75664 44.4841 10.2741 44.2698 10.8136 44.2698" fill="white"/>
<path opacity="0.5" d="M6.756 44.2698C7.29352 44.2728 7.80799 44.4885 8.18699 44.8697C8.566 45.2509 8.77873 45.7666 8.77873 46.3041V48.3384H4.72168V46.3041C4.72168 45.7656 4.93521 45.249 5.31547 44.8677C5.69572 44.4863 6.21167 44.2713 6.7502 44.2698" fill="white"/>
<path opacity="0.5" d="M10.8242 40.2007H12.8354V44.2577H10.8242C10.3127 44.219 9.83471 43.9885 9.48593 43.6124C9.13715 43.2362 8.94336 42.7422 8.94336 42.2292C8.94336 41.7162 9.13715 41.2222 9.48593 40.846C9.83471 40.4699 10.3127 40.2394 10.8242 40.2007" fill="white"/>
<path opacity="0.5" d="M6.756 40.2007C7.15835 40.2007 7.55166 40.32 7.88621 40.5435C8.22075 40.7671 8.48149 41.0848 8.63546 41.4565C8.78944 41.8282 8.82972 42.2373 8.75123 42.6319C8.67273 43.0265 8.47898 43.389 8.19448 43.6735C7.90997 43.958 7.54749 44.1517 7.15287 44.2302C6.75826 44.3087 6.34922 44.2684 5.9775 44.1145C5.60577 43.9605 5.28806 43.6998 5.06452 43.3652C4.84099 43.0307 4.72168 42.6374 4.72168 42.235C4.72168 41.6965 4.93521 41.1799 5.31547 40.7986C5.69572 40.4172 6.21167 40.2022 6.7502 40.2007" fill="white"/>
<path opacity="0.5" d="M10.8255 36.1384H12.8366V40.1954H10.8255C10.5462 40.2165 10.2655 40.1798 10.0011 40.0874C9.73672 39.995 9.49423 39.8491 9.28885 39.6586C9.08347 39.4682 8.91962 39.2374 8.80758 38.9807C8.69553 38.724 8.6377 38.447 8.6377 38.1669C8.6377 37.8868 8.69553 37.6097 8.80758 37.3531C8.91962 37.0964 9.08347 36.8656 9.28885 36.6751C9.49423 36.4847 9.73672 36.3387 10.0011 36.2464C10.2655 36.154 10.5462 36.1172 10.8255 36.1384" fill="white"/>
<path opacity="0.5" d="M6.75601 36.1382C7.1586 36.1382 7.55215 36.2576 7.88681 36.4814C8.22148 36.7052 8.48222 37.0233 8.63602 37.3953C8.78982 37.7674 8.82977 38.1767 8.7508 38.5715C8.67184 38.9663 8.47751 39.3288 8.19243 39.613C7.90734 39.8973 7.54432 40.0906 7.14932 40.1684C6.75432 40.2463 6.3451 40.2052 5.97348 40.0503C5.60186 39.8954 5.28455 39.6338 5.06171 39.2985C4.83888 38.9632 4.72054 38.5693 4.72169 38.1667C4.72322 37.6292 4.93743 37.1141 5.31752 36.734C5.69761 36.3539 6.21268 36.1397 6.75021 36.1382" fill="white"/>
<path opacity="0.5" d="M33.2024 32.0691H29.1338V36.1377H33.2024V32.0691Z" fill="white"/>
<path opacity="0.5" d="M25.0657 32.0691H20.9971V36.1377H25.0657V32.0691Z" fill="white"/>
<path opacity="0.5" d="M18.9622 32.0693H20.9965V36.1263H18.9622C18.6829 36.1474 18.4023 36.1107 18.1379 36.0183C17.8734 35.9259 17.631 35.78 17.4256 35.5895C17.2202 35.3991 17.0563 35.1683 16.9443 34.9116C16.8322 34.6549 16.7744 34.3779 16.7744 34.0978C16.7744 33.8177 16.8322 33.5406 16.9443 33.284C17.0563 33.0273 17.2202 32.7965 17.4256 32.606C17.631 32.4156 17.8734 32.2696 18.1379 32.1773C18.4023 32.0849 18.6829 32.0481 18.9622 32.0693" fill="white"/>
<path opacity="0.5" d="M33.2024 28.001H29.1338V32.0696H33.2024V28.001Z" fill="white"/>
<path opacity="0.5" d="M25.0657 28.001H20.9971V32.0696H25.0657V28.001Z" fill="white"/>
<path opacity="0.5" d="M18.9619 28.001H20.9962V32.058H18.9619C18.4504 32.0193 17.9724 31.7888 17.6236 31.4127C17.2748 31.0365 17.0811 30.5425 17.0811 30.0295C17.0811 29.5165 17.2748 29.0225 17.6236 28.6463C17.9724 28.2702 18.4504 28.0397 18.9619 28.001Z" fill="white"/>
<path opacity="0.5" d="M29.1341 23.9319H25.0654V28.0005H29.1341V23.9319Z" fill="white"/>
<path opacity="0.5" d="M20.9971 23.9084H25.0541C25.0541 24.9844 24.6267 26.0164 23.8658 26.7772C23.105 27.5381 22.0731 27.9655 20.9971 27.9655V23.9084Z" fill="white"/>
<path opacity="0.5" d="M16.9277 23.9084H20.9848V27.9655H18.9621C18.4225 27.9655 17.9051 27.7512 17.5236 27.3697C17.1421 26.9881 16.9277 26.4707 16.9277 25.9312V23.9084Z" fill="white"/>
<path opacity="0.5" d="M14.8934 28.001C15.2948 28.0056 15.6858 28.1287 16.0173 28.355C16.3487 28.5813 16.6059 28.9006 16.7563 29.2727C16.9067 29.6448 16.9437 30.0531 16.8626 30.4462C16.7815 30.8393 16.586 31.1996 16.3006 31.4818C16.0152 31.764 15.6527 31.9554 15.2587 32.0321C14.8647 32.1087 14.4569 32.0671 14.0865 31.9124C13.7161 31.7578 13.3998 31.4971 13.1772 31.1631C12.9547 30.829 12.836 30.4367 12.8359 30.0353C12.8359 29.4958 13.0503 28.9783 13.4318 28.5968C13.8133 28.2153 14.3307 28.001 14.8703 28.001" fill="white"/>
<path opacity="0.5" d="M33.2021 28.001H37.2592C37.2592 29.077 36.8318 30.1089 36.0709 30.8697C35.3101 31.6306 34.2781 32.058 33.2021 32.058V28.001Z" fill="white"/>
<path opacity="0.5" d="M37.2708 23.9319H33.2021V28.0005H37.2708V23.9319Z" fill="white"/>
<path opacity="0.5" d="M23.0314 48.3389C23.4337 48.3389 23.8271 48.4582 24.1616 48.6817C24.4961 48.9052 24.7569 49.223 24.9109 49.5947C25.0648 49.9664 25.1051 50.3754 25.0266 50.7701C24.9481 51.1647 24.7544 51.5272 24.4699 51.8117C24.1854 52.0962 23.8229 52.2899 23.4283 52.3684C23.0336 52.4469 22.6246 52.4066 22.2529 52.2527C21.8812 52.0987 21.5634 51.8379 21.3399 51.5034C21.1164 51.1689 20.9971 50.7755 20.9971 50.3732C20.9971 50.106 21.0497 49.8415 21.1519 49.5947C21.2542 49.3479 21.404 49.1236 21.5929 48.9347C21.7818 48.7458 22.0061 48.596 22.2529 48.4937C22.4997 48.3915 22.7642 48.3389 23.0314 48.3389" fill="white"/>
<path opacity="0.5" d="M18.9621 48.3389C19.3644 48.3389 19.7577 48.4582 20.0923 48.6817C20.4268 48.9052 20.6875 49.223 20.8415 49.5947C20.9955 49.9664 21.0358 50.3754 20.9573 50.7701C20.8788 51.1647 20.685 51.5272 20.4005 51.8117C20.116 52.0962 19.7535 52.2899 19.3589 52.3684C18.9643 52.4469 18.5553 52.4066 18.1836 52.2527C17.8118 52.0987 17.4941 51.8379 17.2706 51.5034C17.047 51.1689 16.9277 50.7755 16.9277 50.3732C16.9277 50.106 16.9804 49.8415 17.0826 49.5947C17.1848 49.3479 17.3347 49.1236 17.5236 48.9347C17.7125 48.7458 17.9367 48.596 18.1836 48.4937C18.4304 48.3915 18.6949 48.3389 18.9621 48.3389" fill="white"/>
<path opacity="0.5" d="M12.8597 23.9319H8.79102V28.0005H12.8597V23.9319Z" fill="white"/>
<path opacity="0.5" d="M8.77873 23.9084V27.9655H4.72168C4.72168 26.8895 5.14912 25.8576 5.90996 25.0967C6.67081 24.3359 7.70273 23.9084 8.77873 23.9084Z" fill="white"/>
<path opacity="0.5" d="M0.658482 23.9319H-3.41016V28.0005H0.658482V23.9319Z" fill="white"/>
<path opacity="0.5" d="M8.79032 32.0691H4.72168V36.1377H8.79032V32.0691Z" fill="white"/>
<path opacity="0.5" d="M4.72293 32.0691H0.654297V36.1377H4.72293V32.0691Z" fill="white"/>
<path opacity="0.5" d="M8.79032 28.001H4.72168V32.0696H8.79032V28.001Z" fill="white"/>
<path opacity="0.5" d="M4.72293 28.001H0.654297V32.0696H4.72293V28.001Z" fill="white"/>
<path opacity="0.5" d="M-1.38144 28.0011C-0.978137 27.9965 -0.582567 28.1119 -0.244989 28.3326C0.0925886 28.5533 0.356937 28.8694 0.51447 29.2407C0.672004 29.612 0.715613 30.0218 0.639756 30.4179C0.563899 30.814 0.372 31.1787 0.0884408 31.4655C-0.195119 31.7523 -0.557541 31.9484 -0.952779 32.0288C-1.34802 32.1092 -1.75823 32.0703 -2.13131 31.917C-2.50439 31.7637 -2.82348 31.503 -3.04806 31.168C-3.27263 30.833 -3.39255 30.4388 -3.39258 30.0354C-3.39258 29.4969 -3.17905 28.9803 -2.79879 28.599C-2.41853 28.2176 -1.90259 28.0026 -1.36406 28.0011" fill="white"/>
<path opacity="0.5" d="M51.5119 48.3389C51.9142 48.3389 52.3075 48.4582 52.6421 48.6817C52.9766 48.9052 53.2373 49.223 53.3913 49.5947C53.5453 49.9664 53.5856 50.3754 53.5071 50.7701C53.4286 51.1647 53.2348 51.5272 52.9503 51.8117C52.6658 52.0962 52.3034 52.2899 51.9087 52.3684C51.5141 52.4469 51.1051 52.4066 50.7334 52.2527C50.3616 52.0987 50.0439 51.8379 49.8204 51.5034C49.5968 51.1689 49.4775 50.7755 49.4775 50.3732C49.4775 50.106 49.5302 49.8415 49.6324 49.5947C49.7346 49.3479 49.8845 49.1236 50.0734 48.9347C50.2623 48.7458 50.4865 48.596 50.7334 48.4937C50.9802 48.3915 51.2447 48.3389 51.5119 48.3389" fill="white"/>
<path opacity="0.5" d="M49.4768 48.3389H45.4082V52.4075H49.4768V48.3389Z" fill="white"/>
<path opacity="0.5" d="M43.3742 48.3389C43.7765 48.3389 44.1698 48.4582 44.5044 48.6817C44.8389 48.9052 45.0997 49.223 45.2536 49.5947C45.4076 49.9664 45.4479 50.3754 45.3694 50.7701C45.2909 51.1647 45.0971 51.5272 44.8126 51.8117C44.5281 52.0962 44.1657 52.2899 43.771 52.3684C43.3764 52.4469 42.9674 52.4066 42.5957 52.2527C42.2239 52.0987 41.9062 51.8379 41.6827 51.5034C41.4592 51.1689 41.3398 50.7755 41.3398 50.3732C41.3398 50.106 41.3925 49.8415 41.4947 49.5947C41.5969 49.3479 41.7468 49.1236 41.9357 48.9347C42.1246 48.7458 42.3488 48.596 42.5957 48.4937C42.8425 48.3915 43.107 48.3389 43.3742 48.3389" fill="white"/>
<path opacity="0.5" d="M37.2708 48.3389H33.2021V52.4075H37.2708V48.3389Z" fill="white"/>
<path opacity="0.5" d="M37.2715 48.3389C38.3475 48.3389 39.3794 48.7663 40.1402 49.5271C40.9011 50.288 41.3285 51.3199 41.3285 52.3959H37.2715V48.3389Z" fill="white"/>
<path opacity="0.5" d="M53.5462 44.2698H49.4775V48.3384H53.5462V44.2698Z" fill="white"/>
<path opacity="0.5" d="M47.4425 44.2698C47.8449 44.2698 48.2382 44.3891 48.5727 44.6126C48.9073 44.8362 49.168 45.1539 49.322 45.5256C49.476 45.8973 49.5162 46.3064 49.4378 46.701C49.3593 47.0956 49.1655 47.4581 48.881 47.7426C48.5965 48.0271 48.234 48.2208 47.8394 48.2993C47.4448 48.3778 47.0357 48.3375 46.664 48.1836C46.2923 48.0296 45.9746 47.7688 45.751 47.4343C45.5275 47.0998 45.4082 46.7064 45.4082 46.3041C45.4082 45.7646 45.6225 45.2471 46.004 44.8656C46.3856 44.4841 46.903 44.2698 47.4425 44.2698Z" fill="white"/>
<path opacity="0.5" d="M53.5462 40.2007H49.4775V44.2693H53.5462V40.2007Z" fill="white"/>
<path opacity="0.5" d="M49.477 40.2007V44.2577H45.4199C45.4199 43.1817 45.8474 42.1498 46.6082 41.389C47.369 40.6281 48.401 40.2007 49.477 40.2007" fill="white"/>
<path opacity="0.5" d="M49.4775 36.1382C50.5535 36.1382 51.5855 36.5656 52.3463 37.3265C53.1071 38.0873 53.5346 39.1192 53.5346 40.1952H49.4775V36.1382Z" fill="white"/>
<path opacity="0.5" d="M49.4768 36.1382H45.4082V40.2068H49.4768V36.1382Z" fill="white"/>
<path opacity="0.5" d="M43.3742 44.2698C43.7765 44.2698 44.1698 44.3891 44.5044 44.6126C44.8389 44.8362 45.0997 45.1539 45.2536 45.5256C45.4076 45.8973 45.4479 46.3064 45.3694 46.701C45.2909 47.0956 45.0971 47.4581 44.8126 47.7426C44.5281 48.0271 44.1657 48.2208 43.771 48.2993C43.3764 48.3778 42.9674 48.3375 42.5957 48.1836C42.2239 48.0296 41.9062 47.7688 41.6827 47.4343C41.4592 47.0998 41.3398 46.7064 41.3398 46.3041C41.3398 45.7646 41.5542 45.2471 41.9357 44.8656C42.3172 44.4841 42.8346 44.2698 43.3742 44.2698Z" fill="white"/>
<path opacity="0.5" d="M41.3401 44.2698H37.2715V48.3384H41.3401V44.2698Z" fill="white"/>
<path opacity="0.5" d="M45.4085 40.2007H41.3398V44.2693H45.4085V40.2007Z" fill="white"/>
<path opacity="0.5" d="M41.3401 40.2007H37.2715V44.2693H41.3401V40.2007Z" fill="white"/>
<path opacity="0.5" d="M45.4085 36.1382H41.3398V40.2068H45.4085V36.1382Z" fill="white"/>
<path opacity="0.5" d="M37.2715 36.1382H41.3285C41.3285 37.2142 40.9011 38.2461 40.1402 39.007C39.3794 39.7678 38.3475 40.1952 37.2715 40.1952V36.1382Z" fill="white"/>
<path opacity="0.5" d="M37.2709 40.2007V44.2577H33.2139C33.2139 43.1817 33.6413 42.1498 34.4021 41.389C35.163 40.6281 36.1949 40.2007 37.2709 40.2007" fill="white"/>
<path opacity="0.5" d="M51.5119 32.0691C51.9142 32.0691 52.3075 32.1884 52.6421 32.4119C52.9766 32.6355 53.2373 32.9532 53.3913 33.3249C53.5453 33.6966 53.5856 34.1057 53.5071 34.5003C53.4286 34.8949 53.2348 35.2574 52.9503 35.5419C52.6658 35.8264 52.3034 36.0201 51.9087 36.0986C51.5141 36.1771 51.1051 36.1368 50.7334 35.9829C50.3616 35.8289 50.0439 35.5682 49.8204 35.2336C49.5968 34.8991 49.4775 34.5058 49.4775 34.1034C49.4775 33.5639 49.6919 33.0464 50.0734 32.6649C50.4549 32.2834 50.9723 32.0691 51.5119 32.0691" fill="white"/>
<path opacity="0.5" d="M41.3402 32.0691V36.1261H37.2832C37.2832 35.0501 37.7106 34.0182 38.4715 33.2574C39.2323 32.4965 40.2643 32.0691 41.3402 32.0691" fill="white"/>
<path opacity="0.5" d="M37.2715 28.001H41.3285V32.058C40.2525 32.058 39.2206 31.6306 38.4598 30.8697C37.6989 30.1089 37.2715 29.077 37.2715 28.001Z" fill="white"/>
<path opacity="0.5" d="M41.3401 23.9319H37.2715V28.0005H41.3401V23.9319Z" fill="white"/>
<path opacity="0.5" d="M47.4425 32.0691C47.8449 32.0691 48.2382 32.1884 48.5727 32.4119C48.9073 32.6355 49.168 32.9532 49.322 33.3249C49.476 33.6966 49.5162 34.1057 49.4378 34.5003C49.3593 34.8949 49.1655 35.2574 48.881 35.5419C48.5965 35.8264 48.234 36.0201 47.8394 36.0986C47.4448 36.1771 47.0357 36.1368 46.664 35.9829C46.2923 35.8289 45.9746 35.5682 45.751 35.2336C45.5275 34.8991 45.4082 34.5058 45.4082 34.1034C45.4082 33.5639 45.6225 33.0464 46.004 32.6649C46.3856 32.2834 46.903 32.0691 47.4425 32.0691" fill="white"/>
<path opacity="0.5" d="M45.4085 23.9319H41.3398V28.0005H45.4085V23.9319Z" fill="white"/>
<path opacity="0.5" d="M23.0314 72.75C23.4337 72.75 23.8271 72.8693 24.1616 73.0928C24.4961 73.3164 24.7569 73.6341 24.9109 74.0058C25.0648 74.3775 25.1051 74.7866 25.0266 75.1812C24.9481 75.5758 24.7544 75.9383 24.4699 76.2228C24.1854 76.5073 23.8229 76.701 23.4283 76.7795C23.0336 76.858 22.6246 76.8178 22.2529 76.6638C21.8812 76.5098 21.5634 76.2491 21.3399 75.9145C21.1164 75.58 20.9971 75.1867 20.9971 74.7843C20.9971 74.2448 21.2114 73.7273 21.5929 73.3458C21.9744 72.9643 22.4919 72.75 23.0314 72.75" fill="white"/>
<path opacity="0.5" d="M35.2373 68.6809H37.2716V72.738H35.2373C34.7258 72.6993 34.2478 72.4688 33.899 72.0926C33.5502 71.7164 33.3564 71.2224 33.3564 70.7094C33.3564 70.1965 33.5502 69.7024 33.899 69.3263C34.2478 68.9501 34.7258 68.7196 35.2373 68.6809Z" fill="white"/>
<path opacity="0.5" d="M27.0997 68.6809C27.5021 68.6809 27.8954 68.8002 28.23 69.0238C28.5645 69.2473 28.8252 69.565 28.9792 69.9367C29.1332 70.3084 29.1735 70.7175 29.095 71.1121C29.0165 71.5067 28.8227 71.8692 28.5382 72.1537C28.2537 72.4382 27.8912 72.632 27.4966 72.7105C27.102 72.789 26.693 72.7487 26.3212 72.5947C25.9495 72.4407 25.6318 72.18 25.4083 71.8454C25.1847 71.5109 25.0654 71.1176 25.0654 70.7152C25.0654 70.1757 25.2798 69.6583 25.6613 69.2767C26.0428 68.8952 26.5602 68.6809 27.0997 68.6809" fill="white"/>
<path opacity="0.5" d="M23.0314 68.6809C23.4337 68.6809 23.8271 68.8002 24.1616 69.0238C24.4961 69.2473 24.7569 69.565 24.9109 69.9367C25.0648 70.3084 25.1051 70.7175 25.0266 71.1121C24.9481 71.5067 24.7544 71.8692 24.4699 72.1537C24.1854 72.4382 23.8229 72.632 23.4283 72.7105C23.0336 72.789 22.6246 72.7487 22.2529 72.5947C21.8812 72.4407 21.5634 72.18 21.3399 71.8454C21.1164 71.5109 20.9971 71.1176 20.9971 70.7152C20.9971 70.1757 21.2114 69.6583 21.5929 69.2767C21.9744 68.8952 22.4919 68.6809 23.0314 68.6809" fill="white"/>
<path opacity="0.5" d="M33.2021 64.6118H37.2592V68.6689H35.2365C34.6969 68.6689 34.1795 68.4545 33.798 68.073C33.4165 67.6915 33.2021 67.1741 33.2021 66.6345V64.6118Z" fill="white"/>
<path opacity="0.5" d="M20.997 64.6118H25.0541V66.6461C25.0752 66.9254 25.0384 67.2061 24.946 67.4705C24.8537 67.7349 24.7077 67.9774 24.5173 68.1827C24.3268 68.3881 24.0961 68.552 23.8394 68.664C23.5827 68.7761 23.3056 68.8339 23.0255 68.8339C22.7454 68.8339 22.4684 68.7761 22.2117 68.664C21.955 68.552 21.7242 68.3881 21.5338 68.1827C21.3434 67.9774 21.1974 67.7349 21.105 67.4705C21.0126 67.2061 20.9759 66.9254 20.997 66.6461V64.6118Z" fill="white"/>
<path opacity="0.5" d="M37.2708 60.5439H33.2021V64.6126H37.2708V60.5439Z" fill="white"/>
<path opacity="0.5" d="M20.9964 60.5439H16.9277V64.6126H20.9964V60.5439Z" fill="white"/>
<path opacity="0.5" d="M37.2715 68.6809H41.3285C41.3285 69.7569 40.9011 70.7888 40.1402 71.5497C39.3794 72.3105 38.3475 72.738 37.2715 72.738V68.6809Z" fill="white"/>
<path opacity="0.5" d="M41.3401 64.6118H37.2715V68.6805H41.3401V64.6118Z" fill="white"/>
<path opacity="0.5" d="M41.3402 60.5439V64.601H37.2832C37.2832 63.525 37.7106 62.4931 38.4715 61.7322C39.2323 60.9714 40.2643 60.5439 41.3402 60.5439" fill="white"/>
<path opacity="0.5" d="M45.4082 72.75H49.4652C49.4652 73.826 49.0378 74.8579 48.277 75.6188C47.5161 76.3796 46.4842 76.807 45.4082 76.807V72.75Z" fill="white"/>
<path opacity="0.5" d="M41.3398 72.75H45.3969V76.807C44.3209 76.807 43.289 76.3796 42.5281 75.6188C41.7673 74.8579 41.3398 73.826 41.3398 72.75" fill="white"/>
<path opacity="0.5" d="M45.4082 68.6809C46.4842 68.6809 47.5161 69.1083 48.277 69.8692C49.0378 70.63 49.4652 71.662 49.4652 72.738H45.4082V68.6809Z" fill="white"/>
<path opacity="0.5" d="M45.4086 68.6809V72.738H41.3516C41.3516 71.662 41.779 70.63 42.5398 69.8692C43.3007 69.1083 44.3326 68.6809 45.4086 68.6809" fill="white"/>
<path opacity="0.5" d="M49.4768 64.6118H45.4082V68.6805H49.4768V64.6118Z" fill="white"/>
<path opacity="0.5" d="M43.3742 64.6118C43.7765 64.6118 44.1698 64.7311 44.5044 64.9547C44.8389 65.1782 45.0997 65.4959 45.2536 65.8676C45.4076 66.2394 45.4479 66.6484 45.3694 67.043C45.2909 67.4376 45.0971 67.8001 44.8126 68.0846C44.5281 68.3691 44.1657 68.5629 43.771 68.6414C43.3764 68.7199 42.9674 68.6796 42.5957 68.5256C42.2239 68.3716 41.9062 68.1109 41.6827 67.7763C41.4592 67.4418 41.3398 67.0485 41.3398 66.6461C41.3398 66.1066 41.5542 65.5892 41.9357 65.2077C42.3172 64.8261 42.8346 64.6118 43.3742 64.6118" fill="white"/>
<path opacity="0.5" d="M49.4768 60.5439H45.4082V64.6126H49.4768V60.5439Z" fill="white"/>
<path opacity="0.5" d="M45.4085 60.5439H41.3398V64.6126H45.4085V60.5439Z" fill="white"/>
<path opacity="0.5" d="M45.4082 56.4758C46.4842 56.4758 47.5161 56.9033 48.277 57.6641C49.0378 58.425 49.4652 59.4569 49.4652 60.5329H45.4082V56.4758Z" fill="white"/>
<path opacity="0.5" d="M45.4085 56.4758H41.3398V60.5445H45.4085V56.4758Z" fill="white"/>
<path opacity="0.5" d="M59.6487 7.68115H61.683V11.7382H57.626V9.69229C57.632 9.15878 57.8475 8.64902 58.2258 8.27283C58.6042 7.89665 59.1152 7.68416 59.6487 7.68115" fill="white"/>
<path opacity="0.5" d="M59.6487 3.5888H61.683V7.64585H59.6487C59.3694 7.66698 59.0888 7.63021 58.8244 7.53784C58.56 7.44548 58.3175 7.29951 58.1121 7.10907C57.9067 6.91864 57.7429 6.68785 57.6308 6.43116C57.5188 6.17447 57.4609 5.89741 57.4609 5.61733C57.4609 5.33725 57.5188 5.06018 57.6308 4.80349C57.7429 4.5468 57.9067 4.31601 58.1121 4.12558C58.3175 3.93515 58.56 3.78918 58.8244 3.69681C59.0888 3.60445 59.3694 3.56768 59.6487 3.5888" fill="white"/>
<path opacity="0.5" d="M65.7522 7.65869H61.6836V11.7273H65.7522V7.65869Z" fill="white"/>
<path opacity="0.5" d="M65.7461 15.7947H69.8031V19.8517C68.7271 19.8517 67.6952 19.4243 66.9344 18.6634C66.1735 17.9026 65.7461 16.8707 65.7461 15.7947" fill="white"/>
<path opacity="0.5" d="M69.8147 11.7268H65.7461V15.7954H69.8147V11.7268Z" fill="white"/>
<path opacity="0.5" d="M69.8147 3.5874H65.7461V7.65604H69.8147V3.5874Z" fill="white"/>
<path opacity="0.5" d="M37.2708 19.864H33.2021V23.9327H37.2708V19.864Z" fill="white"/>
<path opacity="0.5" d="M33.2024 19.864H29.1338V23.9327H33.2024V19.864Z" fill="white"/>
<path opacity="0.5" d="M29.1341 19.864H25.0654V23.9327H29.1341V19.864Z" fill="white"/>
<path opacity="0.5" d="M37.2708 15.7947H33.2021V19.8633H37.2708V15.7947Z" fill="white"/>
<path opacity="0.5" d="M25.0654 15.7947C26.1414 15.7947 27.1734 16.2221 27.9342 16.983C28.695 17.7438 29.1225 18.7757 29.1225 19.8517H25.0654V15.7947Z" fill="white"/>
<path opacity="0.5" d="M25.0657 15.7947H20.9971V19.8633H25.0657V15.7947Z" fill="white"/>
<path opacity="0.5" d="M37.2708 11.7268H33.2021V15.7954H37.2708V11.7268Z" fill="white"/>
<path opacity="0.5" d="M33.2024 11.7268H29.1338V15.7954H33.2024V11.7268Z" fill="white"/>
<path opacity="0.5" d="M25.0654 11.738H29.1225C29.1225 12.2708 29.0175 12.7984 28.8137 13.2906C28.6098 13.7828 28.3109 14.2301 27.9342 14.6068C27.5575 14.9835 27.1102 15.2824 26.618 15.4863C26.1258 15.6901 25.5982 15.7951 25.0654 15.7951V11.738Z" fill="white"/>
<path opacity="0.5" d="M20.9971 11.738H25.0541V15.7951C23.9781 15.7951 22.9462 15.3676 22.1854 14.6068C21.4245 13.846 20.9971 12.814 20.9971 11.738" fill="white"/>
<path opacity="0.5" d="M35.2366 7.68115C35.7761 7.68115 36.2936 7.89548 36.6751 8.27699C37.0566 8.6585 37.2709 9.17594 37.2709 9.71547V11.7382H33.2139V9.69229C33.2199 9.15878 33.4354 8.64902 33.8137 8.27283C34.1921 7.89665 34.7031 7.68416 35.2366 7.68115" fill="white"/>
<path opacity="0.5" d="M31.1682 7.68115C31.7078 7.68115 32.2252 7.89548 32.6067 8.27699C32.9882 8.6585 33.2026 9.17594 33.2026 9.71547V11.7382H29.1455V9.69229C29.1516 9.15878 29.367 8.64902 29.7454 8.27283C30.1237 7.89665 30.6347 7.68416 31.1682 7.68115" fill="white"/>
<path opacity="0.5" d="M27.0999 7.68115C27.6394 7.68115 28.1568 7.89548 28.5384 8.27699C28.9199 8.6585 29.1342 9.17594 29.1342 9.71547V11.7382H25.0771V9.69229C25.0832 9.15878 25.2986 8.64902 25.677 8.27283C26.0553 7.89665 26.5663 7.68416 27.0999 7.68115" fill="white"/>
<path opacity="0.5" d="M35.2365 3.5874C35.6388 3.5874 36.0321 3.70671 36.3667 3.93025C36.7012 4.15378 36.962 4.4715 37.1159 4.84322C37.2699 5.21494 37.3102 5.62398 37.2317 6.0186C37.1532 6.41322 36.9595 6.7757 36.6749 7.0602C36.3904 7.34471 36.028 7.53846 35.6333 7.61695C35.2387 7.69545 34.8297 7.65516 34.458 7.50119C34.0862 7.34721 33.7685 7.08647 33.545 6.75193C33.3215 6.41739 33.2021 6.02407 33.2021 5.62172C33.2021 5.08219 33.4165 4.56475 33.798 4.18324C34.1795 3.80173 34.6969 3.5874 35.2365 3.5874" fill="white"/>
<path opacity="0.5" d="M31.1681 3.5874C31.5705 3.5874 31.9638 3.70671 32.2983 3.93025C32.6329 4.15378 32.8936 4.4715 33.0476 4.84322C33.2015 5.21494 33.2418 5.62398 33.1633 6.0186C33.0848 6.41322 32.8911 6.7757 32.6066 7.0602C32.3221 7.34471 31.9596 7.53846 31.565 7.61695C31.1704 7.69545 30.7613 7.65516 30.3896 7.50119C30.0179 7.34721 29.7002 7.08647 29.4766 6.75193C29.2531 6.41739 29.1338 6.02407 29.1338 5.62172C29.1338 5.08219 29.3481 4.56475 29.7296 4.18324C30.1111 3.80173 30.6286 3.5874 31.1681 3.5874" fill="white"/>
<path opacity="0.5" d="M20.9971 7.68115H23.0314C23.5709 7.68115 24.0884 7.89548 24.4699 8.27699C24.8514 8.6585 25.0657 9.17594 25.0657 9.71547V11.7382H21.0087L20.9971 7.68115Z" fill="white"/>
<path opacity="0.5" d="M12.8597 19.864H8.79102V23.9327H12.8597V19.864Z" fill="white"/>
<path opacity="0.5" d="M8.79032 7.65869H4.72168V11.7273H8.79032V7.65869Z" fill="white"/>
<path opacity="0.5" d="M8.79032 3.5874H4.72168V7.65604H8.79032V3.5874Z" fill="white"/>
<path opacity="0.5" d="M20.9971 3.5874H23.0314C23.5429 3.6261 24.0209 3.8566 24.3697 4.23276C24.7185 4.60892 24.9123 5.10295 24.9123 5.61593C24.9123 6.1289 24.7185 6.62293 24.3697 6.99909C24.0209 7.37525 23.5429 7.60576 23.0314 7.64445H20.9971V3.5874Z" fill="white"/>
<path opacity="0.5" d="M20.9964 11.7268H16.9277V15.7954H20.9964V11.7268Z" fill="white"/>
<path opacity="0.5" d="M20.9964 7.65869H16.9277V11.7273H20.9964V7.65869Z" fill="white"/>
<path opacity="0.5" d="M20.9964 3.5874H16.9277V7.65604H20.9964V3.5874Z" fill="white"/>
<path opacity="0.5" d="M65.752 -0.480288H67.7805C68.0598 -0.501415 68.3404 -0.464644 68.6048 -0.372279C68.8692 -0.279913 69.1117 -0.133944 69.3171 0.0564872C69.5225 0.246918 69.6863 0.477708 69.7984 0.734399C69.9104 0.991091 69.9682 1.26815 69.9682 1.54823C69.9682 1.82832 69.9104 2.10538 69.7984 2.36207C69.6863 2.61876 69.5225 2.84955 69.3171 3.03998C69.1117 3.23041 68.8692 3.37638 68.6048 3.46875C68.3404 3.56111 68.0598 3.59788 67.7805 3.57676H65.752V-0.480288Z" fill="white"/>
<path opacity="0.5" d="M57.6143 3.58915V-0.479492H61.6829V3.58915" fill="white"/>
<path opacity="0.5" d="M53.5449 3.58915V-0.479492H57.6136V3.58915" fill="white"/>
<path opacity="0.5" d="M49.4775 3.58915V-0.479492H53.5462V3.58915" fill="white"/>
<path opacity="0.5" d="M61.6836 3.58915V-0.479492H65.7522V3.58915" fill="white"/>
</g>
<g opacity="0.4">
<path opacity="0.5" d="M0.665039 19.8508H4.72209V23.9079C3.64609 23.9079 2.61416 23.4804 1.85332 22.7196C1.09248 21.9588 0.665039 20.9268 0.665039 19.8508V19.8508Z" fill="white"/>
<path opacity="0.5" d="M0.653599 19.863H-3.41504V23.9317H0.653599V19.863Z" fill="white"/>
<path opacity="0.5" d="M4.72293 11.7258H0.654297V15.7945H4.72293V11.7258Z" fill="white"/>
<path opacity="0.5" d="M33.2021 -0.480225H37.2592C37.2592 0.595771 36.8318 1.6277 36.0709 2.38854C35.3101 3.14938 34.2781 3.57682 33.2021 3.57682V-0.480225Z" fill="white"/>
<path opacity="0.5" d="M33.2024 -0.480225H29.1338V3.58841H33.2024V-0.480225Z" fill="white"/>
<path opacity="0.5" d="M25.0657 44.27H20.9971V48.3387H25.0657V44.27Z" fill="white"/>
<path opacity="0.5" d="M25.0657 40.2009H20.9971V44.2696H25.0657V40.2009Z" fill="white"/>
<path opacity="0.5" d="M18.9621 40.2009C19.3644 40.2009 19.7577 40.3202 20.0923 40.5438C20.4268 40.7673 20.6875 41.085 20.8415 41.4567C20.9955 41.8285 21.0358 42.2375 20.9573 42.6321C20.8788 43.0267 20.685 43.3892 20.4005 43.6737C20.116 43.9582 19.7535 44.152 19.3589 44.2305C18.9643 44.309 18.5553 44.2687 18.1836 44.1147C17.8118 43.9607 17.4941 43.7 17.2706 43.3655C17.047 43.0309 16.9277 42.6376 16.9277 42.2352C16.9277 41.6957 17.1421 41.1783 17.5236 40.7968C17.9051 40.4153 18.4225 40.2009 18.9621 40.2009Z" fill="white"/>
<path opacity="0.5" d="M14.8934 40.2009C15.2948 40.2055 15.6858 40.3287 16.0173 40.555C16.3487 40.7813 16.6059 41.1006 16.7563 41.4727C16.9067 41.8448 16.9437 42.2531 16.8626 42.6461C16.7815 43.0392 16.586 43.3995 16.3006 43.6817C16.0152 43.9639 15.6527 44.1554 15.2587 44.232C14.8647 44.3086 14.4569 44.267 14.0865 44.1124C13.7161 43.9578 13.3998 43.697 13.1772 43.363C12.9547 43.029 12.836 42.6366 12.8359 42.2352C12.8359 41.6957 13.0503 41.1783 13.4318 40.7968C13.8133 40.4153 14.3307 40.2009 14.8703 40.2009" fill="white"/>
<path opacity="0.5" d="M25.0657 36.1384H20.9971V40.2071H25.0657V36.1384Z" fill="white"/>
<path opacity="0.5" d="M20.9964 36.1384H16.9277V40.2071H20.9964V36.1384Z" fill="white"/>
<path opacity="0.5" d="M16.928 36.1384H12.8594V40.2071H16.928V36.1384Z" fill="white"/>
<path opacity="0.5" d="M29.1341 36.1384H25.0654V40.2071H29.1341V36.1384Z" fill="white"/>
<path opacity="0.5" d="M29.1341 32.0693H25.0654V36.138H29.1341V32.0693Z" fill="white"/>
<path opacity="0.5" d="M33.2024 23.9312H29.1338V27.9998H33.2024V23.9312Z" fill="white"/>
<path opacity="0.5" d="M12.8359 23.9087H16.893V25.943C16.8543 26.4545 16.6238 26.9325 16.2476 27.2813C15.8715 27.6301 15.3774 27.8239 14.8645 27.8239C14.3515 27.8239 13.8575 27.6301 13.4813 27.2813C13.1051 26.9325 12.8746 26.4545 12.8359 25.943V23.9087Z" fill="white"/>
<path opacity="0.5" d="M37.2708 32.0693H33.2021V36.138H37.2708V32.0693Z" fill="white"/>
<path opacity="0.5" d="M6.756 -0.480225C7.15835 -0.480225 7.55166 -0.360914 7.88621 -0.13738C8.22075 0.0861538 8.48149 0.403871 8.63546 0.775594C8.78944 1.14732 8.82972 1.55635 8.75123 1.95097C8.67273 2.34559 8.47898 2.70807 8.19448 2.99257C7.90997 3.27708 7.54749 3.47083 7.15287 3.54932C6.75826 3.62782 6.34922 3.58753 5.9775 3.43356C5.60577 3.27959 5.28806 3.01884 5.06452 2.6843C4.84099 2.34976 4.72168 1.95644 4.72168 1.55409C4.72168 1.01456 4.93601 0.497122 5.31752 0.115614C5.69903 -0.265895 6.21646 -0.480225 6.756 -0.480225" fill="white"/>
<path opacity="0.5" d="M4.72293 -0.480225H0.654297V3.58841H4.72293V-0.480225Z" fill="white"/>
<path opacity="0.5" d="M-3.39258 -0.480225H0.664468C0.664468 0.595771 0.237031 1.6277 -0.523813 2.38854C-1.28466 3.14938 -2.31658 3.57682 -3.39258 3.57682V-0.480225Z" fill="white"/>
<path opacity="0.5" d="M12.8597 -0.480225H8.79102V3.58841H12.8597V-0.480225Z" fill="white"/>
<path opacity="0.5" d="M-1.37565 56.4761C-0.972574 56.4727 -0.577563 56.5891 -0.240741 56.8105C0.0960801 57.0319 0.359528 57.3484 0.51617 57.7198C0.672813 58.0912 0.715588 58.5008 0.639068 58.8966C0.562548 59.2923 0.370182 59.6564 0.0863819 59.9427C-0.197418 60.2289 -0.559858 60.4244 -0.954945 60.5043C-1.35003 60.5842 -1.75995 60.545 -2.13269 60.3915C-2.50543 60.2381 -2.82418 59.9774 -3.04849 59.6425C-3.2728 59.3076 -3.39256 58.9136 -3.39258 58.5105C-3.39258 57.9709 -3.17825 57.4535 -2.79674 57.072C-2.41523 56.6905 -1.89779 56.4761 -1.35826 56.4761" fill="white"/>
<path opacity="0.5" d="M-1.37565 52.4071C-0.972574 52.4036 -0.577563 52.52 -0.240741 52.7414C0.0960801 52.9628 0.359528 53.2793 0.51617 53.6508C0.672813 54.0222 0.715588 54.4317 0.639068 54.8275C0.562548 55.2232 0.370182 55.5873 0.0863819 55.8736C-0.197418 56.1598 -0.559858 56.3553 -0.954945 56.4352C-1.35003 56.5152 -1.75995 56.4759 -2.13269 56.3224C-2.50543 56.169 -2.82418 55.9083 -3.04849 55.5734C-3.2728 55.2385 -3.39256 54.8445 -3.39258 54.4414C-3.39258 53.9018 -3.17825 53.3844 -2.79674 53.0029C-2.41523 52.6214 -1.89779 52.4071 -1.35826 52.4071" fill="white"/>
<path opacity="0.5" d="M-3.39258 48.3391H0.664468V50.3734C0.625774 50.8849 0.395266 51.3629 0.0191088 51.7117C-0.357049 52.0605 -0.851083 52.2543 -1.36405 52.2543C-1.87703 52.2543 -2.37106 52.0605 -2.74722 51.7117C-3.12338 51.3629 -3.35388 50.8849 -3.39258 50.3734V48.3391Z" fill="white"/>
<path opacity="0.5" d="M2.69356 56.4761C3.09616 56.4749 3.49004 56.5933 3.82534 56.8161C4.16065 57.0389 4.42229 57.3563 4.57715 57.7279C4.73202 58.0995 4.77313 58.5087 4.69529 58.9037C4.61745 59.2987 4.42416 59.6617 4.13989 59.9468C3.85562 60.2319 3.49315 60.4262 3.09837 60.5052C2.70359 60.5842 2.29426 60.5442 1.9222 60.3904C1.55014 60.2366 1.23208 59.9759 1.00829 59.6412C0.784499 59.3065 0.665041 58.913 0.665039 58.5104C0.665039 57.9709 0.879368 57.4534 1.26088 57.0719C1.64239 56.6904 2.15982 56.4761 2.69936 56.4761" fill="white"/>
<path opacity="0.5" d="M2.69356 52.407C3.09616 52.4058 3.49004 52.5242 3.82534 52.747C4.16065 52.9699 4.42229 53.2872 4.57715 53.6588C4.73202 54.0304 4.77313 54.4396 4.69529 54.8346C4.61745 55.2296 4.42416 55.5926 4.13989 55.8777C3.85562 56.1628 3.49315 56.3571 3.09837 56.4361C2.70359 56.5151 2.29426 56.4751 1.9222 56.3213C1.55014 56.1675 1.23208 55.9068 1.00829 55.5721C0.784499 55.2375 0.665041 54.8439 0.665039 54.4413C0.665039 53.9018 0.879368 53.3843 1.26088 53.0028C1.64239 52.6213 2.15982 52.407 2.69936 52.407" fill="white"/>
<path opacity="0.5" d="M0.665039 48.3391H4.72209V50.3734C4.68339 50.8849 4.45288 51.3629 4.07673 51.7117C3.70057 52.0605 3.20653 52.2543 2.69356 52.2543C2.18059 52.2543 1.68656 52.0605 1.3104 51.7117C0.934241 51.3629 0.703733 50.8849 0.665039 50.3734V48.3391Z" fill="white"/>
<path opacity="0.5" d="M10.831 56.4761C11.2326 56.4795 11.6242 56.6017 11.9564 56.8273C12.2887 57.0529 12.5467 57.3719 12.698 57.7439C12.8493 58.1159 12.8871 58.5244 12.8067 58.9178C12.7263 59.3113 12.5311 59.6721 12.246 59.9549C11.9608 60.2377 11.5983 60.4297 11.2041 60.5068C10.81 60.5839 10.4019 60.5426 10.0312 60.3881C9.66044 60.2337 9.34375 59.9729 9.12097 59.6388C8.8982 59.3046 8.77931 58.912 8.7793 58.5104C8.7793 57.9709 8.99363 57.4534 9.37514 57.0719C9.75664 56.6904 10.2741 56.4761 10.8136 56.4761" fill="white"/>
<path opacity="0.5" d="M23.0314 52.407C23.4337 52.407 23.8271 52.5263 24.1616 52.7498C24.4961 52.9734 24.7569 53.2911 24.9109 53.6628C25.0648 54.0345 25.1051 54.4436 25.0266 54.8382C24.9481 55.2328 24.7544 55.5953 24.4699 55.8798C24.1854 56.1643 23.8229 56.358 23.4283 56.4365C23.0336 56.515 22.6246 56.4747 22.2529 56.3208C21.8812 56.1668 21.5634 55.9061 21.3399 55.5715C21.1164 55.237 20.9971 54.8437 20.9971 54.4413C20.9971 53.9018 21.2114 53.3843 21.5929 53.0028C21.9744 52.6213 22.4919 52.407 23.0314 52.407" fill="white"/>
<path opacity="0.5" d="M18.9621 52.407C19.3644 52.407 19.7577 52.5263 20.0923 52.7498C20.4268 52.9734 20.6875 53.2911 20.8415 53.6628C20.9955 54.0345 21.0358 54.4436 20.9573 54.8382C20.8788 55.2328 20.685 55.5953 20.4005 55.8798C20.116 56.1643 19.7535 56.358 19.3589 56.4365C18.9643 56.515 18.5553 56.4747 18.1836 56.3208C17.8118 56.1668 17.4941 55.9061 17.2706 55.5715C17.047 55.237 16.9277 54.8437 16.9277 54.4413C16.9277 53.9018 17.1421 53.3843 17.5236 53.0028C17.9051 52.6213 18.4225 52.407 18.9621 52.407" fill="white"/>
<path opacity="0.5" d="M14.8938 52.407C15.2964 52.4058 15.6902 52.5242 16.0255 52.747C16.3608 52.9699 16.6225 53.2872 16.7774 53.6588C16.9322 54.0304 16.9733 54.4396 16.8955 54.8346C16.8176 55.2296 16.6244 55.5926 16.3401 55.8777C16.0558 56.1628 15.6933 56.3571 15.2986 56.4361C14.9038 56.5151 14.4945 56.4751 14.1224 56.3213C13.7503 56.1675 13.4323 55.9068 13.2085 55.5721C12.9847 55.2375 12.8652 54.8439 12.8652 54.4413C12.8652 53.9028 13.0788 53.3862 13.459 53.0049C13.8393 52.6235 14.3552 52.4085 14.8938 52.407" fill="white"/>
<path opacity="0.5" d="M10.831 52.407C11.2326 52.4104 11.6242 52.5326 11.9564 52.7582C12.2887 52.9839 12.5467 53.3028 12.698 53.6748C12.8493 54.0468 12.8871 54.4553 12.8067 54.8487C12.7263 55.2422 12.5311 55.603 12.246 55.8858C11.9608 56.1686 11.5983 56.3606 11.2041 56.4377C10.81 56.5148 10.4019 56.4735 10.0312 56.319C9.66044 56.1646 9.34375 55.9038 9.12097 55.5697C8.8982 55.2355 8.77931 54.8429 8.7793 54.4413C8.7793 53.9018 8.99363 53.3843 9.37514 53.0028C9.75664 52.6213 10.2741 52.407 10.8136 52.407" fill="white"/>
<path opacity="0.5" d="M6.7627 52.4072C7.04199 52.386 7.32262 52.4228 7.58703 52.5152C7.85145 52.6075 8.09394 52.7535 8.29932 52.9439C8.5047 53.1344 8.66854 53.3652 8.78059 53.6219C8.89264 53.8785 8.95047 54.1556 8.95047 54.4357C8.95047 54.7158 8.89264 54.9928 8.78059 55.2495C8.66854 55.5062 8.5047 55.737 8.29932 55.9274C8.09394 56.1179 7.85145 56.2638 7.58703 56.3562C7.32262 56.4486 7.04199 56.4853 6.7627 56.4642C6.25119 56.4255 5.77318 56.195 5.42441 55.8189C5.07563 55.4427 4.88184 54.9487 4.88184 54.4357C4.88184 53.9227 5.07563 53.4287 5.42441 53.0525C5.77318 52.6764 6.25119 52.4459 6.7627 52.4072" fill="white"/>
<path opacity="0.5" d="M8.7793 48.3391H10.8136C11.216 48.3391 11.6093 48.4584 11.9438 48.682C12.2784 48.9055 12.5391 49.2232 12.6931 49.5949C12.8471 49.9667 12.8873 50.3757 12.8088 50.7703C12.7304 51.1649 12.5366 51.5274 12.2521 51.8119C11.9676 52.0964 11.6051 52.2902 11.2105 52.3687C10.8159 52.4472 10.4068 52.4069 10.0351 52.2529C9.66339 52.0989 9.34568 51.8382 9.12214 51.5036C8.89861 51.1691 8.7793 50.7758 8.7793 50.3734V48.3391Z" fill="white"/>
<path opacity="0.5" d="M4.72168 48.3391H8.77873V50.3734C8.77873 50.913 8.5644 51.4304 8.18289 51.8119C7.80138 52.1934 7.28394 52.4077 6.74441 52.4077C6.20688 52.4047 5.69242 52.189 5.31341 51.8078C4.93441 51.4267 4.72167 50.911 4.72168 50.3734V48.3391Z" fill="white"/>
<path opacity="0.5" d="M27.0997 48.3391C27.5021 48.3391 27.8954 48.4584 28.23 48.682C28.5645 48.9055 28.8252 49.2232 28.9792 49.5949C29.1332 49.9667 29.1735 50.3757 29.095 50.7703C29.0165 51.1649 28.8227 51.5274 28.5382 51.8119C28.2537 52.0964 27.8912 52.2902 27.4966 52.3687C27.102 52.4472 26.693 52.4069 26.3212 52.2529C25.9495 52.0989 25.6318 51.8382 25.4083 51.5036C25.1847 51.1691 25.0654 50.7758 25.0654 50.3734C25.0654 50.1063 25.1181 49.8417 25.2203 49.5949C25.3225 49.3481 25.4724 49.1239 25.6613 48.9349C25.8502 48.746 26.0744 48.5962 26.3212 48.494C26.5681 48.3917 26.8326 48.3391 27.0997 48.3391" fill="white"/>
<path opacity="0.5" d="M0.658482 40.2009H-3.41016V44.2696H0.658482V40.2009Z" fill="white"/>
<path opacity="0.5" d="M4.72782 36.1384H0.65918V40.2071H4.72782V36.1384Z" fill="white"/>
<path opacity="0.5" d="M0.658482 36.1384H-3.41016V40.2071H0.658482V36.1384Z" fill="white"/>
<path opacity="0.5" d="M0.658482 32.0693H-3.41016V36.138H0.658482V32.0693Z" fill="white"/>
<path opacity="0.5" d="M4.72168 58.5104C4.72168 58.1078 4.84114 57.7142 5.06493 57.3796C5.28872 57.0449 5.60678 56.7842 5.97884 56.6304C6.3509 56.4766 6.76023 56.4366 7.15501 56.5156C7.54979 56.5946 7.91226 56.7889 8.19653 57.074C8.4808 57.3591 8.67409 57.7221 8.75193 58.1171C8.82977 58.5121 8.78866 58.9213 8.6338 59.2929C8.47893 59.6645 8.21729 59.9818 7.88198 60.2047C7.54668 60.4275 7.1528 60.5459 6.7502 60.5447C6.21167 60.5432 5.69572 60.3282 5.31547 59.9468C4.93521 59.5655 4.72168 59.0489 4.72168 58.5104Z" fill="white"/>
<path opacity="0.5" d="M12.8359 62.5773C12.8359 62.1749 12.9552 61.7816 13.1788 61.4471C13.4023 61.1125 13.72 60.8518 14.0918 60.6978C14.4635 60.5438 14.8725 60.5036 15.2671 60.5821C15.6618 60.6606 16.0242 60.8543 16.3087 61.1388C16.5932 61.4233 16.787 61.7858 16.8655 62.1804C16.944 62.575 16.9037 62.9841 16.7497 63.3558C16.5958 63.7275 16.335 64.0452 16.0005 64.2688C15.6659 64.4923 15.2726 64.6116 14.8703 64.6116C14.3307 64.6116 13.8133 64.3973 13.4318 64.0158C13.0503 63.6343 12.8359 63.1168 12.8359 62.5773Z" fill="white"/>
<path opacity="0.5" d="M16.928 64.6121H12.8594V68.6807H16.928V64.6121Z" fill="white"/>
<path opacity="0.5" d="M16.928 68.6824H12.8594V72.751H16.928V68.6824Z" fill="white"/>
<path opacity="0.5" d="M16.928 72.7502H12.8594V76.8189H16.928V72.7502Z" fill="white"/>
<path opacity="0.5" d="M12.8597 60.543H8.79102V64.6116H12.8597V60.543Z" fill="white"/>
<path opacity="0.5" d="M8.7793 68.6813V64.6243C9.85529 64.6243 10.8872 65.0517 11.6481 65.8126C12.4089 66.5734 12.8363 67.6053 12.8363 68.6813H8.7793Z" fill="white"/>
<path opacity="0.5" d="M12.8597 68.6824H8.79102V72.751H12.8597V68.6824Z" fill="white"/>
<path opacity="0.5" d="M8.7793 76.8185V72.7615C9.85529 72.7615 10.8872 73.1889 11.6481 73.9498C12.4089 74.7106 12.8363 75.7425 12.8363 76.8185H8.7793Z" fill="white"/>
<path opacity="0.5" d="M4.72168 64.6121H8.77873V68.6691C7.70273 68.6691 6.67081 68.2417 5.90996 67.4808C5.14912 66.72 4.72168 65.6881 4.72168 64.6121" fill="white"/>
<path opacity="0.5" d="M4.72168 76.8185C4.72168 75.7425 5.14912 74.7106 5.90996 73.9498C6.67081 73.1889 7.70273 72.7615 8.77873 72.7615V76.8185H4.72168Z" fill="white"/>
<path opacity="0.5" d="M0.658482 64.6121H-3.41016V68.6807H0.658482V64.6121Z" fill="white"/>
<path opacity="0.5" d="M-3.39258 64.6127V62.5784C-3.35388 62.0669 -3.12338 61.5889 -2.74722 61.2401C-2.37106 60.8913 -1.87703 60.6975 -1.36405 60.6975C-0.851083 60.6975 -0.357049 60.8913 0.0191088 61.2401C0.395266 61.5889 0.625774 62.0669 0.664468 62.5784V64.6127H-3.39258Z" fill="white"/>
<path opacity="0.5" d="M14.8934 -0.480225C15.2948 -0.475651 15.6858 -0.352464 16.0173 -0.126168C16.3487 0.100129 16.6059 0.419421 16.7563 0.791524C16.9067 1.16363 16.9437 1.57191 16.8626 1.96499C16.7815 2.35807 16.586 2.71838 16.3006 3.00057C16.0152 3.28276 15.6527 3.47422 15.2587 3.55085C14.8647 3.62749 14.4569 3.58587 14.0865 3.43124C13.7161 3.27661 13.3998 3.01588 13.1772 2.68185C12.9547 2.34783 12.836 1.95545 12.8359 1.55409C12.8359 1.01456 13.0503 0.497122 13.4318 0.115614C13.8133 -0.265895 14.3307 -0.480225 14.8703 -0.480225" fill="white"/>
<path opacity="0.5" d="M29.1338 48.3391H33.1908V52.3962C32.1148 52.3962 31.0829 51.9687 30.3221 51.2079C29.5612 50.447 29.1338 49.4151 29.1338 48.3391Z" fill="white"/>
<path opacity="0.5" d="M29.1338 40.2009C30.2098 40.2009 31.2417 40.6284 32.0026 41.3892C32.7634 42.1501 33.1908 43.182 33.1908 44.258H29.1338V40.2009Z" fill="white"/>
<path opacity="0.5" d="M33.2024 36.1384H29.1338V40.2071H33.2024V36.1384Z" fill="white"/>
<path opacity="0.5" d="M37.2708 44.27H33.2021V48.3387H37.2708V44.27Z" fill="white"/>
<path opacity="0.5" d="M37.2708 36.1384H33.2021V40.2071H37.2708V36.1384Z" fill="white"/>
<path opacity="0.5" d="M45.4085 32.0693H41.3398V36.138H45.4085V32.0693Z" fill="white"/>
<path opacity="0.5" d="M53.5462 28.0012H49.4775V32.0699H53.5462V28.0012Z" fill="white"/>
<path opacity="0.5" d="M53.5462 23.9312H49.4775V27.9998H53.5462V23.9312Z" fill="white"/>
<path opacity="0.5" d="M49.4768 28.0012H45.4082V32.0699H49.4768V28.0012Z" fill="white"/>
<path opacity="0.5" d="M49.4768 23.9312H45.4082V27.9998H49.4768V23.9312Z" fill="white"/>
<path opacity="0.5" d="M45.4085 28.0012H41.3398V32.0699H45.4085V28.0012Z" fill="white"/>
<path opacity="0.5" d="M35.2373 72.7502H37.2716V76.8073H35.2373C34.7258 76.7686 34.2478 76.5381 33.899 76.1619C33.5502 75.7858 33.3564 75.2917 33.3564 74.7788C33.3564 74.2658 33.5502 73.7718 33.899 73.3956C34.2478 73.0194 34.7258 72.7889 35.2373 72.7502" fill="white"/>
<path opacity="0.5" d="M31.1681 72.7502C31.5705 72.7502 31.9638 72.8696 32.2983 73.0931C32.6329 73.3166 32.8936 73.6343 33.0476 74.0061C33.2015 74.3778 33.2418 74.7868 33.1633 75.1814C33.0848 75.5761 32.8911 75.9385 32.6066 76.223C32.3221 76.5075 31.9596 76.7013 31.565 76.7798C31.1704 76.8583 30.7613 76.818 30.3896 76.664C30.0179 76.5101 29.7002 76.2493 29.4766 75.9148C29.2531 75.5802 29.1338 75.1869 29.1338 74.7846C29.1338 74.245 29.3481 73.7276 29.7296 73.3461C30.1111 72.9646 30.6286 72.7502 31.1681 72.7502" fill="white"/>
<path opacity="0.5" d="M27.0997 72.7502C27.5021 72.7502 27.8954 72.8696 28.23 73.0931C28.5645 73.3166 28.8252 73.6343 28.9792 74.0061C29.1332 74.3778 29.1735 74.7868 29.095 75.1814C29.0165 75.5761 28.8227 75.9385 28.5382 76.223C28.2537 76.5075 27.8912 76.7013 27.4966 76.7798C27.102 76.8583 26.693 76.818 26.3212 76.664C25.9495 76.5101 25.6318 76.2493 25.4083 75.9148C25.1847 75.5802 25.0654 75.1869 25.0654 74.7846C25.0654 74.245 25.2798 73.7276 25.6613 73.3461C26.0428 72.9646 26.5602 72.7502 27.0997 72.7502" fill="white"/>
<path opacity="0.5" d="M31.1681 68.6824C31.5705 68.6824 31.9638 68.8017 32.2983 69.0252C32.6329 69.2488 32.8936 69.5665 33.0476 69.9382C33.2015 70.3099 33.2418 70.7189 33.1633 71.1136C33.0848 71.5082 32.8911 71.8707 32.6066 72.1552C32.3221 72.4397 31.9596 72.6334 31.565 72.7119C31.1704 72.7904 30.7613 72.7501 30.3896 72.5962C30.0179 72.4422 29.7002 72.1814 29.4766 71.8469C29.2531 71.5124 29.1338 71.119 29.1338 70.7167C29.1338 70.1772 29.3481 69.6597 29.7296 69.2782C30.1111 68.8967 30.6286 68.6824 31.1681 68.6824" fill="white"/>
<path opacity="0.5" d="M29.1337 64.6121H33.1908V66.6464C33.2119 66.9257 33.1751 67.2063 33.0828 67.4707C32.9904 67.7351 32.8444 67.9776 32.654 68.183C32.4636 68.3884 32.2328 68.5522 31.9761 68.6643C31.7194 68.7763 31.4423 68.8341 31.1622 68.8341C30.8822 68.8341 30.6051 68.7763 30.3484 68.6643C30.0917 68.5522 29.8609 68.3884 29.6705 68.183C29.4801 67.9776 29.3341 67.7351 29.2417 67.4707C29.1494 67.2063 29.1126 66.9257 29.1337 66.6464V64.6121Z" fill="white"/>
<path opacity="0.5" d="M25.0654 64.6121H29.1224V66.6464C29.1435 66.9257 29.1068 67.2063 29.0144 67.4707C28.922 67.7351 28.7761 67.9776 28.5856 68.183C28.3952 68.3884 28.1644 68.5522 27.9077 68.6643C27.651 68.7763 27.374 68.8341 27.0939 68.8341C26.8138 68.8341 26.5367 68.7763 26.2801 68.6643C26.0234 68.5522 25.7926 68.3884 25.6021 68.183C25.4117 67.9776 25.2657 67.7351 25.1734 67.4707C25.081 67.2063 25.0442 66.9257 25.0654 66.6464V64.6121Z" fill="white"/>
<path opacity="0.5" d="M16.9286 64.6121H20.9857V66.6464C21.0068 66.9257 20.97 67.2063 20.8777 67.4707C20.7853 67.7351 20.6393 67.9776 20.4489 68.183C20.2585 68.3884 20.0277 68.5522 19.771 68.6643C19.5143 68.7763 19.2373 68.8341 18.9572 68.8341C18.6771 68.8341 18.4 68.7763 18.1433 68.6643C17.8866 68.5522 17.6559 68.3884 17.4654 68.183C17.275 67.9776 17.129 67.7351 17.0367 67.4707C16.9443 67.2063 16.9075 66.9257 16.9286 66.6464V64.6121Z" fill="white"/>
<path opacity="0.5" d="M29.1341 60.543H25.0654V64.6116H29.1341V60.543Z" fill="white"/>
<path opacity="0.5" d="M25.0657 60.543H20.9971V64.6116H25.0657V60.543Z" fill="white"/>
<path opacity="0.5" d="M37.2715 56.4761H41.3285C41.3285 57.5521 40.9011 58.584 40.1402 59.3448C39.3794 60.1057 38.3475 60.5331 37.2715 60.5331V56.4761Z" fill="white"/>
<path opacity="0.5" d="M35.2365 56.4761C35.6388 56.4761 36.0321 56.5954 36.3667 56.8189C36.7012 57.0425 36.962 57.3602 37.1159 57.7319C37.2699 58.1036 37.3102 58.5126 37.2317 58.9073C37.1532 59.3019 36.9595 59.6644 36.6749 59.9489C36.3904 60.2334 36.028 60.4271 35.6333 60.5056C35.2387 60.5841 34.8297 60.5438 34.458 60.3899C34.0862 60.2359 33.7685 59.9751 33.545 59.6406C33.3215 59.3061 33.2021 58.9127 33.2021 58.5104C33.2021 57.9709 33.4165 57.4534 33.798 57.0719C34.1795 56.6904 34.6969 56.4761 35.2365 56.4761Z" fill="white"/>
<path opacity="0.5" d="M33.2024 56.4761H29.1338V60.5447H33.2024V56.4761Z" fill="white"/>
<path opacity="0.5" d="M45.4085 52.407H41.3398V56.4756H45.4085V52.407Z" fill="white"/>
<path opacity="0.5" d="M41.3401 52.407H37.2715V56.4756H41.3401V52.407Z" fill="white"/>
<path opacity="0.5" d="M33.2024 52.407H29.1338V56.4756H33.2024V52.407Z" fill="white"/>
<path opacity="0.5" d="M65.7522 3.58887H61.6836V7.6575H65.7522V3.58887Z" fill="white"/>
<path opacity="0.5" d="M61.6829 19.863H57.6143V23.9317H61.6829V19.863Z" fill="white"/>
<path opacity="0.5" d="M59.6486 15.7949C60.0509 15.7949 60.4442 15.9142 60.7788 16.1378C61.1133 16.3613 61.3741 16.679 61.528 17.0507C61.682 17.4225 61.7223 17.8315 61.6438 18.2261C61.5653 18.6207 61.3716 18.9832 61.0871 19.2677C60.8026 19.5522 60.4401 19.746 60.0455 19.8245C59.6508 19.903 59.2418 19.8627 58.8701 19.7087C58.4984 19.5547 58.1806 19.294 57.9571 18.9594C57.7336 18.6249 57.6143 18.2316 57.6143 17.8292C57.6143 17.2897 57.8286 16.7723 58.2101 16.3908C58.5916 16.0093 59.109 15.7949 59.6486 15.7949Z" fill="white"/>
<path opacity="0.5" d="M59.6486 11.7383C60.0509 11.7383 60.4442 11.8576 60.7788 12.0811C61.1133 12.3047 61.3741 12.6224 61.528 12.9941C61.682 13.3658 61.7223 13.7749 61.6438 14.1695C61.5653 14.5641 61.3716 14.9266 61.0871 15.2111C60.8026 15.4956 60.4401 15.6893 60.0455 15.7678C59.6508 15.8463 59.2418 15.806 58.8701 15.6521C58.4984 15.4981 58.1806 15.2373 57.9571 14.9028C57.7336 14.5683 57.6143 14.175 57.6143 13.7726C57.6143 13.2331 57.8286 12.7156 58.2101 12.3341C58.5916 11.9526 59.109 11.7383 59.6486 11.7383" fill="white"/>
<path opacity="0.5" d="M65.7522 19.863H61.6836V23.9317H65.7522V19.863Z" fill="white"/>
<path opacity="0.5" d="M61.6836 11.7383H65.7406V15.7953C64.6646 15.7953 63.6327 15.3679 62.8719 14.607C62.111 13.8462 61.6836 12.8143 61.6836 11.7383" fill="white"/>
<path opacity="0.5" d="M65.7461 19.8508C66.8221 19.8508 67.854 20.2783 68.6149 21.0391C69.3757 21.8 69.8031 22.8319 69.8031 23.9079H65.7461V19.8508Z" fill="white"/>
<path opacity="0.5" d="M69.8147 7.65796H65.7461V11.7266H69.8147V7.65796Z" fill="white"/>
<path opacity="0.5" d="M20.9971 19.8508H25.0541C25.0541 20.9268 24.6267 21.9588 23.8658 22.7196C23.105 23.4804 22.0731 23.9079 20.9971 23.9079V19.8508Z" fill="white"/>
<path opacity="0.5" d="M14.8935 19.851C15.2943 19.8555 15.6849 19.9784 16.0161 20.2042C16.3473 20.43 16.6045 20.7486 16.7552 21.12C16.906 21.4915 16.9436 21.8992 16.8635 22.2919C16.7833 22.6847 16.5889 23.045 16.3047 23.3277C16.0204 23.6103 15.659 23.8027 15.2658 23.8806C14.8726 23.9586 14.4651 23.9186 14.0945 23.7658C13.7239 23.6129 13.4068 23.354 13.1829 23.0215C12.959 22.689 12.8383 22.2977 12.836 21.8969C12.8344 21.6268 12.8867 21.3591 12.9896 21.1094C13.0926 20.8597 13.2443 20.6331 13.4358 20.4426C13.6274 20.2522 13.8549 20.1018 14.1052 20.0002C14.3554 19.8986 14.6234 19.8479 14.8935 19.851Z" fill="white"/>
<path opacity="0.5" d="M14.8934 15.7951C15.2948 15.7996 15.6858 15.9228 16.0173 16.1491C16.3487 16.3754 16.6059 16.6947 16.7563 17.0668C16.9067 17.4389 16.9437 17.8472 16.8626 18.2403C16.7815 18.6333 16.586 18.9937 16.3006 19.2758C16.0152 19.558 15.6527 19.7495 15.2587 19.8261C14.8647 19.9028 14.4569 19.8611 14.0865 19.7065C13.7161 19.5519 13.3998 19.2912 13.1772 18.9571C12.9547 18.6231 12.836 18.2307 12.8359 17.8294C12.8359 17.5603 12.8893 17.2938 12.993 17.0455C13.0967 16.7971 13.2486 16.5718 13.4399 16.3826C13.6313 16.1934 13.8583 16.0441 14.1078 15.9432C14.3573 15.8423 14.6243 15.792 14.8934 15.7951Z" fill="white"/>
<path opacity="0.5" d="M12.8597 15.7949H8.79102V19.8636H12.8597V15.7949Z" fill="white"/>
<path opacity="0.5" d="M16.928 11.7258H12.8594V15.7945H16.928V11.7258Z" fill="white"/>
<path opacity="0.5" d="M12.8597 11.7258H8.79102V15.7945H12.8597V11.7258Z" fill="white"/>
<path opacity="0.5" d="M16.928 7.65796H12.8594V11.7266H16.928V7.65796Z" fill="white"/>
<path opacity="0.5" d="M8.7793 7.6814H12.8363C12.8363 8.75739 12.4089 9.78932 11.6481 10.5502C10.8872 11.311 9.85529 11.7384 8.7793 11.7384V7.6814Z" fill="white"/>
<path opacity="0.5" d="M12.8597 3.58887H8.79102V7.6575H12.8597V3.58887Z" fill="white"/>
<path opacity="0.5" d="M20.9965 19.8508V23.9079H16.9395C16.9395 22.8319 17.3669 21.8 18.1277 21.0391C18.8886 20.2783 19.9205 19.8508 20.9965 19.8508" fill="white"/>
<path opacity="0.5" d="M18.9621 15.7949C19.3644 15.7949 19.7577 15.9142 20.0923 16.1378C20.4268 16.3613 20.6875 16.679 20.8415 17.0507C20.9955 17.4225 21.0358 17.8315 20.9573 18.2261C20.8788 18.6207 20.685 18.9832 20.4005 19.2677C20.116 19.5522 19.7535 19.746 19.3589 19.8245C18.9643 19.903 18.5553 19.8627 18.1836 19.7087C17.8118 19.5547 17.4941 19.294 17.2706 18.9594C17.047 18.6249 16.9277 18.2316 16.9277 17.8292C16.9277 17.2897 17.1421 16.7723 17.5236 16.3908C17.9051 16.0093 18.4225 15.7949 18.9621 15.7949Z" fill="white"/>
</g>
<path d="M38.3378 27.7804C36.3978 27.8556 34.462 27.5484 32.6405 26.8763C31.9877 26.6598 31.393 26.297 30.9018 25.8157C30.7689 25.7195 30.6608 25.5932 30.5862 25.4471C30.5116 25.301 30.4727 25.1393 30.4727 24.9753C30.4727 24.8112 30.5116 24.6496 30.5862 24.5035C30.6608 24.3574 30.7689 24.2311 30.9018 24.1349C31.4799 23.6129 32.1611 23.2181 32.9013 22.9757C34.8965 22.2618 37.0177 21.9678 39.1318 22.1122C40.6422 22.1458 42.1365 22.4298 43.554 22.9525C44.1519 23.2041 44.7327 23.4945 45.2927 23.8219C45.4555 23.9229 45.6021 24.0479 45.7274 24.1928C45.8462 24.2896 45.9419 24.4116 46.0076 24.5499C46.0733 24.6882 46.1075 24.8395 46.1075 24.9927C46.1075 25.1458 46.0733 25.2971 46.0076 25.4354C45.9419 25.5738 45.8462 25.6957 45.7274 25.7925C45.3217 26.1499 44.8717 26.4538 44.3886 26.6966C42.9104 27.3515 41.3212 27.7193 39.7056 27.7804C39.2593 27.7804 38.8072 27.7804 38.3552 27.7804H38.3378ZM30.4729 49.3233C30.4788 49.6308 30.5661 49.9312 30.726 50.1939C30.8858 50.4565 31.1125 50.6721 31.3829 50.8187C32.1192 51.2973 32.9301 51.6498 33.7823 51.8619C36.6337 52.5726 39.6127 52.5984 42.476 51.9372C43.5263 51.7121 44.5152 51.2612 45.3739 50.6158C45.5568 50.4879 45.7076 50.3192 45.8143 50.1232C45.9237 49.9278 45.9852 49.7093 45.994 49.4856C46.0288 48.7843 46.0346 48.0773 46.052 47.3644V46.9587C43.6723 48.3169 40.9599 48.9814 38.2219 48.8771C35.4986 48.9776 32.8012 48.3173 30.4323 46.9703V49.3233H30.4729ZM45.6521 42.2873C44.3178 43.0643 42.8384 43.5594 41.3052 43.742C39.8055 43.9225 38.293 43.9729 36.7845 43.8927C34.704 43.851 32.6657 43.2976 30.8496 42.2815C30.7174 42.2027 30.5799 42.1329 30.4381 42.0728V44.3042C30.4343 44.5663 30.4898 44.8258 30.6004 45.0634C30.7112 45.2896 30.8717 45.4877 31.0699 45.643C31.5282 46.023 32.0475 46.3228 32.6058 46.5298C33.7382 46.9586 34.9237 47.2315 36.1296 47.3412C38.4601 47.62 40.8227 47.4409 43.0845 46.8138C43.929 46.5915 44.7183 46.1968 45.4028 45.6546C45.5838 45.5204 45.7357 45.3508 45.8491 45.1562C45.9596 44.9543 46.0248 44.7308 46.0404 44.5013C46.0404 43.6898 46.0404 42.8784 46.0404 42.0207C45.899 42.0923 45.7616 42.1716 45.6289 42.2583L45.6521 42.2873ZM30.4729 39.6908C30.4881 39.8951 30.5495 40.0933 30.6526 40.2703C30.7494 40.463 30.8928 40.6284 31.0699 40.7514C31.2288 40.8879 31.3995 41.0101 31.5799 41.1165C32.7975 41.8229 34.1542 42.256 35.5558 42.3858C36.8367 42.5075 38.1291 42.4496 39.41 42.4727C40.7302 42.5161 42.047 42.3137 43.2932 41.8758C44.0726 41.6422 44.8031 41.2691 45.4492 40.7746C45.5993 40.6757 45.726 40.5452 45.8201 40.3921C45.9176 40.2367 45.9826 40.0632 46.0114 39.882C46.0694 38.9953 46.0867 38.0969 46.1157 37.1406L45.7738 37.3261C44.5281 38.0641 43.1497 38.5505 41.7167 38.7576C39.6841 39.0801 37.6166 39.1191 35.5732 38.8736C33.9607 38.726 32.3971 38.2423 30.9829 37.4536C30.8091 37.3609 30.6352 37.2739 30.4439 37.1638V39.6908H30.4729ZM46.0288 27.3457C43.6351 28.8295 40.9691 29.1888 38.2393 29.1888C35.5095 29.1888 32.8492 28.8179 30.4497 27.3226V29.7046C30.4545 29.9996 30.5396 30.2876 30.6959 30.5378C30.8521 30.788 31.0736 30.9909 31.3365 31.1246C32.538 31.8955 33.9 32.3813 35.3182 32.5446C36.744 32.6895 38.1871 32.6431 39.6187 32.6663C40.867 32.6799 42.107 32.4618 43.2758 32.0229C44.0588 31.7779 44.7953 31.4037 45.455 30.916C45.5968 30.8204 45.7188 30.6984 45.8143 30.5566C45.9079 30.4088 45.9691 30.2429 45.994 30.0698C46.052 29.1714 46.0752 28.2731 46.1099 27.3689H46.023L46.0288 27.3457ZM30.4266 34.3413C30.4083 34.705 30.4926 35.0665 30.67 35.3845C30.8462 35.7048 31.1121 35.9666 31.435 36.1379C32.4878 36.7671 33.6499 37.1919 34.8603 37.3898C36.2391 37.5965 37.6346 37.6702 39.0275 37.6101C40.4821 37.6377 41.9307 37.4162 43.3106 36.9552C44.0446 36.719 44.737 36.3689 45.3623 35.9177C45.5688 35.7875 45.74 35.6083 45.8607 35.3961C45.9861 35.1848 46.0578 34.946 46.0694 34.7006C46.0694 34.121 46.0694 33.5994 46.1041 33.0546V32.2548C43.7125 33.5846 41.003 34.2359 38.2682 34.1384C35.521 34.1384 32.884 33.7153 30.4555 32.2432C30.4555 32.9792 30.4555 33.6631 30.4555 34.3355L30.4266 34.3413ZM47.2749 36.1959C47.2749 37.0247 47.3444 37.8477 47.3676 38.6823C47.3676 38.8967 47.4603 38.9605 47.6632 38.9953C49.3898 39.2679 51.1467 39.2893 52.8794 39.059C54.1077 38.9218 55.3088 38.6034 56.4438 38.1143C57.0045 37.8886 57.5148 37.5537 57.9449 37.129C58.0487 37.0355 58.133 36.9223 58.1927 36.7959C58.2524 36.6695 58.2863 36.5326 58.2927 36.393C58.2964 36.2531 58.2748 36.1137 58.2289 35.9815C58.1816 35.8509 58.1065 35.7323 58.0087 35.6337C57.8165 35.4085 57.5919 35.2131 57.3422 35.0541C56.2532 34.3615 55.0238 33.92 53.743 33.7617C52.9744 33.6556 52.2003 33.5936 51.4247 33.5762C50.1365 33.4427 48.8361 33.4837 47.5589 33.6979C47.3618 33.7501 47.2575 33.7849 47.2633 34.0225C47.2633 34.7586 47.2633 35.483 47.2633 36.2075L47.2749 36.1959ZM25.4943 28.615C23.762 28.5477 22.0353 28.85 20.4288 29.5018C19.7814 29.7043 19.1874 30.0488 18.6901 30.5102C18.544 30.6225 18.4268 30.768 18.3482 30.9347C18.2696 31.1013 18.2319 31.2843 18.2381 31.4684C18.2443 31.6526 18.2944 31.8326 18.3841 31.9935C18.4738 32.1545 18.6005 32.2917 18.7539 32.3939C19.2851 32.8297 19.8922 33.1638 20.5447 33.3792C21.8137 33.8558 23.1493 34.1315 24.5033 34.1964C25.9597 34.3163 27.4248 34.2794 28.8733 34.0862C29.0182 34.0862 29.1457 34.0515 29.1457 33.8486C29.1457 32.3185 29.1457 30.7826 29.1457 29.2526C29.1457 28.7947 29.0645 28.7309 28.6183 28.7078L26.3 28.615H25.4943ZM47.2923 45.3532V48.6279C47.2923 48.8017 47.3966 48.8133 47.5241 48.8249C48.1037 48.8887 48.6833 48.964 49.2165 48.9988C51.3206 49.1507 53.435 48.923 55.4585 48.3265C56.5223 48.0666 57.4774 47.4786 58.1883 46.6457C58.2654 46.55 58.3101 46.4323 58.3158 46.3095V43.8521C58.3235 43.7615 58.3235 43.6704 58.3158 43.5797C58.2664 43.5936 58.2179 43.611 58.171 43.6319C57.2887 44.2301 56.3076 44.6676 55.2731 44.9244C53.7415 45.3336 52.1563 45.5056 50.5727 45.4344C49.5121 45.4344 48.4572 45.3648 47.3676 45.3359L47.2923 45.3532ZM18.2264 38.6997V41.4643C18.2296 41.5374 18.2583 41.6072 18.3076 41.6613C18.6738 42.147 19.1454 42.5434 19.687 42.8205C21.1239 43.499 22.6706 43.9151 24.254 44.0492C25.8362 44.1875 27.4289 44.1427 29.0008 43.9159C29.2036 43.9159 29.2384 43.8174 29.2384 43.6377V40.5427C29.2384 40.4674 29.2384 40.4036 29.2384 40.3399H29.1863L28.7632 40.3863C26.6056 40.6377 24.4231 40.5752 22.2835 40.2008C20.9461 39.9951 19.6644 39.5199 18.5162 38.804C18.4354 38.7572 18.358 38.7049 18.2844 38.6475C18.2844 38.6939 18.2438 38.7055 18.2438 38.7171L18.2264 38.6997ZM18.2264 36.5552C18.2258 36.5852 18.2311 36.6149 18.242 36.6428C18.253 36.6706 18.2693 36.696 18.2902 36.7175C18.5832 37.0558 18.9159 37.3574 19.2813 37.6159C19.8805 37.9767 20.5206 38.2646 21.1881 38.4736C23.6632 39.2074 26.2709 39.3797 28.8211 38.9779C29.0761 38.9373 29.1978 38.8388 29.1921 38.5896V38.3983C29.1921 37.4652 29.221 36.5321 29.2326 35.5989C29.2326 35.5352 29.2326 35.4714 29.2326 35.3961H29.0182C27.8996 35.4483 26.7868 35.5236 25.6682 35.5468C23.5342 35.6247 21.4107 35.2123 19.4609 34.3413C19.0552 34.15 18.6611 33.9298 18.2148 33.7037V36.5321L18.2264 36.5552ZM18.2264 46.4081C18.2277 46.4737 18.2548 46.5362 18.3018 46.5819C18.8151 47.1473 19.4331 47.6079 20.1217 47.9382C21.3936 48.4639 22.742 48.781 24.1149 48.8771C25.7327 49.0376 27.3632 49.0221 28.9776 48.8307C29.1689 48.8307 29.2326 48.7554 29.2326 48.5641V45.4923C29.2408 45.4133 29.2408 45.3337 29.2326 45.2547C28.9718 45.3011 28.6994 45.3301 28.4328 45.3532C27.1403 45.3532 25.8479 45.4054 24.5496 45.3938C22.8176 45.3639 21.1098 44.9813 19.5305 44.2694C19.0836 44.0606 18.6501 43.8245 18.2322 43.5623V46.4602L18.2264 46.4081ZM47.2981 40.3689V43.7014C47.2981 43.7536 47.4082 43.8521 47.4777 43.8637C47.8197 43.9159 48.179 43.9391 48.521 43.968C50.8087 44.2377 53.1274 44.0406 55.3368 43.3885C56.4381 43.1376 57.432 42.5453 58.1767 41.6961C58.2538 41.6004 58.2985 41.4827 58.3043 41.3599V38.9083C58.3125 38.8177 58.3125 38.7265 58.3043 38.6359C54.8384 40.7166 51.0885 40.7166 47.3097 40.3283C47.3129 40.3416 47.3129 40.3555 47.3097 40.3689" fill="white"/>
</g>
</svg>
