<svg width="75" height="50" viewBox="0 0 75 50" fill="none" xmlns="http://www.w3.org/2000/svg">
<path d="M7.77092 27.9333L9.6858 20.952H11.7702L13.6851 27.9333H12.4484L12.0295 26.3376H9.42649L9.00761 27.9333H7.77092ZM9.70574 25.2405H11.7503L10.8128 21.7H10.6432L9.70574 25.2405ZM14.6108 27.9333V20.952H15.7577V27.9333H14.6108ZM18.7371 28.073C18.3914 28.073 18.0789 28.0131 17.7996 27.8935C17.5204 27.7671 17.2977 27.5876 17.1314 27.3549C16.9719 27.1222 16.8921 26.8363 16.8921 26.4972C16.8921 26.1647 16.9719 25.8855 17.1314 25.6594C17.2977 25.4334 17.5237 25.2638 17.8096 25.1508C18.0955 25.0311 18.4213 24.9713 18.787 24.9713H20.2132V24.6721C20.2132 24.4128 20.1334 24.2033 19.9738 24.0437C19.8143 23.8775 19.5649 23.7944 19.2258 23.7944C18.8934 23.7944 18.6407 23.8742 18.4679 24.0338C18.3016 24.1867 18.1919 24.3862 18.1387 24.6322L17.0816 24.2831C17.1614 24.0238 17.2877 23.7878 17.4606 23.575C17.6401 23.3622 17.8761 23.1927 18.1687 23.0664C18.4612 22.9334 18.8203 22.8669 19.2458 22.8669C19.8907 22.8669 20.396 23.0298 20.7617 23.3556C21.1341 23.6747 21.3202 24.1402 21.3202 24.7519V26.6867C21.3202 26.8861 21.4133 26.9859 21.5995 26.9859H22.0184V27.9333H21.2105C20.9712 27.9333 20.775 27.8735 20.6221 27.7538C20.4692 27.6341 20.3927 27.4713 20.3927 27.2651V27.2452H20.2232C20.1833 27.3383 20.1135 27.4513 20.0137 27.5843C19.914 27.7173 19.7611 27.8336 19.555 27.9333C19.3555 28.0264 19.0829 28.073 18.7371 28.073ZM18.9266 27.1355C19.3056 27.1355 19.6148 27.0291 19.8542 26.8163C20.0935 26.5969 20.2132 26.3044 20.2132 25.9387V25.8389H18.8568C18.6108 25.8389 18.4113 25.8921 18.2584 25.9985C18.1055 26.1049 18.029 26.2612 18.029 26.4673C18.029 26.6667 18.1088 26.8296 18.2684 26.956C18.428 27.0756 18.6474 27.1355 18.9266 27.1355ZM22.9673 27.9333V23.0065H24.0943V23.6947H24.2639C24.3503 23.5085 24.5065 23.3323 24.7326 23.1661C24.9587 22.9999 25.3011 22.9168 25.7599 22.9168C26.1388 22.9168 26.4746 23.0032 26.7672 23.1761C27.0597 23.3489 27.2858 23.5883 27.4453 23.8941C27.6116 24.2 27.6947 24.5624 27.6947 24.9812V27.9333H26.5477V25.071C26.5477 24.6721 26.448 24.3762 26.2485 24.1834C26.0557 23.9839 25.7798 23.8842 25.4208 23.8842C25.0152 23.8842 24.696 24.0205 24.4633 24.2931C24.2306 24.559 24.1143 24.9413 24.1143 25.44V27.9333H22.9673ZM31.6054 27.9333V20.952H32.8122V23.8842H35.5648V20.952H36.7716V27.9333H35.5648V24.9812H32.8122V27.9333H31.6054ZM40.524 28.073C40.032 28.073 39.5899 27.9732 39.1976 27.7738C38.812 27.5677 38.5061 27.2784 38.28 26.9061C38.0606 26.5271 37.9509 26.075 37.9509 25.5497V25.3901C37.9509 24.8649 38.0606 24.4128 38.28 24.0338C38.5061 23.6548 38.812 23.3656 39.1976 23.1661C39.5899 22.9666 40.032 22.8669 40.524 22.8669C41.0161 22.8669 41.4549 22.9666 41.8405 23.1661C42.2262 23.3656 42.5287 23.6548 42.7481 24.0338C42.9742 24.4128 43.0872 24.8649 43.0872 25.3901V25.5497C43.0872 26.075 42.9742 26.5271 42.7481 26.9061C42.5287 27.2784 42.2262 27.5677 41.8405 27.7738C41.4549 27.9732 41.0161 28.073 40.524 28.073ZM40.524 27.0557C40.9429 27.0557 41.2853 26.9227 41.5513 26.6568C41.8173 26.3842 41.9502 26.0052 41.9502 25.5198V25.4201C41.9502 24.9347 41.8173 24.559 41.5513 24.2931C41.2853 24.0205 40.9429 23.8842 40.524 23.8842C40.1052 23.8842 39.7628 24.0205 39.4968 24.2931C39.2308 24.559 39.0979 24.9347 39.0979 25.4201V25.5198C39.0979 26.0052 39.2308 26.3842 39.4968 26.6568C39.7628 26.9227 40.1052 27.0557 40.524 27.0557ZM44.7365 27.9333L43.9686 23.0065H45.1055L45.6341 27.1654H45.8037L46.5517 23.0065H48.3868L49.1348 27.1654H49.3043L49.8329 23.0065H50.9699L50.2019 27.9333H48.297L47.559 23.7745H47.3894L46.6414 27.9333H44.7365ZM53.6341 28.073C53.2883 28.073 52.9758 28.0131 52.6966 27.8935C52.4173 27.7671 52.1946 27.5876 52.0284 27.3549C51.8688 27.1222 51.789 26.8363 51.789 26.4972C51.789 26.1647 51.8688 25.8855 52.0284 25.6594C52.1946 25.4334 52.4206 25.2638 52.7065 25.1508C52.9925 25.0311 53.3182 24.9713 53.6839 24.9713H55.1101V24.6721C55.1101 24.4128 55.0303 24.2033 54.8708 24.0437C54.7112 23.8775 54.4619 23.7944 54.1228 23.7944C53.7903 23.7944 53.5377 23.8742 53.3648 24.0338C53.1986 24.1867 53.0889 24.3862 53.0357 24.6322L51.9785 24.2831C52.0583 24.0238 52.1846 23.7878 52.3575 23.575C52.537 23.3622 52.773 23.1927 53.0656 23.0664C53.3581 22.9334 53.7172 22.8669 54.1427 22.8669C54.7877 22.8669 55.293 23.0298 55.6587 23.3556C56.031 23.6747 56.2172 24.1402 56.2172 24.7519V26.6867C56.2172 26.8861 56.3102 26.9859 56.4964 26.9859H56.9153V27.9333H56.1075C55.8681 27.9333 55.672 27.8735 55.519 27.7538C55.3661 27.6341 55.2896 27.4713 55.2896 27.2651V27.2452H55.1201C55.0802 27.3383 55.0104 27.4513 54.9107 27.5843C54.8109 27.7173 54.658 27.8336 54.4519 27.9333C54.2524 28.0264 53.9798 28.073 53.6341 28.073ZM53.8236 27.1355C54.2025 27.1355 54.5117 27.0291 54.7511 26.8163C54.9904 26.5969 55.1101 26.3044 55.1101 25.9387V25.8389H53.7537C53.5077 25.8389 53.3083 25.8921 53.1553 25.9985C53.0024 26.1049 52.926 26.2612 52.926 26.4673C52.926 26.6667 53.0057 26.8296 53.1653 26.956C53.3249 27.0756 53.5443 27.1355 53.8236 27.1355ZM57.8642 27.9333V23.0065H58.9912V23.575H59.1608C59.2339 23.3689 59.3569 23.2193 59.5298 23.1262C59.7027 23.0331 59.9088 22.9866 60.1481 22.9866H60.7465V24.0039H60.1282C59.7957 24.0039 59.5265 24.0936 59.3204 24.2731C59.1142 24.446 59.0112 24.7153 59.0112 25.081V27.9333H57.8642ZM63.5994 28.073C63.2004 28.073 62.8281 27.9766 62.4824 27.7837C62.1366 27.5843 61.8607 27.2951 61.6546 26.9161C61.4485 26.5371 61.3454 26.0816 61.3454 25.5497V25.3901C61.3454 24.8582 61.4485 24.4028 61.6546 24.0238C61.8607 23.6448 62.1333 23.3589 62.4724 23.1661C62.8181 22.9666 63.1938 22.8669 63.5994 22.8669C63.9052 22.8669 64.1645 22.9035 64.3773 22.9766C64.5901 23.0497 64.7596 23.1428 64.8859 23.2559C65.0189 23.3689 65.122 23.4919 65.1951 23.6249H65.3647V20.952H66.5016V27.9333H65.3846V27.2851H65.2151C65.0954 27.4845 64.9125 27.6674 64.6665 27.8336C64.4205 27.9932 64.0648 28.073 63.5994 28.073ZM63.9385 27.0756C64.3507 27.0756 64.6931 26.9427 64.9657 26.6767C65.2383 26.4041 65.3746 26.0185 65.3746 25.5198V25.4201C65.3746 24.9148 65.2383 24.5291 64.9657 24.2632C64.6998 23.9972 64.3574 23.8642 63.9385 23.8642C63.5262 23.8642 63.1805 23.9972 62.9012 24.2632C62.6286 24.5291 62.4923 24.9148 62.4923 25.4201V25.5198C62.4923 26.0185 62.6286 26.4041 62.9012 26.6767C63.1805 26.9427 63.5262 27.0756 63.9385 27.0756Z" fill="#C5C5C5"/>
<path d="M7.77092 27.9333L9.6858 20.952H11.7702L13.6851 27.9333H12.4484L12.0295 26.3376H9.42649L9.00761 27.9333H7.77092ZM9.70574 25.2405H11.7503L10.8128 21.7H10.6432L9.70574 25.2405ZM14.6108 27.9333V20.952H15.7577V27.9333H14.6108ZM18.7371 28.073C18.3914 28.073 18.0789 28.0131 17.7996 27.8935C17.5204 27.7671 17.2977 27.5876 17.1314 27.3549C16.9719 27.1222 16.8921 26.8363 16.8921 26.4972C16.8921 26.1647 16.9719 25.8855 17.1314 25.6594C17.2977 25.4334 17.5237 25.2638 17.8096 25.1508C18.0955 25.0311 18.4213 24.9713 18.787 24.9713H20.2132V24.6721C20.2132 24.4128 20.1334 24.2033 19.9738 24.0437C19.8143 23.8775 19.5649 23.7944 19.2258 23.7944C18.8934 23.7944 18.6407 23.8742 18.4679 24.0338C18.3016 24.1867 18.1919 24.3862 18.1387 24.6322L17.0816 24.2831C17.1614 24.0238 17.2877 23.7878 17.4606 23.575C17.6401 23.3622 17.8761 23.1927 18.1687 23.0664C18.4612 22.9334 18.8203 22.8669 19.2458 22.8669C19.8907 22.8669 20.396 23.0298 20.7617 23.3556C21.1341 23.6747 21.3202 24.1402 21.3202 24.7519V26.6867C21.3202 26.8861 21.4133 26.9859 21.5995 26.9859H22.0184V27.9333H21.2105C20.9712 27.9333 20.775 27.8735 20.6221 27.7538C20.4692 27.6341 20.3927 27.4713 20.3927 27.2651V27.2452H20.2232C20.1833 27.3383 20.1135 27.4513 20.0137 27.5843C19.914 27.7173 19.7611 27.8336 19.555 27.9333C19.3555 28.0264 19.0829 28.073 18.7371 28.073ZM18.9266 27.1355C19.3056 27.1355 19.6148 27.0291 19.8542 26.8163C20.0935 26.5969 20.2132 26.3044 20.2132 25.9387V25.8389H18.8568C18.6108 25.8389 18.4113 25.8921 18.2584 25.9985C18.1055 26.1049 18.029 26.2612 18.029 26.4673C18.029 26.6667 18.1088 26.8296 18.2684 26.956C18.428 27.0756 18.6474 27.1355 18.9266 27.1355ZM22.9673 27.9333V23.0065H24.0943V23.6947H24.2639C24.3503 23.5085 24.5065 23.3323 24.7326 23.1661C24.9587 22.9999 25.3011 22.9168 25.7599 22.9168C26.1388 22.9168 26.4746 23.0032 26.7672 23.1761C27.0597 23.3489 27.2858 23.5883 27.4453 23.8941C27.6116 24.2 27.6947 24.5624 27.6947 24.9812V27.9333H26.5477V25.071C26.5477 24.6721 26.448 24.3762 26.2485 24.1834C26.0557 23.9839 25.7798 23.8842 25.4208 23.8842C25.0152 23.8842 24.696 24.0205 24.4633 24.2931C24.2306 24.559 24.1143 24.9413 24.1143 25.44V27.9333H22.9673ZM31.6054 27.9333V20.952H32.8122V23.8842H35.5648V20.952H36.7716V27.9333H35.5648V24.9812H32.8122V27.9333H31.6054ZM40.524 28.073C40.032 28.073 39.5899 27.9732 39.1976 27.7738C38.812 27.5677 38.5061 27.2784 38.28 26.9061C38.0606 26.5271 37.9509 26.075 37.9509 25.5497V25.3901C37.9509 24.8649 38.0606 24.4128 38.28 24.0338C38.5061 23.6548 38.812 23.3656 39.1976 23.1661C39.5899 22.9666 40.032 22.8669 40.524 22.8669C41.0161 22.8669 41.4549 22.9666 41.8405 23.1661C42.2262 23.3656 42.5287 23.6548 42.7481 24.0338C42.9742 24.4128 43.0872 24.8649 43.0872 25.3901V25.5497C43.0872 26.075 42.9742 26.5271 42.7481 26.9061C42.5287 27.2784 42.2262 27.5677 41.8405 27.7738C41.4549 27.9732 41.0161 28.073 40.524 28.073ZM40.524 27.0557C40.9429 27.0557 41.2853 26.9227 41.5513 26.6568C41.8173 26.3842 41.9502 26.0052 41.9502 25.5198V25.4201C41.9502 24.9347 41.8173 24.559 41.5513 24.2931C41.2853 24.0205 40.9429 23.8842 40.524 23.8842C40.1052 23.8842 39.7628 24.0205 39.4968 24.2931C39.2308 24.559 39.0979 24.9347 39.0979 25.4201V25.5198C39.0979 26.0052 39.2308 26.3842 39.4968 26.6568C39.7628 26.9227 40.1052 27.0557 40.524 27.0557ZM44.7365 27.9333L43.9686 23.0065H45.1055L45.6341 27.1654H45.8037L46.5517 23.0065H48.3868L49.1348 27.1654H49.3043L49.8329 23.0065H50.9699L50.2019 27.9333H48.297L47.559 23.7745H47.3894L46.6414 27.9333H44.7365ZM53.6341 28.073C53.2883 28.073 52.9758 28.0131 52.6966 27.8935C52.4173 27.7671 52.1946 27.5876 52.0284 27.3549C51.8688 27.1222 51.789 26.8363 51.789 26.4972C51.789 26.1647 51.8688 25.8855 52.0284 25.6594C52.1946 25.4334 52.4206 25.2638 52.7065 25.1508C52.9925 25.0311 53.3182 24.9713 53.6839 24.9713H55.1101V24.6721C55.1101 24.4128 55.0303 24.2033 54.8708 24.0437C54.7112 23.8775 54.4619 23.7944 54.1228 23.7944C53.7903 23.7944 53.5377 23.8742 53.3648 24.0338C53.1986 24.1867 53.0889 24.3862 53.0357 24.6322L51.9785 24.2831C52.0583 24.0238 52.1846 23.7878 52.3575 23.575C52.537 23.3622 52.773 23.1927 53.0656 23.0664C53.3581 22.9334 53.7172 22.8669 54.1427 22.8669C54.7877 22.8669 55.293 23.0298 55.6587 23.3556C56.031 23.6747 56.2172 24.1402 56.2172 24.7519V26.6867C56.2172 26.8861 56.3102 26.9859 56.4964 26.9859H56.9153V27.9333H56.1075C55.8681 27.9333 55.672 27.8735 55.519 27.7538C55.3661 27.6341 55.2896 27.4713 55.2896 27.2651V27.2452H55.1201C55.0802 27.3383 55.0104 27.4513 54.9107 27.5843C54.8109 27.7173 54.658 27.8336 54.4519 27.9333C54.2524 28.0264 53.9798 28.073 53.6341 28.073ZM53.8236 27.1355C54.2025 27.1355 54.5117 27.0291 54.7511 26.8163C54.9904 26.5969 55.1101 26.3044 55.1101 25.9387V25.8389H53.7537C53.5077 25.8389 53.3083 25.8921 53.1553 25.9985C53.0024 26.1049 52.926 26.2612 52.926 26.4673C52.926 26.6667 53.0057 26.8296 53.1653 26.956C53.3249 27.0756 53.5443 27.1355 53.8236 27.1355ZM57.8642 27.9333V23.0065H58.9912V23.575H59.1608C59.2339 23.3689 59.3569 23.2193 59.5298 23.1262C59.7027 23.0331 59.9088 22.9866 60.1481 22.9866H60.7465V24.0039H60.1282C59.7957 24.0039 59.5265 24.0936 59.3204 24.2731C59.1142 24.446 59.0112 24.7153 59.0112 25.081V27.9333H57.8642ZM63.5994 28.073C63.2004 28.073 62.8281 27.9766 62.4824 27.7837C62.1366 27.5843 61.8607 27.2951 61.6546 26.9161C61.4485 26.5371 61.3454 26.0816 61.3454 25.5497V25.3901C61.3454 24.8582 61.4485 24.4028 61.6546 24.0238C61.8607 23.6448 62.1333 23.3589 62.4724 23.1661C62.8181 22.9666 63.1938 22.8669 63.5994 22.8669C63.9052 22.8669 64.1645 22.9035 64.3773 22.9766C64.5901 23.0497 64.7596 23.1428 64.8859 23.2559C65.0189 23.3689 65.122 23.4919 65.1951 23.6249H65.3647V20.952H66.5016V27.9333H65.3846V27.2851H65.2151C65.0954 27.4845 64.9125 27.6674 64.6665 27.8336C64.4205 27.9932 64.0648 28.073 63.5994 28.073ZM63.9385 27.0756C64.3507 27.0756 64.6931 26.9427 64.9657 26.6767C65.2383 26.4041 65.3746 26.0185 65.3746 25.5198V25.4201C65.3746 24.9148 65.2383 24.5291 64.9657 24.2632C64.6998 23.9972 64.3574 23.8642 63.9385 23.8642C63.5262 23.8642 63.1805 23.9972 62.9012 24.2632C62.6286 24.5291 62.4923 24.9148 62.4923 25.4201V25.5198C62.4923 26.0185 62.6286 26.4041 62.9012 26.6767C63.1805 26.9427 63.5262 27.0756 63.9385 27.0756Z" fill="url(#paint0_linear)"/>
<defs>
<linearGradient id="paint0_linear" x1="-0.101074" y1="25.1792" x2="74.9032" y2="25.3928" gradientUnits="userSpaceOnUse">
<stop stop-color="#2D82B7"/>
<stop offset="1" stop-color="#5CC7F2"/>
</linearGradient>
</defs>
</svg>
