<svg width="75" height="50" viewBox="0 0 75 50" fill="none" xmlns="http://www.w3.org/2000/svg">
<g clip-path="url(#clip0)">
<path d="M60.9694 21.4631H58.5112V31.2884H60.9694V21.4631Z" fill="#FFB11A"/>
<path d="M59.7403 20.2342C60.4199 20.2342 60.9694 19.6848 60.9694 19.0052C60.9694 18.3256 60.4199 17.7761 59.7403 17.7761C59.0607 17.7761 58.5112 18.3256 58.5112 19.0052C58.5112 19.6848 59.0607 20.2342 59.7403 20.2342Z" fill="#FFB11A"/>
<path d="M28.7752 21.4634C27.8787 21.4634 27.04 21.702 26.317 22.1213V16.5471H23.8589V26.3724C23.8589 29.0836 26.0567 31.2887 28.7752 31.2887C31.4936 31.2887 33.6914 29.0908 33.6914 26.3724C33.6914 23.6612 31.4863 21.4634 28.7752 21.4634ZM28.7752 28.8305C27.416 28.8305 26.317 27.7316 26.317 26.3724C26.317 25.0132 27.416 23.9143 28.7752 23.9143C30.1344 23.9143 31.2333 25.0132 31.2333 26.3724C31.2333 27.7316 30.1344 28.8305 28.7752 28.8305Z" fill="#FFB11A"/>
<path d="M51.8743 21.4634C50.9778 21.4634 50.1391 21.702 49.4161 22.1213V16.5471H46.958V26.3724C46.958 29.0836 49.1559 31.2887 51.8743 31.2887C54.5927 31.2887 56.7905 29.0908 56.7905 26.3724C56.7905 23.6612 54.5854 21.4634 51.8743 21.4634ZM51.8743 28.8305C50.5151 28.8305 49.4161 27.7316 49.4161 26.3724C49.4161 25.0132 50.5151 23.9143 51.8743 23.9143C53.2335 23.9143 54.3324 25.0132 54.3324 26.3724C54.3324 27.7316 53.2335 28.8305 51.8743 28.8305Z" fill="#FFB11A"/>
<path d="M45.2374 21.4634H42.7792V26.3796V26.3941C42.772 27.7461 41.673 28.8378 40.3211 28.8378C40.1114 28.8378 39.9017 28.8088 39.7065 28.7582C39.2727 28.6498 38.8896 28.4257 38.5859 28.1148C38.1449 27.6738 37.8629 27.0592 37.8629 26.3796V21.4634H35.4048V26.3796C35.4048 27.2472 35.6289 28.0569 36.0193 28.7582C36.4531 29.5391 37.0893 30.1897 37.8629 30.6307C38.5859 31.0501 39.4246 31.2887 40.3211 31.2887C41.2176 31.2887 42.0562 31.0501 42.7792 30.6307V31.2887C42.7792 32.6479 41.6803 33.7468 40.3211 33.7468V36.2049C43.0323 36.2049 45.2374 34.0071 45.2374 31.2887V26.3724V21.4634Z" fill="#FFB11A"/>
<path d="M63.919 16.5471V21.4634H62.6899V23.9215H63.919V31.2887H66.3771V23.9215H67.599V21.4634H66.3771V16.5471H63.919Z" fill="#FFB11A"/>
<path d="M7.93245 29.5096C7.99751 29.6831 8.06258 29.8566 8.12765 30.0229C8.28671 30.3844 8.47468 30.7314 8.6988 31.064C8.36623 30.1313 8.0192 29.2204 7.65771 28.3384C7.71555 28.7288 7.80954 29.1264 7.93245 29.5096Z" fill="#FFB11A"/>
<path d="M7.64982 28.2658C8.07638 29.2708 8.47402 30.2757 8.84274 31.259C8.95119 31.4036 9.06686 31.5482 9.18977 31.6855C8.69091 30.3119 8.16314 28.9816 7.60645 27.7019C7.61368 27.8971 7.62813 28.0779 7.64982 28.2658Z" fill="#FFB11A"/>
<path d="M7.60635 27.6729C8.24257 29.0827 8.81373 30.4781 9.32704 31.8445C9.37765 31.9023 9.42826 31.9529 9.4861 32.0108C9.52947 32.0541 9.58008 32.1048 9.62346 32.1481C8.99447 30.4419 8.31487 28.808 7.59912 27.2463C7.59912 27.3909 7.59912 27.5283 7.60635 27.6729Z" fill="#FFB11A"/>
<path d="M7.60645 27.225C8.42341 28.9385 9.14639 30.6375 9.77538 32.2859C9.86214 32.3654 9.95613 32.4377 10.0501 32.5172C9.29822 30.5363 8.48848 28.6493 7.62813 26.8635C7.61368 26.9792 7.60645 27.1021 7.60645 27.225Z" fill="#FFB11A"/>
<path d="M7.62842 26.8488C8.61167 28.8153 9.46478 30.7746 10.2095 32.6398C10.2962 32.7049 10.383 32.7627 10.4625 32.8206C9.59492 30.6083 8.66228 28.5044 7.66457 26.5234C7.65011 26.6319 7.64288 26.7403 7.62842 26.8488Z" fill="#FFB11A"/>
<path d="M7.67139 26.5165C8.81369 28.7071 9.79694 30.8761 10.6428 32.9293C10.7224 32.9799 10.8091 33.0306 10.8886 33.0739C9.90539 30.6592 8.84984 28.3746 7.722 26.2273C7.70031 26.3213 7.68585 26.4225 7.67139 26.5165Z" fill="#FFB11A"/>
<path d="M7.72168 26.2204C9.01581 28.599 10.1292 30.9631 11.0691 33.1682C11.1486 33.2116 11.2281 33.2477 11.3004 33.2839C10.2087 30.6956 9.03027 28.2447 7.77952 25.9529C7.75783 26.0469 7.73614 26.1336 7.72168 26.2204Z" fill="#FFB11A"/>
<path d="M7.77979 25.9526C9.22575 28.5047 10.462 31.0351 11.4887 33.3704C11.561 33.4065 11.6405 33.4354 11.72 33.4643C10.5126 30.7243 9.21852 28.1215 7.84485 25.7068C7.81593 25.7863 7.79424 25.8731 7.77979 25.9526Z" fill="#FFB11A"/>
<path d="M7.84521 25.7067C9.43577 28.4179 10.795 31.0929 11.9156 33.5438C11.9879 33.5727 12.0602 33.5944 12.1325 33.6161C10.8167 30.7314 9.40685 28.0058 7.91028 25.4753C7.88859 25.5476 7.8669 25.6272 7.84521 25.7067Z" fill="#FFB11A"/>
<path d="M7.91064 25.4752C9.65302 28.331 11.1279 31.1361 12.3425 33.6738C12.4148 33.6955 12.4871 33.71 12.5594 33.7316C11.1279 30.7313 9.59518 27.89 7.99017 25.2583C7.96125 25.3306 7.93956 25.4029 7.91064 25.4752Z" fill="#FFB11A"/>
<path d="M12.769 33.7755C12.8413 33.7899 12.9064 33.8044 12.9787 33.8116C11.4387 30.71 9.79036 27.7747 8.06967 25.0563C8.06967 25.0563 8.06967 25.0491 8.06244 25.0491C8.03352 25.1141 8.01183 25.1864 7.98291 25.2515C9.86988 28.2374 11.4677 31.1655 12.769 33.7755Z" fill="#FFB11A"/>
<path d="M13.2024 33.8401C13.2675 33.8473 13.3398 33.8546 13.4048 33.8618C11.742 30.6735 9.98514 27.6514 8.14877 24.8607C8.14877 24.8607 8.14877 24.8535 8.14154 24.8535C8.11262 24.9186 8.0837 24.9837 8.06201 25.0487C8.06201 25.0487 8.06201 25.0559 8.06924 25.0559C10.0936 28.1503 11.807 31.1796 13.2024 33.8401Z" fill="#FFB11A"/>
<path d="M13.6285 33.8832C13.6936 33.8905 13.7587 33.8905 13.8237 33.8905C12.0452 30.6226 10.1727 27.5283 8.2351 24.6725C8.2351 24.6725 8.2351 24.6653 8.22787 24.6653C8.19895 24.7304 8.17003 24.7882 8.14111 24.8533C8.14111 24.8533 8.14111 24.8605 8.14834 24.8605C10.3173 28.056 12.1536 31.1793 13.6285 33.8832Z" fill="#FFB11A"/>
<path d="M14.0627 33.8981C14.1277 33.8981 14.1928 33.8981 14.2579 33.8909C12.3637 30.5652 10.3755 27.4058 8.32943 24.4922C8.30051 24.55 8.27159 24.6079 8.24268 24.6729C8.24268 24.6729 8.24268 24.6802 8.24991 24.6802C10.5417 27.9625 12.501 31.158 14.0627 33.8981Z" fill="#FFB11A"/>
<path d="M14.4888 33.8837C14.5539 33.8765 14.6117 33.8765 14.6768 33.8692C13.0067 31.0713 10.8956 27.7528 8.40853 24.3259C8.37962 24.3838 8.3507 24.4344 8.32178 24.4922C10.7582 27.8685 12.8404 31.1219 14.4888 33.8837Z" fill="#FFB11A"/>
<path d="M15.0962 33.811C13.3466 31.013 11.1199 27.6512 8.50268 24.1592C8.47376 24.2098 8.43761 24.2676 8.40869 24.3182C10.9753 27.7596 13.1804 31.0636 14.9083 33.8327C14.9733 33.8327 15.0384 33.8182 15.0962 33.811Z" fill="#FFB11A"/>
<path d="M15.5159 33.7244C13.6868 30.9337 11.3371 27.5429 8.60424 24.0076C8.57532 24.0582 8.53917 24.1088 8.51025 24.1594C11.207 27.6586 13.5277 30.9988 15.3424 33.7678C15.4003 33.7533 15.4581 33.7389 15.5159 33.7244Z" fill="#FFB11A"/>
<path d="M15.9278 33.6161C14.0191 30.8398 11.5538 27.4274 8.70522 23.8486C8.66907 23.8992 8.64015 23.9499 8.604 24.0005C11.4236 27.5431 13.8528 30.9121 15.7543 33.6667C15.8121 33.6522 15.8699 33.6378 15.9278 33.6161Z" fill="#FFB11A"/>
<path d="M16.1667 33.5364C16.2246 33.5147 16.2752 33.5002 16.333 33.4785C16.2969 33.4279 16.2679 33.3845 16.2318 33.3339C14.2581 30.6083 11.7204 27.2465 8.80678 23.7039C8.77063 23.7545 8.74172 23.7978 8.70557 23.8485C11.6047 27.3766 14.1207 30.724 16.0872 33.4351C16.1161 33.4713 16.1378 33.5074 16.1667 33.5364Z" fill="#FFB11A"/>
<path d="M16.5643 33.3846C16.6149 33.3629 16.6728 33.3412 16.7234 33.3123C16.6583 33.2256 16.586 33.1316 16.5209 33.0448C14.4821 30.3698 11.8794 27.0658 8.91518 23.5593C8.87903 23.6027 8.84288 23.6533 8.81396 23.6967C11.771 27.1887 14.3592 30.4782 16.3908 33.1388C16.4486 33.2256 16.5065 33.3051 16.5643 33.3846Z" fill="#FFB11A"/>
<path d="M17.1059 33.1247C14.7996 30.2401 12.0523 26.8999 9.023 23.4224C8.98685 23.4657 8.9507 23.5091 8.91455 23.5597C11.9294 27.0083 14.6622 30.334 16.9541 33.2043C17.0047 33.1753 17.0553 33.1537 17.1059 33.1247Z" fill="#FFB11A"/>
<path d="M17.4746 32.9073C15.0887 30.066 12.2402 26.7548 9.1314 23.2917C9.09525 23.3351 9.0591 23.3785 9.02295 23.4219C12.1245 26.8705 14.9586 30.1673 17.33 32.9941C17.3806 32.9652 17.4312 32.9363 17.4746 32.9073Z" fill="#FFB11A"/>
<path d="M17.836 32.6617C15.3707 29.871 12.4354 26.5959 9.24702 23.1545C9.21088 23.1979 9.17473 23.2413 9.13135 23.2847C12.3125 26.7116 15.2333 29.9722 17.6914 32.7629C17.742 32.7267 17.7926 32.6978 17.836 32.6617Z" fill="#FFB11A"/>
<path d="M18.1768 32.3943C15.6392 29.6542 12.6244 26.437 9.36372 23.0317C9.32757 23.0751 9.2842 23.1113 9.24805 23.1546C12.5015 26.5526 15.509 29.7699 18.0467 32.5028C18.0901 32.4666 18.1335 32.4305 18.1768 32.3943Z" fill="#FFB11A"/>
<path d="M18.5013 32.105C15.8914 29.43 12.8043 26.2705 9.48579 22.9087C9.44242 22.9521 9.40627 22.9882 9.37012 23.0316C12.6814 26.3935 15.7685 29.5529 18.3784 32.2279C18.4146 32.1845 18.458 32.1411 18.5013 32.105Z" fill="#FFB11A"/>
<path d="M18.805 31.794C16.13 29.184 12.9706 26.0969 9.60875 22.7856C9.56537 22.8218 9.52922 22.8652 9.48584 22.9013C12.8549 26.2198 16.0071 29.3069 18.6821 31.9169C18.7255 31.8735 18.7617 31.8373 18.805 31.794Z" fill="#FFB11A"/>
<path d="M19.08 31.4616C16.3471 28.9312 13.1371 25.9163 9.73912 22.6702C9.69574 22.7063 9.65236 22.7497 9.61621 22.7858C13.0214 26.0392 16.2387 29.0541 18.9788 31.5917C19.0149 31.5483 19.0511 31.505 19.08 31.4616Z" fill="#FFB11A"/>
<path d="M19.3404 31.1145C16.5569 28.6564 13.2963 25.7355 9.86939 22.5544C9.82602 22.5906 9.78264 22.6267 9.73926 22.6701C13.1806 25.8585 16.4485 28.7937 19.2464 31.2591C19.2753 31.2085 19.3115 31.1651 19.3404 31.1145Z" fill="#FFB11A"/>
<path d="M19.5788 30.7531C16.7448 28.3745 13.448 25.5404 10.0066 22.446C9.96322 22.4822 9.91984 22.5183 9.87646 22.5545C13.3395 25.6705 16.6508 28.5118 19.4921 30.8977C19.5138 30.8471 19.5499 30.8037 19.5788 30.7531Z" fill="#FFB11A"/>
<path d="M19.7892 30.3699C16.919 28.078 13.5933 25.3451 10.1447 22.3303C10.1013 22.3665 10.0507 22.4026 10.0073 22.4388C13.4776 25.4681 16.825 28.2226 19.7097 30.5217C19.7314 30.4711 19.7603 30.4205 19.7892 30.3699Z" fill="#FFB11A"/>
<path d="M19.8976 30.1459C19.9193 30.0953 19.9482 30.0374 19.9699 29.9868C19.8904 29.929 19.8109 29.8639 19.7313 29.8061C17.0635 27.7745 13.774 25.1862 10.2892 22.2292C10.2458 22.2654 10.1952 22.2943 10.1519 22.3305C13.6438 25.3019 16.9479 27.9046 19.6229 29.9362C19.7169 30.0085 19.8036 30.0736 19.8976 30.1459Z" fill="#FFB11A"/>
<path d="M20.0632 29.7481C20.0848 29.6903 20.1065 29.6397 20.121 29.5819C20.0848 29.5602 20.0487 29.5312 20.0198 29.5096C17.3014 27.543 13.9612 25.0198 10.4258 22.1279C10.3752 22.1641 10.3319 22.193 10.2812 22.2291C13.8238 25.1428 17.1857 27.6732 19.9186 29.6541C19.9692 29.6831 20.0125 29.7192 20.0632 29.7481Z" fill="#FFB11A"/>
<path d="M20.2512 29.1766C17.4966 27.2824 14.1275 24.846 10.5849 22.0264C10.5343 22.0553 10.4837 22.0914 10.4331 22.1276C14.0119 24.9761 17.4243 27.4415 20.2005 29.3501C20.215 29.2851 20.2295 29.2345 20.2512 29.1766Z" fill="#FFB11A"/>
<path d="M20.3457 28.7577C17.5767 26.943 14.2293 24.6222 10.7373 21.9255C10.6867 21.9545 10.6361 21.9906 10.5854 22.0195C14.128 24.7524 17.5188 27.1021 20.3095 28.9312C20.324 28.8734 20.3384 28.8155 20.3457 28.7577Z" fill="#FFB11A"/>
<path d="M20.4176 28.3311C17.6486 26.6032 14.3446 24.3981 10.9032 21.8315C10.8526 21.8605 10.7947 21.8894 10.7441 21.9255C14.2361 24.5355 17.5907 26.7695 20.3959 28.5191C20.4031 28.454 20.4104 28.3962 20.4176 28.3311Z" fill="#FFB11A"/>
<path d="M20.4612 27.9043C17.6994 26.2559 14.446 24.1738 11.0769 21.7373C11.0191 21.7662 10.9685 21.7951 10.9106 21.8241C14.3376 24.3039 17.656 26.4222 20.454 28.0923C20.454 28.0345 20.4612 27.9694 20.4612 27.9043Z" fill="#FFB11A"/>
<path d="M20.4754 27.6733C20.4754 27.6082 20.4754 27.5432 20.4826 27.4781C17.7425 25.9165 14.547 23.9572 11.2646 21.6581C11.2646 21.6581 11.2574 21.6581 11.2574 21.6509C11.1996 21.6798 11.1417 21.7087 11.0767 21.7376C13.9903 23.7909 17.1497 25.7791 20.4754 27.6733Z" fill="#FFB11A"/>
<path d="M20.4752 27.2468C20.4752 27.1818 20.468 27.1167 20.468 27.0516C17.7568 25.5768 14.6408 23.7404 11.4452 21.5714C11.4452 21.5714 11.438 21.5714 11.438 21.5642C11.3729 21.5931 11.3151 21.622 11.25 21.651C11.25 21.651 11.2572 21.651 11.2572 21.6582C14.113 23.5958 17.2073 25.4683 20.4752 27.2468Z" fill="#FFB11A"/>
<path d="M11.25 21.6509C11.2554 21.6509 11.2554 21.6563 11.25 21.6509C11.2554 21.6563 11.2554 21.6509 11.25 21.6509Z" fill="#FFB11A"/>
<path d="M20.4463 26.8201C20.4391 26.755 20.4318 26.6827 20.4246 26.6176C17.7568 25.2295 14.7348 23.5089 11.6404 21.4845C11.6404 21.4845 11.6332 21.4845 11.6332 21.4773C11.5681 21.5062 11.5031 21.5279 11.438 21.5568C11.438 21.5568 11.4452 21.5568 11.4452 21.5641C14.2359 23.4004 17.258 25.1645 20.4463 26.8201Z" fill="#FFB11A"/>
<path d="M20.3959 26.4008C20.3815 26.3285 20.3742 26.2635 20.3598 26.1912C17.7498 24.8898 14.8217 23.292 11.8431 21.405C11.7708 21.4267 11.7057 21.4556 11.6406 21.4846C11.6406 21.4846 11.6479 21.4846 11.6479 21.4918C14.3518 23.2053 17.2871 24.8536 20.3959 26.4008Z" fill="#FFB11A"/>
<path d="M20.2509 25.7573C17.7133 24.5427 14.9081 23.0678 12.0523 21.3254C11.98 21.3471 11.9077 21.376 11.8354 21.3977C14.4671 23.0027 17.3012 24.5355 20.3088 25.967C20.2871 25.9019 20.2726 25.8296 20.2509 25.7573Z" fill="#FFB11A"/>
<path d="M20.1207 25.3306C17.677 24.21 15.002 22.8508 12.2836 21.2603C12.2041 21.2819 12.1318 21.3036 12.0522 21.3326C14.5827 22.8219 17.3083 24.2389 20.1857 25.5548C20.1713 25.4825 20.1424 25.4029 20.1207 25.3306Z" fill="#FFB11A"/>
<path d="M19.9551 24.9113C17.6198 23.8774 15.0894 22.6484 12.5373 21.2024C12.4578 21.2241 12.371 21.2458 12.2915 21.2675C14.7062 22.6411 17.3017 23.9353 20.049 25.1426C20.0201 25.0559 19.9912 24.9836 19.9551 24.9113Z" fill="#FFB11A"/>
<path d="M19.7529 24.4846C17.5478 23.5447 15.1837 22.4313 12.8051 21.1372C12.7183 21.1517 12.6316 21.1734 12.5376 21.195C14.8294 22.4458 17.2803 23.6242 19.8686 24.7159C19.8325 24.6364 19.7963 24.5569 19.7529 24.4846Z" fill="#FFB11A"/>
<path d="M19.5135 24.0581C17.4603 23.2122 15.2913 22.229 13.1007 21.0867C13.0067 21.1011 12.9055 21.1156 12.8115 21.1373C14.9588 22.2651 17.2434 23.3207 19.6581 24.3039C19.6075 24.2172 19.5641 24.1376 19.5135 24.0581Z" fill="#FFB11A"/>
<path d="M19.2171 23.6316C17.3446 22.8869 15.3925 22.0338 13.426 21.0505C13.3176 21.0578 13.2091 21.0722 13.1079 21.0867C15.0889 22.0844 17.1927 23.017 19.4051 23.8846C19.34 23.7979 19.2821 23.7111 19.2171 23.6316Z" fill="#FFB11A"/>
<path d="M18.8705 23.1977C17.2221 22.5615 15.5231 21.8385 13.8096 21.0288C13.6867 21.036 13.5638 21.0433 13.4409 21.0505C15.2267 21.9108 17.1209 22.7206 19.0946 23.4725C19.0223 23.3785 18.9428 23.2845 18.8705 23.1977Z" fill="#FFB11A"/>
<path d="M18.5954 22.9015C18.5448 22.8509 18.487 22.7931 18.4291 22.7425C17.0627 22.2292 15.6601 21.6508 14.2575 21.0218C14.1129 21.0145 13.9683 21.0145 13.8237 21.0218C15.3854 21.7375 17.0193 22.4099 18.7255 23.0461C18.6822 22.9955 18.6388 22.9521 18.5954 22.9015Z" fill="#FFB11A"/>
<path d="M17.8437 22.258C16.8532 21.8893 15.8555 21.4917 14.8505 21.0651C14.6626 21.0434 14.4746 21.029 14.2866 21.0217C15.5663 21.5784 16.8966 22.1062 18.2702 22.6051C18.1329 22.4821 17.9883 22.3665 17.8437 22.258Z" fill="#FFB11A"/>
<path d="M16.6079 21.5495C16.4344 21.4845 16.2681 21.4194 16.0946 21.3543C15.7114 21.2242 15.321 21.1374 14.9233 21.0796C15.8126 21.4411 16.7163 21.7881 17.649 22.1207C17.3092 21.8966 16.9621 21.7086 16.6079 21.5495Z" fill="#FFB11A"/>
<path d="M20.1428 18.0507C20.0778 17.8772 20.0127 17.7037 19.9476 17.5374C19.7886 17.1759 19.6006 16.8289 19.3765 16.4963C19.709 17.429 20.0561 18.3399 20.4176 19.222C20.3669 18.8316 20.273 18.4339 20.1428 18.0507Z" fill="#FFC556"/>
<path d="M20.4243 19.2937C19.9978 18.2888 19.6001 17.2838 19.2386 16.3006C19.1302 16.156 19.0145 16.0114 18.8916 15.874C19.3905 17.2477 19.9182 18.578 20.4749 19.8576C20.4677 19.6624 20.4532 19.4817 20.4243 19.2937Z" fill="#FFC556"/>
<path d="M20.4751 19.8871C19.8389 18.4773 19.2677 17.0819 18.7544 15.7155C18.7038 15.6577 18.6532 15.6071 18.5954 15.5492C18.552 15.5059 18.5014 15.4552 18.458 15.4119C19.087 17.1181 19.7666 18.752 20.4823 20.3137C20.4823 20.1763 20.4823 20.0317 20.4751 19.8871Z" fill="#FFC556"/>
<path d="M20.4754 20.3349C19.6584 18.6215 18.9355 16.9225 18.3065 15.2741C18.2197 15.1946 18.1257 15.1223 18.0317 15.0427C18.7836 17.0237 19.5934 18.9107 20.4537 20.6964C20.4609 20.5807 20.4682 20.4578 20.4754 20.3349Z" fill="#FFC556"/>
<path d="M20.4469 20.7113C19.4636 18.7448 18.6105 16.7855 17.8658 14.9202C17.7791 14.8552 17.6923 14.7973 17.6128 14.7395C18.4804 16.9518 19.413 19.0557 20.4107 21.0366C20.4252 20.9282 20.4396 20.8198 20.4469 20.7113Z" fill="#FFC556"/>
<path d="M20.4096 21.044C19.2673 18.8534 18.2841 16.6844 17.4382 14.6312C17.3587 14.5806 17.2719 14.53 17.1924 14.4866C18.1756 16.9013 19.2312 19.1859 20.359 21.3332C20.3807 21.2392 20.3952 21.138 20.4096 21.044Z" fill="#FFC556"/>
<path d="M20.3595 21.3401C19.0654 18.9615 17.952 16.5974 17.0121 14.3923C16.9326 14.3489 16.8531 14.3128 16.7808 14.2766C17.8725 16.8649 19.0509 19.3158 20.3017 21.6076C20.3234 21.5136 20.345 21.4269 20.3595 21.3401Z" fill="#FFC556"/>
<path d="M20.3016 21.6074C18.8556 19.0553 17.6193 16.5249 16.5927 14.1897C16.5204 14.1535 16.4409 14.1246 16.3613 14.0957C17.5687 16.843 18.8628 19.4385 20.2365 21.8532C20.2582 21.7737 20.2799 21.687 20.3016 21.6074Z" fill="#FFC556"/>
<path d="M20.237 21.8536C18.6464 19.1424 17.2872 16.4674 16.1666 14.0237C16.0943 13.9948 16.022 13.9731 15.9497 13.9514C17.2655 16.8361 18.6826 19.5617 20.1719 22.0849C20.1936 22.0126 20.2153 21.9331 20.237 21.8536Z" fill="#FFC556"/>
<path d="M20.1644 22.0848C18.422 19.229 16.9471 16.4239 15.7325 13.8862C15.6602 13.8645 15.5879 13.8501 15.5156 13.8284C16.9471 16.8287 18.4798 19.67 20.0848 22.3017C20.121 22.2294 20.1427 22.1571 20.1644 22.0848Z" fill="#FFC556"/>
<path d="M15.3059 13.7852C15.2336 13.7707 15.1685 13.7563 15.0962 13.749C16.6361 16.8506 18.2845 19.7859 20.0052 22.5043C20.0052 22.5043 20.0052 22.5115 20.0124 22.5115C20.0414 22.4465 20.0631 22.3742 20.092 22.3091C18.205 19.3232 16.6144 16.3951 15.3059 13.7852Z" fill="#FFC556"/>
<path d="M14.8797 13.7199C14.8146 13.7127 14.7423 13.7055 14.6772 13.6982C16.3329 16.8938 18.0969 19.9086 19.9261 22.7066C19.9261 22.7066 19.9261 22.7138 19.9333 22.7138C19.9622 22.6487 19.9912 22.5836 20.0128 22.5186C20.0128 22.5186 20.0128 22.5114 20.0056 22.5114C17.9885 19.4098 16.2678 16.3805 14.8797 13.7199Z" fill="#FFC556"/>
<path d="M14.4457 13.6764C14.3806 13.6692 14.3156 13.6692 14.2505 13.6692C16.029 16.9371 17.9015 20.0314 19.8391 22.8872C19.8391 22.8872 19.8391 22.8944 19.8463 22.8944C19.8753 22.8293 19.9042 22.7715 19.9331 22.7064C19.9331 22.7064 19.9331 22.6992 19.9259 22.6992C17.7642 19.5036 15.9278 16.3804 14.4457 13.6764Z" fill="#FFC556"/>
<path d="M19.9326 22.7055C19.9326 22.7001 19.9272 22.7001 19.9326 22.7055C19.9272 22.7001 19.9326 22.7001 19.9326 22.7055Z" fill="#FFC556"/>
<path d="M14.0189 13.6621C13.9539 13.6621 13.8888 13.6621 13.8237 13.6693C15.7179 16.995 17.7061 20.1545 19.7522 23.0681C19.7811 23.0102 19.81 22.9524 19.8389 22.8873C19.8389 22.8873 19.8389 22.8801 19.8317 22.8801C17.5399 19.5978 15.5806 16.4022 14.0189 13.6621Z" fill="#FFC556"/>
<path d="M13.5928 13.6768C13.5277 13.684 13.4699 13.684 13.4048 13.6912C15.0749 16.4891 17.186 19.8076 19.673 23.2345C19.7019 23.1767 19.7308 23.1261 19.7598 23.0682C17.3161 19.6992 15.2412 16.4385 13.5928 13.6768Z" fill="#FFC556"/>
<path d="M12.978 13.7489C14.7276 16.5468 16.9616 19.9087 19.5716 23.4007C19.6005 23.35 19.6366 23.2922 19.6656 23.2416C17.099 19.8002 14.8939 16.489 13.166 13.72C13.1009 13.7272 13.0431 13.7417 12.978 13.7489Z" fill="#FFC556"/>
<path d="M12.5659 13.8354C14.3951 16.6261 16.7447 20.0168 19.4776 23.5594C19.5065 23.5088 19.5427 23.4582 19.5716 23.4076C16.8749 19.9084 14.5541 16.561 12.7394 13.792C12.6816 13.8065 12.6238 13.8209 12.5659 13.8354Z" fill="#FFC556"/>
<path d="M12.1538 13.9442C14.0625 16.7204 16.5278 20.1329 19.3764 23.7116C19.4125 23.661 19.4414 23.6104 19.4776 23.5598C16.658 20.0172 14.2288 16.6481 12.3273 13.8936C12.2695 13.908 12.2116 13.9297 12.1538 13.9442Z" fill="#FFC556"/>
<path d="M11.9153 14.0234C11.8575 14.0451 11.8069 14.0596 11.749 14.0813C11.7852 14.1319 11.8141 14.1753 11.8502 14.2259C13.824 16.9515 16.3616 20.3134 19.2753 23.8559C19.3114 23.8053 19.3403 23.762 19.3765 23.7114C16.4773 20.1832 13.9541 16.8431 11.9876 14.1247C11.9659 14.0885 11.937 14.0524 11.9153 14.0234Z" fill="#FFC556"/>
<path d="M11.5111 14.1753C11.4605 14.197 11.4027 14.2187 11.3521 14.2476C11.4171 14.3343 11.4894 14.4283 11.5545 14.5151C13.5933 17.1901 16.196 20.4941 19.1674 24.0006C19.2036 23.9572 19.2397 23.9066 19.2687 23.8632C16.3189 20.3712 13.7234 17.0817 11.6918 14.4139C11.634 14.3343 11.5762 14.2548 11.5111 14.1753Z" fill="#FFC556"/>
<path d="M10.9751 14.4355C13.2814 17.3202 16.0287 20.6603 19.058 24.1379C19.0941 24.0945 19.1303 24.0511 19.1664 24.0005C16.1516 20.5519 13.4188 17.2262 11.1269 14.356C11.0763 14.3849 11.0257 14.4066 10.9751 14.4355Z" fill="#FFC556"/>
<path d="M10.5991 14.6527C12.985 17.494 15.8335 20.8052 18.9423 24.2683C18.9784 24.2249 19.0146 24.1815 19.0507 24.1382C15.9564 20.6968 13.1223 17.4 10.7437 14.5659C10.7003 14.5948 10.6497 14.6238 10.5991 14.6527Z" fill="#FFC556"/>
<path d="M10.2446 14.8986C12.71 17.6893 15.6453 20.9644 18.8336 24.4058C18.8697 24.3624 18.9059 24.319 18.9493 24.2756C15.7682 20.8487 12.8473 17.5881 10.3892 14.7974C10.3314 14.8335 10.288 14.8624 10.2446 14.8986Z" fill="#FFC556"/>
<path d="M9.90576 15.1658C12.4434 17.9059 15.4582 21.1232 18.7189 24.5284C18.755 24.485 18.7984 24.4489 18.8345 24.4055C15.5811 21.0075 12.5735 17.7902 10.0359 15.0574C9.99252 15.0935 9.94914 15.1297 9.90576 15.1658Z" fill="#FFC556"/>
<path d="M9.58057 15.455C12.1905 18.1301 15.2776 21.2895 18.5961 24.6513C18.6395 24.6079 18.6756 24.5718 18.7118 24.5284C15.4005 21.1666 12.3134 18.0144 9.70347 15.3394C9.66009 15.3755 9.62395 15.4189 9.58057 15.455Z" fill="#FFC556"/>
<path d="M9.27637 15.7662C11.9514 18.3762 15.1036 21.4633 18.4727 24.7745C18.516 24.7384 18.5522 24.695 18.5956 24.6589C15.2265 21.3404 12.0671 18.2533 9.39204 15.6433C9.35589 15.6867 9.31252 15.7228 9.27637 15.7662Z" fill="#FFC556"/>
<path d="M8.99512 16.0986C11.728 18.6363 14.938 21.6439 18.3432 24.8973C18.3866 24.8611 18.43 24.8177 18.4661 24.7816C15.0609 21.521 11.8437 18.5062 9.10356 15.9685C9.06742 16.0119 9.03127 16.0553 8.99512 16.0986Z" fill="#FFC556"/>
<path d="M8.73389 16.4455C11.5174 18.9036 14.778 21.8244 18.2121 25.0055C18.2555 24.9694 18.2989 24.9332 18.3423 24.8898C14.9009 21.7015 11.6258 18.7662 8.8351 16.3081C8.79895 16.3515 8.77004 16.3949 8.73389 16.4455Z" fill="#FFC556"/>
<path d="M8.50293 16.8072C11.337 19.1858 14.6338 22.0199 18.0752 25.1142C18.1185 25.0781 18.1619 25.0419 18.2053 25.0058C14.7422 21.8897 11.431 19.0484 8.58969 16.6626C8.56077 16.7132 8.53185 16.7638 8.50293 16.8072Z" fill="#FFC556"/>
<path d="M8.29346 17.1904C11.1637 19.4822 14.4894 22.2151 17.938 25.2299C17.9814 25.1938 18.032 25.1576 18.0754 25.1215C14.6051 22.0922 11.2577 19.3376 8.37298 17.0386C8.34407 17.0892 8.32238 17.1398 8.29346 17.1904Z" fill="#FFC556"/>
<path d="M8.18411 17.4146C8.16242 17.4652 8.13351 17.523 8.11182 17.5736C8.19134 17.6314 8.27087 17.6965 8.3504 17.7543C11.0182 19.7859 14.3077 22.3742 17.7925 25.3312C17.8359 25.295 17.8865 25.2661 17.9299 25.2299C14.4306 22.2585 11.1266 19.6558 8.45162 17.6242C8.36486 17.5519 8.27087 17.4868 8.18411 17.4146Z" fill="#FFC556"/>
<path d="M8.01829 17.812C7.9966 17.8698 7.97491 17.9205 7.96045 17.9783C7.9966 18 8.03275 18.0289 8.06167 18.0506C10.7801 20.0171 14.1202 22.5403 17.6484 25.4322C17.699 25.396 17.7424 25.3671 17.793 25.331C14.2504 22.4246 10.8885 19.887 8.16288 17.9132C8.11227 17.8771 8.0689 17.8482 8.01829 17.812Z" fill="#FFC556"/>
<path d="M7.83057 18.3831C10.5851 20.2773 13.9542 22.7137 17.4968 25.5334C17.5474 25.5045 17.598 25.4683 17.6486 25.4322C14.0699 22.5836 10.6574 20.1255 7.88117 18.2168C7.86672 18.2746 7.84503 18.3325 7.83057 18.3831Z" fill="#FFC556"/>
<path d="M7.72949 18.8024C10.4985 20.6171 13.8459 22.9379 17.3379 25.6346C17.3885 25.6057 17.4391 25.5695 17.4897 25.5406C13.9543 22.8077 10.5636 20.458 7.77287 18.6289C7.75841 18.6867 7.74395 18.7446 7.72949 18.8024Z" fill="#FFC556"/>
<path d="M7.65771 19.2292C10.4267 20.9644 13.738 23.1622 17.1721 25.7288C17.2227 25.6999 17.2806 25.671 17.3312 25.6348C13.8392 23.0249 10.4846 20.7909 7.6794 19.0413C7.6794 19.1063 7.66494 19.1642 7.65771 19.2292Z" fill="#FFC556"/>
<path d="M7.61328 19.6555C10.3751 21.3039 13.6285 23.3861 16.9975 25.8225C17.0554 25.7936 17.106 25.7647 17.1638 25.7358C13.7441 23.2487 10.4257 21.1304 7.62774 19.4675C7.62051 19.5254 7.62051 19.5904 7.61328 19.6555Z" fill="#FFC556"/>
<path d="M7.60635 19.8867C7.59912 19.9518 7.59912 20.0169 7.59912 20.0819C10.3392 21.6436 13.5348 23.6028 16.8171 25.9019C16.8171 25.9019 16.8243 25.9019 16.8243 25.9091C16.8822 25.8802 16.94 25.8513 17.0051 25.8224C14.0842 23.7691 10.9321 21.7809 7.60635 19.8867Z" fill="#FFC556"/>
<path d="M7.60645 20.3135C7.60645 20.3785 7.61368 20.4436 7.61368 20.5087C10.3248 21.9836 13.4409 23.8199 16.6364 25.9889C16.6364 25.9889 16.6437 25.9889 16.6437 25.9961C16.7087 25.9672 16.7666 25.9383 16.8317 25.9093C16.8317 25.9093 16.8244 25.9093 16.8244 25.9021C13.9614 23.9645 10.8671 22.092 7.60645 20.3135Z" fill="#FFC556"/>
<path d="M7.62842 20.7402C7.63565 20.8053 7.64288 20.8776 7.65011 20.9427C10.3179 22.3308 13.3399 24.0515 16.4343 26.0758C16.4343 26.0758 16.4415 26.0758 16.4415 26.0831C16.5066 26.0541 16.5717 26.0325 16.6367 26.0035C16.6367 26.0035 16.6295 26.0035 16.6295 25.9963C13.846 24.1599 10.824 22.3959 7.62842 20.7402Z" fill="#FFC556"/>
<path d="M16.6427 25.9951C16.6373 25.9951 16.6373 25.9896 16.6427 25.9951C16.6373 25.9896 16.6373 25.9951 16.6427 25.9951Z" fill="#FFC556"/>
<path d="M7.68555 21.1665C7.70001 21.2388 7.70724 21.3039 7.7217 21.3762C10.3316 22.6775 13.2597 24.2753 16.2384 26.1623C16.3107 26.1406 16.3757 26.1117 16.4408 26.0828C16.4408 26.0828 16.4336 26.0828 16.4336 26.0755C13.7224 24.3548 10.7871 22.7064 7.68555 21.1665Z" fill="#FFC556"/>
<path d="M7.82395 21.8029C10.3616 23.0175 13.1668 24.4924 16.0225 26.2348C16.0948 26.2131 16.1671 26.1842 16.2394 26.1625C13.6078 24.5575 10.7737 23.0248 7.76611 21.5933C7.7878 21.6583 7.80949 21.7306 7.82395 21.8029Z" fill="#FFC556"/>
<path d="M7.96009 22.2295C10.4038 23.3501 13.0788 24.7093 15.7972 26.2999C15.8767 26.2782 15.949 26.2565 16.0285 26.2276C13.4981 24.7382 10.7725 23.3212 7.89502 22.0054C7.90948 22.0777 7.93117 22.1572 7.96009 22.2295Z" fill="#FFC556"/>
<path d="M8.1267 22.6562C10.4619 23.69 12.9923 24.9191 15.5445 26.365C15.624 26.3433 15.7107 26.3217 15.7903 26.3C13.3755 24.9263 10.78 23.6322 8.03271 22.4248C8.06163 22.5043 8.09055 22.5766 8.1267 22.6562Z" fill="#FFC556"/>
<path d="M8.32945 23.0751C10.5345 24.015 12.8987 25.1284 15.2773 26.4225C15.364 26.408 15.4508 26.3863 15.5448 26.3647C13.2529 25.1139 10.802 23.9354 8.20654 22.8438C8.24992 22.9233 8.28607 23.0028 8.32945 23.0751Z" fill="#FFC556"/>
<path d="M8.56842 23.5019C10.6217 24.3478 12.7906 25.3311 14.9813 26.4734C15.0752 26.4589 15.1765 26.4444 15.2705 26.4228C13.1232 25.2949 10.8386 24.2394 8.42383 23.2561C8.46721 23.3429 8.51782 23.4224 8.56842 23.5019Z" fill="#FFC556"/>
<path d="M8.85741 23.9283C10.7299 24.673 12.682 25.5261 14.6485 26.5094C14.7569 26.5021 14.8654 26.4877 14.9666 26.4732C12.9856 25.4755 10.8817 24.5429 8.66943 23.6753C8.7345 23.7621 8.79957 23.8488 8.85741 23.9283Z" fill="#FFC556"/>
<path d="M9.21094 24.3621C10.8593 24.9984 12.5583 25.7213 14.2718 26.5311C14.3947 26.5238 14.5176 26.5166 14.6405 26.5094C12.8548 25.649 10.9605 24.8393 8.98682 24.0874C9.05911 24.1814 9.13141 24.2754 9.21094 24.3621Z" fill="#FFC556"/>
<path d="M9.48658 24.6583C9.53719 24.7089 9.59503 24.7667 9.65287 24.8173C11.0193 25.3306 12.4219 25.909 13.8245 26.538C13.969 26.5452 14.1136 26.5452 14.2582 26.538C12.6966 25.8223 11.0627 25.1499 9.35645 24.5137C9.39259 24.5643 9.43597 24.6077 9.48658 24.6583Z" fill="#FFC556"/>
<path d="M10.2376 25.3021C11.2281 25.6708 12.2258 26.0685 13.2307 26.495C13.4187 26.5167 13.6067 26.5312 13.7946 26.5384C12.515 25.9817 11.1847 25.4539 9.81104 24.9551C9.9484 25.078 10.0858 25.1937 10.2376 25.3021Z" fill="#FFC556"/>
<path d="M11.4742 26.0106C11.6477 26.0757 11.814 26.1407 11.9875 26.2058C12.3707 26.3359 12.7611 26.4227 13.1587 26.4805C12.2695 26.119 11.3658 25.772 10.4331 25.4395C10.7657 25.6636 11.1127 25.8588 11.4742 26.0106Z" fill="#FFC556"/>
</g>
<defs>
<clipPath id="clip0">
<rect width="60" height="22.5425" fill="white" transform="translate(7.59912 13.6621)"/>
</clipPath>
</defs>
</svg>
