<svg width="75" height="50" viewBox="0 0 75 50" fill="none" xmlns="http://www.w3.org/2000/svg">
<path d="M59.2916 18.2312C59.2916 18.2731 59.2916 18.3161 59.2916 18.358C59.2916 19.1861 59.2906 20.0132 59.2938 20.8414C59.2938 20.9373 59.2742 20.9726 59.1731 20.9671C59.0045 20.9582 58.8337 20.9616 58.6651 20.966C58.59 20.9682 58.5693 20.9417 58.5693 20.8678C58.5715 19.6085 58.5715 18.3492 58.5693 17.0898C58.5693 17.0204 58.59 16.9972 58.6585 16.9994C58.8152 17.0038 58.9718 17.0049 59.1285 16.9983C59.1981 16.9961 59.2275 17.0358 59.2612 17.0832C59.6626 17.6302 60.0673 18.176 60.4665 18.7252C60.5307 18.8134 60.56 18.8167 60.6264 18.7263C61.0256 18.1771 61.4325 17.6335 61.8339 17.0854C61.8807 17.0226 61.9274 16.9939 62.0058 16.9983C62.1406 17.0049 62.2755 17.0071 62.4093 16.9983C62.5051 16.9917 62.5333 17.017 62.5323 17.1196C62.5268 17.7007 62.5301 18.2819 62.5301 18.863C62.5301 19.5236 62.5279 20.1841 62.5323 20.8447C62.5333 20.945 62.5062 20.9726 62.4093 20.9671C62.2538 20.9582 62.096 20.9582 61.9405 20.9671C61.8382 20.9726 61.8089 20.9428 61.8099 20.8369C61.8143 20.0176 61.8121 19.1994 61.8121 18.38C61.8121 18.3337 61.8241 18.2852 61.7947 18.2268C61.7621 18.2676 61.7327 18.3017 61.7055 18.3392C61.3748 18.7869 61.0441 19.2336 60.7134 19.6813C60.6025 19.8312 60.4741 19.8279 60.3642 19.6758C60.0161 19.1928 59.668 18.7098 59.3199 18.2256C59.3091 18.2279 59.3003 18.2301 59.2916 18.2312Z" fill="#283D36"/>
<path d="M47.0787 18.2274C46.7186 18.7126 46.3585 19.1978 45.9974 19.682C45.9702 19.7194 45.9528 19.7702 45.8962 19.7768C45.8059 19.7867 45.732 19.7922 45.6634 19.693C45.3175 19.1978 44.9607 18.7104 44.5995 18.2098C44.5691 18.2583 44.5821 18.3013 44.5821 18.341C44.581 19.1736 44.5789 20.0051 44.5843 20.8376C44.5854 20.9446 44.5549 20.9722 44.4538 20.9667C44.3069 20.9578 44.1579 20.9567 44.011 20.9667C43.899 20.9744 43.8642 20.9457 43.8653 20.8255C43.8718 20.165 43.8685 19.5044 43.8685 18.8439C43.8685 18.2715 43.8718 17.6992 43.8663 17.1269C43.8653 17.0199 43.8957 16.9935 43.9958 16.999C44.1601 17.0089 44.3515 16.9538 44.4831 17.0221C44.6159 17.0894 44.6909 17.2736 44.7899 17.407C45.113 17.8437 45.4339 18.2815 45.757 18.7182C45.7831 18.7534 45.8103 18.7865 45.8418 18.8284C46.2661 18.255 46.686 17.6904 47.1004 17.1214C47.1635 17.0354 47.2245 16.9902 47.3343 16.999C47.4638 17.01 47.5954 17.0045 47.7249 17.0001C47.7956 16.9979 47.8217 17.0155 47.8217 17.0938C47.8195 18.3531 47.8195 19.6125 47.8217 20.8718C47.8217 20.949 47.7977 20.97 47.7249 20.9667C47.5682 20.9622 47.4116 20.9578 47.256 20.9678C47.1407 20.9755 47.1037 20.9457 47.1048 20.82C47.1113 20.0006 47.1081 19.1824 47.1081 18.3631C47.1081 18.3201 47.1081 18.2782 47.1081 18.2352C47.0972 18.2318 47.0874 18.2296 47.0787 18.2274Z" fill="#283D36"/>
<path d="M38.8986 25.6539C38.8986 25.8524 38.8975 26.0498 38.8996 26.2483C38.8996 26.3035 38.8909 26.3476 38.8496 26.3906C37.814 27.4602 35.8233 27.1989 35.3109 25.7036C34.8714 24.4222 35.6906 22.9864 37.1624 22.9202C37.74 22.8938 38.2459 23.0768 38.6821 23.4639C38.7604 23.5334 38.7822 23.5764 38.6832 23.648C38.5602 23.7374 38.4471 23.8421 38.3329 23.9447C38.2839 23.9888 38.2567 23.9877 38.2056 23.9403C37.7422 23.5025 37.1852 23.4176 36.6479 23.6977C36.1409 23.9612 35.8407 24.5479 35.9092 25.1412C36.0365 26.2439 37.2124 26.7986 38.1077 26.1799C38.1915 26.1226 38.2328 26.0608 38.2252 25.9539C38.2154 25.8271 38.2187 25.698 38.2241 25.5712C38.2274 25.4973 38.2045 25.4709 38.1295 25.4742C37.9728 25.4797 37.8162 25.4731 37.6606 25.4775C37.5877 25.4797 37.5605 25.4565 37.5649 25.3805C37.5725 25.2448 37.5214 25.0684 37.5877 24.9846C37.6574 24.8952 37.839 24.9581 37.9717 24.9559C38.2459 24.9515 38.52 24.957 38.793 24.9526C38.8757 24.9515 38.9062 24.9713 38.9029 25.0607C38.8942 25.2581 38.8986 25.4565 38.8986 25.6539Z" fill="#283D36"/>
<path d="M57.6309 18.3648C57.6309 18.7078 57.6309 19.0518 57.6309 19.3948C57.6309 20.428 56.9064 21.1184 55.8839 21.0599C55.0245 21.0103 54.4599 20.5096 54.325 19.676C54.3141 19.6109 54.3109 19.5447 54.3109 19.4786C54.3098 18.6912 54.312 17.9028 54.3076 17.1154C54.3076 17.0239 54.3283 16.9941 54.4207 16.9985C54.5807 17.0062 54.7427 17.0084 54.9027 16.9985C55.0071 16.9919 55.0212 17.0316 55.0212 17.1242C55.018 17.8686 55.0201 18.6118 55.0191 19.3562C55.0191 19.4709 55.0256 19.5855 55.0539 19.6969C55.1768 20.1921 55.5466 20.4589 56.0568 20.4225C56.5442 20.3883 56.8803 20.0697 56.9238 19.569C56.9619 19.1345 56.9206 18.6978 56.9238 18.2634C56.926 17.8807 56.9238 17.4969 56.9162 17.1143C56.914 17.0184 56.9423 16.9963 57.0315 16.9996C57.1969 17.0062 57.3622 17.0073 57.5265 16.9996C57.6157 16.9952 57.6331 17.0283 57.632 17.111C57.6298 17.5289 57.6309 17.9469 57.6309 18.3648Z" fill="#283D36"/>
<path d="M52.8202 24.9766C52.8202 24.3689 52.8223 23.7613 52.818 23.1537C52.8169 23.0567 52.8332 23.0192 52.942 23.0203C53.7415 23.0258 54.5422 23.0247 55.3417 23.0214C55.4342 23.0214 55.4744 23.0368 55.4657 23.1416C55.4559 23.2728 55.4581 23.4062 55.4646 23.5375C55.469 23.6246 55.4407 23.6477 55.357 23.6466C54.788 23.6433 54.218 23.6466 53.6491 23.6422C53.5533 23.6411 53.5229 23.6621 53.5251 23.7646C53.5327 24.037 53.5316 24.3105 53.5251 24.584C53.5229 24.6733 53.5523 24.6932 53.6349 24.692C54.1136 24.6887 54.5911 24.6932 55.0698 24.6876C55.1677 24.6865 55.1992 24.713 55.1927 24.8122C55.184 24.9391 55.1851 25.0681 55.1927 25.1949C55.197 25.2809 55.172 25.3063 55.085 25.3052C54.6064 25.3008 54.1288 25.3074 53.6502 25.2997C53.5425 25.2986 53.5229 25.3338 53.5262 25.432C53.5327 25.6867 53.5327 25.9426 53.5262 26.1984C53.524 26.2943 53.5544 26.312 53.6425 26.312C54.2158 26.3076 54.7902 26.3131 55.3635 26.3076C55.4646 26.3065 55.4995 26.3318 55.4918 26.4366C55.4821 26.5678 55.4853 26.7012 55.4908 26.8325C55.494 26.9119 55.4723 26.9383 55.3896 26.9372C54.5683 26.9339 53.7459 26.9339 52.9246 26.9372C52.8365 26.9372 52.8169 26.9108 52.8169 26.8259C52.8212 26.2094 52.8202 25.593 52.8202 24.9766Z" fill="#283D36"/>
<path d="M38.3642 30.011C37.8714 29.4497 37.0599 29.4287 36.5258 29.807C35.8589 30.28 35.7317 31.2626 36.2571 31.9209C36.7564 32.5462 37.7093 32.6002 38.2967 32.0301C38.3751 31.954 38.4142 31.9474 38.4817 32.0345C38.5643 32.1415 38.6601 32.2396 38.7536 32.3367C38.7971 32.3819 38.8048 32.4094 38.7536 32.4591C37.6702 33.5298 35.7632 33.0755 35.3009 31.61C34.9299 30.4344 35.6838 29.1233 37.0207 28.9468C37.6756 28.8608 38.2478 29.0417 38.7406 29.4872C38.8113 29.5511 38.8254 29.5919 38.7471 29.6592C38.6166 29.7728 38.4915 29.8941 38.3642 30.011Z" fill="#283D36"/>
<path d="M35.1998 18.9809C35.1921 17.9377 36.0363 17.0136 37.0643 16.921C37.7072 16.8626 38.2641 17.039 38.7439 17.4746C38.8091 17.533 38.8233 17.5716 38.7526 17.6378C38.6471 17.7359 38.5502 17.844 38.4556 17.9532C38.4056 18.0094 38.3795 18.0216 38.3175 17.9587C37.9182 17.554 37.4331 17.4393 36.9033 17.5981C36.367 17.758 36.0439 18.1418 35.9297 18.6975C35.8035 19.3107 36.095 19.9469 36.6313 20.2436C37.1763 20.5446 37.8453 20.4509 38.2892 20.0043C38.3457 19.9469 38.3784 19.9315 38.4393 19.9988C38.5481 20.1179 38.6656 20.2304 38.783 20.3417C38.8276 20.3847 38.8298 20.4101 38.782 20.4542C38.1597 21.0298 37.4396 21.1875 36.6422 20.9383C35.8677 20.6957 35.4217 20.1366 35.2389 19.3493C35.2085 19.2269 35.2052 19.1045 35.1998 18.9809Z" fill="#283D36"/>
<path d="M50.3546 25.9882C50.7408 25.031 51.1205 24.097 51.4925 23.1608C51.5349 23.0549 51.5839 23.0141 51.6992 23.0207C51.8939 23.0317 52.0897 23.024 52.3029 23.024C52.1778 23.3251 52.0592 23.6107 51.9407 23.8974C51.5371 24.8733 51.1324 25.8492 50.7321 26.8263C50.6984 26.9101 50.6603 26.9509 50.5635 26.9443C50.4253 26.9343 50.285 26.9343 50.1468 26.9443C50.0544 26.9509 50.0196 26.9123 49.9869 26.8329C49.5257 25.7103 49.0601 24.5888 48.5967 23.4673C48.538 23.3262 48.4803 23.185 48.415 23.0251C48.6587 23.0251 48.8861 23.0262 49.1145 23.0251C49.1896 23.0251 49.1885 23.088 49.207 23.1332C49.5692 24.0363 49.9315 24.9395 50.2926 25.8426C50.3078 25.8801 50.3253 25.9198 50.3546 25.9882Z" fill="#283D36"/>
<path d="M50.2472 31.3018C50.2472 30.7868 50.244 30.2718 50.2494 29.7557C50.2505 29.6554 50.2233 29.6322 50.1276 29.6344C49.8143 29.641 49.501 29.6333 49.1888 29.6388C49.1072 29.6399 49.0854 29.6168 49.0887 29.5363C49.0952 29.3907 49.093 29.2452 49.0898 29.1007C49.0887 29.0378 49.0985 29.0059 49.1735 29.0059C50.1297 29.0081 51.087 29.0081 52.0432 29.0059C52.1063 29.0059 52.1259 29.0257 52.1248 29.0886C52.1215 29.2429 52.1204 29.3973 52.1248 29.5506C52.127 29.6223 52.102 29.6377 52.0356 29.6377C51.7223 29.6344 51.409 29.6421 51.0968 29.6333C50.9891 29.63 50.9717 29.6675 50.9717 29.7656C50.975 30.7868 50.9717 31.809 50.9761 32.8302C50.9761 32.9404 50.9499 32.9735 50.8412 32.9658C50.6813 32.9559 50.5192 32.957 50.3593 32.9658C50.2646 32.9702 50.245 32.936 50.2461 32.8467C50.2494 32.3317 50.2472 31.8168 50.2472 31.3018Z" fill="#283D36"/>
<path d="M56.9724 30.9911C56.9724 30.3702 56.9746 29.7494 56.9702 29.1285C56.9692 29.0293 56.9931 28.9995 57.0921 29.005C57.2476 29.0139 57.4054 29.015 57.5609 29.005C57.6697 28.9973 57.6871 29.0403 57.6871 29.1396C57.6839 30.1519 57.6882 31.1653 57.6817 32.1776C57.6806 32.3177 57.7219 32.3408 57.8481 32.3386C58.3442 32.3309 58.8391 32.3375 59.3352 32.3331C59.4233 32.332 59.4592 32.3497 59.4527 32.4478C59.444 32.5923 59.4483 32.7378 59.4516 32.8834C59.4537 32.9462 59.432 32.9661 59.37 32.9661C58.5965 32.9639 57.822 32.9639 57.0486 32.9672C56.9507 32.9672 56.9735 32.9065 56.9735 32.8547C56.9713 32.2328 56.9724 31.6119 56.9724 30.9911Z" fill="#283D36"/>
<path d="M53.4499 18.9888C53.4499 19.6085 53.4477 20.2294 53.4521 20.8491C53.4532 20.9395 53.4325 20.9715 53.3389 20.9671C53.1747 20.9594 53.0093 20.9594 52.844 20.9671C52.7515 20.9715 52.7276 20.9406 52.7276 20.8491C52.7308 20.1985 52.7297 19.5468 52.7297 18.8961C52.7297 18.3073 52.733 17.7173 52.7276 17.1284C52.7265 17.0226 52.7569 16.9939 52.8581 16.9994C53.018 17.0082 53.1801 17.0082 53.34 16.9994C53.4336 16.995 53.4532 17.0259 53.4532 17.1163C53.4488 17.7405 53.4499 18.3646 53.4499 18.9888Z" fill="#283D36"/>
<path d="M48.4137 30.9903C48.4137 31.61 48.4115 32.2309 48.4159 32.8506C48.4169 32.9421 48.3941 32.9719 48.3016 32.9664C48.1374 32.9587 47.9709 32.9598 47.8067 32.9664C47.7218 32.9697 47.6957 32.9455 47.6968 32.8572C47.7012 32.4966 47.699 32.136 47.699 31.7754C47.699 30.8954 47.7012 30.0155 47.6968 29.1355C47.6968 29.0318 47.724 28.9987 47.8263 29.0042C47.9862 29.0131 48.1483 29.012 48.3082 29.0042C48.3963 28.9998 48.4159 29.0307 48.4148 29.1156C48.4126 29.7409 48.4137 30.3661 48.4137 30.9903Z" fill="#283D36"/>
<path d="M32.9789 14.7731C32.9789 14.6507 32.9452 14.6254 32.8299 14.6254C26.155 14.6276 19.4801 14.6276 12.8063 14.6243C12.6899 14.6243 12.666 14.6529 12.666 14.7676C12.6693 21.5451 12.6693 28.3226 12.666 35.1011C12.666 35.2191 12.6954 35.2423 12.8074 35.2423C19.4823 35.239 26.1561 35.239 32.831 35.2423C32.9506 35.2423 32.9789 35.2114 32.9778 35.0923C32.9746 31.7058 32.9756 28.3192 32.9756 24.9327C32.9756 21.5462 32.9756 18.1597 32.9789 14.7731ZM26.6543 32.2538C26.6554 32.3068 26.6543 32.3443 26.5814 32.3443C25.6394 32.3432 24.693 32.3851 23.7705 32.1248C20.9933 31.3419 19.1777 29.5455 18.4521 26.7269C17.5068 23.0547 19.5051 19.2889 23.0134 17.9755C23.8412 17.6656 24.6973 17.5201 25.5785 17.5245C25.9004 17.5256 26.2224 17.5267 26.5434 17.5234C26.6228 17.5223 26.65 17.5454 26.6467 17.6281C26.6413 17.7869 26.6413 17.9457 26.6467 18.1034C26.6489 18.1784 26.626 18.2016 26.551 18.2005C26.2812 18.1961 26.0114 18.1994 25.7427 18.1994C24.1828 18.1729 22.7643 18.6052 21.5231 19.5712C20.0643 20.7059 19.1995 22.2056 18.9536 24.0571C18.4891 27.5506 20.7877 30.8203 24.2002 31.5326C24.7822 31.6539 25.3718 31.6782 25.9646 31.6683C26.1604 31.665 26.3562 31.6705 26.5521 31.6661C26.626 31.6639 26.6608 31.676 26.6565 31.7642C26.6489 31.9285 26.6532 32.0917 26.6543 32.2538ZM26.6467 27.7745C26.6413 27.7745 26.6358 27.7745 26.6304 27.7745C26.6304 28.8 26.6282 29.8267 26.6336 30.8523C26.6347 30.9702 26.6021 30.9967 26.49 30.9934C26.0081 30.978 25.5252 31.0133 25.0432 30.9625C23.591 30.8103 22.3498 30.206 21.3403 29.1408C20.2209 27.9609 19.6672 26.5372 19.6683 24.9018C19.6716 22.4074 21.2011 20.1336 23.4387 19.269C24.099 19.0143 24.7843 18.8941 25.4903 18.8974C25.8341 18.8996 26.1768 18.9007 26.5205 18.8963C26.6064 18.8952 26.6456 18.9117 26.6402 19.0099C26.6315 19.1543 26.6326 19.301 26.6402 19.4455C26.6445 19.5348 26.613 19.5546 26.5303 19.5546C26.0865 19.5546 25.6426 19.5425 25.1999 19.5668C23.7379 19.6451 22.5304 20.2604 21.5959 21.3962C20.6452 22.5508 20.2383 23.8939 20.3449 25.3915C20.5103 27.7127 22.2704 29.7286 24.5222 30.1961C24.9725 30.2899 25.4251 30.3163 25.883 30.3163C25.9668 30.3163 25.9831 30.2876 25.9831 30.2094C25.9809 28.5894 25.9809 26.9684 25.9831 25.3485C25.9831 25.2657 25.9657 25.2216 25.8765 25.2382C25.7699 25.258 25.7427 25.2084 25.7482 25.107C25.7558 24.9581 25.7525 24.8081 25.7492 24.6581C25.7482 24.5953 25.7569 24.5622 25.833 24.5633C26.0767 24.5677 26.3203 24.5688 26.5629 24.5633C26.6674 24.5611 26.6456 24.6273 26.6456 24.6846C26.6467 25.7135 26.6467 26.7445 26.6467 27.7745ZM26.6195 21.3819C26.6195 21.4492 26.6043 21.4756 26.5325 21.4734C26.3715 21.469 26.2105 21.4679 26.0495 21.4734C25.9788 21.4756 25.9614 21.4492 25.9635 21.383C25.9679 21.2462 25.9635 21.1095 25.9657 20.9739C25.9668 20.922 25.9538 20.8967 25.8939 20.8934C24.223 20.793 22.8622 21.5782 22.1192 22.9279C21.6862 23.7142 21.572 24.5655 21.6688 25.4444C21.8363 26.9607 22.625 28.0347 23.9913 28.671C24.4047 28.864 24.8474 28.9599 25.3032 28.9765C25.387 28.9798 25.4153 29.0018 25.4142 29.0879C25.412 29.2467 25.4185 29.4055 25.4272 29.5631C25.4316 29.6392 25.4077 29.6602 25.3315 29.6558C24.0794 29.5874 23.0166 29.0989 22.1714 28.1605C21.3664 27.2672 20.9922 26.2064 20.9824 24.9945C20.9748 23.9336 21.2283 22.961 21.8559 22.1108C22.761 20.8834 23.9783 20.2494 25.4969 20.2262C25.6144 20.224 25.7318 20.2262 25.8493 20.2262C26.0712 20.2262 26.2932 20.2295 26.5151 20.2251C26.5923 20.224 26.6217 20.2405 26.6206 20.3266C26.6151 20.6772 26.6162 21.029 26.6195 21.3819Z" fill="#283D36"/>
<path d="M51.2396 18.8646C51.2559 18.8547 51.2668 18.8481 51.2777 18.8415C51.8912 18.5041 51.851 17.5744 51.2886 17.205C51.0786 17.0672 50.8458 17.0032 50.5978 17.0021C50.0419 16.9988 49.485 17.0032 48.9291 16.9988C48.8366 16.9977 48.8246 17.033 48.8257 17.1124C48.829 17.4642 48.8268 17.817 48.8268 18.1688C48.8268 19.0576 48.8268 19.9475 48.8268 20.8364C48.8268 20.897 48.8007 20.9676 48.9138 20.9665C49.5437 20.9632 50.1746 20.9775 50.8045 20.9643C51.1548 20.9577 51.4681 20.8275 51.7019 20.5485C52.1806 19.9784 51.9674 19.1855 51.2396 18.8646ZM49.535 17.6968C49.5339 17.6285 49.5535 17.6064 49.622 17.6075C49.9168 17.6108 50.2127 17.6053 50.5075 17.6097C50.7697 17.6141 50.9927 17.8567 50.9949 18.1313C50.997 18.4026 50.7729 18.6386 50.5032 18.6452C50.3596 18.6485 50.2171 18.6463 50.0735 18.6463C49.9255 18.6463 49.7787 18.643 49.6307 18.6474C49.56 18.6496 49.5328 18.632 49.535 18.5548C49.5393 18.2692 49.5383 17.9825 49.535 17.6968ZM50.5924 20.3578C50.4401 20.36 50.2889 20.3578 50.1366 20.3578C49.9712 20.3578 49.807 20.3545 49.6416 20.3589C49.5676 20.3611 49.5339 20.3489 49.535 20.2607C49.5404 19.9398 49.5393 19.6189 49.535 19.298C49.5339 19.2197 49.5622 19.2032 49.6329 19.2043C49.9582 19.2076 50.2845 19.201 50.6098 19.2076C50.9622 19.2153 51.2081 19.4612 51.2037 19.7898C51.1994 20.1096 50.9383 20.3534 50.5924 20.3578Z" fill="#283D36"/>
<path d="M47.833 24.4836C47.8286 24.4361 47.8123 24.3887 47.796 24.3435C47.5164 23.5528 46.9486 23.0941 46.1469 22.964C45.319 22.8294 44.5967 23.0798 44.0735 23.7613C43.5121 24.4924 43.5252 25.2985 44.0528 26.12C44.8121 27.3022 46.3775 27.3022 47.3184 26.3009C47.7024 25.8929 47.8569 25.3856 47.8515 24.8254C47.846 24.7118 47.8428 24.5971 47.833 24.4836ZM45.7857 26.3726C45.0014 26.3759 44.377 25.7528 44.3759 24.9666C44.3748 24.1891 44.9883 23.5595 45.752 23.5551C46.5352 23.5495 47.1433 24.1627 47.152 24.9666C47.1596 25.7616 46.57 26.3693 45.7857 26.3726Z" fill="#283D36"/>
<path d="M43.0395 26.7961C42.7991 26.3892 42.5587 25.9812 42.3161 25.5742C42.2802 25.5147 42.2585 25.4761 42.3455 25.4375C42.9275 25.1762 43.1353 24.5288 42.9949 23.9653C42.8524 23.393 42.3694 23.0302 41.7342 23.0236C41.199 23.0181 40.6648 23.0247 40.1296 23.0203C40.0328 23.0192 40.0176 23.0545 40.0176 23.1416C40.0198 24.3656 40.0198 25.5897 40.0176 26.8148C40.0176 26.9086 40.0328 26.9483 40.1362 26.9427C40.3004 26.9328 40.4668 26.9339 40.6311 26.9427C40.7268 26.9472 40.7442 26.9119 40.7432 26.8237C40.7388 26.4454 40.7442 26.0661 40.7388 25.6878C40.7377 25.6007 40.7606 25.5742 40.8476 25.5764C41.0477 25.5831 41.2479 25.5831 41.447 25.5764C41.5351 25.5731 41.5775 25.6073 41.6178 25.6812C41.8321 26.0738 42.0518 26.462 42.2694 26.8523C42.2977 26.9019 42.3194 26.945 42.3934 26.9427C42.6273 26.9361 42.8622 26.9405 43.1179 26.9405C43.0852 26.8788 43.0635 26.8369 43.0395 26.7961ZM41.7113 24.9501C41.4165 24.9622 41.1206 24.9512 40.8247 24.9545C40.7497 24.9556 40.7399 24.9225 40.741 24.8597C40.7442 24.67 40.7421 24.4814 40.7421 24.2918C40.7421 24.1021 40.7453 23.9135 40.741 23.7238C40.7388 23.6544 40.7595 23.6345 40.828 23.6356C41.1108 23.64 41.3937 23.6356 41.6754 23.6378C42.042 23.6411 42.3238 23.9102 42.3346 24.2653C42.3466 24.6468 42.0931 24.9347 41.7113 24.9501Z" fill="#283D36"/>
<path d="M43.3293 32.9011C42.8028 31.6197 42.2763 30.3394 41.7519 29.057C41.7269 28.9952 41.6899 28.9842 41.6323 28.9853C41.4756 28.9886 41.319 28.993 41.1623 28.9842C41.0677 28.9787 41.0274 29.0162 40.9926 29.1011C40.4857 30.3428 39.9755 31.5833 39.4675 32.825C39.4534 32.8592 39.424 32.8923 39.4414 32.9419C39.6611 32.9419 39.883 32.9397 40.1039 32.943C40.1648 32.9441 40.1844 32.9144 40.205 32.8647C40.2834 32.6695 40.3693 32.4777 40.4444 32.2814C40.4716 32.2119 40.5075 32.1921 40.5793 32.1921C41.1145 32.1954 41.6486 32.1954 42.1838 32.1921C42.2567 32.1921 42.2904 32.2152 42.3165 32.2836C42.3927 32.4799 42.4775 32.6729 42.5558 32.868C42.5754 32.9177 42.5972 32.9463 42.6581 32.9452C42.88 32.9408 43.1008 32.9441 43.3304 32.9441C43.3304 32.9188 43.3314 32.9088 43.3293 32.9011ZM40.7326 31.558C40.9513 31.0562 41.1667 30.5633 41.394 30.0428C41.6051 30.56 41.8041 31.0518 42.0097 31.558C41.58 31.558 41.1634 31.558 40.7326 31.558Z" fill="#283D36"/>
<path d="M42.9132 20.1491C42.4966 19.1356 42.0777 18.1233 41.6644 17.1077C41.6306 17.025 41.5926 16.9941 41.5045 16.9985C41.3565 17.0062 41.2086 17.0085 41.0617 16.9985C40.9616 16.9919 40.9203 17.0305 40.8833 17.1209C40.3786 18.3593 39.8706 19.5955 39.3636 20.8328C39.3473 20.8725 39.319 20.9089 39.331 20.9651C39.5594 20.9651 39.789 20.9629 40.0185 20.9662C40.0838 20.9673 40.0968 20.9254 40.1153 20.8813C40.1936 20.6905 40.2763 20.5019 40.3492 20.309C40.3786 20.2329 40.4145 20.2031 40.4993 20.2031C41.0258 20.2075 41.5512 20.2075 42.0777 20.2031C42.1582 20.202 42.1898 20.2318 42.2148 20.3046C42.2844 20.4986 42.3628 20.6894 42.4367 20.8813C42.452 20.921 42.4585 20.9662 42.5183 20.9651C42.7555 20.9629 42.9926 20.964 43.2482 20.964C43.1318 20.6817 43.022 20.4148 42.9132 20.1491ZM40.7136 19.5878C40.6538 19.5878 40.6211 19.5834 40.656 19.5084C40.8768 19.0331 41.0944 18.5567 41.325 18.0561C41.5371 18.5766 41.7383 19.0739 41.9472 19.5878C41.5208 19.5878 41.1172 19.5867 40.7136 19.5878Z" fill="#283D36"/>
<path d="M56.3081 32.8094C55.8501 31.6945 55.3922 30.5797 54.9331 29.4648C54.8711 29.3148 54.8439 29.1141 54.733 29.0314C54.6144 28.9443 54.4142 29.0127 54.25 29.0071C54.2282 29.006 54.2054 29.0105 54.1847 29.006C54.0879 28.9873 54.052 29.0391 54.0172 29.1229C53.5461 30.2753 53.0708 31.4255 52.5965 32.5767C52.5453 32.7013 52.4953 32.8271 52.4409 32.9638C52.6835 32.9638 52.9087 32.9616 53.1349 32.9649C53.2002 32.966 53.2133 32.9252 53.2318 32.88C53.3123 32.6859 53.396 32.4929 53.4711 32.2955C53.4972 32.2261 53.5342 32.2062 53.606 32.2062C54.1412 32.2095 54.6753 32.2095 55.2105 32.2062C55.2856 32.2062 55.316 32.2338 55.3421 32.301C55.4172 32.4973 55.501 32.6903 55.5782 32.8866C55.5978 32.9362 55.6184 32.966 55.6794 32.9649C55.9045 32.9616 56.1297 32.9638 56.3571 32.9638C56.3593 32.902 56.3277 32.8568 56.3081 32.8094ZM53.755 31.5843C53.9758 31.0825 54.1934 30.5863 54.4229 30.0636C54.6351 30.5863 54.8352 31.0803 55.0397 31.5843C54.6111 31.5843 54.1934 31.5843 53.755 31.5843Z" fill="#283D36"/>
<path d="M46.8399 29.7782C46.6169 29.2511 46.172 29.0228 45.6204 29.0107C45.1124 28.9997 44.6033 29.0107 44.0953 29.0063C44.0018 29.0052 43.98 29.0339 43.9811 29.1254C43.9844 29.7462 43.9833 30.366 43.9833 30.9868C43.9833 31.5988 43.9876 32.2098 43.98 32.8218C43.9789 32.9486 44.0181 32.9762 44.1323 32.9695C44.2792 32.9596 44.4282 32.9607 44.575 32.9695C44.674 32.9751 44.7088 32.9497 44.7067 32.8416C44.6991 32.4899 44.7067 32.1381 44.7023 31.7852C44.7012 31.7003 44.7219 31.6727 44.81 31.6738C45.0841 31.676 45.3572 31.6716 45.6313 31.6639C46.024 31.654 46.3797 31.5371 46.6408 31.2261C47.0041 30.7883 47.0553 30.2866 46.8399 29.7782ZM45.6531 31.0408C45.3626 31.0541 45.0711 31.0442 44.7796 31.0486C44.7121 31.0497 44.7012 31.0199 44.7023 30.9615C44.7045 30.7497 44.7034 30.5391 44.7034 30.3274C44.7034 30.1289 44.7067 29.9315 44.7023 29.733C44.7012 29.6624 44.7143 29.6326 44.7926 29.6337C45.0711 29.6393 45.3485 29.6304 45.627 29.6371C45.9805 29.6459 46.2655 29.9613 46.271 30.3362C46.2764 30.7122 46.0099 31.0243 45.6531 31.0408Z" fill="#283D36"/>
</svg>
