<svg width="76" height="50" viewBox="0 0 76 50" fill="none" xmlns="http://www.w3.org/2000/svg">
<path d="M15.3857 29.1798C14.6956 29.8699 13.7401 30.2414 12.6785 30.2414C10.5552 30.2414 8.90967 28.5959 8.90967 26.5788C8.90967 24.5086 10.6083 22.863 12.6785 22.863C13.687 22.863 14.6425 23.2877 15.3326 23.9247L14.0055 25.1986C13.7401 24.8802 13.2624 24.6678 12.7316 24.6678C11.6699 24.6678 10.8206 25.5171 10.8206 26.5788C10.8206 27.6404 11.6699 28.4366 12.7316 28.4366C13.2624 28.4366 13.7401 28.2243 14.0586 27.8527L15.3857 29.1798Z" fill="#517CEC"/>
<path d="M22.1807 29.0206C21.4907 29.6576 20.5883 29.976 19.5266 29.976C18.465 29.976 17.5626 29.6576 16.8195 29.0206C16.1294 28.3836 15.7578 27.5343 15.7578 26.4726C15.7578 25.411 16.1294 24.5617 16.8195 23.9247C17.5095 23.2877 18.4119 22.9692 19.5266 22.9692C20.6413 22.9692 21.4907 23.2877 22.1807 23.9247C22.8708 24.5617 23.2424 25.411 23.2424 26.4726C23.2424 27.4812 22.8708 28.3305 22.1807 29.0206ZM19.5266 24.5617C18.9958 24.5617 18.6242 24.7209 18.2527 25.0925C17.9342 25.411 17.7749 25.8887 17.7749 26.4726C17.7749 27.0565 17.9342 27.5343 18.2527 27.8528C18.5712 28.1713 18.9958 28.3305 19.5266 28.3305C20.0574 28.3305 20.429 28.1713 20.8006 27.8528C21.1191 27.5343 21.2783 27.0565 21.2783 26.4726C21.2783 25.8887 21.1191 25.411 20.8006 25.0925C20.429 24.7209 20.0574 24.5617 19.5266 24.5617Z" fill="#517CEC"/>
<path d="M26.6927 20.8461C26.6927 21.1646 26.5865 21.43 26.3211 21.6424C25.8965 22.067 25.1003 22.067 24.6756 21.6424C23.8794 20.9523 24.5164 19.6252 25.4718 19.6252C26.1619 19.6252 26.6927 20.1561 26.6927 20.8461ZM26.4804 29.817H24.5164V23.0756H26.4804V29.817Z" fill="#517CEC"/>
<path d="M34.6021 25.6763V29.8697H32.6381V26.0478C32.6381 25.1985 32.1603 24.7208 31.4172 24.7208C30.6741 24.7208 30.1432 25.2516 30.1432 26.1009V29.8697H28.1792V23.0753H30.0371V23.7653C30.4086 23.1814 31.0456 22.916 31.8949 22.916C33.4874 22.916 34.6021 23.9777 34.6021 25.6763Z" fill="#517CEC"/>
<path d="M38.1579 19.6252V23.6595C38.5295 23.1817 39.1134 22.9163 39.9096 22.9163C41.5551 22.9163 42.6168 23.978 42.6168 25.6766V29.8701H40.6527V26.0482C40.6527 25.1988 40.175 24.7211 39.4318 24.7211C38.6887 24.7211 38.1579 25.2519 38.1579 26.1012V29.8701H36.1938V19.6252H38.1579Z" fill="#517CEC"/>
<path d="M49.3587 23.7653V23.0221H51.2166V29.8166H49.3587V29.1265C48.9871 29.6043 48.1909 29.9758 47.2885 29.9758C46.2799 29.9758 45.4837 29.6574 44.8467 29.0204C44.2097 28.3834 43.9443 27.5341 43.9443 26.4724C43.9443 25.4108 44.2628 24.5615 44.8467 23.9245C45.4837 23.2875 46.2799 22.969 47.2885 22.969C48.244 22.916 48.934 23.1814 49.3587 23.7653ZM45.9084 26.4724C45.9084 27.6933 46.5984 28.3303 47.607 28.3303C48.6155 28.3303 49.2525 27.6933 49.2525 26.5786V26.2601C49.2525 25.1985 48.5625 24.5084 47.607 24.5084C46.5984 24.5615 45.9084 25.2516 45.9084 26.4724Z" fill="#517CEC"/>
<path d="M54.7194 25.4643L57.0019 23.0756H59.3906L56.7365 25.9951L59.5499 29.8701H57.1612L55.3564 27.4283L54.7194 28.0653V29.8701H52.7554V19.6252H54.7194V25.4643Z" fill="#517CEC"/>
<path d="M66.0264 29.0206C65.3364 29.6576 64.434 29.976 63.3723 29.976C62.3107 29.976 61.4083 29.6576 60.6652 29.0206C59.9751 28.3836 59.6035 27.5343 59.6035 26.4726C59.6035 25.411 59.9751 24.5617 60.6652 23.9247C61.3552 23.2877 62.2576 22.9692 63.3723 22.9692C64.434 22.9692 65.3364 23.2877 66.0264 23.9247C66.7165 24.5617 67.0881 25.411 67.0881 26.4726C67.0881 27.4812 66.7696 28.3305 66.0264 29.0206ZM63.3723 24.5617C62.8415 24.5617 62.4699 24.7209 62.0984 25.0925C61.7799 25.411 61.6206 25.8887 61.6206 26.4726C61.6206 27.0565 61.7799 27.5343 62.0984 27.8528C62.4169 28.1713 62.8415 28.3305 63.3723 28.3305C63.9032 28.3305 64.2747 28.1713 64.6463 27.8528C64.9648 27.5343 65.124 27.0565 65.124 26.4726C65.124 25.8887 64.9648 25.411 64.6463 25.0925C64.3278 24.7209 63.9032 24.5617 63.3723 24.5617Z" fill="#517CEC"/>
</svg>
