<svg width="76" height="50" viewBox="0 0 76 50" fill="none" xmlns="http://www.w3.org/2000/svg">
<g clip-path="url(#clip0)">
<path d="M50.2659 12.4666C50.2652 12.472 50.2645 12.478 50.2645 12.4834C50.2381 12.5071 50.2057 12.5084 50.1732 12.5091C50.13 12.5105 50.0867 12.5098 50.0434 12.5098C41.8752 12.5098 33.7076 12.5098 25.5394 12.5098C25.4752 12.5098 25.4103 12.5172 25.346 12.5037C25.3298 12.4949 25.3339 12.4801 25.3325 12.4666C33.6434 12.4666 41.955 12.4666 50.2659 12.4666Z" fill="black"/>
<path d="M44.6244 37.3997C44.5893 37.399 44.5541 37.3983 44.519 37.3983C40.0366 37.3983 35.5536 37.3983 31.0713 37.3983C31.0389 37.3983 31.0064 37.3977 30.974 37.3977C30.9733 37.3679 30.9713 37.3382 30.9713 37.3085C30.9713 32.8183 30.9713 28.3288 30.9692 23.8387C30.9692 23.7576 30.9875 23.738 31.0693 23.738C32.2497 23.7407 33.4308 23.7407 34.6112 23.7387C34.6788 23.7387 34.7032 23.7495 34.7025 23.8252C34.6977 24.1846 34.6984 24.5439 34.7018 24.9033C34.7025 24.9648 34.6856 24.979 34.6254 24.979C33.8473 24.9769 33.0691 24.979 32.2909 24.9756C32.2186 24.9756 32.2044 24.9931 32.2044 25.0634C32.2064 28.7348 32.2064 32.4063 32.2044 36.0777C32.2044 36.1527 32.2247 36.1675 32.2964 36.1675C35.9654 36.1655 39.6337 36.1655 43.3027 36.1682C43.3825 36.1682 43.3967 36.1473 43.3967 36.0716C43.3947 32.4056 43.3947 28.7396 43.3974 25.0735C43.3974 24.9877 43.3724 24.9756 43.2953 24.9756C42.5307 24.9783 41.766 24.9756 41.0014 24.9796C40.9196 24.9803 40.9061 24.956 40.9067 24.881C40.9115 24.5027 40.9101 24.1244 40.9108 23.7468C40.9365 23.7353 40.9642 23.7407 40.9906 23.7407C42.1737 23.7407 43.3575 23.7407 44.5406 23.7407C44.6312 23.7407 44.6312 23.7407 44.6312 23.8326C44.6312 28.3282 44.6312 32.8231 44.6312 37.3186C44.6312 37.345 44.6366 37.3727 44.6251 37.3983L44.6244 37.3997Z" fill="black"/>
<path d="M50.1513 12.4827C41.9262 12.4827 33.7012 12.4827 25.4762 12.4827C25.4491 12.4827 25.4221 12.4827 25.3951 12.4827C25.3761 12.4827 25.3565 12.4833 25.3457 12.5029C25.3775 12.5914 25.4093 12.6799 25.4417 12.7684C26.155 14.6882 26.8682 16.6074 27.5821 18.5272C27.6071 18.5954 27.6153 18.6988 27.6626 18.7217C27.72 18.7501 27.7944 18.6718 27.86 18.6393C29.1966 17.9706 30.5318 17.3005 31.8677 16.631C33.6194 15.7528 35.3718 14.874 37.1241 13.9965C37.141 13.9884 37.1573 13.9661 37.1836 13.983C37.1836 14.012 37.1836 14.0418 37.1836 14.0715C37.1836 17.7834 37.1836 21.4954 37.1836 25.2074C37.1836 27.163 37.1843 29.1193 37.1816 31.0749C37.1816 31.1492 37.2026 31.1614 37.2702 31.1607C37.6183 31.1573 37.9672 31.156 38.3154 31.1614C38.3978 31.1627 38.4202 31.1438 38.4202 31.0587C38.4181 25.3992 38.4181 19.7391 38.4181 14.0796C38.4181 14.0607 38.4195 14.0418 38.4181 14.0228C38.4127 13.9708 38.4323 13.9708 38.4722 13.9911C38.6324 14.0735 38.794 14.1539 38.9556 14.235C40.3104 14.9145 41.6646 15.5948 43.0194 16.2737C44.2445 16.8877 45.4702 17.5011 46.6952 18.1151C47.0948 18.3151 47.4943 18.5157 47.8925 18.717C47.9324 18.7373 47.954 18.7393 47.9642 18.6907C47.9676 18.6751 47.975 18.6603 47.9804 18.6454C48.6213 16.9201 49.2629 15.1949 49.9038 13.4696C50.0255 13.142 50.1445 12.813 50.2642 12.4854C50.227 12.4833 50.1891 12.4827 50.1513 12.4827ZM34.8242 13.7634C33.5221 14.416 32.2206 15.0685 30.9185 15.7204C30.0836 16.1386 29.2486 16.556 28.415 16.9776C28.3441 17.0134 28.3305 16.9931 28.3082 16.9316C27.9208 15.8846 27.5321 14.8382 27.142 13.7925C27.1177 13.7263 27.1116 13.704 27.1981 13.704C29.7395 13.706 32.2808 13.706 34.8228 13.706C34.8471 13.706 34.8708 13.706 34.8951 13.706C34.8965 13.7121 34.8985 13.7182 34.8999 13.7243C34.8742 13.7378 34.8492 13.7506 34.8242 13.7634ZM48.4604 13.7986C48.073 14.8402 47.6863 15.8819 47.2989 16.9242C47.2651 17.0154 47.2651 17.0154 47.1759 16.9708C45.6595 16.2102 44.1437 15.4502 42.6273 14.6896C42.0114 14.3809 41.3955 14.0715 40.7796 13.7621C40.7546 13.7493 40.7296 13.7358 40.7046 13.7222C40.7066 13.7168 40.708 13.7114 40.71 13.706C40.737 13.706 40.7634 13.706 40.7904 13.706C43.3243 13.706 45.8589 13.706 48.3928 13.706C48.4949 13.7067 48.4949 13.7067 48.4604 13.7986Z" fill="black"/>
</g>
<defs>
<clipPath id="clip0">
<rect width="24.9333" height="24.9333" fill="white" transform="translate(25.3325 12.4666)"/>
</clipPath>
</defs>
</svg>
