<svg width="76" height="50" viewBox="0 0 76 50" fill="none" xmlns="http://www.w3.org/2000/svg">
<g clip-path="url(#clip0)">
<path d="M23.9768 34.7947H24.0401H24.0655H24.0909H24.2049H24.281H24.4077H24.4331H24.4838H24.5091H24.5598H24.5852H24.7626H24.9148H24.9401H25.0669H25.1809H25.219H25.3711H25.4471H25.5105H25.6119H25.6626H25.7767H25.8147H25.9668H25.9922H26.1062V35.4919H26.0809H25.9034H25.8274H25.764H25.726H25.6753H25.5612H25.5232H25.3711H25.3457H25.2316H25.1936H25.1556H25.1302H24.9655H24.8514H24.8133H24.6612H24.6359H24.5218V36.2017H24.5852H24.7626H24.8133H24.8387H24.8767H24.9021H24.9528H24.9781H25.0162H25.0415H25.219H25.257H25.295H25.3204H25.4851H25.5992H25.6373H25.7894H25.8147H25.9541V36.8608H25.8274H25.802H25.7513H25.726H25.688H25.6626H25.4851H25.3711H25.3077H25.1809H25.1556H24.9655H24.8514H24.8133H24.6612H24.6359H24.5218V38.3058H24.5091H24.5218H24.5091H24.5218H24.4965H24.5091H24.4838H24.4965H24.4711H24.4838H24.4711H24.4838H24.4584H24.4711H24.4458H24.4584H24.4331H24.4458H24.4331H24.4204H24.4331H24.4077H24.4204H24.4077H24.4204H24.3951H24.4077H24.3824H24.3951H24.3697H24.3824H24.3697H24.3824H24.357H24.3697H24.3444H24.357H24.3444H24.357H24.3317H24.3444H24.319H24.3317H24.3063H24.319H24.3063H24.2937H24.3063H24.281H24.2937H24.281H24.2937H24.2683H24.281H24.2556H24.2683H24.243H24.2556H24.243H24.2556H24.2303H24.243H24.2176H24.2303H24.2049H24.2176H24.2049H24.2176H24.1923H24.2049H24.1796H24.1923H24.1796H24.1669H24.1796H24.1542H24.1669H24.1416H24.1542H24.1416H24.1542H24.1289H24.1416H24.1162H24.1289H24.1162H24.1289H24.1035H24.1162H24.0909H24.1035H24.0782H24.0909H24.0782H24.0909H24.0655H24.0782H24.0528H24.0655H24.0401H24.0528H24.0401H24.0528H24.0275H24.0401H24.0148H24.0275H24.0148H24.0275H24.0021H24.0148H23.9894H24.0021H23.9768H23.9894H23.9768H23.9894H23.9641H23.9768H23.9514H23.9641H23.9514H23.9641H23.9387H23.9514H23.9261H23.9387H23.9134H23.9261H23.9134H23.9261H23.9007H23.9134H23.888H23.9007H23.8754H23.888H23.8754H23.888H23.8627H23.8754H23.85H23.8627H23.85H23.8627H23.8373H23.85H23.8247H23.8373H23.812H23.8247H23.812H23.8247H23.7993H23.812H23.7993V38.2678V38.103V38.027V37.9509V37.9256V37.8875V37.7228V37.6974V37.52V37.4439V37.4059V37.2411V37.2158V37.1904V36.9115V36.8482V36.8228V36.7848V36.62V36.4933V36.4679V36.4172V36.3918V36.3538V36.3158V36.1383V35.9862V35.9609V35.8468V35.7327V35.682V35.5299V35.5046V35.3905V35.2891V35.2384V35.1243V35.0863V34.9342V34.9088V34.7947H23.9768ZM27.0696 34.7947H27.1076H27.2597H27.2851H27.3991H27.5766H27.6146H27.7794H27.8047H27.8301H28.109H28.2611H28.3371H28.4005H28.4385H28.4639H28.6413H28.6794H28.7047H28.8695H28.9836H29.0216H29.1737H29.199H29.3131V35.4919H29.1357H29.085H28.9329H28.9075H28.7934H28.6794H28.6413H28.4892H28.4639H28.3625H28.2611H28.2104H28.0963H28.0583H27.9062H27.8808H27.7667V36.2017H27.7921H27.9695H28.0836H28.1216H28.2864H28.3244H28.3625H28.4005H28.5526H28.6287H28.692H28.7427H28.8568H28.8948H29.0469H29.0723H29.1864V36.8482H29.0596H29.0343H28.9836H28.9582H28.9202H28.8948H28.7174H28.6033H28.5399H28.4132H28.3878H28.223H28.109H28.0709H27.9188H27.8935H27.7794V37.5833C27.7921 37.6087 27.8174 37.6214 27.8428 37.6087H27.9188H28.0963H28.147H28.2991H28.3244H28.4385H28.5526H28.5906H28.7427H28.7681H28.8822H28.9836H29.0343H29.1483H29.1864H29.3385H29.3638H29.4779V38.3058H29.4526H29.4145H29.2497H29.2244H29.123H28.9455H28.8695H28.7934H28.7174H28.6413H28.4639H28.4385H28.4132H28.1343H28.0709H28.0202H27.9569H27.9062H27.8555H27.8047H27.7667H27.6019H27.4752H27.4372H27.3991H27.3611H27.3231H27.171H27.1456H27.0315V38.2678V38.103V38.027V37.9509V37.9256V37.8875V37.7228V37.6974V37.52V37.4439V37.4059V37.2411V37.2158V37.1904V36.9115V36.8482V36.8228V36.7848V36.62V36.4933V36.4679V36.4172V36.3918V36.3538V36.3158V36.1383V35.9862V35.9609V35.8468V35.7327V35.682V35.5299V35.5046V35.3905V35.2891V35.2384V35.1243V35.0863V34.9342V34.9088V34.7947H27.0696ZM30.6947 34.7947H30.8215H30.8722H30.9102H31.075H31.113H31.1511H31.1891H31.3412H31.3665H31.4806L31.5186 34.8581L31.5567 34.9088L31.5947 34.9595L31.6327 35.0102L31.6708 35.0609L31.6961 35.0863L31.7088 35.1116C31.7215 35.1116 31.7215 35.1243 31.7215 35.1243C31.7595 35.175 31.7975 35.213 31.8102 35.2637C31.8482 35.3144 31.8862 35.3525 31.8989 35.4032L31.9369 35.4539L31.975 35.5046C31.9876 35.5299 32.013 35.5553 32.0257 35.5679L32.0383 35.5933C32.0637 35.6186 32.0764 35.644 32.089 35.6693C32.1524 35.7327 32.1904 35.7961 32.2158 35.8595L32.2538 35.9102C32.2665 35.9102 32.2665 35.9229 32.2665 35.9229C32.3172 35.9736 32.3425 36.0243 32.3679 36.0623L32.4059 36.113L32.4313 36.1637L32.4693 36.2144L32.5073 36.2524L32.5327 36.3031L32.5454 36.3538C32.5834 36.3918 32.6087 36.4299 32.6214 36.4679L32.6468 36.5059L32.6594 36.544L32.6848 36.5693C32.7101 36.6073 32.7355 36.6454 32.7482 36.6834L32.7735 36.7087L32.7862 36.7341L32.7989 36.7594L32.8115 36.7721C32.8369 36.8101 32.8496 36.8482 32.8749 36.8735L32.8876 36.8989C32.9003 36.8989 32.9003 36.9115 32.9003 36.9115C32.951 36.9749 33.0017 37.0256 33.0143 37.089L33.027 37.0256V36.9622V36.8862V36.8482V36.6834V36.582V36.544V36.5059V36.4679V36.4299V36.3158V36.2904V36.1764V36.1257V35.9736V35.9482V35.8341V35.72V35.682V35.5299V35.5046V35.3905V35.2891V35.2384V35.1243V35.0863V34.9342V34.9088V34.7947H33.1411H33.1791H33.3439H33.3819H33.42H33.458H33.6101H33.6354H33.7495V38.2932H33.7242H33.6101H33.5214H33.458H33.4073H33.3566H33.3059H33.2679H33.2298H33.2045H33.1791H33.1538H33.1411H33.1538H33.1411H33.065H33.0397H32.9256L32.9129 38.2805C32.8876 38.2551 32.8749 38.2298 32.8622 38.2044C32.8496 38.2044 32.8496 38.1918 32.8496 38.1918C32.7989 38.1284 32.7482 38.0777 32.7355 38.0143C32.7228 38.0143 32.7228 38.0016 32.7228 38.0016L32.6848 37.9509C32.6468 37.9129 32.6341 37.8749 32.6087 37.8368L32.558 37.7861L32.52 37.7228L32.482 37.6594C32.444 37.6087 32.4059 37.5707 32.3933 37.5326L32.3806 37.52C32.3552 37.4693 32.3299 37.4186 32.3045 37.3932L32.2918 37.3805L32.2792 37.3552L32.2031 37.2284C32.1778 37.2031 32.1651 37.1777 32.1524 37.1524C32.1397 37.1524 32.1397 37.1397 32.1397 37.1397L32.1271 37.127L32.089 37.0636L32.0764 37.051C32.051 37.0256 32.0383 37.0003 32.0257 36.9749C32.013 36.9622 32.0003 36.9496 32.0003 36.9242L31.9623 36.8862L31.9243 36.8355L31.9116 36.7848L31.8989 36.7721L31.8609 36.7087L31.7848 36.5947L31.7722 36.5566L31.7595 36.5186L31.7341 36.4933L31.7215 36.4679L31.7088 36.4425C31.6834 36.4045 31.6581 36.3792 31.6327 36.3538L31.6201 36.3158C31.5947 36.2778 31.582 36.2524 31.5693 36.2271C31.5567 36.2271 31.5567 36.2144 31.5567 36.2144L31.544 36.2017L31.5313 36.189L31.4933 36.1257L31.4172 36.0116V38.3565H31.3032H31.2651H31.1004H31.0623H31.0243H30.9863H30.8342H30.8088H30.644V38.3312V38.2171V38.1918V38.1537V37.989V37.9129V37.8368V37.8115V37.634V37.596V37.5453V37.5073V37.4566V37.3425V37.3045V37.1524V37.127V37.0129V36.9749V36.9242V36.8228V36.7848V36.6327V36.6073V36.4933V36.4299V36.3538V36.2778V36.2017V36.1764V36.151V35.8722V35.8088V35.7581V35.682V35.6313V35.5806V35.5299V35.4919V35.3271V35.2257V35.1877V35.1497V35.1116V35.0736V34.9215V34.8961V34.7947H30.6947ZM35.1945 34.7947H35.2199H35.2706H35.2959H35.3339H35.3593H35.5368H35.6001H35.7776H35.841H35.8917H35.9424H35.9931H36.0311H36.1959H36.2973H36.348H36.386H36.424H36.4621H36.6142H36.6902H36.7536L36.7789 34.8074H36.8043L36.8803 34.8201L37.0325 34.8581C37.2986 34.9722 37.4761 35.137 37.5902 35.3651C37.7676 35.7961 37.6789 36.1383 37.324 36.4045C37.5775 36.5313 37.7423 36.7087 37.8057 36.9622C37.9071 37.5707 37.7043 38.0016 37.1719 38.2298H37.1465C37.0705 38.2678 37.0071 38.2805 36.9437 38.2805L36.8803 38.2932H36.855L36.6268 38.3058H36.5635H36.5001H36.4747H36.4494H36.1705H36.1071H36.0564H35.9931H35.9424H35.8917H35.841H35.8029H35.6382H35.5368H35.4987H35.4607H35.4227H35.3847H35.2072H35.1818H35.0678V38.2678V38.103V38.027V37.9509V37.9256V37.8875V37.7228V37.6974V37.52V37.4439V37.4059V37.2411V37.2158V37.1904V36.9115V36.8482V36.8228V36.7848V36.62V36.4933V36.4679V36.4172V36.3918V36.3538V36.3158V36.1383V35.9862V35.9609V35.8468V35.7327V35.682V35.5299V35.5046V35.3905V35.2891V35.2384V35.1243V35.0863V34.9342V34.9088V34.7947H35.1945ZM35.7776 36.2144H35.8283H35.879H35.9931H36.0311H36.1959H36.3226H36.3987H36.424H36.4494H36.4747H36.5001H36.6142L36.6649 36.2017C36.8677 36.1003 36.9437 35.9482 36.9057 35.7454C36.8677 35.6567 36.817 35.5806 36.7536 35.5299C36.7156 35.5172 36.6902 35.5046 36.6775 35.4919L36.6395 35.4792H36.6142H36.5888C36.5635 35.4792 36.5381 35.4665 36.5128 35.4665H36.4621H36.31H36.2719H36.2212H36.1071H36.0691H35.917H35.8917H35.7776V36.2144ZM35.7776 37.6214H35.9297H35.9804H36.0057H36.0311H36.1452H36.2339H36.2593H36.2846H36.3733H36.5254C36.6015 37.6214 36.6775 37.6214 36.7282 37.6087C36.9437 37.4946 37.0325 37.3298 37.0071 37.1143C36.9564 36.9622 36.8803 36.8608 36.7536 36.7975C36.7029 36.7848 36.6649 36.7848 36.6395 36.7721H36.4874H36.4494H36.4114H36.386H36.2212H36.1071H36.0691H35.917H35.8917H35.7776V37.6214ZM38.9084 34.8201H38.9591H38.9971H39.1492H39.2507H39.2887H39.4408H39.5168H39.5802L39.5929 37.0256L39.6436 37.2284C39.7957 37.4946 40.0112 37.6467 40.29 37.6594C40.5942 37.634 40.8097 37.5073 40.9492 37.2665V37.2411C40.9999 37.1524 41.0252 37.051 41.0252 36.9622C41.0379 36.8862 41.0379 36.8355 41.0379 36.7848V36.6961V36.62V36.4933V36.4679V36.4172V36.3918V36.3538V36.3285V36.151V35.9989V35.9736V35.8595V35.7454V35.7074V35.5553V35.5299V35.4158V35.3144V35.2637V35.1497V35.1116V34.9595V34.9342V34.8201H41.0759H41.1139H41.1393H41.3041H41.4181H41.4562H41.6083H41.6336H41.7477V37.0636C41.7477 37.089 41.735 37.1143 41.735 37.1397L41.7224 37.1524C41.7097 37.2284 41.697 37.3045 41.6843 37.3552C41.5449 37.7354 41.3167 38.0143 40.9999 38.1918C40.6069 38.3946 40.2267 38.4326 39.8464 38.3058C39.0859 38.0143 38.7563 37.4059 38.845 36.4806V36.3538V36.2524V36.2017V36.1764V36.1383V36.113V35.9355V35.8848V35.8088V35.7581V35.682V35.5679V35.2891V35.1623V35.137V35.0863V35.0609V35.0229V34.9976V34.8201H38.9084ZM45.8038 35.2891L45.7912 35.3018L45.7024 35.3778L45.6898 35.4032L45.6644 35.4285L45.6264 35.4412L45.601 35.4665L45.5757 35.4919L45.563 35.5172L45.525 35.5299C45.4996 35.5553 45.487 35.5806 45.4743 35.5933L45.4236 35.6313L45.4109 35.644L45.3982 35.6567C45.3602 35.6947 45.3349 35.7327 45.3095 35.7454C44.9292 35.4285 44.5236 35.3271 44.118 35.4412C44.0927 35.4665 44.0673 35.4792 44.042 35.4919C44.0039 35.5299 43.9786 35.5553 43.9532 35.5679L43.9406 35.5806L43.8899 35.6947C43.8899 35.8215 43.9279 35.9102 44.0039 35.9862L44.156 36.0369L44.3081 36.0623C44.3588 36.075 44.3969 36.0876 44.4222 36.0876L44.4603 36.1003L44.4983 36.113L44.5363 36.1257L44.5743 36.1383L44.625 36.151H44.6504L44.6884 36.1637L44.7391 36.1764L44.7771 36.189H44.8025C44.8405 36.2017 44.8659 36.2144 44.8912 36.2144L44.9673 36.2271C44.9926 36.2397 45.018 36.2524 45.0433 36.2524L45.0687 36.2651L45.1827 36.3158L45.1954 36.3285C45.2588 36.3538 45.3095 36.3918 45.3475 36.4172C45.3602 36.4172 45.3602 36.4299 45.3602 36.4299L45.3729 36.4425C45.3982 36.4679 45.4236 36.4806 45.4363 36.4933C45.4743 36.5186 45.4996 36.544 45.525 36.5693C45.7531 36.8735 45.8038 37.2031 45.6898 37.5326C45.5757 37.8749 45.3602 38.0904 45.056 38.2044C44.1053 38.496 43.3321 38.3058 42.7237 37.6467L42.7491 37.6087L42.7871 37.596C42.7998 37.5833 42.8124 37.5707 42.8251 37.5707C42.8505 37.5326 42.8758 37.52 42.9012 37.5073C42.9138 37.4946 42.9265 37.4819 42.9392 37.4819C42.9519 37.4693 42.9646 37.4566 42.9772 37.4566L42.9899 37.4312L43.0153 37.4186L43.0279 37.4059L43.0533 37.3932L43.0786 37.3805L43.0913 37.3552L43.104 37.3425L43.1167 37.3298L43.1293 37.3172L43.142 37.3045L43.2688 37.1904C43.6744 37.5833 44.118 37.7354 44.625 37.6214L44.6504 37.6087L44.6757 37.596L44.6884 37.5833L44.8278 37.4946C44.8532 37.4439 44.8659 37.4059 44.8912 37.3679C44.9039 37.2031 44.8532 37.0763 44.7391 36.9749L44.7011 36.9622L44.6757 36.9496L44.6377 36.9369L44.5617 36.9242H44.5363L44.4983 36.9115L44.4856 36.8989C44.4349 36.8862 44.3842 36.8735 44.3335 36.8608L44.3081 36.8482L44.2321 36.8355C44.156 36.8228 44.0927 36.8101 44.042 36.7848C43.4462 36.7087 43.1167 36.3918 43.0533 35.8468C43.066 35.1623 43.4716 34.7694 44.2701 34.6807C44.8912 34.6933 45.4109 34.8835 45.8038 35.2891ZM47.0334 34.8074H47.0714H47.2362H47.2742H47.3122H47.3502H47.5023H47.5277H47.6418V36.1383H47.7432H47.7812H47.8066H47.8573H47.8826H47.9206H47.946H48.1234H48.3009H48.3516H48.5037H48.5417H48.5924H48.7065H48.7445H48.8966H48.922H49.0361V36.075V36.0243V35.9609V35.7834V35.72V35.6693V35.6186V35.5553V35.5172V35.3525V35.2511V35.213V35.175V35.137V35.099V34.9468V34.9215V34.8074H49.1502H49.1882H49.353H49.391H49.429H49.467H49.6191H49.6952H49.7586V38.3058H49.6445H49.6065H49.4417H49.4037H49.3656H49.3276H49.1755H49.1502H49.0361V38.2425V38.2171V38.1918V37.9129V37.8368V37.7861V37.7228V37.6721V37.6214V37.5707V37.5326V37.3679V37.2665V37.2284V37.1904V37.1524V37.1143V36.9622V36.9369V36.8228H48.9854H48.922H48.8713H48.7192H48.6685H48.6178H48.5671H48.5164H48.3516H48.2502H48.2122H48.1741H48.1361H48.0981H47.946H47.9206H47.8066H47.7812H47.7559H47.6418V38.3058H47.5277H47.4897H47.3249H47.2869H47.2488H47.2108H47.0587H47.0334H46.9193V38.2805V38.2425V38.2171V38.1791V38.0143V37.9383V37.8622V37.8368V37.6594V37.6214V37.5707V37.5326V37.4819V37.3679V37.3298V37.1777V37.1524V37.0383V37.0003V36.9496V36.8355V36.7975V36.6454V36.62V36.5059V36.4425V36.3665V36.2904V36.2144V36.189V36.1637V35.8848V35.8215V35.7708V35.7074V35.6567V35.606V35.5553V35.5172V35.3525V35.2511V35.213V35.175V35.137V35.099V34.9468V34.9215V34.8074H47.0334ZM51.1909 34.8074H51.2289H51.3937H51.4317H51.4698H51.5078H51.6599H51.6852H51.7993V38.3058H51.6852H51.6472H51.4824H51.4444H51.4064H51.3684H51.2162H51.1909H51.0768V38.2805V38.2425V38.2171V38.1791V38.0143V37.9383V37.8622V37.8368V37.6594V37.6214V37.5707V37.5326V37.4819V37.3679V37.3298V37.1777V37.1524V37.0383V37.0003V36.9496V36.8355V36.7975V36.6454V36.62V36.5059V36.4425V36.3665V36.2904V36.2144V36.189V36.1637V35.8848V35.8215V35.7708V35.7074V35.6567V35.606V35.5553V35.5172V35.3525V35.2511V35.213V35.175V35.137V35.099V34.9468V34.9215V34.8074H51.1909Z" fill="#2062AF"/>
<path d="M26.0554 40.2833L26.0301 40.3087L25.916 40.3467L25.8906 40.3594L25.8653 40.3721C25.8399 40.3847 25.8019 40.3974 25.7766 40.4101L25.7385 40.4228L25.7259 40.4354H25.7005L25.6878 40.4481H25.6625L25.6498 40.4608H25.6245L25.6118 40.4735L25.5864 40.4861L25.5104 40.5115C25.409 40.1185 25.1555 39.9664 24.7625 40.0425C24.4583 40.1566 24.3189 40.3847 24.3189 40.7143C24.2809 41.0565 24.3569 41.3227 24.5724 41.5002C24.7372 41.6142 24.9146 41.6396 25.1048 41.5889C25.3329 41.5128 25.4724 41.3607 25.4977 41.1326C25.5357 41.1453 25.5738 41.1579 25.5991 41.1706C25.6371 41.1833 25.6752 41.196 25.7132 41.2086L25.7385 41.2213L25.7766 41.234L25.8019 41.2467L25.8526 41.272L25.878 41.2847L25.9033 41.2974C25.9287 41.2974 25.9413 41.31 25.954 41.3227L26.0301 41.3481C25.8653 41.8171 25.5357 42.0832 25.0794 42.1213C24.6104 42.1593 24.2555 41.9945 24.002 41.6396C23.7485 41.1833 23.7105 40.727 23.8879 40.2833C24.0781 39.865 24.3696 39.6242 24.8006 39.5608C25.447 39.4848 25.8526 39.7383 26.0554 40.2833ZM29.351 39.5608H29.4398H29.6299H29.7186H29.744H29.782H29.8073H29.8327H29.858H29.9848V39.5862C29.9975 39.6242 30.0102 39.6622 30.0228 39.6876L30.0355 39.7383L30.0482 39.7636C30.0482 39.7763 30.0609 39.7763 30.0609 39.789C30.0609 39.8017 30.0735 39.8017 30.0735 39.8143C30.0735 39.827 30.0862 39.827 30.0862 39.8397C30.0989 39.8524 30.0989 39.8777 30.1116 39.8904L30.1496 39.9918V40.0171C30.1749 40.0552 30.1876 40.0932 30.1876 40.1312C30.213 40.1819 30.2256 40.22 30.2256 40.258C30.2383 40.2707 30.2383 40.2833 30.2383 40.296L30.251 40.3214C30.2637 40.3467 30.2637 40.3594 30.2763 40.3721V40.3974C30.2763 40.4101 30.289 40.4101 30.289 40.4228C30.3017 40.4354 30.3017 40.4608 30.3144 40.4735L30.3524 40.5749L30.3651 40.6002L30.3777 40.6129L30.3904 40.6763L30.4031 40.7016L30.4158 40.7396L30.4284 40.765L30.4411 40.7903L30.4538 40.8284C30.4665 40.8537 30.4665 40.8664 30.4791 40.8791V40.9044C30.4791 40.9171 30.4918 40.9171 30.4918 40.9298C30.5045 40.9424 30.5045 40.9678 30.5172 40.9805L30.5552 41.0819L30.5679 41.1199L30.5932 41.1579L30.6059 41.196V41.2213L30.6186 41.2467L30.6313 41.272L30.6439 41.31C30.682 41.3861 30.6946 41.4495 30.7073 41.5002C30.7073 41.5128 30.72 41.5128 30.72 41.5255C30.758 41.6016 30.7707 41.6649 30.7834 41.7157L30.796 41.741L30.8087 41.7664L30.8214 41.7917L30.8341 41.8171L30.8467 41.8424C30.8467 41.8551 30.8594 41.8551 30.8594 41.8678C30.8594 41.8804 30.8721 41.8804 30.8721 41.8931C30.8721 41.9058 30.8848 41.9058 30.8848 41.9185L30.8974 41.9438V41.9692C30.8974 41.9818 30.9101 41.9818 30.9101 41.9945C30.9228 42.0072 30.9228 42.0325 30.9355 42.0452C30.9481 42.0832 30.9608 42.1086 30.9608 42.1213L30.9735 42.1593H30.9355H30.9101H30.796H30.72H30.6946H30.6693H30.6439H30.6186H30.5045H30.4791H30.4031L30.3904 42.1213V42.0959L30.3777 42.0706V42.0452C30.3651 42.0199 30.3524 41.9945 30.3524 41.9818L30.3397 41.9565V41.9311L30.327 41.9058L30.3017 41.8551L30.251 41.6903H30.1369H30.0102H29.9595H29.9214H29.8834H29.8454H29.82H29.7059H29.6299H29.6045H29.5792H29.5538H29.5285H29.4144H29.2496H29.1736L29.1609 41.7283L29.1482 41.7664L29.1356 41.7917C29.1356 41.8171 29.1229 41.8424 29.1102 41.8551L29.1229 41.7664L29.1102 41.779L29.0848 41.8424L29.0722 41.8678L29.0595 41.8931C29.0468 41.9185 29.0468 41.9311 29.0341 41.9438L29.0088 42.0199H28.9834H28.9961H28.9708H28.844H28.8187H28.7046H28.6792H28.4764L28.4891 41.9692L28.5145 41.9058L28.5271 41.8804L28.5398 41.8551L28.5525 41.8297L28.5652 41.8171L28.6032 41.7157L28.6159 41.6903L28.6285 41.6649L28.6412 41.6396H28.6159L28.6412 41.5635L28.6539 41.5382L28.6666 41.5128L28.6792 41.4875L28.6919 41.4748C28.7046 41.4241 28.7173 41.3861 28.7299 41.3607L28.7426 41.31L28.7553 41.2974C28.768 41.2467 28.7806 41.2086 28.7933 41.1833C28.7933 41.1579 28.806 41.1453 28.8187 41.1326L28.8313 41.0819L28.8567 41.0312L28.8694 40.9805L28.882 40.9678C28.8947 40.9171 28.9074 40.8791 28.9201 40.8537L28.9327 40.803L28.9834 40.6636L28.9961 40.6129L29.0088 40.5875L29.0215 40.5622C29.0341 40.5242 29.0468 40.4861 29.0595 40.4608L29.0722 40.4228L29.0848 40.3974V40.3721L29.0975 40.3467L29.1482 40.2326L29.1609 40.1946L29.1736 40.1566L29.1863 40.1312C29.1989 40.0932 29.2116 40.0552 29.2243 40.0298L29.237 39.9918L29.2496 39.9664L29.2623 39.9538C29.275 39.9031 29.2877 39.865 29.3003 39.8397L29.313 39.8143L29.3257 39.789C29.3384 39.7636 29.351 39.7383 29.351 39.7129L29.2496 39.7383L29.2623 39.7129L29.313 39.5608H29.351ZM29.6299 40.1312L29.6045 40.2073L29.5919 40.22L29.5538 40.334L29.5158 40.4481L29.5031 40.4608L29.4651 40.6002L29.4524 40.6256L29.4144 40.7396L29.4017 40.7777C29.4017 40.8157 29.3891 40.841 29.3764 40.8664C29.3764 40.8917 29.3637 40.9171 29.351 40.9424L29.3384 40.9678C29.3257 40.9932 29.3257 41.0185 29.313 41.0312L29.275 41.1706H29.3003H29.3257H29.351H29.3764H29.4017H29.5158H29.5412H29.6172H29.6426H29.7186H29.7566H29.782H29.8073H29.8327H29.9595L29.9468 41.1199L29.9088 40.9932L29.8707 40.8791C29.858 40.841 29.8454 40.803 29.8327 40.7777L29.82 40.765C29.8073 40.7396 29.8073 40.7143 29.7947 40.6889L29.782 40.6636L29.7693 40.6382L29.7566 40.6002L29.744 40.5622L29.7313 40.5368L29.7186 40.5115L29.7059 40.4735L29.6933 40.4481C29.6806 40.4354 29.6806 40.4228 29.6806 40.4101L29.6679 40.3847C29.6552 40.3467 29.6426 40.3214 29.6299 40.296L29.6172 40.2707L29.6045 40.258L29.5919 40.1946L29.5792 40.1692L29.5412 40.0805L29.6299 40.1312ZM33.4832 39.5608H33.5339H33.5593H33.5846H33.7874H33.8128H33.8508H33.9015H33.9395H33.9776H34.0156H34.0409H34.155H34.2311H34.2564H34.2818H34.3071H34.3198H34.4339H34.4466H34.5226H34.548L34.5606 39.5735H34.586L34.6367 39.5862L34.662 39.5989L34.7508 39.6242C35.1564 39.8143 35.3212 40.1185 35.2578 40.5368C35.1184 41.0312 34.7888 41.2467 34.2818 41.1833H34.2564H34.1804H34.1423H34.117H34.0916H34.0663H33.9395V42.0452H33.8508H33.8255H33.7114H33.686H33.6607H33.6353H33.5212H33.4959H33.4325V42.0199V41.9945V41.9692V41.9438V41.8297V41.779V41.7283V41.703V41.5762V41.5509V41.5128V41.4875V41.4495V41.3607V41.3354V41.2213V41.196V41.1199V41.0946V41.0565V40.9678V40.9424V40.8284V40.803V40.7523V40.7016V40.6509V40.6002V40.5495V40.5242V40.4988V40.296V40.2453V40.2073V40.1566V40.1185V40.0805V40.0552V39.9411V39.865V39.8397V39.8143V39.789V39.7636V39.6496V39.6242V39.5482H33.4832V39.5608ZM33.9395 40.6889H33.9649H33.9902H34.0156H34.0916H34.1677H34.2818H34.3071H34.3325H34.3578H34.4466H34.4719C34.4973 40.6763 34.5226 40.6763 34.548 40.6636C34.7254 40.5622 34.7888 40.4101 34.7254 40.2326C34.6874 40.1439 34.624 40.0805 34.5353 40.0425H34.5099C34.4466 40.0171 34.3832 40.0171 34.3325 40.0171H34.2944H34.2691H34.2311H34.1423H34.117H34.0029H33.9776H33.9395V40.6889ZM38.0083 39.5735H38.0337H38.1478H38.1731H38.1985H38.2238H38.3379H38.3633H38.4393V42.0199H38.3506H38.3252H38.2112H38.1858H38.1605H38.1224H38.0083H37.9957H37.9196V41.9945V41.9692V41.9438V41.9185V41.8044V41.7664V41.7157V41.6903V41.5635V41.5382V41.5128V41.4875V41.4495V41.3607V41.3354V41.2213V41.196V41.1326V41.1072V41.0692V40.9805V40.9551V40.841V40.8157V40.7396V40.6889V40.6382V40.5875V40.5368V40.5115V40.4861V40.2833V40.2326V40.2453V40.1946V40.1566V40.1185V40.0805V40.0552V39.9411V39.865V39.8397V39.8143V39.789V39.7636V39.6496V39.6242V39.5482H38.0083V39.5735ZM41.0758 39.5608H41.1011H41.1265H41.1518H41.2659H41.2913H41.4054H41.4434H41.4941H41.6208H41.6715H41.7222H41.7729H41.8236H41.9504H41.9758H42.0011H42.2039H42.2546H42.2926H42.3433H42.3814H42.4194H42.4574H42.4828H42.5968H42.6729H42.6983H42.7236H42.749H42.7743H42.8884H42.9137H42.9898V40.0425H42.9518H42.9264H42.7997H42.7109H42.6856H42.5715H42.5461H42.5208H42.4954H42.3814H42.356H42.28V42.0199H42.1912H42.1659H42.0518H42.0265H42.0011H41.9758H41.8617H41.8363H41.7603V41.9692V41.9438V41.9058V41.8804V41.8551V41.8297V41.703V41.6776V41.5635V41.5255V41.4748V41.3481V41.2974V41.2467V41.196V41.1453V41.0185V40.9932V41.0058V40.803V40.7523V40.7143V40.6636V40.6256V40.5875V40.5495V40.5242V40.4101V40.334V40.3087V40.2833V40.258V40.2326V40.1185V40.0425H41.7222H41.6969H41.5701H41.4814H41.4561H41.342H41.3166H41.2913H41.2659H41.1518H41.1265H41.0504V39.9157V39.8777V39.865V39.8397V39.8143V39.789V39.7636V39.6496V39.6242V39.5482H41.0758V39.5608ZM46.146 39.5608H46.2347H46.4375H46.5262H46.5516H46.5896H46.615H46.6403H46.6657H46.7924V39.5862C46.8051 39.6242 46.8178 39.6622 46.8304 39.6876L46.8431 39.7383L46.8558 39.7636C46.8558 39.7763 46.8685 39.7763 46.8685 39.789C46.8685 39.8017 46.8811 39.8017 46.8811 39.8143C46.8811 39.827 46.8938 39.827 46.8938 39.8397C46.9065 39.8524 46.9065 39.8777 46.9192 39.8904L46.9572 39.9918V40.0171C46.9825 40.0552 46.9952 40.0932 46.9952 40.1312C47.0206 40.1819 47.0332 40.22 47.0332 40.258C47.0459 40.2707 47.0459 40.2833 47.0459 40.296L47.0586 40.3214C47.0713 40.3467 47.0713 40.3594 47.0839 40.3721V40.3974C47.0839 40.4101 47.0966 40.4101 47.0966 40.4228C47.1093 40.4354 47.1093 40.4608 47.122 40.4735L47.16 40.5749L47.1727 40.6002L47.1854 40.6129L47.198 40.6763L47.2107 40.7016L47.2234 40.7396L47.2361 40.765L47.2487 40.7903L47.2614 40.8284C47.2741 40.8537 47.2741 40.8664 47.2868 40.8791V40.9044C47.2868 40.9171 47.2994 40.9171 47.2994 40.9298C47.3121 40.9424 47.3121 40.9678 47.3248 40.9805L47.3628 41.0819L47.3755 41.1199L47.4008 41.1579L47.4135 41.196V41.2213L47.4262 41.2467L47.4389 41.272L47.4515 41.31C47.4896 41.3861 47.5022 41.4495 47.5149 41.5002C47.5149 41.5128 47.5276 41.5128 47.5276 41.5255C47.5656 41.6016 47.5783 41.6649 47.591 41.7157L47.6036 41.741L47.6163 41.7664L47.629 41.7917L47.6417 41.8171L47.6543 41.8424C47.6543 41.8551 47.667 41.8551 47.667 41.8678C47.667 41.8804 47.6797 41.8804 47.6797 41.8931C47.6797 41.9058 47.6924 41.9058 47.6924 41.9185L47.705 41.9438V41.9692C47.705 41.9818 47.7177 41.9818 47.7177 41.9945C47.7304 42.0072 47.7304 42.0325 47.7431 42.0452C47.7557 42.0832 47.7684 42.1086 47.7684 42.1213L47.7811 42.1593H47.7431H47.5022H47.3882H47.3121H47.2868H47.2614H47.2487H47.2234H47.1093H47.0839H47.0079L46.9952 42.1213V42.0959L46.9825 42.0706V42.0452C46.9699 42.0199 46.9572 41.9945 46.9572 41.9818L46.9445 41.9565V41.9311L46.9318 41.9058L46.9065 41.8551L46.8558 41.6903H46.7417H46.615H46.5643H46.5262H46.4882H46.4629H46.3488H46.2727H46.2474H46.222H46.1967H46.1713H46.0572H46.0319H45.9558L45.9432 41.7283L45.9305 41.7664L45.9178 41.7917C45.9178 41.8171 45.9051 41.8424 45.8925 41.8551L45.8798 41.8931L45.8671 41.9058L45.8418 41.9692L45.8291 41.9945L45.8164 42.0199C45.8037 42.0452 45.8037 42.0579 45.7911 42.0706L45.7657 42.1466H45.7404H45.715H45.6897H45.5629H45.5375H45.4235H45.3981H45.1953L45.208 42.0959L45.2333 42.0325L45.246 42.0072L45.2587 41.9818L45.2714 41.9565L45.284 41.9438L45.3221 41.8424L45.3347 41.8171L45.3474 41.7917L45.3601 41.7664L45.3728 41.741L45.3981 41.6649L45.4108 41.6396L45.4235 41.6142L45.4361 41.5889L45.4488 41.5762C45.4615 41.5255 45.4742 41.4875 45.4868 41.4621L45.4995 41.4114L45.5122 41.3988C45.5249 41.3481 45.5375 41.31 45.5502 41.2847C45.5502 41.2593 45.5629 41.2467 45.5756 41.234L45.5882 41.1833L45.6136 41.1326L45.6263 41.0819L45.639 41.0692C45.6516 41.0185 45.6643 40.9805 45.677 40.9551L45.6897 40.9044L45.7404 40.765L45.753 40.7143L45.7657 40.6889L45.7784 40.6636C45.7911 40.6256 45.8037 40.5875 45.8164 40.5622L45.8291 40.5242L45.8418 40.4988V40.4735L45.8544 40.4481L45.9051 40.334L45.9178 40.296L45.9305 40.258L45.9432 40.2326C45.9558 40.1946 45.9685 40.1566 45.9812 40.1312L45.9939 40.0932L46.0065 40.0678L46.0192 40.0552C46.0319 40.0045 46.0446 39.9664 46.0572 39.9411L46.0699 39.9157L46.0826 39.8904C46.0953 39.865 46.1079 39.8397 46.1079 39.8143L46.1333 39.751L46.146 39.7256L46.1967 39.5735H46.146V39.5608ZM46.4121 40.1312L46.3868 40.2073L46.3741 40.22L46.3361 40.334L46.2981 40.4481L46.2854 40.4608L46.2474 40.6002L46.2347 40.6256L46.1967 40.7396L46.184 40.7777C46.184 40.8157 46.1713 40.841 46.1586 40.8664C46.1586 40.8917 46.146 40.9171 46.1333 40.9424L46.1206 40.9678C46.1079 40.9932 46.1079 41.0185 46.0953 41.0312L46.0572 41.1706H46.0826H46.1079H46.1333H46.1586H46.184H46.2981H46.3234H46.3995H46.4248H46.5009H46.5389H46.5643H46.5896H46.615H46.7417L46.729 41.1199L46.691 40.9932L46.653 40.8791C46.6403 40.841 46.6276 40.803 46.615 40.7777L46.6023 40.765C46.5896 40.7396 46.5896 40.7143 46.5769 40.6889L46.5643 40.6636L46.5516 40.6382L46.5389 40.6002L46.5262 40.5622L46.5136 40.5368L46.5009 40.5115L46.4882 40.4735L46.4755 40.4481C46.4629 40.4354 46.4629 40.4228 46.4629 40.4101L46.4502 40.3847C46.4375 40.3467 46.4248 40.3214 46.4121 40.296L46.3995 40.2707L46.3868 40.258L46.3741 40.1946L46.3614 40.1692L46.3234 40.0805L46.4121 40.1312ZM50.3035 39.5608H50.3289H50.4429H50.4683H50.4936H50.519H50.6331H50.6584H50.7345V41.5255H50.7598H50.7852H50.8105H50.8993H51.0133H51.0387H51.1147H51.2035H51.2288H51.3429H51.3682H51.4443H51.5203H51.5584H51.6471H51.6725H51.7865H51.8119H51.8879V42.0072H51.8372H51.7992H51.7485H51.6217H51.571H51.5203H51.4696H51.4189H51.2922H51.2668H51.2415H51.0387H50.9246H50.8866H50.8359H50.7978H50.7598H50.7218H50.6964H50.5824H50.5063H50.481H50.4556H50.4303H50.4176H50.3035H50.2908H50.2148V41.9818V41.9565V41.9311V41.9058V41.7917V41.741V41.6903V41.6649V41.5382V41.5128V41.4748V41.4495V41.4114V41.3227V41.2974V41.1833V41.1579V41.1326V41.1072V41.0692V40.9805V40.9551V40.841V40.8157V40.7396V40.6889V40.6382V40.5875V40.5368V40.5115V40.4861V40.2833V40.2326V40.2453V40.1946V40.1566V40.1185V40.0805V40.0552V39.9411V39.865V39.8397V39.8143V39.789V39.7636V39.6496V39.6242V39.5482H50.3035V39.5608Z" fill="#5A7A9F"/>
<path d="M33.9525 7.79614L25.4473 13.424V29.7626L29.6935 26.9487V18.7857L33.9525 15.9718V7.79614Z" fill="#2062AF"/>
<path d="M35.6128 15.9718L50.1515 18.7857L35.6128 7.79614V15.9718Z" fill="#2062AF"/>
<path d="M31.3667 26.9486L45.9054 29.7626L31.3667 18.7856V26.9486Z" fill="#5A7A9F"/>
<path d="M35.6128 7.79614L50.1515 18.7857V10.6101L35.6128 7.79614Z" fill="#547AA6"/>
<path d="M31.3667 18.7856L45.9054 21.5996V29.7626L31.3667 18.7856Z" fill="#7C92AB"/>
</g>
<defs>
<clipPath id="clip0">
<rect width="28" height="34.2743" fill="white" transform="translate(23.7993 7.79614)"/>
</clipPath>
</defs>
</svg>
