<svg width="76" height="50" viewBox="0 0 76 50" fill="none" xmlns="http://www.w3.org/2000/svg">
<g clip-path="url(#clip0)">
<path d="M16.1159 23.5128V24.7484H17.7847V25.3132H16.1159V27.0668H15.4238V22.9438H18.2093V23.5086H16.1159V23.5128Z" fill="#0D191F"/>
<path d="M21.9669 22.9438C22.3745 22.9438 22.5274 22.9863 22.6717 23.1094C22.9138 23.3175 23.0624 23.6147 23.0624 25.0075C23.0624 26.396 22.9138 26.6974 22.6717 26.9055C22.5316 27.0286 22.3745 27.0711 21.9669 27.0711H20.7312C20.3236 27.0711 20.1708 27.0286 20.0264 26.9055C19.7844 26.6974 19.6357 26.4002 19.6357 25.0075C19.6357 23.619 19.7844 23.3175 20.0264 23.1094C20.1665 22.9863 20.3236 22.9438 20.7312 22.9438H21.9669ZM20.4977 26.4384C20.5487 26.4809 20.5954 26.5021 20.8077 26.5021H21.8947C22.1027 26.5064 22.1537 26.4766 22.2047 26.4384C22.2726 26.379 22.3575 26.1964 22.3575 25.0075C22.3575 23.8186 22.2726 23.636 22.2047 23.5765C22.1537 23.5341 22.107 23.5128 21.8947 23.5128H20.8077C20.5996 23.5128 20.5487 23.5383 20.4977 23.5765C20.4298 23.636 20.3448 23.8186 20.3448 25.0075C20.3448 26.1964 20.4298 26.379 20.4977 26.4384Z" fill="#0D191F"/>
<path d="M28.2173 25.3556C28.2173 26.3917 28.1239 26.604 27.8946 26.8205C27.695 27.0074 27.402 27.0668 26.833 27.0668H26.2046C25.6441 27.0668 25.3511 27.0031 25.1643 26.8248C24.935 26.6082 24.8501 26.4002 24.8501 25.3514V22.9438H25.5422V25.4915C25.5422 26.2388 25.6059 26.3025 25.6908 26.3874C25.7588 26.4511 25.8777 26.4808 26.3532 26.4808H26.7439C27.2067 26.4808 27.3171 26.4554 27.3935 26.3874C27.487 26.2983 27.5294 26.2516 27.5294 25.4915V22.9438H28.2215V25.3556H28.2173Z" fill="#0D191F"/>
<path d="M33.5382 27.0668H32.8333C32.6549 27.0668 32.587 27.0328 32.5106 26.8715L30.863 23.8398H30.7696V27.0668H30.0986V22.9438H30.863C31.0413 22.9438 31.105 22.9778 31.1772 23.1392L32.7738 26.0308H32.8673V22.9438H33.5382V27.0668Z" fill="#0D191F"/>
<path d="M37.3 22.9438C37.8265 22.9438 38.111 23.0245 38.3488 23.2326C38.6333 23.4789 38.7691 23.9926 38.7691 25.0032C38.7691 26.0181 38.6333 26.5276 38.3488 26.7739C38.1067 26.9819 37.8223 27.0626 37.3 27.0626H35.4189V22.9438H37.3ZM37.8223 23.6402C37.6864 23.5213 37.5632 23.5086 37.2957 23.5086H36.1111V26.4979H37.2957C37.5632 26.4979 37.6991 26.4809 37.8223 26.3662C37.9879 26.2176 38.0643 25.9374 38.0643 25.0075C38.0643 24.0648 37.9921 23.7888 37.8223 23.6402Z" fill="#0D191F"/>
<path d="M43.453 27.0668H40.502V22.9438H43.4573V23.5086H41.1941V24.6465H43.0666V25.2113H41.1941V26.5021H43.4573V27.0668H43.453Z" fill="#0D191F"/>
<path d="M47.4738 25.4491C47.3931 25.3854 47.2699 25.3684 47.0237 25.3684H45.8263V27.0711H45.1299V22.9438H47.461C47.7455 22.9438 47.9493 22.9906 48.081 23.1137C48.2466 23.2708 48.357 23.4958 48.357 24.1158C48.357 24.8419 48.1489 25.0457 47.6521 25.1094V25.1221C48.1107 25.2028 48.289 25.3089 48.3145 25.9119C48.34 26.4894 48.357 26.8418 48.3824 27.0669H47.6903C47.6478 26.7909 47.6224 26.4002 47.6096 25.9289C47.6011 25.6019 47.5587 25.517 47.4738 25.4491ZM47.2572 24.8249C47.4355 24.8249 47.4907 24.7952 47.5247 24.7654C47.5799 24.7145 47.6606 24.5829 47.6606 24.1582C47.6606 23.7336 47.5884 23.6105 47.529 23.5595C47.4992 23.5298 47.4355 23.5128 47.2572 23.5128H45.822V24.8249H47.2572Z" fill="#0D191F"/>
<path d="M53.0651 26.8802C52.9335 27.0033 52.7424 27.067 52.3985 27.067H50.9463C50.6066 27.067 50.4071 27.0245 50.2712 26.8972C50.0928 26.7273 50.0376 26.5277 50.0249 25.7719H50.7128C50.7255 26.2857 50.7425 26.3919 50.7935 26.4386C50.8317 26.4725 50.8784 26.5023 51.0652 26.5023H52.2838C52.4622 26.5023 52.5174 26.4853 52.5683 26.4386C52.6235 26.3876 52.6363 26.2263 52.6363 25.8781C52.6363 25.5766 52.632 25.4832 52.5641 25.4195C52.5131 25.3728 52.4537 25.3558 52.2796 25.3431L50.9208 25.2242C50.6066 25.1945 50.4198 25.135 50.2924 25.0119C50.1183 24.8463 50.0886 24.6509 50.0886 24.1117C50.0886 23.5809 50.1438 23.3219 50.3434 23.1351C50.475 23.0119 50.6703 22.9482 50.9973 22.9482H52.3306C52.6702 22.9482 52.8698 22.9907 53.0057 23.1181C53.184 23.2879 53.2265 23.479 53.252 24.2136H52.5598C52.5471 23.7295 52.5301 23.6234 52.4792 23.5767C52.441 23.5427 52.3942 23.513 52.2074 23.513H51.1119C50.9378 23.513 50.8826 23.53 50.8359 23.5767C50.7807 23.6276 50.768 23.7932 50.768 24.1074C50.768 24.3962 50.7722 24.4981 50.8402 24.5618C50.8911 24.6085 50.9506 24.6127 51.1246 24.634L52.4834 24.7529C52.7806 24.7783 52.9717 24.8335 53.1034 24.9609C53.269 25.118 53.3199 25.3218 53.3199 25.8781C53.3199 26.4428 53.2647 26.6891 53.0651 26.8802Z" fill="#0D191F"/>
<path d="M58.0047 23.5128V24.7484H59.6737V25.3132H58.0047V27.0668H57.3125V22.9438H60.0983V23.5086H58.0047V23.5128Z" fill="#0D191F"/>
<path d="M65.0526 25.3556C65.0526 26.3917 64.9592 26.604 64.7299 26.8205C64.5303 27.0074 64.2373 27.0668 63.6682 27.0668H63.0397C62.4792 27.0668 62.1862 27.0031 61.9993 26.8248C61.77 26.6082 61.6851 26.4002 61.6851 25.3514V22.9438H62.3773V25.4915C62.3773 26.2388 62.4409 26.3025 62.5259 26.3874C62.5938 26.4511 62.7127 26.4808 63.1884 26.4808H63.579C64.0419 26.4808 64.1523 26.4554 64.2288 26.3874C64.3222 26.2983 64.3647 26.2516 64.3647 25.4915V22.9438H65.0569V25.3556H65.0526Z" fill="#0D191F"/>
<path d="M70.3727 27.0668H69.6678C69.4895 27.0668 69.4215 27.0328 69.3451 26.8715L67.6934 23.8398H67.5999V27.0668H66.9248V22.9438H67.6891C67.8674 22.9438 67.9311 22.9778 68.0033 23.1392L69.5999 26.0308H69.6933V22.9438H70.3684V27.0668H70.3727Z" fill="#0D191F"/>
<path d="M74.1306 22.9438C74.6571 22.9438 74.9416 23.0245 75.1793 23.2326C75.4638 23.4789 75.5997 23.9926 75.5997 25.0032C75.5997 26.0181 75.4638 26.5276 75.1793 26.7739C74.9373 26.9819 74.6528 27.0626 74.1306 27.0626H72.2495V22.9438H74.1306ZM74.6571 23.6402C74.5212 23.5213 74.3981 23.5086 74.1306 23.5086H72.9416V26.4979H74.1306C74.3981 26.4979 74.5339 26.4809 74.6571 26.3662C74.8227 26.2176 74.8991 25.9374 74.8991 25.0075C74.8949 24.0648 74.8227 23.7888 74.6571 23.6402Z" fill="#0D191F"/>
<path d="M9.48316 20.6045H0.799805V22.7828H9.48316V20.6045Z" fill="#E8404F"/>
<path d="M9.48316 22.7576H0.799805V24.9359H9.48316V22.7576Z" fill="#B0EFED"/>
<path d="M9.48316 24.9312H0.799805V27.1094H9.48316V24.9312Z" fill="#7CD2D5"/>
<path d="M9.48316 27.0884H0.799805V29.2666H9.48316V27.0884Z" fill="#0B1622"/>
</g>
<defs>
<clipPath id="clip0">
<rect width="74.8" height="8.65788" fill="white" transform="translate(0.799805 20.6045)"/>
</clipPath>
</defs>
</svg>
