<svg width="75" height="50" viewBox="0 0 75 50" fill="none" xmlns="http://www.w3.org/2000/svg">
<g clip-path="url(#clip0)">
<path d="M34.4837 26.2781C34.4837 26.8239 34.3589 27.2133 34.1086 27.4457C33.859 27.6781 33.477 27.7943 32.9633 27.7943C32.6943 27.7943 32.4739 27.757 32.3019 27.683C32.13 27.6091 31.9934 27.5035 31.8915 27.3668C31.7903 27.2302 31.7203 27.0711 31.6828 26.8894C31.6447 26.7077 31.626 26.5162 31.626 26.3148V26.0922H32.5591V26.25C32.5591 26.5232 32.5882 26.7253 32.6472 26.857C32.7061 26.9887 32.8274 27.0549 33.0111 27.0549C33.1949 27.0549 33.3162 26.9894 33.3751 26.857C33.434 26.7253 33.4632 26.5232 33.4632 26.25V22.5867H34.4816V26.2781H34.4837Z" fill="#2A2A28"/>
<path d="M37.0576 27.2625C36.9536 27.454 36.8198 27.5906 36.6548 27.6716C36.4898 27.7533 36.3013 27.7934 36.0891 27.7934C35.7778 27.7934 35.5387 27.711 35.3716 27.5455C35.2045 27.3801 35.1206 27.104 35.1206 26.716V23.8499H36.0967V26.5146C36.0967 26.716 36.13 26.8554 36.1959 26.935C36.2617 27.0139 36.3678 27.0533 36.5141 27.0533C36.858 27.0533 37.0306 26.8399 37.0306 26.4139V23.8499H38.0067V27.7146H37.0736V27.2617H37.0576V27.2625Z" fill="#2A2A28"/>
<path d="M39.5896 23.8507V24.2458H39.6035C39.7262 24.0683 39.8641 23.9415 40.0174 23.8648C40.1706 23.788 40.3529 23.75 40.5657 23.75C40.7917 23.75 40.9817 23.8028 41.1349 23.9077C41.2881 24.0134 41.3907 24.1662 41.4427 24.3676H41.4566C41.5322 24.162 41.6535 24.007 41.8206 23.9042C41.9876 23.8014 42.1873 23.75 42.4182 23.75C42.7433 23.75 42.9825 23.8493 43.1357 24.0479C43.2889 24.2465 43.3659 24.5331 43.3659 24.9063V27.7147H42.3897V25.0141C42.3897 24.8514 42.3599 24.7267 42.3017 24.6408C42.2428 24.5549 42.145 24.5113 42.0084 24.5113C41.8531 24.5113 41.7291 24.5641 41.6368 24.669C41.5446 24.7746 41.4989 24.9422 41.4989 25.1718V27.7147H40.5228V25.0141C40.5228 24.8514 40.4929 24.7267 40.434 24.6408C40.3751 24.5549 40.2773 24.5113 40.1408 24.5113C39.9855 24.5113 39.8614 24.5641 39.7692 24.669C39.677 24.7746 39.6312 24.9422 39.6312 25.1718V27.7147H38.6558V23.85H39.5896V23.8507Z" fill="#2A2A28"/>
<path d="M44.949 23.8507V24.2598H44.9628C45.071 24.0782 45.1923 23.9472 45.3268 23.8683C45.4613 23.7894 45.627 23.75 45.8253 23.75C46.226 23.75 46.5206 23.9092 46.7092 24.2275C46.8978 24.5458 46.9921 25.0641 46.9921 25.7824C46.9921 26.5006 46.8978 27.0154 46.7092 27.3267C46.5206 27.6379 46.226 27.7936 45.8253 27.7936C45.6416 27.7936 45.4849 27.7591 45.3552 27.6894C45.2256 27.6203 45.1091 27.5084 45.0051 27.3556H44.9913V28.7105L44.0151 28.9576V23.8507H44.949ZM45.0869 26.7344C45.1507 26.9478 45.2908 27.0542 45.5078 27.0542C45.7199 27.0542 45.8579 26.9478 45.9216 26.7344C45.9854 26.5211 46.0173 26.2042 46.0173 25.7824C46.0173 25.3612 45.9854 25.0436 45.9216 24.831C45.8579 24.6183 45.7199 24.5113 45.5078 24.5113C45.2908 24.5113 45.1507 24.6176 45.0869 24.831C45.0232 25.0443 44.9913 25.3612 44.9913 25.7824C44.992 26.2042 45.0232 26.5211 45.0869 26.7344Z" fill="#2A2A28"/>
<path d="M49.6059 23.502C49.5185 23.3323 49.3598 23.2471 49.1289 23.2471C49.0013 23.2471 48.8966 23.2816 48.8141 23.3513C48.7316 23.421 48.6665 23.533 48.6193 23.6886C48.5722 23.8443 48.5389 24.0478 48.5202 24.2992C48.5015 24.5506 48.4918 24.8583 48.4918 25.2224C48.4918 25.6104 48.5049 25.9238 48.5306 26.1632C48.5562 26.4027 48.5965 26.5886 48.6505 26.7203C48.7046 26.8519 48.7732 26.9407 48.8557 26.9857C48.9382 27.0315 49.0339 27.0541 49.1421 27.0541C49.2315 27.0541 49.3154 27.0386 49.393 27.0076C49.4707 26.9766 49.5379 26.9139 49.5948 26.821C49.6516 26.728 49.696 26.5956 49.7293 26.4259C49.7619 26.2562 49.7785 26.0322 49.7785 25.7541H50.7969C50.7969 26.0315 50.7754 26.2949 50.7331 26.5442C50.6908 26.7935 50.6118 27.0111 50.496 27.1977C50.3803 27.3843 50.218 27.5308 50.008 27.6357C49.7979 27.7414 49.5261 27.7935 49.1913 27.7935C48.8093 27.7935 48.5056 27.7315 48.2789 27.6069C48.0529 27.4822 47.8796 27.3026 47.759 27.0681C47.639 26.8336 47.5607 26.5534 47.5253 26.228C47.49 25.9027 47.4727 25.5435 47.4727 25.1506C47.4727 24.7626 47.49 24.4048 47.5253 24.0767C47.5607 23.7485 47.6383 23.4675 47.759 23.2323C47.8789 22.9978 48.0522 22.8147 48.2789 22.683C48.5049 22.5513 48.8093 22.4858 49.1913 22.4858C49.5546 22.4858 49.8409 22.5457 50.0503 22.6654C50.2603 22.7851 50.417 22.9372 50.5203 23.1217C50.6243 23.3062 50.6888 23.5048 50.7144 23.7182C50.7401 23.9316 50.7532 24.1309 50.7532 24.3182H49.7348C49.7369 23.9436 49.6932 23.6717 49.6059 23.502Z" fill="#93948F"/>
<path d="M51.3425 24.9417C51.3425 24.7164 51.3778 24.5283 51.4485 24.3776C51.5193 24.2269 51.6149 24.1044 51.7349 24.0115C51.8548 23.9185 51.9962 23.8509 52.1591 23.81C52.3221 23.7692 52.4947 23.7488 52.6791 23.7488C52.971 23.7488 53.2074 23.7777 53.3862 23.8347C53.5651 23.8924 53.7045 23.9734 53.8036 24.0791C53.9027 24.1847 53.97 24.31 54.0053 24.4565C54.0407 24.603 54.058 24.7614 54.058 24.934V26.967C54.058 27.1494 54.0664 27.2902 54.083 27.391C54.0996 27.4917 54.1315 27.5994 54.1787 27.7142H53.2455C53.2122 27.6522 53.188 27.586 53.1713 27.517C53.1547 27.4473 53.1394 27.3797 53.1256 27.3121H53.1117C52.9987 27.5135 52.8677 27.6438 52.7193 27.7036C52.571 27.7635 52.3789 27.7938 52.1432 27.7938C51.9733 27.7938 51.8298 27.7635 51.712 27.7036C51.5941 27.6438 51.4998 27.5614 51.4291 27.4557C51.3584 27.3501 51.3064 27.2318 51.2738 27.1001C51.2406 26.9684 51.2246 26.8381 51.2246 26.7086C51.2246 26.5269 51.2433 26.3698 51.2815 26.2382C51.3189 26.1065 51.3771 25.9938 51.4548 25.9008C51.5324 25.8079 51.6316 25.7297 51.7515 25.667C51.8714 25.6051 52.017 25.5494 52.1862 25.5016L52.738 25.3509C52.8843 25.3128 52.9855 25.26 53.0424 25.1931C53.0992 25.1262 53.127 25.0276 53.127 24.8988C53.127 24.7502 53.093 24.634 53.0244 24.5502C52.9557 24.4664 52.8393 24.4241 52.6743 24.4241C52.5231 24.4241 52.4101 24.4699 52.3345 24.5607C52.259 24.6516 52.2215 24.7741 52.2215 24.9269V25.0347H51.3445V24.9417H51.3425ZM52.912 25.9079C52.8365 25.9389 52.7678 25.9621 52.7068 25.9762C52.5086 26.0192 52.3671 26.091 52.2826 26.1917C52.198 26.2924 52.155 26.429 52.155 26.6008C52.155 26.7494 52.1834 26.8762 52.2396 26.9818C52.2964 27.0874 52.3907 27.1395 52.5224 27.1395C52.5883 27.1395 52.6569 27.129 52.7276 27.1072C52.7983 27.0853 52.8628 27.0508 52.9218 27.0029C52.9807 26.955 53.0292 26.8931 53.0666 26.8163C53.1041 26.7396 53.1235 26.6487 53.1235 26.5431V25.7818C53.0583 25.8346 52.9876 25.8769 52.912 25.9079Z" fill="#93948F"/>
<path d="M55.6838 23.8507V24.2598H55.6977C55.8059 24.0782 55.9272 23.9472 56.0617 23.8683C56.1962 23.7894 56.3619 23.75 56.5601 23.75C56.9609 23.75 57.2555 23.9092 57.4441 24.2275C57.6326 24.5458 57.7269 25.0641 57.7269 25.7824C57.7269 26.5006 57.6326 27.0154 57.4441 27.3267C57.2555 27.6379 56.9609 27.7936 56.5601 27.7936C56.3764 27.7936 56.2197 27.7591 56.0901 27.6894C55.9605 27.6203 55.844 27.5084 55.74 27.3556H55.7261V28.6865L54.75 28.9576V23.8507H55.6838ZM55.8218 26.7344C55.8856 26.9478 56.0256 27.0542 56.2426 27.0542C56.4548 27.0542 56.5927 26.9478 56.6565 26.7344C56.7203 26.5211 56.7522 26.2042 56.7522 25.7824C56.7522 25.3612 56.7203 25.0436 56.6565 24.831C56.5927 24.6183 56.4548 24.5113 56.2426 24.5113C56.0256 24.5113 55.8856 24.6176 55.8218 24.831C55.758 25.0443 55.7261 25.3612 55.7261 25.7824C55.7261 26.2042 55.758 26.5211 55.8218 26.7344Z" fill="#93948F"/>
<path d="M59.2969 22.5288V23.3767H58.3208V22.5288H59.2969ZM59.2969 23.8506V27.7153H58.3208V23.8506H59.2969Z" fill="#93948F"/>
<path d="M61.1713 22.7444V23.8507H61.737V24.526H61.1713V26.6161C61.1713 26.7696 61.1935 26.8781 61.2386 26.9429C61.2836 27.0077 61.3765 27.0401 61.518 27.0401C61.5554 27.0401 61.5935 27.0387 61.631 27.0365C61.6684 27.0344 61.7038 27.0309 61.737 27.026V27.7154C61.6282 27.7154 61.5235 27.7189 61.4223 27.726C61.3211 27.733 61.2136 27.7365 61.1006 27.7365C60.912 27.7365 60.7574 27.7231 60.6375 27.6971C60.5176 27.671 60.4254 27.6182 60.3616 27.5394C60.2978 27.4605 60.2541 27.3563 60.2306 27.2267C60.207 27.0971 60.1952 26.9344 60.1952 26.738V24.5253H59.7002V23.85H60.1952V22.9902L61.1713 22.7444Z" fill="#93948F"/>
<path d="M62.069 24.9417C62.069 24.7164 62.1044 24.5283 62.1751 24.3776C62.2458 24.2269 62.3415 24.1044 62.4614 24.0115C62.5814 23.9185 62.7228 23.8509 62.8857 23.81C63.0486 23.7692 63.2213 23.7488 63.4057 23.7488C63.6975 23.7488 63.9339 23.7777 64.1128 23.8347C64.2917 23.8924 64.431 23.9734 64.5302 24.0791C64.6293 24.1847 64.6965 24.31 64.7319 24.4565C64.7673 24.603 64.7846 24.7614 64.7846 24.934V26.967C64.7846 27.1494 64.7929 27.2902 64.8095 27.391C64.8262 27.4917 64.8581 27.5994 64.9052 27.7142H63.9721C63.9388 27.6522 63.9145 27.586 63.8979 27.517C63.8813 27.4473 63.866 27.3797 63.8521 27.3121H63.8383C63.7253 27.5135 63.5942 27.6438 63.4459 27.7036C63.2975 27.7635 63.1055 27.7938 62.8698 27.7938C62.6999 27.7938 62.5564 27.7635 62.4385 27.7036C62.3207 27.6438 62.2264 27.5614 62.1557 27.4557C62.085 27.3501 62.033 27.2318 62.0004 27.1001C61.9671 26.9684 61.9512 26.8381 61.9512 26.7086C61.9512 26.5269 61.9699 26.3698 62.008 26.2382C62.0455 26.1065 62.1037 25.9938 62.1813 25.9008C62.259 25.8079 62.3581 25.7297 62.4781 25.667C62.598 25.6051 62.7436 25.5494 62.9127 25.5016L63.4646 25.3509C63.6109 25.3128 63.7121 25.26 63.7689 25.1931C63.8258 25.1262 63.8535 25.0276 63.8535 24.8988C63.8535 24.7502 63.8196 24.634 63.7509 24.5502C63.6823 24.4664 63.5658 24.4241 63.4008 24.4241C63.2497 24.4241 63.1367 24.4699 63.0611 24.5607C62.9855 24.6516 62.9481 24.7741 62.9481 24.9269V25.0347H62.0711V24.9417H62.069ZM63.6393 25.9079C63.5637 25.9389 63.4951 25.9621 63.4341 25.9762C63.2358 26.0192 63.0944 26.091 63.0098 26.1917C62.9252 26.2924 62.8822 26.429 62.8822 26.6008C62.8822 26.7494 62.9107 26.8762 62.9668 26.9818C63.0237 27.0874 63.118 27.1395 63.2497 27.1395C63.3155 27.1395 63.3842 27.129 63.4549 27.1072C63.5256 27.0853 63.5901 27.0508 63.649 27.0029C63.7079 26.955 63.7565 26.8931 63.7939 26.8163C63.8313 26.7396 63.8507 26.6487 63.8507 26.5431V25.7818C63.7849 25.8346 63.7142 25.8769 63.6393 25.9079Z" fill="#93948F"/>
<path d="M66.4893 22.5867V27.7154H65.5132V22.8331L66.4893 22.5867Z" fill="#93948F"/>
<path d="M18.4357 35.2304C15.7457 35.2304 13.1778 34.1621 11.2699 32.2248C9.36204 30.2875 8.31104 27.6784 8.31104 24.9461C8.31104 22.2138 9.36274 19.6047 11.2699 17.6674C13.1771 15.7301 15.7457 14.6365 18.4357 14.6365C21.1256 14.6365 23.6935 15.7048 25.6014 17.642C27.5093 19.5793 28.5603 22.1884 28.5603 24.9208C28.5603 27.6531 27.5086 30.2615 25.6014 32.1995C23.6942 34.1621 21.1505 35.2304 18.4357 35.2304ZM18.4357 16.0526C16.1125 16.0526 13.9113 16.9716 12.2724 18.6364C10.6093 20.3258 9.72879 22.5363 9.72879 24.8968C9.72879 27.2573 10.6335 29.4925 12.2724 31.1572C13.9356 32.8466 16.1118 33.741 18.4357 33.741C20.7595 33.741 22.96 32.822 24.5989 31.1572C26.2621 29.4678 27.1425 27.2573 27.1425 24.8968C27.1425 22.5363 26.2378 20.3011 24.5989 18.6364C22.9607 16.9716 20.7838 16.0526 18.4357 16.0526Z" fill="#386BA2"/>
<path d="M24.4524 27.4798L24.3547 27.6537C23.6947 28.8959 22.7893 29.8396 21.5913 30.5107C20.9556 30.8832 20.3441 31.0818 19.9038 31.1811V18.8095C20.3441 18.9335 20.9313 19.1328 21.5913 19.4799C22.765 20.1503 23.6947 21.0947 24.3547 22.3369L24.4524 22.5109L25.5284 22.039L25.4064 21.8158C24.4282 20.0025 23.1075 18.9588 22.1785 18.437C21.1511 17.8659 20.1728 17.6173 19.7326 17.5427C19.1704 17.4434 18.7544 17.4434 18.7544 17.4434V32.5226L19.3901 32.4726C19.4394 32.4726 20.7108 32.3487 22.1785 31.5283C23.1324 31.0064 24.4282 29.9881 25.4064 28.1495L25.5284 27.9509L24.4524 27.4798Z" fill="#386BA2"/>
<path d="M16.945 17.6173V31.2304C16.4805 31.1065 15.722 30.8825 14.9643 30.4107C13.8883 29.765 13.1056 28.8706 12.5433 27.7277C12.5191 27.703 12.5191 27.703 12.5191 27.653L12.4213 27.4791L11.3696 27.9509C11.4431 28.0749 11.4916 28.1995 11.5409 28.3234C12.3236 29.8636 13.4238 30.8325 14.3535 31.429C15.9189 32.398 17.3124 32.5219 17.4594 32.5466L18.0709 32.5966V17.7666V17.7166V17.4934C18.1187 17.4934 17.458 17.4934 16.945 17.6173Z" fill="#386BA2"/>
</g>
<defs>
<clipPath id="clip0">
<rect width="58.1778" height="20.5939" fill="white" transform="translate(8.31104 14.6365)"/>
</clipPath>
</defs>
</svg>
