<svg width="76" height="50" viewBox="0 0 76 50" fill="none" xmlns="http://www.w3.org/2000/svg">
<path d="M6.91228 27.9333V20.952H8.11905V23.7944H8.2886L10.7221 20.952H12.268L9.22609 24.3928L12.3677 27.9333H10.7819L8.2886 25.0311H8.11905V27.9333H6.91228ZM14.6822 28.073C14.3365 28.073 14.024 28.0131 13.7447 27.8935C13.4655 27.7671 13.2427 27.5876 13.0765 27.3549C12.9169 27.1222 12.8371 26.8363 12.8371 26.4972C12.8371 26.1647 12.9169 25.8855 13.0765 25.6594C13.2427 25.4334 13.4688 25.2638 13.7547 25.1508C14.0406 25.0311 14.3664 24.9713 14.7321 24.9713H16.1583V24.6721C16.1583 24.4128 16.0785 24.2033 15.9189 24.0437C15.7593 23.8775 15.51 23.7944 15.1709 23.7944C14.8385 23.7944 14.5858 23.8742 14.4129 24.0338C14.2467 24.1867 14.137 24.3862 14.0838 24.6322L13.0266 24.2831C13.1064 24.0238 13.2328 23.7878 13.4056 23.575C13.5851 23.3622 13.8212 23.1927 14.1137 23.0664C14.4063 22.9334 14.7653 22.8669 15.1908 22.8669C15.8358 22.8669 16.3411 23.0298 16.7068 23.3556C17.0791 23.6747 17.2653 24.1402 17.2653 24.7519V26.6867C17.2653 26.8861 17.3584 26.9859 17.5446 26.9859H17.9634V27.9333H17.1556C16.9162 27.9333 16.7201 27.8735 16.5672 27.7538C16.4142 27.6341 16.3378 27.4713 16.3378 27.2651V27.2452H16.1682C16.1283 27.3383 16.0585 27.4513 15.9588 27.5843C15.8591 27.7173 15.7061 27.8336 15.5 27.9333C15.3006 28.0264 15.028 28.073 14.6822 28.073ZM14.8717 27.1355C15.2507 27.1355 15.5599 27.0291 15.7992 26.8163C16.0386 26.5969 16.1583 26.3044 16.1583 25.9387V25.8389H14.8019C14.5559 25.8389 14.3564 25.8921 14.2035 25.9985C14.0506 26.1049 13.9741 26.2612 13.9741 26.4673C13.9741 26.6667 14.0539 26.8296 14.2135 26.956C14.373 27.0756 14.5924 27.1355 14.8717 27.1355ZM18.9124 27.9333V23.0065H20.0593V27.9333H18.9124ZM19.4809 22.3782C19.2747 22.3782 19.0952 22.3117 18.9423 22.1787C18.796 22.0391 18.7229 21.8563 18.7229 21.6302C18.7229 21.4041 18.796 21.2246 18.9423 21.0916C19.0952 20.952 19.2747 20.8822 19.4809 20.8822C19.7003 20.8822 19.8798 20.952 20.0194 21.0916C20.1657 21.2246 20.2388 21.4041 20.2388 21.6302C20.2388 21.8563 20.1657 22.0391 20.0194 22.1787C19.8798 22.3117 19.7003 22.3782 19.4809 22.3782ZM21.5129 27.9333V23.0065H22.6398V23.6947H22.8094C22.8958 23.5085 23.0521 23.3323 23.2781 23.1661C23.5042 22.9999 23.8466 22.9168 24.3054 22.9168C24.6844 22.9168 25.0201 23.0032 25.3127 23.1761C25.6052 23.3489 25.8313 23.5883 25.9909 23.8941C26.1571 24.2 26.2402 24.5624 26.2402 24.9812V27.9333H25.0933V25.071C25.0933 24.6721 24.9935 24.3762 24.7941 24.1834C24.6013 23.9839 24.3253 23.8842 23.9663 23.8842C23.5607 23.8842 23.2416 24.0205 23.0089 24.2931C22.7761 24.559 22.6598 24.9413 22.6598 25.44V27.9333H21.5129ZM30.6909 27.9333L29.7235 20.952H30.9103L31.6683 27.1056H31.8378L32.8152 20.952H34.8996L35.877 27.1056H36.0466L36.7946 20.952H37.9914L37.014 27.9333H34.9296L33.9422 21.6601H33.7726L32.7753 27.9333H30.6909ZM40.4824 28.073C40.1366 28.073 39.8241 28.0131 39.5449 27.8935C39.2656 27.7671 39.0429 27.5876 38.8767 27.3549C38.7171 27.1222 38.6373 26.8363 38.6373 26.4972C38.6373 26.1647 38.7171 25.8855 38.8767 25.6594C39.0429 25.4334 39.2689 25.2638 39.5548 25.1508C39.8407 25.0311 40.1665 24.9713 40.5322 24.9713H41.9584V24.6721C41.9584 24.4128 41.8786 24.2033 41.7191 24.0437C41.5595 23.8775 41.3102 23.7944 40.9711 23.7944C40.6386 23.7944 40.386 23.8742 40.2131 24.0338C40.0469 24.1867 39.9372 24.3862 39.884 24.6322L38.8268 24.2831C38.9066 24.0238 39.0329 23.7878 39.2058 23.575C39.3853 23.3622 39.6213 23.1927 39.9139 23.0664C40.2064 22.9334 40.5655 22.8669 40.991 22.8669C41.6359 22.8669 42.1413 23.0298 42.507 23.3556C42.8793 23.6747 43.0655 24.1402 43.0655 24.7519V26.6867C43.0655 26.8861 43.1585 26.9859 43.3447 26.9859H43.7636V27.9333H42.9558C42.7164 27.9333 42.5203 27.8735 42.3673 27.7538C42.2144 27.6341 42.1379 27.4713 42.1379 27.2651V27.2452H41.9684C41.9285 27.3383 41.8587 27.4513 41.759 27.5843C41.6592 27.7173 41.5063 27.8336 41.3002 27.9333C41.1007 28.0264 40.8281 28.073 40.4824 28.073ZM40.6719 27.1355C41.0508 27.1355 41.36 27.0291 41.5994 26.8163C41.8387 26.5969 41.9584 26.3044 41.9584 25.9387V25.8389H40.602C40.356 25.8389 40.1566 25.8921 40.0036 25.9985C39.8507 26.1049 39.7743 26.2612 39.7743 26.4673C39.7743 26.6667 39.854 26.8296 40.0136 26.956C40.1732 27.0756 40.3926 27.1355 40.6719 27.1355ZM44.7125 27.9333V23.0065H45.8395V23.575H46.0091C46.0822 23.3689 46.2052 23.2193 46.3781 23.1262C46.551 23.0331 46.7571 22.9866 46.9964 22.9866H47.5948V24.0039H46.9765C46.644 24.0039 46.3748 24.0936 46.1686 24.2731C45.9625 24.446 45.8595 24.7153 45.8595 25.081V27.9333H44.7125ZM49.0771 27.9333L48.3092 23.0065H49.4461L49.9747 27.1654H50.1443L50.8923 23.0065H52.7274L53.4754 27.1654H53.6449L54.1735 23.0065H55.3105L54.5425 27.9333H52.6376L51.8996 23.7745H51.73L50.982 27.9333H49.0771ZM56.4682 27.9333V23.0065H57.6151V27.9333H56.4682ZM57.0367 22.3782C56.8306 22.3782 56.6511 22.3117 56.4981 22.1787C56.3519 22.0391 56.2787 21.8563 56.2787 21.6302C56.2787 21.4041 56.3519 21.2246 56.4981 21.0916C56.6511 20.952 56.8306 20.8822 57.0367 20.8822C57.2561 20.8822 57.4356 20.952 57.5753 21.0916C57.7215 21.2246 57.7947 21.4041 57.7947 21.6302C57.7947 21.8563 57.7215 22.0391 57.5753 22.1787C57.4356 22.3117 57.2561 22.3782 57.0367 22.3782ZM61.3725 28.073C60.8938 28.073 60.4616 27.9732 60.076 27.7738C59.6904 27.5743 59.3845 27.2851 59.1584 26.9061C58.939 26.5271 58.8293 26.0717 58.8293 25.5397V25.4001C58.8293 24.8682 58.939 24.4128 59.1584 24.0338C59.3845 23.6548 59.6904 23.3656 60.076 23.1661C60.4616 22.9666 60.8938 22.8669 61.3725 22.8669C61.8446 22.8669 62.2469 22.95 62.5793 23.1162C62.9184 23.2825 63.191 23.5118 63.3971 23.8044C63.6032 24.0903 63.7362 24.4128 63.796 24.7718L62.689 25.0012C62.6624 24.7951 62.5992 24.6089 62.4995 24.4427C62.3998 24.2698 62.2568 24.1335 62.0707 24.0338C61.8911 23.934 61.6684 23.8842 61.4024 23.8842C61.1298 23.8842 60.8838 23.944 60.6644 24.0637C60.4517 24.1767 60.2821 24.3496 60.1558 24.5823C60.0361 24.815 59.9763 25.0943 59.9763 25.4201V25.5198C59.9763 25.8456 60.0361 26.1249 60.1558 26.3576C60.2821 26.5836 60.4517 26.7565 60.6644 26.8762C60.8838 26.9959 61.1298 27.0557 61.4024 27.0557C61.808 27.0557 62.1139 26.9526 62.32 26.7465C62.5328 26.5338 62.6657 26.2612 62.7189 25.9287L63.826 26.188C63.7462 26.5338 63.6032 26.8496 63.3971 27.1355C63.191 27.4214 62.9184 27.6508 62.5793 27.8236C62.2469 27.9899 61.8446 28.073 61.3725 28.073ZM64.9417 27.9333V20.952H66.0886V24.8715H66.2581L68.0334 23.0065H69.5394L67.1557 25.3901L69.6191 27.9333H68.1331L66.2581 25.9287H66.0886V27.9333H64.9417Z" fill="#C5C5C5"/>
<path d="M6.91228 27.9333V20.952H8.11905V23.7944H8.2886L10.7221 20.952H12.268L9.22609 24.3928L12.3677 27.9333H10.7819L8.2886 25.0311H8.11905V27.9333H6.91228ZM14.6822 28.073C14.3365 28.073 14.024 28.0131 13.7447 27.8935C13.4655 27.7671 13.2427 27.5876 13.0765 27.3549C12.9169 27.1222 12.8371 26.8363 12.8371 26.4972C12.8371 26.1647 12.9169 25.8855 13.0765 25.6594C13.2427 25.4334 13.4688 25.2638 13.7547 25.1508C14.0406 25.0311 14.3664 24.9713 14.7321 24.9713H16.1583V24.6721C16.1583 24.4128 16.0785 24.2033 15.9189 24.0437C15.7593 23.8775 15.51 23.7944 15.1709 23.7944C14.8385 23.7944 14.5858 23.8742 14.4129 24.0338C14.2467 24.1867 14.137 24.3862 14.0838 24.6322L13.0266 24.2831C13.1064 24.0238 13.2328 23.7878 13.4056 23.575C13.5851 23.3622 13.8212 23.1927 14.1137 23.0664C14.4063 22.9334 14.7653 22.8669 15.1908 22.8669C15.8358 22.8669 16.3411 23.0298 16.7068 23.3556C17.0791 23.6747 17.2653 24.1402 17.2653 24.7519V26.6867C17.2653 26.8861 17.3584 26.9859 17.5446 26.9859H17.9634V27.9333H17.1556C16.9162 27.9333 16.7201 27.8735 16.5672 27.7538C16.4142 27.6341 16.3378 27.4713 16.3378 27.2651V27.2452H16.1682C16.1283 27.3383 16.0585 27.4513 15.9588 27.5843C15.8591 27.7173 15.7061 27.8336 15.5 27.9333C15.3006 28.0264 15.028 28.073 14.6822 28.073ZM14.8717 27.1355C15.2507 27.1355 15.5599 27.0291 15.7992 26.8163C16.0386 26.5969 16.1583 26.3044 16.1583 25.9387V25.8389H14.8019C14.5559 25.8389 14.3564 25.8921 14.2035 25.9985C14.0506 26.1049 13.9741 26.2612 13.9741 26.4673C13.9741 26.6667 14.0539 26.8296 14.2135 26.956C14.373 27.0756 14.5924 27.1355 14.8717 27.1355ZM18.9124 27.9333V23.0065H20.0593V27.9333H18.9124ZM19.4809 22.3782C19.2747 22.3782 19.0952 22.3117 18.9423 22.1787C18.796 22.0391 18.7229 21.8563 18.7229 21.6302C18.7229 21.4041 18.796 21.2246 18.9423 21.0916C19.0952 20.952 19.2747 20.8822 19.4809 20.8822C19.7003 20.8822 19.8798 20.952 20.0194 21.0916C20.1657 21.2246 20.2388 21.4041 20.2388 21.6302C20.2388 21.8563 20.1657 22.0391 20.0194 22.1787C19.8798 22.3117 19.7003 22.3782 19.4809 22.3782ZM21.5129 27.9333V23.0065H22.6398V23.6947H22.8094C22.8958 23.5085 23.0521 23.3323 23.2781 23.1661C23.5042 22.9999 23.8466 22.9168 24.3054 22.9168C24.6844 22.9168 25.0201 23.0032 25.3127 23.1761C25.6052 23.3489 25.8313 23.5883 25.9909 23.8941C26.1571 24.2 26.2402 24.5624 26.2402 24.9812V27.9333H25.0933V25.071C25.0933 24.6721 24.9935 24.3762 24.7941 24.1834C24.6013 23.9839 24.3253 23.8842 23.9663 23.8842C23.5607 23.8842 23.2416 24.0205 23.0089 24.2931C22.7761 24.559 22.6598 24.9413 22.6598 25.44V27.9333H21.5129ZM30.6909 27.9333L29.7235 20.952H30.9103L31.6683 27.1056H31.8378L32.8152 20.952H34.8996L35.877 27.1056H36.0466L36.7946 20.952H37.9914L37.014 27.9333H34.9296L33.9422 21.6601H33.7726L32.7753 27.9333H30.6909ZM40.4824 28.073C40.1366 28.073 39.8241 28.0131 39.5449 27.8935C39.2656 27.7671 39.0429 27.5876 38.8767 27.3549C38.7171 27.1222 38.6373 26.8363 38.6373 26.4972C38.6373 26.1647 38.7171 25.8855 38.8767 25.6594C39.0429 25.4334 39.2689 25.2638 39.5548 25.1508C39.8407 25.0311 40.1665 24.9713 40.5322 24.9713H41.9584V24.6721C41.9584 24.4128 41.8786 24.2033 41.7191 24.0437C41.5595 23.8775 41.3102 23.7944 40.9711 23.7944C40.6386 23.7944 40.386 23.8742 40.2131 24.0338C40.0469 24.1867 39.9372 24.3862 39.884 24.6322L38.8268 24.2831C38.9066 24.0238 39.0329 23.7878 39.2058 23.575C39.3853 23.3622 39.6213 23.1927 39.9139 23.0664C40.2064 22.9334 40.5655 22.8669 40.991 22.8669C41.6359 22.8669 42.1413 23.0298 42.507 23.3556C42.8793 23.6747 43.0655 24.1402 43.0655 24.7519V26.6867C43.0655 26.8861 43.1585 26.9859 43.3447 26.9859H43.7636V27.9333H42.9558C42.7164 27.9333 42.5203 27.8735 42.3673 27.7538C42.2144 27.6341 42.1379 27.4713 42.1379 27.2651V27.2452H41.9684C41.9285 27.3383 41.8587 27.4513 41.759 27.5843C41.6592 27.7173 41.5063 27.8336 41.3002 27.9333C41.1007 28.0264 40.8281 28.073 40.4824 28.073ZM40.6719 27.1355C41.0508 27.1355 41.36 27.0291 41.5994 26.8163C41.8387 26.5969 41.9584 26.3044 41.9584 25.9387V25.8389H40.602C40.356 25.8389 40.1566 25.8921 40.0036 25.9985C39.8507 26.1049 39.7743 26.2612 39.7743 26.4673C39.7743 26.6667 39.854 26.8296 40.0136 26.956C40.1732 27.0756 40.3926 27.1355 40.6719 27.1355ZM44.7125 27.9333V23.0065H45.8395V23.575H46.0091C46.0822 23.3689 46.2052 23.2193 46.3781 23.1262C46.551 23.0331 46.7571 22.9866 46.9964 22.9866H47.5948V24.0039H46.9765C46.644 24.0039 46.3748 24.0936 46.1686 24.2731C45.9625 24.446 45.8595 24.7153 45.8595 25.081V27.9333H44.7125ZM49.0771 27.9333L48.3092 23.0065H49.4461L49.9747 27.1654H50.1443L50.8923 23.0065H52.7274L53.4754 27.1654H53.6449L54.1735 23.0065H55.3105L54.5425 27.9333H52.6376L51.8996 23.7745H51.73L50.982 27.9333H49.0771ZM56.4682 27.9333V23.0065H57.6151V27.9333H56.4682ZM57.0367 22.3782C56.8306 22.3782 56.6511 22.3117 56.4981 22.1787C56.3519 22.0391 56.2787 21.8563 56.2787 21.6302C56.2787 21.4041 56.3519 21.2246 56.4981 21.0916C56.6511 20.952 56.8306 20.8822 57.0367 20.8822C57.2561 20.8822 57.4356 20.952 57.5753 21.0916C57.7215 21.2246 57.7947 21.4041 57.7947 21.6302C57.7947 21.8563 57.7215 22.0391 57.5753 22.1787C57.4356 22.3117 57.2561 22.3782 57.0367 22.3782ZM61.3725 28.073C60.8938 28.073 60.4616 27.9732 60.076 27.7738C59.6904 27.5743 59.3845 27.2851 59.1584 26.9061C58.939 26.5271 58.8293 26.0717 58.8293 25.5397V25.4001C58.8293 24.8682 58.939 24.4128 59.1584 24.0338C59.3845 23.6548 59.6904 23.3656 60.076 23.1661C60.4616 22.9666 60.8938 22.8669 61.3725 22.8669C61.8446 22.8669 62.2469 22.95 62.5793 23.1162C62.9184 23.2825 63.191 23.5118 63.3971 23.8044C63.6032 24.0903 63.7362 24.4128 63.796 24.7718L62.689 25.0012C62.6624 24.7951 62.5992 24.6089 62.4995 24.4427C62.3998 24.2698 62.2568 24.1335 62.0707 24.0338C61.8911 23.934 61.6684 23.8842 61.4024 23.8842C61.1298 23.8842 60.8838 23.944 60.6644 24.0637C60.4517 24.1767 60.2821 24.3496 60.1558 24.5823C60.0361 24.815 59.9763 25.0943 59.9763 25.4201V25.5198C59.9763 25.8456 60.0361 26.1249 60.1558 26.3576C60.2821 26.5836 60.4517 26.7565 60.6644 26.8762C60.8838 26.9959 61.1298 27.0557 61.4024 27.0557C61.808 27.0557 62.1139 26.9526 62.32 26.7465C62.5328 26.5338 62.6657 26.2612 62.7189 25.9287L63.826 26.188C63.7462 26.5338 63.6032 26.8496 63.3971 27.1355C63.191 27.4214 62.9184 27.6508 62.5793 27.8236C62.2469 27.9899 61.8446 28.073 61.3725 28.073ZM64.9417 27.9333V20.952H66.0886V24.8715H66.2581L68.0334 23.0065H69.5394L67.1557 25.3901L69.6191 27.9333H68.1331L66.2581 25.9287H66.0886V27.9333H64.9417Z" fill="url(#paint0_linear)"/>
<defs>
<linearGradient id="paint0_linear" x1="3.49951" y1="25.1792" x2="72.5036" y2="25.36" gradientUnits="userSpaceOnUse">
<stop stop-color="#2D82B7"/>
<stop offset="1" stop-color="#5CC7F2"/>
</linearGradient>
</defs>
</svg>
