<svg width="75" height="50" viewBox="0 0 75 50" fill="none" xmlns="http://www.w3.org/2000/svg">
<path d="M16.8895 22.408C16.7055 22.2838 16.5224 22.269 16.3509 22.2282C15.605 22.0499 14.8663 21.8502 14.1742 21.5198C13.6047 21.2481 13.0849 20.9126 12.7343 20.3785C12.6258 20.2135 12.5451 20.038 12.4909 19.8496C12.4238 19.616 12.4868 19.5051 12.7363 19.4658C13.1002 19.4086 13.4565 19.4833 13.8067 19.5643C15.127 19.8702 16.3886 20.3497 17.6603 20.7997C18.0672 20.9437 18.4789 21.0753 18.8842 21.2228C19.0798 21.294 19.175 21.2072 19.2389 21.0504C19.2939 20.9149 19.2879 20.7713 19.2919 20.6284C19.2943 20.5483 19.2332 20.5389 19.1846 20.5085C18.7982 20.2688 18.803 19.8943 19.2079 19.6881C19.5505 19.5133 19.9072 19.5164 20.2398 19.7172C20.5824 19.9243 20.5848 20.2805 20.2398 20.4817C20.1089 20.558 20.0864 20.6421 20.1032 20.7639C20.1269 20.9359 20.1253 21.1185 20.2981 21.2321C20.3571 21.2711 20.4141 21.2349 20.4708 21.2201C21.0451 21.0702 21.5906 20.8417 22.1493 20.6491C23.2796 20.2591 24.3975 19.8305 25.5707 19.5674C25.9154 19.4903 26.2624 19.4078 26.6211 19.46C26.9151 19.5028 26.983 19.6153 26.8946 19.8905C26.7058 20.4782 26.2905 20.8861 25.7744 21.2123C25.0373 21.6778 24.2127 21.9324 23.3704 22.1433C23.1507 22.1986 22.9302 22.25 22.7109 22.3052C22.6486 22.3208 22.5783 22.3255 22.5325 22.4053C22.7687 22.4909 23.0133 22.5049 23.2527 22.5357C24.0805 22.6423 24.9104 22.7349 25.7141 22.9693C25.9768 23.0459 26.2355 23.1339 26.4532 23.3036C26.7581 23.5418 26.7813 23.8162 26.5291 24.1105C26.2728 24.4094 25.9146 24.4651 25.5506 24.4748C24.863 24.4931 24.195 24.353 23.5335 24.1903C23.1069 24.0856 22.6848 23.9637 22.2614 23.8466C21.7412 23.703 21.3412 23.3822 20.9837 23.0082C20.7792 22.7945 20.5933 22.5645 20.4013 22.3399C20.3463 22.2757 20.3073 22.1955 20.1956 22.2251C20.0667 22.2593 20.1153 22.3609 20.1153 22.4348C20.1129 24.8983 20.1133 27.3621 20.1129 29.8255C20.1129 29.9034 20.1145 29.9816 20.1053 30.0583C20.0763 30.2977 19.9225 30.4137 19.6606 30.4008C19.4361 30.3895 19.2931 30.2529 19.2903 30.0244C19.2846 29.5449 19.2879 29.065 19.2875 28.5851C19.2875 26.5428 19.2883 24.5005 19.2846 22.4586C19.2846 22.3804 19.3457 22.2694 19.2107 22.227C19.0786 22.1857 19.0352 22.2943 18.9766 22.3652C18.6135 22.8069 18.2451 23.2413 17.7523 23.5597C17.2791 23.8653 16.7272 23.9556 16.1978 24.1043C15.5813 24.2775 14.9539 24.4032 14.3128 24.4627C13.9899 24.4927 13.6718 24.4826 13.3569 24.4071C13.1837 24.3654 13.0299 24.2868 12.9142 24.1564C12.6194 23.8252 12.5804 23.4998 13.0243 23.2374C13.4774 22.9696 13.9923 22.8766 14.5008 22.7739C15.2146 22.6302 15.9428 22.575 16.6614 22.4605C16.7268 22.45 16.7907 22.431 16.8895 22.408Z" fill="black"/>
<path d="M30.2568 20.5169C30.6524 20.0615 31.1132 19.7571 31.6811 19.6489C32.5013 19.4928 33.3055 19.5026 34.022 20.007C34.3044 20.2059 34.4815 20.4881 34.6442 20.7882C35.0961 20.109 35.7191 19.696 36.5373 19.5975C37.3731 19.4971 38.1716 19.5742 38.8103 20.1919C39.185 20.5539 39.3517 21.0151 39.4445 21.5063C39.5024 21.813 39.5184 22.124 39.5188 22.4354C39.5208 23.9133 39.5172 25.3912 39.5237 26.8691C39.5245 27.0252 39.4791 27.0633 39.324 27.0594C38.9095 27.0489 38.4942 27.0489 38.0797 27.0594C37.9286 27.0633 37.8909 27.024 37.8913 26.8773C37.8973 25.4383 37.8961 23.9993 37.8941 22.5603C37.8937 22.321 37.8893 22.0824 37.8443 21.8446C37.684 20.9953 37.1309 20.6955 36.3127 20.7987C35.762 20.868 35.3066 21.1288 34.9671 21.5647C34.9262 21.6172 34.894 21.6639 34.8981 21.7375C34.9828 23.3439 34.9189 24.9518 34.9362 26.5589C34.9378 26.7189 35.0105 26.9279 34.9045 27.0264C34.7997 27.1233 34.5856 27.0521 34.4197 27.0544C34.112 27.0587 33.8035 27.0466 33.4962 27.0594C33.3424 27.0657 33.3095 27.0197 33.3099 26.8761C33.3159 25.4371 33.3147 23.9982 33.3123 22.5592C33.3119 22.3397 33.3119 22.1201 33.2717 21.901C33.1183 21.0669 32.656 20.7096 31.7896 20.7909C31.2553 20.8411 30.8111 21.0735 30.4613 21.4732C30.3821 21.5635 30.3536 21.655 30.354 21.7722C30.3572 23.4641 30.3536 25.1557 30.3604 26.8477C30.3612 27.0178 30.3211 27.0665 30.1419 27.0606C29.721 27.0462 29.2988 27.0524 28.8775 27.0583C28.765 27.0598 28.7301 27.0306 28.7305 26.9182C28.7337 24.5586 28.7337 22.1991 28.7305 19.8396C28.7305 19.724 28.7718 19.6995 28.8811 19.7011C29.2623 19.7065 29.6439 19.7073 30.0254 19.7007C30.1403 19.6987 30.1704 19.738 30.1781 19.8439C30.1929 20.0564 30.2263 20.2682 30.2568 20.5169Z" fill="black"/>
<path d="M51.4055 20.5032C51.5782 20.3541 51.7048 20.2035 51.865 20.0863C52.7439 19.4433 54.1565 19.3701 55.078 19.9466C55.6222 20.2871 55.8721 20.8188 55.9978 21.4151C56.0693 21.7538 56.0841 22.0963 56.0841 22.44C56.0837 23.9179 56.0809 25.3958 56.0886 26.8737C56.0894 27.0337 56.0371 27.0625 55.8881 27.059C55.48 27.0496 55.0715 27.0492 54.6638 27.059C54.5128 27.0625 54.4646 27.0305 54.4654 26.8729C54.4726 25.4211 54.4694 23.9689 54.4698 22.517C54.4698 22.1792 54.4461 21.8448 54.3252 21.523C54.1694 21.1084 53.8705 20.8527 53.4195 20.7994C52.6724 20.711 52.0566 20.9628 51.5694 21.5175C51.5003 21.5961 51.5039 21.6818 51.5039 21.7724C51.5043 23.4707 51.5023 25.1693 51.5075 26.8675C51.5079 27.0146 51.477 27.0644 51.3143 27.0597C50.893 27.0473 50.4712 27.05 50.0499 27.059C49.9153 27.0617 49.8872 27.0212 49.8876 26.8974C49.8912 24.5508 49.8916 22.2045 49.8872 19.8578C49.8868 19.7259 49.929 19.6975 50.0559 19.7002C50.417 19.708 50.7789 19.7115 51.1396 19.699C51.2963 19.6936 51.3304 19.7535 51.338 19.8866C51.3493 20.0847 51.3802 20.2813 51.4055 20.5032Z" fill="black"/>
<path d="M59.8866 20.5544C60.3265 20.0274 60.8442 19.7191 61.4784 19.6012C61.7098 19.5584 61.9432 19.5634 62.1773 19.5739C62.2986 19.5794 62.3332 19.6331 62.332 19.7464C62.3264 20.1936 62.3251 20.6408 62.3324 21.088C62.3348 21.227 62.2938 21.2286 62.1725 21.1912C61.4162 20.9588 60.7394 21.1079 60.1381 21.6049C60.0236 21.6999 59.9782 21.8058 59.9786 21.9572C59.9846 23.5904 59.9802 25.2236 59.9862 26.8568C59.9866 27.0117 59.9593 27.0674 59.7842 27.0612C59.3633 27.0468 58.9415 27.0522 58.5198 27.0592C58.4001 27.0612 58.3623 27.0355 58.3623 26.9113C58.3663 24.5588 58.3663 22.2063 58.3627 19.8534C58.3627 19.7363 58.39 19.6977 58.5173 19.7004C58.8917 19.709 59.2669 19.7078 59.6412 19.7008C59.7601 19.6985 59.8047 19.7308 59.8115 19.8503C59.8248 20.0694 59.8573 20.2878 59.8866 20.5544Z" fill="black"/>
<path fill-rule="evenodd" clip-rule="evenodd" d="M42.53 26.8744C41.5536 26.0925 41.7331 24.8138 42.8963 24.2654C42.5798 24.0833 42.293 23.8762 42.0633 23.6026C41.1824 22.554 41.2503 20.479 43.1932 19.7901C44.301 19.3969 45.3995 19.4713 46.4298 20.073C46.5101 20.1201 46.5435 20.1225 46.5989 20.0411C46.7929 19.7562 47.0889 19.6223 47.4251 19.5873C47.6067 19.5682 47.7901 19.5666 47.9736 19.5649C48.0715 19.564 48.1694 19.5631 48.267 19.5596C48.3602 19.5561 48.3968 19.5853 48.3952 19.6811C48.3899 19.9854 48.3875 20.2906 48.396 20.595C48.3992 20.7164 48.3438 20.7312 48.2405 20.73C47.9598 20.7273 47.679 20.7316 47.4047 20.802C47.2842 20.8328 47.2388 20.8647 47.3115 21.008C47.9987 22.3648 47.4368 24.0455 45.6992 24.4877C45.2224 24.6087 44.7416 24.6578 44.2496 24.6107C43.8266 24.5702 43.5065 24.7885 43.4338 25.1571C43.3514 25.5752 43.5563 25.9084 43.9748 26.0243C44.2002 26.087 44.4315 26.1111 44.6673 26.1178C44.7864 26.1212 44.9056 26.1234 45.0248 26.1256C45.6272 26.1367 46.2299 26.1479 46.817 26.3139C47.3822 26.4739 47.8465 26.7573 48.0493 27.3232C48.4048 28.3146 48.1931 29.5025 46.7684 30.0805C45.9703 30.4043 45.1372 30.4522 44.2893 30.4102C43.6575 30.3787 43.0426 30.2736 42.4698 29.9976C41.6387 29.5971 41.2483 28.8564 41.417 27.9993C41.5162 27.4945 41.8805 27.2033 42.3167 26.9737C42.3639 26.9488 42.4134 26.9267 42.4637 26.9043C42.4857 26.8945 42.5079 26.8846 42.53 26.8744ZM44.5558 23.486C44.0842 23.4728 43.6745 23.3946 43.3673 23.031C42.9885 22.5834 42.9833 21.3402 43.6131 20.9483C44.1473 20.6159 45.1366 20.6303 45.6162 21.0296C45.9588 21.3149 46.0327 21.7131 46.0279 22.1226C46.0223 22.59 45.9202 23.026 45.4543 23.2856C45.1679 23.4448 44.8522 23.4837 44.5558 23.486ZM45.0158 27.3093C44.8616 27.3025 44.7073 27.2956 44.5535 27.2794C44.4884 27.2794 44.4233 27.2794 44.3582 27.2795C44.1629 27.2795 43.9673 27.2796 43.7714 27.279C43.416 27.2786 43.1039 27.4865 42.9998 27.7936C42.8311 28.2926 43.034 28.8169 43.5296 29.0352C44.3402 29.3926 45.1793 29.3813 46.0011 29.0796C46.4554 28.913 46.6715 28.5281 46.6277 28.1202C46.5875 27.7453 46.3534 27.527 45.8485 27.402C45.5743 27.3341 45.2954 27.3217 45.0158 27.3093Z" fill="black"/>
</svg>
