<svg width="76" height="50" viewBox="0 0 76 50" fill="none" xmlns="http://www.w3.org/2000/svg">
<g clip-path="url(#clip0)">
<path d="M38.0705 10.1894C41.9429 10.1894 45.8145 10.1943 49.6869 10.1812C50.0565 10.1795 50.1625 10.2699 50.1625 10.6502C50.151 18.382 50.1501 26.1129 50.1633 33.8447C50.1641 34.2496 50.0499 34.3342 49.6615 34.3334C41.9446 34.3219 34.2277 34.3211 26.5108 34.3334C26.1182 34.3342 26.0106 34.2414 26.0114 33.8398C26.0237 26.122 26.0254 18.4041 26.0098 10.6863C26.0081 10.2518 26.1404 10.1795 26.5362 10.1812C30.3807 10.1951 34.2252 10.1894 38.0705 10.1894ZM39.1612 22.2737C39.1612 22.0552 39.1612 21.8359 39.1612 21.6174C39.1612 19.3874 39.1554 17.1581 39.1678 14.928C39.1694 14.6257 39.0971 14.5181 38.7826 14.5387C38.3604 14.5666 37.9334 14.5715 37.5112 14.5378C37.1162 14.5066 36.9839 14.6019 36.988 15.0373C37.0119 17.7865 37.0004 20.5365 37.0004 23.2857C37.0004 25.3786 37.0053 27.4715 36.9946 29.5644C36.993 29.8437 37.057 29.9538 37.3543 29.9365C37.7773 29.9119 38.2019 29.9332 38.6257 29.9299C39.2261 29.925 39.1596 29.9965 39.1596 29.4141C39.162 27.0337 39.1612 24.6533 39.1612 22.2737ZM43.9797 19.8375C43.9797 18.1955 43.9732 16.5527 43.9855 14.9108C43.988 14.6282 43.9157 14.5255 43.6217 14.5387C43.1297 14.5617 42.6361 14.5608 42.1441 14.5387C41.8698 14.5263 41.7951 14.6208 41.7959 14.8853C41.8025 18.17 41.8033 21.4548 41.7951 24.7387C41.7943 25.0147 41.8633 25.133 42.1606 25.1199C42.6386 25.0985 43.119 25.0977 43.597 25.1207C43.9075 25.1355 43.9888 25.027 43.9863 24.7223C43.9715 23.0951 43.9797 21.4663 43.9797 19.8375ZM32.2221 19.8046C32.2221 21.4466 32.2303 23.0877 32.2147 24.7297C32.2122 25.0394 32.3026 25.1363 32.6081 25.1215C33.0861 25.0985 33.5657 25.1059 34.0437 25.119C34.2893 25.1256 34.3755 25.0451 34.3747 24.7913C34.3673 21.4803 34.3673 18.17 34.3755 14.859C34.3763 14.5995 34.2852 14.5329 34.0429 14.5411C33.578 14.5567 33.1115 14.5674 32.6483 14.5387C32.3116 14.5173 32.2089 14.6134 32.213 14.9625C32.2327 16.5757 32.2212 18.1898 32.2221 19.8046Z" fill="#151628"/>
<path d="M49.4636 39.6224C49.1277 39.7227 48.9264 39.6463 48.7876 39.3883C48.7104 39.2454 48.5881 39.1263 48.51 38.9834C48.3762 38.737 48.184 38.6351 47.908 38.6778C47.8415 38.6877 47.7717 38.6795 47.7035 38.6795C47.035 38.6795 47.0366 38.6795 47.0194 39.3292C47.0153 39.4795 47.0818 39.6734 46.8034 39.666C46.534 39.6594 46.5882 39.4688 46.5866 39.3169C46.5816 38.6885 46.594 38.0593 46.5808 37.431C46.5751 37.1772 46.6695 37.0983 46.9151 37.104C47.4883 37.1172 48.0633 37.109 48.6365 37.1082C49.0422 37.1073 49.3166 37.293 49.4241 37.6881C49.5268 38.0651 49.3938 38.3797 49.0619 38.5571C48.8451 38.6737 48.8648 38.7575 48.9823 38.9177C49.1416 39.1354 49.2878 39.3629 49.4636 39.6224ZM47.9335 38.2934C48.138 38.2934 48.3417 38.2918 48.5462 38.2943C48.8271 38.2975 49.0529 38.1899 49.057 37.8918C49.0603 37.5952 48.8402 37.4761 48.5577 37.4753C48.1626 37.4745 47.7668 37.4926 47.3734 37.4687C47.0761 37.4507 47.0276 37.5698 47.0087 37.8408C46.9816 38.2285 47.122 38.3476 47.4842 38.2975C47.6313 38.277 47.7832 38.2934 47.9335 38.2934Z" fill="#151628"/>
<path d="M33.7719 39.1602C33.7719 38.5244 33.7678 37.9971 33.7743 37.4697C33.776 37.3219 33.7086 37.1165 33.9789 37.1141C34.2474 37.1124 34.1891 37.3128 34.1899 37.4648C34.194 38.0661 34.1965 38.6673 34.1875 39.2686C34.185 39.4025 34.2745 39.6029 34.0651 39.6514C33.8672 39.6965 33.67 39.685 33.5058 39.5019C33.013 38.954 32.5054 38.4184 32.0028 37.8796C31.9404 37.8131 31.8714 37.7531 31.7277 37.6151C31.7277 38.2312 31.7334 38.7552 31.7244 39.2784C31.7219 39.4329 31.8164 39.6694 31.5109 39.6612C31.207 39.653 31.3146 39.4132 31.3113 39.2637C31.299 38.6764 31.3014 38.0891 31.3105 37.5009C31.3129 37.3679 31.2292 37.1683 31.4427 37.1239C31.6414 37.0829 31.8328 37.0878 31.9995 37.2742C32.5079 37.8451 33.036 38.3979 33.5567 38.9573C33.5937 38.9975 33.6347 39.0312 33.7719 39.1602Z" fill="#151628"/>
<path d="M42.9446 39.6641C42.603 39.6641 42.2613 39.6576 41.9205 39.6666C41.7242 39.6715 41.6174 39.6264 41.6207 39.3972C41.6314 38.7277 41.6305 38.0583 41.6207 37.3889C41.6174 37.1704 41.7086 37.1039 41.9123 37.1055C42.6087 37.1112 43.3052 37.1063 44.0024 37.1088C44.133 37.1096 44.2932 37.0841 44.2891 37.2993C44.285 37.5228 44.1141 37.4694 43.9918 37.4702C43.4456 37.4759 42.8986 37.4858 42.3525 37.4677C42.0782 37.4587 42.0371 37.5885 42.0412 37.8144C42.0453 38.0246 42.0486 38.1938 42.3377 38.1774C42.6506 38.1602 42.966 38.1733 43.2797 38.1758C43.421 38.1766 43.5614 38.1766 43.5516 38.3844C43.5433 38.5676 43.4136 38.561 43.2912 38.5626C42.9766 38.5659 42.6621 38.5791 42.3492 38.561C42.0724 38.5454 42.0379 38.69 42.042 38.9134C42.0453 39.1261 42.056 39.2805 42.3426 39.2715C42.8888 39.2534 43.4349 39.2641 43.9819 39.2682C44.1207 39.269 44.3014 39.2173 44.294 39.467C44.2866 39.7085 44.1109 39.66 43.9696 39.6617C43.6279 39.6674 43.2863 39.6641 42.9446 39.6641Z" fill="#151628"/>
<path d="M21.1747 38.3706C21.1747 38.0568 21.1887 37.7414 21.1698 37.4284C21.155 37.1697 21.2642 37.0991 21.5049 37.104C22.0913 37.1155 22.6793 37.0982 23.2657 37.1122C23.7511 37.1237 24.0336 37.4202 24.0353 37.8819C24.0369 38.3377 23.747 38.6556 23.2789 38.6745C22.8428 38.6918 22.405 38.6926 21.9689 38.6745C21.7028 38.663 21.5927 38.7492 21.6248 39.0195C21.6404 39.1542 21.6215 39.2922 21.6281 39.4285C21.6371 39.606 21.5583 39.67 21.3841 39.6667C21.2207 39.6635 21.1722 39.5846 21.1739 39.4368C21.178 39.0811 21.1755 38.7263 21.1747 38.3706ZM22.5298 38.2934C22.7343 38.2934 22.938 38.2926 23.1425 38.2934C23.4234 38.295 23.6435 38.1932 23.6435 37.886C23.6435 37.5779 23.4177 37.4769 23.1417 37.4753C22.7467 37.4728 22.3516 37.4909 21.9574 37.4687C21.6716 37.4523 21.633 37.5788 21.6174 37.8268C21.5952 38.1874 21.6913 38.3607 22.0806 38.2975C22.2268 38.2737 22.3795 38.2934 22.5298 38.2934Z" fill="#151628"/>
<path d="M27.3676 37.1163C27.5885 37.0802 27.7109 37.1566 27.807 37.3455C28.147 38.0133 28.5092 38.6687 28.8525 39.3349C28.8985 39.4244 29.0529 39.5526 28.8845 39.6421C28.7769 39.6988 28.57 39.7242 28.5223 39.5706C28.3277 38.9472 27.8275 39.0983 27.3873 39.0909C27.2239 39.0877 27.058 39.1049 26.897 39.0868C26.6465 39.0589 26.4798 39.141 26.3903 39.3842C26.3582 39.4712 26.3081 39.5657 26.2375 39.6207C26.1365 39.7004 25.9919 39.698 25.8893 39.6355C25.7702 39.5632 25.8802 39.468 25.9196 39.3924C26.2786 38.7041 26.6424 38.0182 27.0005 37.3291C27.0851 37.1664 27.1902 37.0613 27.3676 37.1163ZM27.4456 37.5664C27.2773 37.6174 27.2501 37.766 27.1959 37.8835C27.0793 38.1381 26.7442 38.4363 26.8847 38.626C27.03 38.8223 27.444 38.6704 27.7396 38.6917C27.9524 38.7074 28.0189 38.6359 27.9064 38.4338C27.7479 38.148 27.5992 37.8564 27.4456 37.5664Z" fill="#151628"/>
<path d="M54.8164 39.4951C54.8444 39.5953 54.8246 39.6519 54.7614 39.6552C54.6308 39.6618 54.4928 39.707 54.3828 39.5739C54.2522 39.4154 54.2809 39.1057 53.9976 39.0975C53.4925 39.0835 52.9866 39.0876 52.4823 39.1123C52.3353 39.1197 52.3024 39.307 52.2548 39.4285C52.1669 39.6536 51.9788 39.7357 51.8014 39.6446C51.5961 39.5394 51.8047 39.3916 51.8598 39.2823C52.1817 38.6498 52.5242 38.028 52.8445 37.3948C52.9406 37.2042 53.0457 37.1015 53.2757 37.0999C53.5081 37.0982 53.6116 37.205 53.7077 37.3931C54.0436 38.0494 54.3943 38.6975 54.7392 39.3489C54.7713 39.4096 54.8025 39.4696 54.8164 39.4951ZM53.2822 37.4835C53.0843 37.8556 52.9332 38.1537 52.7689 38.4437C52.6523 38.649 52.7262 38.7016 52.9324 38.6934C53.1623 38.6852 53.3931 38.6868 53.6231 38.6926C53.835 38.6975 53.8966 38.6334 53.7824 38.4322C53.6231 38.1504 53.4794 37.8597 53.2822 37.4835Z" fill="#151628"/>
<path d="M37.9315 37.1096C38.3134 37.1096 38.6953 37.1088 39.078 37.1104C39.2045 37.1112 39.3285 37.1153 39.3269 37.2977C39.3252 37.4874 39.1922 37.4677 39.0706 37.4735C39.0567 37.4743 39.0435 37.4735 39.0296 37.4743C38.1344 37.5145 38.1344 37.5145 38.1344 38.4115C38.1344 38.7524 38.1319 39.0941 38.1344 39.4349C38.136 39.5812 38.09 39.6633 37.9258 39.6666C37.7533 39.6699 37.6785 39.6083 37.6802 39.43C37.6859 38.8978 37.667 38.3647 37.6876 37.8332C37.6991 37.5408 37.5948 37.4439 37.3131 37.471C37.1102 37.4907 36.9041 37.4726 36.6996 37.4735C36.5772 37.4735 36.4868 37.4472 36.4893 37.2936C36.4918 37.1433 36.5821 37.112 36.7028 37.112C37.1118 37.1112 37.5217 37.112 37.9307 37.112C37.9315 37.1104 37.9315 37.1096 37.9315 37.1096Z" fill="#151628"/>
</g>
<defs>
<clipPath id="clip0">
<rect width="33.66" height="29.5044" fill="white" transform="translate(21.1694 10.1812)"/>
</clipPath>
</defs>
</svg>
