<svg width="75" height="50" viewBox="0 0 75 50" fill="none" xmlns="http://www.w3.org/2000/svg">
<path d="M12.6729 28.5579V21.5765H15.4953C15.9341 21.5765 16.3198 21.663 16.6522 21.8358C16.9847 22.0087 17.2473 22.2547 17.4401 22.5739C17.6329 22.8864 17.7293 23.2587 17.7293 23.6909V23.8305C17.7293 24.256 17.6296 24.6284 17.4301 24.9475C17.2373 25.2667 16.9714 25.5127 16.6323 25.6855C16.2998 25.8584 15.9208 25.9448 15.4953 25.9448H13.8796V28.5579H12.6729ZM13.8796 24.8578H15.3756C15.7214 24.8578 15.9973 24.7647 16.2034 24.5785C16.4162 24.3923 16.5226 24.1364 16.5226 23.8106V23.7108C16.5226 23.385 16.4195 23.129 16.2134 22.9429C16.0073 22.7567 15.728 22.6636 15.3756 22.6636H13.8796V24.8578ZM20.8494 28.6975C20.3574 28.6975 19.9219 28.5944 19.5429 28.3883C19.1706 28.1756 18.878 27.8797 18.6653 27.5007C18.4592 27.1151 18.3561 26.6663 18.3561 26.1543V26.0346C18.3561 25.516 18.4592 25.0672 18.6653 24.6882C18.8714 24.3092 19.1606 24.0167 19.533 23.8106C19.9053 23.5978 20.3341 23.4914 20.8195 23.4914C21.2982 23.4914 21.7171 23.5978 22.0762 23.8106C22.4352 24.0167 22.7145 24.3092 22.9139 24.6882C23.1134 25.0672 23.2131 25.5093 23.2131 26.0147V26.4236H19.513C19.5263 26.8092 19.6626 27.1184 19.9219 27.3511C20.1812 27.5838 20.5004 27.7002 20.8794 27.7002C21.2517 27.7002 21.5276 27.6204 21.7071 27.4608C21.8867 27.2946 22.023 27.1084 22.1161 26.9023L23.0635 27.391C22.9704 27.5705 22.8341 27.7633 22.6546 27.9694C22.4817 28.1689 22.249 28.3418 21.9565 28.488C21.6639 28.6277 21.2949 28.6975 20.8494 28.6975ZM19.523 25.5559H22.0462C22.0196 25.2301 21.8933 24.9708 21.6673 24.778C21.4478 24.5852 21.1619 24.4887 20.8095 24.4887C20.4439 24.4887 20.1513 24.5852 19.9319 24.778C19.7125 24.9708 19.5762 25.2301 19.523 25.5559ZM26.0999 28.5579C25.7808 28.5579 25.5248 28.4648 25.332 28.2786C25.1458 28.0858 25.0527 27.8265 25.0527 27.5007V24.5785H23.7662V23.631H25.0527V22.0453H26.1997V23.631H27.6159V24.5785H26.1997V27.3112C26.1997 27.5107 26.2927 27.6104 26.4789 27.6104H27.4663V28.5579H26.0999ZM30.8617 28.6975C30.3697 28.6975 29.9342 28.5944 29.5552 28.3883C29.1829 28.1756 28.8903 27.8797 28.6776 27.5007C28.4715 27.1151 28.3684 26.6663 28.3684 26.1543V26.0346C28.3684 25.516 28.4715 25.0672 28.6776 24.6882C28.8837 24.3092 29.1729 24.0167 29.5453 23.8106C29.9176 23.5978 30.3464 23.4914 30.8318 23.4914C31.3105 23.4914 31.7294 23.5978 32.0885 23.8106C32.4475 24.0167 32.7267 24.3092 32.9262 24.6882C33.1257 25.0672 33.2254 25.5093 33.2254 26.0147V26.4236H29.5253C29.5386 26.8092 29.6749 27.1184 29.9342 27.3511C30.1935 27.5838 30.5127 27.7002 30.8917 27.7002C31.264 27.7002 31.5399 27.6204 31.7194 27.4608C31.899 27.2946 32.0353 27.1084 32.1283 26.9023L33.0758 27.391C32.9827 27.5705 32.8464 27.7633 32.6669 27.9694C32.494 28.1689 32.2613 28.3418 31.9688 28.488C31.6762 28.6277 31.3072 28.6975 30.8617 28.6975ZM29.5353 25.5559H32.0585C32.0319 25.2301 31.9056 24.9708 31.6795 24.778C31.4601 24.5852 31.1742 24.4887 30.8218 24.4887C30.4561 24.4887 30.1636 24.5852 29.9442 24.778C29.7248 24.9708 29.5885 25.2301 29.5353 25.5559ZM34.4028 28.5579V23.631H35.5298V24.1995H35.6993C35.7725 23.9934 35.8955 23.8438 36.0684 23.7507C36.2412 23.6576 36.4473 23.6111 36.6867 23.6111H37.2851V24.6284H36.6668C36.3343 24.6284 36.065 24.7181 35.8589 24.8976C35.6528 25.0705 35.5497 25.3398 35.5497 25.7055V28.5579H34.4028ZM42.1542 28.5579V22.6636H40.0698V21.5765H45.4354V22.6636H43.351V28.5579H42.1542ZM46.4117 28.5579V21.5765H47.5586V24.2793H47.7282C47.7814 24.1663 47.8678 24.0532 47.9875 23.9402C48.1072 23.8272 48.2634 23.7341 48.4562 23.661C48.6557 23.5878 48.905 23.5512 49.2042 23.5512C49.5832 23.5512 49.919 23.6377 50.2116 23.8106C50.5041 23.9768 50.7302 24.2128 50.8897 24.5187C51.056 24.8245 51.1391 25.1869 51.1391 25.6058V28.5579H49.9921V25.6955C49.9921 25.2966 49.8924 25.0007 49.6929 24.8079C49.5001 24.6084 49.2242 24.5087 48.8652 24.5087C48.4596 24.5087 48.1404 24.645 47.9077 24.9176C47.675 25.1836 47.5586 25.5659 47.5586 26.0645V28.5579H46.4117ZM52.5477 28.5579V23.631H53.6946V28.5579H52.5477ZM53.1161 23.0027C52.91 23.0027 52.7305 22.9362 52.5776 22.8032C52.4313 22.6636 52.3582 22.4808 52.3582 22.2547C52.3582 22.0287 52.4313 21.8491 52.5776 21.7162C52.7305 21.5765 52.91 21.5067 53.1161 21.5067C53.3355 21.5067 53.5151 21.5765 53.6547 21.7162C53.801 21.8491 53.8741 22.0287 53.8741 22.2547C53.8741 22.4808 53.801 22.6636 53.6547 22.8032C53.5151 22.9362 53.3355 23.0027 53.1161 23.0027ZM57.4021 28.6975C56.9101 28.6975 56.4746 28.5944 56.0956 28.3883C55.7232 28.1756 55.4307 27.8797 55.2179 27.5007C55.0118 27.1151 54.9088 26.6663 54.9088 26.1543V26.0346C54.9088 25.516 55.0118 25.0672 55.2179 24.6882C55.424 24.3092 55.7133 24.0167 56.0856 23.8106C56.458 23.5978 56.8868 23.4914 57.3722 23.4914C57.8509 23.4914 58.2698 23.5978 58.6288 23.8106C58.9879 24.0167 59.2671 24.3092 59.4666 24.6882C59.666 25.0672 59.7658 25.5093 59.7658 26.0147V26.4236H56.0657C56.079 26.8092 56.2153 27.1184 56.4746 27.3511C56.7339 27.5838 57.053 27.7002 57.432 27.7002C57.8044 27.7002 58.0803 27.6204 58.2598 27.4608C58.4393 27.2946 58.5756 27.1084 58.6687 26.9023L59.6162 27.391C59.5231 27.5705 59.3868 27.7633 59.2073 27.9694C59.0344 28.1689 58.8017 28.3418 58.5091 28.488C58.2166 28.6277 57.8476 28.6975 57.4021 28.6975ZM56.0756 25.5559H58.5989C58.5723 25.2301 58.446 24.9708 58.2199 24.778C58.0005 24.5852 57.7146 24.4887 57.3622 24.4887C56.9965 24.4887 56.704 24.5852 56.4845 24.778C56.2651 24.9708 56.1288 25.2301 56.0756 25.5559ZM60.9432 28.5579V21.5765H62.0901V28.5579H60.9432Z" fill="#C5C5C5"/>
<path d="M12.6729 28.5579V21.5765H15.4953C15.9341 21.5765 16.3198 21.663 16.6522 21.8358C16.9847 22.0087 17.2473 22.2547 17.4401 22.5739C17.6329 22.8864 17.7293 23.2587 17.7293 23.6909V23.8305C17.7293 24.256 17.6296 24.6284 17.4301 24.9475C17.2373 25.2667 16.9714 25.5127 16.6323 25.6855C16.2998 25.8584 15.9208 25.9448 15.4953 25.9448H13.8796V28.5579H12.6729ZM13.8796 24.8578H15.3756C15.7214 24.8578 15.9973 24.7647 16.2034 24.5785C16.4162 24.3923 16.5226 24.1364 16.5226 23.8106V23.7108C16.5226 23.385 16.4195 23.129 16.2134 22.9429C16.0073 22.7567 15.728 22.6636 15.3756 22.6636H13.8796V24.8578ZM20.8494 28.6975C20.3574 28.6975 19.9219 28.5944 19.5429 28.3883C19.1706 28.1756 18.878 27.8797 18.6653 27.5007C18.4592 27.1151 18.3561 26.6663 18.3561 26.1543V26.0346C18.3561 25.516 18.4592 25.0672 18.6653 24.6882C18.8714 24.3092 19.1606 24.0167 19.533 23.8106C19.9053 23.5978 20.3341 23.4914 20.8195 23.4914C21.2982 23.4914 21.7171 23.5978 22.0762 23.8106C22.4352 24.0167 22.7145 24.3092 22.9139 24.6882C23.1134 25.0672 23.2131 25.5093 23.2131 26.0147V26.4236H19.513C19.5263 26.8092 19.6626 27.1184 19.9219 27.3511C20.1812 27.5838 20.5004 27.7002 20.8794 27.7002C21.2517 27.7002 21.5276 27.6204 21.7071 27.4608C21.8867 27.2946 22.023 27.1084 22.1161 26.9023L23.0635 27.391C22.9704 27.5705 22.8341 27.7633 22.6546 27.9694C22.4817 28.1689 22.249 28.3418 21.9565 28.488C21.6639 28.6277 21.2949 28.6975 20.8494 28.6975ZM19.523 25.5559H22.0462C22.0196 25.2301 21.8933 24.9708 21.6673 24.778C21.4478 24.5852 21.1619 24.4887 20.8095 24.4887C20.4439 24.4887 20.1513 24.5852 19.9319 24.778C19.7125 24.9708 19.5762 25.2301 19.523 25.5559ZM26.0999 28.5579C25.7808 28.5579 25.5248 28.4648 25.332 28.2786C25.1458 28.0858 25.0527 27.8265 25.0527 27.5007V24.5785H23.7662V23.631H25.0527V22.0453H26.1997V23.631H27.6159V24.5785H26.1997V27.3112C26.1997 27.5107 26.2927 27.6104 26.4789 27.6104H27.4663V28.5579H26.0999ZM30.8617 28.6975C30.3697 28.6975 29.9342 28.5944 29.5552 28.3883C29.1829 28.1756 28.8903 27.8797 28.6776 27.5007C28.4715 27.1151 28.3684 26.6663 28.3684 26.1543V26.0346C28.3684 25.516 28.4715 25.0672 28.6776 24.6882C28.8837 24.3092 29.1729 24.0167 29.5453 23.8106C29.9176 23.5978 30.3464 23.4914 30.8318 23.4914C31.3105 23.4914 31.7294 23.5978 32.0885 23.8106C32.4475 24.0167 32.7267 24.3092 32.9262 24.6882C33.1257 25.0672 33.2254 25.5093 33.2254 26.0147V26.4236H29.5253C29.5386 26.8092 29.6749 27.1184 29.9342 27.3511C30.1935 27.5838 30.5127 27.7002 30.8917 27.7002C31.264 27.7002 31.5399 27.6204 31.7194 27.4608C31.899 27.2946 32.0353 27.1084 32.1283 26.9023L33.0758 27.391C32.9827 27.5705 32.8464 27.7633 32.6669 27.9694C32.494 28.1689 32.2613 28.3418 31.9688 28.488C31.6762 28.6277 31.3072 28.6975 30.8617 28.6975ZM29.5353 25.5559H32.0585C32.0319 25.2301 31.9056 24.9708 31.6795 24.778C31.4601 24.5852 31.1742 24.4887 30.8218 24.4887C30.4561 24.4887 30.1636 24.5852 29.9442 24.778C29.7248 24.9708 29.5885 25.2301 29.5353 25.5559ZM34.4028 28.5579V23.631H35.5298V24.1995H35.6993C35.7725 23.9934 35.8955 23.8438 36.0684 23.7507C36.2412 23.6576 36.4473 23.6111 36.6867 23.6111H37.2851V24.6284H36.6668C36.3343 24.6284 36.065 24.7181 35.8589 24.8976C35.6528 25.0705 35.5497 25.3398 35.5497 25.7055V28.5579H34.4028ZM42.1542 28.5579V22.6636H40.0698V21.5765H45.4354V22.6636H43.351V28.5579H42.1542ZM46.4117 28.5579V21.5765H47.5586V24.2793H47.7282C47.7814 24.1663 47.8678 24.0532 47.9875 23.9402C48.1072 23.8272 48.2634 23.7341 48.4562 23.661C48.6557 23.5878 48.905 23.5512 49.2042 23.5512C49.5832 23.5512 49.919 23.6377 50.2116 23.8106C50.5041 23.9768 50.7302 24.2128 50.8897 24.5187C51.056 24.8245 51.1391 25.1869 51.1391 25.6058V28.5579H49.9921V25.6955C49.9921 25.2966 49.8924 25.0007 49.6929 24.8079C49.5001 24.6084 49.2242 24.5087 48.8652 24.5087C48.4596 24.5087 48.1404 24.645 47.9077 24.9176C47.675 25.1836 47.5586 25.5659 47.5586 26.0645V28.5579H46.4117ZM52.5477 28.5579V23.631H53.6946V28.5579H52.5477ZM53.1161 23.0027C52.91 23.0027 52.7305 22.9362 52.5776 22.8032C52.4313 22.6636 52.3582 22.4808 52.3582 22.2547C52.3582 22.0287 52.4313 21.8491 52.5776 21.7162C52.7305 21.5765 52.91 21.5067 53.1161 21.5067C53.3355 21.5067 53.5151 21.5765 53.6547 21.7162C53.801 21.8491 53.8741 22.0287 53.8741 22.2547C53.8741 22.4808 53.801 22.6636 53.6547 22.8032C53.5151 22.9362 53.3355 23.0027 53.1161 23.0027ZM57.4021 28.6975C56.9101 28.6975 56.4746 28.5944 56.0956 28.3883C55.7232 28.1756 55.4307 27.8797 55.2179 27.5007C55.0118 27.1151 54.9088 26.6663 54.9088 26.1543V26.0346C54.9088 25.516 55.0118 25.0672 55.2179 24.6882C55.424 24.3092 55.7133 24.0167 56.0856 23.8106C56.458 23.5978 56.8868 23.4914 57.3722 23.4914C57.8509 23.4914 58.2698 23.5978 58.6288 23.8106C58.9879 24.0167 59.2671 24.3092 59.4666 24.6882C59.666 25.0672 59.7658 25.5093 59.7658 26.0147V26.4236H56.0657C56.079 26.8092 56.2153 27.1184 56.4746 27.3511C56.7339 27.5838 57.053 27.7002 57.432 27.7002C57.8044 27.7002 58.0803 27.6204 58.2598 27.4608C58.4393 27.2946 58.5756 27.1084 58.6687 26.9023L59.6162 27.391C59.5231 27.5705 59.3868 27.7633 59.2073 27.9694C59.0344 28.1689 58.8017 28.3418 58.5091 28.488C58.2166 28.6277 57.8476 28.6975 57.4021 28.6975ZM56.0756 25.5559H58.5989C58.5723 25.2301 58.446 24.9708 58.2199 24.778C58.0005 24.5852 57.7146 24.4887 57.3622 24.4887C56.9965 24.4887 56.704 24.5852 56.4845 24.778C56.2651 24.9708 56.1288 25.2301 56.0756 25.5559ZM60.9432 28.5579V21.5765H62.0901V28.5579H60.9432Z" fill="url(#paint0_linear)"/>
<defs>
<linearGradient id="paint0_linear" x1="4.10352" y1="25.1855" x2="70.7007" y2="25.3497" gradientUnits="userSpaceOnUse">
<stop stop-color="#2D82B7"/>
<stop offset="1" stop-color="#5CC7F2"/>
</linearGradient>
</defs>
</svg>
