<svg width="76" height="50" viewBox="0 0 76 50" fill="none" xmlns="http://www.w3.org/2000/svg">
<g clip-path="url(#clip0)">
<path d="M26.157 37.0992L25.6984 37.372C25.6361 37.2606 25.5499 37.1615 25.4507 37.0869C25.2276 36.9632 24.9552 36.9878 24.7444 37.1492C24.6452 37.2237 24.5836 37.3474 24.5959 37.4835C24.5959 37.6694 24.7321 37.8055 25.0052 37.9169L25.3768 38.0652C25.6369 38.1521 25.86 38.3127 26.0462 38.511C26.1947 38.6969 26.2693 38.9198 26.257 39.155C26.2693 39.477 26.1454 39.7867 25.9223 39.9972C25.6992 40.2201 25.3768 40.3438 25.0668 40.3315C24.769 40.3438 24.4844 40.2447 24.2612 40.0464C24.0381 39.8236 23.902 39.5384 23.8643 39.2418L24.4344 39.1181C24.4467 39.2787 24.4836 39.4401 24.5705 39.5761C24.7936 39.8489 25.2029 39.8981 25.4753 39.6752C25.4876 39.6629 25.4999 39.6506 25.5122 39.6383C25.6238 39.5146 25.6984 39.3532 25.6861 39.1926C25.6861 39.1304 25.6738 39.0566 25.6615 38.9943C25.6369 38.9321 25.6122 38.8706 25.5622 38.8337C25.513 38.7845 25.463 38.7346 25.4014 38.6854C25.3268 38.6362 25.2406 38.5986 25.1537 38.5617L24.8067 38.4134C24.2982 38.2028 24.0381 37.8808 24.0381 37.4596C24.0381 37.1876 24.1497 36.9271 24.3605 36.7542C24.5836 36.5559 24.869 36.4567 25.166 36.469C25.5745 36.4798 25.9092 36.6904 26.157 37.0992Z" fill="#292929"/>
<path d="M28.7351 38.771V40.2819H28.165V36.5546H28.7975C29.0329 36.5423 29.2683 36.5669 29.5037 36.6169C29.6645 36.6668 29.8138 36.7406 29.9253 36.8643C30.1361 37.0749 30.26 37.36 30.2477 37.6567C30.26 37.9664 30.1361 38.2638 29.9007 38.4736C29.6407 38.6842 29.306 38.7956 28.9713 38.7833H28.7359V38.771H28.7351ZM28.7351 38.2507H28.9459C29.4668 38.2507 29.7268 38.0525 29.7268 37.6567C29.7268 37.2732 29.4545 37.0749 28.9213 37.0749H28.7351V38.2507Z" fill="#292929"/>
<path d="M37.9961 38.6963L39.1494 40.281H38.4554L37.3891 38.7578H37.2898V40.281H36.7197V36.5537H37.3768C37.8722 36.5537 38.2323 36.6406 38.4431 36.8258C38.6785 37.024 38.8147 37.3337 38.8024 37.6427C38.8024 37.8901 38.7278 38.1261 38.5793 38.3236C38.4423 38.5111 38.2315 38.6471 37.9961 38.6963ZM37.2891 38.2629H37.4622C37.9953 38.2629 38.2677 38.0646 38.2677 37.6557C38.2677 37.2723 38.0076 37.0863 37.4868 37.0863H37.2883V38.2629H37.2891Z" fill="#292929"/>
<path d="M41.9378 37.0748V40.2818H41.3678V37.0748H40.5122L40.1152 36.5422H43.1896L42.7926 37.0748H41.9378Z" fill="#292929"/>
<path d="M49.2515 40.2817V36.2947L51.9789 39.1427V36.5552H52.5367V40.5176L49.8093 37.6695V40.2824H49.2515V40.2817Z" fill="#292929"/>
<path d="M46.9217 40.2815H47.5418L45.7561 36.3191L43.9097 40.2815H44.5167L45.7561 37.5817L46.674 39.712L46.9217 40.2815Z" fill="#292929"/>
<path d="M34.364 40.2815H34.971L33.1984 36.3191L31.3389 40.2815H31.9467L33.1861 37.5817L34.1032 39.712L34.364 40.2815Z" fill="#292929"/>
<path d="M32.9707 21.4429L31.7959 22.664L35.2719 22.1138L32.9707 21.4429Z" fill="#292929"/>
<path d="M31.2686 18.2581L32.8742 21.2514L33.402 19.2879L31.2686 18.2581Z" fill="#292929"/>
<path d="M31.5079 22.9513L31.4363 23.0474L30.5254 26.5672L35.1523 22.3289L31.5079 22.9513Z" fill="#292929"/>
<path d="M33.7374 14.6897L31.1724 17.9704L33.9536 19.2877L37.0695 19.8863L33.7374 14.6897Z" fill="#292929"/>
<path d="M31.4127 22.7125L32.5391 21.5867L31.0288 21.8741L31.4127 22.7125Z" fill="#292929"/>
<path d="M32.6824 12.9663L31.1006 17.708L33.6418 14.4511L32.6824 12.9663Z" fill="#292929"/>
<path d="M33.7852 14.2835L37.5974 9.37427L32.7065 12.8225L32.8027 12.7749L33.7852 14.2835Z" fill="#292929"/>
<path d="M35.5355 31.9313V22.3289L30.5493 26.8546L35.5355 31.9313Z" fill="#292929"/>
<path d="M31.0044 18.2581V21.6587L32.6347 21.3474L31.0044 18.2581Z" fill="#292929"/>
<path d="M42.8469 21.4429L40.5942 22.1138L44.0456 22.664L42.8469 21.4429Z" fill="#292929"/>
<path d="M42.9425 21.2514L44.5728 18.2581L42.4155 19.2879L42.9425 21.2514Z" fill="#292929"/>
<path d="M44.4292 23.0474L44.3092 22.9513L40.6655 22.3289L45.2925 26.5672L44.4292 23.0474Z" fill="#292929"/>
<path d="M38.436 19.958L41.9366 14.4747L37.9329 9.35034L33.9053 14.4747L37.3812 19.958L36.3026 22.9751L37.9329 23.8612L39.5393 22.9751L38.436 19.958Z" fill="#292929"/>
<path d="M42.0802 14.6897L38.748 19.8863L41.9124 19.2877L44.6452 17.9704L42.0802 14.6897Z" fill="#292929"/>
<path d="M44.7889 21.8741L43.3032 21.5867L44.4296 22.7125L44.7889 21.8741Z" fill="#292929"/>
<path d="M44.7405 17.708L43.1825 12.9663L42.2231 14.4511L44.7405 17.708Z" fill="#292929"/>
<path d="M43.0393 12.7749L43.1108 12.8225L38.2446 9.37427L42.0561 14.2835L43.0393 12.7749Z" fill="#292929"/>
<path d="M40.3062 31.9313L45.2685 26.8546L40.3062 22.3289V31.9313Z" fill="#292929"/>
<path d="M44.8372 21.6587V18.2581L43.1831 21.3474L44.8372 21.6587Z" fill="#292929"/>
</g>
<defs>
<clipPath id="clip0">
<rect width="28.6733" height="31.1667" fill="white" transform="translate(23.8633 9.3501)"/>
</clipPath>
</defs>
</svg>
