<svg width="76" height="50" viewBox="0 0 76 50" fill="none" xmlns="http://www.w3.org/2000/svg">
<g clip-path="url(#clip0)">
<path d="M36.1525 24.809C36.6488 26.1602 36.8143 27.5114 36.2903 28.8901C36.1525 29.2762 35.9043 29.5795 35.6837 29.9104C33.588 32.8058 31.5199 35.7012 29.4517 38.6241C28.5418 39.8926 27.3009 40.4441 25.8118 40.5819C23.4955 40.8025 21.3171 40.1959 19.1663 39.3962C15.6918 38.0726 12.5758 36.1148 9.73561 33.7158C9.21168 33.2746 8.66018 32.8058 8.19141 32.3094C8.21898 32.2267 8.30171 32.1991 8.35686 32.1991C9.29441 32.0613 10.0941 31.5925 10.7835 30.9583C10.8662 30.9031 10.9213 30.848 11.0041 30.7928C11.5831 30.3516 12.1071 29.8553 12.631 29.3313C13.1549 28.9177 13.6788 28.4489 14.2303 28.0353C14.3958 27.925 14.5337 27.8147 14.7267 27.732C15.3058 27.4562 15.8848 27.2356 16.5466 27.3459C17.043 27.4562 17.5118 27.6768 17.8978 28.0077C18.1184 28.2007 18.3114 28.4213 18.5045 28.6144C18.6699 28.835 18.8354 29.028 19.0284 29.221C19.3869 29.745 19.8005 30.2413 20.1865 30.7377C20.8483 31.5373 21.5101 32.337 22.4477 32.8334C23.8264 33.5503 25.15 33.3849 26.3909 32.5025C26.9148 32.144 27.356 31.7028 27.7697 31.234C27.8524 31.1789 27.9351 31.1789 28.0178 31.1789C28.4039 31.1789 28.4039 31.1513 28.2109 30.8204C28.3487 30.4343 28.5693 30.1034 28.9278 29.8828C29.4242 29.9104 29.9205 30.0483 30.4169 30.1034C31.2717 30.1861 32.0989 30.2137 32.9262 30.0483C34.2498 29.8001 35.1322 29.0004 35.3252 27.8147C35.4355 27.1529 35.3528 26.4635 35.1873 25.8017C35.077 25.3881 34.8564 25.0296 34.8564 24.5884C34.884 24.5057 34.9392 24.4505 35.0219 24.4781C35.4355 24.5057 35.8491 24.5057 36.1525 24.809Z" fill="#0E0F23"/>
<path d="M16.5742 27.4288C15.8849 27.2909 15.3058 27.5391 14.6991 27.8148C14.1476 27.87 13.6237 28.063 13.0998 28.1182C12.4931 28.2009 11.8865 28.4215 11.2798 28.4491C11.142 28.4491 11.0041 28.5042 10.8662 28.5869C10.6732 28.6972 10.4526 28.78 10.2596 28.7524C9.87351 28.6697 9.51503 28.8627 9.15656 28.8075C9.07383 28.8075 9.01868 28.8351 8.96353 28.8903C8.82565 29.0557 8.6602 29.0281 8.46718 29.0557C8.30173 29.0833 8.05355 28.9454 7.9984 29.2212C7.9984 29.2487 7.94325 29.2763 7.91568 29.2487C7.63993 29.0006 7.4469 29.2763 7.2263 29.3315C7.08843 29.359 6.97813 29.4418 6.84025 29.359C6.64723 29.2212 6.48178 29.2763 6.31633 29.3866C6.1233 29.4969 5.93028 29.5521 5.73725 29.5521C5.48908 29.2763 5.29605 28.973 5.10303 28.6697C5.10303 28.4766 5.26848 28.4766 5.37878 28.4491C5.62695 28.3939 5.87513 28.3388 6.1233 28.3112C6.42663 28.3112 6.70238 28.256 6.92298 28.063C6.97813 28.0354 7.03328 28.0079 7.08843 28.0079C7.6675 28.063 8.219 27.9251 8.7705 27.7873C9.12898 27.7045 9.51503 27.677 9.87351 27.4839C10.0665 27.3736 10.3699 27.4564 10.618 27.4012C10.9489 27.3185 11.3074 27.3185 11.6107 27.1255C11.6383 27.0979 11.6659 27.0703 11.721 27.0979C12.438 27.1806 13.0998 26.8773 13.7892 26.7946C14.1201 26.767 14.451 26.7394 14.6991 26.4912C14.7267 26.4637 14.7819 26.4637 14.837 26.4637C15.6918 26.5188 16.4639 26.2155 17.2912 26.0225C17.3188 26.0225 17.3739 25.9949 17.4015 25.9949C18.2287 26.1328 18.9457 25.6916 19.7178 25.5537C19.7729 25.5537 19.8005 25.5261 19.8557 25.5261C20.2417 25.6916 20.6278 25.857 20.8208 26.2431C20.7381 26.5188 20.4899 26.574 20.2417 26.6015C19.3317 26.7946 18.3942 26.9049 17.5118 27.2082C17.4291 27.2358 17.3188 27.2633 17.236 27.2358C16.9327 27.1806 16.7397 27.2633 16.5742 27.4288Z" fill="#E859A5"/>
<path d="M19.8003 25.664C19.1385 25.857 18.4767 26.0501 17.8424 26.2431C17.677 26.2982 17.5667 26.0501 17.4012 26.1604C16.9876 26.4361 16.4913 26.2982 16.0776 26.5188C15.7467 26.6843 15.278 26.6567 14.8643 26.6567C14.754 26.6567 14.6989 26.6567 14.6162 26.7394C14.3404 26.96 13.9819 26.9325 13.6786 26.9876C13.4029 27.0428 13.0444 27.0152 12.8514 27.1255C12.6032 27.2634 12.2171 27.0704 12.0517 27.4013C12.0517 27.4288 11.969 27.4288 11.969 27.4288C11.7208 27.1531 11.5829 27.4288 11.4175 27.4288C10.9211 27.4013 10.4799 27.7597 9.95598 27.5667C9.92841 27.5667 9.90083 27.5667 9.87326 27.5667C9.40448 27.9528 8.77026 27.8149 8.27391 28.0631C8.13603 28.1458 7.99816 28.0355 7.86028 28.0631C7.77756 28.0631 7.66726 27.9803 7.63968 28.1734C7.61211 28.3388 7.47423 28.2285 7.36393 28.1734C7.17091 28.0906 7.00546 28.0631 6.84001 28.2285C6.59183 28.4767 6.23336 28.3664 5.93003 28.4215C5.65428 28.5318 5.32338 28.4767 5.0752 28.6973C4.90975 28.5043 4.7443 28.3112 4.634 28.0631C4.60643 27.8425 4.79945 27.8149 4.93733 27.8149C5.15793 27.8149 5.37853 27.7597 5.54398 27.6494C5.76458 27.5116 5.98518 27.6219 6.20578 27.5943C6.89516 27.484 7.52938 27.2634 8.21876 27.1531C8.90813 27.0428 9.59751 26.9049 10.2869 26.7119C10.6729 26.6016 11.0866 26.6291 11.5002 26.574C11.6656 26.5464 11.8035 26.5464 11.9414 26.4637C12.1068 26.381 12.2723 26.3258 12.4653 26.3534C12.6032 26.381 12.7135 26.3258 12.8238 26.2431C12.9341 26.1604 13.0444 26.1328 13.1547 26.1328C14.1474 26.1052 15.0574 25.7467 15.9949 25.5813C16.2431 25.5261 16.5188 25.664 16.7119 25.4434C16.767 25.4158 16.8497 25.3607 16.9049 25.3883C17.2358 25.5813 17.5391 25.4434 17.8149 25.3055C18.1733 25.1401 18.5042 25.0849 18.8903 25.0574C19.2763 25.1677 19.6348 25.3055 19.8003 25.664Z" fill="#E35BA7"/>
<path d="M16.8225 25.4712C16.7122 25.6366 16.6019 25.7469 16.4364 25.5539C16.4089 25.5263 16.3537 25.4987 16.2986 25.5263C15.9677 25.8572 15.4713 25.6642 15.0853 25.8572C14.6992 26.0778 14.2304 25.9951 13.8168 26.133C13.6238 26.1881 13.4583 26.1881 13.2929 26.1881C13.155 26.1881 13.0171 26.1881 12.9068 26.326C12.8793 26.3811 12.7965 26.4087 12.769 26.4087C12.1072 26.4087 11.5005 26.7396 10.8111 26.712C10.563 26.712 10.2872 26.712 10.0666 26.9051C9.87358 27.0705 9.62541 26.8775 9.40481 26.9602C9.21178 27.0154 8.99118 27.0154 8.82573 27.1532C8.66028 27.3187 8.52241 27.1532 8.35696 27.1808C7.80545 27.3187 7.25395 27.429 6.70245 27.5944C6.48185 27.6496 6.15095 27.6496 5.90278 27.6772C5.48915 27.7323 5.04795 27.7875 4.6619 28.0356C4.49645 27.815 4.331 27.5669 4.2207 27.3187C4.24828 27.1808 4.35858 27.1257 4.49645 27.0981C5.15825 26.9326 5.84763 26.8499 6.537 26.712C7.36425 26.5742 8.19151 26.4087 8.99118 26.2433C9.59783 26.1054 10.2045 25.9951 10.8387 25.9124C10.8663 25.9124 10.8939 25.9124 10.9214 25.9124C11.3902 25.6642 11.9693 25.6918 12.4381 25.4712C12.6587 25.3609 12.8793 25.4712 13.1274 25.4436C13.348 25.416 13.5686 25.4712 13.7065 25.223C13.7341 25.1678 13.8168 25.1403 13.8995 25.1678C14.3683 25.2781 14.7819 25.0024 15.2507 25.0024C15.5265 25.0024 15.8022 24.9748 16.078 24.8645C16.3261 25.0024 16.5467 25.2506 16.8225 25.4712Z" fill="#DF5DA8"/>
<path d="M16.0229 24.9472C15.4438 25.1678 14.8096 25.1402 14.2029 25.3057C14.1202 25.3333 14.0099 25.3608 13.9272 25.3057C13.7893 25.223 13.7341 25.223 13.679 25.3884C13.6238 25.5539 13.4032 25.5539 13.2654 25.5539C13.0448 25.5263 12.8242 25.609 12.6036 25.5263C12.576 25.4987 12.4933 25.4987 12.4657 25.5263C12.1899 25.802 11.8866 25.7469 11.5281 25.7469C11.3627 25.7469 11.28 25.9675 11.0594 25.9951C10.4527 26.0226 9.87363 26.1881 9.29456 26.2984C8.52246 26.4363 7.75036 26.5741 7.00583 26.7947C6.75766 26.8499 6.48191 26.8775 6.23373 26.905C5.5995 27.0153 4.99285 27.1256 4.3862 27.2359C4.33105 27.2359 4.2759 27.3187 4.19318 27.3462C4.02773 27.1532 3.91743 26.9326 3.8347 26.712C3.80713 26.519 4.00015 26.5466 4.08288 26.5466C4.63438 26.519 5.13073 26.2984 5.65465 26.2157C6.37161 26.0778 7.11613 25.9399 7.83308 25.802C8.32943 25.6917 8.88093 25.6917 9.34971 25.5539C9.81848 25.416 10.2873 25.416 10.7285 25.2781C11.7212 24.9472 12.7414 24.8645 13.7341 24.6439C14.0375 24.5612 14.3408 24.5887 14.6441 24.4784C14.8371 24.4233 15.0302 24.3681 15.2508 24.313C15.5265 24.4509 15.9401 24.5336 16.0229 24.9472Z" fill="#DA5FAA"/>
<path d="M5.7373 29.5798C6.01305 29.4419 6.31638 29.3316 6.59213 29.1937C6.64728 29.1662 6.70243 29.1937 6.75758 29.2213C7.06091 29.4695 7.28151 29.2489 7.47453 29.0834C7.69513 28.918 7.77786 29.1386 7.94331 29.2213C7.94331 29.0283 7.94331 28.8904 8.24663 28.9456C8.46723 29.0007 8.79813 29.1386 8.96358 28.7801C8.99116 28.7525 9.07388 28.725 9.12903 28.725C9.48751 28.725 9.84598 28.5871 10.232 28.6422C10.4802 28.6974 10.7284 28.6147 10.949 28.4492C11.1144 28.3113 11.335 28.3389 11.5556 28.3389C11.7762 28.3389 12.0244 28.3389 12.1899 28.1459C12.3277 28.008 12.4105 28.1735 12.5208 28.1459C12.8792 28.0907 13.2101 27.9529 13.541 27.9253C13.9271 27.8977 14.3131 27.5944 14.7268 27.815C14.2028 28.0907 13.7341 28.5044 13.2929 28.8904C13.0998 29.0559 12.9344 29.2489 12.7138 29.3592C12.4932 29.1662 12.3002 29.2213 12.1071 29.4143C12.052 29.4695 11.9968 29.5522 11.9141 29.5522C11.5281 29.4971 11.1696 29.7728 10.7835 29.6625C10.4251 29.5798 10.0666 29.7452 9.76326 29.8555C9.37721 30.021 9.01873 29.9934 8.63268 29.9934C8.46723 29.9934 8.32936 29.9934 8.19148 30.1037C8.05361 30.214 7.88816 30.2692 7.72271 30.2692C7.30908 30.2967 6.95061 30.4346 6.59213 30.6276C6.26123 30.2967 5.98548 29.9383 5.7373 29.5798Z" fill="#ED57A3"/>
<path d="M15.2782 24.2851C15.0852 24.423 14.8921 24.4506 14.6715 24.5057C14.4234 24.5885 14.2028 24.6436 13.927 24.6712C13.4582 24.7539 12.9619 24.7815 12.5207 24.9469C12.2725 25.0572 11.9416 25.0572 11.6659 25.0572C11.1971 25.0572 10.8386 25.4157 10.3698 25.3881C10.0665 25.3606 9.79075 25.4157 9.515 25.6087C9.32198 25.7466 8.99108 25.6639 8.71533 25.6915C8.38443 25.6915 8.0811 25.7742 7.80535 25.8845C7.39173 26.0224 6.95053 25.9121 6.5369 26.1327C6.34388 26.243 6.01298 26.243 5.7648 26.2981C5.37875 26.3533 4.9927 26.436 4.63423 26.5739C4.38605 26.6566 4.1103 26.5739 3.83455 26.7117C3.6691 26.4911 3.5588 26.243 3.47607 25.9672C4.02757 25.7742 4.63423 25.7466 5.18573 25.6087C5.68208 25.4709 6.23358 25.4984 6.72993 25.2778C7.33658 25.0297 7.99838 25.0848 8.6326 24.9745C9.21168 24.8642 9.76318 24.7539 10.2871 24.5609C10.5077 24.4782 10.7559 24.4782 11.0041 24.4506C11.9416 24.2851 12.8792 24.1197 13.8167 23.8439C14.0925 23.7612 14.4234 23.8164 14.6991 23.7336C14.9749 23.8439 15.2506 23.9267 15.2782 24.2851Z" fill="#D562AB"/>
<path d="M14.7268 23.7613C14.4786 23.8716 14.1753 23.844 13.9271 23.9267C13.5411 24.037 13.1274 23.9819 12.7965 24.2025C12.6035 24.3403 12.4381 24.23 12.245 24.2852C11.6935 24.4231 11.1145 24.5334 10.5354 24.5609C10.4802 24.5609 10.4251 24.5609 10.3975 24.5885C9.92874 24.8918 9.37724 24.8918 8.88089 25.0021C8.43969 25.0849 7.97092 25.1952 7.50214 25.1676C7.25396 25.14 6.97821 25.2779 6.70246 25.3606C6.37156 25.4709 6.04066 25.5261 5.68219 25.5812C5.43401 25.6088 5.10311 25.6364 4.85494 25.7467C4.46889 25.8845 4.05526 25.8294 3.66921 25.9948C3.61406 26.0224 3.53134 25.9673 3.47619 25.9673C3.36589 25.8294 3.31074 25.6364 3.25559 25.4709C3.20044 25.333 3.17286 25.1676 3.42104 25.2503C3.77951 25.3882 4.11041 25.333 4.44131 25.1676C4.60676 25.0849 4.79979 25.14 4.96524 25.1124C5.54431 25.0297 6.12339 24.8918 6.67489 24.7264C7.52971 24.5058 8.38454 24.2852 9.23937 24.1473C9.92874 24.037 10.6181 23.8716 11.3351 23.7888C11.9417 23.7061 12.5484 23.5407 13.155 23.4304C13.5135 23.3752 13.8168 23.1546 14.2029 23.2373C14.451 23.3476 14.6716 23.4855 14.7268 23.7613Z" fill="#D064AD"/>
<path d="M6.5918 30.6001C6.72967 30.3243 7.00542 30.2967 7.2536 30.214C7.5845 30.1037 7.97055 30.214 8.27387 29.8831C8.3566 29.7728 8.6875 29.828 8.9081 29.8555C9.18385 29.9107 9.40445 29.8004 9.65263 29.7452C10.0663 29.6349 10.4799 29.4143 10.9211 29.5522C11.0314 29.5798 11.1417 29.5798 11.2244 29.5246C11.2796 29.4971 11.3623 29.4143 11.4174 29.4419C11.7483 29.5246 11.9965 29.3592 12.2171 29.1662C12.3826 29.0283 12.6032 29.0559 12.6583 29.3316C12.162 29.8555 11.638 30.3519 11.059 30.7655C10.7832 30.8207 10.5626 30.931 10.2593 30.8207C10.0663 30.7655 9.84565 31.0137 9.59747 31.0688C8.99082 31.1791 8.41175 31.3446 7.8051 31.4825C7.6948 31.51 7.61207 31.5652 7.50177 31.5928C7.19845 31.317 6.86755 30.9861 6.5918 30.6001Z" fill="#F255A2"/>
<path d="M2.95218 24.5885C2.84188 24.4231 2.81431 24.2301 2.81431 24.0095C2.73158 23.7613 2.86946 23.6234 3.09006 23.651C3.91731 23.651 4.68941 23.3752 5.46151 23.1546C5.54423 23.1271 5.65453 23.1546 5.73726 23.1271C6.12331 23.0719 6.53693 23.1271 6.92298 22.9065C7.08843 22.8237 7.30903 22.7962 7.50206 22.7962C8.30173 22.7962 9.01868 22.4653 9.79078 22.355C10.7008 22.2171 11.6107 22.0241 12.5207 21.8035C12.6034 21.7759 12.6862 21.7759 12.7689 21.7759C13.0171 21.8862 13.2101 22.0241 13.2377 22.2998C13.2101 22.4377 13.1274 22.4928 12.9895 22.5204C12.5483 22.548 12.0795 22.6031 11.6383 22.741C11.1695 22.8789 10.7283 22.9616 10.2596 23.0443C9.73564 23.1546 9.21171 23.2925 8.68778 23.3477C8.46718 23.3752 8.24658 23.4304 8.02598 23.4855C7.55721 23.6234 7.11601 23.7061 6.61966 23.6786C6.48178 23.6786 6.34391 23.7061 6.23361 23.7889C5.87513 23.9819 5.48908 24.0095 5.07546 24.0095C4.99273 24.0095 4.93758 24.0095 4.85486 24.037C4.30336 24.3679 3.58641 24.3128 2.95218 24.5885Z" fill="#C26AB2"/>
<path d="M14.2024 23.2649C13.7612 23.3752 13.32 23.4579 12.8513 23.5406C12.5204 23.5958 12.217 23.6785 11.8861 23.7337C11.5277 23.8164 11.1416 23.844 10.7831 23.9543C10.3695 24.0646 9.92832 24.1197 9.51469 24.2024C9.04592 24.2852 8.60471 24.3679 8.13594 24.4782C7.83261 24.5609 7.50171 24.7539 7.14324 24.6436C6.97779 24.5885 6.83991 24.8091 6.64689 24.8367C6.34356 24.8918 5.98509 24.8642 5.76449 25.14C5.62661 25.3054 5.68176 24.947 5.48874 25.0573C5.10269 25.2779 4.63391 25.1676 4.22029 25.3606C3.97211 25.4709 3.66879 25.4985 3.39304 25.333C3.17244 25.1951 3.31031 25.4158 3.25516 25.4709C3.17244 25.3606 3.14486 25.2227 3.11729 25.0848C3.06214 24.947 3.03456 24.8642 3.22759 24.8367C3.97211 24.7539 4.68906 24.5609 5.40601 24.3679C6.04024 24.23 6.72961 24.23 7.30869 23.8991C7.50171 23.7888 7.72231 23.9543 7.91534 23.8991C8.57714 23.6509 9.29409 23.7337 9.95589 23.4855C10.5901 23.2373 11.2795 23.2925 11.9137 23.0443C12.1619 22.934 12.4376 23.0719 12.6858 22.9891C13.0443 22.9064 13.3752 22.7134 13.7337 22.7685C13.9543 22.9064 14.1749 22.9891 14.2024 23.2649Z" fill="#CC66AE"/>
<path d="M13.7613 22.8514C13.3477 22.9341 12.9616 23.1271 12.548 23.0995C11.9689 23.072 11.4726 23.3753 10.9211 23.3753C10.4523 23.3753 9.98355 23.5959 9.51477 23.7338C9.45962 23.7338 9.43205 23.8165 9.40447 23.8165C8.85297 23.651 8.35662 24.0647 7.86027 24.0095C7.2812 23.9544 6.75727 24.2025 6.23334 24.3128C5.29579 24.5059 4.30309 24.6437 3.39312 24.9471C3.28282 24.9746 3.08979 24.8368 3.14494 25.1125C3.03464 24.9746 3.00707 24.7816 2.97949 24.6162C3.20009 24.368 3.50342 24.368 3.77917 24.2853C4.13764 24.175 4.49612 24.2301 4.85459 24.0095C5.10277 23.8441 5.48882 24.0095 5.79214 23.9268C5.90244 23.8992 6.01274 23.8992 6.09547 23.8441C6.53667 23.5683 7.03302 23.6786 7.5018 23.6235C7.7224 23.5959 7.88785 23.4856 8.13602 23.458C8.79782 23.3753 9.43205 23.2374 10.0663 23.072C10.4799 22.9617 10.9211 22.9617 11.3347 22.7962C11.6105 22.6859 11.9414 22.6583 12.2723 22.6308C12.6307 22.5756 12.9892 22.5756 13.2926 22.4102C13.5407 22.4102 13.7338 22.548 13.7613 22.8514Z" fill="#C768B0"/>
<path d="M12.8239 21.8312C12.2448 21.9415 11.6933 22.1897 11.0866 22.1621C10.9212 22.1621 10.7557 22.3 10.5627 22.3276C10.0664 22.4379 9.57002 22.4654 9.07367 22.5482C8.74277 22.6033 8.43945 22.8239 8.0534 22.8239C7.7225 22.8239 7.36402 22.8239 7.08827 22.9894C6.5092 23.3203 5.8474 23.0997 5.26832 23.3478C4.93742 23.4857 4.57895 23.4857 4.24805 23.596C3.862 23.7339 3.47595 23.7615 3.08989 23.7339C2.89687 23.7339 2.81414 23.8442 2.81414 24.0372C2.73142 23.8442 2.70384 23.6512 2.67627 23.4306C3.11747 23.1548 3.6414 23.1548 4.11017 23.0169C4.90985 22.7963 5.70952 22.7136 6.5092 22.5206C6.89525 22.4379 7.2813 22.3551 7.66735 22.3276C8.02582 22.3 8.3843 22.1897 8.74277 22.107C9.01852 22.0242 9.29427 21.9139 9.5976 21.9967C9.68032 22.0242 9.79062 21.9967 9.87335 21.9415C10.0388 21.7485 10.287 21.7209 10.5076 21.7209C11.0315 21.7485 11.4727 21.4727 11.9691 21.4452C12.1621 21.4452 12.3275 21.39 12.493 21.4452C12.686 21.5003 12.8515 21.6106 12.8239 21.8312Z" fill="#BD6DB3"/>
<path d="M12.5205 21.4726C12.1621 21.3899 11.7208 21.4726 11.4727 21.6105C11.0315 21.8587 10.6178 21.7208 10.2042 21.8035C10.0939 21.8311 10.0663 21.8862 10.0112 21.9414C9.92847 22.0517 9.7906 22.1068 9.65272 22.0793C9.04607 21.9138 8.54972 22.2723 7.97065 22.355C7.83277 22.3826 7.72247 22.3826 7.5846 22.3826C7.22612 22.4102 6.86765 22.4653 6.53675 22.5756C6.23342 22.6859 5.90252 22.7686 5.62677 22.7962C4.68922 22.9341 3.77924 23.1823 2.84169 23.4029C2.78654 23.4304 2.73139 23.4029 2.64867 23.4029C2.64867 23.265 2.64867 23.1271 2.62109 22.9617C2.67624 22.7686 2.78654 22.6859 2.97957 22.6859C3.36562 22.6859 3.72409 22.5205 4.11014 22.4653C4.77195 22.355 5.43375 22.2171 6.09555 22.1068C6.42645 22.0517 6.72977 21.9414 7.06067 21.8587C7.61217 21.7208 8.19125 21.6381 8.77032 21.5553C9.2391 21.4726 9.73545 21.3899 10.1766 21.2244C10.5903 21.0866 11.0315 21.0038 11.4451 21.0038C11.6657 21.0038 11.8863 20.8384 12.1069 20.9211C12.3551 21.0866 12.5481 21.1969 12.5205 21.4726Z" fill="#B86EB5"/>
<path d="M2.67627 22.4103C2.67627 22.2724 2.70384 22.107 2.70384 21.9691C2.73142 21.8588 2.84172 21.8312 2.92444 21.8312C3.5311 21.7485 4.11017 21.6658 4.68925 21.5003C5.32347 21.3349 5.9577 21.2246 6.59192 21.0867C6.78495 21.0315 7.00555 21.0591 7.19857 21.004C8.24642 20.7558 9.32185 20.5903 10.3421 20.3146C10.4524 20.287 10.5627 20.2319 10.6455 20.2594C10.9212 20.3697 11.1418 20.2319 11.3348 20.0664C11.6106 20.1491 11.7209 20.3422 11.776 20.6179C11.6106 20.7834 11.4451 20.8937 11.1969 20.8385C11.1142 20.8109 11.0591 20.8385 10.9763 20.8661C10.4524 21.1418 9.87335 21.1694 9.34942 21.2521C8.7152 21.3624 8.0534 21.5003 7.41917 21.6382C6.89525 21.7485 6.34375 21.7761 5.81982 21.9967C5.6268 22.0794 5.4062 21.9691 5.21317 22.0242C4.5238 22.1897 3.83442 22.3 3.17262 22.493C3.03474 22.493 2.84172 22.6309 2.67627 22.4103Z" fill="#AF73B8"/>
<path d="M2.67636 22.4103C2.75909 22.4655 2.84181 22.4655 2.95211 22.4379C3.53119 22.1897 4.22056 22.2449 4.79964 21.9691C4.96509 21.8864 5.18569 21.914 5.32357 21.914C5.76477 21.9415 6.15082 21.7209 6.53687 21.6934C7.25382 21.6382 7.94319 21.39 8.63257 21.2797C9.45982 21.1419 10.2871 21.0591 11.0592 20.7834C11.2522 20.7007 11.5555 20.7558 11.7761 20.6455C11.9691 20.7282 12.1622 20.811 12.1346 21.0867C11.5555 21.1694 10.9213 21.197 10.3698 21.39C9.90102 21.5555 9.40467 21.6934 8.93589 21.7209C8.46712 21.7761 8.05349 21.9691 7.58472 21.914C7.19867 21.8864 6.78504 22.0243 6.50929 22.1621C6.23354 22.3 5.98537 22.1621 5.73719 22.3C5.48902 22.4103 5.21326 22.4655 4.90994 22.493C4.33086 22.5758 3.75179 22.7136 3.17271 22.8239C2.97969 22.8515 2.75909 22.8239 2.64879 23.017C2.59364 22.7964 2.59364 22.6033 2.67636 22.4103Z" fill="#B470B6"/>
<path d="M11.39 20.0662C11.2521 20.342 11.0866 20.4523 10.7282 20.342C10.48 20.2593 10.1767 20.4247 9.90092 20.5074C9.32185 20.6729 8.74277 20.8659 8.10855 20.8659C8.02582 20.8659 7.91552 20.8935 7.86037 20.9486C7.6122 21.1692 7.30887 21.0865 7.03312 21.1141C6.59192 21.1692 6.15072 21.3071 5.70952 21.3623C5.21317 21.445 4.7444 21.6104 4.27562 21.6932C3.7517 21.7759 3.20019 21.8862 2.67627 21.9689C2.70384 21.8035 2.75899 21.638 2.78657 21.4726C3.03474 21.2795 3.33807 21.2795 3.6414 21.252C3.83442 21.252 4.02745 21.1692 4.22047 21.1141C4.55137 21.0314 4.90985 21.0038 5.26832 20.9486C5.37862 20.9211 5.48892 20.9486 5.59922 20.8935C5.93012 20.6453 6.37132 20.6729 6.7298 20.6177C7.97067 20.3971 9.21155 20.1765 10.4248 19.8732C10.6454 19.8181 10.8936 19.7905 11.1142 19.7078C11.3348 19.7629 11.4451 19.8732 11.39 20.0662Z" fill="#AB75B9"/>
<path d="M11.1695 19.7355C10.9213 20.0113 10.5077 19.9837 10.2319 20.0389C9.3495 20.2043 8.52225 20.4801 7.61228 20.5628C7.1435 20.5904 6.67472 20.7558 6.20595 20.811C5.8199 20.8661 5.43385 21.0591 5.02022 21.1143C4.8272 21.1419 4.66175 21.3073 4.44115 21.1419H4.41357C3.9448 21.5279 3.33815 21.2797 2.8418 21.5003C2.86937 21.2797 2.9521 21.0867 3.0624 20.8937C3.58632 20.9488 4.0551 20.7282 4.55145 20.6179C4.77205 20.5628 4.99265 20.6179 5.18567 20.5352C5.7096 20.3422 6.2611 20.3146 6.8126 20.1492C7.1435 20.0389 7.50198 19.9837 7.83288 19.9561C8.5774 19.901 9.29435 19.6804 10.0113 19.5149C10.3422 19.4322 10.6731 19.4046 11.004 19.4322C11.1143 19.4598 11.2246 19.5701 11.1695 19.7355Z" fill="#A677BB"/>
<path d="M10.9487 19.432C10.2869 19.4872 9.6251 19.625 8.99087 19.8181C8.1912 20.0662 7.33637 19.8732 6.59185 20.3144C6.56427 20.342 6.50912 20.3144 6.48155 20.3144C5.98519 20.2317 5.59914 20.5626 5.13037 20.5902C4.52372 20.6453 3.94464 20.7832 3.39314 20.9486C3.25527 20.9762 3.14497 20.8935 3.03467 20.8383C3.08982 20.6453 3.17254 20.4799 3.31042 20.342C3.47587 20.2317 3.64132 20.2041 3.83434 20.2041C4.19282 20.2041 4.55129 20.0938 4.88219 20.0111C5.65429 19.8456 6.39882 19.7078 7.17092 19.5975C7.6397 19.5147 8.10847 19.3493 8.57725 19.2666C9.10117 19.1838 9.6251 18.9632 10.2042 19.046C10.3696 19.0735 10.4799 18.8529 10.6729 18.9357C10.866 19.0735 11.0314 19.1838 10.9487 19.432Z" fill="#A179BD"/>
<path d="M10.6457 18.9908C10.3976 19.2389 10.0667 19.0735 9.79091 19.1562C9.46001 19.2389 9.15668 19.3492 8.79821 19.3217C8.77063 19.3217 8.74306 19.3217 8.71548 19.3492C8.05368 19.6802 7.30916 19.7077 6.59221 19.8456C6.34403 19.9008 6.06828 20.1214 5.76495 19.9559C5.5995 20.3144 5.29618 19.9559 5.07558 20.0662C4.85498 20.2041 4.57923 20.2592 4.33105 20.3144C3.97258 20.3971 3.64168 20.3695 3.2832 20.3971C3.36593 20.2041 3.5038 20.0386 3.64168 19.8732C4.57923 19.625 5.51678 19.5423 6.45433 19.3217C7.25401 19.1286 8.08126 18.9908 8.90851 18.8529C9.40486 18.7702 9.90121 18.5771 10.4251 18.6047C10.6182 18.6599 10.7285 18.7702 10.6457 18.9908Z" fill="#9C7BBE"/>
<path d="M10.4248 10.5254C11.2245 9.75325 12.2172 9.44993 13.2926 9.28448C14.2026 9.1466 15.1126 9.22933 16.0225 9.3672C15.8571 9.6981 15.5262 9.6981 15.2229 9.72568C14.2853 9.83598 13.3753 10.0842 12.4378 10.2772C11.8311 10.3875 11.2521 10.4978 10.6454 10.6081C10.5903 10.6357 10.4524 10.6908 10.4248 10.5254Z" fill="#27AFE5"/>
<path d="M10.4524 18.6323C10.0388 18.6599 9.65272 18.8529 9.2391 18.8805C8.9082 18.8805 8.5773 18.9632 8.27397 19.1287C8.10852 19.2114 7.97065 19.1287 7.8052 19.1838C7.50187 19.3217 7.08825 19.2114 6.8125 19.4596C6.39887 19.239 6.06797 19.5147 5.68192 19.5975C5.10285 19.7078 4.52377 19.6802 3.97227 19.9008C3.86197 19.9559 3.75167 19.9008 3.66895 19.8456C3.75167 19.7078 3.8344 19.5423 3.97227 19.432C4.52377 19.3217 5.07527 19.1838 5.65435 19.1011C6.39887 18.9908 7.1434 18.7978 7.86035 18.6599C8.467 18.5496 9.07365 18.4393 9.6803 18.2463C9.84575 18.1911 10.0388 18.2463 10.2042 18.1636C10.4248 18.2739 10.5076 18.4117 10.4524 18.6323Z" fill="#987DC0"/>
<path d="M10.2044 18.2188C10.2044 18.274 10.1492 18.3843 10.1216 18.3567C9.8183 18.1912 9.57013 18.467 9.29438 18.4946C8.90833 18.4946 8.52228 18.5497 8.1638 18.7427C7.99835 18.8255 7.80533 18.853 7.63988 18.853C6.81263 18.8806 6.0681 19.2942 5.26843 19.2942C4.82722 19.2942 4.4136 19.6803 3.94482 19.4597C4.02755 19.2942 4.11027 19.1564 4.24815 19.0461C4.60662 18.7979 5.04782 18.7703 5.46145 18.7152C5.93023 18.6324 6.42658 18.5773 6.89535 18.4946C7.2814 18.4394 7.66745 18.3843 8.02593 18.1912C8.2741 18.0809 8.54985 18.1361 8.79803 18.0809C9.18408 17.9982 9.5977 17.8879 9.98375 17.8328C10.1768 17.9155 10.3147 17.9982 10.2044 18.2188Z" fill="#927FC1"/>
<path d="M7.52979 31.6202C7.64009 31.2893 7.97099 31.3721 8.19159 31.3169C8.77066 31.179 9.34974 31.0412 9.92881 30.8757C10.1494 30.8206 10.3149 30.5448 10.5906 30.8206C10.7009 30.9309 10.9215 30.6 11.1145 30.7654C10.2873 31.5375 9.40489 32.1442 8.21916 32.2545C7.94341 32.089 7.72281 31.8684 7.52979 31.6202Z" fill="#F553A1"/>
<path d="M10.4249 10.5253C10.7834 10.4978 11.1419 10.4426 11.5003 10.3047C11.6382 10.2496 11.8312 10.2496 11.9967 10.2496C12.4103 10.2496 12.7964 10.029 13.1824 10.0014C13.7063 9.94626 14.1751 9.78081 14.699 9.72566C15.1402 9.69809 15.609 9.64294 15.9951 9.36719C16.2984 9.36719 16.5741 9.42234 16.8775 9.50506C16.905 9.64294 16.8499 9.75324 16.712 9.78081C16.2432 9.83596 15.7745 10.1117 15.2781 10.029C15.223 10.029 15.2781 10.0014 15.2505 10.029C14.7542 10.3599 14.12 10.222 13.596 10.4426C13.2376 10.5529 12.8515 10.6081 12.493 10.6632C12.3276 10.6081 12.2173 10.7184 12.107 10.7735C12.0794 10.7735 12.0518 10.7735 11.9967 10.7735C11.5279 10.8011 11.0591 10.8562 10.6179 11.0217C10.3973 11.0768 10.2319 11.1596 10.1216 10.8838C10.2043 10.7459 10.287 10.6081 10.4249 10.5253Z" fill="#2EACE3"/>
<path d="M10.0391 17.8328C9.54271 18.081 9.01878 18.1361 8.49486 18.1913C7.80548 18.274 7.19883 18.5222 6.50946 18.6049C5.90281 18.6876 5.29615 18.7428 4.6895 18.9082C4.55163 18.9358 4.44133 19.1288 4.27588 19.0185C4.41375 18.7979 4.52405 18.6049 4.71708 18.4119C4.85495 18.4394 4.96525 18.467 5.1307 18.4119C5.3513 18.3016 5.59948 18.2464 5.87523 18.274C6.09583 18.3016 6.23371 18.1085 6.45431 18.081C6.86793 18.0258 7.30913 17.9982 7.69518 17.8604C8.38456 17.6398 9.18423 17.7225 9.84603 17.3364C10.0115 17.4467 10.0666 17.6122 10.0391 17.8328Z" fill="#8D82C3"/>
<path d="M9.79083 17.3363C9.73568 17.6396 9.40478 17.5844 9.21176 17.6672C9.04631 17.7223 8.82571 17.805 8.63268 17.7775C8.19148 17.6947 7.86058 18.0256 7.41938 18.0256C7.19878 18.0256 6.9506 18.0532 6.73 18.1084C6.23365 18.2738 5.7373 18.3565 5.21338 18.4668C5.02035 18.522 4.8549 18.715 4.68945 18.4117C4.79975 18.2187 4.91005 18.0532 5.04793 17.9153C5.32368 17.9981 5.59943 17.8878 5.87518 17.8326C6.1785 17.7775 6.5094 17.6947 6.81273 17.612C7.30908 17.4741 7.83301 17.4741 8.32936 17.3363C8.77056 17.1984 9.23933 17.2811 9.62538 16.9778C9.81841 17.0329 9.87356 17.1708 9.79083 17.3363Z" fill="#8884C5"/>
<path d="M9.65265 16.9778C9.65265 17.3638 9.29417 17.226 9.12872 17.2535C8.74267 17.3087 8.35662 17.3914 7.99815 17.5017C7.63967 17.5844 7.2812 17.5293 6.92272 17.6672C6.42637 17.8602 5.87487 17.8878 5.37852 18.0256C5.24065 18.0532 5.10277 18.1084 5.0752 17.9153C5.15792 17.7499 5.24065 17.612 5.37852 17.5017C5.737 17.5844 6.0679 17.3638 6.42637 17.3363C6.86757 17.2811 7.30877 17.1984 7.7224 17.0605C7.77755 17.0329 7.8327 17.0054 7.88785 17.0054C8.30147 16.9502 8.74267 16.9502 9.1563 16.7848C9.29417 16.7296 9.45962 16.7296 9.62507 16.8123C9.65265 16.8399 9.7078 16.8951 9.65265 16.9778Z" fill="#8486C6"/>
<path d="M6.31641 16.1783C6.37156 16.0404 6.48186 15.9026 6.59216 15.7923C7.11608 15.6268 7.64001 15.6544 8.16393 15.5165C8.85331 15.3511 9.54268 15.2683 10.2321 15.0477C10.3975 14.9926 10.5354 15.0753 10.7008 15.0477C10.8111 15.0753 10.8111 15.158 10.8111 15.2683C10.7836 15.4889 10.5905 15.5441 10.4251 15.5992C10.2321 15.6544 10.0115 15.7095 9.79086 15.7095C9.54268 15.5441 9.37723 15.7095 9.23936 15.9026C8.43968 16.0404 7.64001 16.0956 6.86791 16.2886C6.59216 16.3989 6.42671 16.3438 6.31641 16.1783Z" fill="#718FCD"/>
<path d="M10.6729 15.0752C10.4799 15.2407 10.2041 15.1304 9.98352 15.2131C9.65262 15.351 9.26657 15.4889 8.9081 15.4613C8.3566 15.4337 7.9154 15.8749 7.3639 15.6819C7.28117 15.6543 7.17087 15.737 7.06057 15.7922C6.89512 15.8473 6.75725 15.9576 6.5918 15.7922C6.64695 15.6267 6.78482 15.4889 6.89512 15.3786C7.11572 15.4061 7.30875 15.3234 7.50177 15.2683C8.05327 15.1028 8.65992 15.0752 9.21142 14.9649C9.3493 14.9374 9.51475 14.8822 9.65262 14.8271C9.87322 14.8546 10.0662 14.7168 10.2593 14.6892C10.3971 14.6616 10.5074 14.634 10.6453 14.7168C10.728 14.8271 10.7556 14.9374 10.6729 15.0752Z" fill="#6C91CE"/>
<path d="M6.31643 16.1782C6.50946 16.3437 6.78521 16.2885 6.95066 16.2058C7.58488 15.9576 8.30183 16.0679 8.93606 15.8473C9.04636 15.8197 9.15666 15.8749 9.29453 15.8749C9.40483 15.9025 9.40483 15.9852 9.43241 16.0679C9.43241 16.1782 9.37726 16.2885 9.23938 16.2885C8.52243 16.2885 7.88821 16.5918 7.19883 16.7297C6.84036 16.7849 6.48188 16.7849 6.15098 16.8952C6.04068 16.9227 5.93038 16.9227 5.84766 16.8124C5.95796 16.5918 6.12341 16.3712 6.31643 16.1782Z" fill="#768CCB"/>
<path d="M9.59765 16.8125C8.90828 16.978 8.19133 16.978 7.50195 17.2262C7.19863 17.3365 6.81258 17.3916 6.48168 17.4192C6.2335 17.4468 5.98533 17.4192 5.76473 17.5571C5.62685 17.6398 5.48898 17.6398 5.40625 17.4743C5.48898 17.364 5.54412 17.2813 5.62685 17.171C6.53683 16.8677 7.50195 16.785 8.4395 16.5368C8.7704 16.4541 9.15645 16.3989 9.48735 16.3713C9.62523 16.4816 9.68038 16.6471 9.59765 16.8125Z" fill="#7F88C8"/>
<path d="M36.1527 24.8092C35.739 24.6713 35.3254 24.5058 34.8842 24.5334C34.636 24.2852 34.4154 24.0371 34.4982 23.651C34.8291 23.4028 35.1875 23.4028 35.5736 23.4028C35.7942 23.8716 36.0424 24.3128 36.1527 24.8092Z" fill="#ED57A3"/>
<path d="M9.43205 16.3712C9.2666 16.5918 8.99085 16.5642 8.77025 16.5918C8.1636 16.647 7.58452 16.8676 7.00545 16.9779C6.53667 17.0606 6.0679 17.1433 5.6267 17.2812C5.6267 17.2812 5.59912 17.226 5.59912 17.1985C5.65427 17.0606 5.737 16.9227 5.87487 16.84C6.09547 16.8676 6.31607 16.8676 6.5091 16.7297C6.75727 16.5642 7.00545 16.7021 7.2812 16.647C7.8327 16.5091 8.35662 16.2885 8.90812 16.2333C9.07358 16.2058 9.29418 16.3436 9.3769 16.123C9.54235 16.1506 9.4872 16.2609 9.43205 16.3712Z" fill="#7B8AC9"/>
<path d="M35.5457 23.4305C35.2148 23.6235 34.8011 23.5132 34.4702 23.7338C34.1669 23.5408 34.0566 23.2651 34.0015 22.9342C34.029 22.7963 34.1118 22.7136 34.2496 22.7136C34.5254 22.686 34.8011 22.5757 35.0769 22.5757C35.2975 22.7963 35.4354 23.0996 35.5457 23.4305Z" fill="#E75AA5"/>
<path d="M13.6235 10.3875C13.8993 10.2497 14.2026 10.1945 14.5059 10.1945C14.7265 10.1945 14.892 10.1669 15.0574 10.0015C15.1126 9.94634 15.1953 9.89119 15.2505 9.91877C15.7744 10.1394 16.2156 9.72574 16.7395 9.72574C16.8222 9.72574 16.8498 9.61544 16.905 9.53271C17.2083 9.61544 17.5392 9.67059 17.8425 9.75331C17.8701 9.91877 17.7322 9.91877 17.6219 9.94634C17.4565 10.0015 17.2634 10.0015 17.098 10.0291C16.4362 10.1118 15.8295 10.3048 15.1953 10.4978C14.8093 10.5254 14.4232 10.5254 14.0372 10.4978C13.8717 10.4978 13.7338 10.4978 13.6235 10.3875Z" fill="#33AAE1"/>
<path d="M32.154 18.7151C32.4022 18.9081 32.6228 19.1563 32.8158 19.432C32.5952 19.6251 32.347 19.7354 32.0713 19.7905C31.961 19.8181 31.8507 19.8457 31.7404 19.9008C31.4371 19.7078 31.1613 19.4872 31.0234 19.1287C31.0234 19.1011 31.0234 19.046 31.051 19.0184C31.4095 18.853 31.768 18.7151 32.154 18.7151Z" fill="#CA67AF"/>
<path d="M32.1542 18.7152C31.8233 18.8531 31.5199 18.991 31.1615 19.0185C31.1063 19.0185 31.0787 19.1013 31.0787 19.1564C30.6927 19.0461 30.4721 18.7428 30.3066 18.4119C30.3342 18.3016 30.3894 18.2464 30.4997 18.2464C30.8581 18.2464 31.2166 18.081 31.5751 18.1086C31.7957 18.3016 31.9887 18.4946 32.1542 18.7152Z" fill="#C36AB2"/>
<path d="M33.4225 20.1491C33.6431 20.3421 33.781 20.5627 33.9188 20.8109C33.8637 20.9487 33.7534 20.9763 33.6155 20.9487C33.3122 20.8936 33.0364 20.9763 32.7607 21.059C32.4022 20.9487 32.2092 20.673 32.1265 20.3145C32.4022 20.0663 33.0364 19.9836 33.4225 20.1491Z" fill="#D562AC"/>
<path d="M35.0493 22.548C34.8563 22.6859 34.6081 22.7135 34.3599 22.741C34.1945 22.741 34.0842 22.7962 34.029 22.9341C33.6981 22.7686 33.5878 22.4377 33.4775 22.1068C33.6981 21.7759 34.029 21.8862 34.3324 21.8586C34.4427 21.8586 34.553 21.8586 34.6908 21.8862C34.8287 22.1068 34.9942 22.2998 35.0493 22.548Z" fill="#E35CA7"/>
<path d="M23.7712 12.2073C24.0194 12.2349 24.2124 12.4555 24.433 12.5658C24.2951 12.9794 23.9091 12.9242 23.6333 12.9794C23.3852 13.007 23.1094 13.007 22.8612 13.007C22.5855 12.9242 22.2821 12.8691 22.1167 12.5933C22.227 12.4555 22.3924 12.3452 22.5303 12.3727C22.944 12.4279 23.33 12.2073 23.7712 12.2073Z" fill="#6F90CE"/>
<path d="M15.2783 10.3874C15.885 10.0841 16.5743 10.0013 17.2361 9.89104C17.4292 9.86346 17.6498 9.89104 17.8152 9.72559C18.0082 9.72559 18.1461 9.80831 18.3391 9.86346C18.5046 10.0841 18.3116 10.1116 18.2013 10.1116C17.5119 10.1944 16.8501 10.3598 16.1883 10.5804C15.8574 10.5804 15.5265 10.6631 15.2783 10.3874Z" fill="#38A8E0"/>
<path d="M22.8062 12.9244C23.2474 12.8141 23.7437 12.952 24.1849 12.7314C24.2952 12.6762 24.3504 12.6486 24.4331 12.5659C24.6537 12.6486 24.8467 12.7865 25.0122 12.9244C25.0949 13.2277 24.8467 13.2553 24.6813 13.2553C24.3504 13.2553 24.047 13.3104 23.7713 13.4759C23.3577 13.3932 23.0268 13.2553 22.8062 12.9244Z" fill="#768DCB"/>
<path d="M33.4223 20.1491C32.9811 20.1215 32.5675 20.1215 32.1814 20.3697C31.9333 20.2869 31.7678 20.1491 31.7402 19.8457C31.7402 19.763 31.7954 19.6527 31.8781 19.6527C32.2642 19.763 32.4848 19.4321 32.8432 19.4045C33.0363 19.6527 33.2569 19.9009 33.4223 20.1491Z" fill="#D065AD"/>
<path d="M34.6909 21.9139C34.5806 21.9967 34.4979 21.9967 34.36 21.9691C34.0843 21.9415 33.7809 21.9415 33.5328 22.1345C33.257 22.0794 33.1743 21.8588 33.1191 21.6382C33.2019 21.4176 33.3949 21.3073 33.6155 21.2797C33.8085 21.2521 34.0291 21.2246 34.2497 21.2521C34.4152 21.4452 34.5806 21.6658 34.6909 21.9139Z" fill="#DF5EA9"/>
<path d="M19.4144 10.2495C19.6351 10.3047 19.8557 10.3874 20.0763 10.4977C20.1314 10.7459 19.9384 10.7734 19.8005 10.7734C19.2214 10.8286 18.6699 10.9389 18.1184 11.0768C17.9254 11.0768 17.7599 11.0492 17.6221 10.8837C17.6496 10.5253 17.953 10.5253 18.1736 10.4977C18.5872 10.415 19.0008 10.3047 19.4144 10.2495Z" fill="#46A2DB"/>
<path d="M29.3414 16.0403C29.5344 16.1782 29.6999 16.2885 29.8378 16.4815C29.8653 16.6469 29.7275 16.6469 29.6172 16.6469C29.2311 16.7297 28.8726 16.9503 28.459 16.8124C28.2384 16.7572 28.1005 16.5918 27.9902 16.3988C27.9902 16.3712 27.9902 16.3436 28.0178 16.3436C28.4866 16.2609 28.8726 15.9576 29.3414 16.0403Z" fill="#AA76BA"/>
<path d="M30.6925 17.2812C30.858 17.3916 31.0234 17.5294 31.1613 17.6949C31.0234 17.9982 30.7201 17.9706 30.4719 18.0258C30.3065 18.0534 30.141 18.0809 30.0032 18.1085C29.755 18.0258 29.5895 17.8603 29.4517 17.6397C29.5068 17.2537 29.8377 17.3364 30.0859 17.3088C30.2789 17.3088 30.4995 17.2812 30.6925 17.2812Z" fill="#B96EB5"/>
<path d="M16.2158 10.5253C16.4088 10.415 16.6019 10.3323 16.7949 10.3323C17.2637 10.3323 17.6773 10.0014 18.1736 10.0841C18.2564 10.0841 18.4218 10.0841 18.3391 9.89111C18.5873 9.97384 18.8079 10.029 19.056 10.1117C19.1388 10.3047 18.9733 10.2772 18.863 10.3047C18.4494 10.415 17.9806 10.3875 17.5946 10.5529C17.2912 10.6908 16.9603 10.7184 16.657 10.6908C16.4916 10.6908 16.3261 10.6908 16.2158 10.5253Z" fill="#3DA6DE"/>
<path d="M26.0878 13.5862C26.3084 13.6965 26.5014 13.8344 26.6669 13.9998C26.6669 14.1653 26.529 14.1928 26.4187 14.1928C26.0326 14.248 25.6742 14.3583 25.3157 14.4134C25.0951 14.3859 24.9296 14.3031 24.8193 14.0825C24.9296 13.7792 25.0951 13.6413 25.4536 13.6689C25.6742 13.7241 25.8672 13.6689 26.0878 13.5862Z" fill="#8785C6"/>
<path d="M8.49463 13.1449C8.57735 13.007 8.66008 12.8692 8.77038 12.7589C9.15643 12.621 9.59763 12.5383 9.98368 12.3728C10.1767 12.2901 10.3973 12.2901 10.5352 12.4831C10.5903 12.5934 10.5903 12.7037 10.5076 12.7864C10.094 13.1449 9.54248 13.0346 9.07371 13.2001C8.93583 13.2552 8.79795 13.2552 8.66008 13.3104C8.54978 13.3379 8.5222 13.3104 8.49463 13.1449Z" fill="#4BA0D9"/>
<path d="M7.97085 13.862C8.026 13.7517 8.08115 13.6414 8.19145 13.5863C8.54992 13.4208 8.9084 13.3381 9.29445 13.3381C9.5702 13.3381 9.7908 13.2002 10.0665 13.1451C10.2044 13.1175 10.3147 13.0348 10.425 13.1726C10.4802 13.3105 10.4802 13.4208 10.425 13.5587C10.2596 13.7241 10.0665 13.6414 9.87352 13.669C9.32202 13.7793 8.77052 13.9172 8.21902 14.0275C8.08115 14.055 7.9157 14.0826 7.97085 13.862Z" fill="#559BD6"/>
<path d="M9.12907 12.2626C9.18422 12.042 9.34967 11.9317 9.48755 11.7663C9.95632 11.5733 10.4803 11.6008 10.9215 11.4078C11.0042 11.3802 11.0593 11.4078 11.1145 11.4905C11.0593 11.7939 10.8939 11.9869 10.6457 12.1523C10.2321 12.3178 9.7633 12.2626 9.3221 12.4005C9.23937 12.3729 9.1015 12.4005 9.12907 12.2626Z" fill="#3FA5DE"/>
<path d="M7.97063 13.862C7.97063 13.9447 7.99821 13.9998 8.10851 13.9723C8.71516 13.7792 9.32181 13.6965 9.92846 13.5586C10.0663 13.5311 10.2042 13.5586 10.3421 13.5586C10.48 13.7517 10.4248 13.862 10.1766 13.8895C9.79058 13.9171 9.40453 14.0274 9.04606 14.1377C8.71516 14.248 8.32911 14.248 7.99821 14.4135C7.83276 14.4135 7.66731 14.3859 7.75003 14.1377C7.83276 14.055 7.88791 13.9447 7.97063 13.862Z" fill="#5999D5"/>
<path d="M34.2498 21.252C34.1119 21.3071 34.0016 21.3623 33.8361 21.3623C33.5604 21.3347 33.3398 21.445 33.1468 21.638C32.871 21.5277 32.7056 21.3623 32.7056 21.059C32.9537 20.8108 33.2295 20.8108 33.5052 20.8384C33.6431 20.8659 33.781 20.8659 33.9189 20.8108C34.0292 20.9487 34.1395 21.1141 34.2498 21.252Z" fill="#DB60AA"/>
<path d="M28.4591 15.3235C28.6522 15.4338 28.8452 15.5717 28.9831 15.7371C28.9279 15.9853 28.7349 15.9026 28.5694 15.9577C28.2937 16.0404 27.9904 15.9577 27.7973 16.2059C27.494 16.1507 27.301 16.0129 27.2183 15.7371C27.301 15.4889 27.5216 15.4614 27.7146 15.4614C27.9628 15.4614 28.211 15.3786 28.4591 15.3235Z" fill="#A17ABD"/>
<path d="M25.2603 14.3858C25.6187 14.3031 25.9772 14.1652 26.3633 14.1652C26.4736 14.1652 26.5839 14.1101 26.639 14.0273C26.8596 14.0825 27.0251 14.2479 27.2181 14.3858C27.2181 14.4685 27.1905 14.5237 27.1354 14.5237C26.6666 14.6064 26.1978 14.827 25.7015 14.7443C25.5084 14.6616 25.3154 14.634 25.2603 14.3858Z" fill="#8D82C4"/>
<path d="M23.7712 12.2074C23.5506 12.4004 23.2197 12.428 22.9715 12.4556C22.6958 12.4831 22.3925 12.4831 22.1167 12.5659C21.8961 12.6762 21.7582 12.5383 21.6479 12.4004C21.6479 12.1798 21.7858 12.1247 21.9513 12.0971C22.3649 12.0144 22.7785 12.0419 23.1921 11.9316C23.4127 11.9316 23.5782 12.0695 23.7712 12.2074Z" fill="#6993D0"/>
<path d="M18.0908 10.9666C18.6423 10.8287 19.1662 10.6908 19.7453 10.6632C19.9108 10.6632 20.0486 10.6632 20.0486 10.4702C20.2141 10.5254 20.3795 10.6081 20.545 10.6632C20.545 10.9114 20.352 10.939 20.1865 10.9666C19.7177 11.0769 19.249 11.0769 18.8078 11.2423C18.5596 11.2147 18.2563 11.2699 18.0908 10.9666Z" fill="#4BA0D9"/>
<path d="M30.6923 17.2813C30.4166 17.5846 30.0581 17.3364 29.7272 17.4743C29.6169 17.5295 29.5342 17.557 29.4515 17.6398C29.1757 17.6398 29.093 17.4467 29.0103 17.2537C29.0103 17.0331 29.1481 17.0055 29.3136 16.978C29.5893 16.9228 29.8927 16.8952 30.1684 16.8125C30.389 16.8952 30.582 17.0607 30.6923 17.2813Z" fill="#B472B7"/>
<path d="M9.21155 15.02C9.01853 15.1579 8.79793 15.2682 8.54975 15.1303C8.46703 15.0752 8.3843 15.1579 8.30158 15.1855C7.88795 15.3509 7.44675 15.3233 7.0607 15.5164C6.97798 15.5439 6.92283 15.4612 6.86768 15.3785C6.92283 15.2682 6.97798 15.1579 7.08828 15.0752C7.58463 14.9924 8.02583 14.8546 8.52218 14.7718C8.7152 14.7443 8.88065 14.6615 9.01853 14.4961C9.0461 14.4685 9.07368 14.4685 9.12883 14.4685C9.23913 14.6615 9.23913 14.827 9.21155 15.02Z" fill="#6893D0"/>
<path d="M18.8076 11.1873C19.2212 10.9391 19.7176 10.9942 20.1588 10.8839C20.3242 10.8564 20.4621 10.8288 20.5448 10.6633C20.7654 10.6633 20.9309 10.8288 21.1239 10.8839C21.1239 11.1321 20.9033 11.1597 20.7379 11.1597C20.2691 11.2148 19.8279 11.3803 19.3591 11.4354C19.1937 11.4079 18.9455 11.4354 18.8076 11.1873Z" fill="#509ED8"/>
<path d="M23.1921 11.9042C23.1921 12.0145 23.1094 12.042 23.0267 12.042C22.6406 11.9869 22.2821 12.2351 21.8961 12.1523C21.7858 12.1248 21.7306 12.2626 21.6755 12.3454C21.3997 12.4005 21.2067 12.2626 21.0137 12.0972C21.0688 11.9317 21.2067 11.9317 21.317 11.9042C21.7582 11.7663 22.227 11.6836 22.6958 11.6284C22.8612 11.6836 23.0267 11.7939 23.1921 11.9042Z" fill="#6395D2"/>
<path d="M23.7437 13.4482C23.9643 13.2276 24.2124 13.1449 24.5433 13.1725C24.7088 13.2001 24.9294 13.1449 24.9845 12.8967C25.2327 12.9795 25.3982 13.1725 25.6188 13.2828C25.536 13.5585 25.2603 13.5585 25.0948 13.5585C24.7639 13.5861 24.4882 13.6688 24.1849 13.7516C24.0194 13.724 23.7988 13.6964 23.7437 13.4482Z" fill="#7C8AC9"/>
<path d="M25.7017 14.6617C26.2256 14.6617 26.7219 14.5239 27.2459 14.386C27.3562 14.4687 27.494 14.579 27.6043 14.6617C27.6319 14.8548 27.4665 14.9099 27.3286 14.9651C27.0253 15.0478 26.6944 15.0754 26.391 15.1581C26.0877 15.1029 25.812 14.9651 25.7017 14.6617Z" fill="#9280C2"/>
<path d="M10.3696 13.1451C10.1214 13.2554 9.8181 13.2554 9.56993 13.3933C9.3769 13.5036 9.18388 13.3657 8.99085 13.4208C8.74268 13.476 8.4945 13.6139 8.21875 13.5587C8.30148 13.3933 8.3842 13.2554 8.52208 13.1451C8.52208 13.3105 8.63238 13.2554 8.68753 13.2278C9.12873 13.0899 9.5975 12.9245 10.0939 12.9521C10.2317 12.9521 10.3145 12.759 10.4799 12.759C10.5626 12.8418 10.5626 12.9245 10.5351 13.0072C10.4523 13.0899 10.4248 13.1175 10.3696 13.1451Z" fill="#519DD8"/>
<path d="M9.12875 12.2626C9.48723 12.235 9.8457 12.2074 10.2042 12.1247C10.3696 12.0971 10.5351 12.042 10.7005 12.0695C10.7833 12.2626 10.673 12.4004 10.5351 12.4832C10.1766 12.3729 9.90085 12.4556 9.56995 12.6486C9.34935 12.7865 9.04603 12.7589 8.79785 12.7589C8.853 12.5659 8.9633 12.4004 9.12875 12.2626Z" fill="#46A3DB"/>
<path d="M24.1851 13.7242C24.5435 13.476 24.9847 13.5863 25.3708 13.4208C25.4535 13.3933 25.5362 13.3381 25.619 13.283C25.7568 13.3933 25.9223 13.476 26.0602 13.5863C25.8947 13.9172 25.5638 13.7793 25.2881 13.8069C25.0399 13.8345 24.902 13.9172 24.8193 14.1102C24.5435 14.1102 24.3229 13.9999 24.1851 13.7242Z" fill="#8288C8"/>
<path d="M10.1215 10.884C10.2593 11.0219 10.4248 11.077 10.5902 10.9391C10.7557 10.8013 10.9763 10.8288 11.1693 10.8013C11.3623 10.7737 11.5278 10.7737 11.6932 10.691C11.8311 10.6082 11.9414 10.6634 12.0241 10.7737C11.9414 11.0219 11.6932 11.077 11.4451 11.1597C11.0866 11.2149 10.7557 11.2976 10.3972 11.4079C10.0663 11.5182 9.92843 11.4906 9.8457 11.2425C9.90085 11.1046 10.0112 10.9667 10.1215 10.884Z" fill="#34AAE1"/>
<path d="M22.668 11.6283C22.5302 11.8489 22.282 11.7386 22.089 11.7938C21.7305 11.8765 21.372 11.9868 20.986 12.0695C20.7654 12.1522 20.6551 12.0419 20.5172 11.9041C20.4896 11.711 20.6551 11.711 20.793 11.6559C21.2066 11.518 21.6478 11.4904 22.0614 11.3801C22.3096 11.3801 22.475 11.5456 22.668 11.6283Z" fill="#5E97D3"/>
<path d="M19.4146 11.4077C19.8558 11.2974 20.2969 11.1596 20.7381 11.1044C20.9036 11.1044 21.0415 11.0493 21.1242 10.9114C21.3172 10.9941 21.5102 11.1044 21.7033 11.1871C21.7033 11.2699 21.6481 11.325 21.593 11.325C21.0415 11.3802 20.5175 11.6008 19.9661 11.6835C19.773 11.6283 19.5249 11.6559 19.4146 11.4077Z" fill="#569BD6"/>
<path d="M30.196 16.7572C30.003 17.1157 29.6445 16.9226 29.3687 17.0329C29.2309 17.0881 29.093 17.0881 29.1206 17.2811C28.7897 17.226 28.5966 17.0605 28.4863 16.7572C28.5415 16.7296 28.5691 16.702 28.6242 16.702C29.093 16.8675 29.4515 16.5642 29.8651 16.4814C29.9754 16.5642 30.0857 16.6745 30.196 16.7572Z" fill="#AF73B8"/>
<path d="M28.4589 15.3233C28.2935 15.5439 28.0729 15.5439 27.8523 15.5439C27.6041 15.5439 27.3835 15.5439 27.2181 15.7645C26.9699 15.8197 26.8596 15.6542 26.7769 15.4887C26.9975 15.02 27.4387 15.1303 27.8247 15.0475C27.9074 15.02 28.0177 15.1027 28.1005 15.0475C28.2383 15.1303 28.3486 15.213 28.4589 15.3233Z" fill="#9C7CBF"/>
<path d="M29.9756 18.0533C30.2238 17.9154 30.5271 17.943 30.7753 17.8603C30.9131 17.8051 31.0234 17.75 31.1613 17.6948C31.3268 17.8327 31.4922 17.943 31.5749 18.1085C31.5198 18.2188 31.4646 18.3015 31.3268 18.2463C31.1337 18.1636 30.8856 18.2188 30.8028 18.3291C30.6374 18.5221 30.4168 18.136 30.3341 18.4394C30.1135 18.4118 30.0032 18.2739 29.9756 18.0533Z" fill="#BE6DB3"/>
<path d="M9.84601 11.2424C10.0115 11.5457 10.2321 11.3251 10.4251 11.2975C10.7284 11.2424 11.0317 11.1321 11.3351 11.0769C11.3626 11.0769 11.3902 11.1045 11.4178 11.1321C11.4178 11.3802 11.2248 11.4354 11.0593 11.4905C10.6733 11.5733 10.2596 11.6284 9.87359 11.7663C9.70814 11.8214 9.59784 11.7939 9.45996 11.7939C9.54269 11.5457 9.70814 11.4078 9.84601 11.2424Z" fill="#39A8E0"/>
<path d="M28.1007 15.0477C28.1007 15.1028 28.0732 15.1855 27.9904 15.158C27.5492 15.0752 27.1632 15.1855 26.8047 15.4613C26.5565 15.4889 26.4187 15.351 26.3359 15.1304C26.5841 14.9098 26.9426 14.9649 27.2459 14.8822C27.4114 14.8546 27.5217 14.7995 27.5768 14.6616C27.7698 14.7995 27.9353 14.9098 28.1007 15.0477Z" fill="#987EC0"/>
<path d="M16.6567 10.6082C17.0152 10.6633 17.3461 10.553 17.677 10.4427C18.0906 10.3048 18.5043 10.3324 18.9179 10.2497C19.0006 10.2221 19.0558 10.1945 19.0558 10.1118C19.1936 10.1394 19.3039 10.167 19.4142 10.2497C19.2764 10.4151 19.0833 10.3876 18.9179 10.4427C18.4767 10.6082 17.9528 10.4427 17.5943 10.8288C17.2358 10.9115 16.9325 10.8839 16.6567 10.6082Z" fill="#42A4DD"/>
<path d="M9.04646 14.5238C9.01889 14.7444 8.85344 14.7995 8.68799 14.8547C8.21921 14.965 7.72286 15.0753 7.25409 15.158C7.19894 15.1856 7.14379 15.1304 7.11621 15.0753C7.22651 14.9374 7.30924 14.7995 7.41954 14.6616C7.75044 14.7168 8.08134 14.5789 8.41224 14.5238C8.60526 14.4686 8.82586 14.2756 9.04646 14.5238Z" fill="#6495D1"/>
<path d="M19.9937 11.6282C20.5727 11.4903 21.1518 11.3525 21.7309 11.187C21.8688 11.187 21.9791 11.2697 22.0894 11.3249C22.0894 11.4628 21.9239 11.4903 21.8412 11.4903C21.4276 11.4628 21.0967 11.7109 20.683 11.6834C20.6003 11.6834 20.5727 11.7661 20.5452 11.8212C20.3246 11.9315 20.104 11.8764 19.9937 11.6282Z" fill="#599AD5"/>
<path d="M27.7974 16.2058C27.7423 15.9301 27.9904 15.9852 28.1283 15.9301C28.4041 15.8474 28.735 15.9301 28.9831 15.7371C29.121 15.8198 29.2589 15.9025 29.3416 16.0404C28.9004 16.1507 28.4592 16.261 28.0456 16.3989C27.8801 16.4264 27.825 16.3437 27.7974 16.2058Z" fill="#A578BC"/>
<path d="M9.0461 14.5238C8.63248 14.441 8.274 14.6892 7.88795 14.7444C7.7225 14.7719 7.52948 14.8547 7.3916 14.6892C7.5019 14.5238 7.63978 14.3583 7.75008 14.1929C7.75008 14.3859 7.88795 14.4135 8.02583 14.4135C8.24643 14.3583 8.46703 14.3307 8.68763 14.248C8.8255 14.1929 8.96338 14.1929 9.07368 14.3307C9.12883 14.3583 9.12883 14.441 9.0461 14.5238Z" fill="#5E97D3"/>
<path d="M27.7973 16.2058C27.88 16.2609 27.9352 16.3161 28.0179 16.3988C28.1558 16.5367 28.3212 16.647 28.4591 16.7848C28.6521 16.9779 28.8452 17.1709 29.0933 17.3088C29.2036 17.4191 29.3415 17.5294 29.4518 17.6397C29.6173 17.7775 29.7827 17.943 29.9482 18.0809C30.0585 18.2187 30.1688 18.3566 30.3342 18.4393C30.5824 18.6875 30.803 18.9357 31.0512 19.1563C31.2718 19.3769 31.4924 19.6251 31.713 19.8457C31.8508 20.0111 31.9887 20.1766 32.1542 20.3696C32.3196 20.6178 32.5126 20.8384 32.7332 21.059C32.8435 21.2796 32.9814 21.4726 33.1744 21.638C33.2572 21.8311 33.395 21.9965 33.5329 22.1344C33.6708 22.4101 33.8362 22.6859 34.0293 22.9341C34.1671 23.1822 34.3326 23.458 34.4705 23.7062C34.6083 23.9819 34.7462 24.2577 34.8565 24.5334C35.215 25.3882 35.4907 26.2706 35.4907 27.2082C35.4632 28.6973 34.6083 29.7451 33.1469 30.076C31.8233 30.3793 30.4997 30.2139 29.1761 29.9657C29.0933 29.9381 28.983 29.9381 28.9003 29.9106C28.3764 29.9657 27.9352 29.69 27.4388 29.5797C27.2458 29.5245 27.0803 29.4694 26.8873 29.4142C25.9498 29.0833 25.0122 28.6697 24.1022 28.2836C23.6059 27.9803 23.0544 27.7321 22.5305 27.4564C22.2823 27.2909 22.0341 27.153 21.7859 27.0152C21.455 26.767 21.0138 26.6291 20.7381 26.2982C20.4348 26.05 20.1314 25.857 19.8005 25.664C19.5248 25.471 19.2766 25.2779 19.0009 25.0849C18.67 24.9746 18.4494 24.7264 18.1736 24.561C17.8979 24.3404 17.6221 24.1474 17.3739 23.9268C17.2085 23.7337 16.9879 23.5683 16.7949 23.4028C16.5743 23.2098 16.3261 23.0444 16.1331 22.8238C15.9952 22.6583 15.8022 22.5756 15.6643 22.3826C15.554 22.162 15.3058 22.0517 15.1679 21.8862C15.0576 21.7208 14.8922 21.5829 14.7543 21.445C14.644 21.3071 14.5337 21.1968 14.3958 21.059C14.258 20.9211 14.1201 20.7832 14.0374 20.6178C13.9271 20.4799 13.7892 20.342 13.6789 20.1766C13.5686 20.0663 13.4583 19.956 13.3756 19.8181C13.2928 19.6802 13.155 19.5975 13.0722 19.4596C12.9619 19.3217 12.8516 19.1563 12.7413 19.0184C12.6586 18.9081 12.6035 18.7978 12.5207 18.7151C12.438 18.5772 12.3001 18.4393 12.2174 18.2739C12.1623 18.1636 12.0795 18.0257 11.9968 17.9154C11.8865 17.7775 11.8314 17.6121 11.7211 17.4742C11.6108 17.2812 11.528 17.0882 11.4453 16.8951C11.3626 16.7573 11.3074 16.5918 11.2247 16.4539C11.142 16.3161 11.0868 16.1506 11.0041 16.0127C10.949 15.9024 10.8938 15.7646 10.8662 15.6543C10.7835 15.544 10.8387 15.3785 10.7835 15.2682C10.7835 15.1855 10.7835 15.1028 10.7008 15.0476C10.7008 14.9373 10.6732 14.827 10.6181 14.7167C10.5629 14.634 10.5078 14.5513 10.4802 14.4685C10.425 14.3307 10.3975 14.1928 10.3975 14.0549C10.5078 13.724 10.425 13.3655 10.4802 13.0346C10.4802 12.9243 10.5078 12.8416 10.5078 12.7313C10.5629 12.6486 10.5629 12.5383 10.5629 12.428C10.6181 12.2901 10.6732 12.1522 10.7284 12.0144C10.8662 11.8213 10.9765 11.6283 11.1144 11.4353C11.1696 11.325 11.3626 11.2698 11.4453 11.1044C11.6383 10.9941 11.8589 10.8562 12.052 10.7459C12.0795 10.7459 12.1071 10.7459 12.1071 10.7183C12.2174 10.6908 12.2726 10.5805 12.4104 10.608C12.8241 10.5253 13.2377 10.4426 13.6237 10.3599C14.1752 10.3599 14.7267 10.3599 15.2782 10.3599C15.5816 10.4426 15.9125 10.4977 16.2434 10.4977C16.3812 10.5253 16.5191 10.5529 16.657 10.5805C16.9603 10.6908 17.2912 10.7735 17.5945 10.8011C17.76 10.8838 17.9254 10.9389 18.0909 10.9389C18.3391 11.0768 18.5597 11.1595 18.8078 11.1871C19.0009 11.2698 19.1939 11.325 19.4145 11.4077C19.5799 11.518 19.773 11.5732 19.9936 11.6283C20.1866 11.7386 20.352 11.8213 20.5726 11.8489C20.7105 11.9316 20.8484 12.0144 21.0138 12.0419C21.2069 12.1798 21.4275 12.2625 21.6756 12.3453C21.8135 12.4556 21.9514 12.5107 22.1168 12.5659C22.3374 12.7313 22.558 12.8416 22.8338 12.9243C23.1371 13.0898 23.468 13.2828 23.7989 13.4483C23.9368 13.5586 24.0747 13.6413 24.2401 13.724C24.4331 13.8895 24.6537 13.9998 24.8743 14.1101C25.0122 14.1928 25.1501 14.2755 25.288 14.3858C25.3983 14.5237 25.5637 14.6064 25.7292 14.6891C25.9222 14.8822 26.1428 15.02 26.391 15.1303C26.5288 15.2406 26.6943 15.3509 26.8597 15.4612C26.9976 15.5715 27.1079 15.737 27.2734 15.7646C27.4112 15.93 27.6043 16.0955 27.7973 16.2058Z" fill="#FEFEFE"/>
<path d="M26.8871 29.3591C27.5489 29.5522 28.2383 29.7452 28.9001 29.9382C28.6795 30.214 28.4589 30.5173 28.2658 30.793C28.0728 30.9309 27.9074 30.793 27.7143 30.7655C27.6316 30.7655 27.5213 30.7103 27.4386 30.7103C27.3559 30.7103 27.2731 30.7103 27.2731 30.793C27.2456 30.8758 27.3283 30.9033 27.3834 30.9585C27.5213 31.0688 27.7695 31.0136 27.8522 31.2342C27.0801 32.1994 26.1701 32.9715 24.9568 33.2748C23.9917 33.523 23.0817 33.3024 22.2269 32.7784C21.3721 32.2545 20.7103 31.5651 20.1312 30.7655C20.1036 30.6552 20.076 30.5724 20.2415 30.6C20.3242 30.6276 20.4345 30.6827 20.4897 30.6276C20.9033 30.1864 21.5375 30.4346 21.9787 30.0761C22.1442 29.9382 22.3923 29.9934 22.6129 30.0485C22.8611 30.1037 23.0541 30.1312 23.2196 29.9106C23.3299 29.7728 23.4678 29.8003 23.6332 29.8279C23.8814 29.8831 24.1296 29.8831 24.3226 29.6349C24.4053 29.5246 24.5432 29.5246 24.6811 29.5246C25.1499 29.4694 25.6462 29.6349 26.115 29.4419C26.1977 29.3867 26.308 29.4419 26.3907 29.497C26.6113 29.6073 26.7492 29.5246 26.8871 29.3591Z" fill="#F9529F"/>
<path d="M26.8872 29.3592C26.8596 29.6625 26.6942 29.7728 26.4736 29.6073C26.253 29.4419 26.0599 29.497 25.8393 29.6073C25.7566 29.6625 25.7015 29.6625 25.5912 29.6349C25.2327 29.5246 24.8466 29.6073 24.4882 29.6349C24.2951 29.6625 24.24 30.021 23.9091 29.9382C23.7988 29.9107 23.6609 29.9107 23.523 29.8831C23.4127 29.8555 23.33 29.8279 23.2749 30.021C23.1921 30.214 22.9164 30.2416 22.6958 30.1588C22.3925 30.0761 22.1167 29.9934 21.8409 30.2692C21.7306 30.3795 21.5376 30.4622 21.317 30.3794C21.0964 30.3243 20.9034 30.4346 20.7379 30.5725C20.6001 30.6828 20.4622 30.8758 20.2416 30.6276C20.1864 30.5725 20.1864 30.6828 20.1589 30.7379C19.7452 30.2416 19.3592 29.7452 18.9731 29.1937C19.0834 29.0283 19.2765 29.0558 19.4143 29.0007C19.4419 28.9731 19.4971 29.0007 19.5246 29.0007C19.8555 29.1386 19.8831 29.1661 20.214 28.9731C20.5449 28.7525 20.931 28.7801 21.2894 28.7801C21.5376 28.7801 21.7858 28.7249 22.0064 28.6422C22.3097 28.5319 22.6406 28.4492 22.9715 28.5043C23.0818 28.5319 23.0543 28.4768 23.0543 28.4492C23.0818 28.394 23.1646 28.2837 23.1921 28.3113C23.4403 28.5319 23.5506 28.3113 23.6885 28.1734C23.8264 28.0631 23.9642 28.3113 24.1297 28.1734C25.0397 28.5871 25.9496 28.9731 26.8872 29.3592Z" fill="#F653A0"/>
<path d="M24.1024 28.201C24.0196 28.2562 24.0196 28.725 23.799 28.2562C23.7439 28.1459 23.6336 28.2562 23.6336 28.3113C23.5784 28.4768 23.4681 28.5319 23.3303 28.5871C23.2475 28.5044 23.3027 28.3113 23.1648 28.3665C23.0269 28.3941 23.0821 28.5595 23.1924 28.7525C22.9442 28.6147 22.8063 28.3389 22.6133 28.6698C22.5582 28.7801 22.5306 28.5595 22.3651 28.6147C22.1445 28.6974 21.8688 28.7801 21.6482 28.8628C21.4276 28.9456 21.207 28.8904 21.0415 28.8904C20.5728 28.8904 20.1867 29.0559 19.8007 29.304C19.6628 29.3868 19.5249 29.3592 19.4146 29.4143C19.3043 29.2489 19.5801 29.2489 19.4973 29.0834C19.3043 29.1386 19.1389 29.1662 18.9458 29.2213C18.7804 29.0283 18.6149 28.8353 18.4771 28.6422C18.5598 28.3389 18.7804 28.1459 19.0837 28.1735C19.2492 28.201 19.387 28.1735 19.5249 28.0632C19.6352 27.9804 19.7455 27.9529 19.8834 27.9804C20.2143 28.0356 20.5176 27.8701 20.8485 27.815C21.207 27.7598 21.593 27.7047 21.9239 27.5668C22.117 27.4841 22.3927 27.5668 22.5582 27.4014C23.0821 27.622 23.606 27.8977 24.1024 28.201Z" fill="#F255A1"/>
<path d="M20.7381 26.2983C21.0965 26.5189 21.4826 26.712 21.8411 26.9601C21.7583 27.291 21.4826 27.291 21.262 27.3186C20.5175 27.4013 19.8005 27.5668 19.0836 27.7322C18.6975 27.815 18.2839 27.9253 17.9254 28.0631C17.5118 27.7874 17.1257 27.5116 16.6294 27.4289C16.6294 27.098 16.9603 27.0704 17.0706 27.1532C17.2912 27.291 17.4566 27.1807 17.6221 27.1256C18.146 26.9877 18.6699 26.8774 19.2214 26.7947C19.5799 26.7395 19.9384 26.5741 20.3244 26.5741C20.4623 26.5741 20.6553 26.4914 20.7381 26.2983Z" fill="#ED57A3"/>
<path d="M17.8979 28.063C18.2564 27.6769 18.7528 27.7596 19.194 27.5942C19.4697 27.4839 19.8006 27.5666 20.0488 27.3184C20.0764 27.2909 20.1039 27.2909 20.1039 27.2909C20.6003 27.4839 21.0415 27.0978 21.5103 27.1806C21.6757 27.2081 21.6757 26.9875 21.8412 26.96C22.1169 27.0703 22.3375 27.2357 22.5857 27.4012C22.503 27.5942 22.4202 27.6493 22.1721 27.6493C21.786 27.6493 21.4 27.8148 21.0139 27.8699C20.6003 27.9251 20.2142 28.1733 19.773 28.0354C19.6903 28.0078 19.6627 28.063 19.6352 28.0905C19.4697 28.2284 19.3318 28.3663 19.0285 28.256C18.8355 28.1733 18.6149 28.449 18.477 28.642C18.284 28.449 18.091 28.256 17.8979 28.063Z" fill="#F056A2"/>
<path d="M31.3545 31.6753C30.61 31.6753 29.9758 31.5926 29.3691 31.5099C29.2037 31.4823 28.9555 31.4823 28.9831 31.2066C29.0106 30.9584 29.2312 30.986 29.4243 31.0135C30.417 31.179 31.4097 31.2341 32.4024 31.0963C32.5678 31.0687 32.7333 31.1238 32.7333 31.3169C32.7333 31.5099 32.5954 31.565 32.4575 31.565C32.0439 31.6202 31.6303 31.7029 31.3545 31.6753Z" fill="#FCFCFC"/>
<path d="M27.825 31.2342C27.6596 31.179 27.5217 31.1239 27.3562 31.0687C27.2184 31.0136 27.0529 30.9584 27.1081 30.7378C27.1632 30.5448 27.3287 30.5448 27.4941 30.5724C27.7423 30.6275 27.9905 30.6827 28.2662 30.7654C28.4317 30.8206 28.5695 30.9033 28.4868 31.0963C28.4317 31.2893 28.2662 31.2618 28.1008 31.2342C28.018 31.2342 27.9353 31.2342 27.825 31.2342Z" fill="#FCFAFB"/>
<path d="M9.43231 16.3711C9.43231 16.2884 9.43231 16.1781 9.34958 16.0954C9.34958 16.0126 9.34958 15.9299 9.29443 15.8748C9.34958 15.4887 9.45988 15.4336 9.79078 15.6542C9.87351 15.7093 9.90108 15.8196 9.92866 15.9299C9.95623 16.0402 9.98381 16.1229 10.0114 16.2332C10.039 16.4263 10.1217 16.5917 10.2044 16.7572C10.2596 16.9502 10.3699 17.1156 10.425 17.3087C10.4802 17.4741 10.5353 17.612 10.618 17.7499C10.6732 17.8878 10.7835 18.0256 10.8662 18.1635C10.9214 18.3014 11.0041 18.4117 11.0868 18.522C11.1695 18.6874 11.2523 18.8253 11.3626 18.9632C11.4177 19.0735 11.5004 19.1838 11.5832 19.2665C11.6659 19.3768 11.721 19.5147 11.8038 19.625C11.8865 19.7629 11.9968 19.8732 12.0795 20.011C12.2174 20.2041 12.4104 20.3695 12.5207 20.5625C12.631 20.7004 12.7689 20.8383 12.8792 21.0037C12.9619 21.114 13.0722 21.1968 13.1549 21.3346C13.2652 21.5277 13.4307 21.6655 13.5686 21.8034C13.6789 21.9413 13.8167 22.0516 13.9546 22.1895C14.1476 22.3825 14.3407 22.5755 14.5337 22.7685C14.6716 22.934 14.837 23.0443 14.9749 23.1822C15.1403 23.3476 15.3058 23.5131 15.4712 23.6785C15.6643 23.8991 15.9124 24.037 16.133 24.2576C16.3261 24.4782 16.6018 24.6436 16.8224 24.8642C16.9327 25.0297 17.1257 25.14 16.9603 25.3882C16.9051 25.4157 16.8776 25.4433 16.8224 25.4709C16.4639 25.4433 16.3261 25.0848 16.0227 24.947C15.8297 24.6712 15.4988 24.5609 15.2782 24.2852C15.1679 24.037 14.9197 23.9543 14.7543 23.7612C14.5888 23.5958 14.3958 23.4303 14.2304 23.2649C14.1201 23.0994 13.9546 22.9616 13.7892 22.8237C13.6789 22.6031 13.4858 22.4652 13.3204 22.2998C13.2101 22.1067 13.0446 21.9413 12.8516 21.8034C12.7413 21.6931 12.6586 21.5552 12.5483 21.4449C12.438 21.3071 12.3001 21.1692 12.1898 21.0037C12.0795 20.8659 11.9416 20.7004 11.8313 20.5625C11.721 20.3695 11.5832 20.1765 11.4177 20.0386C11.3626 19.9007 11.2798 19.818 11.1971 19.7077C11.142 19.5974 11.0868 19.4871 10.9765 19.4044C10.9214 19.2389 10.8111 19.1011 10.7008 18.9632C10.6732 18.8253 10.5905 18.715 10.5077 18.6047C10.4526 18.4393 10.3699 18.3014 10.2596 18.1911C10.232 18.0532 10.1493 17.9429 10.0665 17.805C9.98381 17.6396 9.90108 17.4741 9.81836 17.3087C9.79078 17.1708 9.76321 17.0605 9.68048 16.9502C9.65291 16.895 9.65291 16.8675 9.62533 16.8123C9.54261 16.6744 9.51503 16.509 9.43231 16.3711Z" fill="#FEFEFE"/>
<path d="M16.9325 25.3607C17.0152 25.1401 16.8498 25.0022 16.7119 24.8643C16.7395 24.6713 16.9049 24.6989 17.0152 24.6437C17.3737 24.5058 17.7873 24.561 18.1734 24.4507C18.4491 24.6161 18.7249 24.8367 18.9731 25.0573C18.587 25.1401 18.201 25.1125 17.8701 25.3607C17.7046 25.4985 17.4289 25.4158 17.2083 25.5261C17.098 25.6364 17.0428 25.4158 16.9325 25.3607Z" fill="#E05DA8"/>
<path d="M12.4103 10.6358C12.3 10.6633 12.2172 10.7185 12.1069 10.7461C12.1897 10.6633 12.2172 10.4152 12.4103 10.6358Z" fill="#34AAE1"/>
<path d="M9.84591 15.9577C9.79076 15.875 9.76318 15.7647 9.76318 15.6819C10.0665 15.5716 10.3698 15.5716 10.6732 15.4062C10.7007 15.3786 10.7007 15.3235 10.7283 15.2959C10.811 15.4062 10.8386 15.5441 10.8662 15.6819C10.8938 15.7371 10.9213 15.8198 10.8386 15.8474C10.5353 15.9301 10.232 16.2334 9.84591 15.9577Z" fill="#768DCB"/>
<path d="M9.07357 14.4962C9.07357 14.4134 9.07357 14.3583 9.07357 14.2756C8.99085 14.0825 9.12872 14.0825 9.23902 14.0274C9.43205 13.9447 9.54235 14.055 9.62507 14.2204C9.68022 14.3583 9.68022 14.4962 9.7078 14.6341C9.7078 14.7168 9.7078 14.7995 9.62507 14.8271C9.54235 15.0201 9.40447 15.0201 9.21145 14.9649C9.07357 14.8546 9.1563 14.6616 9.07357 14.4962Z" fill="#FAFBFD"/>
<path d="M9.59766 14.8547C9.59766 14.7995 9.59766 14.7168 9.59766 14.6617C9.87341 14.4411 10.1767 14.4411 10.5076 14.4962C10.5628 14.5514 10.5628 14.6341 10.5628 14.7168C10.2319 14.7168 9.95613 14.9926 9.59766 14.8547Z" fill="#6A95D1"/>
<path d="M9.57008 14.3031C9.40463 14.055 9.23918 13.9998 9.04615 14.3031C8.93585 14.248 8.82555 14.2204 8.71525 14.2756C8.49465 14.4134 8.27405 14.3859 8.02588 14.3583C8.27405 14.1928 8.49465 13.9998 8.82555 14.1377C8.90828 14.1653 8.96343 14.0825 9.04615 14.055C9.40463 13.8895 9.79068 13.8068 10.1767 13.8344C10.3973 13.8344 10.3422 13.6965 10.3422 13.5862C10.3422 13.4483 10.3422 13.3104 10.3422 13.145C10.3698 13.1174 10.3698 13.0898 10.3973 13.0898C10.3973 13.4483 10.4249 13.8068 10.4249 14.1653C10.1767 14.3031 9.87341 14.3859 9.57008 14.3031Z" fill="#5D97D3"/>
<path d="M21.2342 22.686C20.9585 22.4929 20.6552 22.2999 20.4346 22.0517C20.4346 21.8587 20.6 21.8863 20.7103 21.8863C20.9585 21.8863 21.1515 21.8587 21.3721 21.7484C21.4273 21.7208 21.4548 21.6933 21.51 21.6933C22.1994 21.7484 22.806 21.3348 23.4678 21.2796C23.8263 21.2521 24.1848 21.059 24.5708 21.1418C24.819 21.1969 25.0672 21.0315 25.3153 21.0039C25.9496 20.9212 26.5838 20.7833 27.218 20.5903C27.3283 20.5627 27.4386 20.48 27.5489 20.5627C27.7419 20.7281 27.8798 20.9487 28.0177 21.1693C27.9625 21.3348 27.7971 21.3624 27.6316 21.4175C27.0526 21.583 26.4735 21.6105 25.8944 21.7484C25.6187 21.8036 25.3429 21.8311 25.0947 21.969C24.8741 22.1069 24.626 22.0242 24.4054 22.0242C23.909 22.0517 23.4678 22.2723 22.9715 22.2999C22.5027 22.3275 22.0891 22.5481 21.6479 22.5481C21.51 22.5757 21.3721 22.6032 21.2342 22.686Z" fill="#D163AD"/>
<path d="M27.5491 20.5903C27.2458 20.5903 27.0528 20.8936 26.7219 20.866C26.5289 20.8109 26.3358 20.8109 26.198 21.0039C26.1428 21.0866 26.0601 21.0866 25.9774 21.0591C25.9222 21.0315 25.8395 21.0039 25.8119 21.0039C25.5086 21.1969 25.095 21.0039 24.8192 21.2521C24.7641 21.2797 24.7089 21.2797 24.6538 21.2797C24.4332 21.3072 24.1574 21.0591 24.0195 21.39H23.9644C23.4405 21.2245 22.9993 21.5003 22.5581 21.6381C22.3099 21.7209 22.0893 21.8312 21.8411 21.7484C21.7584 21.7209 21.6757 21.776 21.5929 21.8036C21.2896 21.9139 20.9863 22.0242 20.6554 21.969C20.5727 21.969 20.5175 21.969 20.4624 22.0518C20.2969 21.9415 20.1315 21.8587 20.0212 21.6933C19.9384 21.5003 20.0487 21.4451 20.1866 21.4175C21.069 21.2521 21.9514 21.0315 22.8614 20.8936C23.6335 20.7833 24.4332 20.673 25.2053 20.3973C25.5637 20.287 25.9222 20.287 26.3083 20.2042C26.5564 20.1491 26.8046 20.0939 27.0528 19.9836C27.2458 20.1767 27.4113 20.3421 27.5491 20.5903Z" fill="#CB66AF"/>
<path d="M26.0877 19.0737C26.3083 19.2668 26.5289 19.4322 26.722 19.6528C26.722 19.7907 26.6392 19.8183 26.5289 19.8183C26.005 19.8458 25.5087 20.094 24.9572 20.094C24.8193 20.094 24.709 20.1492 24.5987 20.2319C24.4884 20.287 24.3781 20.3422 24.2678 20.3146C24.0472 20.2319 23.8266 20.287 23.6336 20.3698C23.1372 20.5628 22.6133 20.5076 22.1169 20.6455C21.9791 20.6731 21.8688 20.7558 21.7309 20.7834C21.1794 20.8661 20.6555 21.0591 20.104 21.0867C19.9109 21.0867 19.7455 21.3073 19.5249 21.2522C19.3043 21.0867 19.1113 20.8937 18.9458 20.6731C18.9458 20.4525 19.1113 20.5076 19.2216 20.5352C19.4697 20.5904 19.6628 20.5628 19.8834 20.4525C20.0488 20.3698 20.2143 20.3422 20.4073 20.3422C20.683 20.3422 20.9312 20.3422 21.1794 20.2319C21.8688 19.901 22.6133 19.901 23.3302 19.8183C23.606 19.7907 23.8266 19.5701 24.1023 19.5701C24.5711 19.5425 25.0123 19.4046 25.4811 19.3495C25.7017 19.2943 25.8947 19.1565 26.0877 19.0737Z" fill="#C36AB1"/>
<path d="M23.992 24.2853C23.6335 24.1474 23.3026 23.982 22.9717 23.789C23.0268 23.4581 23.3026 23.4029 23.5232 23.4029C24.0747 23.3478 24.571 23.2099 25.095 23.0444C25.2328 22.9893 25.3707 23.0169 25.5362 23.0169C25.6189 23.0169 25.7292 23.072 25.8119 23.0169C26.2807 22.7687 26.8322 22.7963 27.3285 22.686C27.7973 22.5757 28.2661 22.3551 28.7624 22.4929C28.8727 22.6584 28.9279 22.8238 28.9555 23.0169C28.79 23.2926 28.597 23.4029 28.2661 23.3753C28.0455 23.3478 27.8525 23.4029 27.6594 23.4856C27.0528 23.6787 26.391 23.7338 25.7843 23.8717C25.3156 23.982 24.7916 23.9544 24.3504 24.2302C24.2677 24.2577 24.1023 24.2577 23.992 24.2853Z" fill="#DF5DA8"/>
<path d="M19.4971 21.252C19.9107 20.9762 20.3795 20.9486 20.8758 20.9486C20.9861 20.9486 21.0137 20.8935 21.0688 20.8383C21.0964 20.7832 21.124 20.728 21.2067 20.7556C21.51 20.8659 21.8134 20.6177 22.0615 20.6453C22.4752 20.6453 22.8061 20.2593 23.2197 20.5074C23.2748 20.535 23.4127 20.3696 23.523 20.3696C23.7712 20.342 24.0194 20.1214 24.3227 20.3144C24.3778 20.342 24.4881 20.2593 24.5709 20.2317C24.7915 20.149 24.9845 19.9559 25.2602 20.1214C25.2878 20.1214 25.3154 20.149 25.3154 20.1214C25.729 19.8181 26.2254 19.9284 26.6666 19.7629C26.6941 19.7629 26.6941 19.7353 26.7217 19.7078C26.8596 19.7905 26.9423 19.9284 27.025 20.0387C26.8872 20.3144 26.639 20.2593 26.3908 20.3144C26.0048 20.3971 25.6187 20.4247 25.2327 20.535C24.8466 20.6177 24.4881 20.7556 24.1021 20.7832C23.8539 20.8108 23.5506 20.9211 23.2748 20.9762C22.9164 21.0314 22.5579 21.0865 22.1994 21.0865C21.4825 21.1141 20.8207 21.4726 20.1037 21.5001C20.021 21.5001 20.021 21.6104 19.9934 21.6656C19.828 21.5277 19.6625 21.3898 19.4971 21.252Z" fill="#C768B0"/>
<path d="M26.0875 19.0736C25.9221 19.3493 25.6187 19.4596 25.3706 19.4596C25.0121 19.4596 24.7088 19.5699 24.3503 19.6251C23.7436 19.7078 23.1646 19.9284 22.5303 19.9835C21.9788 20.0387 21.3998 20.1214 20.9034 20.4247C20.8483 20.4523 20.7104 20.4247 20.6277 20.4247C20.2968 20.4523 19.9383 20.3972 19.635 20.6453C19.5247 20.7281 19.3592 20.6729 19.2213 20.6453C19.111 20.6178 18.9732 20.5075 18.8629 20.7005C18.725 20.6178 18.6423 20.5075 18.5595 20.3696C18.532 20.2041 18.6147 20.149 18.725 20.149C19.0559 20.149 19.3868 20.0387 19.7177 19.956C20.6277 19.6802 21.5376 19.5975 22.4752 19.432C23.137 19.2942 23.7988 19.0736 24.4882 19.046C24.8742 19.0184 25.2603 18.7978 25.6739 18.8254C25.8669 18.8254 26.0048 18.9357 26.0875 19.0736Z" fill="#BD6CB3"/>
<path d="M25.7292 18.7705C25.674 18.798 25.6465 18.8808 25.5913 18.8808C24.9571 18.8256 24.4056 19.322 23.7438 19.1565C23.6886 19.1565 23.6059 19.1565 23.5783 19.1841C23.3302 19.3771 23.0544 19.4323 22.7235 19.4047C22.3926 19.3771 22.0617 19.5701 21.7308 19.5977C21.2345 19.6529 20.7381 19.9286 20.2142 19.7907C19.9384 20.1216 19.4696 19.9286 19.1387 20.1492C18.9733 20.2595 18.6975 20.0389 18.6148 20.3147C18.4769 20.1768 18.3391 20.0665 18.2563 19.8735C18.3391 19.6253 18.5597 19.5701 18.7527 19.5426C19.2766 19.4874 19.8005 19.3771 20.3245 19.2117C20.7105 19.0738 21.1517 19.0738 21.5929 19.0186C22.0617 18.9635 22.5581 18.9083 22.9993 18.7705C23.6335 18.5499 24.3229 18.5774 24.9571 18.3017C25.0398 18.2741 25.1501 18.2741 25.2328 18.3017C25.4259 18.4396 25.5913 18.605 25.7292 18.7705Z" fill="#B86EB5"/>
<path d="M23.9917 24.2853C24.3777 23.982 24.8465 23.8992 25.2877 23.8165C25.8116 23.7062 26.3631 23.6235 26.9146 23.5683C27.4662 23.5132 27.9349 23.1823 28.514 23.265C28.707 23.2926 28.8173 23.0444 28.9828 22.9893C29.0931 23.265 29.1482 23.5683 29.1207 23.8441C28.6243 24.0647 28.0728 24.1474 27.5489 24.2577C27.1628 24.3404 26.7216 24.2301 26.3907 24.5335C26.2804 24.6438 26.0598 24.5059 25.8668 24.5059C25.6186 24.4783 25.4256 24.5335 25.2877 24.7816C24.8189 24.6713 24.4053 24.4783 23.9917 24.2853Z" fill="#E35BA7"/>
<path d="M21.2344 22.686C21.262 22.5482 21.3447 22.493 21.4826 22.493C21.8135 22.493 22.1444 22.4379 22.4477 22.3C22.6959 22.1897 22.9992 22.2173 23.2474 22.1897C23.661 22.1621 23.9919 21.7761 24.4331 21.9967C24.6812 21.7485 25.0397 22.0242 25.3431 21.7761C25.6188 21.583 26.06 21.6106 26.4185 21.5279C26.8045 21.4452 27.2181 21.4176 27.6042 21.3073C27.7421 21.2797 27.88 21.2246 28.0178 21.1418C28.1005 21.3073 28.3211 21.4176 28.3211 21.6382C28.266 21.7761 28.1833 21.8864 27.9903 21.8864C27.1079 21.8864 26.2254 22.0794 25.3982 22.3551C25.343 22.3827 25.2603 22.4103 25.2052 22.4103C24.4055 22.4379 23.661 22.686 22.8889 22.7963C22.6407 22.8239 22.4477 22.9894 22.1719 22.9618C22.0341 22.9342 21.8962 22.9618 21.7583 22.9066C21.5377 22.9342 21.3723 22.7963 21.2344 22.686Z" fill="#D562AB"/>
<path d="M25.2327 18.3565C24.8466 18.5219 24.4054 18.4944 24.0745 18.715C23.9366 18.8253 23.7988 18.6598 23.6333 18.715C23.4679 18.7701 23.2473 18.6598 23.137 18.908C23.137 18.9356 23.0818 18.9356 23.0818 18.9356C22.8061 18.7977 22.5855 19.0459 22.3649 19.0183C21.8134 19.0183 21.317 19.2665 20.8207 19.2665C20.1864 19.2665 19.6901 19.6801 19.0834 19.6249C18.7525 19.5974 18.5319 19.7352 18.2838 19.8455C18.1183 19.7352 18.0356 19.5698 17.9253 19.4043C17.9804 19.3216 18.0632 19.2665 18.1735 19.2665C18.6974 19.2113 19.2213 19.0183 19.7452 18.8804C20.6828 18.6322 21.6755 18.6322 22.5855 18.3289C22.7785 18.2738 22.9991 18.2462 23.1921 18.2186C23.716 18.191 24.24 18.0256 24.7639 17.9429C24.8742 18.1083 25.0948 18.1635 25.2327 18.3565Z" fill="#B471B6"/>
<path d="M28.7622 22.4652C28.5692 22.5755 28.3486 22.5203 28.128 22.5479C27.9901 22.5479 27.8247 22.5203 27.7971 22.7133C27.7971 22.7409 27.7144 22.7961 27.6868 22.7961C27.3283 22.5755 26.9423 23.0167 26.5838 22.7961C26.5286 22.7685 26.4735 22.8236 26.4183 22.8512C26.115 22.9891 25.8393 23.1545 25.4808 23.0442C25.1499 22.9615 24.9017 23.127 24.626 23.2097C24.1572 23.3476 23.6333 23.32 23.1921 23.513C23.0818 23.5682 22.999 23.6233 22.9439 23.7061C22.6681 23.5958 22.4475 23.4579 22.1994 23.2924C22.1718 23.127 22.3097 23.0994 22.42 23.0718C23.0818 22.9064 23.7711 22.7409 24.4605 22.6306C24.7914 22.5755 25.0947 22.5479 25.3981 22.3824C25.4532 22.3549 25.5084 22.3273 25.5635 22.3273C26.308 22.3824 26.9974 22.1618 27.6868 21.9964C27.935 21.9412 28.2107 21.8585 28.4865 21.9412C28.6244 22.1343 28.6795 22.2997 28.7622 22.4652Z" fill="#DB5FA9"/>
<path d="M24.7088 17.9705C24.3779 18.2187 23.9643 18.2463 23.5782 18.2738C23.0819 18.3014 22.5855 18.4393 22.1168 18.5772C21.841 18.6323 21.5928 18.6599 21.3171 18.6875C20.7656 18.7702 20.2417 18.9356 19.7177 19.0184C19.0835 19.1011 18.5044 19.3493 17.8702 19.432C17.7323 19.3217 17.6496 19.1562 17.5669 18.9908C17.7048 18.8253 17.8978 18.7426 18.0908 18.715C18.8353 18.6599 19.5799 18.4944 20.2968 18.3014C21.2068 18.0808 22.1719 18.0532 23.0543 17.7223C23.4128 17.5845 23.7988 17.7499 24.1573 17.5845C24.4055 17.6948 24.5709 17.8051 24.7088 17.9705Z" fill="#AF73B8"/>
<path d="M24.2126 17.6121C24.0472 17.8051 23.8541 17.8603 23.606 17.7776C23.4957 17.75 23.3302 17.75 23.2199 17.8051C22.7787 17.9982 22.2824 18.0533 21.8136 18.1912C21.593 18.2463 21.2897 18.2463 21.0415 18.2739C20.6003 18.3566 20.1867 18.4669 19.7455 18.5497C19.2491 18.66 18.7528 18.7978 18.2288 18.7978C18.0358 18.7978 17.8704 18.9909 17.6498 18.9909C17.5395 18.853 17.4567 18.7151 17.374 18.5497C17.4292 18.4394 17.5395 18.3842 17.6498 18.3842C18.2013 18.4118 18.7252 18.1912 19.2767 18.1085C19.7179 18.0533 20.1867 17.8603 20.6554 17.8051C21.1794 17.75 21.6481 17.4742 22.1721 17.5294C22.3099 17.5294 22.4478 17.5018 22.5581 17.4191C22.7511 17.3088 22.9166 17.2536 23.1372 17.3088C23.3302 17.3639 23.4957 17.2261 23.6887 17.1985C23.8541 17.3364 24.0472 17.4467 24.2126 17.6121Z" fill="#AA75BA"/>
<path d="M25.2878 24.7817C25.2602 24.6714 25.2602 24.6163 25.3705 24.5336C25.6187 24.3405 25.9772 24.3681 26.0875 24.4508C26.3356 24.5887 26.3908 24.3957 26.5011 24.3681C26.6665 24.313 26.832 24.2027 26.9974 24.3405C27.0526 24.3957 27.1077 24.3681 27.1629 24.313C27.3283 24.1199 27.5489 24.1475 27.742 24.1475C28.1004 24.1199 28.4865 24.1199 28.7898 23.8442C28.9001 23.7615 28.9828 23.8166 29.0931 23.8718C29.0931 24.5336 28.6795 25.0023 28.0177 25.1126C27.0802 25.2505 26.1702 25.0851 25.2878 24.7817Z" fill="#E85AA5"/>
<path d="M22.4752 16.5918C22.6406 16.6745 22.8061 16.7572 22.9715 16.84C23.0543 17.0606 22.8888 17.1157 22.7509 17.1709C22.42 17.3087 22.0616 17.2812 21.7307 17.3639C20.9861 17.5293 20.214 17.5845 19.4695 17.8051C19.0007 17.943 18.5044 17.9981 18.0356 18.0808C17.8702 18.1084 17.7323 18.1084 17.5668 18.1911C17.3738 18.2739 17.2084 18.2463 17.0981 18.0533C17.0429 17.9154 16.9878 17.7775 16.9326 17.6121C16.9878 17.5569 17.0429 17.5293 17.1256 17.5293C17.3187 17.4742 17.5393 17.6396 17.7323 17.4742C17.7599 17.4466 17.7874 17.4466 17.815 17.419C17.9529 17.419 18.0908 17.3915 18.2286 17.3363C18.725 17.1433 19.2765 17.1709 19.8004 17.0606C20.5725 16.8951 21.3722 16.6745 22.1719 16.5642C22.2546 16.5642 22.3649 16.6469 22.4752 16.5918Z" fill="#A179BD"/>
<path d="M17.0981 18.0534C17.3187 18.2188 17.5118 18.081 17.7324 18.0534C18.3114 17.9431 18.8905 17.8604 19.4696 17.7225C20.4623 17.4743 21.455 17.3089 22.4753 17.171C22.6407 17.1434 22.9165 17.1158 22.9716 16.8401C23.2198 16.9504 23.4404 17.0607 23.6334 17.2261C23.5507 17.3364 23.4128 17.4467 23.2749 17.4192C22.944 17.364 22.6407 17.5295 22.3374 17.557C21.8135 17.6122 21.2895 17.7501 20.7656 17.8604C20.3244 17.9431 19.8281 18.0534 19.3869 18.1637C18.8905 18.3016 18.3666 18.4394 17.8151 18.4394C17.6496 18.4394 17.4842 18.4946 17.3463 18.5222C17.236 18.4119 17.1257 18.2464 17.0981 18.0534Z" fill="#A677BB"/>
<path d="M28.5415 21.9689C27.9348 22.0516 27.3282 22.2446 26.7215 22.3549C26.3355 22.4101 25.977 22.5755 25.591 22.4377C24.9843 22.8789 24.2398 22.7134 23.578 22.9892C23.3022 23.0995 22.9713 23.0995 22.668 23.1822C22.5301 23.2373 22.3647 23.2373 22.2544 23.3752C22.0614 23.2649 21.8683 23.1822 21.7305 23.0167C21.9511 22.9892 22.1992 23.0167 22.3923 22.934C22.6956 22.8237 23.0265 22.8513 23.3298 22.741C23.8262 22.5755 24.3225 22.4652 24.8189 22.4377C25.1222 22.4377 25.4255 22.3274 25.7013 22.2446C26.0046 22.1619 26.3355 22.1343 26.6388 22.0516C27.1352 21.8862 27.6315 21.8586 28.1279 21.8862C28.2657 21.8862 28.2382 21.6931 28.376 21.7207C28.4036 21.7759 28.5139 21.831 28.5415 21.9689Z" fill="#D860AA"/>
<path d="M21.1516 16.0127C21.3722 16.0403 21.5377 16.1506 21.7307 16.2609C21.6755 16.509 21.4549 16.4815 21.2619 16.5366C20.4071 16.7848 19.4971 16.8951 18.6423 17.1157C18.2011 17.226 17.7875 17.3363 17.3463 17.3914C17.1808 17.419 17.0154 17.4742 16.8499 17.3639C16.7948 17.1157 16.6845 16.8951 16.7948 16.6193C16.9051 16.7848 17.0705 16.7848 17.236 16.7572C17.7599 16.6745 18.3114 16.6745 18.7802 16.509C19.3041 16.316 19.8832 16.3987 20.3795 16.123C20.4898 16.0678 20.6001 16.0403 20.738 16.0954C20.9034 16.1506 21.0137 16.0954 21.1516 16.0127Z" fill="#977DC0"/>
<path d="M16.8776 17.3364C17.567 17.2812 18.2563 17.0606 18.9457 16.9228C19.3318 16.84 19.7454 16.7849 20.1314 16.7022C20.6829 16.5919 21.2344 16.5091 21.7584 16.2334C22.0341 16.2885 22.2547 16.4264 22.5029 16.5643C22.3374 16.7297 22.0893 16.7022 21.8687 16.7297C21.6205 16.7849 21.3447 16.8676 21.1241 16.8952C20.7381 16.9228 20.4072 17.1709 19.9936 17.0882C19.7454 17.0331 19.5248 17.3088 19.2766 17.2812C18.9181 17.2537 18.5872 17.364 18.2288 17.364C18.1185 17.3915 17.9806 17.364 17.8703 17.4467C17.8427 17.4467 17.8151 17.4467 17.7876 17.4467C17.6221 17.6121 17.3739 17.4467 17.2085 17.5846C17.1258 17.5846 17.043 17.5846 16.9603 17.5846C16.85 17.557 16.8776 17.4467 16.8776 17.3364Z" fill="#9B7BBE"/>
<path d="M21.1514 16.0128C21.1238 16.2334 20.9308 16.261 20.8481 16.1783C20.5999 16.0404 20.4344 16.1231 20.269 16.261C20.076 16.4264 19.8278 16.3713 19.6623 16.3713C19.2487 16.3161 18.973 16.7573 18.5593 16.5643C18.2009 16.8952 17.6769 16.6195 17.2909 16.8401C17.2082 16.8952 16.7945 17.0607 16.8221 16.6195C16.8221 16.5919 16.8221 16.5643 16.8221 16.5643C16.9048 16.454 17.0151 16.3989 17.153 16.3437C17.7045 16.1783 18.256 16.1507 18.8075 16.0404C19.1108 15.9852 19.3866 15.9577 19.6623 15.8198C19.8829 15.7095 20.1035 15.8198 20.2966 15.7371C20.5999 15.7922 20.8756 15.8749 21.1514 16.0128Z" fill="#9280C1"/>
<path d="M20.2967 15.7372C20.2691 15.8199 20.214 15.8751 20.1037 15.8751C19.1386 16.0957 18.1459 16.1784 17.1807 16.4266C17.0704 16.4541 16.9326 16.5093 16.8223 16.5369C16.8223 16.2611 16.9601 16.0405 17.1532 15.8751C17.6495 15.682 18.201 15.682 18.7249 15.6269C18.8904 15.6269 19.0558 15.5442 19.1937 15.489C19.5798 15.5166 19.9382 15.5993 20.2967 15.7372Z" fill="#8D82C4"/>
<path d="M18.2013 24.4782C18.1461 24.6437 17.9807 24.6988 17.8428 24.6712C17.4292 24.5885 17.0983 24.754 16.7398 24.8643C16.5192 24.6712 16.271 24.5058 16.078 24.2852C16.0229 24.2025 16.0504 24.0922 16.1332 24.0922C16.5744 24.037 16.9604 23.9267 17.4016 23.8164C17.6498 24.037 17.9255 24.2576 18.2013 24.4782Z" fill="#DA60AA"/>
<path d="M17.4012 23.8443C17.0427 24.12 16.6291 24.1476 16.2155 24.1476C16.1328 24.1476 16.1052 24.2303 16.0776 24.2855C15.857 24.0924 15.6088 23.927 15.4434 23.7064C15.4158 23.5961 15.4985 23.5409 15.5813 23.5409C15.9949 23.5134 16.4085 23.3479 16.8221 23.3479C17.0152 23.4858 17.2358 23.6512 17.4012 23.8443Z" fill="#D662AB"/>
<path d="M16.8221 23.3479C16.4636 23.4857 16.1327 23.596 15.7467 23.5685C15.6364 23.5685 15.5261 23.6236 15.4434 23.7063C15.2503 23.5685 15.0849 23.403 14.9194 23.21C15.0573 22.9618 15.3331 22.9067 15.5812 22.8515C15.7743 22.7964 15.9673 22.7688 16.1603 22.7688C16.3809 22.9618 16.6015 23.1548 16.8221 23.3479Z" fill="#D064AD"/>
<path d="M14.4787 22.7961C14.2856 22.603 14.0926 22.41 13.8996 22.217C13.872 22.0515 14.0099 22.024 14.0926 22.0515C14.4235 22.1343 14.6717 21.9964 14.9474 21.8585C15.0302 21.8309 15.1129 21.8034 15.1956 21.8585C15.3611 22.024 15.5817 22.1343 15.692 22.3549C15.6092 22.5479 15.4438 22.6582 15.2783 22.6306C15.0026 22.603 14.7544 22.7133 14.4787 22.7961Z" fill="#C768B0"/>
<path d="M15.1954 21.8312C15.0024 21.914 14.8369 21.9967 14.6439 22.0794C14.506 22.1346 14.3957 22.1897 14.2578 22.107C14.12 22.0518 14.0097 22.0794 13.8994 22.1897C13.7891 22.0794 13.6512 21.9415 13.5409 21.8312C13.4857 21.7485 13.4857 21.6934 13.5685 21.6658C13.9545 21.5279 14.313 21.3349 14.7542 21.39C14.9196 21.5279 15.0851 21.6382 15.1954 21.8312Z" fill="#C26BB2"/>
<path d="M14.4785 22.7962C14.6715 22.6307 14.8646 22.4653 15.1679 22.548C15.3885 22.6031 15.5264 22.4101 15.7194 22.3274C15.8573 22.4928 16.0779 22.548 16.1882 22.741C16.1054 22.7962 16.0779 22.9065 15.94 22.8789C15.5539 22.8513 15.2506 23.0443 14.9197 23.1822C14.7543 23.0719 14.5888 22.9892 14.4785 22.7962Z" fill="#CC66AF"/>
<path d="M12.4654 20.5902C12.2999 20.3972 12.0793 20.2593 11.9966 20.0111C12.4654 19.9284 12.9066 19.8181 13.3753 19.7905C13.4856 19.9008 13.5684 20.0387 13.6787 20.149C13.789 20.3145 13.6235 20.3696 13.5408 20.3972C13.1823 20.5351 12.8514 20.6178 12.4654 20.5902Z" fill="#B073B8"/>
<path d="M10.3698 17.3365C10.2595 17.1435 10.1767 16.978 10.1216 16.7574C10.4801 16.6196 10.8385 16.4817 11.2246 16.4541C11.3349 16.592 11.39 16.7299 11.4452 16.8953C11.5279 17.0608 11.4176 17.1711 11.2797 17.2262C11.004 17.3641 10.7007 17.4468 10.3698 17.3365Z" fill="#8786C6"/>
<path d="M13.3757 19.7906C12.9345 19.9561 12.4933 20.0664 11.9969 20.0112C11.8591 19.9285 11.7763 19.7906 11.7212 19.6528C11.8039 19.4322 12.0521 19.4046 12.2175 19.4046C12.5209 19.4322 12.7966 19.3494 13.0999 19.4322C13.1827 19.57 13.293 19.6803 13.3757 19.7906Z" fill="#AB75BA"/>
<path d="M14.7541 21.3901C14.3956 21.5004 14.0096 21.5555 13.6511 21.6934C13.5684 21.721 13.5408 21.7486 13.5408 21.8313C13.3754 21.6934 13.1823 21.528 13.0996 21.3349C13.4857 21.0316 13.9544 20.9765 14.4232 21.0316C14.5611 21.1419 14.699 21.2246 14.7541 21.3901Z" fill="#BD6DB4"/>
<path d="M14.4231 21.0315C13.9819 21.1143 13.5131 21.197 13.0995 21.3349C12.9892 21.2521 12.9065 21.1694 12.8237 21.0315C12.934 20.7006 13.2649 20.6731 13.5407 20.6455C13.7061 20.6179 13.8716 20.6179 14.037 20.6179C14.1749 20.7282 14.3128 20.8937 14.4231 21.0315Z" fill="#B96FB5"/>
<path d="M11.0316 18.5772C10.9489 18.4669 10.8938 18.329 10.811 18.2187C11.1419 17.8051 11.5831 17.8051 12.0243 17.9154C12.1346 18.0257 12.2174 18.136 12.2449 18.2738C12.3001 18.3841 12.2174 18.4117 12.1622 18.4117C11.7762 18.522 11.4177 18.5772 11.0316 18.5772Z" fill="#987EC0"/>
<path d="M10.3696 17.3365C10.5627 17.3089 10.7833 17.3089 10.9763 17.2537C11.1693 17.1986 11.4175 17.1986 11.4451 16.8953C11.5554 17.0883 11.6657 17.2813 11.7484 17.4743C11.4175 17.7777 11.0039 17.8052 10.5627 17.7777C10.4799 17.6398 10.3972 17.5019 10.3696 17.3365Z" fill="#8E83C4"/>
<path d="M11.5002 19.2942C11.445 19.1839 11.3623 19.1012 11.3071 18.9909C11.3071 18.8806 11.3623 18.7979 11.4726 18.7703C11.8311 18.6876 12.1895 18.6049 12.5756 18.6876C12.6859 18.7703 12.741 18.8806 12.7962 18.9909C12.4929 19.2942 11.8311 19.4597 11.5002 19.2942Z" fill="#A179BD"/>
<path d="M12.5481 18.7151C12.2724 18.7703 11.9966 18.8254 11.6933 18.8254C11.5554 18.8254 11.39 18.853 11.2797 19.0185C11.1694 18.8806 11.0591 18.7427 11.0039 18.5773C11.3072 18.4118 11.6381 18.467 11.9415 18.3842C12.0518 18.3567 12.1621 18.3567 12.2172 18.2739C12.3551 18.4118 12.4378 18.5497 12.5481 18.7151Z" fill="#9D7BBE"/>
<path d="M14.0371 20.5901C13.8165 20.8383 13.458 20.5901 13.2099 20.7832C13.0996 20.8659 12.9341 20.921 12.8238 21.0038C12.7135 20.8659 12.5756 20.728 12.4653 20.5626C12.7687 20.5074 13.0168 20.3695 13.3477 20.3971C13.458 20.3971 13.6511 20.342 13.7062 20.1489C13.8165 20.3144 13.9268 20.4523 14.0371 20.5901Z" fill="#B571B7"/>
<path d="M11.2247 16.4815C10.8663 16.6745 10.5078 16.7572 10.1217 16.7848C10.0114 16.6469 9.95629 16.4539 9.92871 16.2885C10.2872 16.1782 10.6732 16.2609 11.0041 16.0679C11.142 16.1506 11.142 16.316 11.2247 16.4815Z" fill="#8189C8"/>
<path d="M10.5903 17.7777C11.004 17.7225 11.39 17.6122 11.7761 17.4744C11.8588 17.6122 11.9691 17.7777 12.0518 17.9156C11.8036 17.888 11.583 18.0534 11.3073 17.9431C11.2521 17.9156 11.1418 17.9707 11.1143 18.081C11.0591 18.2465 10.9488 18.2189 10.8109 18.2189C10.7006 18.081 10.6179 17.9431 10.5903 17.7777Z" fill="#9281C2"/>
<path d="M19.1939 15.5165C19.1112 15.7371 18.9181 15.7095 18.7527 15.7371C18.2839 15.7923 17.7875 15.7371 17.3463 15.9301C17.2912 15.9577 17.2085 15.9026 17.1533 15.875C17.4015 15.5717 17.76 15.5165 18.1184 15.4889C18.4769 15.4338 18.8354 15.4062 19.1939 15.5165Z" fill="#8A86C6"/>
<path d="M11.5005 19.2943C11.9417 19.3219 12.3553 19.184 12.7689 18.991C12.8792 19.1288 12.9895 19.2943 13.0998 19.4322C12.8517 19.4873 12.6035 19.6252 12.3277 19.4873C12.1899 19.4322 11.9417 19.5976 11.7487 19.6528C11.6384 19.57 11.5556 19.4322 11.5005 19.2943Z" fill="#A678BB"/>
<path d="M11.0039 16.0403C10.673 16.2885 10.3145 16.3161 9.92843 16.2609C9.90085 16.1506 9.87328 16.0679 9.8457 15.9576C9.90085 15.9576 9.956 15.93 9.98358 15.93C10.2869 16.0679 10.5351 15.8197 10.7833 15.7646C10.8384 15.7646 10.8384 15.7094 10.8384 15.6543C10.9487 15.7646 11.0039 15.9025 11.0039 16.0403Z" fill="#7B8BCA"/>
<path d="M9.57037 14.3032C9.84612 14.248 10.1494 14.2204 10.4252 14.1653C10.3976 14.3032 10.5079 14.4135 10.5079 14.5238C10.2046 14.5789 9.90127 14.6341 9.59795 14.6892C9.5428 14.5513 9.57037 14.4135 9.57037 14.3032Z" fill="#6496D2"/>
<path d="M17.1807 17.6397C17.3185 17.3915 17.5667 17.5294 17.7597 17.5018C17.7597 17.6397 17.8149 17.8603 17.5391 17.6673C17.4288 17.5845 17.291 17.6397 17.1807 17.6397Z" fill="#9C7CBF"/>
<path d="M17.8149 17.4742C17.8977 17.2812 18.0355 17.3087 18.1734 17.3915C18.0907 17.5293 17.9528 17.5845 17.8149 17.4742Z" fill="#9C7CBF"/>
</g>
<path d="M47.2781 28.573C46.7462 28.573 46.2741 28.4799 45.8619 28.2937C45.4563 28.1009 45.1372 27.825 44.9044 27.4659C44.6717 27.1069 44.5554 26.6681 44.5554 26.1495V25.8901H45.7422V26.1495C45.7422 26.6082 45.8818 26.9506 46.1611 27.1767C46.4403 27.4028 46.8127 27.5158 47.2781 27.5158C47.7502 27.5158 48.1059 27.4194 48.3452 27.2266C48.5846 27.0338 48.7043 26.7844 48.7043 26.4786C48.7043 26.2725 48.6478 26.1062 48.5347 25.9799C48.4217 25.8469 48.2555 25.7405 48.0361 25.6608C47.8233 25.581 47.564 25.5045 47.2582 25.4314L46.959 25.3715C46.5002 25.2652 46.1012 25.1322 45.7622 24.9726C45.4297 24.8064 45.1737 24.5936 44.9942 24.3343C44.8147 24.075 44.7249 23.7359 44.7249 23.317C44.7249 22.8981 44.8247 22.5391 45.0241 22.2399C45.2236 21.9407 45.5062 21.7113 45.8719 21.5517C46.2375 21.3922 46.6664 21.3124 47.1584 21.3124C47.6504 21.3124 48.0893 21.3955 48.4749 21.5617C48.8605 21.7279 49.1631 21.9773 49.3825 22.3097C49.6085 22.6422 49.7216 23.0577 49.7216 23.5564V23.8855H48.5347V23.5564C48.5347 23.2705 48.4782 23.0411 48.3652 22.8682C48.2522 22.6954 48.0926 22.569 47.8865 22.4892C47.6804 22.4095 47.4377 22.3696 47.1584 22.3696C46.7462 22.3696 46.4337 22.4493 46.2209 22.6089C46.0082 22.7685 45.9018 22.9946 45.9018 23.2871C45.9018 23.4733 45.9483 23.6329 46.0414 23.7658C46.1411 23.8922 46.2841 23.9985 46.4703 24.085C46.6631 24.1648 46.9024 24.2346 47.1883 24.2944L47.4875 24.3642C47.9663 24.4706 48.3851 24.6069 48.7442 24.7731C49.1032 24.9327 49.3825 25.1455 49.5819 25.4114C49.7881 25.6774 49.8911 26.0231 49.8911 26.4487C49.8911 26.8675 49.7814 27.2365 49.562 27.5557C49.3492 27.8748 49.0467 28.1242 48.6544 28.3037C48.2688 28.4832 47.81 28.573 47.2781 28.573ZM52.8671 28.5131C52.4882 28.5131 52.1524 28.43 51.8598 28.2638C51.5673 28.0909 51.3412 27.8516 51.1816 27.5457C51.0221 27.2332 50.9423 26.8709 50.9423 26.4586V23.5065H52.0792V26.3689C52.0792 26.7678 52.1757 27.0637 52.3685 27.2565C52.5679 27.4493 52.8472 27.5457 53.2062 27.5457C53.6118 27.5457 53.931 27.4127 54.1637 27.1468C54.403 26.8808 54.5227 26.4985 54.5227 25.9999V23.5065H55.6597V28.4333H54.5427V27.7452H54.3731C54.2867 27.9247 54.1271 28.0976 53.8944 28.2638C53.6683 28.43 53.3259 28.5131 52.8671 28.5131ZM59.1527 28.573C58.5144 28.573 57.9891 28.4333 57.5769 28.1541C57.1647 27.8748 56.9153 27.4659 56.8289 26.9274L57.8861 26.6581C57.9326 26.9108 58.0157 27.1102 58.1354 27.2565C58.2551 27.4028 58.4014 27.5058 58.5742 27.5657C58.7537 27.6255 58.9466 27.6554 59.1527 27.6554C59.4652 27.6554 59.6979 27.5989 59.8508 27.4859C60.0104 27.3729 60.0902 27.2299 60.0902 27.057C60.0902 26.8775 60.0137 26.7445 59.8608 26.6581C59.7145 26.5717 59.4884 26.4985 59.1826 26.4387L58.8734 26.3888C58.5343 26.3223 58.2252 26.2326 57.9459 26.1195C57.6667 25.9999 57.4406 25.8403 57.2677 25.6408C57.1015 25.4347 57.0184 25.1754 57.0184 24.8629C57.0184 24.3842 57.1946 24.0152 57.547 23.7559C57.906 23.4965 58.3748 23.3669 58.9532 23.3669C59.5051 23.3669 59.9605 23.4899 60.3196 23.7359C60.6786 23.9819 60.9113 24.311 61.0177 24.7233L59.9605 25.0424C59.9073 24.7632 59.791 24.567 59.6115 24.454C59.4319 24.3343 59.2125 24.2745 58.9532 24.2745C58.6873 24.2745 58.4811 24.321 58.3349 24.4141C58.1952 24.5072 58.1254 24.6402 58.1254 24.813C58.1254 24.9859 58.1986 25.1156 58.3448 25.202C58.4911 25.2884 58.6873 25.3516 58.9333 25.3915L59.2424 25.4513C59.6081 25.5178 59.9372 25.6042 60.2298 25.7106C60.529 25.817 60.765 25.9699 60.9379 26.1694C61.1108 26.3689 61.1972 26.6381 61.1972 26.9772C61.1972 27.4892 61.011 27.8848 60.6387 28.1641C60.273 28.4367 59.7777 28.573 59.1527 28.573ZM62.358 28.4333V21.452H63.5049V24.1548H63.6745C63.7277 24.0418 63.8141 23.9287 63.9338 23.8157C64.0535 23.7027 64.2097 23.6096 64.4025 23.5364C64.602 23.4633 64.8513 23.4267 65.1505 23.4267C65.5295 23.4267 65.8653 23.5132 66.1579 23.686C66.4504 23.8523 66.6765 24.0883 66.836 24.3941C67.0023 24.7 67.0854 25.0624 67.0854 25.4812V28.4333H65.9384V25.571C65.9384 25.1721 65.8387 24.8762 65.6392 24.6834C65.4464 24.4839 65.1705 24.3842 64.8115 24.3842C64.4059 24.3842 64.0867 24.5205 63.854 24.7931C63.6213 25.059 63.5049 25.4413 63.5049 25.94V28.4333H62.358ZM68.494 28.4333V23.5065H69.6409V28.4333H68.494ZM69.0624 22.8782C68.8563 22.8782 68.6768 22.8117 68.5239 22.6787C68.3776 22.5391 68.3045 22.3563 68.3045 22.1302C68.3045 21.9041 68.3776 21.7246 68.5239 21.5916C68.6768 21.452 68.8563 21.3822 69.0624 21.3822C69.2818 21.3822 69.4614 21.452 69.601 21.5916C69.7473 21.7246 69.8204 21.9041 69.8204 22.1302C69.8204 22.3563 69.7473 22.5391 69.601 22.6787C69.4614 22.8117 69.2818 22.8782 69.0624 22.8782Z" fill="#C5C5C5"/>
<path d="M47.2781 28.573C46.7462 28.573 46.2741 28.4799 45.8619 28.2937C45.4563 28.1009 45.1372 27.825 44.9044 27.4659C44.6717 27.1069 44.5554 26.6681 44.5554 26.1495V25.8901H45.7422V26.1495C45.7422 26.6082 45.8818 26.9506 46.1611 27.1767C46.4403 27.4028 46.8127 27.5158 47.2781 27.5158C47.7502 27.5158 48.1059 27.4194 48.3452 27.2266C48.5846 27.0338 48.7043 26.7844 48.7043 26.4786C48.7043 26.2725 48.6478 26.1062 48.5347 25.9799C48.4217 25.8469 48.2555 25.7405 48.0361 25.6608C47.8233 25.581 47.564 25.5045 47.2582 25.4314L46.959 25.3715C46.5002 25.2652 46.1012 25.1322 45.7622 24.9726C45.4297 24.8064 45.1737 24.5936 44.9942 24.3343C44.8147 24.075 44.7249 23.7359 44.7249 23.317C44.7249 22.8981 44.8247 22.5391 45.0241 22.2399C45.2236 21.9407 45.5062 21.7113 45.8719 21.5517C46.2375 21.3922 46.6664 21.3124 47.1584 21.3124C47.6504 21.3124 48.0893 21.3955 48.4749 21.5617C48.8605 21.7279 49.1631 21.9773 49.3825 22.3097C49.6085 22.6422 49.7216 23.0577 49.7216 23.5564V23.8855H48.5347V23.5564C48.5347 23.2705 48.4782 23.0411 48.3652 22.8682C48.2522 22.6954 48.0926 22.569 47.8865 22.4892C47.6804 22.4095 47.4377 22.3696 47.1584 22.3696C46.7462 22.3696 46.4337 22.4493 46.2209 22.6089C46.0082 22.7685 45.9018 22.9946 45.9018 23.2871C45.9018 23.4733 45.9483 23.6329 46.0414 23.7658C46.1411 23.8922 46.2841 23.9985 46.4703 24.085C46.6631 24.1648 46.9024 24.2346 47.1883 24.2944L47.4875 24.3642C47.9663 24.4706 48.3851 24.6069 48.7442 24.7731C49.1032 24.9327 49.3825 25.1455 49.5819 25.4114C49.7881 25.6774 49.8911 26.0231 49.8911 26.4487C49.8911 26.8675 49.7814 27.2365 49.562 27.5557C49.3492 27.8748 49.0467 28.1242 48.6544 28.3037C48.2688 28.4832 47.81 28.573 47.2781 28.573ZM52.8671 28.5131C52.4882 28.5131 52.1524 28.43 51.8598 28.2638C51.5673 28.0909 51.3412 27.8516 51.1816 27.5457C51.0221 27.2332 50.9423 26.8709 50.9423 26.4586V23.5065H52.0792V26.3689C52.0792 26.7678 52.1757 27.0637 52.3685 27.2565C52.5679 27.4493 52.8472 27.5457 53.2062 27.5457C53.6118 27.5457 53.931 27.4127 54.1637 27.1468C54.403 26.8808 54.5227 26.4985 54.5227 25.9999V23.5065H55.6597V28.4333H54.5427V27.7452H54.3731C54.2867 27.9247 54.1271 28.0976 53.8944 28.2638C53.6683 28.43 53.3259 28.5131 52.8671 28.5131ZM59.1527 28.573C58.5144 28.573 57.9891 28.4333 57.5769 28.1541C57.1647 27.8748 56.9153 27.4659 56.8289 26.9274L57.8861 26.6581C57.9326 26.9108 58.0157 27.1102 58.1354 27.2565C58.2551 27.4028 58.4014 27.5058 58.5742 27.5657C58.7537 27.6255 58.9466 27.6554 59.1527 27.6554C59.4652 27.6554 59.6979 27.5989 59.8508 27.4859C60.0104 27.3729 60.0902 27.2299 60.0902 27.057C60.0902 26.8775 60.0137 26.7445 59.8608 26.6581C59.7145 26.5717 59.4884 26.4985 59.1826 26.4387L58.8734 26.3888C58.5343 26.3223 58.2252 26.2326 57.9459 26.1195C57.6667 25.9999 57.4406 25.8403 57.2677 25.6408C57.1015 25.4347 57.0184 25.1754 57.0184 24.8629C57.0184 24.3842 57.1946 24.0152 57.547 23.7559C57.906 23.4965 58.3748 23.3669 58.9532 23.3669C59.5051 23.3669 59.9605 23.4899 60.3196 23.7359C60.6786 23.9819 60.9113 24.311 61.0177 24.7233L59.9605 25.0424C59.9073 24.7632 59.791 24.567 59.6115 24.454C59.4319 24.3343 59.2125 24.2745 58.9532 24.2745C58.6873 24.2745 58.4811 24.321 58.3349 24.4141C58.1952 24.5072 58.1254 24.6402 58.1254 24.813C58.1254 24.9859 58.1986 25.1156 58.3448 25.202C58.4911 25.2884 58.6873 25.3516 58.9333 25.3915L59.2424 25.4513C59.6081 25.5178 59.9372 25.6042 60.2298 25.7106C60.529 25.817 60.765 25.9699 60.9379 26.1694C61.1108 26.3689 61.1972 26.6381 61.1972 26.9772C61.1972 27.4892 61.011 27.8848 60.6387 28.1641C60.273 28.4367 59.7777 28.573 59.1527 28.573ZM62.358 28.4333V21.452H63.5049V24.1548H63.6745C63.7277 24.0418 63.8141 23.9287 63.9338 23.8157C64.0535 23.7027 64.2097 23.6096 64.4025 23.5364C64.602 23.4633 64.8513 23.4267 65.1505 23.4267C65.5295 23.4267 65.8653 23.5132 66.1579 23.686C66.4504 23.8523 66.6765 24.0883 66.836 24.3941C67.0023 24.7 67.0854 25.0624 67.0854 25.4812V28.4333H65.9384V25.571C65.9384 25.1721 65.8387 24.8762 65.6392 24.6834C65.4464 24.4839 65.1705 24.3842 64.8115 24.3842C64.4059 24.3842 64.0867 24.5205 63.854 24.7931C63.6213 25.059 63.5049 25.4413 63.5049 25.94V28.4333H62.358ZM68.494 28.4333V23.5065H69.6409V28.4333H68.494ZM69.0624 22.8782C68.8563 22.8782 68.6768 22.8117 68.5239 22.6787C68.3776 22.5391 68.3045 22.3563 68.3045 22.1302C68.3045 21.9041 68.3776 21.7246 68.5239 21.5916C68.6768 21.452 68.8563 21.3822 69.0624 21.3822C69.2818 21.3822 69.4614 21.452 69.601 21.5916C69.7473 21.7246 69.8204 21.9041 69.8204 22.1302C69.8204 22.3563 69.7473 22.5391 69.601 22.6787C69.4614 22.8117 69.2818 22.8782 69.0624 22.8782Z" fill="#0E0F23"/>
<defs>
<clipPath id="clip0">
<rect width="34" height="31.4079" fill="white" transform="translate(2.62109 9.22925)"/>
</clipPath>
</defs>
</svg>
