<svg width="43" height="26" viewBox="0 0 43 26" fill="none" xmlns="http://www.w3.org/2000/svg">
<path d="M23.3019 10.368C23.4209 9.61315 23.7085 8.89586 24.1429 8.27093C24.6187 7.55492 25.2647 6.97179 26.0212 6.57519C26.7776 6.17859 27.6203 5.98127 28.4717 6.0014C29.591 6.0014 30.7105 6.0014 31.8298 6.0014C32.5129 5.99967 33.1896 6.1358 33.8203 6.40185C34.451 6.6679 35.0232 7.05855 35.5035 7.55104C35.9839 8.04353 36.3626 8.62798 36.6179 9.27039C36.8732 9.9128 36.9998 10.6003 36.9904 11.2928C36.9904 12.4997 37.012 13.7034 36.9904 14.9071C36.952 16.2418 36.4101 17.5107 35.4765 18.4525C34.5429 19.3943 33.2887 19.9373 31.972 19.9697C30.7166 19.9948 29.4613 19.9916 28.2028 19.9697C27.0347 19.9276 25.9153 19.4849 25.0277 18.7138C24.1402 17.9427 23.5372 16.8891 23.3173 15.7253L23.3019 15.6125C23.3607 15.6125 23.41 15.6125 23.4595 15.6125C24.5572 15.6125 25.6518 15.6125 26.7495 15.6125C26.8017 15.6086 26.854 15.619 26.9008 15.6428C26.9476 15.6665 26.9871 15.7026 27.0154 15.7472C27.1697 15.9789 27.3786 16.168 27.6232 16.2971C27.8678 16.4263 28.1404 16.4916 28.4162 16.487C29.5478 16.487 30.6764 16.487 31.8174 16.487C32.0483 16.4904 32.2773 16.4466 32.4911 16.3582C32.7048 16.2697 32.8988 16.1384 33.0613 15.9722C33.2238 15.8059 33.3517 15.6082 33.4371 15.3907C33.5225 15.1732 33.5636 14.9405 33.5582 14.7065V11.2865C33.5631 11.0541 33.5222 10.8231 33.4376 10.607C33.353 10.3909 33.2264 10.1942 33.0655 10.0285C32.9047 9.86286 32.7128 9.73154 32.501 9.64233C32.2893 9.55312 32.0621 9.50782 31.8328 9.50913C30.698 9.50913 29.5601 9.50913 28.4316 9.50913C28.1527 9.50696 27.8776 9.57448 27.6306 9.7057C27.3836 9.83692 27.1723 10.0278 27.0154 10.2615C26.992 10.2935 26.9623 10.3203 26.9283 10.3403C26.8942 10.3602 26.8566 10.3729 26.8176 10.3775C25.6797 10.3775 24.5449 10.3775 23.4163 10.3775C23.3865 10.3793 23.3565 10.3793 23.3267 10.3775L23.3019 10.368ZM19.5389 15.6156C18.4474 15.6156 17.3559 15.6156 16.2675 15.6156C16.2086 15.611 16.1496 15.6236 16.0975 15.6519C16.0454 15.6803 16.0025 15.7231 15.9737 15.7754C15.8255 15.9968 15.6259 16.1778 15.3924 16.3025C15.1589 16.4271 14.8987 16.4915 14.6348 16.4901C13.4846 16.4901 12.3365 16.4901 11.1904 16.4901C10.9638 16.4931 10.7388 16.4502 10.5288 16.3639C10.3188 16.2776 10.1278 16.1497 9.96716 15.9877C9.80649 15.8257 9.67927 15.6328 9.59304 15.4204C9.50681 15.2079 9.46335 14.9801 9.46501 14.7504C9.46501 13.5812 9.46501 12.4119 9.46501 11.2426C9.46582 10.7851 9.64496 10.3463 9.96354 10.0222C10.2821 9.69805 10.7143 9.51475 11.1656 9.51227C12.3066 9.51227 13.4507 9.51227 14.5916 9.51227C14.87 9.50805 15.1449 9.57472 15.3912 9.70616C15.6376 9.8376 15.8473 10.0296 16.0015 10.2646C16.0259 10.3057 16.0611 10.3392 16.1031 10.3613C16.1451 10.3835 16.1923 10.3934 16.2396 10.39C17.028 10.39 17.8135 10.39 18.6019 10.39H19.6997C19.7034 10.3598 19.7034 10.3293 19.6997 10.2991C19.4868 9.12779 18.8864 8.06504 17.9977 7.28605C17.109 6.50706 15.9851 6.05838 14.8112 6.01395C13.6238 5.99201 12.4365 6.01395 11.2491 6.01395C10.5706 6.00442 9.89694 6.13062 9.26662 6.38536C8.63631 6.6401 8.06176 7.01837 7.57581 7.4985C7.08987 7.97863 6.70198 8.5512 6.43457 9.18345C6.16715 9.8157 6.02548 10.4952 6.01741 11.1831C5.99268 12.3868 5.99577 13.5905 6.01741 14.7974C6.02312 16.1748 6.56589 17.4941 7.5275 18.4672C8.48911 19.4403 9.79139 19.9883 11.1501 19.9916C12.2694 20.0104 13.3888 19.9916 14.5082 19.9916C15.3606 20.0171 16.2057 19.8245 16.9655 19.4317C17.7252 19.0389 18.3753 18.4585 18.8556 17.744C19.2986 17.1138 19.5926 16.3888 19.7151 15.625C19.644 15.625 19.5914 15.625 19.5419 15.625L19.5389 15.6156ZM12.3282 11.4433C12.5002 11.2954 12.7213 11.2192 12.9466 11.2301L30.0085 11.2301C30.1443 11.2133 30.2821 11.2277 30.4116 11.2724C30.5412 11.3171 30.6591 11.3909 30.7566 11.4882C30.8541 11.5856 30.9287 11.7039 30.9748 11.8346C31.0209 11.9652 31.0372 12.1047 31.0226 12.2426V13.81C31.0319 13.9395 31.0135 14.0694 30.9687 14.191C30.924 14.3126 30.8538 14.423 30.7631 14.5146C30.6724 14.6063 30.5634 14.677 30.4433 14.722C30.3232 14.7671 30.1949 14.7853 30.0673 14.7755L12.9837 14.7755C12.8506 14.7905 12.7158 14.7752 12.5892 14.7309C12.4626 14.6865 12.3472 14.6141 12.2516 14.519C12.156 14.4239 12.0824 14.3084 12.0363 14.1809C11.9902 14.0533 11.9727 13.917 11.985 13.7817V12.1643C11.9826 12.0268 12.0089 11.8904 12.0621 11.764C12.1154 11.6375 12.1946 11.524 12.2942 11.4307" fill="#3CA3D6"/>
<path d="M12.3282 11.4433C12.5002 11.2954 12.7213 11.2192 12.9466 11.2301L30.0085 11.2301C30.1443 11.2133 30.2821 11.2277 30.4116 11.2724C30.5412 11.3171 30.6591 11.3909 30.7566 11.4882C30.8541 11.5856 30.9287 11.7039 30.9748 11.8346C31.0209 11.9652 31.0372 12.1047 31.0226 12.2426V13.81C31.0319 13.9395 31.0135 14.0694 30.9687 14.191C30.924 14.3126 30.8538 14.423 30.7631 14.5147C30.6724 14.6063 30.5634 14.677 30.4433 14.722C30.3232 14.7671 30.1949 14.7853 30.0673 14.7755L12.9837 14.7755C12.8506 14.7905 12.7158 14.7752 12.5892 14.7309C12.4626 14.6865 12.3472 14.6141 12.2516 14.519C12.156 14.4239 12.0824 14.3084 12.0363 14.1809C11.9902 14.0533 11.9727 13.917 11.985 13.7817V12.1643C11.9826 12.0268 12.0089 11.8904 12.0621 11.764C12.1154 11.6375 12.1946 11.524 12.2942 11.4307M23.3019 10.368C23.4209 9.61315 23.7085 8.89586 24.1429 8.27093C24.6187 7.55492 25.2647 6.97179 26.0212 6.57519C26.7776 6.17859 27.6203 5.98127 28.4717 6.0014C29.591 6.0014 30.7105 6.0014 31.8298 6.0014C32.5129 5.99967 33.1896 6.1358 33.8203 6.40185C34.451 6.6679 35.0232 7.05855 35.5035 7.55104C35.9839 8.04353 36.3626 8.62798 36.6179 9.27039C36.8732 9.9128 36.9998 10.6003 36.9904 11.2928C36.9904 12.4997 37.012 13.7034 36.9904 14.9071C36.952 16.2418 36.4101 17.5107 35.4765 18.4525C34.5429 19.3943 33.2887 19.9373 31.972 19.9697C30.7166 19.9948 29.4613 19.9916 28.2028 19.9697C27.0347 19.9276 25.9153 19.4849 25.0277 18.7138C24.1402 17.9427 23.5372 16.8891 23.3173 15.7253L23.3019 15.6125C23.3607 15.6125 23.4101 15.6125 23.4595 15.6125C24.5572 15.6125 25.6518 15.6125 26.7495 15.6125C26.8017 15.6086 26.854 15.619 26.9008 15.6428C26.9476 15.6665 26.9871 15.7026 27.0154 15.7472C27.1697 15.9789 27.3786 16.168 27.6232 16.2971C27.8678 16.4263 28.1404 16.4916 28.4162 16.487C29.5478 16.487 30.6764 16.487 31.8174 16.487C32.0483 16.4904 32.2773 16.4466 32.4911 16.3582C32.7048 16.2697 32.8988 16.1384 33.0613 15.9722C33.2238 15.8059 33.3517 15.6082 33.4371 15.3907C33.5225 15.1732 33.5636 14.9405 33.5582 14.7065V11.2865C33.5631 11.0541 33.5222 10.8231 33.4376 10.607C33.353 10.3909 33.2264 10.1942 33.0655 10.0285C32.9047 9.86286 32.7128 9.73154 32.501 9.64233C32.2893 9.55312 32.0621 9.50782 31.8328 9.50913C30.698 9.50913 29.5601 9.50913 28.4316 9.50913C28.1527 9.50696 27.8776 9.57448 27.6306 9.7057C27.3836 9.83691 27.1723 10.0278 27.0154 10.2615C26.992 10.2935 26.9623 10.3203 26.9283 10.3403C26.8942 10.3602 26.8566 10.3729 26.8176 10.3775C25.6797 10.3775 24.5449 10.3775 23.4163 10.3775C23.3865 10.3793 23.3565 10.3793 23.3267 10.3775L23.3019 10.368ZM19.5389 15.6156C18.4474 15.6156 17.3559 15.6156 16.2675 15.6156C16.2086 15.611 16.1496 15.6236 16.0975 15.6519C16.0454 15.6803 16.0025 15.7231 15.9737 15.7754C15.8255 15.9968 15.6259 16.1778 15.3924 16.3025C15.1589 16.4271 14.8987 16.4915 14.6348 16.4901C13.4846 16.4901 12.3365 16.4901 11.1904 16.4901C10.9638 16.4931 10.7388 16.4502 10.5288 16.3639C10.3188 16.2776 10.1278 16.1497 9.96716 15.9877C9.80649 15.8257 9.67927 15.6328 9.59304 15.4204C9.50681 15.2079 9.46335 14.9801 9.46501 14.7504C9.46501 13.5812 9.46501 12.4119 9.46501 11.2426C9.46582 10.7851 9.64496 10.3463 9.96354 10.0222C10.2821 9.69805 10.7143 9.51475 11.1656 9.51227C12.3066 9.51227 13.4507 9.51227 14.5916 9.51227C14.87 9.50805 15.1449 9.57472 15.3912 9.70616C15.6376 9.8376 15.8473 10.0296 16.0015 10.2646C16.0259 10.3057 16.0611 10.3392 16.1031 10.3613C16.1451 10.3835 16.1923 10.3934 16.2396 10.39C17.028 10.39 17.8135 10.39 18.6019 10.39H19.6997C19.7034 10.3598 19.7034 10.3293 19.6997 10.2991C19.4868 9.12779 18.8864 8.06504 17.9977 7.28605C17.109 6.50706 15.9851 6.05838 14.8112 6.01395C13.6238 5.99201 12.4365 6.01395 11.2491 6.01395C10.5706 6.00442 9.89694 6.13062 9.26662 6.38536C8.63631 6.6401 8.06176 7.01837 7.57581 7.4985C7.08987 7.97863 6.70198 8.5512 6.43457 9.18345C6.16715 9.8157 6.02548 10.4952 6.01741 11.1831C5.99268 12.3868 5.99577 13.5905 6.01741 14.7974C6.02312 16.1748 6.56589 17.4941 7.5275 18.4672C8.48911 19.4403 9.79139 19.9883 11.1501 19.9916C12.2694 20.0104 13.3888 19.9916 14.5081 19.9916C15.3606 20.0171 16.2057 19.8245 16.9655 19.4317C17.7252 19.0389 18.3753 18.4585 18.8556 17.744C19.2986 17.1138 19.5926 16.3888 19.7151 15.625C19.644 15.625 19.5914 15.625 19.5419 15.625L19.5389 15.6156Z" stroke="#F9C2CA"/>
</svg>
