<?xml version="1.0" encoding="utf-8"?>
<!-- Generator: Adobe Illustrator 25.3.1, SVG Export Plug-In . SVG Version: 6.00 Build 0)  -->
<svg version="1.1" id="Layer_1" xmlns="http://www.w3.org/2000/svg" xmlns:xlink="http://www.w3.org/1999/xlink" x="0px" y="0px"
	 viewBox="0 0 1080 1080" style="enable-background:new 0 0 1080 1080;" xml:space="preserve">
<style type="text/css">
	.st0{fill:#E64072;}
	.st1{fill:#2465C5;}
</style>
<g>
	<path class="st0" d="M539,869H423.2c-13.53,0-24.5-10.97-24.5-24.5s10.97-24.5,24.5-24.5H539c47.99,0,93.54-19.63,128.26-55.28
		C701.91,729.13,721,682.71,721,634c0-49.43-17.48-94.56-49.22-127.07c-33.14-33.95-79.17-52.59-133.14-53.93l-65.71-0.3
		c-13.92,0.03-25.24,11.37-25.24,25.3c0,13.93,11.32,25.27,25.25,25.3l61.93-0.3c0.04,0,0.08,0,0.12,0
		c36.36,0,70.31,13.07,95.6,36.79C656.65,564.22,671,597.68,671,634c0,74.99-61.01,136-136,136H373c-40.25,0-73-32.75-73-73V247.5
		c0-13.53,10.97-24.5,24.5-24.5s24.5,10.97,24.5,24.5V697c0,13.23,10.77,24,24,24h162c47.97,0,87-39.03,87-87
		c0-46.73-37.37-81.97-86.94-82l-61.94,0.3c-0.04,0-0.08,0-0.12,0c-40.97,0-74.3-33.33-74.3-74.3s33.33-74.3,74.3-74.3
		c0.04,0,0.07,0,0.11,0l66,0.3c0.16,0,0.32,0,0.47,0.01c33.67,0.8,65.32,7.3,94.06,19.3c27.97,11.68,52.6,28.3,73.19,49.39
		C747.57,514.42,770,571.7,770,634c0,31.03-6.13,61.39-18.21,90.24c-11.66,27.84-28.29,52.96-49.43,74.67
		C658.34,844.11,600.32,869,539,869z"/>
</g>
</svg>
