<svg width="833" height="222" viewBox="0 0 833 222" fill="none" xmlns="http://www.w3.org/2000/svg">
<rect x="1" y="1" width="649.908" height="219.148" rx="15" fill="url(#paint0_linear)" stroke="#0E47EF" stroke-width="2" stroke-dasharray="2 5"/>
<rect x="659.162" width="173.38" height="221.148" rx="16" fill="url(#paint1_linear)"/>
<path d="M659.15 37.0783V14.9132H707.097C713.218 14.9132 718.18 19.875 718.18 25.9958C718.18 32.1165 713.218 37.0783 707.097 37.0783H659.15Z" fill="white" stroke="white" stroke-width="2"/>
<path d="M661.035 30V21.6H666.111V22.296H661.803V25.44H665.775V26.136H661.803V29.304H666.159V30H661.035ZM667.412 30L669.848 27.036L667.496 24.168H668.396L670.304 26.556H670.448L672.356 24.168H673.256L670.904 27.036L673.34 30H672.428L670.448 27.516H670.304L668.324 30H667.412ZM677.282 30.168C676.682 30.168 676.158 30.044 675.71 29.796C675.27 29.54 674.926 29.184 674.678 28.728C674.43 28.272 674.306 27.748 674.306 27.156V27.012C674.306 26.412 674.43 25.888 674.678 25.44C674.926 24.984 675.266 24.632 675.698 24.384C676.138 24.128 676.638 24 677.198 24C677.742 24 678.222 24.116 678.638 24.348C679.062 24.572 679.394 24.9 679.634 25.332C679.874 25.756 679.994 26.264 679.994 26.856V27.24H675.026C675.05 27.968 675.27 28.532 675.686 28.932C676.11 29.324 676.642 29.52 677.282 29.52C677.826 29.52 678.246 29.396 678.542 29.148C678.846 28.9 679.078 28.596 679.238 28.236L679.886 28.524C679.766 28.788 679.598 29.048 679.382 29.304C679.174 29.552 678.902 29.76 678.566 29.928C678.23 30.088 677.802 30.168 677.282 30.168ZM675.038 26.616H679.262C679.23 25.984 679.026 25.5 678.65 25.164C678.274 24.82 677.79 24.648 677.198 24.648C676.614 24.648 676.13 24.82 675.746 25.164C675.362 25.5 675.126 25.984 675.038 26.616ZM684.43 30.168C683.862 30.168 683.354 30.048 682.906 29.808C682.466 29.56 682.118 29.208 681.862 28.752C681.606 28.296 681.478 27.76 681.478 27.144V27.024C681.478 26.4 681.606 25.864 681.862 25.416C682.118 24.96 682.466 24.612 682.906 24.372C683.354 24.124 683.862 24 684.43 24C684.99 24 685.462 24.108 685.846 24.324C686.238 24.532 686.542 24.808 686.758 25.152C686.982 25.488 687.122 25.844 687.178 26.22L686.47 26.364C686.43 26.052 686.33 25.768 686.17 25.512C686.01 25.248 685.786 25.04 685.498 24.888C685.21 24.728 684.854 24.648 684.43 24.648C684.006 24.648 683.626 24.748 683.29 24.948C682.954 25.14 682.686 25.416 682.486 25.776C682.294 26.128 682.198 26.548 682.198 27.036V27.132C682.198 27.62 682.294 28.044 682.486 28.404C682.686 28.756 682.954 29.032 683.29 29.232C683.626 29.424 684.006 29.52 684.43 29.52C685.07 29.52 685.558 29.356 685.894 29.028C686.23 28.692 686.438 28.284 686.518 27.804L687.226 27.948C687.154 28.324 687.002 28.684 686.77 29.028C686.546 29.364 686.238 29.64 685.846 29.856C685.462 30.064 684.99 30.168 684.43 30.168ZM691.241 30.12C690.825 30.12 690.437 30.032 690.077 29.856C689.725 29.68 689.441 29.416 689.225 29.064C689.017 28.704 688.913 28.256 688.913 27.72V24.168H689.633V27.672C689.633 28.304 689.793 28.764 690.113 29.052C690.433 29.332 690.861 29.472 691.397 29.472C691.997 29.472 692.497 29.276 692.897 28.884C693.297 28.484 693.497 27.884 693.497 27.084V24.168H694.217V30H693.521V28.92H693.377C693.233 29.232 692.997 29.512 692.669 29.76C692.341 30 691.865 30.12 691.241 30.12ZM698.445 30C698.133 30 697.897 29.92 697.737 29.76C697.585 29.6 697.509 29.376 697.509 29.088V24.816H695.637V24.168H697.509V21.984H698.229V24.168H700.269V24.816H698.229V28.992C698.229 29.232 698.349 29.352 698.589 29.352H699.957V30H698.445ZM704.353 30.168C703.753 30.168 703.229 30.044 702.781 29.796C702.341 29.54 701.997 29.184 701.749 28.728C701.501 28.272 701.377 27.748 701.377 27.156V27.012C701.377 26.412 701.501 25.888 701.749 25.44C701.997 24.984 702.337 24.632 702.769 24.384C703.209 24.128 703.709 24 704.269 24C704.813 24 705.293 24.116 705.709 24.348C706.133 24.572 706.465 24.9 706.705 25.332C706.945 25.756 707.065 26.264 707.065 26.856V27.24H702.097C702.121 27.968 702.341 28.532 702.757 28.932C703.181 29.324 703.713 29.52 704.353 29.52C704.897 29.52 705.317 29.396 705.613 29.148C705.917 28.9 706.149 28.596 706.309 28.236L706.957 28.524C706.837 28.788 706.669 29.048 706.453 29.304C706.245 29.552 705.973 29.76 705.637 29.928C705.301 30.088 704.873 30.168 704.353 30.168ZM702.109 26.616H706.333C706.301 25.984 706.097 25.5 705.721 25.164C705.345 24.82 704.861 24.648 704.269 24.648C703.685 24.648 703.201 24.82 702.817 25.164C702.433 25.5 702.197 25.984 702.109 26.616ZM711.357 30.168C710.837 30.168 710.365 30.048 709.941 29.808C709.517 29.56 709.177 29.212 708.921 28.764C708.673 28.308 708.549 27.772 708.549 27.156V27.012C708.549 26.396 708.673 25.864 708.921 25.416C709.169 24.96 709.505 24.612 709.929 24.372C710.361 24.124 710.837 24 711.357 24C711.789 24 712.153 24.06 712.449 24.18C712.745 24.292 712.985 24.44 713.169 24.624C713.361 24.8 713.509 24.988 713.613 25.188H713.757V21.6H714.477V30H713.781V28.932H713.637C713.469 29.252 713.205 29.54 712.845 29.796C712.493 30.044 711.997 30.168 711.357 30.168ZM711.525 29.52C712.189 29.52 712.725 29.308 713.133 28.884C713.549 28.46 713.757 27.876 713.757 27.132V27.036C713.757 26.292 713.549 25.708 713.133 25.284C712.725 24.86 712.189 24.648 711.525 24.648C710.869 24.648 710.333 24.86 709.917 25.284C709.501 25.708 709.293 26.292 709.293 27.036V27.132C709.293 27.876 709.501 28.46 709.917 28.884C710.333 29.308 710.869 29.52 711.525 29.52Z" fill="#0E47EF"/>
<path d="M0 13.9132H48.9471C55.6201 13.9132 61.0297 19.3228 61.0297 25.9958V25.9958C61.0297 32.6688 55.6201 38.0783 48.9471 38.0783H0" stroke="#0E47EF"/>
<path d="M6.96113 30.168C5.97713 30.168 5.18913 29.88 4.59713 29.304C4.01313 28.72 3.72113 27.868 3.72113 26.748V24.852C3.72113 23.732 4.01313 22.884 4.59713 22.308C5.18913 21.724 5.97713 21.432 6.96113 21.432C7.93713 21.432 8.68113 21.708 9.19313 22.26C9.71313 22.804 9.97313 23.548 9.97313 24.492V24.552H9.20513V24.468C9.20513 23.78 9.02113 23.22 8.65313 22.788C8.29313 22.348 7.72913 22.128 6.96113 22.128C6.18513 22.128 5.57713 22.364 5.13713 22.836C4.70513 23.308 4.48913 23.972 4.48913 24.828V26.772C4.48913 27.628 4.70513 28.292 5.13713 28.764C5.57713 29.236 6.18513 29.472 6.96113 29.472C7.72913 29.472 8.29313 29.256 8.65313 28.824C9.02113 28.384 9.20513 27.82 9.20513 27.132V26.952H9.97313V27.108C9.97313 28.052 9.71313 28.8 9.19313 29.352C8.68113 29.896 7.93713 30.168 6.96113 30.168ZM13.4846 30.168C13.0766 30.168 12.7046 30.1 12.3686 29.964C12.0406 29.82 11.7806 29.612 11.5886 29.34C11.3966 29.068 11.3006 28.74 11.3006 28.356C11.3006 27.964 11.3966 27.64 11.5886 27.384C11.7806 27.128 12.0406 26.936 12.3686 26.808C12.6966 26.68 13.0606 26.616 13.4606 26.616H15.5966V26.148C15.5966 25.676 15.4606 25.308 15.1886 25.044C14.9166 24.78 14.5206 24.648 14.0006 24.648C13.4886 24.648 13.0806 24.776 12.7766 25.032C12.4806 25.28 12.2806 25.616 12.1766 26.04L11.4806 25.836C11.5766 25.492 11.7286 25.184 11.9366 24.912C12.1446 24.632 12.4206 24.412 12.7646 24.252C13.1086 24.084 13.5206 24 14.0006 24C14.7366 24 15.3046 24.192 15.7046 24.576C16.1126 24.96 16.3166 25.496 16.3166 26.184V29.016C16.3166 29.256 16.4286 29.376 16.6526 29.376H17.2166V30H16.4486C16.2006 30 16.0046 29.928 15.8606 29.784C15.7166 29.632 15.6446 29.428 15.6446 29.172V29.088H15.5246C15.4206 29.264 15.2846 29.436 15.1166 29.604C14.9566 29.772 14.7446 29.908 14.4806 30.012C14.2166 30.116 13.8846 30.168 13.4846 30.168ZM13.5326 29.52C14.1486 29.52 14.6446 29.336 15.0206 28.968C15.4046 28.592 15.5966 28.064 15.5966 27.384V27.24H13.4726C13.0566 27.24 12.7086 27.332 12.4286 27.516C12.1566 27.692 12.0206 27.968 12.0206 28.344C12.0206 28.72 12.1606 29.012 12.4406 29.22C12.7286 29.42 13.0926 29.52 13.5326 29.52ZM18.5873 30V24.168H19.2833V25.248H19.4273C19.5713 24.936 19.8073 24.66 20.1353 24.42C20.4633 24.172 20.9393 24.048 21.5633 24.048C21.9873 24.048 22.3753 24.136 22.7273 24.312C23.0793 24.488 23.3593 24.756 23.5673 25.116C23.7833 25.468 23.8913 25.912 23.8913 26.448V30H23.1713V26.496C23.1713 25.856 23.0113 25.396 22.6913 25.116C22.3713 24.836 21.9433 24.696 21.4073 24.696C20.8073 24.696 20.3073 24.896 19.9073 25.296C19.5073 25.688 19.3073 26.284 19.3073 27.084V30H18.5873ZM28.5989 30.168C28.0309 30.168 27.5229 30.048 27.0749 29.808C26.6349 29.56 26.2869 29.208 26.0309 28.752C25.7749 28.296 25.6469 27.76 25.6469 27.144V27.024C25.6469 26.4 25.7749 25.864 26.0309 25.416C26.2869 24.96 26.6349 24.612 27.0749 24.372C27.5229 24.124 28.0309 24 28.5989 24C29.1589 24 29.6309 24.108 30.0149 24.324C30.4069 24.532 30.7109 24.808 30.9269 25.152C31.1509 25.488 31.2909 25.844 31.3469 26.22L30.6389 26.364C30.5989 26.052 30.4989 25.768 30.3389 25.512C30.1789 25.248 29.9549 25.04 29.6669 24.888C29.3789 24.728 29.0229 24.648 28.5989 24.648C28.1749 24.648 27.7949 24.748 27.4589 24.948C27.1229 25.14 26.8549 25.416 26.6549 25.776C26.4629 26.128 26.3669 26.548 26.3669 27.036V27.132C26.3669 27.62 26.4629 28.044 26.6549 28.404C26.8549 28.756 27.1229 29.032 27.4589 29.232C27.7949 29.424 28.1749 29.52 28.5989 29.52C29.2389 29.52 29.7269 29.356 30.0629 29.028C30.3989 28.692 30.6069 28.284 30.6869 27.804L31.3949 27.948C31.3229 28.324 31.1709 28.684 30.9389 29.028C30.7149 29.364 30.4069 29.64 30.0149 29.856C29.6309 30.064 29.1589 30.168 28.5989 30.168ZM35.8534 30.168C35.2534 30.168 34.7294 30.044 34.2814 29.796C33.8414 29.54 33.4974 29.184 33.2494 28.728C33.0014 28.272 32.8774 27.748 32.8774 27.156V27.012C32.8774 26.412 33.0014 25.888 33.2494 25.44C33.4974 24.984 33.8374 24.632 34.2694 24.384C34.7094 24.128 35.2094 24 35.7694 24C36.3134 24 36.7934 24.116 37.2094 24.348C37.6334 24.572 37.9654 24.9 38.2054 25.332C38.4454 25.756 38.5654 26.264 38.5654 26.856V27.24H33.5974C33.6214 27.968 33.8414 28.532 34.2574 28.932C34.6814 29.324 35.2134 29.52 35.8534 29.52C36.3974 29.52 36.8174 29.396 37.1134 29.148C37.4174 28.9 37.6494 28.596 37.8094 28.236L38.4574 28.524C38.3374 28.788 38.1694 29.048 37.9534 29.304C37.7454 29.552 37.4734 29.76 37.1374 29.928C36.8014 30.088 36.3734 30.168 35.8534 30.168ZM33.6094 26.616H37.8334C37.8014 25.984 37.5974 25.5 37.2214 25.164C36.8454 24.82 36.3614 24.648 35.7694 24.648C35.1854 24.648 34.7014 24.82 34.3174 25.164C33.9334 25.5 33.6974 25.984 33.6094 26.616ZM40.3373 30V21.6H41.0573V30H40.3373ZM45.8612 30.168C45.2612 30.168 44.7372 30.044 44.2892 29.796C43.8492 29.54 43.5052 29.184 43.2572 28.728C43.0092 28.272 42.8852 27.748 42.8852 27.156V27.012C42.8852 26.412 43.0092 25.888 43.2572 25.44C43.5052 24.984 43.8452 24.632 44.2772 24.384C44.7172 24.128 45.2172 24 45.7772 24C46.3212 24 46.8012 24.116 47.2172 24.348C47.6412 24.572 47.9732 24.9 48.2132 25.332C48.4532 25.756 48.5732 26.264 48.5732 26.856V27.24H43.6052C43.6292 27.968 43.8492 28.532 44.2652 28.932C44.6892 29.324 45.2212 29.52 45.8612 29.52C46.4052 29.52 46.8252 29.396 47.1212 29.148C47.4252 28.9 47.6572 28.596 47.8172 28.236L48.4652 28.524C48.3452 28.788 48.1772 29.048 47.9612 29.304C47.7532 29.552 47.4812 29.76 47.1452 29.928C46.8092 30.088 46.3812 30.168 45.8612 30.168ZM43.6172 26.616H47.8412C47.8092 25.984 47.6052 25.5 47.2292 25.164C46.8532 24.82 46.3692 24.648 45.7772 24.648C45.1932 24.648 44.7092 24.82 44.3252 25.164C43.9412 25.5 43.7052 25.984 43.6172 26.616ZM52.8651 30.168C52.3451 30.168 51.8731 30.048 51.4491 29.808C51.0251 29.56 50.6851 29.212 50.4291 28.764C50.1811 28.308 50.0571 27.772 50.0571 27.156V27.012C50.0571 26.396 50.1811 25.864 50.4291 25.416C50.6771 24.96 51.0131 24.612 51.4371 24.372C51.8691 24.124 52.3451 24 52.8651 24C53.2971 24 53.6611 24.06 53.9571 24.18C54.2531 24.292 54.4931 24.44 54.6771 24.624C54.8691 24.8 55.0171 24.988 55.1211 25.188H55.2651V21.6H55.9851V30H55.2891V28.932H55.1451C54.9771 29.252 54.7131 29.54 54.3531 29.796C54.0011 30.044 53.5051 30.168 52.8651 30.168ZM53.0331 29.52C53.6971 29.52 54.2331 29.308 54.6411 28.884C55.0571 28.46 55.2651 27.876 55.2651 27.132V27.036C55.2651 26.292 55.0571 25.708 54.6411 25.284C54.2331 24.86 53.6971 24.648 53.0331 24.648C52.3771 24.648 51.8411 24.86 51.4251 25.284C51.0091 25.708 50.8011 26.292 50.8011 27.036V27.132C50.8011 27.876 51.0091 28.46 51.4251 28.884C51.8411 29.308 52.3771 29.52 53.0331 29.52Z" fill="#0E47EF"/>
<path d="M83.5 55C82.6716 55 82 55.6716 82 56.5C82 57.3284 82.6716 58 83.5 58H93.5C94.3284 58 95 57.3284 95 56.5C95 55.6716 94.3284 55 93.5 55H83.5Z" fill="#0E47EF"/>
<path d="M104 52.5C104 51.6716 104.672 51 105.5 51H109.5C110.328 51 111 51.6716 111 52.5C111 53.3284 110.328 54 109.5 54H105.5C104.672 54 104 53.3284 104 52.5Z" fill="#0E47EF"/>
<path d="M83.5 63C82.6716 63 82 63.6716 82 64.5C82 65.3284 82.6716 66 83.5 66H93.5C94.3284 66 95 65.3284 95 64.5C95 63.6716 94.3284 63 93.5 63H83.5Z" fill="#0E47EF"/>
<path fill-rule="evenodd" clip-rule="evenodd" d="M79.1364 43C76.3542 43 74 45.1851 74 48V69C74 71.8149 76.3542 74 79.1364 74H111.864C114.646 74 117 71.8149 117 69V48C117 45.1851 114.646 43 111.864 43H79.1364ZM77 48C77 46.949 77.9019 46 79.1364 46H111.864C113.098 46 114 46.949 114 48V69C114 70.0511 113.098 71 111.864 71H79.1364C77.9019 71 77 70.0511 77 69V48Z" fill="#0E47EF"/>
<path d="M23.2716 109V96.4H27.9336C28.6776 96.4 29.3436 96.544 29.9316 96.832C30.5316 97.108 31.0056 97.51 31.3536 98.038C31.7016 98.566 31.8756 99.208 31.8756 99.964V100.18C31.8756 100.936 31.6956 101.584 31.3356 102.124C30.9876 102.652 30.5136 103.054 29.9136 103.33C29.3256 103.606 28.6656 103.744 27.9336 103.744H24.4236V109H23.2716ZM24.4236 102.7H27.8076C28.7076 102.7 29.4156 102.478 29.9316 102.034C30.4596 101.59 30.7236 100.966 30.7236 100.162V99.982C30.7236 99.166 30.4656 98.542 29.9496 98.11C29.4456 97.666 28.7316 97.444 27.8076 97.444H24.4236V102.7ZM34.1006 109V100.252H35.1446V101.35H35.3606C35.5286 100.954 35.7746 100.666 36.0986 100.486C36.4346 100.306 36.8966 100.216 37.4846 100.216H38.5106V101.224H37.3586C36.6986 101.224 36.1706 101.41 35.7746 101.782C35.3786 102.154 35.1806 102.736 35.1806 103.528V109H34.1006ZM44.4247 109.252C43.5367 109.252 42.7567 109.066 42.0847 108.694C41.4247 108.31 40.9087 107.782 40.5367 107.11C40.1767 106.426 39.9967 105.634 39.9967 104.734V104.518C39.9967 103.618 40.1767 102.832 40.5367 102.16C40.9087 101.476 41.4247 100.948 42.0847 100.576C42.7567 100.192 43.5367 100 44.4247 100C45.3127 100 46.0867 100.192 46.7467 100.576C47.4187 100.948 47.9347 101.476 48.2947 102.16C48.6667 102.832 48.8527 103.618 48.8527 104.518V104.734C48.8527 105.634 48.6667 106.426 48.2947 107.11C47.9347 107.782 47.4187 108.31 46.7467 108.694C46.0867 109.066 45.3127 109.252 44.4247 109.252ZM44.4247 108.28C45.4567 108.28 46.2727 107.956 46.8727 107.308C47.4727 106.648 47.7727 105.778 47.7727 104.698V104.554C47.7727 103.474 47.4727 102.61 46.8727 101.962C46.2727 101.302 45.4567 100.972 44.4247 100.972C43.4047 100.972 42.5887 101.302 41.9767 101.962C41.3767 102.61 41.0767 103.474 41.0767 104.554V104.698C41.0767 105.778 41.3767 106.648 41.9767 107.308C42.5887 107.956 43.4047 108.28 44.4247 108.28ZM51.5908 112.6V100.252H52.6348V101.854H52.8508C53.1028 101.374 53.4928 100.948 54.0208 100.576C54.5608 100.192 55.3108 100 56.2708 100C57.0508 100 57.7588 100.186 58.3948 100.558C59.0308 100.918 59.5348 101.434 59.9068 102.106C60.2908 102.778 60.4828 103.582 60.4828 104.518V104.734C60.4828 105.658 60.2968 106.462 59.9248 107.146C59.5528 107.818 59.0488 108.34 58.4128 108.712C57.7768 109.072 57.0628 109.252 56.2708 109.252C55.6348 109.252 55.0888 109.168 54.6328 109C54.1888 108.82 53.8228 108.592 53.5348 108.316C53.2588 108.04 53.0428 107.758 52.8868 107.47H52.6708V112.6H51.5908ZM56.0188 108.28C57.0148 108.28 57.8188 107.962 58.4308 107.326C59.0548 106.69 59.3668 105.814 59.3668 104.698V104.554C59.3668 103.438 59.0548 102.562 58.4308 101.926C57.8188 101.29 57.0148 100.972 56.0188 100.972C55.0348 100.972 54.2308 101.29 53.6068 101.926C52.9828 102.562 52.6708 103.438 52.6708 104.554V104.698C52.6708 105.814 52.9828 106.69 53.6068 107.326C54.2308 107.962 55.0348 108.28 56.0188 108.28ZM67.2236 109.252C66.3356 109.252 65.5556 109.066 64.8836 108.694C64.2236 108.31 63.7076 107.782 63.3356 107.11C62.9756 106.426 62.7956 105.634 62.7956 104.734V104.518C62.7956 103.618 62.9756 102.832 63.3356 102.16C63.7076 101.476 64.2236 100.948 64.8836 100.576C65.5556 100.192 66.3356 100 67.2236 100C68.1116 100 68.8856 100.192 69.5456 100.576C70.2176 100.948 70.7336 101.476 71.0936 102.16C71.4656 102.832 71.6516 103.618 71.6516 104.518V104.734C71.6516 105.634 71.4656 106.426 71.0936 107.11C70.7336 107.782 70.2176 108.31 69.5456 108.694C68.8856 109.066 68.1116 109.252 67.2236 109.252ZM67.2236 108.28C68.2556 108.28 69.0716 107.956 69.6716 107.308C70.2716 106.648 70.5716 105.778 70.5716 104.698V104.554C70.5716 103.474 70.2716 102.61 69.6716 101.962C69.0716 101.302 68.2556 100.972 67.2236 100.972C66.2036 100.972 65.3876 101.302 64.7756 101.962C64.1756 102.61 63.8756 103.474 63.8756 104.554V104.698C63.8756 105.778 64.1756 106.648 64.7756 107.308C65.3876 107.956 66.2036 108.28 67.2236 108.28ZM77.8637 109.252C76.8077 109.252 75.9017 109 75.1457 108.496C74.4017 107.992 73.9457 107.158 73.7777 105.994L74.8397 105.796C74.9357 106.432 75.1277 106.936 75.4157 107.308C75.7157 107.668 76.0757 107.926 76.4957 108.082C76.9277 108.238 77.3837 108.316 77.8637 108.316C78.5837 108.316 79.1597 108.172 79.5917 107.884C80.0357 107.584 80.2577 107.176 80.2577 106.66C80.2577 106.132 80.0477 105.766 79.6277 105.562C79.2197 105.358 78.6737 105.196 77.9897 105.076L77.1617 104.932C76.6097 104.836 76.1117 104.692 75.6677 104.5C75.2237 104.296 74.8697 104.026 74.6057 103.69C74.3537 103.354 74.2277 102.934 74.2277 102.43C74.2277 101.674 74.5217 101.08 75.1097 100.648C75.7097 100.216 76.5017 100 77.4857 100C78.4817 100 79.2797 100.228 79.8797 100.684C80.4917 101.128 80.8757 101.776 81.0317 102.628L80.0237 102.844C79.9037 102.148 79.6157 101.656 79.1597 101.368C78.7157 101.08 78.1577 100.936 77.4857 100.936C76.8257 100.936 76.2977 101.062 75.9017 101.314C75.5057 101.566 75.3077 101.938 75.3077 102.43C75.3077 102.91 75.4877 103.264 75.8477 103.492C76.2077 103.708 76.6997 103.87 77.3237 103.978L78.1517 104.122C78.7517 104.218 79.2917 104.362 79.7717 104.554C80.2517 104.734 80.6297 104.992 80.9057 105.328C81.1937 105.664 81.3377 106.108 81.3377 106.66C81.3377 107.488 81.0257 108.13 80.4017 108.586C79.7777 109.03 78.9317 109.252 77.8637 109.252ZM86.5111 109.252C85.8991 109.252 85.3411 109.15 84.8371 108.946C84.3451 108.73 83.9551 108.418 83.6671 108.01C83.3791 107.602 83.2351 107.11 83.2351 106.534C83.2351 105.946 83.3791 105.46 83.6671 105.076C83.9551 104.692 84.3451 104.404 84.8371 104.212C85.3291 104.02 85.8751 103.924 86.4751 103.924H89.6791V103.222C89.6791 102.514 89.4751 101.962 89.0671 101.566C88.6591 101.17 88.0651 100.972 87.2851 100.972C86.5171 100.972 85.9051 101.164 85.4491 101.548C85.0051 101.92 84.7051 102.424 84.5491 103.06L83.5051 102.754C83.6491 102.238 83.8771 101.776 84.1891 101.368C84.5011 100.948 84.9151 100.618 85.4311 100.378C85.9471 100.126 86.5651 100 87.2851 100C88.3891 100 89.2411 100.288 89.8411 100.864C90.4531 101.44 90.7591 102.244 90.7591 103.276V107.524C90.7591 107.884 90.9271 108.064 91.2631 108.064H92.1091V109H90.9571C90.5851 109 90.2911 108.892 90.0751 108.676C89.8591 108.448 89.7511 108.142 89.7511 107.758V107.632H89.5711C89.4151 107.896 89.2111 108.154 88.9591 108.406C88.7191 108.658 88.4011 108.862 88.0051 109.018C87.6091 109.174 87.1111 109.252 86.5111 109.252ZM86.5831 108.28C87.5071 108.28 88.2511 108.004 88.8151 107.452C89.3911 106.888 89.6791 106.096 89.6791 105.076V104.86H86.4931C85.8691 104.86 85.3471 104.998 84.9271 105.274C84.5191 105.538 84.3151 105.952 84.3151 106.516C84.3151 107.08 84.5251 107.518 84.9451 107.83C85.3771 108.13 85.9231 108.28 86.5831 108.28ZM94.1651 109V96.4H95.2451V109H94.1651ZM107.488 109.252C106.012 109.252 104.83 108.82 103.942 107.956C103.066 107.08 102.628 105.802 102.628 104.122V101.278C102.628 99.598 103.066 98.326 103.942 97.462C104.83 96.586 106.012 96.148 107.488 96.148C108.952 96.148 110.068 96.562 110.836 97.39C111.616 98.206 112.006 99.322 112.006 100.738V100.828H110.854V100.702C110.854 99.67 110.578 98.83 110.026 98.182C109.486 97.522 108.64 97.192 107.488 97.192C106.324 97.192 105.412 97.546 104.752 98.254C104.104 98.962 103.78 99.958 103.78 101.242V104.158C103.78 105.442 104.104 106.438 104.752 107.146C105.412 107.854 106.324 108.208 107.488 108.208C108.64 108.208 109.486 107.884 110.026 107.236C110.578 106.576 110.854 105.73 110.854 104.698V104.428H112.006V104.662C112.006 106.078 111.616 107.2 110.836 108.028C110.068 108.844 108.952 109.252 107.488 109.252ZM114.591 109V100.252H115.635V101.35H115.851C116.019 100.954 116.265 100.666 116.589 100.486C116.925 100.306 117.387 100.216 117.975 100.216H119.001V101.224H117.849C117.189 101.224 116.661 101.41 116.265 101.782C115.869 102.154 115.671 102.736 115.671 103.528V109H114.591ZM124.951 109.252C124.051 109.252 123.265 109.066 122.593 108.694C121.933 108.31 121.417 107.776 121.045 107.092C120.673 106.408 120.487 105.622 120.487 104.734V104.518C120.487 103.618 120.673 102.832 121.045 102.16C121.417 101.476 121.927 100.948 122.575 100.576C123.235 100.192 123.985 100 124.825 100C125.641 100 126.361 100.174 126.985 100.522C127.621 100.858 128.119 101.35 128.479 101.998C128.839 102.634 129.019 103.396 129.019 104.284V104.86H121.567C121.603 105.952 121.933 106.798 122.557 107.398C123.193 107.986 123.991 108.28 124.951 108.28C125.767 108.28 126.397 108.094 126.841 107.722C127.297 107.35 127.645 106.894 127.885 106.354L128.857 106.786C128.677 107.182 128.425 107.572 128.101 107.956C127.789 108.328 127.381 108.64 126.877 108.892C126.373 109.132 125.731 109.252 124.951 109.252ZM121.585 103.924H127.921C127.873 102.976 127.567 102.25 127.003 101.746C126.439 101.23 125.713 100.972 124.825 100.972C123.949 100.972 123.223 101.23 122.647 101.746C122.071 102.25 121.717 102.976 121.585 103.924ZM134.359 109.252C133.747 109.252 133.189 109.15 132.685 108.946C132.193 108.73 131.803 108.418 131.515 108.01C131.227 107.602 131.083 107.11 131.083 106.534C131.083 105.946 131.227 105.46 131.515 105.076C131.803 104.692 132.193 104.404 132.685 104.212C133.177 104.02 133.723 103.924 134.323 103.924H137.527V103.222C137.527 102.514 137.323 101.962 136.915 101.566C136.507 101.17 135.913 100.972 135.133 100.972C134.365 100.972 133.753 101.164 133.297 101.548C132.853 101.92 132.553 102.424 132.397 103.06L131.353 102.754C131.497 102.238 131.725 101.776 132.037 101.368C132.349 100.948 132.763 100.618 133.279 100.378C133.795 100.126 134.413 100 135.133 100C136.237 100 137.089 100.288 137.689 100.864C138.301 101.44 138.607 102.244 138.607 103.276V107.524C138.607 107.884 138.775 108.064 139.111 108.064H139.957V109H138.805C138.433 109 138.139 108.892 137.923 108.676C137.707 108.448 137.599 108.142 137.599 107.758V107.632H137.419C137.263 107.896 137.059 108.154 136.807 108.406C136.567 108.658 136.249 108.862 135.853 109.018C135.457 109.174 134.959 109.252 134.359 109.252ZM134.431 108.28C135.355 108.28 136.099 108.004 136.663 107.452C137.239 106.888 137.527 106.096 137.527 105.076V104.86H134.341C133.717 104.86 133.195 104.998 132.775 105.274C132.367 105.538 132.163 105.952 132.163 106.516C132.163 107.08 132.373 107.518 132.793 107.83C133.225 108.13 133.771 108.28 134.431 108.28ZM144.636 109C144.168 109 143.814 108.88 143.574 108.64C143.346 108.4 143.232 108.064 143.232 107.632V101.224H140.424V100.252H143.232V96.976H144.312V100.252H147.372V101.224H144.312V107.488C144.312 107.848 144.492 108.028 144.852 108.028H146.904V109H144.636ZM153.498 109.252C152.598 109.252 151.812 109.066 151.14 108.694C150.48 108.31 149.964 107.776 149.592 107.092C149.22 106.408 149.034 105.622 149.034 104.734V104.518C149.034 103.618 149.22 102.832 149.592 102.16C149.964 101.476 150.474 100.948 151.122 100.576C151.782 100.192 152.532 100 153.372 100C154.188 100 154.908 100.174 155.532 100.522C156.168 100.858 156.666 101.35 157.026 101.998C157.386 102.634 157.566 103.396 157.566 104.284V104.86H150.114C150.15 105.952 150.48 106.798 151.104 107.398C151.74 107.986 152.538 108.28 153.498 108.28C154.314 108.28 154.944 108.094 155.388 107.722C155.844 107.35 156.192 106.894 156.432 106.354L157.404 106.786C157.224 107.182 156.972 107.572 156.648 107.956C156.336 108.328 155.928 108.64 155.424 108.892C154.92 109.132 154.278 109.252 153.498 109.252ZM150.132 103.924H156.468C156.42 102.976 156.114 102.25 155.55 101.746C154.986 101.23 154.26 100.972 153.372 100.972C152.496 100.972 151.77 101.23 151.194 101.746C150.618 102.25 150.264 102.976 150.132 103.924ZM164.004 109.252C163.224 109.252 162.516 109.072 161.88 108.712C161.244 108.34 160.734 107.818 160.35 107.146C159.978 106.462 159.792 105.658 159.792 104.734V104.518C159.792 103.594 159.978 102.796 160.35 102.124C160.722 101.44 161.226 100.918 161.862 100.558C162.51 100.186 163.224 100 164.004 100C164.652 100 165.198 100.09 165.642 100.27C166.086 100.438 166.446 100.66 166.722 100.936C167.01 101.2 167.232 101.482 167.388 101.782H167.604V96.4H168.684V109H167.64V107.398H167.424C167.172 107.878 166.776 108.31 166.236 108.694C165.708 109.066 164.964 109.252 164.004 109.252ZM164.256 108.28C165.252 108.28 166.056 107.962 166.668 107.326C167.292 106.69 167.604 105.814 167.604 104.698V104.554C167.604 103.438 167.292 102.562 166.668 101.926C166.056 101.29 165.252 100.972 164.256 100.972C163.272 100.972 162.468 101.29 161.844 101.926C161.22 102.562 160.908 103.438 160.908 104.554V104.698C160.908 105.814 161.22 106.69 161.844 107.326C162.468 107.962 163.272 108.28 164.256 108.28Z" fill="#0E47EF"/>
<path d="M74.3219 136V135.034C74.3219 134.334 74.4479 133.783 74.6999 133.382C74.9519 132.971 75.3019 132.645 75.7499 132.402C76.2073 132.159 76.7439 131.945 77.3599 131.758L78.0599 131.534C78.5173 131.394 78.9186 131.226 79.2639 131.03C79.6186 130.825 79.8939 130.563 80.0899 130.246C80.2859 129.929 80.3839 129.527 80.3839 129.042V128.986C80.3839 128.305 80.1459 127.768 79.6699 127.376C79.2033 126.984 78.6059 126.788 77.8779 126.788C77.1033 126.788 76.4686 126.998 75.9739 127.418C75.4793 127.829 75.2319 128.459 75.2319 129.308V129.49H74.3919V129.308C74.3919 128.599 74.5413 128.001 74.8399 127.516C75.1386 127.021 75.5493 126.648 76.0719 126.396C76.6039 126.135 77.2059 126.004 77.8779 126.004C78.5499 126.004 79.1379 126.13 79.6419 126.382C80.1553 126.625 80.5519 126.97 80.8319 127.418C81.1119 127.857 81.2519 128.37 81.2519 128.958V129.084C81.2519 129.719 81.1259 130.241 80.8739 130.652C80.6313 131.053 80.2859 131.385 79.8379 131.646C79.3899 131.898 78.8626 132.122 78.2559 132.318L77.5559 132.528C77.0519 132.687 76.6226 132.855 76.2679 133.032C75.9226 133.2 75.6566 133.429 75.4699 133.718C75.2833 133.998 75.1899 134.39 75.1899 134.894V135.216H81.1679V136H74.3219ZM89.7815 136.196C89.1749 136.196 88.6242 136.056 88.1295 135.776C87.6349 135.487 87.2382 135.081 86.9395 134.558C86.6502 134.026 86.5055 133.401 86.5055 132.682V132.514C86.5055 131.795 86.6502 131.175 86.9395 130.652C87.2289 130.12 87.6209 129.714 88.1155 129.434C88.6195 129.145 89.1749 129 89.7815 129C90.2855 129 90.7102 129.07 91.0555 129.21C91.4009 129.341 91.6809 129.513 91.8955 129.728C92.1195 129.933 92.2922 130.153 92.4135 130.386H92.5815V126.2H93.4215V136H92.6095V134.754H92.4415C92.2455 135.127 91.9375 135.463 91.5175 135.762C91.1069 136.051 90.5282 136.196 89.7815 136.196ZM89.9775 135.44C90.7522 135.44 91.3775 135.193 91.8535 134.698C92.3389 134.203 92.5815 133.522 92.5815 132.654V132.542C92.5815 131.674 92.3389 130.993 91.8535 130.498C91.3775 130.003 90.7522 129.756 89.9775 129.756C89.2122 129.756 88.5869 130.003 88.1015 130.498C87.6162 130.993 87.3735 131.674 87.3735 132.542V132.654C87.3735 133.522 87.6162 134.203 88.1015 134.698C88.5869 135.193 89.2122 135.44 89.9775 135.44ZM97.9783 136.196C97.5023 136.196 97.0683 136.117 96.6763 135.958C96.2937 135.79 95.9903 135.547 95.7663 135.23C95.5423 134.913 95.4303 134.53 95.4303 134.082C95.4303 133.625 95.5423 133.247 95.7663 132.948C95.9903 132.649 96.2937 132.425 96.6763 132.276C97.059 132.127 97.4837 132.052 97.9503 132.052H100.442V131.506C100.442 130.955 100.284 130.526 99.9663 130.218C99.649 129.91 99.187 129.756 98.5803 129.756C97.983 129.756 97.507 129.905 97.1523 130.204C96.807 130.493 96.5737 130.885 96.4523 131.38L95.6403 131.142C95.7523 130.741 95.9297 130.381 96.1723 130.064C96.415 129.737 96.737 129.481 97.1383 129.294C97.5397 129.098 98.0203 129 98.5803 129C99.439 129 100.102 129.224 100.568 129.672C101.044 130.12 101.282 130.745 101.282 131.548V134.852C101.282 135.132 101.413 135.272 101.674 135.272H102.332V136H101.436C101.147 136 100.918 135.916 100.75 135.748C100.582 135.571 100.498 135.333 100.498 135.034V134.936H100.358C100.237 135.141 100.078 135.342 99.8823 135.538C99.6957 135.734 99.4483 135.893 99.1403 136.014C98.8323 136.135 98.445 136.196 97.9783 136.196ZM98.0343 135.44C98.753 135.44 99.3317 135.225 99.7703 134.796C100.218 134.357 100.442 133.741 100.442 132.948V132.78H97.9643C97.479 132.78 97.073 132.887 96.7463 133.102C96.429 133.307 96.2703 133.629 96.2703 134.068C96.2703 134.507 96.4337 134.847 96.7603 135.09C97.0963 135.323 97.521 135.44 98.0343 135.44ZM104.621 138.8V138.044H108.597C108.877 138.044 109.017 137.904 109.017 137.624V134.824H108.849C108.737 135.048 108.579 135.263 108.373 135.468C108.177 135.664 107.916 135.827 107.589 135.958C107.272 136.079 106.871 136.14 106.385 136.14C105.9 136.14 105.447 136.037 105.027 135.832C104.617 135.627 104.285 135.319 104.033 134.908C103.791 134.497 103.669 133.979 103.669 133.354V129.196H104.509V133.298C104.509 134.035 104.696 134.567 105.069 134.894C105.443 135.221 105.942 135.384 106.567 135.384C107.267 135.384 107.851 135.155 108.317 134.698C108.784 134.241 109.017 133.545 109.017 132.612V129.196H109.857V137.736C109.857 138.072 109.764 138.333 109.577 138.52C109.4 138.707 109.129 138.8 108.765 138.8H104.621ZM115.028 136.196C114.207 136.196 113.502 136 112.914 135.608C112.335 135.216 111.981 134.567 111.85 133.662L112.676 133.508C112.751 134.003 112.9 134.395 113.124 134.684C113.357 134.964 113.637 135.165 113.964 135.286C114.3 135.407 114.655 135.468 115.028 135.468C115.588 135.468 116.036 135.356 116.372 135.132C116.717 134.899 116.89 134.581 116.89 134.18C116.89 133.769 116.727 133.485 116.4 133.326C116.083 133.167 115.658 133.041 115.126 132.948L114.482 132.836C114.053 132.761 113.665 132.649 113.32 132.5C112.975 132.341 112.699 132.131 112.494 131.87C112.298 131.609 112.2 131.282 112.2 130.89C112.2 130.302 112.429 129.84 112.886 129.504C113.353 129.168 113.969 129 114.734 129C115.509 129 116.129 129.177 116.596 129.532C117.072 129.877 117.371 130.381 117.492 131.044L116.708 131.212C116.615 130.671 116.391 130.288 116.036 130.064C115.691 129.84 115.257 129.728 114.734 129.728C114.221 129.728 113.81 129.826 113.502 130.022C113.194 130.218 113.04 130.507 113.04 130.89C113.04 131.263 113.18 131.539 113.46 131.716C113.74 131.884 114.123 132.01 114.608 132.094L115.252 132.206C115.719 132.281 116.139 132.393 116.512 132.542C116.885 132.682 117.179 132.883 117.394 133.144C117.618 133.405 117.73 133.751 117.73 134.18C117.73 134.824 117.487 135.323 117.002 135.678C116.517 136.023 115.859 136.196 115.028 136.196Z" fill="#0E47EF"/>
<path d="M41.0801 164.417C41.0801 155.924 47.965 149.039 56.4579 149.039H135.544C144.037 149.039 150.922 155.924 150.922 164.417C150.922 172.91 144.037 179.795 135.544 179.795H56.4579C47.965 179.795 41.0801 172.91 41.0801 164.417Z" fill="#0E47EF"/>
<path d="M77.1784 167.165V158.765H80.4664C80.9864 158.765 81.4424 158.853 81.8344 159.029C82.2344 159.205 82.5464 159.461 82.7704 159.797C83.0024 160.125 83.1184 160.525 83.1184 160.997V161.117C83.1184 161.685 82.9824 162.133 82.7104 162.461C82.4384 162.781 82.1184 162.993 81.7504 163.097V163.241C82.0304 163.249 82.2664 163.337 82.4584 163.505C82.6504 163.673 82.7464 163.941 82.7464 164.309V167.165H81.9784V164.393C81.9784 164.137 81.9064 163.941 81.7624 163.805C81.6264 163.669 81.4184 163.601 81.1384 163.601H77.9464V167.165H77.1784ZM77.9464 162.905H80.3944C81.0184 162.905 81.4984 162.761 81.8344 162.473C82.1784 162.177 82.3504 161.757 82.3504 161.213V161.153C82.3504 160.609 82.1824 160.193 81.8464 159.905C81.5184 159.609 81.0344 159.461 80.3944 159.461H77.9464V162.905ZM87.4607 167.333C86.8607 167.333 86.3367 167.209 85.8887 166.961C85.4487 166.705 85.1047 166.349 84.8567 165.893C84.6087 165.437 84.4847 164.913 84.4847 164.321V164.177C84.4847 163.577 84.6087 163.053 84.8567 162.605C85.1047 162.149 85.4447 161.797 85.8767 161.549C86.3167 161.293 86.8167 161.165 87.3767 161.165C87.9207 161.165 88.4007 161.281 88.8167 161.513C89.2407 161.737 89.5727 162.065 89.8127 162.497C90.0527 162.921 90.1727 163.429 90.1727 164.021V164.405H85.2047C85.2287 165.133 85.4487 165.697 85.8647 166.097C86.2887 166.489 86.8207 166.685 87.4607 166.685C88.0047 166.685 88.4247 166.561 88.7207 166.313C89.0247 166.065 89.2567 165.761 89.4167 165.401L90.0647 165.689C89.9447 165.953 89.7767 166.213 89.5607 166.469C89.3527 166.717 89.0807 166.925 88.7447 167.093C88.4087 167.253 87.9807 167.333 87.4607 167.333ZM85.2167 163.781H89.4407C89.4087 163.149 89.2047 162.665 88.8287 162.329C88.4527 161.985 87.9687 161.813 87.3767 161.813C86.7927 161.813 86.3087 161.985 85.9247 162.329C85.5407 162.665 85.3047 163.149 85.2167 163.781ZM93.2473 167.165L91.0633 161.333H91.8313L93.7513 166.613H93.8953L95.8153 161.333H96.5833L94.3993 167.165H93.2473ZM98.0969 167.165V161.333H98.8169V167.165H98.0969ZM98.4569 160.325C98.2809 160.325 98.1329 160.265 98.0129 160.145C97.8929 160.025 97.8329 159.877 97.8329 159.701C97.8329 159.517 97.8929 159.369 98.0129 159.257C98.1329 159.137 98.2809 159.077 98.4569 159.077C98.6409 159.077 98.7889 159.137 98.9009 159.257C99.0209 159.369 99.0809 159.517 99.0809 159.701C99.0809 159.877 99.0209 160.025 98.9009 160.145C98.7889 160.265 98.6409 160.325 98.4569 160.325ZM103.621 167.333C103.021 167.333 102.497 167.209 102.049 166.961C101.609 166.705 101.265 166.349 101.017 165.893C100.769 165.437 100.645 164.913 100.645 164.321V164.177C100.645 163.577 100.769 163.053 101.017 162.605C101.265 162.149 101.605 161.797 102.037 161.549C102.477 161.293 102.977 161.165 103.537 161.165C104.081 161.165 104.561 161.281 104.977 161.513C105.401 161.737 105.733 162.065 105.973 162.497C106.213 162.921 106.333 163.429 106.333 164.021V164.405H101.365C101.389 165.133 101.609 165.697 102.025 166.097C102.449 166.489 102.981 166.685 103.621 166.685C104.165 166.685 104.585 166.561 104.881 166.313C105.185 166.065 105.417 165.761 105.577 165.401L106.225 165.689C106.105 165.953 105.937 166.213 105.721 166.469C105.513 166.717 105.241 166.925 104.905 167.093C104.569 167.253 104.141 167.333 103.621 167.333ZM101.377 163.781H105.601C105.569 163.149 105.365 162.665 104.989 162.329C104.613 161.985 104.129 161.813 103.537 161.813C102.953 161.813 102.469 161.985 102.085 162.329C101.701 162.665 101.465 163.149 101.377 163.781ZM108.912 167.165L107.592 161.333H108.336L109.488 166.685H109.632L111.132 161.333H112.356L113.856 166.685H114L115.152 161.333H115.896L114.576 167.165H113.316L111.816 161.813H111.672L110.172 167.165H108.912Z" fill="white"/>
<path d="M227.084 112.061C227.67 111.475 227.67 110.525 227.084 109.939L217.538 100.393C216.952 99.8076 216.003 99.8076 215.417 100.393C214.831 100.979 214.831 101.929 215.417 102.515L223.902 111L215.417 119.485C214.831 120.071 214.831 121.021 215.417 121.607C216.003 122.192 216.952 122.192 217.538 121.607L227.084 112.061ZM196 112.5H226.023V109.5H196V112.5Z" fill="#E2E2E2"/>
<path d="M322.653 38.3908C322.893 37.8491 323.431 37.5 324.023 37.5C326.013 37.5 327.92 38.2902 329.327 39.6967C330.733 41.1032 331.523 43.0109 331.523 45V51.5H341.336C342.13 51.4923 342.916 51.6567 343.641 51.9819C344.368 52.3084 345.016 52.7891 345.539 53.3908C346.062 53.9924 346.448 54.7006 346.671 55.4663C346.893 56.232 346.946 57.0368 346.826 57.8251L344.066 75.8249C343.868 77.1363 343.201 78.3319 342.191 79.1909C341.182 80.0481 339.899 80.5128 338.576 80.5H310.023C308.565 80.5 307.166 79.9205 306.134 78.8891C305.103 77.8576 304.523 76.4587 304.523 75V61C304.523 59.5413 305.103 58.1424 306.134 57.1109C307.166 56.0795 308.565 55.5 310.023 55.5H315.049L322.653 38.3908ZM317.523 57.3183V77.5L338.6 77.5001C339.203 77.5069 339.788 77.2956 340.248 76.9051C340.707 76.5146 341.01 75.9712 341.1 75.3751L343.861 57.3742C343.915 57.0161 343.891 56.6505 343.79 56.3027C343.689 55.9547 343.513 55.6328 343.275 55.3593C343.037 55.0858 342.743 54.8673 342.412 54.7189C342.082 54.5705 341.723 54.4958 341.36 54.4999L341.343 54.5H330.023C329.195 54.5 328.523 53.8284 328.523 53V45C328.523 43.8065 328.049 42.6619 327.205 41.818C326.585 41.1972 325.801 40.7765 324.955 40.5974L317.523 57.3183ZM314.523 77.5V58.5H310.023C309.36 58.5 308.725 58.7634 308.256 59.2322C307.787 59.7011 307.523 60.337 307.523 61V75C307.523 75.663 307.787 76.2989 308.256 76.7678C308.725 77.2366 309.36 77.5 310.023 77.5H314.523Z" fill="#0E47EF"/>
<path d="M273.027 109L268.977 96.4H270.183L273.945 108.334H274.161L277.923 96.4H279.129L275.079 109H273.027ZM284.494 109.252C283.606 109.252 282.826 109.066 282.154 108.694C281.494 108.31 280.978 107.782 280.606 107.11C280.246 106.426 280.066 105.634 280.066 104.734V104.518C280.066 103.618 280.246 102.832 280.606 102.16C280.978 101.476 281.494 100.948 282.154 100.576C282.826 100.192 283.606 100 284.494 100C285.382 100 286.156 100.192 286.816 100.576C287.488 100.948 288.004 101.476 288.364 102.16C288.736 102.832 288.922 103.618 288.922 104.518V104.734C288.922 105.634 288.736 106.426 288.364 107.11C288.004 107.782 287.488 108.31 286.816 108.694C286.156 109.066 285.382 109.252 284.494 109.252ZM284.494 108.28C285.526 108.28 286.342 107.956 286.942 107.308C287.542 106.648 287.842 105.778 287.842 104.698V104.554C287.842 103.474 287.542 102.61 286.942 101.962C286.342 101.302 285.526 100.972 284.494 100.972C283.474 100.972 282.658 101.302 282.046 101.962C281.446 102.61 281.146 103.474 281.146 104.554V104.698C281.146 105.778 281.446 106.648 282.046 107.308C282.658 107.956 283.474 108.28 284.494 108.28ZM294.441 109C293.973 109 293.619 108.88 293.379 108.64C293.151 108.4 293.037 108.064 293.037 107.632V101.224H290.229V100.252H293.037V96.976H294.117V100.252H297.177V101.224H294.117V107.488C294.117 107.848 294.297 108.028 294.657 108.028H296.709V109H294.441ZM299.588 109V100.252H300.668V109H299.588ZM300.128 98.74C299.864 98.74 299.642 98.65 299.462 98.47C299.282 98.29 299.192 98.068 299.192 97.804C299.192 97.528 299.282 97.306 299.462 97.138C299.642 96.958 299.864 96.868 300.128 96.868C300.404 96.868 300.626 96.958 300.794 97.138C300.974 97.306 301.064 97.528 301.064 97.804C301.064 98.068 300.974 98.29 300.794 98.47C300.626 98.65 300.404 98.74 300.128 98.74ZM303.842 109V100.252H304.886V101.872H305.102C305.318 101.404 305.672 100.99 306.164 100.63C306.656 100.258 307.37 100.072 308.306 100.072C308.942 100.072 309.524 100.204 310.052 100.468C310.58 100.732 311 101.134 311.312 101.674C311.636 102.202 311.798 102.868 311.798 103.672V109H310.718V103.744C310.718 102.784 310.478 102.094 309.998 101.674C309.518 101.254 308.876 101.044 308.072 101.044C307.172 101.044 306.422 101.344 305.822 101.944C305.222 102.532 304.922 103.426 304.922 104.626V109H303.842ZM314.431 104.662V104.446C314.431 103.522 314.617 102.73 314.989 102.07C315.373 101.41 315.883 100.9 316.519 100.54C317.155 100.18 317.863 100 318.643 100C319.603 100 320.347 100.192 320.875 100.576C321.415 100.948 321.811 101.374 322.063 101.854H322.279V100.252H323.287V111.232C323.287 111.664 323.173 112 322.945 112.24C322.717 112.48 322.369 112.6 321.901 112.6H315.925V111.628H321.685C322.057 111.628 322.243 111.448 322.243 111.088V107.326H322.027C321.871 107.614 321.649 107.896 321.361 108.172C321.085 108.448 320.725 108.676 320.281 108.856C319.837 109.024 319.291 109.108 318.643 109.108C317.863 109.108 317.149 108.928 316.501 108.568C315.865 108.208 315.361 107.698 314.989 107.038C314.617 106.366 314.431 105.574 314.431 104.662ZM318.895 108.136C319.891 108.136 320.695 107.824 321.307 107.2C321.931 106.576 322.243 105.718 322.243 104.626V104.482C322.243 103.378 321.931 102.52 321.307 101.908C320.695 101.284 319.891 100.972 318.895 100.972C317.911 100.972 317.107 101.284 316.483 101.908C315.859 102.52 315.547 103.378 315.547 104.482V104.626C315.547 105.718 315.859 106.576 316.483 107.2C317.107 107.824 317.911 108.136 318.895 108.136ZM329.762 109L333.884 96.4H335.936L340.058 109H338.852L337.772 105.652H332.048L330.968 109H329.762ZM332.372 104.608H337.448L335.018 97.084H334.802L332.372 104.608ZM346.141 109.252C345.289 109.252 344.527 109.072 343.855 108.712C343.195 108.34 342.673 107.812 342.289 107.128C341.905 106.444 341.713 105.64 341.713 104.716V104.536C341.713 103.6 341.905 102.796 342.289 102.124C342.673 101.44 343.195 100.918 343.855 100.558C344.527 100.186 345.289 100 346.141 100C346.981 100 347.689 100.162 348.265 100.486C348.853 100.798 349.309 101.212 349.633 101.728C349.969 102.232 350.179 102.766 350.263 103.33L349.201 103.546C349.141 103.078 348.991 102.652 348.751 102.268C348.511 101.872 348.175 101.56 347.743 101.332C347.311 101.092 346.777 100.972 346.141 100.972C345.505 100.972 344.935 101.122 344.431 101.422C343.927 101.71 343.525 102.124 343.225 102.664C342.937 103.192 342.793 103.822 342.793 104.554V104.698C342.793 105.43 342.937 106.066 343.225 106.606C343.525 107.134 343.927 107.548 344.431 107.848C344.935 108.136 345.505 108.28 346.141 108.28C347.101 108.28 347.833 108.034 348.337 107.542C348.841 107.038 349.153 106.426 349.273 105.706L350.335 105.922C350.227 106.486 349.999 107.026 349.651 107.542C349.315 108.046 348.853 108.46 348.265 108.784C347.689 109.096 346.981 109.252 346.141 109.252ZM355.772 109C355.304 109 354.95 108.88 354.71 108.64C354.482 108.4 354.368 108.064 354.368 107.632V101.224H351.56V100.252H354.368V96.976H355.448V100.252H358.508V101.224H355.448V107.488C355.448 107.848 355.628 108.028 355.988 108.028H358.04V109H355.772ZM360.918 109V100.252H361.998V109H360.918ZM361.458 98.74C361.194 98.74 360.972 98.65 360.792 98.47C360.612 98.29 360.522 98.068 360.522 97.804C360.522 97.528 360.612 97.306 360.792 97.138C360.972 96.958 361.194 96.868 361.458 96.868C361.734 96.868 361.956 96.958 362.124 97.138C362.304 97.306 362.394 97.528 362.394 97.804C362.394 98.068 362.304 98.29 362.124 98.47C361.956 98.65 361.734 98.74 361.458 98.74ZM367.548 109L364.272 100.252H365.424L368.304 108.172H368.52L371.4 100.252H372.552L369.276 109H367.548ZM378.432 109.252C377.532 109.252 376.746 109.066 376.074 108.694C375.414 108.31 374.898 107.776 374.526 107.092C374.154 106.408 373.968 105.622 373.968 104.734V104.518C373.968 103.618 374.154 102.832 374.526 102.16C374.898 101.476 375.408 100.948 376.056 100.576C376.716 100.192 377.466 100 378.306 100C379.122 100 379.842 100.174 380.466 100.522C381.102 100.858 381.6 101.35 381.96 101.998C382.32 102.634 382.5 103.396 382.5 104.284V104.86H375.048C375.084 105.952 375.414 106.798 376.038 107.398C376.674 107.986 377.472 108.28 378.432 108.28C379.248 108.28 379.878 108.094 380.322 107.722C380.778 107.35 381.126 106.894 381.366 106.354L382.338 106.786C382.158 107.182 381.906 107.572 381.582 107.956C381.27 108.328 380.862 108.64 380.358 108.892C379.854 109.132 379.212 109.252 378.432 109.252ZM375.066 103.924H381.402C381.354 102.976 381.048 102.25 380.484 101.746C379.92 101.23 379.194 100.972 378.306 100.972C377.43 100.972 376.704 101.23 376.128 101.746C375.552 102.25 375.198 102.976 375.066 103.924Z" fill="#0E47EF"/>
<path d="M307.803 136.196C307.121 136.196 306.51 136.065 305.969 135.804C305.437 135.543 305.017 135.165 304.709 134.67C304.41 134.166 304.261 133.559 304.261 132.85V132.584H305.129V132.864C305.129 133.657 305.376 134.283 305.871 134.74C306.365 135.188 307.009 135.412 307.803 135.412C308.605 135.412 309.231 135.197 309.679 134.768C310.127 134.339 310.351 133.797 310.351 133.144V133.06C310.351 132.575 310.234 132.183 310.001 131.884C309.777 131.585 309.469 131.366 309.077 131.226C308.694 131.077 308.269 131.002 307.803 131.002H306.361V129.826L310.337 127.124V126.984H304.485V126.2H311.205V127.46L307.271 130.134V130.274H308.041C308.647 130.274 309.189 130.381 309.665 130.596C310.141 130.801 310.519 131.109 310.799 131.52C311.079 131.921 311.219 132.425 311.219 133.032V133.172C311.219 133.779 311.079 134.311 310.799 134.768C310.519 135.216 310.122 135.566 309.609 135.818C309.095 136.07 308.493 136.196 307.803 136.196ZM319.778 136.196C319.171 136.196 318.62 136.056 318.126 135.776C317.631 135.487 317.234 135.081 316.936 134.558C316.646 134.026 316.502 133.401 316.502 132.682V132.514C316.502 131.795 316.646 131.175 316.936 130.652C317.225 130.12 317.617 129.714 318.112 129.434C318.616 129.145 319.171 129 319.778 129C320.282 129 320.706 129.07 321.052 129.21C321.397 129.341 321.677 129.513 321.892 129.728C322.116 129.933 322.288 130.153 322.41 130.386H322.578V126.2H323.418V136H322.606V134.754H322.438C322.242 135.127 321.934 135.463 321.514 135.762C321.103 136.051 320.524 136.196 319.778 136.196ZM319.974 135.44C320.748 135.44 321.374 135.193 321.85 134.698C322.335 134.203 322.578 133.522 322.578 132.654V132.542C322.578 131.674 322.335 130.993 321.85 130.498C321.374 130.003 320.748 129.756 319.974 129.756C319.208 129.756 318.583 130.003 318.098 130.498C317.612 130.993 317.37 131.674 317.37 132.542V132.654C317.37 133.522 317.612 134.203 318.098 134.698C318.583 135.193 319.208 135.44 319.974 135.44ZM327.974 136.196C327.498 136.196 327.064 136.117 326.672 135.958C326.29 135.79 325.986 135.547 325.762 135.23C325.538 134.913 325.426 134.53 325.426 134.082C325.426 133.625 325.538 133.247 325.762 132.948C325.986 132.649 326.29 132.425 326.672 132.276C327.055 132.127 327.48 132.052 327.946 132.052H330.438V131.506C330.438 130.955 330.28 130.526 329.962 130.218C329.645 129.91 329.183 129.756 328.576 129.756C327.979 129.756 327.503 129.905 327.148 130.204C326.803 130.493 326.57 130.885 326.448 131.38L325.636 131.142C325.748 130.741 325.926 130.381 326.168 130.064C326.411 129.737 326.733 129.481 327.134 129.294C327.536 129.098 328.016 129 328.576 129C329.435 129 330.098 129.224 330.564 129.672C331.04 130.12 331.278 130.745 331.278 131.548V134.852C331.278 135.132 331.409 135.272 331.67 135.272H332.328V136H331.432C331.143 136 330.914 135.916 330.746 135.748C330.578 135.571 330.494 135.333 330.494 135.034V134.936H330.354C330.233 135.141 330.074 135.342 329.878 135.538C329.692 135.734 329.444 135.893 329.136 136.014C328.828 136.135 328.441 136.196 327.974 136.196ZM328.03 135.44C328.749 135.44 329.328 135.225 329.766 134.796C330.214 134.357 330.438 133.741 330.438 132.948V132.78H327.96C327.475 132.78 327.069 132.887 326.742 133.102C326.425 133.307 326.266 133.629 326.266 134.068C326.266 134.507 326.43 134.847 326.756 135.09C327.092 135.323 327.517 135.44 328.03 135.44ZM334.617 138.8V138.044H338.593C338.873 138.044 339.013 137.904 339.013 137.624V134.824H338.845C338.733 135.048 338.575 135.263 338.369 135.468C338.173 135.664 337.912 135.827 337.585 135.958C337.268 136.079 336.867 136.14 336.381 136.14C335.896 136.14 335.443 136.037 335.023 135.832C334.613 135.627 334.281 135.319 334.029 134.908C333.787 134.497 333.665 133.979 333.665 133.354V129.196H334.505V133.298C334.505 134.035 334.692 134.567 335.065 134.894C335.439 135.221 335.938 135.384 336.563 135.384C337.263 135.384 337.847 135.155 338.313 134.698C338.78 134.241 339.013 133.545 339.013 132.612V129.196H339.853V137.736C339.853 138.072 339.76 138.333 339.573 138.52C339.396 138.707 339.125 138.8 338.761 138.8H334.617ZM345.024 136.196C344.203 136.196 343.498 136 342.91 135.608C342.331 135.216 341.977 134.567 341.846 133.662L342.672 133.508C342.747 134.003 342.896 134.395 343.12 134.684C343.353 134.964 343.633 135.165 343.96 135.286C344.296 135.407 344.651 135.468 345.024 135.468C345.584 135.468 346.032 135.356 346.368 135.132C346.713 134.899 346.886 134.581 346.886 134.18C346.886 133.769 346.723 133.485 346.396 133.326C346.079 133.167 345.654 133.041 345.122 132.948L344.478 132.836C344.049 132.761 343.661 132.649 343.316 132.5C342.971 132.341 342.695 132.131 342.49 131.87C342.294 131.609 342.196 131.282 342.196 130.89C342.196 130.302 342.425 129.84 342.882 129.504C343.349 129.168 343.965 129 344.73 129C345.505 129 346.125 129.177 346.592 129.532C347.068 129.877 347.367 130.381 347.488 131.044L346.704 131.212C346.611 130.671 346.387 130.288 346.032 130.064C345.687 129.84 345.253 129.728 344.73 129.728C344.217 129.728 343.806 129.826 343.498 130.022C343.19 130.218 343.036 130.507 343.036 130.89C343.036 131.263 343.176 131.539 343.456 131.716C343.736 131.884 344.119 132.01 344.604 132.094L345.248 132.206C345.715 132.281 346.135 132.393 346.508 132.542C346.881 132.682 347.175 132.883 347.39 133.144C347.614 133.405 347.726 133.751 347.726 134.18C347.726 134.824 347.483 135.323 346.998 135.678C346.513 136.023 345.855 136.196 345.024 136.196Z" fill="#0E47EF"/>
<path d="M271.104 164.417C271.104 155.924 277.988 149.039 286.481 149.039H365.567C374.06 149.039 380.945 155.924 380.945 164.417C380.945 172.91 374.06 179.795 365.567 179.795H286.481C277.988 179.795 271.104 172.91 271.104 164.417Z" fill="#0E47EF"/>
<path d="M308.621 167.165L311.369 158.765H312.737L315.485 167.165H314.681L313.961 164.933H310.145L309.425 167.165H308.621ZM310.361 164.237H313.745L312.125 159.221H311.981L310.361 164.237ZM319.54 167.333C318.972 167.333 318.464 167.213 318.016 166.973C317.576 166.725 317.228 166.373 316.972 165.917C316.716 165.461 316.588 164.925 316.588 164.309V164.189C316.588 163.565 316.716 163.029 316.972 162.581C317.228 162.125 317.576 161.777 318.016 161.537C318.464 161.289 318.972 161.165 319.54 161.165C320.1 161.165 320.572 161.273 320.956 161.489C321.348 161.697 321.652 161.973 321.868 162.317C322.092 162.653 322.232 163.009 322.288 163.385L321.58 163.529C321.54 163.217 321.44 162.933 321.28 162.677C321.12 162.413 320.896 162.205 320.608 162.053C320.32 161.893 319.964 161.813 319.54 161.813C319.116 161.813 318.736 161.913 318.4 162.113C318.064 162.305 317.796 162.581 317.596 162.941C317.404 163.293 317.308 163.713 317.308 164.201V164.297C317.308 164.785 317.404 165.209 317.596 165.569C317.796 165.921 318.064 166.197 318.4 166.397C318.736 166.589 319.116 166.685 319.54 166.685C320.18 166.685 320.668 166.521 321.004 166.193C321.34 165.857 321.548 165.449 321.628 164.969L322.336 165.113C322.264 165.489 322.112 165.849 321.88 166.193C321.656 166.529 321.348 166.805 320.956 167.021C320.572 167.229 320.1 167.333 319.54 167.333ZM325.961 167.165C325.649 167.165 325.413 167.085 325.253 166.925C325.101 166.765 325.025 166.541 325.025 166.253V161.981H323.153V161.333H325.025V159.149H325.745V161.333H327.785V161.981H325.745V166.157C325.745 166.397 325.865 166.517 326.105 166.517H327.473V167.165H325.961ZM329.392 167.165V161.333H330.112V167.165H329.392ZM329.752 160.325C329.576 160.325 329.428 160.265 329.308 160.145C329.188 160.025 329.128 159.877 329.128 159.701C329.128 159.517 329.188 159.369 329.308 159.257C329.428 159.137 329.576 159.077 329.752 159.077C329.936 159.077 330.084 159.137 330.196 159.257C330.316 159.369 330.376 159.517 330.376 159.701C330.376 159.877 330.316 160.025 330.196 160.145C330.084 160.265 329.936 160.325 329.752 160.325ZM333.812 167.165L331.628 161.333H332.396L334.316 166.613H334.46L336.38 161.333H337.148L334.964 167.165H333.812ZM341.068 167.333C340.468 167.333 339.944 167.209 339.496 166.961C339.056 166.705 338.712 166.349 338.464 165.893C338.216 165.437 338.092 164.913 338.092 164.321V164.177C338.092 163.577 338.216 163.053 338.464 162.605C338.712 162.149 339.052 161.797 339.484 161.549C339.924 161.293 340.424 161.165 340.984 161.165C341.528 161.165 342.008 161.281 342.424 161.513C342.848 161.737 343.18 162.065 343.42 162.497C343.66 162.921 343.78 163.429 343.78 164.021V164.405H338.812C338.836 165.133 339.056 165.697 339.472 166.097C339.896 166.489 340.428 166.685 341.068 166.685C341.612 166.685 342.032 166.561 342.328 166.313C342.632 166.065 342.864 165.761 343.024 165.401L343.672 165.689C343.552 165.953 343.384 166.213 343.168 166.469C342.96 166.717 342.688 166.925 342.352 167.093C342.016 167.253 341.588 167.333 341.068 167.333ZM338.824 163.781H343.048C343.016 163.149 342.812 162.665 342.436 162.329C342.06 161.985 341.576 161.813 340.984 161.813C340.4 161.813 339.916 161.985 339.532 162.329C339.148 162.665 338.912 163.149 338.824 163.781Z" fill="white"/>
<path d="M457.107 112.061C457.693 111.475 457.693 110.525 457.107 109.939L447.562 100.393C446.976 99.8076 446.026 99.8076 445.44 100.393C444.854 100.979 444.854 101.929 445.44 102.515L453.925 111L445.44 119.485C444.854 120.071 444.854 121.021 445.44 121.607C446.026 122.192 446.976 122.192 447.562 121.607L457.107 112.061ZM426.023 112.5H456.047V109.5H426.023V112.5Z" fill="#E2E2E2"/>
<path fill-rule="evenodd" clip-rule="evenodd" d="M558.547 49.0001C558.547 48.1717 559.218 47.5001 560.047 47.5001H566.047C566.875 47.5001 567.547 48.1717 567.547 49.0001V59.0001C567.547 59.8285 566.875 60.5001 566.047 60.5001H560.047C559.218 60.5001 558.547 59.8285 558.547 59.0001V49.0001ZM561.547 50.5001V57.5001H564.547V50.5001H561.547Z" fill="#0E47EF"/>
<path fill-rule="evenodd" clip-rule="evenodd" d="M546.047 47.5001C545.218 47.5001 544.547 48.1717 544.547 49.0001V67.0001C544.547 67.8285 545.218 68.5001 546.047 68.5001H552.047C552.875 68.5001 553.547 67.8285 553.547 67.0001V49.0001C553.547 48.1717 552.875 47.5001 552.047 47.5001H546.047ZM547.547 65.5001V50.5001H550.547V65.5001H547.547Z" fill="#0E47EF"/>
<path fill-rule="evenodd" clip-rule="evenodd" d="M536.547 45.0001C536.547 41.9626 539.009 39.5001 542.047 39.5001H570.047C573.084 39.5001 575.547 41.9626 575.547 45.0001V73.0001C575.547 76.0377 573.084 78.5001 570.047 78.5001H542.047C539.009 78.5001 536.547 76.0377 536.547 73.0001V45.0001ZM542.047 42.5001C540.666 42.5001 539.547 43.6194 539.547 45.0001V73.0001C539.547 74.3808 540.666 75.5001 542.047 75.5001H570.047C571.428 75.5001 572.547 74.3808 572.547 73.0001V45.0001C572.547 43.6194 571.428 42.5001 570.047 42.5001H542.047Z" fill="#0E47EF"/>
<path d="M513.65 109L509.6 96.4H510.806L514.568 108.334H514.784L518.546 96.4H519.752L515.702 109H513.65ZM525.117 109.252C524.229 109.252 523.449 109.066 522.777 108.694C522.117 108.31 521.601 107.782 521.229 107.11C520.869 106.426 520.689 105.634 520.689 104.734V104.518C520.689 103.618 520.869 102.832 521.229 102.16C521.601 101.476 522.117 100.948 522.777 100.576C523.449 100.192 524.229 100 525.117 100C526.005 100 526.779 100.192 527.439 100.576C528.111 100.948 528.627 101.476 528.987 102.16C529.359 102.832 529.545 103.618 529.545 104.518V104.734C529.545 105.634 529.359 106.426 528.987 107.11C528.627 107.782 528.111 108.31 527.439 108.694C526.779 109.066 526.005 109.252 525.117 109.252ZM525.117 108.28C526.149 108.28 526.965 107.956 527.565 107.308C528.165 106.648 528.465 105.778 528.465 104.698V104.554C528.465 103.474 528.165 102.61 527.565 101.962C526.965 101.302 526.149 100.972 525.117 100.972C524.097 100.972 523.281 101.302 522.669 101.962C522.069 102.61 521.769 103.474 521.769 104.554V104.698C521.769 105.778 522.069 106.648 522.669 107.308C523.281 107.956 524.097 108.28 525.117 108.28ZM535.064 109C534.597 109 534.243 108.88 534.003 108.64C533.775 108.4 533.661 108.064 533.661 107.632V101.224H530.853V100.252H533.661V96.976H534.741V100.252H537.801V101.224H534.741V107.488C534.741 107.848 534.921 108.028 535.281 108.028H537.333V109H535.064ZM540.211 109V100.252H541.291V109H540.211ZM540.751 98.74C540.487 98.74 540.265 98.65 540.085 98.47C539.905 98.29 539.815 98.068 539.815 97.804C539.815 97.528 539.905 97.306 540.085 97.138C540.265 96.958 540.487 96.868 540.751 96.868C541.027 96.868 541.249 96.958 541.417 97.138C541.597 97.306 541.687 97.528 541.687 97.804C541.687 98.068 541.597 98.29 541.417 98.47C541.249 98.65 541.027 98.74 540.751 98.74ZM544.465 109V100.252H545.509V101.872H545.725C545.941 101.404 546.295 100.99 546.787 100.63C547.279 100.258 547.993 100.072 548.929 100.072C549.565 100.072 550.147 100.204 550.675 100.468C551.203 100.732 551.623 101.134 551.935 101.674C552.259 102.202 552.421 102.868 552.421 103.672V109H551.341V103.744C551.341 102.784 551.101 102.094 550.621 101.674C550.141 101.254 549.499 101.044 548.695 101.044C547.795 101.044 547.045 101.344 546.445 101.944C545.845 102.532 545.545 103.426 545.545 104.626V109H544.465ZM555.054 104.662V104.446C555.054 103.522 555.24 102.73 555.612 102.07C555.996 101.41 556.506 100.9 557.142 100.54C557.778 100.18 558.486 100 559.266 100C560.226 100 560.97 100.192 561.498 100.576C562.038 100.948 562.434 101.374 562.686 101.854H562.902V100.252H563.91V111.232C563.91 111.664 563.796 112 563.568 112.24C563.34 112.48 562.992 112.6 562.524 112.6H556.548V111.628H562.308C562.68 111.628 562.866 111.448 562.866 111.088V107.326H562.65C562.494 107.614 562.272 107.896 561.984 108.172C561.708 108.448 561.348 108.676 560.904 108.856C560.46 109.024 559.914 109.108 559.266 109.108C558.486 109.108 557.772 108.928 557.124 108.568C556.488 108.208 555.984 107.698 555.612 107.038C555.24 106.366 555.054 105.574 555.054 104.662ZM559.518 108.136C560.514 108.136 561.318 107.824 561.93 107.2C562.554 106.576 562.866 105.718 562.866 104.626V104.482C562.866 103.378 562.554 102.52 561.93 101.908C561.318 101.284 560.514 100.972 559.518 100.972C558.534 100.972 557.73 101.284 557.106 101.908C556.482 102.52 556.17 103.378 556.17 104.482V104.626C556.17 105.718 556.482 106.576 557.106 107.2C557.73 107.824 558.534 108.136 559.518 108.136ZM571.675 109V96.4H579.289V97.444H572.827V102.16H578.785V103.204H572.827V107.956H579.361V109H571.675ZM581.924 109V100.252H582.968V101.872H583.184C583.4 101.404 583.754 100.99 584.246 100.63C584.738 100.258 585.452 100.072 586.388 100.072C587.024 100.072 587.606 100.204 588.134 100.468C588.662 100.732 589.082 101.134 589.394 101.674C589.718 102.202 589.88 102.868 589.88 103.672V109H588.8V103.744C588.8 102.784 588.56 102.094 588.08 101.674C587.6 101.254 586.958 101.044 586.154 101.044C585.254 101.044 584.504 101.344 583.904 101.944C583.304 102.532 583.004 103.426 583.004 104.626V109H581.924ZM596.725 109.252C595.945 109.252 595.237 109.072 594.601 108.712C593.965 108.34 593.455 107.818 593.071 107.146C592.699 106.462 592.513 105.658 592.513 104.734V104.518C592.513 103.594 592.699 102.796 593.071 102.124C593.443 101.44 593.947 100.918 594.583 100.558C595.231 100.186 595.945 100 596.725 100C597.373 100 597.919 100.09 598.363 100.27C598.807 100.438 599.167 100.66 599.443 100.936C599.731 101.2 599.953 101.482 600.109 101.782H600.325V96.4H601.405V109H600.361V107.398H600.145C599.893 107.878 599.497 108.31 598.957 108.694C598.429 109.066 597.685 109.252 596.725 109.252ZM596.977 108.28C597.973 108.28 598.777 107.962 599.389 107.326C600.013 106.69 600.325 105.814 600.325 104.698V104.554C600.325 103.438 600.013 102.562 599.389 101.926C598.777 101.29 597.973 100.972 596.977 100.972C595.993 100.972 595.189 101.29 594.565 101.926C593.941 102.562 593.629 103.438 593.629 104.554V104.698C593.629 105.814 593.941 106.69 594.565 107.326C595.189 107.962 595.993 108.28 596.977 108.28Z" fill="#0E47EF"/>
<path d="M479.047 164.539C479.047 155.979 485.986 149.039 494.547 149.039H538.547C547.107 149.039 554.047 155.979 554.047 164.539C554.047 173.1 547.107 180.039 538.547 180.039H494.547C485.986 180.039 479.047 173.1 479.047 164.539Z" fill="#0E47EF"/>
<path d="M487.216 167.168C486.616 167.168 486.08 167.064 485.608 166.856C485.136 166.64 484.764 166.316 484.492 165.884C484.22 165.444 484.084 164.888 484.084 164.216V163.988H484.852V164.216C484.852 164.992 485.072 165.568 485.512 165.944C485.96 166.312 486.528 166.496 487.216 166.496C487.912 166.496 488.448 166.336 488.824 166.016C489.2 165.688 489.388 165.272 489.388 164.768C489.388 164.432 489.304 164.164 489.136 163.964C488.976 163.756 488.748 163.592 488.452 163.472C488.164 163.344 487.828 163.232 487.444 163.136L486.676 162.944C486.22 162.824 485.812 162.676 485.452 162.5C485.092 162.316 484.808 162.08 484.6 161.792C484.392 161.496 484.288 161.12 484.288 160.664C484.288 160.208 484.404 159.812 484.636 159.476C484.876 159.14 485.204 158.884 485.62 158.708C486.036 158.524 486.52 158.432 487.072 158.432C487.624 158.432 488.12 158.528 488.56 158.72C489.008 158.912 489.36 159.196 489.616 159.572C489.88 159.94 490.012 160.404 490.012 160.964V161.528H489.244V160.964C489.244 160.524 489.148 160.168 488.956 159.896C488.764 159.624 488.504 159.424 488.176 159.296C487.848 159.168 487.48 159.104 487.072 159.104C486.488 159.104 486.004 159.24 485.62 159.512C485.244 159.776 485.056 160.16 485.056 160.664C485.056 161 485.132 161.268 485.284 161.468C485.444 161.668 485.664 161.828 485.944 161.948C486.232 162.068 486.568 162.176 486.952 162.272L487.72 162.464C488.16 162.568 488.564 162.708 488.932 162.884C489.3 163.052 489.596 163.288 489.82 163.592C490.044 163.888 490.156 164.28 490.156 164.768C490.156 165.256 490.032 165.68 489.784 166.04C489.544 166.4 489.204 166.68 488.764 166.88C488.324 167.072 487.808 167.168 487.216 167.168ZM494.13 167.12C493.714 167.12 493.326 167.032 492.966 166.856C492.614 166.68 492.33 166.416 492.114 166.064C491.906 165.704 491.802 165.256 491.802 164.72V161.168H492.522V164.672C492.522 165.304 492.682 165.764 493.002 166.052C493.322 166.332 493.75 166.472 494.286 166.472C494.886 166.472 495.386 166.276 495.786 165.884C496.186 165.484 496.386 164.884 496.386 164.084V161.168H497.106V167H496.41V165.92H496.266C496.122 166.232 495.886 166.512 495.558 166.76C495.23 167 494.754 167.12 494.13 167.12ZM501.886 167.168C501.318 167.168 500.81 167.048 500.362 166.808C499.922 166.56 499.574 166.208 499.318 165.752C499.062 165.296 498.934 164.76 498.934 164.144V164.024C498.934 163.4 499.062 162.864 499.318 162.416C499.574 161.96 499.922 161.612 500.362 161.372C500.81 161.124 501.318 161 501.886 161C502.446 161 502.918 161.108 503.302 161.324C503.694 161.532 503.998 161.808 504.214 162.152C504.438 162.488 504.578 162.844 504.634 163.22L503.926 163.364C503.886 163.052 503.786 162.768 503.626 162.512C503.466 162.248 503.242 162.04 502.954 161.888C502.666 161.728 502.31 161.648 501.886 161.648C501.462 161.648 501.082 161.748 500.746 161.948C500.41 162.14 500.142 162.416 499.942 162.776C499.75 163.128 499.654 163.548 499.654 164.036V164.132C499.654 164.62 499.75 165.044 499.942 165.404C500.142 165.756 500.41 166.032 500.746 166.232C501.082 166.424 501.462 166.52 501.886 166.52C502.526 166.52 503.014 166.356 503.35 166.028C503.686 165.692 503.894 165.284 503.974 164.804L504.682 164.948C504.61 165.324 504.458 165.684 504.226 166.028C504.002 166.364 503.694 166.64 503.302 166.856C502.918 167.064 502.446 167.168 501.886 167.168ZM509.116 167.168C508.548 167.168 508.04 167.048 507.592 166.808C507.152 166.56 506.804 166.208 506.548 165.752C506.292 165.296 506.164 164.76 506.164 164.144V164.024C506.164 163.4 506.292 162.864 506.548 162.416C506.804 161.96 507.152 161.612 507.592 161.372C508.04 161.124 508.548 161 509.116 161C509.676 161 510.148 161.108 510.532 161.324C510.924 161.532 511.228 161.808 511.444 162.152C511.668 162.488 511.808 162.844 511.864 163.22L511.156 163.364C511.116 163.052 511.016 162.768 510.856 162.512C510.696 162.248 510.472 162.04 510.184 161.888C509.896 161.728 509.54 161.648 509.116 161.648C508.692 161.648 508.312 161.748 507.976 161.948C507.64 162.14 507.372 162.416 507.172 162.776C506.98 163.128 506.884 163.548 506.884 164.036V164.132C506.884 164.62 506.98 165.044 507.172 165.404C507.372 165.756 507.64 166.032 507.976 166.232C508.312 166.424 508.692 166.52 509.116 166.52C509.756 166.52 510.244 166.356 510.58 166.028C510.916 165.692 511.124 165.284 511.204 164.804L511.912 164.948C511.84 165.324 511.688 165.684 511.456 166.028C511.232 166.364 510.924 166.64 510.532 166.856C510.148 167.064 509.676 167.168 509.116 167.168ZM516.371 167.168C515.771 167.168 515.247 167.044 514.799 166.796C514.359 166.54 514.015 166.184 513.767 165.728C513.519 165.272 513.395 164.748 513.395 164.156V164.012C513.395 163.412 513.519 162.888 513.767 162.44C514.015 161.984 514.355 161.632 514.787 161.384C515.227 161.128 515.727 161 516.287 161C516.831 161 517.311 161.116 517.727 161.348C518.151 161.572 518.483 161.9 518.723 162.332C518.963 162.756 519.083 163.264 519.083 163.856V164.24H514.115C514.139 164.968 514.359 165.532 514.775 165.932C515.199 166.324 515.731 166.52 516.371 166.52C516.915 166.52 517.335 166.396 517.631 166.148C517.935 165.9 518.167 165.596 518.327 165.236L518.975 165.524C518.855 165.788 518.687 166.048 518.471 166.304C518.263 166.552 517.991 166.76 517.655 166.928C517.319 167.088 516.891 167.168 516.371 167.168ZM514.127 163.616H518.351C518.319 162.984 518.115 162.5 517.739 162.164C517.363 161.82 516.879 161.648 516.287 161.648C515.703 161.648 515.219 161.82 514.835 162.164C514.451 162.5 514.215 162.984 514.127 163.616ZM523.543 167.168C522.943 167.168 522.419 167.044 521.971 166.796C521.531 166.54 521.187 166.184 520.939 165.728C520.691 165.272 520.567 164.748 520.567 164.156V164.012C520.567 163.412 520.691 162.888 520.939 162.44C521.187 161.984 521.527 161.632 521.959 161.384C522.399 161.128 522.899 161 523.459 161C524.003 161 524.483 161.116 524.899 161.348C525.323 161.572 525.655 161.9 525.895 162.332C526.135 162.756 526.255 163.264 526.255 163.856V164.24H521.287C521.311 164.968 521.531 165.532 521.947 165.932C522.371 166.324 522.903 166.52 523.543 166.52C524.087 166.52 524.507 166.396 524.803 166.148C525.107 165.9 525.339 165.596 525.499 165.236L526.147 165.524C526.027 165.788 525.859 166.048 525.643 166.304C525.435 166.552 525.163 166.76 524.827 166.928C524.491 167.088 524.063 167.168 523.543 167.168ZM521.299 163.616H525.523C525.491 162.984 525.287 162.5 524.911 162.164C524.535 161.82 524.051 161.648 523.459 161.648C522.875 161.648 522.391 161.82 522.007 162.164C521.623 162.5 521.387 162.984 521.299 163.616ZM530.547 167.168C530.027 167.168 529.555 167.048 529.131 166.808C528.707 166.56 528.367 166.212 528.111 165.764C527.863 165.308 527.739 164.772 527.739 164.156V164.012C527.739 163.396 527.863 162.864 528.111 162.416C528.359 161.96 528.695 161.612 529.119 161.372C529.551 161.124 530.027 161 530.547 161C530.979 161 531.343 161.06 531.639 161.18C531.935 161.292 532.175 161.44 532.359 161.624C532.551 161.8 532.699 161.988 532.803 162.188H532.947V158.6H533.667V167H532.971V165.932H532.827C532.659 166.252 532.395 166.54 532.035 166.796C531.683 167.044 531.187 167.168 530.547 167.168ZM530.715 166.52C531.379 166.52 531.915 166.308 532.323 165.884C532.739 165.46 532.947 164.876 532.947 164.132V164.036C532.947 163.292 532.739 162.708 532.323 162.284C531.915 161.86 531.379 161.648 530.715 161.648C530.059 161.648 529.523 161.86 529.107 162.284C528.691 162.708 528.483 163.292 528.483 164.036V164.132C528.483 164.876 528.691 165.46 529.107 165.884C529.523 166.308 530.059 166.52 530.715 166.52ZM538.473 167.168C537.873 167.168 537.349 167.044 536.901 166.796C536.461 166.54 536.117 166.184 535.869 165.728C535.621 165.272 535.497 164.748 535.497 164.156V164.012C535.497 163.412 535.621 162.888 535.869 162.44C536.117 161.984 536.457 161.632 536.889 161.384C537.329 161.128 537.829 161 538.389 161C538.933 161 539.413 161.116 539.829 161.348C540.253 161.572 540.585 161.9 540.825 162.332C541.065 162.756 541.185 163.264 541.185 163.856V164.24H536.217C536.241 164.968 536.461 165.532 536.877 165.932C537.301 166.324 537.833 166.52 538.473 166.52C539.017 166.52 539.437 166.396 539.733 166.148C540.037 165.9 540.269 165.596 540.429 165.236L541.077 165.524C540.957 165.788 540.789 166.048 540.573 166.304C540.365 166.552 540.093 166.76 539.757 166.928C539.421 167.088 538.993 167.168 538.473 167.168ZM536.229 163.616H540.453C540.421 162.984 540.217 162.5 539.841 162.164C539.465 161.82 538.981 161.648 538.389 161.648C537.805 161.648 537.321 161.82 536.937 162.164C536.553 162.5 536.317 162.984 536.229 163.616ZM545.476 167.168C544.956 167.168 544.484 167.048 544.06 166.808C543.636 166.56 543.296 166.212 543.04 165.764C542.792 165.308 542.668 164.772 542.668 164.156V164.012C542.668 163.396 542.792 162.864 543.04 162.416C543.288 161.96 543.624 161.612 544.048 161.372C544.48 161.124 544.956 161 545.476 161C545.908 161 546.272 161.06 546.568 161.18C546.864 161.292 547.104 161.44 547.288 161.624C547.48 161.8 547.628 161.988 547.732 162.188H547.876V158.6H548.596V167H547.9V165.932H547.756C547.588 166.252 547.324 166.54 546.964 166.796C546.612 167.044 546.116 167.168 545.476 167.168ZM545.644 166.52C546.308 166.52 546.844 166.308 547.252 165.884C547.668 165.46 547.876 164.876 547.876 164.132V164.036C547.876 163.292 547.668 162.708 547.252 162.284C546.844 161.86 546.308 161.648 545.644 161.648C544.988 161.648 544.452 161.86 544.036 162.284C543.62 162.708 543.412 163.292 543.412 164.036V164.132C543.412 164.876 543.62 165.46 544.036 165.884C544.452 166.308 544.988 166.52 545.644 166.52Z" fill="white"/>
<path d="M558.547 164.539C558.547 156.255 565.263 149.539 573.547 149.539H617.547C625.831 149.539 632.547 156.255 632.547 164.539C632.547 172.823 625.831 179.539 617.547 179.539H573.547C565.263 179.539 558.547 172.823 558.547 164.539Z" stroke="#0E47EF"/>
<path d="M569.211 167V166.304H570.411V159.296H569.211V158.6H572.403C573.499 158.6 574.351 158.88 574.959 159.44C575.575 159.992 575.883 160.856 575.883 162.032V163.58C575.883 164.756 575.575 165.62 574.959 166.172C574.351 166.724 573.499 167 572.403 167H569.211ZM571.179 166.304H572.403C573.283 166.304 573.955 166.092 574.419 165.668C574.883 165.244 575.115 164.56 575.115 163.616V161.996C575.115 161.044 574.883 160.36 574.419 159.944C573.955 159.52 573.283 159.308 572.403 159.308H571.179V166.304ZM580.324 167.168C579.724 167.168 579.2 167.044 578.752 166.796C578.312 166.54 577.968 166.184 577.72 165.728C577.472 165.272 577.348 164.748 577.348 164.156V164.012C577.348 163.412 577.472 162.888 577.72 162.44C577.968 161.984 578.308 161.632 578.74 161.384C579.18 161.128 579.68 161 580.24 161C580.784 161 581.264 161.116 581.68 161.348C582.104 161.572 582.436 161.9 582.676 162.332C582.916 162.756 583.036 163.264 583.036 163.856V164.24H578.068C578.092 164.968 578.312 165.532 578.728 165.932C579.152 166.324 579.684 166.52 580.324 166.52C580.868 166.52 581.288 166.396 581.584 166.148C581.888 165.9 582.12 165.596 582.28 165.236L582.928 165.524C582.808 165.788 582.64 166.048 582.424 166.304C582.216 166.552 581.944 166.76 581.608 166.928C581.272 167.088 580.844 167.168 580.324 167.168ZM578.08 163.616H582.304C582.272 162.984 582.068 162.5 581.692 162.164C581.316 161.82 580.832 161.648 580.24 161.648C579.656 161.648 579.172 161.82 578.788 162.164C578.404 162.5 578.168 162.984 578.08 163.616ZM585.774 167V161.816H583.854V161.168H585.774V159.512C585.774 159.224 585.85 159 586.002 158.84C586.162 158.68 586.398 158.6 586.71 158.6H588.15V159.248H586.854C586.614 159.248 586.494 159.368 586.494 159.608V161.168H588.462V161.816H586.494V167H585.774ZM592.242 167.168C591.642 167.168 591.118 167.044 590.67 166.796C590.23 166.54 589.886 166.184 589.638 165.728C589.39 165.272 589.266 164.748 589.266 164.156V164.012C589.266 163.412 589.39 162.888 589.638 162.44C589.886 161.984 590.226 161.632 590.658 161.384C591.098 161.128 591.598 161 592.158 161C592.702 161 593.182 161.116 593.598 161.348C594.022 161.572 594.354 161.9 594.594 162.332C594.834 162.756 594.954 163.264 594.954 163.856V164.24H589.986C590.01 164.968 590.23 165.532 590.646 165.932C591.07 166.324 591.602 166.52 592.242 166.52C592.786 166.52 593.206 166.396 593.502 166.148C593.806 165.9 594.038 165.596 594.198 165.236L594.846 165.524C594.726 165.788 594.558 166.048 594.342 166.304C594.134 166.552 593.862 166.76 593.526 166.928C593.19 167.088 592.762 167.168 592.242 167.168ZM589.998 163.616H594.222C594.19 162.984 593.986 162.5 593.61 162.164C593.234 161.82 592.75 161.648 592.158 161.648C591.574 161.648 591.09 161.82 590.706 162.164C590.322 162.5 590.086 162.984 589.998 163.616ZM598.514 167.168C598.106 167.168 597.734 167.1 597.398 166.964C597.07 166.82 596.81 166.612 596.618 166.34C596.426 166.068 596.33 165.74 596.33 165.356C596.33 164.964 596.426 164.64 596.618 164.384C596.81 164.128 597.07 163.936 597.398 163.808C597.726 163.68 598.09 163.616 598.49 163.616H600.626V163.148C600.626 162.676 600.49 162.308 600.218 162.044C599.946 161.78 599.55 161.648 599.03 161.648C598.518 161.648 598.11 161.776 597.806 162.032C597.51 162.28 597.31 162.616 597.206 163.04L596.51 162.836C596.606 162.492 596.758 162.184 596.966 161.912C597.174 161.632 597.45 161.412 597.794 161.252C598.138 161.084 598.55 161 599.03 161C599.766 161 600.334 161.192 600.734 161.576C601.142 161.96 601.346 162.496 601.346 163.184V166.016C601.346 166.256 601.458 166.376 601.682 166.376H602.246V167H601.478C601.23 167 601.034 166.928 600.89 166.784C600.746 166.632 600.674 166.428 600.674 166.172V166.088H600.554C600.45 166.264 600.314 166.436 600.146 166.604C599.986 166.772 599.774 166.908 599.51 167.012C599.246 167.116 598.914 167.168 598.514 167.168ZM598.562 166.52C599.178 166.52 599.674 166.336 600.05 165.968C600.434 165.592 600.626 165.064 600.626 164.384V164.24H598.502C598.086 164.24 597.738 164.332 597.458 164.516C597.186 164.692 597.05 164.968 597.05 165.344C597.05 165.72 597.19 166.012 597.47 166.22C597.758 166.42 598.122 166.52 598.562 166.52ZM605.365 167C605.053 167 604.817 166.92 604.657 166.76C604.505 166.6 604.429 166.376 604.429 166.088V161.816H602.557V161.168H604.429V158.984H605.149V161.168H607.189V161.816H605.149V165.992C605.149 166.232 605.269 166.352 605.509 166.352H606.877V167H605.365ZM611.273 167.168C610.673 167.168 610.149 167.044 609.701 166.796C609.261 166.54 608.917 166.184 608.669 165.728C608.421 165.272 608.297 164.748 608.297 164.156V164.012C608.297 163.412 608.421 162.888 608.669 162.44C608.917 161.984 609.257 161.632 609.689 161.384C610.129 161.128 610.629 161 611.189 161C611.733 161 612.213 161.116 612.629 161.348C613.053 161.572 613.385 161.9 613.625 162.332C613.865 162.756 613.985 163.264 613.985 163.856V164.24H609.017C609.041 164.968 609.261 165.532 609.677 165.932C610.101 166.324 610.633 166.52 611.273 166.52C611.817 166.52 612.237 166.396 612.533 166.148C612.837 165.9 613.069 165.596 613.229 165.236L613.877 165.524C613.757 165.788 613.589 166.048 613.373 166.304C613.165 166.552 612.893 166.76 612.557 166.928C612.221 167.088 611.793 167.168 611.273 167.168ZM609.029 163.616H613.253C613.221 162.984 613.017 162.5 612.641 162.164C612.265 161.82 611.781 161.648 611.189 161.648C610.605 161.648 610.121 161.82 609.737 162.164C609.353 162.5 609.117 162.984 609.029 163.616ZM618.277 167.168C617.757 167.168 617.285 167.048 616.861 166.808C616.437 166.56 616.097 166.212 615.841 165.764C615.593 165.308 615.469 164.772 615.469 164.156V164.012C615.469 163.396 615.593 162.864 615.841 162.416C616.089 161.96 616.425 161.612 616.849 161.372C617.281 161.124 617.757 161 618.277 161C618.709 161 619.073 161.06 619.369 161.18C619.665 161.292 619.905 161.44 620.089 161.624C620.281 161.8 620.429 161.988 620.533 162.188H620.677V158.6H621.397V167H620.701V165.932H620.557C620.389 166.252 620.125 166.54 619.765 166.796C619.413 167.044 618.917 167.168 618.277 167.168ZM618.445 166.52C619.109 166.52 619.645 166.308 620.053 165.884C620.469 165.46 620.677 164.876 620.677 164.132V164.036C620.677 163.292 620.469 162.708 620.053 162.284C619.645 161.86 619.109 161.648 618.445 161.648C617.789 161.648 617.253 161.86 616.837 162.284C616.421 162.708 616.213 163.292 616.213 164.036V164.132C616.213 164.876 616.421 165.46 616.837 165.884C617.253 166.308 617.789 166.52 618.445 166.52Z" fill="#0E47EF"/>
<path fill-rule="evenodd" clip-rule="evenodd" d="M745.5 42.5C739.117 42.5 733.578 46.1244 730.832 51.4344C730.452 52.1703 729.547 52.4585 728.811 52.0781C728.075 51.6977 727.787 50.7927 728.168 50.0568C731.407 43.7894 737.952 39.5 745.5 39.5C756.27 39.5 765 48.2304 765 59C765 69.7696 756.27 78.5 745.5 78.5C734.73 78.5 726 69.7696 726 59C726 58.1716 726.672 57.5 727.5 57.5C728.328 57.5 729 58.1716 729 59C729 68.1127 736.387 75.5 745.5 75.5C754.613 75.5 762 68.1127 762 59C762 49.8873 754.613 42.5 745.5 42.5Z" fill="white"/>
<path fill-rule="evenodd" clip-rule="evenodd" d="M738.199 51C738.199 51.8284 737.528 52.5 736.699 52.5L728.699 52.5C727.871 52.5 727.199 51.8284 727.199 51L727.199 43C727.199 42.1716 727.871 41.5 728.699 41.5C729.528 41.5 730.199 42.1716 730.199 43L730.199 49.5L736.699 49.5C737.528 49.5 738.199 50.1716 738.199 51Z" fill="white"/>
<path fill-rule="evenodd" clip-rule="evenodd" d="M751 59.6667C751 60.4951 750.328 61.1667 749.5 61.1667L744.5 61.1667C743.672 61.1667 743 60.4951 743 59.6667L743 53C743 52.1716 743.672 51.5 744.5 51.5C745.328 51.5 746 52.1716 746 53L746 58.1667L749.5 58.1667C750.328 58.1667 751 58.8382 751 59.6667Z" fill="white"/>
<path d="M711.852 109V97.444H707.64V96.4H717.216V97.444H713.004V109H711.852ZM719.161 109V100.252H720.241V109H719.161ZM719.701 98.74C719.437 98.74 719.215 98.65 719.035 98.47C718.855 98.29 718.765 98.068 718.765 97.804C718.765 97.528 718.855 97.306 719.035 97.138C719.215 96.958 719.437 96.868 719.701 96.868C719.977 96.868 720.199 96.958 720.367 97.138C720.547 97.306 720.637 97.528 720.637 97.804C720.637 98.068 720.547 98.29 720.367 98.47C720.199 98.65 719.977 98.74 719.701 98.74ZM723.415 109V100.252H724.459V101.404H724.675C724.855 101.08 725.143 100.78 725.539 100.504C725.935 100.216 726.499 100.072 727.231 100.072C727.939 100.072 728.509 100.234 728.941 100.558C729.385 100.882 729.703 101.272 729.895 101.728H730.111C730.315 101.272 730.633 100.882 731.065 100.558C731.497 100.234 732.103 100.072 732.883 100.072C733.483 100.072 734.005 100.198 734.449 100.45C734.893 100.69 735.241 101.032 735.493 101.476C735.745 101.908 735.871 102.418 735.871 103.006V109H734.791V103.114C734.791 102.49 734.599 101.992 734.215 101.62C733.843 101.236 733.315 101.044 732.631 101.044C731.935 101.044 731.353 101.272 730.885 101.728C730.417 102.172 730.183 102.826 730.183 103.69V109H729.103V103.114C729.103 102.49 728.911 101.992 728.527 101.62C728.155 101.236 727.627 101.044 726.943 101.044C726.247 101.044 725.665 101.272 725.197 101.728C724.729 102.172 724.495 102.826 724.495 103.69V109H723.415ZM742.969 109.252C742.069 109.252 741.283 109.066 740.611 108.694C739.951 108.31 739.435 107.776 739.063 107.092C738.691 106.408 738.505 105.622 738.505 104.734V104.518C738.505 103.618 738.691 102.832 739.063 102.16C739.435 101.476 739.945 100.948 740.593 100.576C741.253 100.192 742.003 100 742.843 100C743.659 100 744.379 100.174 745.003 100.522C745.639 100.858 746.137 101.35 746.497 101.998C746.857 102.634 747.037 103.396 747.037 104.284V104.86H739.585C739.621 105.952 739.951 106.798 740.575 107.398C741.211 107.986 742.009 108.28 742.969 108.28C743.785 108.28 744.415 108.094 744.859 107.722C745.315 107.35 745.663 106.894 745.903 106.354L746.875 106.786C746.695 107.182 746.443 107.572 746.119 107.956C745.807 108.328 745.399 108.64 744.895 108.892C744.391 109.132 743.749 109.252 742.969 109.252ZM739.603 103.924H745.939C745.891 102.976 745.585 102.25 745.021 101.746C744.457 101.23 743.731 100.972 742.843 100.972C741.967 100.972 741.241 101.23 740.665 101.746C740.089 102.25 739.735 102.976 739.603 103.924ZM749.694 109V96.4H750.774V109H749.694ZM757.944 109.252C757.056 109.252 756.276 109.066 755.604 108.694C754.944 108.31 754.428 107.782 754.056 107.11C753.696 106.426 753.516 105.634 753.516 104.734V104.518C753.516 103.618 753.696 102.832 754.056 102.16C754.428 101.476 754.944 100.948 755.604 100.576C756.276 100.192 757.056 100 757.944 100C758.832 100 759.606 100.192 760.266 100.576C760.938 100.948 761.454 101.476 761.814 102.16C762.186 102.832 762.372 103.618 762.372 104.518V104.734C762.372 105.634 762.186 106.426 761.814 107.11C761.454 107.782 760.938 108.31 760.266 108.694C759.606 109.066 758.832 109.252 757.944 109.252ZM757.944 108.28C758.976 108.28 759.792 107.956 760.392 107.308C760.992 106.648 761.292 105.778 761.292 104.698V104.554C761.292 103.474 760.992 102.61 760.392 101.962C759.792 101.302 758.976 100.972 757.944 100.972C756.924 100.972 756.108 101.302 755.496 101.962C754.896 102.61 754.596 103.474 754.596 104.554V104.698C754.596 105.778 754.896 106.648 755.496 107.308C756.108 107.956 756.924 108.28 757.944 108.28ZM769.106 109.252C768.254 109.252 767.492 109.072 766.82 108.712C766.16 108.34 765.638 107.812 765.254 107.128C764.87 106.444 764.678 105.64 764.678 104.716V104.536C764.678 103.6 764.87 102.796 765.254 102.124C765.638 101.44 766.16 100.918 766.82 100.558C767.492 100.186 768.254 100 769.106 100C769.946 100 770.654 100.162 771.23 100.486C771.818 100.798 772.274 101.212 772.598 101.728C772.934 102.232 773.144 102.766 773.228 103.33L772.166 103.546C772.106 103.078 771.956 102.652 771.716 102.268C771.476 101.872 771.14 101.56 770.708 101.332C770.276 101.092 769.742 100.972 769.106 100.972C768.47 100.972 767.9 101.122 767.396 101.422C766.892 101.71 766.49 102.124 766.19 102.664C765.902 103.192 765.758 103.822 765.758 104.554V104.698C765.758 105.43 765.902 106.066 766.19 106.606C766.49 107.134 766.892 107.548 767.396 107.848C767.9 108.136 768.47 108.28 769.106 108.28C770.066 108.28 770.798 108.034 771.302 107.542C771.806 107.038 772.118 106.426 772.238 105.706L773.3 105.922C773.192 106.486 772.964 107.026 772.616 107.542C772.28 108.046 771.818 108.46 771.23 108.784C770.654 109.096 769.946 109.252 769.106 109.252ZM775.956 109V96.4H777.036V103.996H777.252L781.734 100.252H783.318L778.134 104.518L783.462 109H781.896L777.252 105.058H777.036V109H775.956Z" fill="white"/>
<path d="M723.822 136V135.034C723.822 134.334 723.948 133.783 724.2 133.382C724.452 132.971 724.802 132.645 725.25 132.402C725.707 132.159 726.244 131.945 726.86 131.758L727.56 131.534C728.017 131.394 728.419 131.226 728.764 131.03C729.119 130.825 729.394 130.563 729.59 130.246C729.786 129.929 729.884 129.527 729.884 129.042V128.986C729.884 128.305 729.646 127.768 729.17 127.376C728.703 126.984 728.106 126.788 727.378 126.788C726.603 126.788 725.969 126.998 725.474 127.418C724.979 127.829 724.732 128.459 724.732 129.308V129.49H723.892V129.308C723.892 128.599 724.041 128.001 724.34 127.516C724.639 127.021 725.049 126.648 725.572 126.396C726.104 126.135 726.706 126.004 727.378 126.004C728.05 126.004 728.638 126.13 729.142 126.382C729.655 126.625 730.052 126.97 730.332 127.418C730.612 127.857 730.752 128.37 730.752 128.958V129.084C730.752 129.719 730.626 130.241 730.374 130.652C730.131 131.053 729.786 131.385 729.338 131.646C728.89 131.898 728.363 132.122 727.756 132.318L727.056 132.528C726.552 132.687 726.123 132.855 725.768 133.032C725.423 133.2 725.157 133.429 724.97 133.718C724.783 133.998 724.69 134.39 724.69 134.894V135.216H730.668V136H723.822ZM739.282 136.196C738.675 136.196 738.124 136.056 737.63 135.776C737.135 135.487 736.738 135.081 736.44 134.558C736.15 134.026 736.006 133.401 736.006 132.682V132.514C736.006 131.795 736.15 131.175 736.44 130.652C736.729 130.12 737.121 129.714 737.616 129.434C738.12 129.145 738.675 129 739.282 129C739.786 129 740.21 129.07 740.556 129.21C740.901 129.341 741.181 129.513 741.396 129.728C741.62 129.933 741.792 130.153 741.914 130.386H742.082V126.2H742.922V136H742.11V134.754H741.942C741.746 135.127 741.438 135.463 741.018 135.762C740.607 136.051 740.028 136.196 739.282 136.196ZM739.478 135.44C740.252 135.44 740.878 135.193 741.354 134.698C741.839 134.203 742.082 133.522 742.082 132.654V132.542C742.082 131.674 741.839 130.993 741.354 130.498C740.878 130.003 740.252 129.756 739.478 129.756C738.712 129.756 738.087 130.003 737.602 130.498C737.116 130.993 736.874 131.674 736.874 132.542V132.654C736.874 133.522 737.116 134.203 737.602 134.698C738.087 135.193 738.712 135.44 739.478 135.44ZM747.478 136.196C747.002 136.196 746.568 136.117 746.176 135.958C745.794 135.79 745.49 135.547 745.266 135.23C745.042 134.913 744.93 134.53 744.93 134.082C744.93 133.625 745.042 133.247 745.266 132.948C745.49 132.649 745.794 132.425 746.176 132.276C746.559 132.127 746.984 132.052 747.45 132.052H749.942V131.506C749.942 130.955 749.784 130.526 749.466 130.218C749.149 129.91 748.687 129.756 748.08 129.756C747.483 129.756 747.007 129.905 746.652 130.204C746.307 130.493 746.074 130.885 745.952 131.38L745.14 131.142C745.252 130.741 745.43 130.381 745.672 130.064C745.915 129.737 746.237 129.481 746.638 129.294C747.04 129.098 747.52 129 748.08 129C748.939 129 749.602 129.224 750.068 129.672C750.544 130.12 750.782 130.745 750.782 131.548V134.852C750.782 135.132 750.913 135.272 751.174 135.272H751.832V136H750.936C750.647 136 750.418 135.916 750.25 135.748C750.082 135.571 749.998 135.333 749.998 135.034V134.936H749.858C749.737 135.141 749.578 135.342 749.382 135.538C749.196 135.734 748.948 135.893 748.64 136.014C748.332 136.135 747.945 136.196 747.478 136.196ZM747.534 135.44C748.253 135.44 748.832 135.225 749.27 134.796C749.718 134.357 749.942 133.741 749.942 132.948V132.78H747.464C746.979 132.78 746.573 132.887 746.246 133.102C745.929 133.307 745.77 133.629 745.77 134.068C745.77 134.507 745.934 134.847 746.26 135.09C746.596 135.323 747.021 135.44 747.534 135.44ZM754.121 138.8V138.044H758.097C758.377 138.044 758.517 137.904 758.517 137.624V134.824H758.349C758.237 135.048 758.079 135.263 757.873 135.468C757.677 135.664 757.416 135.827 757.089 135.958C756.772 136.079 756.371 136.14 755.885 136.14C755.4 136.14 754.947 136.037 754.527 135.832C754.117 135.627 753.785 135.319 753.533 134.908C753.291 134.497 753.169 133.979 753.169 133.354V129.196H754.009V133.298C754.009 134.035 754.196 134.567 754.569 134.894C754.943 135.221 755.442 135.384 756.067 135.384C756.767 135.384 757.351 135.155 757.817 134.698C758.284 134.241 758.517 133.545 758.517 132.612V129.196H759.357V137.736C759.357 138.072 759.264 138.333 759.077 138.52C758.9 138.707 758.629 138.8 758.265 138.8H754.121ZM764.528 136.196C763.707 136.196 763.002 136 762.414 135.608C761.835 135.216 761.481 134.567 761.35 133.662L762.176 133.508C762.251 134.003 762.4 134.395 762.624 134.684C762.857 134.964 763.137 135.165 763.464 135.286C763.8 135.407 764.155 135.468 764.528 135.468C765.088 135.468 765.536 135.356 765.872 135.132C766.217 134.899 766.39 134.581 766.39 134.18C766.39 133.769 766.227 133.485 765.9 133.326C765.583 133.167 765.158 133.041 764.626 132.948L763.982 132.836C763.553 132.761 763.165 132.649 762.82 132.5C762.475 132.341 762.199 132.131 761.994 131.87C761.798 131.609 761.7 131.282 761.7 130.89C761.7 130.302 761.929 129.84 762.386 129.504C762.853 129.168 763.469 129 764.234 129C765.009 129 765.629 129.177 766.096 129.532C766.572 129.877 766.871 130.381 766.992 131.044L766.208 131.212C766.115 130.671 765.891 130.288 765.536 130.064C765.191 129.84 764.757 129.728 764.234 129.728C763.721 129.728 763.31 129.826 763.002 130.022C762.694 130.218 762.54 130.507 762.54 130.89C762.54 131.263 762.68 131.539 762.96 131.716C763.24 131.884 763.623 132.01 764.108 132.094L764.752 132.206C765.219 132.281 765.639 132.393 766.012 132.542C766.385 132.682 766.679 132.883 766.894 133.144C767.118 133.405 767.23 133.751 767.23 134.18C767.23 134.824 766.987 135.323 766.502 135.678C766.017 136.023 765.359 136.196 764.528 136.196Z" fill="white"/>
<path d="M690.58 164.417C690.58 155.924 697.465 149.039 705.958 149.039H785.044C793.537 149.039 800.422 155.924 800.422 164.417C800.422 172.91 793.537 179.795 785.044 179.795H705.958C697.465 179.795 690.58 172.91 690.58 164.417Z" fill="#0E47EF"/>
<path d="M727.32 167.168C726.336 167.168 725.552 166.88 724.968 166.304C724.384 165.72 724.092 164.868 724.092 163.748V161.852C724.092 160.732 724.384 159.884 724.968 159.308C725.552 158.724 726.336 158.432 727.32 158.432C728.304 158.432 729.088 158.724 729.672 159.308C730.256 159.884 730.548 160.732 730.548 161.852V163.748C730.548 164.868 730.256 165.72 729.672 166.304C729.088 166.88 728.304 167.168 727.32 167.168ZM727.32 166.472C728.104 166.472 728.708 166.236 729.132 165.764C729.564 165.292 729.78 164.628 729.78 163.772V161.828C729.78 160.972 729.564 160.308 729.132 159.836C728.708 159.364 728.104 159.128 727.32 159.128C726.544 159.128 725.94 159.364 725.508 159.836C725.076 160.308 724.86 160.972 724.86 161.828V163.772C724.86 164.628 725.076 165.292 725.508 165.764C725.94 166.236 726.544 166.472 727.32 166.472ZM727.776 168.848C727.52 168.848 727.316 168.772 727.164 168.62C727.012 168.468 726.936 168.256 726.936 167.984V167H727.692V167.828C727.692 168.068 727.804 168.188 728.028 168.188H728.856V168.848H727.776ZM734.616 167.12C734.2 167.12 733.812 167.032 733.452 166.856C733.1 166.68 732.816 166.416 732.6 166.064C732.392 165.704 732.288 165.256 732.288 164.72V161.168H733.008V164.672C733.008 165.304 733.168 165.764 733.488 166.052C733.808 166.332 734.236 166.472 734.772 166.472C735.372 166.472 735.872 166.276 736.272 165.884C736.672 165.484 736.872 164.884 736.872 164.084V161.168H737.592V167H736.896V165.92H736.752C736.608 166.232 736.372 166.512 736.044 166.76C735.716 167 735.24 167.12 734.616 167.12ZM742.396 167.168C741.796 167.168 741.272 167.044 740.824 166.796C740.384 166.54 740.04 166.184 739.792 165.728C739.544 165.272 739.42 164.748 739.42 164.156V164.012C739.42 163.412 739.544 162.888 739.792 162.44C740.04 161.984 740.38 161.632 740.812 161.384C741.252 161.128 741.752 161 742.312 161C742.856 161 743.336 161.116 743.752 161.348C744.176 161.572 744.508 161.9 744.748 162.332C744.988 162.756 745.108 163.264 745.108 163.856V164.24H740.14C740.164 164.968 740.384 165.532 740.8 165.932C741.224 166.324 741.756 166.52 742.396 166.52C742.94 166.52 743.36 166.396 743.656 166.148C743.96 165.9 744.192 165.596 744.352 165.236L745 165.524C744.88 165.788 744.712 166.048 744.496 166.304C744.288 166.552 744.016 166.76 743.68 166.928C743.344 167.088 742.916 167.168 742.396 167.168ZM740.152 163.616H744.376C744.344 162.984 744.14 162.5 743.764 162.164C743.388 161.82 742.904 161.648 742.312 161.648C741.728 161.648 741.244 161.82 740.86 162.164C740.476 162.5 740.24 162.984 740.152 163.616ZM749.124 167.12C748.708 167.12 748.32 167.032 747.96 166.856C747.608 166.68 747.324 166.416 747.108 166.064C746.9 165.704 746.796 165.256 746.796 164.72V161.168H747.516V164.672C747.516 165.304 747.676 165.764 747.996 166.052C748.316 166.332 748.744 166.472 749.28 166.472C749.88 166.472 750.38 166.276 750.78 165.884C751.18 165.484 751.38 164.884 751.38 164.084V161.168H752.1V167H751.404V165.92H751.26C751.116 166.232 750.88 166.512 750.552 166.76C750.224 167 749.748 167.12 749.124 167.12ZM756.904 167.168C756.304 167.168 755.78 167.044 755.332 166.796C754.892 166.54 754.548 166.184 754.3 165.728C754.052 165.272 753.928 164.748 753.928 164.156V164.012C753.928 163.412 754.052 162.888 754.3 162.44C754.548 161.984 754.888 161.632 755.32 161.384C755.76 161.128 756.26 161 756.82 161C757.364 161 757.844 161.116 758.26 161.348C758.684 161.572 759.016 161.9 759.256 162.332C759.496 162.756 759.616 163.264 759.616 163.856V164.24H754.648C754.672 164.968 754.892 165.532 755.308 165.932C755.732 166.324 756.264 166.52 756.904 166.52C757.448 166.52 757.868 166.396 758.164 166.148C758.468 165.9 758.7 165.596 758.86 165.236L759.508 165.524C759.388 165.788 759.22 166.048 759.004 166.304C758.796 166.552 758.524 166.76 758.188 166.928C757.852 167.088 757.424 167.168 756.904 167.168ZM754.66 163.616H758.884C758.852 162.984 758.648 162.5 758.272 162.164C757.896 161.82 757.412 161.648 756.82 161.648C756.236 161.648 755.752 161.82 755.368 162.164C754.984 162.5 754.748 162.984 754.66 163.616ZM763.908 167.168C763.388 167.168 762.916 167.048 762.492 166.808C762.068 166.56 761.728 166.212 761.472 165.764C761.224 165.308 761.1 164.772 761.1 164.156V164.012C761.1 163.396 761.224 162.864 761.472 162.416C761.72 161.96 762.056 161.612 762.48 161.372C762.912 161.124 763.388 161 763.908 161C764.34 161 764.704 161.06 765 161.18C765.296 161.292 765.536 161.44 765.72 161.624C765.912 161.8 766.06 161.988 766.164 162.188H766.308V158.6H767.028V167H766.332V165.932H766.188C766.02 166.252 765.756 166.54 765.396 166.796C765.044 167.044 764.548 167.168 763.908 167.168ZM764.076 166.52C764.74 166.52 765.276 166.308 765.684 165.884C766.1 165.46 766.308 164.876 766.308 164.132V164.036C766.308 163.292 766.1 162.708 765.684 162.284C765.276 161.86 764.74 161.648 764.076 161.648C763.42 161.648 762.884 161.86 762.468 162.284C762.052 162.708 761.844 163.292 761.844 164.036V164.132C761.844 164.876 762.052 165.46 762.468 165.884C762.884 166.308 763.42 166.52 764.076 166.52Z" fill="white"/>
<defs>
<linearGradient id="paint0_linear" x1="325.954" y1="0" x2="325.954" y2="221.148" gradientUnits="userSpaceOnUse">
<stop stop-color="#FDFDFD" stop-opacity="0.08"/>
<stop offset="0.833333" stop-color="#FFF7F8"/>
</linearGradient>
<linearGradient id="paint1_linear" x1="745.852" y1="0" x2="745.852" y2="388.851" gradientUnits="userSpaceOnUse">
<stop stop-color="#0E47EF"/>
<stop offset="1" stop-color="#0E47EF" stop-opacity="0"/>
</linearGradient>
</defs>
</svg>
