<svg width="93" height="50" viewBox="0 0 93 50" fill="none" xmlns="http://www.w3.org/2000/svg">
<path d="M10.5344 29L12.8384 20.6H15.3464L17.6504 29H16.1624L15.6584 27.08H12.5264L12.0224 29H10.5344ZM12.8624 25.76H15.3224L14.1944 21.5H13.9904L12.8624 25.76ZM18.7642 29V20.6H20.1442V29H18.7642ZM23.7291 29.168C23.3131 29.168 22.9371 29.096 22.6011 28.952C22.2651 28.8 21.9971 28.584 21.7971 28.304C21.6051 28.024 21.5091 27.68 21.5091 27.272C21.5091 26.872 21.6051 26.536 21.7971 26.264C21.9971 25.992 22.2691 25.788 22.6131 25.652C22.9571 25.508 23.3491 25.436 23.7891 25.436H25.5051V25.076C25.5051 24.764 25.4091 24.512 25.2171 24.32C25.0251 24.12 24.7251 24.02 24.3171 24.02C23.9171 24.02 23.6131 24.116 23.4051 24.308C23.2051 24.492 23.0731 24.732 23.0091 25.028L21.7371 24.608C21.8331 24.296 21.9851 24.012 22.1931 23.756C22.4091 23.5 22.6931 23.296 23.0451 23.144C23.3971 22.984 23.8291 22.904 24.3411 22.904C25.1171 22.904 25.7251 23.1 26.1651 23.492C26.6131 23.876 26.8371 24.436 26.8371 25.172V27.5C26.8371 27.74 26.9491 27.86 27.1731 27.86H27.6771V29H26.7051C26.4171 29 26.1811 28.928 25.9971 28.784C25.8131 28.64 25.7211 28.444 25.7211 28.196V28.172H25.5171C25.4691 28.284 25.3851 28.42 25.2651 28.58C25.1451 28.74 24.9611 28.88 24.7131 29C24.4731 29.112 24.1451 29.168 23.7291 29.168ZM23.9571 28.04C24.4131 28.04 24.7851 27.912 25.0731 27.656C25.3611 27.392 25.5051 27.04 25.5051 26.6V26.48H23.8731C23.5771 26.48 23.3371 26.544 23.1531 26.672C22.9691 26.8 22.8771 26.988 22.8771 27.236C22.8771 27.476 22.9731 27.672 23.1651 27.824C23.3571 27.968 23.6211 28.04 23.9571 28.04ZM28.8189 29V23.072H30.1749V23.9H30.3789C30.4829 23.676 30.6709 23.464 30.9429 23.264C31.2149 23.064 31.6269 22.964 32.1789 22.964C32.6349 22.964 33.0389 23.068 33.3909 23.276C33.7429 23.484 34.0149 23.772 34.2069 24.14C34.4069 24.508 34.5069 24.944 34.5069 25.448V29H33.1269V25.556C33.1269 25.076 33.0069 24.72 32.7669 24.488C32.5349 24.248 32.2029 24.128 31.7709 24.128C31.2829 24.128 30.8989 24.292 30.6189 24.62C30.3389 24.94 30.1989 25.4 30.1989 26V29H28.8189ZM39.2123 29V20.6H40.6643V24.128H43.9763V20.6H45.4283V29H43.9763V25.448H40.6643V29H39.2123ZM49.9433 29.168C49.3513 29.168 48.8193 29.048 48.3473 28.808C47.8833 28.56 47.5153 28.212 47.2433 27.764C46.9793 27.308 46.8473 26.764 46.8473 26.132V25.94C46.8473 25.308 46.9793 24.764 47.2433 24.308C47.5153 23.852 47.8833 23.504 48.3473 23.264C48.8193 23.024 49.3513 22.904 49.9433 22.904C50.5353 22.904 51.0633 23.024 51.5273 23.264C51.9913 23.504 52.3553 23.852 52.6193 24.308C52.8913 24.764 53.0273 25.308 53.0273 25.94V26.132C53.0273 26.764 52.8913 27.308 52.6193 27.764C52.3553 28.212 51.9913 28.56 51.5273 28.808C51.0633 29.048 50.5353 29.168 49.9433 29.168ZM49.9433 27.944C50.4473 27.944 50.8593 27.784 51.1793 27.464C51.4993 27.136 51.6593 26.68 51.6593 26.096V25.976C51.6593 25.392 51.4993 24.94 51.1793 24.62C50.8593 24.292 50.4473 24.128 49.9433 24.128C49.4393 24.128 49.0273 24.292 48.7073 24.62C48.3873 24.94 48.2273 25.392 48.2273 25.976V26.096C48.2273 26.68 48.3873 27.136 48.7073 27.464C49.0273 27.784 49.4393 27.944 49.9433 27.944ZM55.0118 29L54.0878 23.072H55.4558L56.0918 28.076H56.2958L57.1958 23.072H59.4038L60.3038 28.076H60.5078L61.1438 23.072H62.5118L61.5878 29H59.2958L58.4078 23.996H58.2038L57.3038 29H55.0118ZM65.7174 29.168C65.3014 29.168 64.9254 29.096 64.5894 28.952C64.2534 28.8 63.9854 28.584 63.7854 28.304C63.5934 28.024 63.4974 27.68 63.4974 27.272C63.4974 26.872 63.5934 26.536 63.7854 26.264C63.9854 25.992 64.2574 25.788 64.6014 25.652C64.9454 25.508 65.3374 25.436 65.7774 25.436H67.4934V25.076C67.4934 24.764 67.3974 24.512 67.2054 24.32C67.0134 24.12 66.7134 24.02 66.3054 24.02C65.9054 24.02 65.6014 24.116 65.3934 24.308C65.1934 24.492 65.0614 24.732 64.9974 25.028L63.7254 24.608C63.8214 24.296 63.9734 24.012 64.1814 23.756C64.3974 23.5 64.6814 23.296 65.0334 23.144C65.3854 22.984 65.8174 22.904 66.3294 22.904C67.1054 22.904 67.7134 23.1 68.1534 23.492C68.6014 23.876 68.8254 24.436 68.8254 25.172V27.5C68.8254 27.74 68.9374 27.86 69.1614 27.86H69.6654V29H68.6934C68.4054 29 68.1694 28.928 67.9854 28.784C67.8014 28.64 67.7094 28.444 67.7094 28.196V28.172H67.5054C67.4574 28.284 67.3734 28.42 67.2534 28.58C67.1334 28.74 66.9494 28.88 66.7014 29C66.4614 29.112 66.1334 29.168 65.7174 29.168ZM65.9454 28.04C66.4014 28.04 66.7734 27.912 67.0614 27.656C67.3494 27.392 67.4934 27.04 67.4934 26.6V26.48H65.8614C65.5654 26.48 65.3254 26.544 65.1414 26.672C64.9574 26.8 64.8654 26.988 64.8654 27.236C64.8654 27.476 64.9614 27.672 65.1534 27.824C65.3454 27.968 65.6094 28.04 65.9454 28.04ZM70.8072 29V23.072H72.1632V23.756H72.3672C72.4552 23.508 72.6032 23.328 72.8112 23.216C73.0192 23.104 73.2672 23.048 73.5552 23.048H74.2752V24.272H73.5312C73.1312 24.272 72.8072 24.38 72.5592 24.596C72.3112 24.804 72.1872 25.128 72.1872 25.568V29H70.8072ZM77.7077 29.168C77.2277 29.168 76.7797 29.052 76.3637 28.82C75.9477 28.58 75.6157 28.232 75.3677 27.776C75.1197 27.32 74.9957 26.772 74.9957 26.132V25.94C74.9957 25.3 75.1197 24.752 75.3677 24.296C75.6157 23.84 75.9437 23.496 76.3517 23.264C76.7677 23.024 77.2197 22.904 77.7077 22.904C78.0757 22.904 78.3877 22.948 78.6437 23.036C78.8997 23.124 79.1037 23.236 79.2557 23.372C79.4157 23.508 79.5397 23.656 79.6277 23.816H79.8317V20.6H81.1997V29H79.8557V28.22H79.6517C79.5077 28.46 79.2877 28.68 78.9917 28.88C78.6957 29.072 78.2677 29.168 77.7077 29.168ZM78.1157 27.968C78.6117 27.968 79.0237 27.808 79.3517 27.488C79.6797 27.16 79.8437 26.696 79.8437 26.096V25.976C79.8437 25.368 79.6797 24.904 79.3517 24.584C79.0317 24.264 78.6197 24.104 78.1157 24.104C77.6197 24.104 77.2037 24.264 76.8677 24.584C76.5397 24.904 76.3757 25.368 76.3757 25.976V26.096C76.3757 26.696 76.5397 27.16 76.8677 27.488C77.2037 27.808 77.6197 27.968 78.1157 27.968Z" fill="#C5C5C5"/>
<path d="M10.5344 29L12.8384 20.6H15.3464L17.6504 29H16.1624L15.6584 27.08H12.5264L12.0224 29H10.5344ZM12.8624 25.76H15.3224L14.1944 21.5H13.9904L12.8624 25.76ZM18.7642 29V20.6H20.1442V29H18.7642ZM23.7291 29.168C23.3131 29.168 22.9371 29.096 22.6011 28.952C22.2651 28.8 21.9971 28.584 21.7971 28.304C21.6051 28.024 21.5091 27.68 21.5091 27.272C21.5091 26.872 21.6051 26.536 21.7971 26.264C21.9971 25.992 22.2691 25.788 22.6131 25.652C22.9571 25.508 23.3491 25.436 23.7891 25.436H25.5051V25.076C25.5051 24.764 25.4091 24.512 25.2171 24.32C25.0251 24.12 24.7251 24.02 24.3171 24.02C23.9171 24.02 23.6131 24.116 23.4051 24.308C23.2051 24.492 23.0731 24.732 23.0091 25.028L21.7371 24.608C21.8331 24.296 21.9851 24.012 22.1931 23.756C22.4091 23.5 22.6931 23.296 23.0451 23.144C23.3971 22.984 23.8291 22.904 24.3411 22.904C25.1171 22.904 25.7251 23.1 26.1651 23.492C26.6131 23.876 26.8371 24.436 26.8371 25.172V27.5C26.8371 27.74 26.9491 27.86 27.1731 27.86H27.6771V29H26.7051C26.4171 29 26.1811 28.928 25.9971 28.784C25.8131 28.64 25.7211 28.444 25.7211 28.196V28.172H25.5171C25.4691 28.284 25.3851 28.42 25.2651 28.58C25.1451 28.74 24.9611 28.88 24.7131 29C24.4731 29.112 24.1451 29.168 23.7291 29.168ZM23.9571 28.04C24.4131 28.04 24.7851 27.912 25.0731 27.656C25.3611 27.392 25.5051 27.04 25.5051 26.6V26.48H23.8731C23.5771 26.48 23.3371 26.544 23.1531 26.672C22.9691 26.8 22.8771 26.988 22.8771 27.236C22.8771 27.476 22.9731 27.672 23.1651 27.824C23.3571 27.968 23.6211 28.04 23.9571 28.04ZM28.8189 29V23.072H30.1749V23.9H30.3789C30.4829 23.676 30.6709 23.464 30.9429 23.264C31.2149 23.064 31.6269 22.964 32.1789 22.964C32.6349 22.964 33.0389 23.068 33.3909 23.276C33.7429 23.484 34.0149 23.772 34.2069 24.14C34.4069 24.508 34.5069 24.944 34.5069 25.448V29H33.1269V25.556C33.1269 25.076 33.0069 24.72 32.7669 24.488C32.5349 24.248 32.2029 24.128 31.7709 24.128C31.2829 24.128 30.8989 24.292 30.6189 24.62C30.3389 24.94 30.1989 25.4 30.1989 26V29H28.8189ZM39.2123 29V20.6H40.6643V24.128H43.9763V20.6H45.4283V29H43.9763V25.448H40.6643V29H39.2123ZM49.9433 29.168C49.3513 29.168 48.8193 29.048 48.3473 28.808C47.8833 28.56 47.5153 28.212 47.2433 27.764C46.9793 27.308 46.8473 26.764 46.8473 26.132V25.94C46.8473 25.308 46.9793 24.764 47.2433 24.308C47.5153 23.852 47.8833 23.504 48.3473 23.264C48.8193 23.024 49.3513 22.904 49.9433 22.904C50.5353 22.904 51.0633 23.024 51.5273 23.264C51.9913 23.504 52.3553 23.852 52.6193 24.308C52.8913 24.764 53.0273 25.308 53.0273 25.94V26.132C53.0273 26.764 52.8913 27.308 52.6193 27.764C52.3553 28.212 51.9913 28.56 51.5273 28.808C51.0633 29.048 50.5353 29.168 49.9433 29.168ZM49.9433 27.944C50.4473 27.944 50.8593 27.784 51.1793 27.464C51.4993 27.136 51.6593 26.68 51.6593 26.096V25.976C51.6593 25.392 51.4993 24.94 51.1793 24.62C50.8593 24.292 50.4473 24.128 49.9433 24.128C49.4393 24.128 49.0273 24.292 48.7073 24.62C48.3873 24.94 48.2273 25.392 48.2273 25.976V26.096C48.2273 26.68 48.3873 27.136 48.7073 27.464C49.0273 27.784 49.4393 27.944 49.9433 27.944ZM55.0118 29L54.0878 23.072H55.4558L56.0918 28.076H56.2958L57.1958 23.072H59.4038L60.3038 28.076H60.5078L61.1438 23.072H62.5118L61.5878 29H59.2958L58.4078 23.996H58.2038L57.3038 29H55.0118ZM65.7174 29.168C65.3014 29.168 64.9254 29.096 64.5894 28.952C64.2534 28.8 63.9854 28.584 63.7854 28.304C63.5934 28.024 63.4974 27.68 63.4974 27.272C63.4974 26.872 63.5934 26.536 63.7854 26.264C63.9854 25.992 64.2574 25.788 64.6014 25.652C64.9454 25.508 65.3374 25.436 65.7774 25.436H67.4934V25.076C67.4934 24.764 67.3974 24.512 67.2054 24.32C67.0134 24.12 66.7134 24.02 66.3054 24.02C65.9054 24.02 65.6014 24.116 65.3934 24.308C65.1934 24.492 65.0614 24.732 64.9974 25.028L63.7254 24.608C63.8214 24.296 63.9734 24.012 64.1814 23.756C64.3974 23.5 64.6814 23.296 65.0334 23.144C65.3854 22.984 65.8174 22.904 66.3294 22.904C67.1054 22.904 67.7134 23.1 68.1534 23.492C68.6014 23.876 68.8254 24.436 68.8254 25.172V27.5C68.8254 27.74 68.9374 27.86 69.1614 27.86H69.6654V29H68.6934C68.4054 29 68.1694 28.928 67.9854 28.784C67.8014 28.64 67.7094 28.444 67.7094 28.196V28.172H67.5054C67.4574 28.284 67.3734 28.42 67.2534 28.58C67.1334 28.74 66.9494 28.88 66.7014 29C66.4614 29.112 66.1334 29.168 65.7174 29.168ZM65.9454 28.04C66.4014 28.04 66.7734 27.912 67.0614 27.656C67.3494 27.392 67.4934 27.04 67.4934 26.6V26.48H65.8614C65.5654 26.48 65.3254 26.544 65.1414 26.672C64.9574 26.8 64.8654 26.988 64.8654 27.236C64.8654 27.476 64.9614 27.672 65.1534 27.824C65.3454 27.968 65.6094 28.04 65.9454 28.04ZM70.8072 29V23.072H72.1632V23.756H72.3672C72.4552 23.508 72.6032 23.328 72.8112 23.216C73.0192 23.104 73.2672 23.048 73.5552 23.048H74.2752V24.272H73.5312C73.1312 24.272 72.8072 24.38 72.5592 24.596C72.3112 24.804 72.1872 25.128 72.1872 25.568V29H70.8072ZM77.7077 29.168C77.2277 29.168 76.7797 29.052 76.3637 28.82C75.9477 28.58 75.6157 28.232 75.3677 27.776C75.1197 27.32 74.9957 26.772 74.9957 26.132V25.94C74.9957 25.3 75.1197 24.752 75.3677 24.296C75.6157 23.84 75.9437 23.496 76.3517 23.264C76.7677 23.024 77.2197 22.904 77.7077 22.904C78.0757 22.904 78.3877 22.948 78.6437 23.036C78.8997 23.124 79.1037 23.236 79.2557 23.372C79.4157 23.508 79.5397 23.656 79.6277 23.816H79.8317V20.6H81.1997V29H79.8557V28.22H79.6517C79.5077 28.46 79.2877 28.68 78.9917 28.88C78.6957 29.072 78.2677 29.168 77.7077 29.168ZM78.1157 27.968C78.6117 27.968 79.0237 27.808 79.3517 27.488C79.6797 27.16 79.8437 26.696 79.8437 26.096V25.976C79.8437 25.368 79.6797 24.904 79.3517 24.584C79.0317 24.264 78.6197 24.104 78.1157 24.104C77.6197 24.104 77.2037 24.264 76.8677 24.584C76.5397 24.904 76.3757 25.368 76.3757 25.976V26.096C76.3757 26.696 76.5397 27.16 76.8677 27.488C77.2037 27.808 77.6197 27.968 78.1157 27.968Z" fill="url(#paint0_linear)"/>
<defs>
<linearGradient id="paint0_linear" x1="10.1831" y1="25.2459" x2="82.1873" y2="25.4427" gradientUnits="userSpaceOnUse">
<stop stop-color="#2D82B7"/>
<stop offset="1" stop-color="#5CC7F2"/>
</linearGradient>
</defs>
</svg>
