<svg width="135" height="50" viewBox="0 0 135 50" fill="none" xmlns="http://www.w3.org/2000/svg">
<g clip-path="url(#clip0)">
<path d="M84.4689 19.1479C85.0849 19.1479 85.5843 18.6496 85.5843 18.035C85.5843 17.4204 85.0849 16.9221 84.4689 16.9221C83.8529 16.9221 83.3535 17.4204 83.3535 18.035C83.3535 18.6496 83.8529 19.1479 84.4689 19.1479Z" fill="#212121"/>
<path d="M84.469 18.956C83.969 18.956 83.5459 18.5339 83.5459 18.035C83.5459 17.5361 83.969 17.114 84.469 17.114C84.969 17.114 85.392 17.5361 85.392 18.035C85.392 18.5339 84.969 18.956 84.469 18.956Z" fill="#212121"/>
<path d="M84.1999 29.4706C83.2768 29.4706 82.3922 29.2019 81.623 28.6647C80.8922 28.2042 80.4307 27.4367 80.4307 26.5541V23.4841C80.4691 22.6015 80.8922 21.834 81.6614 21.3735C82.4307 20.8362 83.3153 20.5676 84.2384 20.5676H84.3537H84.623H84.7384C85.6614 20.5676 86.5461 20.8362 87.3153 21.3735C88.0461 21.834 88.5076 22.6015 88.5076 23.4841V26.5541C88.4691 27.4367 88.0461 28.2042 87.2768 28.6647C86.5076 29.2019 85.623 29.4706 84.6999 29.4706H84.5845H84.3153C84.2768 29.4706 84.2384 29.4706 84.1999 29.4706ZM84.2384 21.4119C83.4691 21.4119 82.7384 21.6421 82.123 22.0642C81.623 22.3712 81.3153 22.9085 81.2768 23.4841V26.5541C81.2768 27.1297 81.623 27.6669 82.123 27.9739C82.7768 28.3961 83.5076 28.6263 84.2384 28.6263H84.623H84.7384C85.5076 28.6263 86.2384 28.3961 86.8537 27.9739C87.3538 27.6669 87.6614 27.1297 87.6999 26.5541V23.4841C87.6999 22.9085 87.3538 22.3712 86.8537 22.0642C86.1999 21.6421 85.4691 21.4119 84.7384 21.4119H84.3537H84.2384Z" fill="#212121"/>
<path d="M84.623 29.2789H84.3538C83.4307 29.3173 82.5077 29.0487 81.7384 28.5114C81.0461 28.0893 80.623 27.3602 80.623 26.5543V23.4843C80.623 22.6784 81.0846 21.9493 81.7384 21.5272C82.5077 20.99 83.4307 20.7213 84.3538 20.7597H84.623C85.5461 20.7213 86.4692 20.99 87.2384 21.5272C87.9307 21.9493 88.3538 22.6784 88.3538 23.4843V26.5543C88.3538 27.3602 87.9307 28.0893 87.2384 28.5114C86.4692 29.0103 85.5461 29.2789 84.623 29.2789ZM84.3154 21.2202C83.4692 21.1818 82.6615 21.4505 81.9692 21.911C81.3923 22.2563 81.0461 22.8319 81.0461 23.4843V26.5543C81.0846 27.2067 81.4307 27.7823 81.9692 28.1277C82.6615 28.5882 83.4692 28.8568 84.3154 28.8184H84.5846C85.4307 28.8568 86.2384 28.5882 86.9307 28.1277C87.5077 27.7823 87.8538 27.2067 87.8538 26.5543V23.4843C87.8154 22.8319 87.4692 22.2563 86.9307 21.911C86.2384 21.4505 85.4307 21.1818 84.5846 21.2202H84.3154Z" fill="#212121"/>
<path d="M108.315 29.4706C107.392 29.4706 106.507 29.2019 105.738 28.6647C105.007 28.2042 104.546 27.4367 104.546 26.5541V23.4841C104.584 22.6015 105.007 21.834 105.777 21.3735C106.546 20.8362 107.431 20.5676 108.354 20.5676H108.469H108.738H108.854C109.777 20.5676 110.661 20.8362 111.431 21.3735C112.161 21.834 112.623 22.6015 112.623 23.4841V23.676H111.777V23.4841C111.777 22.9085 111.431 22.3712 110.931 22.0642C110.277 21.6421 109.546 21.4119 108.815 21.4119H108.431H108.315C107.546 21.4119 106.815 21.6421 106.2 22.0642C105.7 22.3712 105.392 22.9085 105.354 23.4841V26.5541C105.354 27.1297 105.7 27.6669 106.2 27.9739C106.854 28.3961 107.584 28.6263 108.315 28.6263H108.7H108.815C109.584 28.6263 110.315 28.3961 110.931 27.9739C111.431 27.6669 111.738 27.1297 111.777 26.5541V26.3622H112.623V26.5541C112.584 27.4367 112.161 28.2042 111.392 28.6647C110.623 29.2019 109.738 29.4706 108.815 29.4706C108.777 29.4706 108.738 29.4706 108.7 29.4706H108.431C108.431 29.4706 108.392 29.4706 108.315 29.4706Z" fill="#212121"/>
<path d="M111.084 28.1277C110.392 28.5882 109.584 28.8568 108.738 28.8184H108.469C107.623 28.8568 106.815 28.5882 106.123 28.1277C105.546 27.7823 105.2 27.2067 105.2 26.5543V23.4843C105.238 22.8319 105.584 22.2563 106.123 21.911C106.815 21.4505 107.623 21.1818 108.469 21.2202H108.738C109.584 21.1818 110.392 21.4505 111.084 21.911C111.661 22.2563 112.008 22.8319 112.008 23.4843H112.469C112.469 22.6784 112.008 21.9493 111.354 21.5272C110.584 20.99 109.661 20.7213 108.738 20.7597H108.469C107.546 20.7213 106.623 20.99 105.854 21.5272C105.161 21.9493 104.738 22.6784 104.738 23.4843V26.5543C104.738 27.3602 105.2 28.0893 105.854 28.5114C106.623 29.0487 107.546 29.3173 108.469 29.2789H108.738C109.661 29.3173 110.584 29.0487 111.354 28.5114C112.046 28.0893 112.469 27.3602 112.469 26.5543H112.008C111.969 27.1683 111.623 27.7823 111.084 28.1277Z" fill="#212121"/>
<path d="M120.123 29.4706C119.2 29.4706 118.316 29.2019 117.546 28.6647C116.816 28.2042 116.354 27.4367 116.354 26.5541V23.4841C116.392 22.6015 116.816 21.834 117.585 21.3735C118.354 20.8362 119.239 20.5676 120.162 20.5676H120.277H120.546H120.662C121.585 20.5676 122.469 20.8362 123.239 21.3735C123.969 21.834 124.431 22.6015 124.431 23.4841V25.4412H117.162V26.5541C117.162 27.1297 117.508 27.6669 118.008 27.9739C118.662 28.3961 119.392 28.6263 120.123 28.6263H120.239H123.662V29.4706H120.239H120.123ZM123.623 24.5586V23.4841C123.623 22.9085 123.277 22.3712 122.777 22.0642C122.123 21.6421 121.392 21.4119 120.662 21.4119H120.277H120.162C119.392 21.4119 118.662 21.6421 118.046 22.0642C117.546 22.3712 117.239 22.9085 117.2 23.4841V24.5586H123.623Z" fill="#212121"/>
<path d="M123.161 21.5272C122.392 20.99 121.469 20.7213 120.546 20.7597H120.277C119.354 20.7213 118.431 20.99 117.661 21.5272C116.969 21.9493 116.546 22.6784 116.546 23.4843V26.5543C116.546 27.3602 117.007 28.0893 117.661 28.5114C118.431 29.0487 119.354 29.3173 120.277 29.2789H123.507V28.8184H120.277C119.431 28.8568 118.623 28.5882 117.931 28.1277C117.354 27.7823 117.007 27.2067 117.007 26.5543V25.2496H124.277V23.4843C124.277 22.6784 123.854 21.9493 123.161 21.5272ZM117.007 24.7507V23.4843C117.007 22.8319 117.392 22.2563 117.931 21.911C118.623 21.4505 119.431 21.1818 120.277 21.2202H120.546C121.392 21.1818 122.2 21.4505 122.892 21.911C123.469 22.2563 123.815 22.8319 123.815 23.4843V24.7507H117.007Z" fill="#212121"/>
<path d="M59.7384 29.4706C58.7769 29.4706 57.8538 29.2019 57.0461 28.6647C56.2769 28.2426 55.8153 27.4367 55.7769 26.5541V23.4841C55.8153 22.6015 56.2769 21.7956 57.0461 21.3735C57.8538 20.8362 58.7769 20.5676 59.7384 20.5676C59.7769 20.5676 59.8153 20.5676 59.8922 20.5676H60.1999C60.2384 20.5676 60.2769 20.5676 60.3538 20.5676C61.3153 20.5676 62.2384 20.8362 63.0461 21.3735C63.8153 21.7956 64.2769 22.6015 64.3153 23.4841V29.3554H63.4692V28.3577C63.3538 28.4728 63.1999 28.5879 63.0845 28.6647C62.2769 29.2019 61.3538 29.4706 60.3922 29.4706C60.3538 29.4706 60.3153 29.4706 60.2384 29.4706H59.9307C59.8538 29.4706 59.7769 29.4706 59.7384 29.4706ZM60.1999 28.6263H60.3153C61.123 28.6263 61.8538 28.3961 62.5461 27.9739C63.0846 27.6669 63.3922 27.1297 63.4307 26.5541V23.4841C63.3922 22.9085 63.0846 22.3712 62.5461 22.0642C61.8538 21.6421 61.0845 21.4119 60.3153 21.4119H60.1999H59.8538H59.7384C58.9307 21.4119 58.1999 21.6421 57.5076 22.0642C56.9692 22.3712 56.6615 22.9085 56.623 23.4841V26.5541C56.6615 27.1297 56.9692 27.6669 57.5076 27.9356C58.1615 28.3577 58.9307 28.5879 59.7384 28.5879H59.8538H60.1999V28.6263Z" fill="#212121"/>
<path d="M62.9307 21.5272C62.123 20.99 61.1614 20.7213 60.1999 20.7597H59.8537C58.8922 20.7213 57.9307 20.99 57.123 21.5272C56.4307 21.9493 55.9691 22.6784 55.9307 23.4843V26.5543C55.9691 27.3602 56.3922 28.0893 57.123 28.5114C57.9307 29.0487 58.8922 29.3173 59.8537 29.2789H60.1999C61.1614 29.3173 62.123 29.0487 62.9307 28.5114C63.1999 28.3195 63.4307 28.1277 63.623 27.859V29.1638H64.0845V23.4843C64.0845 22.6784 63.623 21.9493 62.9307 21.5272ZM63.623 26.5543C63.5845 27.2067 63.2384 27.8207 62.6614 28.1277C61.9307 28.5882 61.0845 28.8568 60.1999 28.8184H59.8537C58.9691 28.8568 58.123 28.5882 57.3922 28.1277C56.8153 27.8207 56.4691 27.2067 56.4307 26.5543V23.4843C56.4691 22.8319 56.8153 22.218 57.3922 21.911C58.123 21.4505 58.9691 21.1818 59.8537 21.2202H60.1999C61.0845 21.1818 61.9307 21.4505 62.6614 21.911C63.2384 22.218 63.623 22.8319 63.623 23.4843V26.5543Z" fill="#212121"/>
<path d="M31.5078 33.4999V23.4841C31.5463 22.6015 32.0078 21.7956 32.777 21.3735C33.5847 20.8362 34.5078 20.5676 35.4694 20.5676C35.5078 20.5676 35.5463 20.5676 35.6232 20.5676H35.9309C35.9694 20.5676 36.0078 20.5676 36.0847 20.5676C37.0463 20.5676 37.9694 20.8362 38.777 21.3735C39.5463 21.7956 40.0078 22.6015 40.0463 23.4841V26.5541C40.0078 27.4367 39.5463 28.2426 38.777 28.6647C37.9694 29.2019 37.0463 29.4706 36.0847 29.4706C36.0847 29.4706 35.9694 29.4706 35.9309 29.4706H35.6232C35.5847 29.4706 35.5463 29.4706 35.4694 29.4706C34.5078 29.4706 33.5847 29.2019 32.777 28.6647C32.6232 28.5879 32.5078 28.4728 32.3924 28.3577V33.4999H31.5078ZM35.9309 28.6263H36.0463C36.854 28.6263 37.5847 28.3961 38.277 27.9739C38.8155 27.6669 39.1232 27.1297 39.1617 26.5541V23.4841C39.1232 22.9085 38.8155 22.3712 38.277 22.0642C37.6232 21.6421 36.854 21.4119 36.0463 21.4119H35.9309H35.5847H35.4694C34.6617 21.4119 33.8924 21.6421 33.2386 22.0642C32.7001 22.3712 32.3924 22.9085 32.354 23.4841V26.5541C32.3924 27.1297 32.7001 27.6669 33.2386 27.9356C33.9309 28.3577 34.6617 28.5879 35.4694 28.5879H35.5847H35.9309V28.6263Z" fill="#212121"/>
<path d="M38.6233 21.5272C37.8156 20.99 36.854 20.7213 35.8925 20.7597H35.5848C34.6233 20.7213 33.6617 20.99 32.854 21.5272C32.1617 21.9493 31.7002 22.6784 31.7002 23.4843V33.3082H32.1617V27.859C32.354 28.0893 32.5848 28.3195 32.854 28.5114C33.6617 29.0486 34.6233 29.3173 35.5848 29.2789H35.8925C36.854 29.3173 37.8156 29.0486 38.6233 28.5114C39.3156 28.0893 39.7771 27.3602 39.8156 26.5543V23.4843C39.7771 22.6784 39.3156 21.9493 38.6233 21.5272ZM39.3156 26.5543C39.2771 27.2067 38.931 27.8207 38.354 28.1277C37.6233 28.5882 36.7771 28.8568 35.8925 28.8184H35.5848C34.7002 28.8568 33.854 28.5882 33.1233 28.1277C32.5463 27.8207 32.2002 27.2067 32.1617 26.5543V23.4843C32.2002 22.8319 32.5463 22.2179 33.1233 21.911C33.854 21.4505 34.7002 21.1818 35.5848 21.2202H35.8925C36.7771 21.1818 37.6233 21.4505 38.354 21.911C38.931 22.2179 39.3156 22.8319 39.3156 23.4843V26.5543Z" fill="#212121"/>
<path d="M28.8539 29.4707C25.7001 29.4707 24.6616 27.3984 24.6616 26.4007V16.5H25.5078V26.4007C25.5078 26.8612 26.0847 28.6264 28.8155 28.6264H29.0078V29.4707H28.8539Z" fill="#212121"/>
<path d="M25.3151 26.4007V16.6919H24.8535V26.4007C24.8535 27.3601 25.8151 29.2788 28.8535 29.2788V28.8183C25.9304 28.7799 25.3151 26.8996 25.3151 26.4007Z" fill="#212121"/>
<path d="M43.8154 29.2404V16.5H44.7V21.6806C45.277 21.105 46.2385 20.5677 47.9308 20.5293H48.0077C50.7 20.5677 51.6231 21.9108 51.8924 22.7167C51.8924 22.7167 52.0847 23.2156 52.0462 23.5226V29.202H51.2V23.5609C51.2 23.5226 51.1231 21.412 48.0077 21.412H47.9308C44.7385 21.4503 44.6616 23.5226 44.6616 23.5609V29.2404H43.8154Z" fill="#212121"/>
<path d="M48.0078 20.7596H47.9309C45.9693 20.798 44.9693 21.5271 44.5078 22.2562V16.6919H44.0078V29.0486H44.4693V23.561C44.4693 23.4842 44.5847 21.2585 47.9309 21.2201C51.277 21.1817 51.3924 23.4458 51.3924 23.561V29.0486H51.854V23.5226C51.8924 23.5226 51.777 20.798 48.0078 20.7596Z" fill="#212121"/>
<path d="M99.8921 29.394V23.9448C99.8921 23.8297 99.8536 21.3353 96.5459 21.2586C93.2767 21.3353 93.2382 23.8297 93.2382 23.9448V29.394H92.3921V23.9448C92.3921 23.9064 92.4306 20.5294 96.5075 20.4143H96.5844C98.1229 20.4527 99.2382 20.9516 99.969 21.8725C100.661 22.7552 100.738 23.7145 100.738 23.9448V29.394H99.8921Z" fill="#212121"/>
<path d="M96.5845 20.5676H96.5076C92.6229 20.6828 92.5845 23.8679 92.5845 23.9062V29.1636H93.046V23.9446C93.046 23.8295 93.0845 21.1432 96.5845 21.0665C100.046 21.1432 100.123 23.8295 100.123 23.9446V29.2019H100.584V23.9446C100.584 23.9062 100.508 20.6828 96.5845 20.5676Z" fill="#212121"/>
<path d="M75.7769 29.394V23.9448C75.7769 23.8297 75.7384 21.3353 72.4307 21.2586C69.1615 21.3353 69.123 23.8297 69.123 23.9448V29.394H68.2769V23.9448C68.2769 23.9064 68.3153 20.4911 72.4307 20.4143H72.5076C76.623 20.5294 76.6615 23.9448 76.6615 23.9448V29.394H75.7769Z" fill="#212121"/>
<path d="M72.4691 20.5676H72.3922C68.4691 20.6828 68.4307 23.8679 68.4307 23.9062V29.1636H68.8922V23.9446C68.8922 23.8295 68.9307 21.1432 72.4307 21.0665C75.8922 21.1432 75.9691 23.8295 75.9691 23.9446V29.2019H76.4307V23.9446C76.4307 23.9062 76.3922 20.6828 72.4691 20.5676Z" fill="#212121"/>
<path d="M14.3922 29.4706C13.4307 29.4706 12.5076 29.2019 11.6999 28.6647C10.9307 28.2426 10.4691 27.4367 10.4307 26.5541V23.4841C10.4691 22.6015 10.9307 21.7956 11.6999 21.3735C12.5076 20.8362 13.4307 20.5676 14.3922 20.5676C14.4307 20.5676 14.4691 20.5676 14.546 20.5676H14.8537C14.8922 20.5676 14.9307 20.5676 15.0076 20.5676C15.9691 20.5676 16.8922 20.8362 17.6999 21.3735C18.4691 21.7956 18.9307 22.6015 18.9691 23.4841V26.2855C18.9691 26.8611 19.1614 27.3983 19.5845 27.7821C20.1999 28.3193 21.0076 28.5879 21.8153 28.5879C21.8537 28.5879 21.8922 28.5879 21.9691 28.5879H22.1614V29.4322H21.9691C21.8922 29.4322 21.8537 29.4322 21.7768 29.4322C20.7384 29.4322 19.7384 29.0484 18.9691 28.3961C18.7768 28.2426 18.6614 28.0507 18.5076 27.8588C18.2768 28.1658 17.9691 28.4344 17.6614 28.6647C16.8537 29.2019 15.9307 29.4706 14.9691 29.4706H14.546C14.4691 29.4706 14.4307 29.4706 14.3922 29.4706ZM14.8537 28.6263H14.9691C15.7768 28.6263 16.5076 28.3961 17.1999 27.9739C17.5076 27.7821 17.7768 27.4751 17.9691 27.1681C18.0076 27.053 18.0845 26.8995 18.123 26.7843C18.123 26.6308 18.0845 26.4773 18.0845 26.3622V23.5609C18.046 22.9852 17.7384 22.448 17.1999 22.141C16.546 21.7189 15.7768 21.4886 14.9691 21.4886C14.9307 21.4886 14.8922 21.4886 14.8537 21.4886H14.3922C13.5845 21.4886 12.8537 21.7189 12.1614 22.141C11.623 22.448 11.3153 22.9852 11.2768 23.5609V26.6308C11.3153 27.2065 11.623 27.7437 12.1614 28.0123C12.8153 28.4344 13.5845 28.6647 14.3922 28.6647H14.5076L14.8537 28.6263Z" fill="#212121"/>
<path d="M14.8537 29.2789H14.5075C13.546 29.3173 12.5845 29.0487 11.7768 28.5114C11.0845 28.0893 10.6229 27.3602 10.5845 26.5543V23.4843C10.6229 22.6784 11.046 21.9493 11.7383 21.5272C12.546 20.99 13.5075 20.7213 14.4691 20.7597H14.8537C15.8152 20.7213 16.7768 20.99 17.5845 21.5272C18.2768 21.9493 18.7383 22.6784 18.7383 23.4843V26.2857C18.7383 26.8997 18.9691 27.4753 19.4306 27.8974C20.1229 28.5114 21.046 28.8184 21.9691 28.78V29.2405C20.9306 29.2789 19.8922 28.9335 19.1229 28.2428C18.8922 28.0125 18.6999 27.7439 18.546 27.4753C18.3152 27.8974 17.9691 28.2044 17.5845 28.473C16.7383 29.0487 15.8152 29.3173 14.8537 29.2789ZM14.5075 21.2202C13.6229 21.1818 12.7768 21.4505 12.046 21.911C11.4691 22.218 11.0845 22.8319 11.0845 23.4843V26.5543C11.1229 27.2067 11.4691 27.8207 12.046 28.1277C12.7768 28.5882 13.6229 28.8568 14.5075 28.8184H14.8537C15.7383 28.8568 16.5845 28.5882 17.3152 28.1277C17.6614 27.8974 17.9306 27.5904 18.1614 27.245C18.2383 27.0915 18.2768 26.938 18.3537 26.7845C18.3152 26.631 18.3152 26.4775 18.3152 26.324V23.5227C18.2768 22.8703 17.9306 22.2563 17.3537 21.9493C16.6229 21.4888 15.7768 21.2202 14.8922 21.2586L14.5075 21.2202Z" fill="#212121"/>
<path d="M20.0985 20.6721L17.8828 27.3379L18.686 27.6037L20.9017 20.9378L20.0985 20.6721Z" fill="#212121"/>
<path d="M20.2201 20.9142L18.1255 27.2158L18.5636 27.3608L20.6582 21.0592L20.2201 20.9142Z" fill="#212121"/>
</g>
<defs>
<clipPath id="clip0">
<rect width="114" height="17" fill="white" transform="translate(10.4307 16.5)"/>
</clipPath>
</defs>
</svg>
