<svg width="83" height="50" viewBox="0 0 83 50" fill="none" xmlns="http://www.w3.org/2000/svg">
<g clip-path="url(#clip0)">
<path d="M16.6149 20C17.3973 21.7254 18.1796 23.4567 18.962 25.1821C19.645 26.6806 20.3219 28.1851 21.0111 29.6776C21.1104 29.8985 21.067 29.9463 20.8248 29.9403C20.3902 29.9284 19.9555 29.9224 19.5209 29.9403C19.2911 29.9522 19.1793 29.8806 19.0862 29.6716C18.0182 27.2299 16.9378 24.794 15.8574 22.3582C15.8263 22.2925 15.8201 22.203 15.7083 22.1493C15.5531 22.4955 15.3917 22.8358 15.2426 23.1761C14.2802 25.3552 13.3115 27.5403 12.3553 29.7254C12.2808 29.8925 12.1939 29.9463 12.0138 29.9463C11.4984 29.9403 10.9831 29.9522 10.4615 29.9582C10.4056 29.6657 10.4863 29.391 10.6043 29.1284C11.9393 26.203 13.2619 23.2716 14.5969 20.3463C14.659 20.203 14.7583 20.0955 14.8763 20C15.4538 20 16.0312 20 16.6149 20Z" fill="black"/>
<path d="M30.0715 24.4059C30.8477 23.2477 31.6363 22.0955 32.4062 20.9313C32.9713 20.0716 32.9588 20.0596 34.0144 20.0716C34.3063 20.0716 34.7037 19.9402 34.8713 20.1432C35.0141 20.3104 34.921 20.6746 34.921 20.9492C34.921 23.8387 34.9148 26.7283 34.9272 29.6178C34.9272 29.8925 34.8465 29.9581 34.5795 29.9402C34.1883 29.9164 33.7909 29.9164 33.3997 29.9402C33.1141 29.9581 33.1141 29.8208 33.1141 29.6178C33.1203 27.5044 33.1141 25.385 33.1141 23.2716C33.1141 23.1761 33.1141 23.0805 33.1141 22.985C33.0954 22.979 33.0768 22.9671 33.0582 22.9611C32.9526 23.1104 32.8409 23.2537 32.7353 23.4029C31.8598 24.6567 30.9843 25.9104 30.115 27.1641C30.0901 27.1999 30.0715 27.2298 30.0467 27.2596C29.8356 27.5223 29.8107 27.5223 29.6182 27.2537C28.6868 25.9164 27.7616 24.579 26.8302 23.2417C26.7744 23.1641 26.7123 23.0925 26.644 23.0029C26.5632 23.1283 26.5943 23.2358 26.5943 23.3373C26.5881 25.4328 26.5881 27.5283 26.5943 29.6238C26.5943 29.8686 26.526 29.9581 26.2652 29.9462C25.8616 29.9283 25.458 29.9343 25.0544 29.9462C24.8805 29.9522 24.7998 29.9164 24.7998 29.7193C24.806 26.579 24.806 23.4447 24.7998 20.3044C24.7998 20.1193 24.8557 20.0656 25.0482 20.0716C25.5263 20.0835 25.9982 20.0835 26.4763 20.0716C26.6626 20.0656 26.7744 20.1313 26.8737 20.2805C27.712 21.5402 28.5564 22.7999 29.4009 24.0596C29.4568 24.1432 29.5189 24.2208 29.581 24.2984C29.73 24.388 29.8728 24.5134 30.0715 24.4059Z" fill="black"/>
<path d="M69.7117 26.221C70.6245 27.4508 71.5248 28.6628 72.45 29.9046C72.1085 29.9643 71.8291 29.9941 71.4627 29.9941C70.9163 30.012 70.1091 29.7911 69.6745 29.0508C69.2025 28.2449 68.5692 27.5165 68.0228 26.7523C67.8924 26.5732 67.7558 26.4837 67.5198 26.4896C66.9734 26.5076 66.4208 26.5016 65.8743 26.4896C65.6446 26.4837 65.5577 26.5255 65.5639 26.7762C65.5825 27.7314 65.5639 28.6807 65.5763 29.6359C65.5825 29.8807 65.4894 29.9404 65.2534 29.9344C64.8374 29.9165 64.4276 29.9225 64.0116 29.9344C63.8377 29.9404 63.7756 29.8807 63.7756 29.7135C63.7818 28.2031 63.788 26.6926 63.7756 25.1822C63.7756 24.9434 63.9122 24.9613 64.0736 24.9613C65.4086 24.9613 66.7437 24.9613 68.0724 24.9613C68.6375 24.9613 69.1839 24.9016 69.662 24.5673C70.2333 24.1732 70.3823 23.624 70.2954 22.9911C70.2147 22.418 69.8731 22.0419 69.3143 21.8389C69.0101 21.7314 68.6996 21.6658 68.3767 21.6658C66.9734 21.6658 65.5639 21.6478 64.1606 21.6658C63.8315 21.6717 63.757 21.5643 63.7756 21.2777C63.8004 20.9493 63.788 20.621 63.7756 20.2926C63.7694 20.1195 63.8377 20.0658 64.0116 20.0717C65.6446 20.0896 67.2777 20.024 68.9107 20.1076C69.9228 20.1613 70.8356 20.4837 71.5 21.2717C72.5245 22.4956 72.3507 24.4359 71.1461 25.4867C71.0653 25.5523 70.4817 26.0837 69.7117 26.221Z" fill="black"/>
<path d="M55.8213 24.185C56.9887 24.185 58.156 24.191 59.3296 24.1791C59.5531 24.1791 59.6463 24.2268 59.6338 24.4597C59.6152 24.788 59.6152 25.1164 59.6338 25.4447C59.6463 25.6835 59.5655 25.7432 59.3234 25.7432C57.5537 25.7313 55.7841 25.7373 54.0206 25.7373C53.5611 25.7373 53.6232 25.6955 53.617 26.1134C53.6108 26.788 53.6232 27.4626 53.6108 28.1373C53.6046 28.3462 53.6729 28.4059 53.8902 28.4C55.6909 28.394 57.4916 28.4 59.2861 28.388C59.5469 28.388 59.6587 28.4358 59.6338 28.7104C59.609 29.0149 59.609 29.3253 59.6338 29.6358C59.6525 29.8746 59.5717 29.9462 59.3234 29.9403C58.423 29.9283 57.5227 29.9343 56.6223 29.9343C55.188 29.9343 53.7474 29.9283 52.3131 29.9403C52.0833 29.9403 51.9902 29.8925 51.9964 29.6477C52.0088 27.9223 52.0088 26.191 51.9964 24.4597C51.9964 24.2388 52.0523 24.1731 52.2882 24.1731C53.4618 24.191 54.6416 24.185 55.8213 24.185Z" fill="black"/>
<path d="M55.7841 21.6179C54.6168 21.6179 53.4494 21.6119 52.2759 21.6239C52.0399 21.6239 51.9716 21.5582 51.984 21.3373C52.0027 21.009 52.0089 20.6806 51.984 20.3522C51.9654 20.1015 52.071 20.0597 52.3007 20.0597C54.4615 20.0657 56.6224 20.0597 58.7832 20.0657C59.0502 20.0657 59.3918 19.9522 59.5594 20.1194C59.7271 20.2866 59.6091 20.609 59.6153 20.8657C59.6215 21.6119 59.6153 21.6119 58.8515 21.6119C57.8332 21.6179 56.8087 21.6179 55.7841 21.6179Z" fill="#020202"/>
<path d="M46.5881 25.0565C46.4205 24.9849 46.2528 24.9073 46.0417 24.8118C46.2156 24.6983 46.3584 24.6028 46.5012 24.5013C47.7803 23.5939 47.799 21.6715 46.5385 20.7401C46.0293 20.364 45.4456 20.167 44.8247 20.1252C43.1109 19.9998 41.3972 20.1013 39.6772 20.0655C39.5095 20.0595 39.4661 20.1312 39.4723 20.2804C39.4785 20.6267 39.4971 20.9789 39.4661 21.3252C39.4474 21.576 39.5468 21.6177 39.7765 21.6177C41.1488 21.6118 42.5273 21.6177 43.8995 21.6118C44.1293 21.6118 44.3528 21.6416 44.5763 21.6834C45.2407 21.8207 45.6319 22.2446 45.6567 22.8476C45.6816 23.4685 45.3401 23.9043 44.6881 24.0954C44.3404 24.1968 43.9802 24.2327 43.6201 24.2327C42.3472 24.2327 41.0743 24.2386 39.8076 24.2267C39.5654 24.2267 39.4661 24.2625 39.4723 24.5312C39.4847 26.2386 39.4847 27.9461 39.4723 29.6536C39.4723 29.8685 39.522 29.9461 39.7641 29.9461C41.3164 29.9342 42.8688 29.9401 44.4149 29.9342C44.862 29.9342 45.3028 29.8924 45.7375 29.7849C46.6751 29.5461 47.4947 29.1342 47.8486 28.2088C48.2771 27.0685 48.0722 25.7013 46.5881 25.0565ZM45.4829 28.173C45.1786 28.3103 44.8557 28.3879 44.5267 28.3939C44.0237 28.4058 43.5145 28.3939 43.0054 28.3939C43.0054 28.3998 43.0054 28.3998 43.0054 28.4058C42.5086 28.4058 42.0119 28.3998 41.5151 28.4118C41.3226 28.4177 41.2419 28.3819 41.2481 28.173C41.2606 27.4267 41.2606 26.6864 41.2481 25.9401C41.2481 25.761 41.2978 25.6954 41.4903 25.7013C42.5148 25.7133 43.5332 25.7133 44.5577 25.7252C44.8682 25.7312 45.1724 25.7968 45.458 25.9222C45.9424 26.1371 46.2156 26.4894 46.2218 27.0148C46.2342 27.5521 46.0045 27.9461 45.4829 28.173Z" fill="#010101"/>
</g>
<defs>
<clipPath id="clip0">
<rect width="62" height="10" fill="white" transform="translate(10.4502 20)"/>
</clipPath>
</defs>
</svg>
