<svg width="174" height="50" viewBox="0 0 174 50" fill="none" xmlns="http://www.w3.org/2000/svg">
<g clip-path="url(#clip0)">
<path d="M22.1544 20.2964C23.3086 21.5696 24.133 22.9894 24.4903 24.6474C24.5727 25.0413 24.6185 25.4352 24.6643 25.8382C24.7009 26.1222 24.7193 26.4062 24.7101 26.681C24.6643 27.7252 24.4445 28.7237 24.0048 29.6764C23.272 31.2611 22.1453 32.5252 20.6705 33.4595C19.7911 34.0183 18.8293 34.3755 17.785 34.5587C17.1072 34.6778 16.4934 34.5221 15.8889 34.3297C13.7271 33.6519 12.1057 32.2595 10.9882 30.3084C10.2187 28.971 9.88897 27.5146 10.0172 25.9573C10.0997 24.9864 10.2829 24.052 10.6401 23.1543C11.0065 22.2291 11.5378 21.3956 12.1699 20.6261C12.9027 19.7376 13.7454 18.959 14.579 18.1712C15.2751 17.5117 15.9805 16.8613 16.5301 16.0735C16.7499 15.7621 16.924 15.4323 17.0889 15.0842C17.0156 15.4323 16.8599 15.7346 16.6858 16.0369C16.182 16.8979 15.5316 17.6491 14.8904 18.4002C13.9469 19.4994 13.0675 20.6353 12.4355 21.9452C12.0141 22.8154 11.721 23.7314 11.5744 24.6932C11.4279 25.6367 11.3729 26.5802 11.4737 27.5329C11.5836 28.5863 11.8767 29.5939 12.3439 30.5374C12.3714 30.5924 12.3897 30.6657 12.4721 30.684C12.5363 30.6107 12.4813 30.5282 12.4538 30.4641C12.005 29.1909 11.9225 27.8901 12.0691 26.5619C12.2798 24.6199 13.0401 22.907 14.1576 21.3406C14.9454 20.2322 15.898 19.2521 16.7408 18.1804C17.2079 17.585 17.6385 16.9712 17.8858 16.2292C17.9591 16.3117 17.9224 16.3758 17.8949 16.4491C17.6476 17.1911 17.2354 17.8506 16.8049 18.501C16.0812 19.591 15.3393 20.6719 14.7805 21.8627C13.9011 23.7314 13.4798 25.6917 13.5256 27.7527C13.5439 28.5771 13.6721 29.3832 13.9103 30.1985C14.0019 30.116 13.9652 30.0336 13.9652 29.9603C13.8462 27.6794 14.35 25.536 15.3118 23.4749C15.9072 22.22 16.6675 21.075 17.4369 19.9208C17.9407 19.1697 18.4262 18.4185 18.6919 17.5483C18.8201 17.1361 18.8842 16.7147 18.8842 16.2842C18.8934 16.5224 18.9392 16.7605 18.9209 16.9987C18.8384 17.7498 18.582 18.4552 18.2797 19.1422C17.7942 20.2231 17.2537 21.2765 16.8232 22.3757C16.4018 23.4658 16.0996 24.5925 15.8797 25.7375C15.6965 26.7085 15.5866 27.6886 15.6049 28.6779C15.6141 29.1267 15.6599 29.5848 15.6874 30.0336C15.6874 30.0886 15.6874 30.1527 15.7606 30.1435C15.8431 30.1344 15.8064 30.0519 15.8156 29.997C16.0446 28.4397 16.3744 26.9008 16.8873 25.4077C17.4553 23.7772 18.1698 22.2108 18.9026 20.6536C19.2598 19.9025 19.5621 19.133 19.6812 18.2994C19.727 17.9697 19.727 17.6491 19.7178 17.3376C19.8644 17.7224 19.9102 18.4002 19.8461 18.9681C19.727 20.0216 19.3972 21.0292 19.0858 22.0368C18.6369 23.5024 18.298 24.9864 18.0232 26.4886C17.8125 27.6245 17.6659 28.7603 17.6018 29.9145C17.5835 30.171 17.6018 30.4366 17.6018 30.7206C17.7026 30.684 17.7026 30.6015 17.7117 30.5374C18.2247 28.6962 18.7743 26.8642 19.2965 25.023C19.6629 23.7314 20.0659 22.4582 20.3682 21.1574C20.5789 20.2322 20.7071 19.3071 20.5331 18.3544C20.6613 18.5193 20.817 19.0139 20.8995 19.4261C21.0735 20.3971 21.046 21.3773 20.9636 22.3574C20.872 23.5024 20.7163 24.6474 20.5056 25.7833C20.3773 26.5069 20.1667 27.2123 20.0201 27.9268C19.7819 29.0535 19.5621 30.1802 19.3239 31.3069C19.3148 31.3618 19.2598 31.4351 19.3239 31.4626C19.4155 31.4992 19.4247 31.3985 19.4522 31.3527C19.8919 30.4916 20.2216 29.5848 20.5331 28.6779C21.0735 27.084 21.3392 25.4352 21.5132 23.7589C21.614 22.7879 21.6781 21.8261 21.6048 20.846C21.5682 20.3971 21.4949 19.9483 21.3758 19.5086C21.3666 19.4719 21.3666 19.4445 21.3758 19.3987C21.7605 19.9941 22.0445 20.6444 22.246 21.3223C22.6491 22.7146 22.704 24.1345 22.6124 25.5726C22.5666 26.2963 22.4933 27.0107 22.3559 27.7252C22.072 29.2275 21.5407 30.6473 20.817 31.9847C20.7987 32.0122 20.7896 32.0305 20.7712 32.058C20.7438 32.1038 20.6888 32.1679 20.7438 32.2137C20.7987 32.2687 20.8445 32.1954 20.8812 32.1588C21.2842 31.774 21.6414 31.3435 21.9437 30.8763C22.6674 29.7588 23.0155 28.5222 23.1162 27.2031C23.2262 25.7008 23.1712 24.2077 22.9056 22.7238C22.7773 21.8994 22.5758 21.0841 22.1544 20.2964Z" fill="#272564"/>
<path d="M60.5083 20.0859C60.8014 20.1775 61.0396 20.2324 61.2594 20.3057C62.2396 20.663 62.7251 21.3774 62.6976 22.4217C62.6609 23.869 61.7449 24.8308 60.2335 25.0049C59.9679 25.0323 59.693 25.0507 59.4274 25.0507C58.4198 25.0507 57.4213 25.0415 56.4137 25.0507C56.2213 25.0507 56.1572 25.014 56.1572 24.8033C56.1664 22.6965 56.1664 20.5897 56.1664 18.4828C56.1664 17.6126 56.1755 16.7424 56.1664 15.8722C56.1664 15.6982 56.1939 15.634 56.3862 15.634C57.4122 15.6432 58.4381 15.634 59.464 15.6524C59.9404 15.6615 60.4075 15.7348 60.8655 15.8814C62.0747 16.2478 62.4869 17.1455 62.3678 18.2722C62.2762 19.179 61.7358 19.7286 60.8655 19.9851C60.8197 20.0034 60.7648 20.0126 60.719 20.0217C60.664 20.0492 60.6182 20.0584 60.5083 20.0859ZM57.2564 22.3576C57.2564 22.8614 57.2656 23.3652 57.2564 23.869C57.2473 24.0614 57.2931 24.1347 57.5038 24.1255C58.0167 24.1072 58.5297 24.1255 59.0427 24.1163C59.3816 24.1163 59.7297 24.098 60.0686 24.0339C60.893 23.8782 61.3602 23.4385 61.4976 22.669C61.6716 21.6706 61.232 20.9652 60.2701 20.7179C60.1602 20.6904 60.0595 20.6721 59.9495 20.6538C59.1068 20.5439 58.2549 20.608 57.4122 20.5897C57.2839 20.5897 57.2748 20.6538 57.2748 20.7546C57.2656 21.295 57.2564 21.8263 57.2564 22.3576ZM57.2564 18.1256C57.2564 18.5836 57.2564 19.0508 57.2564 19.5088C57.2564 19.6004 57.2473 19.6828 57.3847 19.6828C58.2183 19.6645 59.0518 19.7286 59.8854 19.6095C60.3892 19.5363 60.8564 19.3714 61.0945 18.8492C61.5526 17.8325 61.0946 16.9348 60.0045 16.7058C59.9404 16.6875 59.8762 16.6783 59.8121 16.6691C59.0152 16.55 58.2091 16.605 57.403 16.5867C57.2564 16.5867 57.2564 16.6691 57.2564 16.7699C57.2656 17.2187 57.2564 17.6676 57.2564 18.1256Z" fill="#262463"/>
<path d="M81.046 20.3328C81.0368 21.1023 80.9544 21.8626 80.6796 22.5954C80.075 24.1892 78.7285 25.1511 77.0155 25.1877C76.4018 25.206 75.7972 25.1694 75.211 24.9953C74.0201 24.6381 73.1957 23.8686 72.7744 22.7145C72.2064 21.1481 72.1881 19.5542 72.7652 17.997C73.3331 16.4764 74.4965 15.6978 76.0903 15.5329C76.8231 15.4596 77.556 15.4871 78.2613 15.7253C79.672 16.2016 80.4689 17.2275 80.8445 18.6199C80.991 19.1786 81.0368 19.7466 81.046 20.3328ZM79.8735 20.2779C79.8735 19.8382 79.8368 19.3985 79.7452 18.9771C79.5529 18.0703 79.159 17.2916 78.2979 16.8336C77.73 16.5314 77.1163 16.4764 76.4842 16.4947C75.211 16.5222 74.2033 17.255 73.8186 18.4641C73.4247 19.6824 73.4339 20.9099 73.782 22.1282C74.011 22.9526 74.4965 23.5938 75.3026 23.9511C75.8613 24.1984 76.4476 24.2534 77.043 24.2076C78.2796 24.1251 79.1407 23.5206 79.5712 22.3389C79.8094 21.6794 79.8735 20.9832 79.8735 20.2779Z" fill="#272564"/>
<path d="M82.6393 20.4155C82.6302 19.5178 82.7309 18.7209 83.0424 17.9606C83.6469 16.4583 84.792 15.6888 86.3767 15.5331C87.1461 15.4598 87.9156 15.4965 88.6484 15.7621C89.7751 16.1743 90.5445 16.9713 90.9384 18.0888C91.4606 19.5727 91.4697 21.0933 90.9384 22.5773C90.3705 24.1895 88.9782 25.1421 87.2652 25.1788C86.395 25.1971 85.5523 25.1146 84.7736 24.7024C83.6286 24.0887 83.0424 23.0902 82.7767 21.8628C82.676 21.359 82.6302 20.846 82.6393 20.4155ZM83.8027 20.3788C83.8118 20.791 83.8301 21.2307 83.9218 21.6704C84.1233 22.6048 84.5172 23.4108 85.4057 23.878C85.9828 24.1803 86.6057 24.2353 87.2377 24.2169C88.511 24.1711 89.4545 23.4841 89.8484 22.275C90.2514 21.0292 90.2423 19.7743 89.885 18.5193C89.6468 17.6949 89.1522 17.0629 88.3369 16.7239C87.8148 16.5133 87.2744 16.4583 86.7248 16.4949C85.479 16.5682 84.5813 17.1545 84.1233 18.3361C83.876 18.9865 83.8118 19.6552 83.8027 20.3788Z" fill="#272564"/>
<path d="M146.339 20.3515C146.33 21.1485 146.239 21.9271 145.936 22.669C145.323 24.2263 143.958 25.1514 142.282 25.1881C141.585 25.2064 140.889 25.1514 140.23 24.9041C139.176 24.5102 138.443 23.7683 138.059 22.7148C137.5 21.1851 137.482 19.6187 138.022 18.0798C138.572 16.5226 139.735 15.7073 141.356 15.5333C142.043 15.46 142.73 15.4783 143.399 15.6798C144.856 16.1104 145.698 17.118 146.101 18.5286C146.285 19.1241 146.339 19.7378 146.339 20.3515ZM145.158 20.2966C145.176 19.8569 145.13 19.3714 145.02 18.8951C144.819 18.0157 144.416 17.2645 143.582 16.8249C143.005 16.5226 142.382 16.4676 141.75 16.4951C140.477 16.5409 139.515 17.2462 139.121 18.4462C138.718 19.6828 138.727 20.9378 139.094 22.1744C139.387 23.1637 140.028 23.8415 141.054 24.1072C141.466 24.2171 141.897 24.2354 142.318 24.2079C143.555 24.1255 144.425 23.5301 144.856 22.3484C145.094 21.7072 145.167 21.0385 145.158 20.2966Z" fill="#272564"/>
<path d="M115.46 25.0505C115.03 25.0505 114.636 25.0505 114.242 25.0505C114.123 25.0505 114.104 24.9589 114.059 24.8857C113.372 23.7132 112.685 22.5407 112.007 21.3682C111.906 21.1941 111.796 21.13 111.595 21.1392C111.1 21.1575 110.596 21.1483 110.101 21.1392C109.955 21.1392 109.918 21.185 109.927 21.3224C109.937 22.4949 109.927 23.6582 109.937 24.8307C109.937 24.9956 109.909 25.0597 109.726 25.0505C109.469 25.0322 109.213 25.0414 108.956 25.0505C108.856 25.0505 108.81 25.0231 108.819 24.9131C108.819 24.8765 108.819 24.8399 108.819 24.8032C108.819 21.8353 108.819 18.8674 108.819 15.8996C108.819 15.7072 108.856 15.6431 109.066 15.6431C110.028 15.6614 110.981 15.6431 111.943 15.6614C112.327 15.6705 112.712 15.7347 113.088 15.8537C114.205 16.2018 114.782 16.9896 114.801 18.1713C114.819 19.472 114.306 20.2689 113.088 20.7636C112.932 20.8277 112.941 20.8735 113.014 21.0018C113.802 22.2933 114.581 23.5849 115.369 24.8765C115.396 24.9223 115.414 24.9681 115.46 25.0505ZM109.937 18.3911C109.937 18.9407 109.937 19.4903 109.937 20.0399C109.937 20.159 109.964 20.2048 110.092 20.2048C110.688 20.1957 111.283 20.2048 111.869 20.1773C112.969 20.1224 113.573 19.5545 113.656 18.5377C113.738 17.5026 113.307 16.898 112.3 16.6965C111.558 16.5408 110.798 16.6232 110.046 16.6049C109.909 16.6049 109.946 16.6965 109.946 16.7698C109.937 17.3102 109.937 17.8507 109.937 18.3911Z" fill="#272564"/>
<path d="M136.648 25.0507C136.245 25.0507 135.887 25.0415 135.53 25.0507C135.384 25.0598 135.31 25.0049 135.237 24.8858C134.55 23.695 133.854 22.5133 133.167 21.3225C133.084 21.1851 133.011 21.1301 132.846 21.1301C132.324 21.1393 131.802 21.1393 131.289 21.1301C131.142 21.1301 131.106 21.1759 131.106 21.3133C131.115 22.4858 131.106 23.6492 131.115 24.8217C131.115 24.9865 131.087 25.0507 130.904 25.0415C130.648 25.0232 130.391 25.0323 130.135 25.0415C130.034 25.0415 129.979 25.014 129.997 24.9041C130.007 24.8675 129.997 24.8308 129.997 24.7942C129.997 21.8263 129.997 18.8584 129.988 15.8905C129.988 15.6707 130.052 15.634 130.254 15.634C131.207 15.6432 132.159 15.634 133.112 15.6524C133.57 15.6615 134.028 15.7531 134.458 15.9088C135.283 16.2203 135.787 16.7974 135.924 17.6676C136.052 18.4645 135.997 19.2248 135.475 19.9027C135.173 20.2966 134.77 20.553 134.312 20.7362C134.129 20.8095 134.101 20.8553 134.211 21.0294C134.981 22.2751 135.732 23.5392 136.492 24.7942C136.538 24.8675 136.584 24.9499 136.648 25.0507ZM131.106 18.4004C131.106 18.9408 131.106 19.4813 131.106 20.0217C131.106 20.1042 131.078 20.2049 131.225 20.2049C131.949 20.1866 132.672 20.2508 133.396 20.1317C134.202 19.9943 134.678 19.5637 134.788 18.7943C134.962 17.6676 134.614 16.9165 133.487 16.6966C132.736 16.55 131.967 16.6142 131.207 16.605C131.069 16.605 131.106 16.6966 131.106 16.7791C131.106 17.3195 131.106 17.86 131.106 18.4004Z" fill="#272564"/>
<path d="M127.754 22.4309C127.754 23.1362 127.754 23.8324 127.754 24.5377C127.754 24.6202 127.772 24.7026 127.653 24.7392C126.205 25.1606 124.74 25.353 123.256 25.0598C121.543 24.7301 120.517 23.64 120.105 21.9729C119.83 20.8462 119.821 19.7103 120.169 18.5928C120.691 16.9165 121.864 15.9455 123.558 15.6249C124.877 15.3684 126.178 15.4966 127.442 15.9821C127.579 16.0371 127.644 16.0829 127.552 16.2386C127.442 16.4401 127.35 16.66 127.268 16.8798C127.213 17.0172 127.158 17.0264 127.03 16.9714C126.26 16.66 125.454 16.4859 124.612 16.4951C122.66 16.5043 121.268 17.7958 121.112 19.7378C121.057 20.4706 121.076 21.1943 121.286 21.9087C121.662 23.2095 122.624 24.0156 123.98 24.1713C124.822 24.2721 125.656 24.2079 126.489 24.0339C126.618 24.0064 126.663 23.9515 126.663 23.8141C126.654 22.9622 126.654 22.1194 126.663 21.2675C126.663 21.121 126.627 21.0843 126.48 21.0843C125.894 21.0935 125.308 21.0843 124.722 21.0935C124.575 21.0935 124.538 21.0477 124.547 20.9103C124.557 20.6904 124.557 20.4706 124.547 20.2508C124.547 20.15 124.575 20.1134 124.685 20.1134C125.665 20.1134 126.645 20.1225 127.625 20.1134C127.772 20.1134 127.763 20.1866 127.763 20.2874C127.754 21.0111 127.754 21.7164 127.754 22.4309Z" fill="#262463"/>
<path d="M71.3451 25.0505C70.9421 25.0505 70.5848 25.0414 70.2276 25.0505C70.081 25.0597 70.0077 25.0047 69.9344 24.8857C69.2474 23.6948 68.5513 22.5132 67.8642 21.3224C67.7818 21.185 67.6994 21.13 67.5436 21.1392C67.0215 21.1483 66.4994 21.1483 65.9864 21.1392C65.8398 21.1392 65.8032 21.1758 65.8032 21.3224C65.8124 22.4949 65.8032 23.6582 65.8124 24.8307C65.8124 25.0139 65.7666 25.0689 65.5834 25.0505C65.336 25.0322 65.0887 25.0414 64.8414 25.0505C64.7406 25.0505 64.6857 25.0231 64.704 24.9131C64.7131 24.8765 64.704 24.8399 64.704 24.8032C64.704 21.8262 64.704 18.8491 64.6948 15.8812C64.6948 15.6889 64.7406 15.6431 64.933 15.6431C65.8948 15.6522 66.8475 15.6431 67.8093 15.6614C68.2123 15.6705 68.6062 15.7438 68.9909 15.8629C70.0718 16.2202 70.6581 16.9988 70.6764 18.1346C70.6947 19.472 70.1909 20.2415 68.9451 20.7636C68.7803 20.8277 68.8169 20.8827 68.881 20.9926C69.6413 22.2384 70.3924 23.4933 71.1527 24.7391C71.226 24.8307 71.2718 24.9315 71.3451 25.0505ZM65.8124 18.382C65.8124 18.9407 65.8124 19.4903 65.8124 20.0491C65.8124 20.1315 65.794 20.2048 65.9314 20.2048C66.6459 20.1865 67.3696 20.2506 68.0749 20.1315C68.7894 20.0125 69.3115 19.6552 69.4856 18.9132C69.5405 18.6842 69.5497 18.4552 69.5405 18.2171C69.5131 17.4659 69.1467 16.9713 68.4597 16.7698C68.3222 16.724 68.1757 16.6965 68.0291 16.6782C67.3421 16.5774 66.6459 16.6232 65.9498 16.6049C65.8215 16.6049 65.8124 16.6598 65.8124 16.7606C65.8124 17.3011 65.8124 17.8415 65.8124 18.382Z" fill="#262463"/>
<path d="M133.46 27.9908C133.424 28.1831 133.46 28.3663 133.469 28.5587C133.543 30.4915 133.488 32.4334 133.506 34.3662C133.506 34.7967 133.506 34.7967 133.076 34.7967C132.645 34.7967 132.645 34.7967 132.645 34.3571C132.645 31.9846 132.645 29.6213 132.645 27.2488C132.645 27.0656 132.682 27.0106 132.874 27.0198C133.195 27.0381 133.515 27.0289 133.836 27.0198C133.982 27.0106 134.047 27.0656 134.101 27.203C134.862 29.2091 135.64 31.206 136.41 33.2029C136.437 33.2762 136.446 33.3586 136.529 33.4227C136.859 32.58 137.188 31.7373 137.509 30.8945C137.985 29.6671 138.471 28.4396 138.938 27.203C138.993 27.0564 139.066 27.0106 139.222 27.0106C139.533 27.0198 139.854 27.0289 140.166 27.0106C140.349 27.0015 140.376 27.0656 140.376 27.2305C140.367 29.5022 140.376 31.7831 140.376 34.0548C140.376 34.2471 140.367 34.4395 140.376 34.6227C140.385 34.7418 140.358 34.7967 140.22 34.7876C140.019 34.7784 139.827 34.7784 139.625 34.7876C139.488 34.7967 139.451 34.7418 139.46 34.6135C139.488 32.4243 139.396 30.2258 139.524 28.0366C139.524 28.0182 139.524 27.9908 139.524 27.9633C139.46 27.9908 139.46 28.0457 139.442 28.0915C138.608 30.2442 137.766 32.4059 136.941 34.5586C136.868 34.7418 136.795 34.7967 136.593 34.7876C136.098 34.7693 136.098 34.7784 135.924 34.3296C135.137 32.2685 134.34 30.2075 133.552 28.1373C133.524 28.1007 133.524 28.0274 133.46 27.9908C133.451 27.9816 133.442 27.9633 133.442 27.945C133.433 27.9541 133.424 27.9633 133.424 27.9724C133.424 27.9816 133.433 28.0091 133.46 27.9908Z" fill="#262463"/>
<path d="M87.3756 33.4595C87.9069 32.0946 88.4198 30.7664 88.9328 29.4382C89.2259 28.6871 89.5191 27.9451 89.803 27.194C89.8488 27.0566 89.9129 27.0199 90.0503 27.0199C90.3801 27.0291 90.7099 27.0382 91.0396 27.0199C91.232 27.0108 91.2228 27.1024 91.2228 27.2398C91.2228 29.484 91.2228 31.7282 91.2228 33.9725C91.2228 34.0274 91.2228 34.0732 91.2228 34.1282C91.2137 34.348 91.2503 34.5587 91.1954 34.7786C90.9297 34.7877 90.6732 34.7877 90.4076 34.7969C90.2702 34.7969 90.3068 34.6961 90.3068 34.6228C90.3068 33.9542 90.2977 33.2763 90.3068 32.6076C90.316 31.2061 90.2702 29.7954 90.3526 28.3939C90.3618 28.2565 90.3709 28.1191 90.3801 27.9268C90.2427 28.1466 90.1877 28.3481 90.1145 28.5313C89.3267 30.5466 88.5481 32.571 87.7695 34.5954C87.7145 34.7511 87.6412 34.806 87.4672 34.7969C86.945 34.7877 86.9451 34.7969 86.7527 34.3114C85.9649 32.2687 85.1863 30.226 84.3985 28.1833C84.371 28.1191 84.3619 28.0459 84.3344 28.0184C84.3344 28.4123 84.3344 28.8245 84.3344 29.2458C84.3344 31.0321 84.3344 32.8183 84.3436 34.5954C84.3436 34.7694 84.2978 34.8152 84.1329 34.7969C83.9222 34.7694 83.6474 34.8885 83.5283 34.7511C83.4275 34.632 83.5008 34.3572 83.5008 34.1557C83.5008 31.8565 83.5008 29.5481 83.4917 27.2489C83.4917 27.0657 83.5375 27.0199 83.7207 27.0291C84.0413 27.0474 84.3619 27.0474 84.6825 27.0291C84.8474 27.0199 84.8932 27.1024 84.939 27.2306C85.6993 29.2275 86.4687 31.2153 87.2382 33.2122C87.2931 33.2763 87.3298 33.3496 87.3756 33.4595Z" fill="#262463"/>
<path d="M42.8202 20.3513C42.8202 21.8536 42.8202 23.3467 42.8202 24.849C42.8202 25.0138 42.7744 25.0596 42.6187 25.0505C42.3805 25.0322 42.1332 25.0322 41.8951 25.0505C41.7393 25.0596 41.721 25.0047 41.721 24.8673C41.7302 23.5391 41.721 22.2017 41.7302 20.8734C41.7302 20.6536 41.6661 20.617 41.4645 20.617C39.9806 20.6261 38.4875 20.6261 37.0035 20.617C36.8203 20.617 36.7745 20.6628 36.7745 20.846C36.7837 22.1742 36.7745 23.4933 36.7837 24.8215C36.7837 24.9955 36.7562 25.0688 36.5638 25.0505C36.3348 25.0322 36.0967 25.0322 35.8585 25.0505C35.7028 25.0596 35.657 25.0138 35.6662 24.8581C35.6753 24.0429 35.6662 23.2184 35.6662 22.4032C35.6662 20.2322 35.6662 18.0613 35.6662 15.8903C35.6662 15.698 35.7028 15.6338 35.9043 15.6522C36.1333 15.6705 36.3623 15.6705 36.5822 15.6522C36.7562 15.643 36.7837 15.698 36.7837 15.8628C36.7745 17.0445 36.7837 18.2353 36.7745 19.417C36.7745 19.6185 36.8295 19.6643 37.031 19.6643C38.515 19.6551 40.0081 19.6551 41.492 19.6643C41.6752 19.6643 41.7393 19.6368 41.7393 19.4353C41.7302 18.2445 41.7393 17.0537 41.7302 15.8628C41.7302 15.698 41.776 15.6522 41.9409 15.6613C42.1607 15.6796 42.3805 15.6796 42.6004 15.6613C42.8111 15.643 42.8477 15.7254 42.8386 15.9178C42.8202 17.3834 42.8202 18.8674 42.8202 20.3513Z" fill="#262463"/>
<path d="M100.208 25.0508C99.7776 25.0508 99.3929 25.0416 99.0081 25.0508C98.8707 25.0508 98.8341 24.95 98.7791 24.8767C97.7532 23.521 96.7272 22.1562 95.7013 20.7913C95.4723 20.489 95.4815 20.489 95.1883 20.7455C95.0051 20.9104 94.8219 21.0844 94.6296 21.2402C94.5288 21.3226 94.5013 21.4142 94.5013 21.5424C94.5105 22.6417 94.5013 23.7409 94.5105 24.8309C94.5105 25.005 94.4647 25.0599 94.2906 25.0416C94.0525 25.0233 93.8052 25.0233 93.567 25.0416C93.4113 25.0508 93.3746 24.9958 93.393 24.8584C93.4021 24.8218 93.393 24.7851 93.393 24.7485C93.393 21.7898 93.3929 18.8402 93.3838 15.8815C93.3838 15.6799 93.4387 15.6158 93.6403 15.6341C93.8418 15.6525 94.0525 15.6525 94.254 15.6341C94.4464 15.6158 94.5105 15.6708 94.5105 15.8815C94.5013 17.2555 94.5013 18.6295 94.5105 20.0035C94.5105 20.0768 94.4922 20.1501 94.538 20.2325C94.8494 19.8936 95.1517 19.5639 95.454 19.2341C96.5074 18.0799 97.57 16.9257 98.6234 15.7716C98.715 15.6708 98.8066 15.6341 98.944 15.6341C99.3012 15.6433 99.6585 15.6341 100.062 15.6341C99.8509 15.8723 99.6585 16.0738 99.4661 16.2845C98.4494 17.3746 97.4417 18.4738 96.4158 19.5639C96.3059 19.6829 96.2967 19.7562 96.3975 19.8936C97.6341 21.5608 98.8707 23.2279 100.098 24.9042C100.135 24.9409 100.153 24.9775 100.208 25.0508Z" fill="#272564"/>
<path d="M155.527 19.014C155.527 20.0125 155.554 21.0201 155.518 22.0186C155.463 23.7407 154.299 24.959 152.587 25.1513C151.918 25.2246 151.258 25.2155 150.608 25.0414C149.325 24.6842 148.483 23.6674 148.355 22.3392C148.327 22.0735 148.318 21.817 148.318 21.5514C148.318 19.6644 148.318 17.7774 148.318 15.8904C148.318 15.6981 148.364 15.6339 148.556 15.6523C148.767 15.6706 148.977 15.6706 149.188 15.6523C149.371 15.6339 149.417 15.6889 149.417 15.8721C149.408 17.8141 149.408 19.7468 149.417 21.6888C149.417 22.0186 149.445 22.3483 149.536 22.6598C149.729 23.3468 150.159 23.8231 150.837 24.0521C151.515 24.2811 152.202 24.2903 152.889 24.0979C153.814 23.8414 154.382 23.0995 154.409 22.0827C154.437 21.2583 154.419 20.4339 154.419 19.6003C154.419 18.3545 154.419 17.1179 154.419 15.8721C154.419 15.7072 154.446 15.6339 154.629 15.6523C154.858 15.6706 155.096 15.6706 155.335 15.6523C155.499 15.6431 155.545 15.6889 155.545 15.8538C155.536 16.9072 155.545 17.9606 155.545 19.014C155.545 19.014 155.536 19.014 155.527 19.014Z" fill="#272564"/>
<path d="M45.3945 20.3605C45.3945 18.8583 45.3945 17.3652 45.3945 15.8629C45.3945 15.6889 45.4403 15.6431 45.6144 15.6431C47.2266 15.6522 48.8387 15.6522 50.4509 15.6431C50.625 15.6431 50.6799 15.6889 50.6616 15.8629C50.6341 16.1102 50.7624 16.4308 50.6067 16.5774C50.4693 16.7148 50.1487 16.614 49.9105 16.614C48.8388 16.614 47.767 16.6232 46.7044 16.614C46.5487 16.614 46.5121 16.6507 46.5121 16.8064C46.5212 17.6858 46.5212 18.5652 46.5121 19.4354C46.5121 19.6003 46.5487 19.6552 46.7228 19.6552C47.8769 19.6461 49.0403 19.6552 50.1945 19.6461C50.3593 19.6461 50.4326 19.6735 50.4143 19.8567C50.396 20.0491 50.396 20.2415 50.4143 20.4247C50.4235 20.5804 50.3685 20.617 50.2219 20.617C49.0586 20.6079 47.8953 20.617 46.7319 20.6079C46.5579 20.6079 46.5121 20.6537 46.5121 20.8186C46.5212 21.8353 46.5212 22.8521 46.5121 23.8689C46.5121 24.0338 46.5579 24.0704 46.7228 24.0704C47.9685 24.0612 49.2143 24.0704 50.4601 24.0612C50.6158 24.0612 50.6891 24.0887 50.6708 24.2628C50.6525 24.4643 50.6525 24.675 50.6708 24.8765C50.6799 25.0231 50.625 25.0414 50.4967 25.0414C48.8662 25.0414 47.2266 25.0322 45.5961 25.0414C45.4403 25.0414 45.4037 24.9956 45.4037 24.849C45.3945 23.3559 45.3945 21.8628 45.3945 20.3605Z" fill="#262463"/>
<path d="M101.491 20.3331C101.491 18.8491 101.491 17.3652 101.491 15.8812C101.491 15.7072 101.518 15.6431 101.71 15.6431C103.313 15.6522 104.916 15.6522 106.519 15.6431C106.684 15.6431 106.758 15.6705 106.739 15.8537C106.721 16.0461 106.721 16.2385 106.739 16.4217C106.748 16.5774 106.693 16.614 106.547 16.614C105.31 16.6049 104.074 16.614 102.837 16.6049C102.654 16.6049 102.59 16.6324 102.59 16.8339C102.608 17.7041 102.599 18.5743 102.59 19.4445C102.59 19.6186 102.636 19.6461 102.8 19.6461C103.964 19.6369 105.127 19.6461 106.29 19.6369C106.455 19.6369 106.51 19.6735 106.492 19.8384C106.474 20.0216 106.474 20.2048 106.492 20.388C106.51 20.5804 106.428 20.6079 106.254 20.6079C105.1 20.5987 103.955 20.6079 102.8 20.5987C102.608 20.5987 102.581 20.6537 102.581 20.8277C102.59 21.8262 102.59 22.8155 102.581 23.8139C102.581 24.0063 102.617 24.0704 102.828 24.0704C104.055 24.0612 105.292 24.0704 106.519 24.0612C106.693 24.0612 106.748 24.0979 106.739 24.2719C106.721 24.4735 106.73 24.6841 106.739 24.8857C106.739 24.9956 106.712 25.0322 106.593 25.0322C104.935 25.0322 103.286 25.0231 101.628 25.0322C101.454 25.0322 101.491 24.9223 101.491 24.8307C101.491 23.4933 101.491 22.1559 101.491 20.8186C101.491 20.672 101.491 20.4979 101.491 20.3331Z" fill="#262463"/>
<path d="M158.018 20.3422C158.018 18.8583 158.028 17.3743 158.009 15.8904C158.009 15.6797 158.073 15.6431 158.266 15.6431C159.173 15.6522 160.079 15.6339 160.986 15.6614C161.573 15.6797 162.15 15.7988 162.681 16.0644C163.423 16.4308 163.826 17.0354 163.945 17.8415C164.018 18.2995 164.009 18.7575 163.89 19.2155C163.597 20.3422 162.8 20.9102 161.728 21.1941C160.959 21.3956 160.171 21.3682 159.392 21.3498C159.154 21.3407 159.108 21.414 159.118 21.6338C159.127 22.7055 159.118 23.7864 159.127 24.8582C159.127 25.0139 159.09 25.0597 158.934 25.0505C158.705 25.0322 158.467 25.0322 158.229 25.0505C158.028 25.0689 158.009 24.9864 158.009 24.8215C158.028 23.3284 158.018 21.8353 158.018 20.3422ZM159.127 18.5102C159.127 19.0873 159.127 19.6644 159.127 20.2415C159.127 20.3331 159.118 20.4063 159.255 20.4063C159.841 20.3972 160.428 20.4247 161.005 20.3422C161.481 20.2781 161.948 20.1682 162.315 19.8293C162.873 19.3071 162.928 18.6384 162.8 17.9423C162.681 17.2919 162.241 16.9255 161.628 16.7423C160.84 16.5133 160.034 16.5866 159.228 16.5774C159.09 16.5774 159.127 16.6782 159.127 16.7514C159.127 17.3469 159.127 17.9239 159.127 18.5102Z" fill="#262463"/>
<path d="M46.3473 30.7115C46.4847 30.7482 46.6312 30.7756 46.7687 30.8214C47.7579 31.1329 48.2251 31.8657 48.0786 32.8825C47.9412 33.9176 47.2175 34.6046 46.1183 34.7512C45.4587 34.8428 44.7901 34.7786 44.1214 34.797C43.7 34.8061 43.2695 34.797 42.8481 34.797C42.7199 34.797 42.6924 34.7603 42.6924 34.6412C42.6924 32.1588 42.6924 29.6673 42.6924 27.1849C42.6924 27.0841 42.6924 27.02 42.8298 27.0291C43.8282 27.0566 44.8175 26.9833 45.816 27.0749C46.1916 27.1116 46.5488 27.194 46.8969 27.3497C47.6114 27.6704 47.9686 28.4215 47.8221 29.2734C47.703 30.0062 47.2633 30.4367 46.5671 30.6382C46.4938 30.6566 46.4297 30.6749 46.3564 30.6932C46.3473 30.684 46.3473 30.7024 46.3473 30.7115ZM43.6084 32.571C43.6084 33.0016 43.6084 33.4321 43.6084 33.8626C43.6084 33.9634 43.6176 34.0275 43.7458 34.0275C44.3779 34.0183 45.0191 34.0458 45.6511 34C46.7137 33.9176 47.2267 33.2764 47.0893 32.2596C47.016 31.7008 46.6496 31.3344 45.9809 31.2062C45.2297 31.0596 44.4695 31.1329 43.7092 31.1146C43.5718 31.1146 43.6084 31.2062 43.6084 31.2795C43.6084 31.71 43.6084 32.1405 43.6084 32.571ZM43.6084 29.081C43.6084 29.4383 43.6176 29.7955 43.6084 30.1528C43.5992 30.3268 43.6634 30.3634 43.8191 30.3543C44.1946 30.3451 44.5702 30.3634 44.9366 30.3451C45.3122 30.336 45.6969 30.336 46.0633 30.226C46.4114 30.1253 46.6954 29.9329 46.7961 29.5757C47.016 28.8154 46.8603 28.0917 45.8618 27.8994C45.1473 27.762 44.4145 27.8352 43.6908 27.8078C43.5718 27.8078 43.5992 27.8902 43.5992 27.9635C43.6084 28.3299 43.6084 28.7055 43.6084 29.081Z" fill="#272564"/>
<path d="M107.573 28.3022C107.591 28.6961 107.619 29.0808 107.628 29.4656C107.674 30.4915 107.646 31.5266 107.646 32.5617C107.646 33.2487 107.646 33.9357 107.646 34.6227C107.646 34.7601 107.619 34.8151 107.472 34.8059C107.308 34.7876 107.133 34.7968 106.969 34.8059C106.822 34.8151 106.804 34.7601 106.804 34.6319C106.804 32.1495 106.804 29.6762 106.804 27.1938C106.804 27.0473 106.859 27.029 106.978 27.029C107.207 27.0381 107.436 27.0381 107.656 27.029C107.793 27.0198 107.866 27.0748 107.93 27.1847C109.268 29.2365 110.605 31.2793 111.943 33.3311C111.97 33.3769 112.007 33.4319 112.052 33.496C112.107 33.3403 112.08 33.1937 112.071 33.0655C111.998 31.9938 112.034 30.9129 112.025 29.8411C112.016 28.9617 112.025 28.0824 112.025 27.2122C112.025 27.0656 112.062 27.0198 112.208 27.029C112.391 27.0381 112.575 27.0381 112.758 27.029C112.859 27.029 112.895 27.0656 112.877 27.1572C112.877 27.1847 112.877 27.2122 112.877 27.2488C112.877 29.6946 112.877 32.1495 112.877 34.5952C112.877 34.7693 112.822 34.8242 112.657 34.8059C112.538 34.7968 112.419 34.7876 112.309 34.8059C111.943 34.8792 111.741 34.696 111.549 34.3937C110.285 32.4243 108.993 30.464 107.711 28.4946C107.692 28.4305 107.665 28.348 107.573 28.3022Z" fill="#262463"/>
<path d="M157.606 30.8854C157.606 29.6671 157.615 28.458 157.597 27.2397C157.597 27.0473 157.652 27.0107 157.826 27.0198C158.623 27.029 159.42 27.0107 160.217 27.029C161.362 27.0565 162.369 27.4046 163.102 28.3572C163.469 28.8335 163.67 29.3923 163.762 29.9877C163.872 30.7297 163.863 31.4808 163.661 32.2045C163.276 33.6426 162.305 34.4396 160.867 34.7144C160.345 34.8151 159.814 34.806 159.292 34.7968C158.797 34.7968 158.312 34.7876 157.817 34.7968C157.634 34.806 157.588 34.7602 157.588 34.5678C157.615 33.3403 157.606 32.1129 157.606 30.8854ZM158.531 30.9129C158.531 31.2335 158.531 31.5541 158.531 31.8747C158.531 32.5251 158.531 33.1755 158.531 33.8258C158.531 33.8991 158.486 34.009 158.641 34.009C159.328 33.9999 160.015 34.0548 160.693 33.8991C161.792 33.6518 162.498 33.0014 162.745 31.9022C162.892 31.2701 162.901 30.6289 162.773 29.9877C162.534 28.7694 161.811 28.0641 160.602 27.8717C159.979 27.771 159.347 27.8259 158.715 27.8076C158.541 27.7984 158.513 27.8626 158.513 28.0183C158.541 28.9801 158.531 29.9419 158.531 30.9129Z" fill="#272564"/>
<path d="M74.624 30.9036C74.624 30.1891 74.7065 29.4929 74.9996 28.8242C75.4942 27.7067 76.3736 27.093 77.5736 26.9372C78.2789 26.8456 78.9751 26.8731 79.6529 27.1296C80.6514 27.5143 81.2743 28.2563 81.5766 29.2639C81.9063 30.3631 81.9063 31.4898 81.5583 32.5891C81.1094 34.0272 79.9278 34.8791 78.4163 34.9066C77.8301 34.9157 77.2438 34.8699 76.6942 34.6501C75.5584 34.1829 74.9904 33.2852 74.7431 32.131C74.6515 31.728 74.624 31.3158 74.624 30.9036ZM80.8163 30.8578C80.8254 30.5097 80.7888 30.1158 80.7064 29.7311C80.5232 28.925 80.1476 28.2563 79.3415 27.9174C78.9385 27.7433 78.5079 27.7159 78.0774 27.725C76.9965 27.7433 76.1721 28.3021 75.8332 29.328C75.4851 30.3723 75.4942 31.444 75.8332 32.4883C76.0988 33.3035 76.6576 33.8348 77.5095 34.0272C77.9308 34.1188 78.3614 34.1188 78.7919 34.0547C79.6896 33.9081 80.2758 33.386 80.5781 32.5433C80.7705 32.012 80.8254 31.4624 80.8163 30.8578Z" fill="#272564"/>
<path d="M30.1704 20.8186C30.1704 19.4903 30.1704 18.1529 30.1704 16.8247C30.1704 16.6507 30.1246 16.6049 29.9506 16.614C29.0895 16.6232 28.2377 16.614 27.3766 16.6232C27.2209 16.6232 27.1751 16.5774 27.1842 16.4217C27.1934 16.2202 27.1934 16.0095 27.1842 15.8079C27.1751 15.6797 27.2209 15.6431 27.3491 15.6431C27.8254 15.6522 28.3018 15.6431 28.7781 15.6431C30.5277 15.6431 32.2773 15.6431 34.0269 15.6431C34.2009 15.6431 34.2742 15.6797 34.2559 15.8629C34.2376 16.0553 34.2376 16.2476 34.2559 16.4308C34.265 16.5866 34.2101 16.614 34.0727 16.614C33.2391 16.6049 32.4055 16.614 31.5719 16.614C31.288 16.614 31.288 16.614 31.288 16.9072C31.288 19.5361 31.288 22.1743 31.2971 24.8032C31.2971 25.0139 31.2422 25.0597 31.0407 25.0505C30.8208 25.0322 30.601 25.0322 30.3811 25.0505C30.1979 25.0689 30.1704 24.9956 30.1704 24.8307C30.1704 23.4933 30.1704 22.1559 30.1704 20.8186Z" fill="#272564"/>
<path d="M40.6309 29.8139C40.6309 30.5925 40.6309 31.3803 40.6309 32.1589C40.6309 33.6886 39.6141 34.7695 38.0843 34.8886C37.6263 34.9253 37.1775 34.9253 36.7286 34.8245C35.4829 34.5405 34.7042 33.597 34.6859 32.2963C34.6584 30.5925 34.6859 28.8887 34.6768 27.1849C34.6768 27.0567 34.7134 27.0201 34.8416 27.0292C35.0798 27.0384 35.4004 26.9468 35.547 27.0659C35.7027 27.1941 35.5928 27.5147 35.5928 27.7529C35.6019 29.2002 35.5928 30.6475 35.5928 32.0948C35.5928 32.4245 35.6294 32.7451 35.7668 33.0566C35.9592 33.4963 36.2798 33.7986 36.7286 33.9543C37.2782 34.1467 37.837 34.1558 38.3958 34.0184C39.2568 33.7986 39.724 33.1299 39.724 32.1223C39.724 30.5101 39.724 28.8887 39.724 27.2765C39.724 27.075 39.7698 27.0017 39.9713 27.0292C40.1912 27.0567 40.4751 26.9376 40.6034 27.075C40.7133 27.1941 40.64 27.4781 40.64 27.6887C40.6309 28.3941 40.6309 29.0994 40.6309 29.8139Z" fill="#262463"/>
<path d="M98.835 34.7969C99.1464 34.0183 99.4395 33.2671 99.7327 32.5252C100.438 30.7481 101.134 28.971 101.83 27.1939C101.894 27.0382 101.959 26.9833 102.133 26.9924C102.691 27.0016 102.691 26.9924 102.884 27.4871C103.809 29.8504 104.734 32.2137 105.668 34.5679C105.76 34.7969 105.76 34.7969 105.513 34.7969C105.339 34.7969 105.165 34.7877 104.981 34.7969C104.835 34.806 104.78 34.7511 104.734 34.6228C104.468 33.9175 104.184 33.2213 103.919 32.5252C103.864 32.3786 103.8 32.3236 103.635 32.3236C102.728 32.3328 101.821 32.3328 100.914 32.3236C100.777 32.3236 100.713 32.3603 100.667 32.4977C100.401 33.203 100.117 33.9083 99.8517 34.6228C99.7968 34.7694 99.7327 34.806 99.5861 34.806C99.3388 34.7877 99.1098 34.7969 98.835 34.7969ZM103.543 31.5084C103.14 30.3542 102.664 29.2458 102.297 28.0367C102.16 28.5496 102.014 28.9985 101.839 29.4382C101.592 30.0794 101.354 30.7206 101.107 31.3618C101.079 31.4259 101.006 31.5175 101.171 31.5175C101.949 31.5084 102.737 31.5084 103.543 31.5084Z" fill="#272564"/>
<path d="M28.1913 30.8855C28.1913 29.6672 28.1913 28.458 28.1821 27.2397C28.1821 27.0565 28.2371 27.0107 28.4111 27.0107C29.0889 27.0199 29.776 27.0107 30.4538 27.0199C30.8569 27.0199 31.2599 27.0749 31.6446 27.2031C32.7438 27.5512 33.1652 28.3298 33.1286 29.4015C33.0736 30.8763 32.0477 31.4901 30.9393 31.6733C30.3988 31.7649 29.8584 31.7465 29.318 31.7374C29.1256 31.7374 29.0889 31.7923 29.0981 31.9664C29.1073 32.8458 29.0981 33.7251 29.1073 34.5953C29.1073 34.7419 29.0798 34.806 28.9149 34.7877C28.6767 34.7602 28.3561 34.8885 28.2187 34.7328C28.0997 34.5953 28.1821 34.2839 28.1821 34.0549C28.1913 33.0106 28.1913 31.9481 28.1913 30.8855ZM29.1073 29.3741C29.1073 29.8504 29.1073 30.3267 29.1073 30.803C29.1073 30.8946 29.0981 30.9679 29.2355 30.9679C29.776 30.9588 30.3164 30.9771 30.8569 30.8763C31.2691 30.803 31.6629 30.6565 31.9286 30.2901C32.5881 29.3832 32.121 28.1374 31.0309 27.8901C30.4263 27.7527 29.8218 27.8077 29.2172 27.7985C29.0798 27.7985 29.1164 27.8993 29.1164 27.9634C29.1073 28.4397 29.1073 28.9069 29.1073 29.3741Z" fill="#272564"/>
<path d="M93.3477 30.8945C93.3477 29.6762 93.3477 28.4487 93.3477 27.2304C93.3477 27.0564 93.3935 27.0106 93.5675 27.0106C94.4286 27.0381 95.2988 26.9648 96.1598 27.0564C96.3888 27.0839 96.6178 27.1297 96.8468 27.203C97.9186 27.551 98.4499 28.4487 98.285 29.6212C98.1384 30.693 97.4606 31.3891 96.343 31.6273C95.7659 31.7464 95.1797 31.7372 94.5934 31.7372C94.2637 31.7372 94.2637 31.7372 94.2637 32.0762C94.2637 32.9189 94.2637 33.7616 94.2637 34.5952C94.2637 34.7509 94.2179 34.7967 94.0713 34.7876C93.8973 34.7784 93.7232 34.7784 93.5492 34.7876C93.3935 34.7967 93.3477 34.7509 93.3568 34.5952C93.366 33.8257 93.3568 33.0563 93.3568 32.296C93.3477 31.838 93.3477 31.3708 93.3477 30.8945ZM94.2545 29.3831C94.2545 29.8594 94.2545 30.3357 94.2545 30.8121C94.2545 30.8945 94.2362 30.9769 94.3644 30.9769C94.9873 30.9678 95.6102 30.9953 96.2148 30.8395C96.572 30.7479 96.8835 30.583 97.0942 30.2624C97.7079 29.3373 97.2407 28.1556 96.1598 27.9083C95.5644 27.7709 94.9507 27.8258 94.3461 27.8167C94.2087 27.8167 94.2454 27.9174 94.2454 27.9907C94.2545 28.4487 94.2545 28.9159 94.2545 29.3831Z" fill="#262463"/>
<path d="M151.561 30.913C151.561 29.6855 151.561 28.458 151.561 27.2306C151.561 27.0657 151.597 27.0291 151.762 27.0291C153.081 27.0382 154.4 27.0382 155.719 27.0291C155.893 27.0291 155.93 27.084 155.921 27.2397C155.902 27.4229 155.994 27.6703 155.884 27.7893C155.774 27.9084 155.527 27.826 155.335 27.826C154.446 27.826 153.557 27.8351 152.678 27.826C152.513 27.826 152.467 27.8718 152.467 28.0367C152.477 28.742 152.477 29.4382 152.467 30.1435C152.467 30.2992 152.504 30.345 152.66 30.3359C153.603 30.3267 154.547 30.3359 155.49 30.3267C155.646 30.3267 155.719 30.3542 155.701 30.5282C155.683 30.7206 155.783 30.9771 155.664 31.0962C155.545 31.2152 155.289 31.1328 155.096 31.1328C154.281 31.1328 153.466 31.1328 152.66 31.1328C152.522 31.1328 152.467 31.1603 152.467 31.316C152.477 32.1496 152.477 32.9832 152.467 33.8167C152.467 33.9724 152.522 33.9999 152.66 33.9908C153.667 33.9816 154.684 33.9908 155.692 33.9816C155.875 33.9816 155.939 34.0366 155.921 34.2106C155.902 34.3572 155.912 34.5037 155.921 34.6503C155.93 34.7694 155.884 34.7969 155.774 34.7969C154.419 34.7969 153.063 34.7877 151.707 34.7969C151.533 34.7969 151.57 34.6961 151.57 34.5953C151.561 33.3679 151.561 32.1404 151.561 30.913Z" fill="#262463"/>
<path d="M59.025 30.8948C59.0342 31.4352 59.0891 31.939 59.2632 32.4337C59.6387 33.4596 60.4998 34.0642 61.5898 34.0917C62.2219 34.11 62.8448 34.0184 63.4494 33.8443C63.6234 33.7985 63.66 33.8443 63.6417 34.0001C63.6326 34.0733 63.6417 34.1466 63.6417 34.2199C63.6417 34.623 63.6417 34.623 63.257 34.7237C62.3959 34.9344 61.5257 34.9894 60.6463 34.8062C59.5105 34.568 58.7319 33.881 58.3471 32.8001C57.9349 31.6459 57.9075 30.4642 58.2922 29.2917C58.7502 27.8994 59.7578 27.1299 61.2051 26.9467C62.0753 26.8368 62.9455 26.9284 63.77 27.2765C63.9165 27.3406 63.9623 27.3864 63.8707 27.5422C63.7608 27.7254 63.715 28.0093 63.5593 28.1009C63.4127 28.1834 63.1837 27.9818 62.9822 27.9269C62.3135 27.7345 61.6448 27.6521 60.967 27.8536C59.8494 28.1742 59.309 28.9986 59.0983 30.0887C59.0342 30.3543 59.025 30.6383 59.025 30.8948Z" fill="#272564"/>
<path d="M71.5464 34.9069C71.0975 34.9252 70.6487 34.8977 70.2181 34.7787C69.1556 34.4947 68.4227 33.8352 68.0563 32.8092C67.6441 31.6642 67.6166 30.4826 67.9739 29.3192C68.4319 27.8444 69.7052 26.9284 71.299 26.9101C72.0502 26.9009 72.783 26.9834 73.4883 27.2857C73.6074 27.3406 73.644 27.3773 73.5799 27.5055C73.4883 27.6612 73.4059 27.8261 73.3417 28.0002C73.2868 28.1376 73.2227 28.1376 73.0944 28.0826C72.4715 27.8078 71.812 27.6795 71.125 27.7528C69.9433 27.8902 69.2105 28.5681 68.8899 29.6856C68.6059 30.6932 68.6334 31.7009 69.064 32.6627C69.4853 33.6062 70.2639 34.0367 71.2807 34.0825C71.9128 34.11 72.5357 34.0092 73.1494 33.8443C73.3234 33.7985 73.3601 33.8352 73.3417 34.0001C73.3326 34.1008 73.3234 34.2107 73.3417 34.3023C73.3784 34.5405 73.2868 34.6413 73.0486 34.7054C72.5448 34.8245 72.0502 34.8886 71.5464 34.9069Z" fill="#272564"/>
<path d="M113.985 27.0382C114.004 27.0382 114.013 27.029 114.022 27.029C114.333 27.029 114.682 26.9374 114.929 27.0565C115.167 27.1756 115.24 27.5511 115.378 27.8076C115.918 28.8152 116.449 29.832 116.99 30.8396C117.072 30.8213 117.081 30.748 117.109 30.7022C117.741 29.5297 118.364 28.3664 118.987 27.1939C119.051 27.0656 119.124 27.0107 119.271 27.0198C119.527 27.029 119.784 27.0198 120.04 27.0198C120.059 27.1206 119.994 27.1756 119.958 27.2397C119.161 28.6962 118.364 30.1618 117.558 31.6182C117.494 31.7373 117.466 31.8564 117.466 31.9938C117.466 32.8549 117.466 33.7159 117.475 34.5861C117.475 34.7327 117.457 34.8151 117.283 34.7968C117.045 34.7693 116.724 34.8976 116.587 34.7419C116.468 34.6136 116.55 34.3022 116.55 34.064C116.55 33.377 116.55 32.69 116.55 32.003C116.55 31.8747 116.523 31.7648 116.459 31.6549C115.662 30.1801 114.865 28.7053 114.068 27.2305C114.031 27.1664 113.985 27.1206 113.985 27.0382Z" fill="#272564"/>
<path d="M147.924 31.3068C147.924 32.4061 147.924 33.4961 147.924 34.5953C147.924 34.7602 147.888 34.8152 147.723 34.7969C147.494 34.7694 147.182 34.8885 147.045 34.7511C146.935 34.6228 147.008 34.3205 147.008 34.0915C147.008 32.0855 147.008 30.0702 147.008 28.0642C147.008 27.8718 146.972 27.8168 146.77 27.8168C146.092 27.8351 145.405 27.8168 144.727 27.826C144.59 27.826 144.526 27.7985 144.544 27.6519C144.553 27.4962 144.553 27.3405 144.544 27.1939C144.535 27.0474 144.59 27.0291 144.718 27.0291C146.55 27.0291 148.382 27.0291 150.205 27.0291C150.342 27.0291 150.407 27.0565 150.388 27.2123C150.361 27.4138 150.48 27.6794 150.342 27.7985C150.223 27.8993 149.967 27.8351 149.775 27.8351C149.216 27.8351 148.666 27.8443 148.107 27.8351C147.952 27.8351 147.915 27.8809 147.915 28.0367C147.933 29.1084 147.924 30.2076 147.924 31.3068Z" fill="#262463"/>
<path d="M123.961 30.8856C123.961 29.6673 123.961 28.4398 123.961 27.2215C123.961 27.0566 123.997 27.0016 124.162 27.02C124.336 27.0383 124.51 27.0383 124.684 27.02C124.859 27.0016 124.886 27.0749 124.886 27.2307C124.877 28.4398 124.886 29.6398 124.886 30.8489C124.886 31.8199 124.886 32.7909 124.886 33.7618C124.886 33.9267 124.923 33.9725 125.088 33.9634C126.086 33.9542 127.094 33.9634 128.092 33.9542C128.257 33.9542 128.339 33.9817 128.312 34.1649C128.284 34.3664 128.394 34.6321 128.266 34.7511C128.147 34.8519 127.891 34.7786 127.689 34.7878C126.507 34.7878 125.335 34.7878 124.153 34.7969C123.988 34.7969 123.952 34.7511 123.952 34.5954C123.961 33.3588 123.961 32.1222 123.961 30.8856Z" fill="#272564"/>
<path d="M49.7456 30.8949C49.7456 29.6766 49.7456 28.4491 49.7456 27.2308C49.7456 27.0568 49.7914 27.0018 49.9654 27.0201C50.1945 27.0476 50.5059 26.9285 50.6433 27.0659C50.7532 27.1942 50.6799 27.4965 50.6799 27.7255C50.6799 29.7315 50.6799 31.7285 50.6799 33.7345C50.6799 33.9177 50.7166 33.9635 50.9089 33.9635C51.9074 33.9544 52.8967 33.9635 53.8952 33.9544C54.06 33.9544 54.1333 33.991 54.115 34.1742C54.0967 34.3666 54.1791 34.6322 54.0784 34.7513C53.9593 34.8796 53.6936 34.7879 53.4921 34.7879C52.3196 34.7879 51.1471 34.7879 49.9746 34.7971C49.8097 34.7971 49.7548 34.7605 49.7548 34.5864C49.7548 33.359 49.7456 32.1315 49.7456 30.8949Z" fill="#262463"/>
<path d="M55.397 30.9039C55.397 29.6765 55.397 28.449 55.397 27.2215C55.397 27.075 55.4245 27.0109 55.5893 27.0292C55.7634 27.0475 55.9374 27.0475 56.1115 27.0292C56.2855 27.0109 56.3221 27.075 56.3221 27.2399C56.313 29.2551 56.3221 31.2703 56.3221 33.2856C56.3221 33.7344 56.3221 34.1741 56.3221 34.6229C56.3221 34.7512 56.3038 34.8061 56.1573 34.797C55.9649 34.7878 55.7725 34.7878 55.5893 34.797C55.4336 34.8061 55.397 34.7603 55.397 34.6046C55.4061 33.6062 55.397 32.5986 55.397 31.6001C55.397 31.3711 55.397 31.1329 55.397 30.9039Z" fill="#272564"/>
<path d="M130.52 30.9131C130.52 32.1405 130.52 33.368 130.52 34.5955C130.52 34.7603 130.483 34.8153 130.318 34.797C130.089 34.7695 129.778 34.8886 129.64 34.7512C129.53 34.6229 129.604 34.3207 129.604 34.0917C129.604 31.8108 129.604 29.5299 129.594 27.249C129.594 27.0658 129.64 27.0017 129.823 27.0292C130.043 27.0567 130.345 26.9376 130.474 27.075C130.584 27.1941 130.51 27.4963 130.51 27.707C130.52 28.7696 130.52 29.8413 130.52 30.9131Z" fill="#262463"/>
<path d="M142.492 30.8855C142.492 29.6672 142.492 28.4398 142.492 27.2215C142.492 27.0566 142.538 27.0108 142.703 27.02C142.932 27.0383 143.234 26.9467 143.363 27.0566C143.509 27.1848 143.408 27.4963 143.408 27.7253C143.408 30.0062 143.408 32.287 143.417 34.5679C143.417 34.7511 143.372 34.8152 143.188 34.7878C142.969 34.7603 142.666 34.8794 142.538 34.742C142.428 34.6229 142.511 34.3206 142.511 34.1008C142.492 33.0382 142.492 31.9573 142.492 30.8855Z" fill="#262463"/>
<path d="M133.46 27.9913C133.433 28.0097 133.423 27.9913 133.423 27.9635C133.423 27.9543 133.433 27.945 133.442 27.9358C133.451 27.9543 133.451 27.9728 133.46 27.9913Z" fill="#FDFDFE"/>
</g>
<defs>
<clipPath id="clip0">
<rect width="154" height="19.8317" fill="white" transform="translate(9.99951 15.0842)"/>
</clipPath>
</defs>
</svg>
