<svg width="136" height="136" viewBox="0 0 136 136" fill="none" xmlns="http://www.w3.org/2000/svg">
<path d="M49.0405 85.654C49.243 86.1966 49.4525 86.7321 49.6481 87.2676C50.1427 88.4057 50.7363 89.4974 51.4219 90.5298C50.3883 87.6034 49.3105 84.7522 48.1885 81.9761C48.3571 83.2264 48.6424 84.4578 49.0405 85.654Z" fill="#919191"/>
<path d="M48.1606 81.7975C49.4875 84.947 50.7236 88.0824 51.862 91.1756C52.1902 91.6406 52.5603 92.0845 52.9305 92.5214C51.3801 88.1905 49.7366 84.0193 48 80.0078C48.0419 80.5997 48.0908 81.1845 48.1606 81.7975Z" fill="#919191"/>
<path d="M48 79.9083C49.9764 84.319 51.7572 88.7016 53.3565 92.9855C53.5171 93.1616 53.6777 93.3307 53.8453 93.4998C54.0129 93.6689 54.1386 93.7887 54.2853 93.9226C52.3252 88.5818 50.2301 83.4618 48 78.5625C48 78.9782 48 79.4573 48 79.9083Z" fill="#919191"/>
<path d="M48 78.5C50.5281 83.862 52.7698 89.2028 54.7462 94.3604C55.0186 94.607 55.3049 94.8466 55.5912 95.065C53.2727 88.8787 50.7935 82.9531 48.0908 77.3516C48.0559 77.732 48 78.1125 48 78.5Z" fill="#919191"/>
<path d="M48.0908 77.3113C51.1427 83.4765 53.8035 89.6064 56.1151 95.4616C56.3711 95.6588 56.6365 95.8491 56.9112 96.0323C54.2155 89.1061 51.3243 82.5112 48.2165 76.3037C48.1676 76.6419 48.1257 76.9801 48.0908 77.3113Z" fill="#919191"/>
<path d="M48.2158 76.2803C51.7565 83.136 54.8224 89.9423 57.4412 96.3753C57.6927 96.5303 57.9441 96.6853 58.2025 96.8262C55.1576 89.273 51.8683 82.1002 48.3695 75.3784C48.3136 75.6743 48.2577 75.9773 48.2158 76.2803Z" fill="#919191"/>
<path d="M48.3701 75.3612C52.3927 82.8228 55.8426 90.2563 58.7618 97.1401C59.0062 97.267 59.2437 97.3867 59.4951 97.4995C56.2325 89.6621 52.58 81.9958 48.5517 74.5298C48.4888 74.8116 48.426 75.0864 48.3701 75.3612Z" fill="#919191"/>
<path d="M48.5518 74.5197C53.0423 82.5027 56.8763 90.4505 60.0818 97.7712L60.7802 98.0601C57.1905 89.7508 53.1765 81.6348 48.7543 73.7446C48.6984 74.0053 48.6146 74.259 48.5518 74.5197Z" fill="#919191"/>
<path d="M48.7549 73.736C53.3759 81.6996 57.597 89.8926 61.4023 98.284C61.6328 98.3685 61.8562 98.439 62.1007 98.5094C58.169 89.784 53.7865 81.2726 48.9714 73.0103C48.8946 73.2569 48.8247 73.4964 48.7549 73.736Z" fill="#919191"/>
<path d="M48.9707 73.0109C53.9798 81.3388 58.5715 89.9151 62.7285 98.7073C62.952 98.7731 63.1848 98.8295 63.4269 98.8764C59.147 89.7862 54.401 80.9269 49.2081 72.3345C49.1243 72.5599 49.0475 72.7854 48.9707 73.0109Z" fill="#919191"/>
<path d="M64.062 99.0175L64.7045 99.1373C60.0938 89.7355 55.0053 80.5801 49.4591 71.7075C49.3753 71.9189 49.2985 72.1373 49.2217 72.3557C55.053 81.6704 60.0184 90.8442 64.062 99.0175Z" fill="#919191"/>
<path d="M65.3957 99.2446L66.0242 99.315C61.0623 89.6495 55.6198 80.243 49.7174 71.1313C49.6266 71.3357 49.5428 71.54 49.459 71.7443C55.7443 81.4043 61.0798 90.8951 65.3957 99.2446Z" fill="#919191"/>
<path d="M66.73 99.3709H67.3445C61.8344 89.1684 56.0031 79.4732 49.9832 70.5249C49.8924 70.7151 49.8016 70.9124 49.7178 71.1027C56.4361 81.0938 62.1417 90.8876 66.73 99.3709Z" fill="#919191"/>
<path d="M68.0703 99.4134H68.6639C62.7836 88.9924 56.6031 79.1 50.2549 69.9614C50.1572 70.1446 50.0664 70.3278 49.9756 70.5181C57.1338 80.8192 63.2166 90.8314 68.0703 99.4134Z" fill="#919191"/>
<path d="M69.3973 99.3636L69.9839 99.3143C64.802 90.5492 58.2374 80.1564 50.5204 69.4185C50.4296 69.5876 50.3319 69.7637 50.248 69.9399C57.8183 80.5087 64.2782 90.7183 69.3973 99.3636Z" fill="#919191"/>
<path d="M71.2902 99.1398C65.8569 90.3676 58.9222 79.841 50.7932 68.9058C50.6954 69.0678 50.6046 69.2369 50.5068 69.406C58.4892 80.1792 65.3192 90.5438 70.7036 99.2244C70.9085 99.2056 71.104 99.1774 71.2902 99.1398Z" fill="#919191"/>
<path d="M72.5892 98.8777C66.8975 90.1266 59.6066 79.5014 51.1214 68.4111C51.0167 68.5661 50.9189 68.7282 50.8281 68.8903C59.1736 79.8467 66.3947 90.331 72.0375 98.9975L72.5892 98.8777Z" fill="#919191"/>
<path d="M73.8398 98.5326C67.9316 89.8308 60.2845 79.1492 51.4292 67.9321L51.1289 68.3972C59.8725 79.4945 67.4428 90.0563 73.33 98.7087L73.8398 98.5326Z" fill="#919191"/>
<path d="M74.608 98.2871C74.7826 98.2307 74.9502 98.1673 75.1248 98.0969L74.8036 97.66C68.6719 89.1133 60.8013 78.5797 51.7575 67.4683L51.4502 67.9192C60.4382 78.9813 68.2529 89.4586 74.3776 97.963L74.608 98.2871Z" fill="#919191"/>
<path d="M75.8515 97.7992L76.3473 97.5807L75.7118 96.7352C69.3846 88.3506 61.2696 78.0001 52.0791 67.0015L51.7578 67.4454C60.9344 78.3806 68.9865 88.6888 75.2858 97.0382C75.4813 97.2989 75.6629 97.5526 75.8515 97.7992Z" fill="#919191"/>
<path d="M77.5265 96.982C70.3472 87.9421 61.8272 77.4719 52.4132 66.5859L52.085 67.0157C61.4361 77.8312 69.9352 88.238 77.0516 97.2357L77.5265 96.982Z" fill="#919191"/>
<path d="M78.6865 96.2985C71.2768 87.3924 62.4355 77.0138 52.7631 66.1631L52.4209 66.5788C62.0514 77.3802 70.8508 87.7166 78.2605 96.5803L78.6865 96.2985Z" fill="#919191"/>
<path d="M79.7963 95.538C72.1143 86.7869 63.0355 76.514 53.1187 65.7549L52.7695 66.1565C62.6654 76.9015 71.7442 87.1181 79.3633 95.848L79.7963 95.538Z" fill="#919191"/>
<path d="M80.8232 94.7012C72.9666 86.1263 63.6015 76.0366 53.4821 65.355L53.126 65.7496C63.2244 76.41 72.5755 86.4786 80.4461 95.0394L80.8232 94.7012Z" fill="#919191"/>
<path d="M81.8569 93.778C73.7559 85.4145 64.1533 75.515 53.8594 64.9673L53.4893 65.3478C63.7832 75.9166 73.3718 85.7809 81.4728 94.1585L81.8569 93.778Z" fill="#919191"/>
<path d="M82.7926 92.8187C74.489 84.6525 64.6909 74.9714 54.2433 64.5928L53.8662 64.9592C64.3417 75.3519 74.1189 85.033 82.4364 93.2062L82.7926 92.8187Z" fill="#919191"/>
<path d="M83.6652 91.7814C75.18 83.8406 65.2004 74.4062 54.6341 64.2178L54.25 64.5842C64.8372 74.7866 74.8309 84.2423 83.337 92.1971C83.4487 92.0562 83.5604 91.9223 83.6652 91.7814Z" fill="#919191"/>
<path d="M84.4757 90.6917C75.8159 82.9905 65.6966 73.8308 55.0465 63.8608C54.9068 63.9806 54.7741 64.0934 54.6484 64.2131C65.3334 74.2113 75.4877 83.4062 84.1684 91.1285C84.2732 90.9594 84.3709 90.8397 84.4757 90.6917Z" fill="#919191"/>
<path d="M85.2012 89.5488C76.4018 82.1013 66.1568 73.2234 55.4578 63.5142L55.0527 63.8524C65.8076 73.618 76.0875 82.5029 84.9219 90.0068L85.2012 89.5488Z" fill="#919191"/>
<path d="M85.8506 88.3645C76.9255 81.1776 66.6106 72.638 55.8907 63.1753L55.4717 63.5065C66.2545 73.0044 76.6322 81.6215 85.5992 88.8436L85.8506 88.3645Z" fill="#919191"/>
<path d="M86.1865 87.6549L86.4099 87.1546L85.6697 86.5839C77.394 80.2426 67.1769 72.1045 56.3383 62.8462L55.9053 63.1703C66.7858 72.4709 77.0518 80.6301 85.3554 87.0066L86.1865 87.6549Z" fill="#919191"/>
<path d="M86.7037 86.4152L86.8923 85.8938L86.571 85.6613C78.1348 79.5031 67.75 71.5694 56.7927 62.5225L56.3457 62.8395C67.3589 71.9358 77.7925 79.9047 86.2637 86.0981L86.7037 86.4152Z" fill="#919191"/>
<path d="M87.2905 84.6196C78.7285 78.6658 68.253 71.0421 57.2607 62.2065L56.7998 62.5166C67.9178 71.4508 78.512 79.159 87.1089 85.1481C87.1857 84.9719 87.2416 84.7887 87.2905 84.6196Z" fill="#919191"/>
<path d="M87.597 83.3018C79.0071 77.6157 68.6085 70.3514 57.7768 61.9033L57.2949 62.1993C68.2523 70.7671 78.8046 78.123 87.4783 83.8584C87.5202 83.6752 87.5621 83.492 87.597 83.3018Z" fill="#919191"/>
<path d="M87.8067 81.9747C79.2098 76.5494 68.9508 69.6514 58.2449 61.605L57.749 61.8939C68.6086 70.0742 79.0422 77.0637 87.7369 82.5525L87.8067 81.9747Z" fill="#919191"/>
<path d="M87.9607 80.6441C79.3848 75.4583 69.2654 68.962 58.8039 61.3242L58.2871 61.6061C68.9372 69.3566 79.2381 76.0079 87.9258 81.236C87.9258 81.0317 87.9468 80.8414 87.9607 80.6441Z" fill="#919191"/>
<path d="M87.9953 79.9045C87.9953 79.7001 87.9953 79.5028 87.9953 79.2985C79.4822 74.3664 69.5654 68.2646 59.3623 61.0566L58.8105 61.3314C67.8614 67.708 77.6595 73.9718 87.9953 79.9045Z" fill="#919191"/>
<path d="M87.9953 78.5722C87.9953 78.3608 87.9953 78.1565 87.9953 77.9522C79.5521 73.3441 69.8657 67.5665 59.9419 60.7812C59.7464 60.8658 59.5578 60.9504 59.3623 61.049C68.2525 67.1296 77.8481 73.0059 87.9953 78.5722Z" fill="#919191"/>
<path d="M87.9115 77.2393C87.9115 77.0279 87.8626 76.8095 87.8347 76.5981C79.5591 72.2437 70.1521 66.8677 60.5705 60.5264L59.9629 60.7871C68.9976 66.744 78.3258 72.2351 87.9115 77.2393Z" fill="#919191"/>
<path d="M87.7367 75.9085C87.6948 75.6901 87.6599 75.4717 87.618 75.2533C79.5169 71.1737 70.4242 66.1711 61.1638 60.2666L60.5283 60.5132C69.3291 66.114 78.4107 71.2526 87.7367 75.9085Z" fill="#919191"/>
<path d="M87.3044 73.9151C78.592 69.7211 70.0938 65.0885 61.8419 60.0347C61.6115 60.1051 61.388 60.1826 61.1436 60.2672C69.6668 65.4986 78.4549 70.2775 87.472 74.5845L87.3044 73.9151Z" fill="#919191"/>
<path d="M86.8918 72.5756C79.3005 69.0526 70.983 64.8251 62.5607 59.8154C62.3162 59.8788 62.0788 59.9563 61.8623 60.0339C70.0459 64.8808 78.4725 69.2974 87.1083 73.2661C87.0454 73.0336 86.9686 72.8011 86.8918 72.5756Z" fill="#919191"/>
<path d="M86.4099 71.229C79.1538 67.9879 71.2972 64.1267 63.3638 59.5962L62.6025 59.7935C70.4105 64.2536 78.4407 68.3057 86.6613 71.9336C86.5705 71.7152 86.4797 71.4756 86.4099 71.229Z" fill="#919191"/>
<path d="M85.7469 69.9121C78.8959 67.0021 71.5631 63.4791 64.1674 59.4277L63.3643 59.6039C70.7643 63.6681 78.3629 67.3531 86.131 70.6448C85.9913 70.3982 85.8726 70.1516 85.7469 69.9121Z" fill="#919191"/>
<path d="M85.0139 68.5761C78.6169 65.9339 71.8776 62.8478 65.0825 59.2544C64.7799 59.2967 64.4796 59.346 64.1816 59.4024C70.8441 62.9253 77.9534 66.251 85.4469 69.3301C85.3003 69.1187 85.1536 68.8298 85.0139 68.5761Z" fill="#919191"/>
<path d="M84.0911 67.2362C78.2877 64.911 72.2189 62.2265 66.1012 59.1475C65.766 59.1475 65.4028 59.2179 65.1025 59.2672C71.2528 62.3909 77.7709 65.315 84.6568 68.0394C84.4682 67.7717 84.3146 67.5039 84.0911 67.2362Z" fill="#919191"/>
<path d="M82.9951 65.8747C77.8831 63.8807 72.5965 61.6472 67.2749 59.0684C66.8978 59.0684 66.5207 59.0684 66.1436 59.1388C71.6979 61.8351 77.5525 64.3645 83.7075 66.7273C83.477 66.4384 83.2396 66.1566 82.9951 65.8747Z" fill="#919191"/>
<path d="M82.1503 64.9658L81.6404 64.4655C77.3944 62.852 73.0435 61.0553 68.6788 59.0684C68.2132 59.0684 67.7662 59.0684 67.3379 59.0684C72.1846 61.309 77.2617 63.4227 82.5693 65.4097L82.1503 64.9658Z" fill="#919191"/>
<path d="M79.8175 62.9436C76.7517 61.7951 73.637 60.555 70.5153 59.2163C69.9333 59.1412 69.3537 59.0918 68.7764 59.0684C72.7431 60.8087 76.8774 62.4645 81.1444 64.0005C80.7184 63.6412 80.2715 63.2818 79.8175 62.9436Z" fill="#919191"/>
<path d="M75.9705 60.7199L74.3712 60.0999C73.1816 59.7072 71.9591 59.4242 70.7188 59.2544C73.475 60.3911 76.301 61.4809 79.1969 62.5237C78.1807 61.8204 77.1003 61.2164 75.9705 60.7199Z" fill="#919191"/>
<path d="M86.9695 49.7625C86.76 49.22 86.5574 48.6845 86.3549 48.149C85.8658 47.0081 85.2719 45.9159 84.5811 44.8867C85.6146 47.8131 86.6901 50.6644 87.8075 53.4405C87.64 52.1912 87.3595 50.9601 86.9695 49.7625Z" fill="#919191"/>
<path d="M87.842 53.6145C86.5151 50.465 85.2859 47.3296 84.1476 44.2364C83.8124 43.7714 83.4492 43.3275 83.0791 42.8906C84.6248 47.2027 86.2543 51.3645 87.9677 55.376C87.9677 54.8123 87.9188 54.2275 87.842 53.6145Z" fill="#919191"/>
<path d="M87.9883 55.5031C86.0189 51.0924 84.238 46.7098 82.6388 42.4259C82.4782 42.2497 82.3106 42.0806 82.1429 41.9115C81.9753 41.7424 81.8566 41.6226 81.71 41.4888C83.67 46.8296 85.7651 51.9496 87.9953 56.8489C88.0022 56.4332 88.0022 55.954 87.9883 55.5031Z" fill="#919191"/>
<path d="M87.9887 56.9116C85.4536 51.5497 83.2189 46.2089 81.2425 41.0513C80.9631 40.8047 80.6838 40.5651 80.3975 40.3467C82.73 46.54 85.2441 52.4657 87.9189 58.0672C87.9538 57.6796 87.9747 57.2992 87.9887 56.9116Z" fill="#919191"/>
<path d="M87.912 58.1038C84.8602 51.9386 82.2203 45.8087 79.8948 39.9535L79.0986 39.3828C81.7943 46.3089 84.6856 52.9039 87.7933 59.1114C87.8422 58.7732 87.8841 58.435 87.912 58.1038Z" fill="#919191"/>
<path d="M87.807 59.1333C84.2662 52.2776 81.2074 45.4713 78.5885 39.0383C78.3371 38.8833 78.0787 38.7283 77.8203 38.5874C80.8233 46.1406 84.1336 53.3134 87.6394 60.0352C87.6952 59.7392 87.7441 59.4363 87.807 59.1333Z" fill="#919191"/>
<path d="M87.6321 60.0553C83.6164 52.5936 80.1595 45.1954 77.2404 38.2763C77.0029 38.1495 76.7585 38.0297 76.542 37.917C79.7955 45.7538 83.4386 53.4201 87.4575 60.8867C87.5203 60.6048 87.5762 60.3301 87.6321 60.0553Z" fill="#919191"/>
<path d="M87.4508 60.8915C82.9603 52.9085 79.1332 44.9607 75.9347 37.64L75.2363 37.3511C78.8266 45.6589 82.8382 53.7748 87.2552 61.6665C87.3251 61.4058 87.3879 61.1522 87.4508 60.8915Z" fill="#919191"/>
<path d="M87.2481 61.6758C82.3037 53.1784 78.0925 44.7656 74.6007 37.1278C74.3772 37.0433 74.1468 36.9728 73.9023 36.9023C77.8396 45.625 82.2219 54.1361 87.0316 62.4015C87.1085 62.1549 87.1853 61.9154 87.2481 61.6758Z" fill="#919191"/>
<path d="M87.0316 62.4007C81.6332 53.4594 77.045 44.6521 73.2738 36.7043C73.0573 36.6408 72.8338 36.5845 72.6104 36.5352C76.8811 45.6248 81.6178 54.4841 86.8012 63.0771C86.885 62.8751 86.9618 62.6497 87.0316 62.4007Z" fill="#919191"/>
<path d="M71.9473 36.3927L71.2979 36.2729C75.9085 45.6747 80.9971 54.8302 86.5432 63.7027C86.627 63.4913 86.7108 63.2729 86.7876 63.0545C81.4023 54.4231 76.4493 45.5247 71.9473 36.3927Z" fill="#919191"/>
<path d="M70.6131 36.1671L69.9775 36.0967C74.9407 45.7743 80.3856 55.1926 86.2914 64.3156C86.3822 64.1113 86.466 63.9069 86.5498 63.7026C80.2575 54.0074 74.929 44.5166 70.6131 36.1671Z" fill="#919191"/>
<path d="M69.2718 36.0435H68.6572C74.1743 46.2741 79.9987 55.9693 86.0186 64.9317C86.1164 64.7415 86.2002 64.5442 86.284 64.354C79.5657 54.3206 73.8391 44.5267 69.2718 36.0435Z" fill="#919191"/>
<path d="M67.9385 36H67.3379C73.2181 46.435 79.4266 56.3275 85.7538 65.466C85.8516 65.2828 85.9424 65.0996 86.0262 64.9094C78.8749 54.5942 72.7921 44.5819 67.9385 36Z" fill="#919191"/>
<path d="M66.6041 36.0483L66.0244 36.0977C71.2063 44.8628 77.7709 55.2555 85.4809 65.9935C85.5787 65.8244 85.6695 65.6482 85.7603 65.4721C78.183 54.9032 71.744 44.6937 66.6041 36.0483Z" fill="#919191"/>
<path d="M64.7119 36.273C70.1522 45.0452 77.08 55.5718 85.188 66.5071C85.2858 66.345 85.3836 66.1759 85.4744 66.0068C77.499 55.2336 70.662 44.869 65.2846 36.1885C65.096 36.2096 64.9005 36.2378 64.7119 36.273Z" fill="#919191"/>
<path d="M63.4209 36.5353C69.1056 45.2863 76.3966 55.9116 84.8887 67.0019L85.182 66.5227C76.8016 55.5663 69.6084 45.082 63.9726 36.4155L63.4209 36.5353Z" fill="#919191"/>
<path d="M62.1416 36.8822C68.0777 45.5839 75.7179 56.2655 84.5731 67.4826L84.8804 67.0176C76.1229 55.9203 68.5666 45.3584 62.6654 36.7061L62.1416 36.8822Z" fill="#919191"/>
<path d="M61.4016 37.127C61.227 37.1833 61.0524 37.2467 60.8848 37.3172L61.199 37.754C67.3377 46.3007 75.2083 56.8344 84.2451 67.9458L84.5594 67.4949C75.5714 56.4328 67.7357 45.9555 61.632 37.4511L61.4016 37.127Z" fill="#919191"/>
<path d="M60.1521 37.6138L59.6562 37.8322L60.2987 38.6777C66.584 47.0623 74.7061 57.4128 83.9245 68.3974L84.2457 67.9535C75.0692 57.0182 67.017 46.71 60.7178 38.3606L60.1521 37.6138Z" fill="#919191"/>
<path d="M58.4756 38.4309C65.6338 47.4708 74.1749 57.941 83.6168 68.827C83.7285 68.6861 83.8403 68.5452 83.945 68.3972C74.538 57.5817 66.0738 47.1749 58.9505 38.1772C58.7968 38.2618 58.6362 38.3393 58.4756 38.4309Z" fill="#919191"/>
<path d="M57.3232 39.1153C64.7608 48.0213 73.5673 58.3999 83.2466 69.2507L83.6168 68.8349C73.9583 58.0336 65.1589 47.7113 57.7772 38.8193C57.6235 38.925 57.4699 39.0166 57.3232 39.1153Z" fill="#919191"/>
<path d="M56.2129 39.8764C63.8949 48.6275 72.9737 58.9004 82.8905 69.6595L83.2397 69.2579C73.3578 58.5481 64.279 48.2963 56.6459 39.5664L56.2129 39.8764Z" fill="#919191"/>
<path d="M55.1514 40.7103C63.0359 49.2852 72.4429 59.3749 82.5204 70.0565L82.8835 69.662C72.7851 59.0015 63.434 48.9329 55.5634 40.3721L55.1514 40.7103Z" fill="#919191"/>
<path d="M54.1523 41.6344C62.2534 49.9979 71.849 59.8974 82.1499 70.4451L82.513 70.0647C72.2261 59.4958 62.6305 49.6315 54.5364 41.2539L54.1523 41.6344Z" fill="#919191"/>
<path d="M53.209 42.595C61.5126 50.7965 71.3176 60.4424 81.7652 70.821L82.1423 70.4546C71.6668 60.0619 61.8897 50.3808 53.5721 42.2075C53.4464 42.3414 53.3277 42.4612 53.209 42.595Z" fill="#919191"/>
<path d="M52.3359 43.6301C60.8211 51.5708 70.8008 61.0053 81.367 71.2289L81.7581 70.8625C71.1709 60.66 61.1703 51.1692 52.6712 43.2144L52.3359 43.6301Z" fill="#919191"/>
<path d="M51.5342 44.722C60.1869 52.4232 70.3482 61.5829 80.9634 71.5529L81.3614 71.2006C70.6764 61.2024 60.5152 52.0075 51.8415 44.2852C51.7367 44.4543 51.632 44.574 51.5342 44.722Z" fill="#919191"/>
<path d="M50.7939 45.8647C59.6073 53.3123 69.8384 62.1901 80.5444 71.9346L80.9564 71.5964C70.2016 61.7955 59.9146 52.9106 51.0873 45.4067C50.9895 45.5547 50.8987 45.7097 50.7939 45.8647Z" fill="#919191"/>
<path d="M50.1582 47.0485C59.0763 54.2353 69.3912 62.7749 80.1251 72.2376C80.2718 72.1319 80.4115 72.0192 80.5511 71.9065C69.7474 62.4086 59.3697 53.7914 50.4096 46.5693C50.3188 46.7314 50.242 46.8934 50.1582 47.0485Z" fill="#919191"/>
<path d="M49.8151 47.7598C49.7383 47.9289 49.6685 48.0909 49.5986 48.26L50.3389 48.8307C58.6145 55.1721 68.8316 63.3101 79.6703 72.5684L80.1103 72.2443C69.2227 62.9437 58.9637 54.7845 50.6532 48.408L49.8151 47.7598Z" fill="#919191"/>
<path d="M49.3057 49.0015C49.2359 49.1706 49.1731 49.3467 49.1172 49.5229L49.4384 49.7554C57.8677 55.9135 68.2524 63.819 79.2168 72.8942L79.6637 72.5771C68.6505 63.4808 58.2099 55.5119 49.7387 49.3185L49.3057 49.0015Z" fill="#919191"/>
<path d="M48.6982 50.7965C57.2532 56.7433 67.7218 64.3669 78.728 73.2025L79.1889 72.8925C68.0849 63.9653 57.4977 56.2571 48.8728 50.2681C48.817 50.4442 48.7681 50.6274 48.6982 50.7965Z" fill="#919191"/>
<path d="M48.4121 52.1123C57.002 57.7983 67.3937 65.0627 78.2533 73.5107L78.7282 73.2148C67.7359 64.647 57.2045 57.291 48.5308 51.5557C48.4889 51.7389 48.447 51.922 48.4121 52.1123Z" fill="#919191"/>
<path d="M48.1885 53.4386C56.7854 58.864 67.0444 65.7619 77.7434 73.8084L78.2392 73.5195C67.4005 65.3392 56.9669 58.3496 48.2723 52.8608C48.2374 53.0511 48.2094 53.2484 48.1885 53.4386Z" fill="#919191"/>
<path d="M48.0488 54.7706C56.6178 59.9564 66.7371 66.4527 77.2056 74.0905C77.3802 73.9989 77.5548 73.9073 77.7224 73.8086C67.0793 66.0581 56.7714 59.4068 48.0907 54.1787C48.0768 54.383 48.0628 54.5733 48.0488 54.7706Z" fill="#919191"/>
<path d="M48 55.5122C48 55.7165 48 55.9138 48 56.1182C56.5061 61.0503 66.4299 67.1521 76.633 74.36C76.8216 74.2755 77.0032 74.1839 77.1847 74.0853C68.1479 67.7087 58.3428 61.4449 48 55.5122Z" fill="#919191"/>
<path d="M48 56.8403C48 57.0517 48 57.256 48 57.4604C56.4502 62.0684 66.1575 67.8461 76.0674 74.6313C76.2559 74.5467 76.4515 74.4622 76.64 74.3635C67.7638 68.2829 58.1543 62.4066 48 56.8403Z" fill="#919191"/>
<path d="M48.0986 58.1733C48.0986 58.3847 48.1405 58.6031 48.1685 58.8145C56.4441 63.1689 65.8511 68.5449 75.4606 74.8863L76.0682 74.6256C67.0257 68.6696 57.6906 63.1785 48.0986 58.1733Z" fill="#919191"/>
<path d="M48.2725 59.5068C48.2725 59.7253 48.3493 59.9437 48.3912 60.1621C57.4498 64.7081 66.2767 69.71 74.8383 75.1488L75.4808 74.9022C66.6802 69.3012 57.5986 64.1625 48.2725 59.5068Z" fill="#919191"/>
<path d="M48.6987 61.4994C56.5693 65.3042 65.2989 69.9545 74.1612 75.3799C74.3846 75.3094 74.6174 75.2319 74.8595 75.1474C66.3379 69.9174 57.5522 65.1385 48.5381 60.8301C48.587 61.0555 48.6428 61.281 48.6987 61.4994Z" fill="#919191"/>
<path d="M49.118 62.8384C56.7093 66.3614 65.0268 70.589 73.4491 75.5986C73.6866 75.5352 73.924 75.4577 74.1475 75.3802C65.9616 70.533 57.5327 66.1164 48.8945 62.1479C48.9644 62.3805 49.0342 62.613 49.118 62.8384Z" fill="#919191"/>
<path d="M49.6272 64.1831C56.8832 67.4242 64.7398 71.2854 72.6733 75.8159L73.4415 75.6186C65.6197 71.1574 57.5755 67.1054 49.3408 63.4785C49.4316 63.6969 49.5294 63.9365 49.6272 64.1831Z" fill="#919191"/>
<path d="M50.2556 65.5038C57.1135 68.449 64.4464 71.9367 71.8421 75.9881L72.6662 75.8119C65.2661 71.7477 57.6675 68.0627 49.8994 64.771C50.0112 65.0176 50.1299 65.2642 50.2556 65.5038Z" fill="#919191"/>
<path d="M51.0104 66.8403C57.3865 69.4826 64.1327 72.5687 70.9278 76.1621C71.2281 76.1198 71.5284 76.0705 71.8218 76.0141C65.1593 72.4912 58.05 69.1655 50.5635 66.0864C50.7031 66.2978 50.8568 66.5867 51.0104 66.8403Z" fill="#919191"/>
<path d="M51.9184 68.1797C57.7218 70.5049 63.7906 73.1893 69.9083 76.2684C70.2365 76.2684 70.6067 76.198 70.9 76.1486C64.7543 73.0273 58.2176 70.0962 51.3457 67.3765C51.5319 67.6442 51.7228 67.912 51.9184 68.1797Z" fill="#919191"/>
<path d="M53.0071 69.5391C58.1192 71.5331 63.4128 73.7666 68.7273 76.3454C69.1114 76.3454 69.4886 76.3102 69.8657 76.275C64.2787 73.5764 58.4404 71.0399 52.3018 68.6865C52.5252 68.9754 52.7627 69.2572 53.0071 69.5391Z" fill="#919191"/>
<path d="M53.8594 70.4458C54.0271 70.6149 54.1947 70.784 54.3693 70.9461C58.6153 72.5596 62.9592 74.3563 67.3309 76.3433C67.7779 76.3433 68.2249 76.3433 68.6648 76.3433C63.8182 74.1027 58.7434 71.9889 53.4404 70.002C53.5871 70.157 53.7128 70.3049 53.8594 70.4458Z" fill="#919191"/>
<path d="M56.1913 72.4714C59.2571 73.6199 62.3649 74.86 65.4866 76.1987C66.0662 76.2762 66.6459 76.3256 67.2325 76.3467C63.2611 74.6087 59.1361 72.9647 54.8574 71.4146C55.2904 71.7739 55.7304 72.1332 56.1913 72.4714Z" fill="#919191"/>
<path d="M60.0401 74.6968L61.6393 75.3169C62.8264 75.7104 64.0466 75.9934 65.2848 76.1624C62.5332 75.0256 59.7072 73.9359 56.8066 72.8931C57.8262 73.595 58.9087 74.1989 60.0401 74.6968Z" fill="#919191"/>
</svg>
