<svg width="112" height="50" viewBox="0 0 112 50" fill="none" xmlns="http://www.w3.org/2000/svg">
<g clip-path="url(#clip0)">
<path d="M70.0308 29.0944V11.7544H73.4159V29.0944H70.0308Z" fill="#F7A600"/>
<path d="M30.5789 34.2461H23.3213V16.906H30.2869C33.672 16.906 35.6447 18.8057 35.6447 21.7766C35.6447 23.7 34.3783 24.9428 33.5023 25.357C34.5498 25.8443 35.8893 26.9392 35.8893 29.2532C35.8893 32.4923 33.672 34.2461 30.5789 34.2461ZM30.0186 19.9262H26.7064V23.9209H30.0186C31.4548 23.9209 32.2596 23.1179 32.2596 21.9244C32.2596 20.7291 31.4566 19.9262 30.0186 19.9262ZM30.2376 26.9648H26.7064V31.2259H30.2376C31.7723 31.2259 32.5023 30.2514 32.5023 29.0835C32.5041 27.9137 31.7723 26.9648 30.2376 26.9648Z" fill="#15192A"/>
<path d="M46.2144 27.1345V34.2461H42.853V27.1345L37.6411 16.906H41.3183L44.5574 23.8953L47.7473 16.906H51.4245L46.2144 27.1345Z" fill="#15192A"/>
<path d="M61.0212 34.2461H53.7637V16.906H60.7293C64.1144 16.906 66.0871 18.8057 66.0871 21.7766C66.0871 23.7 64.8206 24.9428 63.9447 25.357C64.9922 25.8443 66.3317 26.9392 66.3317 29.2532C66.3298 32.4923 64.1126 34.2461 61.0212 34.2461ZM60.461 19.9262H57.1488V23.9209H60.461C61.8972 23.9209 62.702 23.1179 62.702 21.9244C62.7001 20.7291 61.8972 19.9262 60.461 19.9262ZM60.68 26.9648H57.1488V31.2259H60.68C62.2147 31.2259 62.9447 30.2514 62.9447 29.0835C62.9447 27.9137 62.2129 26.9648 60.68 26.9648Z" fill="#15192A"/>
<path d="M84.3271 19.9262V34.2461H80.942V19.9262H76.4126V16.906H88.8583V19.9262H84.3271Z" fill="#15192A"/>
</g>
<defs>
<clipPath id="clip0">
<rect width="110.609" height="50" fill="white" transform="translate(0.790527)"/>
</clipPath>
</defs>
</svg>
