<svg width="81" height="50" viewBox="0 0 81 50" fill="none" xmlns="http://www.w3.org/2000/svg">
<g clip-path="url(#clip0)">
<path d="M63.8258 21.5298H61.3677V31.3551H63.8258V21.5298Z" fill="#FFB11A"/>
<path d="M62.5967 20.3009C63.2763 20.3009 63.8258 19.7514 63.8258 19.0718C63.8258 18.3922 63.2763 17.8428 62.5967 17.8428C61.9171 17.8428 61.3677 18.3922 61.3677 19.0718C61.3677 19.7514 61.9171 20.3009 62.5967 20.3009Z" fill="#FFB11A"/>
<path d="M31.6316 21.53C30.7351 21.53 29.8964 21.7686 29.1735 22.1879V16.6138H26.7153V26.4391C26.7153 29.1502 28.9132 31.3553 31.6316 31.3553C34.35 31.3553 36.5479 29.1575 36.5479 26.4391C36.5479 23.7279 34.3428 21.53 31.6316 21.53ZM31.6316 28.8972C30.2724 28.8972 29.1735 27.7983 29.1735 26.4391C29.1735 25.0799 30.2724 23.9809 31.6316 23.9809C32.9908 23.9809 34.0897 25.0799 34.0897 26.4391C34.0897 27.7983 32.9908 28.8972 31.6316 28.8972Z" fill="#FFB11A"/>
<path d="M54.7307 21.53C53.8342 21.53 52.9956 21.7686 52.2726 22.1879V16.6138H49.8145V26.4391C49.8145 29.1502 52.0123 31.3553 54.7307 31.3553C57.4491 31.3553 59.647 29.1575 59.647 26.4391C59.647 23.7279 57.4419 21.53 54.7307 21.53ZM54.7307 28.8972C53.3715 28.8972 52.2726 27.7983 52.2726 26.4391C52.2726 25.0799 53.3715 23.9809 54.7307 23.9809C56.0899 23.9809 57.1888 25.0799 57.1888 26.4391C57.1888 27.7983 56.0899 28.8972 54.7307 28.8972Z" fill="#FFB11A"/>
<path d="M48.0938 21.53H45.6357V26.4463V26.4607C45.6284 27.8127 44.5295 28.9044 43.1775 28.9044C42.9679 28.9044 42.7582 28.8755 42.563 28.8249C42.1292 28.7164 41.746 28.4923 41.4424 28.1814C41.0013 27.7404 40.7194 27.1259 40.7194 26.4463V21.53H38.2612V26.4463C38.2612 27.3139 38.4854 28.1236 38.8758 28.8249C39.3096 29.6057 39.9458 30.2564 40.7194 30.6974C41.4424 31.1167 42.281 31.3553 43.1775 31.3553C44.074 31.3553 44.9127 31.1167 45.6357 30.6974V31.3553C45.6357 32.7145 44.5367 33.8134 43.1775 33.8134V36.2716C45.8887 36.2716 48.0938 34.0737 48.0938 31.3553V26.4391V21.53Z" fill="#FFB11A"/>
<path d="M66.7754 16.6138V21.53H65.5464V23.9882H66.7754V31.3553H69.2336V23.9882H70.4554V21.53H69.2336V16.6138H66.7754Z" fill="#FFB11A"/>
<path d="M10.7889 29.5762C10.854 29.7498 10.919 29.9233 10.9841 30.0896C11.1432 30.451 11.3311 30.7981 11.5552 31.1306C11.2227 30.198 10.8756 29.2871 10.5142 28.405C10.572 28.7954 10.666 29.1931 10.7889 29.5762Z" fill="#FFB11A"/>
<path d="M10.5063 28.3325C10.9328 29.3374 11.3305 30.3424 11.6992 31.3256C11.8076 31.4702 11.9233 31.6148 12.0462 31.7522C11.5474 30.3785 11.0196 29.0482 10.4629 27.7686C10.4701 27.9638 10.4846 28.1445 10.5063 28.3325Z" fill="#FFB11A"/>
<path d="M10.4628 27.7395C11.099 29.1494 11.6702 30.5447 12.1835 31.9111C12.2341 31.969 12.2847 32.0196 12.3425 32.0774C12.3859 32.1208 12.4365 32.1714 12.4799 32.2148C11.8509 30.5086 11.1713 28.8746 10.4556 27.313C10.4556 27.4576 10.4556 27.595 10.4628 27.7395Z" fill="#FFB11A"/>
<path d="M10.4629 27.2917C11.2799 29.0051 12.0028 30.7041 12.6318 32.3525C12.7186 32.432 12.8126 32.5043 12.9066 32.5839C12.1547 30.6029 11.3449 28.7159 10.4846 26.9302C10.4701 27.0459 10.4629 27.1688 10.4629 27.2917Z" fill="#FFB11A"/>
<path d="M10.4849 26.9154C11.4681 28.8819 12.3212 30.8412 13.0659 32.7065C13.1527 32.7716 13.2394 32.8294 13.3189 32.8872C12.4514 30.6749 11.5187 28.571 10.521 26.5901C10.5066 26.6985 10.4993 26.807 10.4849 26.9154Z" fill="#FFB11A"/>
<path d="M10.5278 26.5831C11.6701 28.7738 12.6534 30.9427 13.4993 32.996C13.5788 33.0466 13.6656 33.0972 13.7451 33.1406C12.7618 30.7258 11.7063 28.4412 10.5784 26.2939C10.5568 26.3879 10.5423 26.4892 10.5278 26.5831Z" fill="#FFB11A"/>
<path d="M10.5781 26.287C11.8723 28.6656 12.9856 31.0298 13.9255 33.2349C14.005 33.2782 14.0846 33.3144 14.1569 33.3505C13.0652 30.7623 11.8867 28.3114 10.636 26.0195C10.6143 26.1135 10.5926 26.2003 10.5781 26.287Z" fill="#FFB11A"/>
<path d="M10.6362 26.0192C12.0822 28.5714 13.3185 31.1018 14.3451 33.437C14.4174 33.4732 14.4969 33.5021 14.5765 33.531C13.3691 30.7909 12.075 28.1882 10.7013 25.7734C10.6724 25.853 10.6507 25.9397 10.6362 26.0192Z" fill="#FFB11A"/>
<path d="M10.7017 25.7733C12.2922 28.4845 13.6514 31.1595 14.772 33.6104C14.8443 33.6394 14.9166 33.661 14.9889 33.6827C13.6731 30.798 12.2633 28.0724 10.7667 25.542C10.745 25.6143 10.7233 25.6938 10.7017 25.7733Z" fill="#FFB11A"/>
<path d="M10.7671 25.5418C12.5095 28.3976 13.9843 31.2028 15.1989 33.7405C15.2712 33.7621 15.3435 33.7766 15.4158 33.7983C13.9843 30.7979 12.4516 27.9566 10.8466 25.325C10.8177 25.3972 10.796 25.4695 10.7671 25.5418Z" fill="#FFB11A"/>
<path d="M15.6255 33.8421C15.6978 33.8566 15.7628 33.871 15.8351 33.8783C14.2952 30.7767 12.6468 27.8414 10.9261 25.123C10.9261 25.123 10.9261 25.1157 10.9189 25.1157C10.89 25.1808 10.8683 25.2531 10.8394 25.3182C12.7263 28.3041 14.3241 31.2321 15.6255 33.8421Z" fill="#FFB11A"/>
<path d="M16.0588 33.9068C16.1239 33.914 16.1962 33.9212 16.2613 33.9284C14.5984 30.7401 12.8416 27.7181 11.0052 24.9274C11.0052 24.9274 11.0052 24.9202 10.998 24.9202C10.9691 24.9852 10.9401 25.0503 10.9185 25.1154C10.9185 25.1154 10.9185 25.1226 10.9257 25.1226C12.95 28.2169 14.6635 31.2462 16.0588 33.9068Z" fill="#FFB11A"/>
<path d="M16.485 33.9499C16.55 33.9571 16.6151 33.9571 16.6802 33.9571C14.9016 30.6893 13.0291 27.5949 11.0915 24.7392C11.0915 24.7392 11.0915 24.7319 11.0843 24.7319C11.0554 24.797 11.0265 24.8548 10.9976 24.9199C10.9976 24.9199 10.9976 24.9271 11.0048 24.9271C13.1737 28.1227 15.0101 31.246 16.485 33.9499Z" fill="#FFB11A"/>
<path d="M16.9191 33.9648C16.9842 33.9648 17.0492 33.9648 17.1143 33.9575C15.2201 30.6318 13.2319 27.4724 11.1859 24.5588C11.157 24.6167 11.128 24.6745 11.0991 24.7396C11.0991 24.7396 11.0991 24.7468 11.1064 24.7468C13.3982 28.0291 15.3575 31.2247 16.9191 33.9648Z" fill="#FFB11A"/>
<path d="M17.3452 33.9504C17.4103 33.9431 17.4681 33.9431 17.5332 33.9359C15.8631 31.138 13.752 27.8195 11.265 24.3926C11.2361 24.4504 11.2071 24.501 11.1782 24.5589C13.6147 27.9352 15.6968 31.1886 17.3452 33.9504Z" fill="#FFB11A"/>
<path d="M17.9527 33.8776C16.2031 31.0797 13.9763 27.7178 11.3591 24.2258C11.3302 24.2764 11.2941 24.3343 11.2651 24.3849C13.8317 27.8263 16.0368 31.1303 17.7647 33.8993C17.8298 33.8993 17.8949 33.8849 17.9527 33.8776Z" fill="#FFB11A"/>
<path d="M18.3724 33.7911C16.5432 31.0004 14.1936 27.6096 11.4607 24.0742C11.4318 24.1248 11.3956 24.1754 11.3667 24.226C14.0634 27.7253 16.3842 31.0654 18.1989 33.8344C18.2567 33.82 18.3145 33.8055 18.3724 33.7911Z" fill="#FFB11A"/>
<path d="M18.7842 33.6827C16.8756 30.9065 14.4102 27.494 11.5617 23.9153C11.5255 23.9659 11.4966 24.0165 11.4604 24.0671C14.2801 27.6097 16.7093 30.9788 18.6107 33.7333C18.6685 33.7189 18.7264 33.7044 18.7842 33.6827Z" fill="#FFB11A"/>
<path d="M19.0232 33.603C19.081 33.5813 19.1316 33.5669 19.1895 33.5452C19.1533 33.4946 19.1244 33.4512 19.0882 33.4006C17.1145 30.675 14.5768 27.3131 11.6632 23.7705C11.6271 23.8211 11.5982 23.8645 11.562 23.9151C14.4612 27.4432 16.9771 30.7906 18.9436 33.5018C18.9726 33.5379 18.9942 33.5741 19.0232 33.603Z" fill="#FFB11A"/>
<path d="M19.4208 33.4513C19.4714 33.4296 19.5292 33.4079 19.5798 33.379C19.5147 33.2922 19.4424 33.1982 19.3774 33.1115C17.3386 30.4364 14.7358 27.1324 11.7716 23.626C11.7355 23.6694 11.6993 23.72 11.6704 23.7633C14.6274 27.2553 17.2157 30.5449 19.2472 33.2054C19.3051 33.2922 19.3629 33.3717 19.4208 33.4513Z" fill="#FFB11A"/>
<path d="M19.9623 33.1914C17.656 30.3067 14.9087 26.9665 11.8794 23.489C11.8433 23.5324 11.8071 23.5758 11.771 23.6264C14.7858 27.075 17.5187 30.4007 19.8105 33.2709C19.8611 33.242 19.9117 33.2203 19.9623 33.1914Z" fill="#FFB11A"/>
<path d="M20.331 32.974C17.9452 30.1327 15.0966 26.8215 11.9878 23.3584C11.9517 23.4018 11.9155 23.4452 11.8794 23.4885C14.981 26.9371 17.815 30.2339 20.1864 33.0607C20.237 33.0318 20.2876 33.0029 20.331 32.974Z" fill="#FFB11A"/>
<path d="M20.6925 32.7283C18.2271 29.9376 15.2918 26.6626 12.1035 23.2212C12.0673 23.2646 12.0312 23.3079 11.9878 23.3513C15.1689 26.7782 18.0897 30.0389 20.5479 32.8295C20.5985 32.7934 20.6491 32.7645 20.6925 32.7283Z" fill="#FFB11A"/>
<path d="M21.0333 32.461C18.4956 29.7209 15.4808 26.5036 12.2202 23.0984C12.184 23.1418 12.1406 23.1779 12.1045 23.2213C15.3579 26.6193 18.3655 29.8366 20.9031 32.5694C20.9465 32.5333 20.9899 32.4971 21.0333 32.461Z" fill="#FFB11A"/>
<path d="M21.3578 32.1716C18.7478 29.4966 15.6607 26.3372 12.3422 22.9753C12.2989 23.0187 12.2627 23.0549 12.2266 23.0982C15.5378 26.4601 18.6249 29.6195 21.2349 32.2946C21.271 32.2512 21.3144 32.2078 21.3578 32.1716Z" fill="#FFB11A"/>
<path d="M21.6615 31.8606C18.9865 29.2507 15.827 26.1635 12.4652 22.8523C12.4218 22.8884 12.3857 22.9318 12.3423 22.968C15.7114 26.2864 18.8636 29.3736 21.5386 31.9835C21.582 31.9401 21.6181 31.904 21.6615 31.8606Z" fill="#FFB11A"/>
<path d="M21.9364 31.5282C19.2036 28.9978 15.9936 25.983 12.5956 22.7368C12.5522 22.773 12.5088 22.8163 12.4727 22.8525C15.8779 26.1059 19.0951 29.1207 21.8352 31.6584C21.8714 31.615 21.9075 31.5716 21.9364 31.5282Z" fill="#FFB11A"/>
<path d="M22.1969 31.1812C19.4134 28.723 16.1528 25.8022 12.7258 22.6211C12.6825 22.6572 12.6391 22.6934 12.5957 22.7368C16.0371 25.9251 19.3049 28.8604 22.1029 31.3258C22.1318 31.2751 22.1679 31.2318 22.1969 31.1812Z" fill="#FFB11A"/>
<path d="M22.4353 30.8197C19.6012 28.4411 16.3044 25.607 12.863 22.5127C12.8197 22.5488 12.7763 22.585 12.7329 22.6211C16.196 25.7372 19.5072 28.5785 22.3485 30.9643C22.3702 30.9137 22.4064 30.8703 22.4353 30.8197Z" fill="#FFB11A"/>
<path d="M22.6457 30.4365C19.7754 28.1447 16.4497 25.4118 13.0011 22.397C12.9578 22.4331 12.9071 22.4693 12.8638 22.5054C16.3341 25.5347 19.6815 28.2893 22.5661 30.5883C22.5878 30.5377 22.6168 30.4871 22.6457 30.4365Z" fill="#FFB11A"/>
<path d="M22.7541 30.2125C22.7757 30.1619 22.8047 30.1041 22.8264 30.0535C22.7468 29.9956 22.6673 29.9306 22.5878 29.8727C19.92 27.8412 16.6304 25.2529 13.1457 22.2959C13.1023 22.332 13.0517 22.361 13.0083 22.3971C16.5003 25.3686 19.8043 27.9713 22.4793 30.0029C22.5733 30.0752 22.6601 30.1402 22.7541 30.2125Z" fill="#FFB11A"/>
<path d="M22.9196 29.8148C22.9413 29.7569 22.963 29.7063 22.9774 29.6485C22.9413 29.6268 22.9051 29.5979 22.8762 29.5762C20.1578 27.6097 16.8177 25.0865 13.2823 22.1946C13.2317 22.2307 13.1883 22.2596 13.1377 22.2958C16.6803 25.2094 20.0421 27.7398 22.775 29.7208C22.8256 29.7497 22.869 29.7859 22.9196 29.8148Z" fill="#FFB11A"/>
<path d="M23.1076 29.2433C20.3531 27.3491 16.984 24.9126 13.4414 22.093C13.3908 22.1219 13.3402 22.1581 13.2896 22.1942C16.8683 25.0428 20.2808 27.5081 23.057 29.4168C23.0715 29.3517 23.0859 29.3011 23.1076 29.2433Z" fill="#FFB11A"/>
<path d="M23.2021 28.8243C20.4331 27.0097 17.0857 24.6889 13.5937 21.9922C13.5431 22.0211 13.4925 22.0573 13.4419 22.0862C16.9845 24.819 20.3753 27.1687 23.166 28.9978C23.1804 28.94 23.1949 28.8822 23.2021 28.8243Z" fill="#FFB11A"/>
<path d="M23.274 28.3978C20.505 26.6699 17.201 24.4648 13.7596 21.8982C13.709 21.9271 13.6512 21.956 13.6006 21.9922C17.0926 24.6021 20.4472 26.8361 23.2523 28.5857C23.2596 28.5207 23.2668 28.4628 23.274 28.3978Z" fill="#FFB11A"/>
<path d="M23.3176 27.971C20.5559 26.3226 17.3025 24.2404 13.9334 21.804C13.8755 21.8329 13.8249 21.8618 13.7671 21.8907C17.194 24.3705 20.5125 26.4889 23.3104 28.159C23.3104 28.1011 23.3176 28.0361 23.3176 27.971Z" fill="#FFB11A"/>
<path d="M23.3318 27.74C23.3318 27.6749 23.3318 27.6098 23.3391 27.5448C20.599 25.9831 17.4034 24.0238 14.1211 21.7248C14.1211 21.7248 14.1139 21.7248 14.1139 21.7175C14.056 21.7464 13.9982 21.7754 13.9331 21.8043C16.8467 23.8576 20.0061 25.8457 23.3318 27.74Z" fill="#FFB11A"/>
<path d="M23.3317 27.3135C23.3317 27.2484 23.3244 27.1833 23.3244 27.1183C20.6133 25.6434 17.4972 23.807 14.3016 21.6381C14.3016 21.6381 14.2944 21.6381 14.2944 21.6309C14.2294 21.6598 14.1715 21.6887 14.1064 21.7176C14.1064 21.7176 14.1137 21.7176 14.1137 21.7248C16.9694 23.6624 20.0638 25.535 23.3317 27.3135Z" fill="#FFB11A"/>
<path d="M14.1064 21.7175C14.1119 21.7175 14.1119 21.723 14.1064 21.7175C14.1119 21.723 14.1119 21.7175 14.1064 21.7175Z" fill="#FFB11A"/>
<path d="M23.3027 26.8867C23.2955 26.8217 23.2883 26.7494 23.2811 26.6843C20.6133 25.2962 17.5912 23.5755 14.4969 21.5512C14.4969 21.5512 14.4896 21.5512 14.4896 21.5439C14.4246 21.5729 14.3595 21.5946 14.2944 21.6235C14.2944 21.6235 14.3017 21.6235 14.3017 21.6307C17.0924 23.4671 20.1144 25.2311 23.3027 26.8867Z" fill="#FFB11A"/>
<path d="M23.2524 26.4675C23.2379 26.3952 23.2307 26.3301 23.2162 26.2578C20.6063 24.9564 17.6782 23.3587 14.6995 21.4717C14.6272 21.4934 14.5621 21.5223 14.4971 21.5512C14.4971 21.5512 14.5043 21.5512 14.5043 21.5584C17.2082 23.2719 20.1435 24.9203 23.2524 26.4675Z" fill="#FFB11A"/>
<path d="M23.1074 25.8239C20.5697 24.6093 17.7646 23.1345 14.9088 21.3921C14.8365 21.4138 14.7642 21.4427 14.6919 21.4644C17.3235 23.0694 20.1576 24.6021 23.1652 26.0336C23.1435 25.9685 23.1291 25.8962 23.1074 25.8239Z" fill="#FFB11A"/>
<path d="M22.9771 25.3973C20.5335 24.2767 17.8584 22.9175 15.14 21.3269C15.0605 21.3486 14.9882 21.3703 14.9087 21.3992C17.4391 22.8885 20.1647 24.3056 23.0422 25.6214C23.0277 25.5491 22.9988 25.4696 22.9771 25.3973Z" fill="#FFB11A"/>
<path d="M22.8115 24.9779C20.4763 23.9441 17.9459 22.715 15.3938 21.269C15.3142 21.2907 15.2275 21.3124 15.1479 21.3341C17.5627 22.7078 20.1582 24.0019 22.9055 25.2093C22.8766 25.1225 22.8477 25.0502 22.8115 24.9779Z" fill="#FFB11A"/>
<path d="M22.6094 24.5512C20.4043 23.6114 18.0401 22.498 15.6615 21.2039C15.5748 21.2183 15.488 21.24 15.394 21.2617C17.6859 22.5124 20.1368 23.6909 22.725 24.7826C22.6889 24.7031 22.6527 24.6235 22.6094 24.5512Z" fill="#FFB11A"/>
<path d="M22.37 24.1248C20.3167 23.2789 18.1478 22.2956 15.9572 21.1533C15.8632 21.1678 15.762 21.1822 15.668 21.2039C17.8152 22.3318 20.0998 23.3873 22.5146 24.3706C22.464 24.2838 22.4206 24.2043 22.37 24.1248Z" fill="#FFB11A"/>
<path d="M22.0735 23.6982C20.201 22.9536 18.249 22.1004 16.2825 21.1172C16.174 21.1244 16.0656 21.1389 15.9644 21.1533C17.9453 22.151 20.0492 23.0837 22.2615 23.9513C22.1964 23.8645 22.1386 23.7777 22.0735 23.6982Z" fill="#FFB11A"/>
<path d="M21.7269 23.2644C20.0785 22.6282 18.3795 21.9052 16.6661 21.0955C16.5432 21.1027 16.4203 21.1099 16.2974 21.1171C18.0831 21.9775 19.9773 22.7872 21.9511 23.5391C21.8788 23.4451 21.7992 23.3511 21.7269 23.2644Z" fill="#FFB11A"/>
<path d="M21.4519 22.9682C21.4012 22.9176 21.3434 22.8597 21.2856 22.8091C19.9191 22.2958 18.5165 21.7174 17.114 21.0884C16.9694 21.0812 16.8248 21.0812 16.6802 21.0884C18.2418 21.8042 19.8758 22.4766 21.582 23.1128C21.5386 23.0622 21.4952 23.0188 21.4519 22.9682Z" fill="#FFB11A"/>
<path d="M20.7001 22.3247C19.7096 21.956 18.7119 21.5583 17.707 21.1318C17.519 21.1101 17.331 21.0956 17.1431 21.0884C18.4227 21.6451 19.753 22.1728 21.1267 22.6717C20.9893 22.5488 20.8447 22.4331 20.7001 22.3247Z" fill="#FFB11A"/>
<path d="M19.4643 21.6162C19.2908 21.5511 19.1245 21.486 18.951 21.421C18.5678 21.2908 18.1774 21.2041 17.7798 21.1462C18.669 21.5077 19.5728 21.8548 20.5054 22.1873C20.1656 21.9632 19.8186 21.7752 19.4643 21.6162Z" fill="#FFB11A"/>
<path d="M22.9993 18.1174C22.9342 17.9439 22.8691 17.7704 22.8041 17.6041C22.645 17.2426 22.457 16.8956 22.2329 16.563C22.5655 17.4956 22.9125 18.4066 23.274 19.2886C23.2234 18.8982 23.1294 18.5006 22.9993 18.1174Z" fill="#FFC556"/>
<path d="M23.2808 19.3604C22.8542 18.3554 22.4566 17.3505 22.0951 16.3672C21.9866 16.2226 21.871 16.078 21.748 15.9407C22.2469 17.3143 22.7747 18.6446 23.3314 19.9243C23.3241 19.7291 23.3097 19.5483 23.2808 19.3604Z" fill="#FFC556"/>
<path d="M23.3316 19.9538C22.6953 18.5439 22.1242 17.1486 21.6109 15.7822C21.5603 15.7243 21.5097 15.6737 21.4518 15.6159C21.4084 15.5725 21.3578 15.5219 21.3145 15.4785C21.9434 17.1847 22.623 18.8187 23.3388 20.3803C23.3388 20.2429 23.3388 20.0984 23.3316 19.9538Z" fill="#FFC556"/>
<path d="M23.3319 20.4016C22.5149 18.6881 21.7919 16.9891 21.1629 15.3407C21.0762 15.2612 20.9822 15.1889 20.8882 15.1094C21.6401 17.0903 22.4498 18.9773 23.3102 20.7631C23.3174 20.6474 23.3246 20.5245 23.3319 20.4016Z" fill="#FFC556"/>
<path d="M23.3033 20.778C22.3201 18.8115 21.4669 16.8522 20.7223 14.9869C20.6355 14.9218 20.5488 14.864 20.4692 14.8062C21.3368 17.0185 22.2695 19.1223 23.2672 21.1033C23.2816 20.9948 23.2961 20.8864 23.3033 20.778Z" fill="#FFC556"/>
<path d="M23.2661 21.1106C22.1238 18.92 21.1405 16.7511 20.2946 14.6978C20.2151 14.6472 20.1284 14.5966 20.0488 14.5532C21.0321 16.968 22.0876 19.2526 23.2155 21.3998C23.2372 21.3058 23.2516 21.2046 23.2661 21.1106Z" fill="#FFC556"/>
<path d="M23.216 21.4067C21.9218 19.0282 20.8084 16.664 19.8686 14.4589C19.789 14.4156 19.7095 14.3794 19.6372 14.3433C20.7289 16.9315 21.9074 19.3824 23.1581 21.6742C23.1798 21.5803 23.2015 21.4935 23.216 21.4067Z" fill="#FFC556"/>
<path d="M23.158 21.6741C21.7121 19.122 20.4758 16.5916 19.4491 14.2563C19.3768 14.2202 19.2973 14.1913 19.2178 14.1624C20.4252 16.9097 21.7193 19.5052 23.093 21.9199C23.1146 21.8404 23.1363 21.7536 23.158 21.6741Z" fill="#FFC556"/>
<path d="M23.0934 21.9202C21.5029 19.2091 20.1437 16.534 19.023 14.0904C18.9507 14.0614 18.8785 14.0398 18.8062 14.0181C20.122 16.9028 21.539 19.6284 23.0283 22.1516C23.05 22.0793 23.0717 21.9998 23.0934 21.9202Z" fill="#FFC556"/>
<path d="M23.0208 22.1514C21.2784 19.2957 19.8036 16.4905 18.589 13.9529C18.5167 13.9312 18.4444 13.9167 18.3721 13.895C19.8036 16.8954 21.3363 19.7367 22.9413 22.3683C22.9774 22.296 22.9991 22.2237 23.0208 22.1514Z" fill="#FFC556"/>
<path d="M18.1623 13.8518C18.09 13.8374 18.0249 13.8229 17.9526 13.8157C19.4926 16.9173 21.141 19.8525 22.8617 22.5709C22.8617 22.5709 22.8617 22.5782 22.8689 22.5782C22.8978 22.5131 22.9195 22.4408 22.9484 22.3757C21.0614 19.3898 19.4709 16.4618 18.1623 13.8518Z" fill="#FFC556"/>
<path d="M17.7361 13.7866C17.6711 13.7794 17.5988 13.7721 17.5337 13.7649C19.1893 16.9605 20.9534 19.9753 22.7825 22.7732C22.7825 22.7732 22.7825 22.7804 22.7898 22.7804C22.8187 22.7154 22.8476 22.6503 22.8693 22.5852C22.8693 22.5852 22.8693 22.578 22.8621 22.578C20.8449 19.4764 19.1242 16.4471 17.7361 13.7866Z" fill="#FFC556"/>
<path d="M17.3021 13.7431C17.2371 13.7358 17.172 13.7358 17.1069 13.7358C18.8855 17.0037 20.758 20.0981 22.6956 22.9538C22.6956 22.9538 22.6956 22.961 22.7028 22.961C22.7317 22.896 22.7606 22.8381 22.7895 22.7731C22.7895 22.7731 22.7895 22.7658 22.7823 22.7658C20.6206 19.5703 18.7842 16.447 17.3021 13.7431Z" fill="#FFC556"/>
<path d="M22.789 22.7721C22.789 22.7667 22.7836 22.7667 22.789 22.7721C22.7836 22.7667 22.789 22.7667 22.789 22.7721Z" fill="#FFC556"/>
<path d="M16.8754 13.7288C16.8103 13.7288 16.7452 13.7288 16.6802 13.736C18.5744 17.0617 20.5626 20.2211 22.6086 23.1347C22.6375 23.0769 22.6665 23.019 22.6954 22.954C22.6954 22.954 22.6954 22.9467 22.6881 22.9467C20.3963 19.6644 18.437 16.4688 16.8754 13.7288Z" fill="#FFC556"/>
<path d="M16.4492 13.7434C16.3841 13.7506 16.3263 13.7506 16.2612 13.7579C17.9313 16.5558 20.0424 19.8743 22.5295 23.3012C22.5584 23.2433 22.5873 23.1927 22.6162 23.1349C20.1725 19.7658 18.0976 16.5052 16.4492 13.7434Z" fill="#FFC556"/>
<path d="M15.8345 13.8155C17.5841 16.6135 19.8181 19.9753 22.428 23.4673C22.4569 23.4167 22.4931 23.3589 22.522 23.3083C19.9554 19.8669 17.7504 16.5556 16.0224 13.7866C15.9574 13.7939 15.8995 13.8083 15.8345 13.8155Z" fill="#FFC556"/>
<path d="M15.4224 13.902C17.2515 16.6927 19.6012 20.0835 22.334 23.6261C22.363 23.5755 22.3991 23.5249 22.428 23.4743C19.7313 19.975 17.4106 16.6277 15.5959 13.8586C15.538 13.8731 15.4802 13.8876 15.4224 13.902Z" fill="#FFC556"/>
<path d="M15.0103 14.0108C16.9189 16.7871 19.3843 20.1995 22.2328 23.7783C22.269 23.7276 22.2979 23.677 22.334 23.6264C19.5144 20.0838 17.0852 16.7148 15.1838 13.9602C15.1259 13.9747 15.0681 13.9964 15.0103 14.0108Z" fill="#FFC556"/>
<path d="M14.7718 14.0901C14.7139 14.1118 14.6633 14.1262 14.6055 14.1479C14.6416 14.1985 14.6705 14.2419 14.7067 14.2925C16.6804 17.0182 19.2181 20.38 22.1317 23.9226C22.1678 23.872 22.1968 23.8286 22.2329 23.778C19.3338 20.2499 16.8106 16.9097 14.8441 14.1913C14.8224 14.1552 14.7934 14.119 14.7718 14.0901Z" fill="#FFC556"/>
<path d="M14.3676 14.2419C14.3169 14.2636 14.2591 14.2853 14.2085 14.3142C14.2736 14.401 14.3459 14.495 14.4109 14.5817C16.4497 17.2568 19.0524 20.5608 22.0239 24.0672C22.06 24.0238 22.0962 23.9732 22.1251 23.9299C19.1753 20.4379 16.5799 17.1483 14.5483 14.4805C14.4905 14.401 14.4326 14.3215 14.3676 14.2419Z" fill="#FFC556"/>
<path d="M13.8315 14.5021C16.1378 17.3868 18.8852 20.727 21.9144 24.2045C21.9506 24.1611 21.9867 24.1178 22.0229 24.0671C19.0081 20.6185 16.2752 17.2928 13.9834 14.4226C13.9328 14.4515 13.8822 14.4732 13.8315 14.5021Z" fill="#FFC556"/>
<path d="M13.4556 14.7193C15.8414 17.5606 18.6899 20.8719 21.7987 24.3349C21.8349 24.2916 21.871 24.2482 21.9072 24.2048C18.8128 20.7634 15.9788 17.4666 13.6002 14.6326C13.5568 14.6615 13.5062 14.6904 13.4556 14.7193Z" fill="#FFC556"/>
<path d="M13.1011 14.9652C15.5664 17.7559 18.5017 21.031 21.69 24.4724C21.7262 24.429 21.7623 24.3856 21.8057 24.3423C18.6246 20.9153 15.7038 17.6547 13.2457 14.864C13.1878 14.9002 13.1445 14.9291 13.1011 14.9652Z" fill="#FFC556"/>
<path d="M12.7622 15.2325C15.2999 17.9726 18.3147 21.1898 21.5753 24.595C21.6114 24.5517 21.6548 24.5155 21.691 24.4721C18.4376 21.0741 15.43 17.8569 12.8923 15.124C12.849 15.1602 12.8056 15.1963 12.7622 15.2325Z" fill="#FFC556"/>
<path d="M12.437 15.5217C15.047 18.1967 18.1341 21.3561 21.4525 24.718C21.4959 24.6746 21.5321 24.6384 21.5682 24.5951C18.257 21.2332 15.1699 18.081 12.5599 15.406C12.5165 15.4422 12.4804 15.4855 12.437 15.5217Z" fill="#FFC556"/>
<path d="M12.1328 15.8329C14.8078 18.4428 17.96 21.5299 21.3291 24.8412C21.3725 24.805 21.4086 24.7617 21.452 24.7255C18.0829 21.407 14.9235 18.3199 12.2485 15.71C12.2123 15.7533 12.169 15.7895 12.1328 15.8329Z" fill="#FFC556"/>
<path d="M11.8516 16.1653C14.5844 18.7029 17.7944 21.7105 21.1997 24.9639C21.2431 24.9278 21.2864 24.8844 21.3226 24.8483C17.9174 21.5876 14.7001 18.5728 11.96 16.0352C11.9239 16.0785 11.8877 16.1219 11.8516 16.1653Z" fill="#FFC556"/>
<path d="M11.5903 16.5121C14.3738 18.9702 17.6344 21.8911 21.0686 25.0722C21.112 25.036 21.1553 24.9999 21.1987 24.9565C17.7573 21.7682 14.4822 18.8329 11.6915 16.3748C11.6554 16.4181 11.6265 16.4615 11.5903 16.5121Z" fill="#FFC556"/>
<path d="M11.3594 16.8738C14.1935 19.2524 17.4902 22.0865 20.9316 25.1809C20.975 25.1447 21.0184 25.1086 21.0617 25.0724C17.5987 21.9564 14.2874 19.1151 11.4461 16.7292C11.4172 16.7799 11.3883 16.8305 11.3594 16.8738Z" fill="#FFC556"/>
<path d="M11.1499 17.2571C14.0201 19.5489 17.3458 22.2818 20.7944 25.2966C20.8378 25.2604 20.8884 25.2243 20.9318 25.1881C17.4615 22.1588 14.1141 19.4043 11.2294 17.1052C11.2005 17.1558 11.1788 17.2064 11.1499 17.2571Z" fill="#FFC556"/>
<path d="M11.0406 17.4812C11.0189 17.5318 10.99 17.5896 10.9683 17.6403C11.0478 17.6981 11.1273 17.7632 11.2068 17.821C13.8746 19.8526 17.1642 22.4408 20.6489 25.3978C20.6923 25.3617 20.7429 25.3327 20.7863 25.2966C17.2871 22.3252 13.9831 19.7224 11.3081 17.6909C11.2213 17.6186 11.1273 17.5535 11.0406 17.4812Z" fill="#FFC556"/>
<path d="M10.8747 17.8787C10.853 17.9365 10.8314 17.9871 10.8169 18.0449C10.853 18.0666 10.8892 18.0956 10.9181 18.1172C13.6365 20.0837 16.9767 22.6069 20.5048 25.4988C20.5554 25.4627 20.5988 25.4338 20.6494 25.3976C17.1068 22.4913 13.745 19.9536 11.0193 17.9799C10.9687 17.9437 10.9253 17.9148 10.8747 17.8787Z" fill="#FFC556"/>
<path d="M10.687 18.4497C13.4416 20.3439 16.8106 22.7804 20.3532 25.6C20.4038 25.5711 20.4545 25.535 20.5051 25.4988C16.9263 22.6503 13.5139 20.1921 10.7376 18.2834C10.7232 18.3413 10.7015 18.3991 10.687 18.4497Z" fill="#FFC556"/>
<path d="M10.5859 18.8691C13.3549 20.6837 16.7023 23.0045 20.1943 25.7012C20.2449 25.6723 20.2955 25.6362 20.3461 25.6072C16.8108 22.8744 13.42 20.5247 10.6293 18.6956C10.6149 18.7534 10.6004 18.8112 10.5859 18.8691Z" fill="#FFC556"/>
<path d="M10.5142 19.2959C13.2832 21.031 16.5944 23.2289 20.0286 25.7954C20.0792 25.7665 20.137 25.7376 20.1876 25.7015C16.6956 23.0915 13.341 20.8575 10.5358 19.1079C10.5358 19.173 10.5214 19.2308 10.5142 19.2959Z" fill="#FFC556"/>
<path d="M10.4697 19.7222C13.2315 21.3705 16.4849 23.4527 19.854 25.8892C19.9118 25.8602 19.9624 25.8313 20.0203 25.8024C16.6006 23.3154 13.2821 21.197 10.4842 19.5342C10.477 19.592 10.477 19.6571 10.4697 19.7222Z" fill="#FFC556"/>
<path d="M10.4628 19.9534C10.4556 20.0184 10.4556 20.0835 10.4556 20.1486C13.1957 21.7102 16.3912 23.6695 19.6735 25.9686C19.6735 25.9686 19.6808 25.9686 19.6808 25.9758C19.7386 25.9469 19.7965 25.918 19.8615 25.889C16.9407 23.8358 13.7885 21.8476 10.4628 19.9534Z" fill="#FFC556"/>
<path d="M10.4629 20.3801C10.4629 20.4452 10.4701 20.5103 10.4701 20.5753C13.1813 22.0502 16.2973 23.8866 19.4929 26.0555C19.4929 26.0555 19.5001 26.0555 19.5001 26.0628C19.5652 26.0338 19.623 26.0049 19.6881 25.976C19.6881 25.976 19.6809 25.976 19.6809 25.9688C16.8179 24.0312 13.7235 22.1587 10.4629 20.3801Z" fill="#FFC556"/>
<path d="M10.4849 20.8069C10.4921 20.872 10.4993 20.9443 10.5066 21.0093C13.1743 22.3974 16.1964 24.1181 19.2907 26.1425C19.2907 26.1425 19.298 26.1425 19.298 26.1497C19.363 26.1208 19.4281 26.0991 19.4932 26.0702C19.4932 26.0702 19.4859 26.0702 19.4859 26.063C16.7025 24.2266 13.6804 22.4625 10.4849 20.8069Z" fill="#FFC556"/>
<path d="M19.4992 26.0618C19.4938 26.0618 19.4938 26.0563 19.4992 26.0618C19.4938 26.0563 19.4938 26.0618 19.4992 26.0618Z" fill="#FFC556"/>
<path d="M10.542 21.2332C10.5565 21.3055 10.5637 21.3705 10.5781 21.4428C13.1881 22.7442 16.1162 24.342 19.0948 26.2289C19.1671 26.2072 19.2322 26.1783 19.2973 26.1494C19.2973 26.1494 19.29 26.1494 19.29 26.1422C16.5789 24.4215 13.6436 22.7731 10.542 21.2332Z" fill="#FFC556"/>
<path d="M10.6804 21.8696C13.2181 23.0842 16.0232 24.5591 18.879 26.3014C18.9513 26.2797 19.0236 26.2508 19.0959 26.2291C16.4642 24.6241 13.6301 23.0914 10.6226 21.6599C10.6442 21.725 10.6659 21.7973 10.6804 21.8696Z" fill="#FFC556"/>
<path d="M10.8165 22.2961C13.2602 23.4168 15.9352 24.776 18.6536 26.3665C18.7331 26.3448 18.8054 26.3231 18.885 26.2942C16.3545 24.8049 13.6289 23.3878 10.7515 22.072C10.7659 22.1443 10.7876 22.2238 10.8165 22.2961Z" fill="#FFC556"/>
<path d="M10.9831 22.7228C13.3184 23.7567 15.8488 24.9857 18.4009 26.4317C18.4804 26.41 18.5672 26.3883 18.6467 26.3666C16.232 24.993 13.6365 23.6988 10.8892 22.4915C10.9181 22.571 10.947 22.6433 10.9831 22.7228Z" fill="#FFC556"/>
<path d="M11.1859 23.1418C13.391 24.0816 15.7551 25.195 18.1337 26.4891C18.2205 26.4747 18.3072 26.453 18.4012 26.4313C16.1094 25.1806 13.6585 24.0021 11.063 22.9104C11.1064 22.9899 11.1425 23.0695 11.1859 23.1418Z" fill="#FFC556"/>
<path d="M11.4249 23.5686C13.4781 24.4145 15.6471 25.3977 17.8377 26.54C17.9317 26.5256 18.0329 26.5111 18.1269 26.4894C15.9796 25.3616 13.695 24.306 11.2803 23.3228C11.3237 23.4095 11.3743 23.489 11.4249 23.5686Z" fill="#FFC556"/>
<path d="M11.7139 23.995C13.5864 24.7397 15.5384 25.5928 17.5049 26.576C17.6134 26.5688 17.7218 26.5543 17.823 26.5399C15.8421 25.5422 13.7382 24.6095 11.5259 23.7419C11.5909 23.8287 11.656 23.9155 11.7139 23.995Z" fill="#FFC556"/>
<path d="M12.0674 24.4288C13.7158 25.065 15.4148 25.788 17.1282 26.5977C17.2511 26.5905 17.374 26.5833 17.497 26.576C15.7112 25.7157 13.817 24.906 11.8433 24.1541C11.9156 24.248 11.9879 24.342 12.0674 24.4288Z" fill="#FFC556"/>
<path d="M12.343 24.7249C12.3936 24.7755 12.4515 24.8334 12.5093 24.884C13.8757 25.3973 15.2783 25.9757 16.6809 26.6047C16.8255 26.6119 16.9701 26.6119 17.1147 26.6047C15.5531 25.8889 13.9191 25.2165 12.2129 24.5803C12.249 24.6309 12.2924 24.6743 12.343 24.7249Z" fill="#FFC556"/>
<path d="M13.094 25.3688C14.0845 25.7375 15.0822 26.1351 16.0872 26.5617C16.2751 26.5834 16.4631 26.5978 16.6511 26.6051C15.3714 26.0484 14.0411 25.5206 12.6675 25.0217C12.8048 25.1446 12.9422 25.2603 13.094 25.3688Z" fill="#FFC556"/>
<path d="M14.3306 26.0772C14.5042 26.1423 14.6704 26.2074 14.844 26.2724C15.2271 26.4026 15.6175 26.4893 16.0152 26.5472C15.1259 26.1857 14.2222 25.8387 13.2896 25.5061C13.6221 25.7302 13.9692 25.9254 14.3306 26.0772Z" fill="#FFC556"/>
</g>
<defs>
<clipPath id="clip0">
<rect width="60" height="22.5425" fill="white" transform="translate(10.4556 13.7288)"/>
</clipPath>
</defs>
</svg>
