<svg width="70" height="50" viewBox="0 0 70 50" fill="none" xmlns="http://www.w3.org/2000/svg">
<path d="M56.7594 18.2978C56.7594 18.3397 56.7594 18.3827 56.7594 18.4246C56.7594 19.2528 56.7583 20.0798 56.7616 20.908C56.7616 21.0039 56.742 21.0392 56.6408 21.0337C56.4722 21.0249 56.3014 21.0282 56.1328 21.0326C56.0578 21.0348 56.0371 21.0084 56.0371 20.9345C56.0393 19.6751 56.0393 18.4158 56.0371 17.1565C56.0371 17.087 56.0578 17.0638 56.1263 17.066C56.283 17.0705 56.4396 17.0716 56.5962 17.0649C56.6659 17.0627 56.6952 17.1024 56.729 17.1499C57.1304 17.6968 57.535 18.2427 57.9343 18.7918C57.9984 18.8801 58.0278 18.8834 58.0942 18.7929C58.4934 18.2438 58.9002 17.7001 59.3017 17.1521C59.3484 17.0892 59.3952 17.0605 59.4735 17.0649C59.6084 17.0716 59.7433 17.0738 59.8771 17.0649C59.9728 17.0583 60.0011 17.0837 60 17.1862C59.9946 17.7674 59.9979 18.3485 59.9979 18.9297C59.9979 19.5902 59.9957 20.2508 60 20.9113C60.0011 21.0117 59.9739 21.0392 59.8771 21.0337C59.7216 21.0249 59.5638 21.0249 59.4083 21.0337C59.306 21.0392 59.2766 21.0095 59.2777 20.9036C59.2821 20.0843 59.2799 19.266 59.2799 18.4467C59.2799 18.4004 59.2919 18.3518 59.2625 18.2934C59.2299 18.3342 59.2005 18.3684 59.1733 18.4059C58.8426 18.8536 58.5119 19.3002 58.1812 19.7479C58.0702 19.8979 57.9419 19.8946 57.832 19.7424C57.4839 19.2594 57.1358 18.7764 56.7877 18.2923C56.7768 18.2945 56.7681 18.2967 56.7594 18.2978Z" fill="#283D36"/>
<path d="M44.5465 18.2941C44.1864 18.7793 43.8263 19.2645 43.4652 19.7486C43.438 19.7861 43.4206 19.8368 43.364 19.8434C43.2737 19.8534 43.1997 19.8589 43.1312 19.7596C42.7853 19.2645 42.4285 18.7771 42.0673 18.2764C42.0369 18.325 42.0499 18.368 42.0499 18.4077C42.0488 19.2402 42.0466 20.0717 42.0521 20.9043C42.0532 21.0112 42.0227 21.0388 41.9215 21.0333C41.7747 21.0245 41.6257 21.0234 41.4788 21.0333C41.3668 21.041 41.3319 21.0124 41.333 20.8922C41.3396 20.2316 41.3363 19.5711 41.3363 18.9105C41.3363 18.3382 41.3396 17.7659 41.3341 17.1935C41.333 17.0866 41.3635 17.0601 41.4636 17.0656C41.6278 17.0756 41.8193 17.0204 41.9509 17.0888C42.0836 17.1561 42.1587 17.3402 42.2577 17.4736C42.5808 17.9103 42.9017 18.3481 43.2248 18.7848C43.2509 18.8201 43.2781 18.8532 43.3096 18.8951C43.7339 18.3217 44.1538 17.757 44.5682 17.188C44.6313 17.102 44.6922 17.0568 44.8021 17.0656C44.9316 17.0767 45.0632 17.0711 45.1926 17.0667C45.2633 17.0645 45.2894 17.0822 45.2894 17.1605C45.2873 18.4198 45.2873 19.6791 45.2894 20.9385C45.2894 21.0157 45.2655 21.0366 45.1926 21.0333C45.036 21.0289 44.8793 21.0245 44.7238 21.0344C44.6085 21.0421 44.5715 21.0123 44.5726 20.8866C44.5791 20.0673 44.5758 19.2491 44.5758 18.4297C44.5758 18.3867 44.5758 18.3448 44.5758 18.3018C44.565 18.2985 44.5552 18.2963 44.5465 18.2941Z" fill="#283D36"/>
<path d="M36.3663 25.7206C36.3663 25.9191 36.3652 26.1165 36.3674 26.315C36.3674 26.3701 36.3587 26.4142 36.3174 26.4572C35.2818 27.5269 33.2911 27.2655 32.7787 25.7702C32.3392 24.4888 33.1583 23.053 34.6302 22.9869C35.2078 22.9604 35.7136 23.1435 36.1499 23.5305C36.2282 23.6 36.2499 23.643 36.1509 23.7147C36.028 23.804 35.9149 23.9088 35.8007 24.0113C35.7517 24.0554 35.7245 24.0543 35.6734 24.0069C35.21 23.5691 34.653 23.4842 34.1156 23.7643C33.6087 24.0279 33.3085 24.6145 33.377 25.2078C33.5043 26.3106 34.6802 26.8652 35.5755 26.2466C35.6592 26.1893 35.7006 26.1275 35.693 26.0205C35.6832 25.8937 35.6864 25.7647 35.6919 25.6379C35.6951 25.564 35.6723 25.5375 35.5972 25.5408C35.4406 25.5464 35.284 25.5397 35.1284 25.5441C35.0555 25.5464 35.0283 25.5232 35.0327 25.4471C35.0403 25.3115 34.9892 25.135 35.0555 25.0512C35.1251 24.9619 35.3068 25.0248 35.4395 25.0225C35.7136 25.0181 35.9878 25.0237 36.2608 25.0192C36.3435 25.0181 36.3739 25.038 36.3707 25.1273C36.362 25.3247 36.3663 25.5232 36.3663 25.7206Z" fill="#283D36"/>
<path d="M55.0987 18.4315C55.0987 18.7744 55.0987 19.1185 55.0987 19.4614C55.0987 20.4947 54.3742 21.185 53.3516 21.1266C52.4923 21.0769 51.9277 20.5763 51.7928 19.7426C51.7819 19.6776 51.7787 19.6114 51.7787 19.5452C51.7776 18.7579 51.7797 17.9694 51.7754 17.1821C51.7754 17.0905 51.7961 17.0607 51.8885 17.0652C52.0484 17.0729 52.2105 17.0751 52.3704 17.0652C52.4749 17.0585 52.489 17.0982 52.489 17.1909C52.4857 17.9352 52.4879 18.6785 52.4868 19.4228C52.4868 19.5375 52.4934 19.6522 52.5216 19.7636C52.6446 20.2587 53.0144 20.5256 53.5246 20.4892C54.012 20.455 54.3481 20.1363 54.3916 19.6357C54.4297 19.2012 54.3883 18.7645 54.3916 18.33C54.3938 17.9474 54.3916 17.5636 54.384 17.1809C54.3818 17.085 54.4101 17.063 54.4993 17.0663C54.6646 17.0729 54.83 17.074 54.9943 17.0663C55.0835 17.0619 55.1009 17.0949 55.0998 17.1776C55.0976 17.5956 55.0987 18.0135 55.0987 18.4315Z" fill="#283D36"/>
<path d="M50.2879 25.0432C50.2879 24.4356 50.2901 23.828 50.2858 23.2204C50.2847 23.1233 50.301 23.0858 50.4098 23.0869C51.2093 23.0925 52.0099 23.0913 52.8095 23.088C52.902 23.088 52.9422 23.1035 52.9335 23.2082C52.9237 23.3395 52.9259 23.4729 52.9324 23.6041C52.9368 23.6912 52.9085 23.7144 52.8247 23.7133C52.2558 23.71 51.6858 23.7133 51.1168 23.7089C51.0211 23.7078 50.9907 23.7287 50.9928 23.8313C51.0005 24.1037 50.9994 24.3771 50.9928 24.6506C50.9907 24.74 51.02 24.7598 51.1027 24.7587C51.5813 24.7554 52.0589 24.7598 52.5375 24.7543C52.6354 24.7532 52.667 24.7796 52.6605 24.8789C52.6518 25.0057 52.6529 25.1347 52.6605 25.2615C52.6648 25.3476 52.6398 25.3729 52.5528 25.3718C52.0741 25.3674 51.5966 25.374 51.1179 25.3663C51.0102 25.3652 50.9907 25.4005 50.9939 25.4986C51.0005 25.7534 51.0005 26.0092 50.9939 26.265C50.9917 26.361 51.0222 26.3786 51.1103 26.3786C51.6836 26.3742 52.258 26.3797 52.8313 26.3742C52.9324 26.3731 52.9672 26.3985 52.9596 26.5032C52.9498 26.6345 52.9531 26.7679 52.9585 26.8991C52.9618 26.9785 52.94 27.005 52.8574 27.0039C52.0361 27.0006 51.2137 27.0006 50.3924 27.0039C50.3042 27.0039 50.2847 26.9774 50.2847 26.8925C50.289 26.2761 50.2879 25.6596 50.2879 25.0432Z" fill="#283D36"/>
<path d="M35.832 30.0776C35.3392 29.5163 34.5277 29.4954 33.9935 29.8736C33.3267 30.3467 33.1994 31.3292 33.7248 31.9876C34.2242 32.6128 35.1771 32.6669 35.7645 32.0967C35.8428 32.0207 35.882 32.014 35.9494 32.1012C36.0321 32.2081 36.1278 32.3063 36.2214 32.4033C36.2649 32.4485 36.2725 32.4761 36.2214 32.5257C35.1379 33.5965 33.231 33.1421 32.7687 31.6766C32.3977 30.5011 33.1516 29.1899 34.4885 29.0135C35.1434 28.9275 35.7156 29.1083 36.2083 29.5538C36.2791 29.6178 36.2932 29.6586 36.2149 29.7258C36.0843 29.8394 35.9592 29.9607 35.832 30.0776Z" fill="#283D36"/>
<path d="M32.6675 19.0476C32.6599 18.0044 33.5041 17.0803 34.5321 16.9877C35.175 16.9292 35.7319 17.1057 36.2116 17.5412C36.2769 17.5997 36.2911 17.6383 36.2204 17.7045C36.1148 17.8026 36.018 17.9107 35.9234 18.0198C35.8733 18.0761 35.8472 18.0882 35.7852 18.0253C35.386 17.6206 34.9008 17.506 34.3711 17.6648C33.8348 17.8247 33.5117 18.2084 33.3975 18.7642C33.2713 19.3773 33.5628 20.0136 34.0991 20.3102C34.6441 20.6113 35.3131 20.5176 35.7569 20.0709C35.8135 20.0136 35.8461 19.9982 35.9071 20.0654C36.0158 20.1845 36.1333 20.297 36.2508 20.4084C36.2954 20.4514 36.2976 20.4768 36.2497 20.5209C35.6275 21.0965 34.9074 21.2542 34.11 21.005C33.3355 20.7624 32.8894 20.2033 32.7067 19.4159C32.6762 19.2935 32.673 19.1711 32.6675 19.0476Z" fill="#283D36"/>
<path d="M47.8224 26.0548C48.2086 25.0977 48.5882 24.1636 48.9603 23.2274C49.0027 23.1215 49.0516 23.0807 49.1669 23.0874C49.3617 23.0984 49.5575 23.0907 49.7707 23.0907C49.6456 23.3917 49.527 23.6773 49.4084 23.964C49.0049 24.94 48.6002 25.9159 48.1999 26.8929C48.1661 26.9767 48.1281 27.0175 48.0313 27.0109C47.8931 27.001 47.7528 27.001 47.6146 27.0109C47.5222 27.0175 47.4873 26.9789 47.4547 26.8995C46.9935 25.7769 46.5279 24.6555 46.0645 23.534C46.0057 23.3928 45.9481 23.2517 45.8828 23.0918C46.1265 23.0918 46.3538 23.0929 46.5823 23.0918C46.6573 23.0918 46.6563 23.1546 46.6747 23.1998C47.037 24.103 47.3992 25.0061 47.7604 25.9093C47.7756 25.9468 47.793 25.9865 47.8224 26.0548Z" fill="#283D36"/>
<path d="M47.715 31.3684C47.715 30.8534 47.7117 30.3385 47.7172 29.8224C47.7183 29.722 47.6911 29.6989 47.5953 29.7011C47.282 29.7077 46.9687 29.7 46.6565 29.7055C46.575 29.7066 46.5532 29.6834 46.5565 29.6029C46.563 29.4574 46.5608 29.3118 46.5575 29.1673C46.5565 29.1045 46.5663 29.0725 46.6413 29.0725C47.5975 29.0747 48.5548 29.0747 49.511 29.0725C49.5741 29.0725 49.5937 29.0924 49.5926 29.1552C49.5893 29.3096 49.5882 29.464 49.5926 29.6173C49.5947 29.6889 49.5697 29.7044 49.5034 29.7044C49.1901 29.7011 48.8768 29.7088 48.5646 29.7C48.4569 29.6967 48.4395 29.7342 48.4395 29.8323C48.4427 30.8534 48.4395 31.8757 48.4438 32.8968C48.4438 33.0071 48.4177 33.0402 48.3089 33.0325C48.149 33.0225 47.9869 33.0236 47.827 33.0325C47.7324 33.0369 47.7128 33.0027 47.7139 32.9134C47.7172 32.3984 47.715 31.8834 47.715 31.3684Z" fill="#283D36"/>
<path d="M54.4402 31.0577C54.4402 30.4369 54.4424 29.816 54.438 29.1952C54.4369 29.0959 54.4609 29.0662 54.5599 29.0717C54.7154 29.0805 54.8732 29.0816 55.0287 29.0717C55.1375 29.064 55.1549 29.107 55.1549 29.2062C55.1516 30.2185 55.156 31.232 55.1495 32.2443C55.1484 32.3843 55.1897 32.4075 55.3159 32.4053C55.8119 32.3976 56.3069 32.4042 56.8029 32.3998C56.8911 32.3987 56.927 32.4163 56.9204 32.5144C56.9117 32.6589 56.9161 32.8045 56.9193 32.95C56.9215 33.0129 56.8998 33.0327 56.8378 33.0327C56.0643 33.0305 55.2898 33.0305 54.5163 33.0338C54.4184 33.0338 54.4413 32.9732 54.4413 32.9214C54.4391 32.2994 54.4402 31.6786 54.4402 31.0577Z" fill="#283D36"/>
<path d="M50.9177 19.0554C50.9177 19.6752 50.9155 20.296 50.9198 20.9158C50.9209 21.0062 50.9003 21.0382 50.8067 21.0337C50.6424 21.026 50.4771 21.026 50.3117 21.0337C50.2193 21.0382 50.1953 21.0073 50.1953 20.9158C50.1986 20.2651 50.1975 19.6134 50.1975 18.9628C50.1975 18.3739 50.2008 17.784 50.1953 17.1951C50.1943 17.0892 50.2247 17.0606 50.3259 17.0661C50.4858 17.0749 50.6479 17.0749 50.8078 17.0661C50.9013 17.0617 50.9209 17.0925 50.9209 17.183C50.9166 17.8071 50.9177 18.4313 50.9177 19.0554Z" fill="#283D36"/>
<path d="M45.8815 31.0569C45.8815 31.6767 45.8793 32.2975 45.8836 32.9173C45.8847 33.0088 45.8619 33.0386 45.7694 33.0331C45.6051 33.0253 45.4387 33.0264 45.2745 33.0331C45.1896 33.0364 45.1635 33.0121 45.1646 32.9239C45.1689 32.5633 45.1668 32.2027 45.1668 31.8421C45.1668 30.9621 45.1689 30.0821 45.1646 29.2021C45.1646 29.0985 45.1918 29.0654 45.294 29.0709C45.4539 29.0797 45.616 29.0786 45.7759 29.0709C45.864 29.0665 45.8836 29.0974 45.8825 29.1823C45.8804 29.8075 45.8815 30.4328 45.8815 31.0569Z" fill="#283D36"/>
<path d="M30.4467 14.8398C30.4467 14.7174 30.413 14.692 30.2976 14.692C23.6228 14.6942 16.9479 14.6942 10.2741 14.6909C10.1577 14.6909 10.1338 14.7196 10.1338 14.8343C10.1371 21.6117 10.1371 28.3892 10.1338 35.1678C10.1338 35.2858 10.1632 35.3089 10.2752 35.3089C16.9501 35.3056 23.6239 35.3056 30.2987 35.3089C30.4184 35.3089 30.4467 35.2781 30.4456 35.159C30.4423 31.7724 30.4434 28.3859 30.4434 24.9994C30.4434 21.6128 30.4434 18.2263 30.4467 14.8398ZM24.1221 32.3205C24.1232 32.3734 24.1221 32.4109 24.0492 32.4109C23.1071 32.4098 22.1607 32.4517 21.2383 32.1915C18.4611 31.4085 16.6455 29.6122 15.9199 26.7935C14.9746 23.1214 16.9729 19.3555 20.4811 18.0422C21.309 17.7323 22.1651 17.5867 23.0462 17.5911C23.3682 17.5922 23.6902 17.5933 24.0111 17.59C24.0905 17.5889 24.1177 17.6121 24.1145 17.6948C24.109 17.8536 24.109 18.0124 24.1145 18.1701C24.1166 18.2451 24.0938 18.2682 24.0187 18.2671C23.749 18.2627 23.4792 18.266 23.2105 18.266C21.6506 18.2395 20.232 18.6718 18.9908 19.6378C17.5321 20.7726 16.6672 22.2723 16.4214 24.1238C15.9569 27.6173 18.2555 30.8869 21.668 31.5993C22.2499 31.7206 22.8395 31.7449 23.4324 31.7349C23.6282 31.7316 23.824 31.7371 24.0198 31.7327C24.0938 31.7305 24.1286 31.7427 24.1243 31.8309C24.1166 31.9952 24.121 32.1584 24.1221 32.3205ZM24.1145 27.8411C24.109 27.8411 24.1036 27.8411 24.0981 27.8411C24.0981 28.8667 24.096 29.8934 24.1014 30.9189C24.1025 31.0369 24.0699 31.0634 23.9578 31.0601C23.4759 31.0446 22.9929 31.0799 22.511 31.0292C21.0588 30.877 19.8176 30.2727 18.8081 29.2074C17.6887 28.0275 17.135 26.6039 17.1361 24.9685C17.1394 22.4741 18.6688 20.2002 20.9065 19.3357C21.5668 19.0809 22.2521 18.9607 22.9581 18.9641C23.3019 18.9663 23.6445 18.9674 23.9883 18.9629C24.0742 18.9618 24.1134 18.9784 24.1079 19.0765C24.0992 19.221 24.1003 19.3677 24.1079 19.5121C24.1123 19.6014 24.0807 19.6213 23.9981 19.6213C23.5542 19.6213 23.1104 19.6092 22.6677 19.6334C21.2056 19.7117 19.9982 20.327 19.0637 21.4629C18.113 22.6174 17.7061 23.9606 17.8127 25.4581C17.9781 27.7794 19.7382 29.7952 21.99 30.2628C22.4403 30.3565 22.8928 30.383 23.3508 30.383C23.4346 30.383 23.4509 30.3543 23.4509 30.276C23.4487 28.6561 23.4487 27.035 23.4509 25.4151C23.4509 25.3324 23.4335 25.2883 23.3443 25.3048C23.2377 25.3247 23.2105 25.2751 23.2159 25.1736C23.2235 25.0247 23.2203 24.8748 23.217 24.7248C23.2159 24.6619 23.2246 24.6288 23.3008 24.63C23.5444 24.6344 23.7881 24.6355 24.0307 24.63C24.1351 24.6277 24.1134 24.6939 24.1134 24.7513C24.1145 25.7801 24.1145 26.8112 24.1145 27.8411ZM24.0873 21.4485C24.0873 21.5158 24.072 21.5423 24.0002 21.5401C23.8392 21.5357 23.6783 21.5345 23.5173 21.5401C23.4465 21.5423 23.4291 21.5158 23.4313 21.4496C23.4357 21.3129 23.4313 21.1762 23.4335 21.0405C23.4346 20.9887 23.4215 20.9633 23.3617 20.96C21.6908 20.8597 20.3299 21.6448 19.587 22.9946C19.154 23.7808 19.0398 24.6322 19.1366 25.511C19.3041 27.0273 20.0928 28.1014 21.4591 28.7377C21.8725 28.9307 22.3152 29.0266 22.771 29.0431C22.8548 29.0464 22.8831 29.0685 22.882 29.1545C22.8798 29.3133 22.8863 29.4721 22.895 29.6298C22.8994 29.7059 22.8754 29.7268 22.7993 29.7224C21.5472 29.6541 20.4844 29.1655 19.6392 28.2271C18.8342 27.3339 18.46 26.273 18.4502 25.0611C18.4426 24.0003 18.696 23.0277 19.3237 22.1774C20.2288 20.9501 21.446 20.316 22.9646 20.2929C23.0821 20.2907 23.1996 20.2929 23.3171 20.2929C23.539 20.2929 23.7609 20.2962 23.9828 20.2918C24.0601 20.2907 24.0894 20.3072 24.0884 20.3932C24.0829 20.7439 24.084 21.0957 24.0873 21.4485Z" fill="#283D36"/>
<path d="M48.7074 18.9313C48.7237 18.9214 48.7346 18.9148 48.7455 18.9081C49.359 18.5707 49.3187 17.6411 48.7563 17.2717C48.5464 17.1338 48.3136 17.0699 48.0656 17.0688C47.5097 17.0655 46.9527 17.0699 46.3968 17.0655C46.3044 17.0644 46.2924 17.0996 46.2935 17.179C46.2968 17.5308 46.2946 17.8837 46.2946 18.2355C46.2946 19.1243 46.2946 20.0142 46.2946 20.903C46.2946 20.9637 46.2685 21.0342 46.3816 21.0331C47.0115 21.0298 47.6424 21.0442 48.2723 21.0309C48.6225 21.0243 48.9358 20.8942 49.1697 20.6152C49.6484 20.0451 49.4351 19.2522 48.7074 18.9313ZM47.0028 17.7635C47.0017 17.6951 47.0213 17.6731 47.0898 17.6742C47.3846 17.6775 47.6805 17.672 47.9753 17.6764C48.2374 17.6808 48.4605 17.9234 48.4626 18.198C48.4648 18.4692 48.2407 18.7052 47.9709 18.7119C47.8273 18.7152 47.6848 18.713 47.5412 18.713C47.3933 18.713 47.2464 18.7096 47.0985 18.7141C47.0278 18.7163 47.0006 18.6986 47.0028 18.6214C47.0071 18.3358 47.006 18.0491 47.0028 17.7635ZM48.0601 20.4244C47.9078 20.4266 47.7566 20.4244 47.6043 20.4244C47.439 20.4244 47.2747 20.4211 47.1094 20.4255C47.0354 20.4277 47.0017 20.4156 47.0028 20.3274C47.0082 20.0065 47.0071 19.6856 47.0028 19.3647C47.0017 19.2864 47.03 19.2698 47.1007 19.2709C47.4259 19.2743 47.7523 19.2676 48.0775 19.2743C48.43 19.282 48.6758 19.5279 48.6715 19.8565C48.6671 20.1763 48.4061 20.42 48.0601 20.4244Z" fill="#283D36"/>
<path d="M45.3008 24.5502C45.2964 24.5028 45.2801 24.4554 45.2638 24.4102C44.9842 23.6195 44.4164 23.1608 43.6146 23.0306C42.7868 22.8961 42.0645 23.1464 41.5412 23.8279C40.9799 24.559 40.993 25.3651 41.5206 26.1867C42.2799 27.3688 43.8452 27.3688 44.7862 26.3675C45.1702 25.9595 45.3247 25.4523 45.3192 24.8921C45.3138 24.7785 45.3105 24.6638 45.3008 24.5502ZM43.2535 26.4392C42.4692 26.4425 41.8447 25.8195 41.8437 25.0332C41.8426 24.2558 42.4561 23.6261 43.2197 23.6217C44.003 23.6162 44.6111 24.2293 44.6198 25.0332C44.6274 25.8283 44.0378 26.4359 43.2535 26.4392Z" fill="#283D36"/>
<path d="M40.5073 26.8627C40.2669 26.4558 40.0265 26.0478 39.7839 25.6409C39.748 25.5813 39.7263 25.5427 39.8133 25.5042C40.3953 25.2428 40.603 24.5955 40.4627 24.032C40.3202 23.4597 39.8372 23.0969 39.2019 23.0902C38.6667 23.0847 38.1326 23.0914 37.5974 23.0869C37.5006 23.0858 37.4854 23.1211 37.4854 23.2082C37.4875 24.4323 37.4875 25.6563 37.4854 26.8815C37.4854 26.9752 37.5006 27.0149 37.6039 27.0094C37.7682 26.9995 37.9346 27.0006 38.0989 27.0094C38.1946 27.0138 38.212 26.9785 38.2109 26.8903C38.2066 26.5121 38.212 26.1327 38.2066 25.7545C38.2055 25.6674 38.2283 25.6409 38.3154 25.6431C38.5155 25.6497 38.7157 25.6497 38.9147 25.6431C39.0029 25.6398 39.0453 25.674 39.0855 25.7479C39.2998 26.1404 39.5196 26.5286 39.7371 26.919C39.7654 26.9686 39.7872 27.0116 39.8612 27.0094C40.095 27.0028 40.33 27.0072 40.5856 27.0072C40.553 26.9454 40.5312 26.9035 40.5073 26.8627ZM39.1791 25.0167C38.8843 25.0289 38.5884 25.0178 38.2925 25.0212C38.2175 25.0223 38.2077 24.9892 38.2088 24.9263C38.212 24.7366 38.2098 24.5481 38.2098 24.3584C38.2098 24.1687 38.2131 23.9802 38.2088 23.7905C38.2066 23.721 38.2272 23.7012 38.2958 23.7023C38.5786 23.7067 38.8614 23.7023 39.1432 23.7045C39.5098 23.7078 39.7915 23.9769 39.8024 24.3319C39.8144 24.7135 39.5609 25.0013 39.1791 25.0167Z" fill="#283D36"/>
<path d="M40.797 32.9678C40.2705 31.6864 39.744 30.4061 39.2197 29.1236C39.1947 29.0618 39.1577 29.0508 39.1 29.0519C38.9434 29.0552 38.7867 29.0596 38.6301 29.0508C38.5355 29.0453 38.4952 29.0828 38.4604 29.1677C37.9535 30.4094 37.4433 31.65 36.9353 32.8917C36.9211 32.9259 36.8918 32.959 36.9092 33.0086C37.1289 33.0086 37.3508 33.0064 37.5716 33.0097C37.6326 33.0108 37.6521 32.981 37.6728 32.9314C37.7511 32.7362 37.8371 32.5443 37.9121 32.348C37.9393 32.2786 37.9752 32.2587 38.047 32.2587C38.5822 32.262 39.1164 32.262 39.6516 32.2587C39.7244 32.2587 39.7582 32.2819 39.7843 32.3502C39.8604 32.5465 39.9453 32.7395 40.0236 32.9347C40.0432 32.9843 40.0649 33.013 40.1259 33.0119C40.3478 33.0075 40.5686 33.0108 40.7981 33.0108C40.7981 32.9854 40.7992 32.9755 40.797 32.9678ZM38.2004 31.6246C38.4191 31.1229 38.6344 30.63 38.8618 30.1095C39.0728 30.6266 39.2719 31.1185 39.4775 31.6246C39.0478 31.6246 38.6312 31.6246 38.2004 31.6246Z" fill="#283D36"/>
<path d="M40.381 20.2157C39.9643 19.2023 39.5455 18.19 39.1321 17.1743C39.0984 17.0916 39.0603 17.0608 38.9722 17.0652C38.8243 17.0729 38.6763 17.0751 38.5295 17.0652C38.4294 17.0586 38.3881 17.0972 38.3511 17.1876C37.8463 18.426 37.3383 19.6621 36.8314 20.8994C36.8151 20.9391 36.7868 20.9755 36.7988 21.0317C37.0272 21.0317 37.2567 21.0295 37.4863 21.0329C37.5515 21.034 37.5646 20.992 37.5831 20.9479C37.6614 20.7572 37.7441 20.5686 37.817 20.3756C37.8463 20.2995 37.8822 20.2698 37.9671 20.2698C38.4936 20.2742 39.019 20.2742 39.5455 20.2698C39.626 20.2686 39.6576 20.2984 39.6826 20.3712C39.7522 20.5653 39.8305 20.7561 39.9045 20.9479C39.9197 20.9876 39.9263 21.0329 39.9861 21.0317C40.2232 21.0295 40.4604 21.0306 40.716 21.0306C40.5996 20.7483 40.4897 20.4815 40.381 20.2157ZM38.1814 19.6544C38.1216 19.6544 38.0889 19.65 38.1237 19.575C38.3446 19.0997 38.5621 18.6234 38.7927 18.1227C39.0049 18.6432 39.2061 19.1405 39.415 19.6544C38.9886 19.6544 38.585 19.6533 38.1814 19.6544Z" fill="#283D36"/>
<path d="M53.7759 32.8761C53.3179 31.7612 52.8599 30.6463 52.4009 29.5314C52.3389 29.3815 52.3117 29.1808 52.2007 29.0981C52.0822 29.0109 51.882 29.0793 51.7177 29.0738C51.696 29.0727 51.6731 29.0771 51.6525 29.0727C51.5557 29.0539 51.5198 29.1058 51.4849 29.1896C51.0139 30.342 50.5385 31.4921 50.0642 32.6434C50.0131 32.768 49.9631 32.8937 49.9087 33.0304C50.1513 33.0304 50.3765 33.0282 50.6027 33.0316C50.668 33.0327 50.681 32.9919 50.6995 32.9466C50.78 32.7526 50.8638 32.5596 50.9389 32.3622C50.965 32.2927 51.002 32.2729 51.0737 32.2729C51.609 32.2762 52.1431 32.2762 52.6783 32.2729C52.7533 32.2729 52.7838 32.3004 52.8099 32.3677C52.885 32.564 52.9687 32.757 53.046 32.9533C53.0655 33.0029 53.0862 33.0327 53.1471 33.0316C53.3723 33.0282 53.5975 33.0304 53.8248 33.0304C53.827 32.9687 53.7955 32.9235 53.7759 32.8761ZM51.2228 31.6509C51.4436 31.1492 51.6612 30.6529 51.8907 30.1302C52.1028 30.6529 52.303 31.147 52.5075 31.6509C52.0789 31.6509 51.6612 31.6509 51.2228 31.6509Z" fill="#283D36"/>
<path d="M44.3077 29.8449C44.0847 29.3177 43.6397 29.0895 43.0882 29.0773C42.5802 29.0663 42.0711 29.0773 41.5631 29.0729C41.4695 29.0718 41.4478 29.1005 41.4489 29.192C41.4521 29.8129 41.451 30.4326 41.451 31.0535C41.451 31.6655 41.4554 32.2764 41.4478 32.8884C41.4467 33.0152 41.4859 33.0428 41.6001 33.0362C41.7469 33.0263 41.896 33.0274 42.0428 33.0362C42.1418 33.0417 42.1766 33.0163 42.1744 32.9083C42.1668 32.5565 42.1744 32.2047 42.1701 31.8519C42.169 31.7669 42.1897 31.7394 42.2778 31.7405C42.5519 31.7427 42.825 31.7383 43.0991 31.7306C43.4918 31.7206 43.8475 31.6037 44.1086 31.2928C44.4719 30.855 44.523 30.3532 44.3077 29.8449ZM43.1208 31.1075C42.8304 31.1207 42.5389 31.1108 42.2473 31.1152C42.1799 31.1163 42.169 31.0865 42.1701 31.0281C42.1723 30.8164 42.1712 30.6058 42.1712 30.394C42.1712 30.1955 42.1744 29.9981 42.1701 29.7996C42.169 29.7291 42.1821 29.6993 42.2604 29.7004C42.5389 29.7059 42.8163 29.6971 43.0947 29.7037C43.4483 29.7125 43.7333 30.0279 43.7387 30.4028C43.7442 30.7789 43.4776 31.091 43.1208 31.1075Z" fill="#283D36"/>
</svg>
