<svg width="98" height="50" viewBox="0 0 98 50" fill="none" xmlns="http://www.w3.org/2000/svg">
<path d="M19.2286 30.5997C18.3186 31.5097 17.0586 31.9997 15.6586 31.9997C12.8585 31.9997 10.6885 29.8296 10.6885 27.1696C10.6885 24.4396 12.9285 22.2695 15.6586 22.2695C16.9886 22.2695 18.2486 22.8295 19.1586 23.6696L17.4086 25.3496C17.0586 24.9296 16.4286 24.6496 15.7286 24.6496C14.3285 24.6496 13.2085 25.7696 13.2085 27.1696C13.2085 28.5696 14.3285 29.6196 15.7286 29.6196C16.4286 29.6196 17.0586 29.3396 17.4786 28.8496L19.2286 30.5997Z" fill="#517CEC"/>
<path d="M28.1894 30.39C27.2794 31.23 26.0893 31.6501 24.6893 31.6501C23.2893 31.6501 22.0993 31.23 21.1193 30.39C20.2092 29.55 19.7192 28.43 19.7192 27.03C19.7192 25.63 20.2092 24.5099 21.1193 23.6699C22.0293 22.8299 23.2193 22.4099 24.6893 22.4099C26.1593 22.4099 27.2794 22.8299 28.1894 23.6699C29.0994 24.5099 29.5894 25.63 29.5894 27.03C29.5894 28.36 29.0994 29.48 28.1894 30.39ZM24.6893 24.5099C23.9893 24.5099 23.4993 24.7199 23.0093 25.21C22.5893 25.63 22.3793 26.26 22.3793 27.03C22.3793 27.8 22.5893 28.43 23.0093 28.85C23.4293 29.27 23.9893 29.48 24.6893 29.48C25.3893 29.48 25.8793 29.27 26.3693 28.85C26.7893 28.43 26.9994 27.8 26.9994 27.03C26.9994 26.26 26.7893 25.63 26.3693 25.21C25.8793 24.7199 25.3893 24.5099 24.6893 24.5099Z" fill="#517CEC"/>
<path d="M34.14 19.61C34.14 20.03 34 20.38 33.65 20.66C33.09 21.22 32.04 21.22 31.48 20.66C30.43 19.75 31.27 18 32.53 18C33.44 18 34.14 18.7 34.14 19.61ZM33.86 31.4402H31.27V22.5501H33.86V31.4402Z" fill="#517CEC"/>
<path d="M44.5697 25.9797V31.5097H41.9797V26.4697C41.9797 25.3496 41.3497 24.7196 40.3697 24.7196C39.3897 24.7196 38.6896 25.4196 38.6896 26.5397V31.5097H36.0996V22.5496H38.5496V23.4596C39.0397 22.6896 39.8797 22.3396 40.9997 22.3396C43.0997 22.3396 44.5697 23.7396 44.5697 25.9797Z" fill="#517CEC"/>
<path d="M49.2595 18V23.3201C49.7495 22.6901 50.5195 22.3401 51.5695 22.3401C53.7395 22.3401 55.1396 23.7401 55.1396 25.9801V31.5102H52.5495V26.4701C52.5495 25.3501 51.9195 24.7201 50.9395 24.7201C49.9595 24.7201 49.2595 25.4201 49.2595 26.5401V31.5102H46.6694V18H49.2595Z" fill="#517CEC"/>
<path d="M64.0302 23.4596V22.4796H66.4803V31.4398H64.0302V30.5298C63.5402 31.1598 62.4902 31.6498 61.3002 31.6498C59.9702 31.6498 58.9202 31.2298 58.0802 30.3898C57.2401 29.5497 56.8901 28.4297 56.8901 27.0297C56.8901 25.6297 57.3101 24.5097 58.0802 23.6696C58.9202 22.8296 59.9702 22.4096 61.3002 22.4096C62.5602 22.3396 63.4702 22.6896 64.0302 23.4596ZM59.4802 27.0297C59.4802 28.6397 60.3902 29.4797 61.7202 29.4797C63.0502 29.4797 63.8902 28.6397 63.8902 27.1697V26.7497C63.8902 25.3497 62.9802 24.4397 61.7202 24.4397C60.3902 24.5097 59.4802 25.4197 59.4802 27.0297Z" fill="#517CEC"/>
<path d="M71.0993 25.7001L74.1094 22.5501H77.2594L73.7594 26.4001L77.4694 31.5102H74.3194L71.9393 28.2902L71.0993 29.1302V31.5102H68.5093V18H71.0993V25.7001Z" fill="#517CEC"/>
<path d="M86.0107 30.39C85.1006 31.23 83.9106 31.6501 82.5106 31.6501C81.1106 31.6501 79.9206 31.23 78.9405 30.39C78.0305 29.55 77.5405 28.43 77.5405 27.03C77.5405 25.63 78.0305 24.5099 78.9405 23.6699C79.8506 22.8299 81.0406 22.4099 82.5106 22.4099C83.9106 22.4099 85.1006 22.8299 86.0107 23.6699C86.9207 24.5099 87.4107 25.63 87.4107 27.03C87.4107 28.36 86.9907 29.48 86.0107 30.39ZM82.5106 24.5099C81.8106 24.5099 81.3206 24.7199 80.8306 25.21C80.4106 25.63 80.2006 26.26 80.2006 27.03C80.2006 27.8 80.4106 28.43 80.8306 28.85C81.2506 29.27 81.8106 29.48 82.5106 29.48C83.2106 29.48 83.7006 29.27 84.1906 28.85C84.6106 28.43 84.8206 27.8 84.8206 27.03C84.8206 26.26 84.6106 25.63 84.1906 25.21C83.7706 24.7199 83.2106 24.5099 82.5106 24.5099Z" fill="#517CEC"/>
</svg>
