<svg width="81" height="50" viewBox="0 0 81 50" fill="none" xmlns="http://www.w3.org/2000/svg">
<g clip-path="url(#clip0)">
<path d="M40.2795 34.7711C30.2971 34.7711 20.3042 34.7711 10.3218 34.7711C10.3218 28.2995 10.3218 21.8173 10.3218 15.3456C10.3218 15.2505 10.3429 15.2293 10.4381 15.2293C28.2245 15.2293 46.0109 15.2293 63.7973 15.2293C63.8078 15.2505 63.7973 15.261 63.7867 15.2716C63.6387 15.3033 63.48 15.3245 63.3214 15.3245C62.9196 15.3245 62.5178 15.3245 62.1159 15.3245C61.9996 15.3245 61.9044 15.3668 61.8304 15.4514C61.5766 15.7686 61.3123 16.0753 61.0585 16.3925C60.773 16.7521 60.6249 17.175 60.6143 17.6403C60.6038 17.8095 60.5826 17.8307 60.4134 17.8412C60.3077 17.8412 60.1914 17.8412 60.0856 17.8412C59.9587 17.8518 59.7366 18.0527 59.7155 18.169C59.7049 18.2536 59.7578 18.2642 59.8107 18.2642C59.9904 18.2642 60.1702 18.2642 60.3394 18.2642C60.5932 18.2642 60.6038 18.2748 60.6038 18.5392C60.6038 19.6812 60.6038 20.8338 60.6038 21.9759C60.6038 21.997 60.6038 22.0182 60.6038 22.0393C60.6038 22.2191 60.5826 22.2403 60.4028 22.272C60.2548 22.2931 60.1068 22.3037 59.9587 22.3248C59.9058 22.3354 59.853 22.3354 59.8635 22.4094C59.8741 22.4835 59.8741 22.5575 59.9693 22.5786C60.0116 22.5892 60.0433 22.5786 60.0856 22.5786C60.7307 22.5469 61.3863 22.5469 62.0313 22.5786C62.1159 22.5786 62.2005 22.5892 62.2217 22.4729C62.2428 22.346 62.2322 22.3248 62.0948 22.3037C61.915 22.2825 61.7247 22.2931 61.5343 22.2614C61.3757 22.2403 61.3546 22.2191 61.3546 22.0605C61.3546 21.7644 61.3546 21.4789 61.3546 21.1828C61.3546 20.3157 61.3546 19.4591 61.3546 18.592C61.3546 18.5497 61.3546 18.5074 61.3546 18.4651C61.3546 18.2959 61.3863 18.2748 61.5449 18.2642C61.566 18.2642 61.5766 18.2642 61.5978 18.2642C62.2005 18.2642 62.8033 18.2642 63.3954 18.2642C63.6175 18.2642 63.6387 18.2854 63.6387 18.4969C63.6387 19.6706 63.6387 20.8338 63.6387 22.0076C63.6387 22.2191 63.6175 22.2403 63.406 22.272C63.3108 22.2825 63.2262 22.2931 63.1311 22.3143C63.0571 22.3248 63.0253 22.3566 63.0359 22.4306C63.0465 22.5046 63.0676 22.5681 63.1522 22.5681C63.2368 22.5681 63.332 22.5469 63.4166 22.5469C63.8819 22.5469 64.3366 22.5469 64.8019 22.5469C64.8865 22.5469 64.9816 22.5681 65.0662 22.5681C65.172 22.5786 65.1931 22.5046 65.2037 22.42C65.2143 22.3248 65.1508 22.3143 65.0874 22.3143C64.9393 22.2931 64.7913 22.2825 64.6432 22.2614C64.4212 22.2403 64.4 22.2191 64.4 21.997C64.4 20.3263 64.4 18.6449 64.4 16.9741C64.4 16.4665 64.4 15.959 64.4 15.4514C64.4 15.3879 64.3895 15.3245 64.4106 15.261C64.4212 15.2505 64.4212 15.2293 64.4317 15.2188C66.3457 15.2188 68.2703 15.2188 70.1843 15.2188C70.2689 15.2188 70.29 15.2293 70.29 15.3245C70.29 21.7644 70.29 28.2149 70.29 34.6548C70.29 34.7499 70.2689 34.7605 70.1843 34.7605C61.0796 34.7605 51.9749 34.7605 42.8702 34.7605C42.8597 34.7499 42.8597 34.7394 42.8491 34.7182C42.8702 34.4539 42.8702 34.4644 42.6059 34.4327C42.3732 34.4116 42.1406 34.401 41.908 34.3693C41.8022 34.3587 41.7599 34.3058 41.7599 34.2001C41.7599 33.6079 41.7599 33.0051 41.7599 32.413C41.7599 32.2861 41.8022 32.2544 41.908 32.3072C42.3521 32.5399 42.7962 32.5081 43.2615 32.3707C43.6951 32.2438 44.0969 32.064 44.4247 31.7573C44.89 31.3344 45.1015 30.7845 45.1543 30.1712C45.1861 29.7376 45.1755 29.2935 45.0592 28.8599C44.9111 28.3629 44.6573 27.9399 44.1921 27.6756C43.896 27.5064 43.5682 27.4429 43.2298 27.4324C43.1346 27.4218 43.05 27.4535 42.976 27.517C42.6799 27.739 42.3838 27.9717 42.0877 28.1937C42.0349 28.236 41.9714 28.2783 41.9185 28.3206C41.8022 28.3946 41.7705 28.3841 41.7493 28.2466C41.7176 28.0668 41.7282 27.8871 41.7176 27.7073C41.707 27.6121 41.6647 27.5698 41.559 27.5804C41.4215 27.591 41.2841 27.6121 41.1466 27.6544C40.8717 27.739 40.5967 27.813 40.3218 27.8871C40.2372 27.9082 40.216 27.9611 40.2372 28.0351C40.2478 28.1197 40.2901 28.162 40.3746 28.1514C40.5227 28.1409 40.6707 28.1303 40.8188 28.1091C40.988 28.088 41.0197 28.1197 41.0197 28.2889C41.0197 28.7119 41.0197 29.1349 41.0197 29.5578C41.0197 31.0489 41.0197 32.5399 41.0197 34.0309C41.0197 34.0732 41.0197 34.126 41.0197 34.1683C41.0197 34.327 40.988 34.3587 40.8294 34.3798C40.7025 34.3904 40.5756 34.4116 40.4487 34.4327C40.2795 34.4539 40.2795 34.4539 40.2901 34.6336C40.2901 34.6653 40.3006 34.6971 40.2901 34.7182C40.3006 34.7499 40.29 34.7605 40.2795 34.7711Z" fill="#FDFDFD"/>
<path d="M64.4529 15.261C64.4529 15.3033 64.4529 15.3562 64.4529 15.3985C64.4529 17.6192 64.4529 19.8504 64.4529 22.0711C64.4529 22.1662 64.4635 22.2191 64.5798 22.2191C64.7807 22.2297 64.9817 22.2614 65.1826 22.2825C65.2566 22.2931 65.2778 22.3143 65.2672 22.3777C65.2355 22.6104 65.246 22.6104 65.0345 22.5998C64.4106 22.5681 63.7761 22.5681 63.1522 22.5998C63.0571 22.6104 63.0359 22.5681 63.0253 22.4835C62.9936 22.2825 62.9936 22.2825 63.1945 22.2508C63.258 22.2403 63.3109 22.2297 63.3743 22.2297C63.6387 22.1874 63.6387 22.1874 63.6387 21.9124C63.6387 20.7492 63.6387 19.5966 63.6387 18.4334C63.6387 18.3171 63.6069 18.2959 63.4906 18.2959C62.835 18.2959 62.1899 18.2959 61.5343 18.2959C61.4391 18.2959 61.418 18.3171 61.418 18.4123C61.418 19.6389 61.418 20.855 61.418 22.0816C61.418 22.1768 61.4497 22.198 61.5343 22.198C61.767 22.2085 61.9996 22.2297 62.2322 22.2403C62.2534 22.2403 62.3063 22.2508 62.3063 22.2508C62.3168 22.3566 62.2851 22.4517 62.2745 22.5469C62.264 22.6209 62.2005 22.5786 62.1582 22.5786C61.6189 22.5681 61.0902 22.5469 60.5509 22.5681C60.3605 22.5786 60.1596 22.5786 59.9693 22.5892C59.8952 22.5892 59.8741 22.5681 59.8635 22.5046C59.8212 22.2826 59.8212 22.2825 60.0327 22.2508C60.1913 22.2297 60.3394 22.2085 60.498 22.198C60.5826 22.198 60.5932 22.1557 60.5932 22.0922C60.5932 21.4577 60.5932 20.8233 60.5932 20.1888C60.5932 19.5966 60.5932 19.0044 60.5932 18.4123C60.5932 18.3171 60.572 18.2959 60.4768 18.2959C60.2442 18.3065 60.0221 18.2959 59.7895 18.2959C59.6626 18.2959 59.6097 18.2113 59.6837 18.1056C59.7578 17.9999 59.8529 17.9047 59.9375 17.8095C59.9693 17.7778 60.0116 17.7884 60.0433 17.7884C60.2019 17.7884 60.3605 17.7884 60.5086 17.7884C60.572 17.7884 60.5932 17.7778 60.5826 17.7143C60.5614 17.1116 60.7941 16.6146 61.1853 16.1705C61.418 15.9061 61.6401 15.6312 61.8621 15.3456C61.915 15.2822 61.9679 15.261 62.0419 15.261C62.6341 15.261 63.2157 15.2822 63.8079 15.2399C63.8607 15.2188 63.9136 15.2505 63.9665 15.2188C63.9876 15.2188 63.9982 15.2188 64.0194 15.2188C64.1251 15.2505 64.2309 15.2293 64.3366 15.2293C64.3578 15.2505 64.4106 15.2293 64.4529 15.261Z" fill="black"/>
<path d="M42.162 34.7711C41.739 34.7711 41.316 34.7711 40.8931 34.7711C40.8825 34.75 40.8931 34.7394 40.9036 34.7288C41.094 34.6759 41.2843 34.6971 41.4641 34.6865C41.6544 34.6865 41.8553 34.6971 42.0457 34.6971C42.0774 34.6971 42.1091 34.6971 42.1409 34.7182C42.162 34.7394 42.162 34.75 42.162 34.7711Z" fill="#F3F3F3"/>
<path d="M64.4525 15.2611C64.3362 15.2611 64.2092 15.2611 64.0929 15.2611C64.0612 15.2611 64.0295 15.2717 64.0083 15.24C64.1564 15.24 64.315 15.24 64.4631 15.24C64.4525 15.24 64.4525 15.2506 64.4525 15.2611Z" fill="#404040"/>
<path d="M42.1616 34.771C42.1616 34.7604 42.1616 34.7604 42.1616 34.7498C42.2568 34.6864 42.352 34.7075 42.4577 34.7287C42.4683 34.7392 42.4789 34.7498 42.4683 34.771C42.3625 34.771 42.2568 34.771 42.1616 34.771Z" fill="#BDBDBD"/>
<path d="M42.458 34.7711C42.458 34.7605 42.458 34.7605 42.458 34.75C42.5426 34.6865 42.6378 34.6971 42.7224 34.7288C42.733 34.7394 42.7435 34.75 42.733 34.7711C42.6484 34.7711 42.5532 34.7711 42.458 34.7711Z" fill="#7F7F7F"/>
<path d="M40.6605 34.7712C40.5759 34.7712 40.4913 34.7712 40.4067 34.7712C40.3961 34.7606 40.4067 34.7394 40.4173 34.7289C40.4913 34.6971 40.5759 34.6971 40.6499 34.7289C40.6711 34.7394 40.6711 34.75 40.6605 34.7712Z" fill="#818181"/>
<path d="M40.6602 34.7713C40.6602 34.7607 40.6602 34.7607 40.6602 34.7501C40.7342 34.6972 40.8082 34.6972 40.8929 34.7501C40.8929 34.7607 40.8929 34.7607 40.8929 34.7713C40.8188 34.7713 40.7342 34.7713 40.6602 34.7713Z" fill="#C0C0C0"/>
<path d="M63.9453 15.229C63.903 15.2819 63.8395 15.2502 63.7866 15.2502C63.7866 15.2396 63.7866 15.2396 63.7866 15.229C63.8501 15.229 63.8924 15.229 63.9453 15.229Z" fill="#B8B8B8"/>
<path d="M42.7432 34.7711C42.7432 34.7606 42.7432 34.7606 42.7432 34.75C42.796 34.7077 42.8489 34.7077 42.9018 34.75C42.9018 34.7606 42.9018 34.7711 42.9018 34.7711C42.8383 34.7711 42.796 34.7711 42.7432 34.7711Z" fill="#444444"/>
<path d="M40.4067 34.7497C40.4067 34.7603 40.4067 34.7603 40.4067 34.7709C40.3644 34.7709 40.3221 34.7709 40.2798 34.7709C40.2798 34.7603 40.2798 34.7497 40.2798 34.7392C40.3327 34.7074 40.375 34.7074 40.4067 34.7497Z" fill="#454545"/>
<path d="M19.3318 16.4032C19.3318 16.4667 19.3318 16.509 19.3318 16.5619C19.3318 20.3899 19.3318 24.2178 19.3318 28.0458C19.3318 28.1727 19.3001 28.2044 19.1732 28.2044C18.9723 28.1939 18.7713 28.1939 18.5599 28.2044C18.4964 28.2044 18.4647 28.1833 18.4753 28.1199C18.4753 28.0881 18.4753 28.0564 18.4753 28.0141C18.4753 24.2073 18.4753 20.3899 18.4753 16.583C18.4753 16.5301 18.4753 16.4878 18.4753 16.4244C18.4118 16.4138 18.3801 16.4455 18.3378 16.4667C16.2546 17.5136 14.1608 18.5605 12.0777 19.6073C11.9402 19.6814 11.9402 19.6814 11.8873 19.5227C11.3903 18.1798 10.8933 16.8368 10.3963 15.4833C10.3752 15.4515 10.3646 15.4198 10.354 15.3669C10.4069 15.3669 10.4597 15.3669 10.502 15.3669C16.1066 15.3669 21.7005 15.3669 27.305 15.3669C27.4636 15.3669 27.4636 15.3669 27.4108 15.515C26.9138 16.8685 26.4062 18.2115 25.9092 19.565C25.8774 19.6602 25.8457 19.6708 25.7611 19.6285C23.6674 18.571 21.563 17.5242 19.4693 16.4667C19.427 16.4455 19.3847 16.435 19.3318 16.4032Z" fill="black"/>
<path d="M23.5935 27.7917C23.5935 29.3038 23.5935 30.816 23.5935 32.3282C23.5935 32.4339 23.5829 32.4762 23.456 32.4762C20.4211 32.4762 17.3968 32.4762 14.3619 32.4762C14.2456 32.4762 14.2139 32.4445 14.2139 32.3282C14.2139 29.2933 14.2139 26.269 14.2139 23.2341C14.2139 23.1177 14.235 23.086 14.3619 23.086C15.1233 23.0966 15.8952 23.086 16.6566 23.086C16.7518 23.086 16.7835 23.1072 16.7729 23.2023C16.7623 23.4138 16.7623 23.6147 16.7729 23.8262C16.7729 23.9214 16.7518 23.9426 16.6566 23.9426C16.1702 23.932 15.6732 23.9426 15.1867 23.9426C15.1021 23.9426 15.0704 23.9531 15.0704 24.0589C15.0704 26.5439 15.0704 29.0183 15.0704 31.5034C15.0704 31.5985 15.0916 31.6197 15.1867 31.6197C17.6612 31.6197 20.1356 31.6197 22.6206 31.6197C22.7264 31.6197 22.7475 31.588 22.7475 31.4822C22.7475 29.0078 22.7475 26.5439 22.7475 24.0694C22.7475 23.9531 22.7158 23.932 22.6101 23.932C22.1236 23.9426 21.6266 23.932 21.1402 23.932C21.0556 23.932 21.0345 23.9108 21.0345 23.8262C21.045 23.6147 21.045 23.3927 21.0345 23.1812C21.0345 23.086 21.0662 23.0754 21.1508 23.0754C21.9227 23.0754 22.6947 23.0754 23.4666 23.0754C23.5723 23.0754 23.5935 23.0966 23.5935 23.2023C23.5935 24.7462 23.5935 26.269 23.5935 27.7917Z" fill="black"/>
<path d="M31.1428 22.6103C30.6246 22.6103 30.1171 22.6103 29.5989 22.6103C29.5037 22.6103 29.472 22.5892 29.4614 22.494C29.4297 22.2719 29.4297 22.2825 29.6412 22.2508C29.8633 22.2191 30.0748 22.1873 30.2968 22.1662C30.3814 22.1556 30.4026 22.1239 30.4026 22.0393C30.4026 21.0664 30.4026 20.083 30.4026 19.1102C30.4026 18.0527 30.4026 17.0058 30.4026 15.9484C30.4026 15.8532 30.3814 15.8109 30.2757 15.8003C30.0219 15.7792 29.7787 15.7369 29.5249 15.7051C29.4614 15.6946 29.4297 15.6734 29.4509 15.5994C29.5037 15.3139 29.4297 15.3668 29.7469 15.3668C30.4026 15.3773 31.0688 15.3879 31.7244 15.3773C32.2531 15.3668 32.7818 15.335 33.3106 15.3773C34.1565 15.4408 34.9073 15.7263 35.4784 16.3819C35.859 16.8155 36.0811 17.3336 36.1763 17.9047C36.3137 18.7506 36.2926 19.5754 35.9965 20.3897C35.637 21.3943 34.9073 22.0182 33.9133 22.3565C33.2894 22.5786 32.6444 22.642 31.9782 22.5998C31.6927 22.5892 31.4177 22.5998 31.1428 22.6103C31.1428 22.5998 31.1428 22.6103 31.1428 22.6103Z" fill="black"/>
<path d="M45.535 22.5996C45.3975 22.5362 45.2812 22.4833 45.1649 22.4093C44.9005 22.2295 44.7631 21.87 44.8265 21.5633C44.8371 21.5105 44.8794 21.4999 44.9111 21.4787C45.2072 21.2567 45.5138 21.0452 45.8311 20.8231C45.6725 20.7597 45.5244 20.6962 45.387 20.601C44.5304 20.0406 44.6679 18.9831 45.1332 18.4544C45.4293 18.116 45.8205 17.9257 46.2223 17.7671C46.9414 17.4921 47.5653 17.6613 48.1363 18.1372C48.1892 18.1795 48.2104 18.1583 48.2421 18.1266C48.3901 17.9786 48.5487 17.8411 48.6968 17.693C48.7285 17.6613 48.7602 17.6296 48.8131 17.6402C48.9611 17.6402 49.1198 17.6402 49.2678 17.6402C49.3313 17.6402 49.3524 17.6613 49.3418 17.7142C49.3418 17.9151 49.3418 18.116 49.3418 18.3064C49.3418 18.3592 49.3313 18.391 49.2678 18.391C49.2044 18.391 49.1303 18.4015 49.0669 18.391C48.8448 18.3592 48.6545 18.465 48.4641 18.5496C48.4218 18.5707 48.4113 18.5919 48.4324 18.6342C48.6968 19.3744 48.3373 20.104 47.7028 20.4847C47.3538 20.6962 46.9837 20.8337 46.5924 20.9289C46.5396 20.9394 46.4761 20.9394 46.4127 20.9289C46.2858 20.9077 46.2012 20.9394 46.1166 21.0452C45.9791 21.2144 45.8311 21.373 45.6936 21.5316C45.5773 21.6585 45.5984 21.8171 45.7465 21.9229C45.8205 21.9757 45.9051 21.9863 46.0003 21.9863C46.6242 21.9863 47.2375 21.9863 47.8614 21.9863C48.0517 21.9863 48.2527 22.0075 48.443 22.0603C49.0352 22.2189 49.3207 22.7371 49.1303 23.3293C48.9929 23.7523 48.6968 24.0589 48.3478 24.3127C47.8402 24.6934 47.2798 24.9472 46.6665 25.1164C46.4656 25.1692 46.2541 25.1269 46.0531 25.1058C45.7148 25.0741 45.387 25.0106 45.0803 24.852C44.4987 24.5453 44.3929 24.0483 44.4141 23.5513C44.4141 23.4879 44.467 23.4667 44.4987 23.435C44.8582 23.1601 45.186 22.8851 45.535 22.5996Z" fill="black"/>
<path d="M40.4061 34.75C40.3638 34.75 40.3215 34.75 40.2792 34.7394C40.2687 34.6442 40.1946 34.5173 40.2475 34.4539C40.3004 34.3798 40.4379 34.4116 40.533 34.3904C40.6493 34.3693 40.7762 34.3481 40.8926 34.3375C40.9772 34.3375 40.9772 34.2952 40.9772 34.2318C40.9772 32.2332 40.9772 30.2452 40.9772 28.2466C40.9772 28.1514 40.9454 28.1408 40.8608 28.1514C40.6705 28.1726 40.4802 28.1937 40.2898 28.2149C40.2369 28.2254 40.2158 28.2149 40.1946 28.1514C40.1418 27.9082 40.1418 27.9082 40.3744 27.8448C40.6282 27.7707 40.882 27.7073 41.1252 27.6333C41.2944 27.5804 41.4742 27.5804 41.6434 27.5487C41.7068 27.5381 41.7174 27.5592 41.7279 27.6227C41.7385 27.8765 41.7597 28.1197 41.7808 28.3946C42.024 28.2043 42.2672 28.0245 42.4999 27.8553C42.6691 27.7284 42.8383 27.591 43.018 27.4641C43.0498 27.4429 43.0709 27.4112 43.1132 27.4218C43.7583 27.4324 44.3293 27.6015 44.7417 28.1408C44.9849 28.4475 45.1012 28.807 45.1647 29.1877C45.2493 29.6953 45.2493 30.2029 45.1118 30.7105C44.9109 31.493 44.4139 32.0006 43.6737 32.2967C43.367 32.4235 43.0392 32.5081 42.7114 32.5399C42.447 32.5716 42.1827 32.4976 41.9394 32.3813C41.8971 32.3601 41.8548 32.339 41.8231 32.3178C41.7914 32.3284 41.802 32.3601 41.802 32.3707C41.802 32.9946 41.802 33.6185 41.802 34.2318C41.802 34.3058 41.8125 34.3375 41.8971 34.3481C42.2144 34.3693 42.5316 34.4116 42.8383 34.4327C42.9123 34.4433 42.9229 34.4644 42.9123 34.5279C42.8911 34.6019 42.8806 34.6759 42.87 34.75C42.8171 34.75 42.7642 34.75 42.7114 34.75C42.6162 34.75 42.521 34.75 42.4364 34.75C42.3307 34.75 42.2355 34.75 42.1298 34.75C41.7068 34.7394 41.2838 34.7288 40.8608 34.75C40.7868 34.75 40.7128 34.75 40.6282 34.75C40.5753 34.75 40.4907 34.75 40.4061 34.75Z" fill="black"/>
<path d="M35.8593 26.4488C35.8593 26.6286 35.8593 26.8084 35.8593 26.9987C35.8593 27.0727 35.8381 27.1045 35.7641 27.0939C35.7535 27.0939 35.743 27.0939 35.743 27.0939C35.6055 27.0833 35.4363 27.1468 35.3411 27.0727C35.2565 26.9987 35.2354 26.8295 35.1931 26.7026C35.1508 26.5757 35.0979 26.4383 35.0556 26.3114C35.0239 26.1739 34.9393 26.0893 34.8336 26.0047C33.8924 25.2645 32.412 25.2962 31.5132 26.0682C31.0584 26.4594 30.8152 26.967 30.6883 27.5486C30.4451 28.6695 30.5509 29.7375 31.1853 30.7104C31.7669 31.6092 32.6023 32.0745 33.6915 32.0322C34.1356 32.0111 34.5163 31.7996 34.8441 31.5141C34.9499 31.4189 35.0028 31.2497 35.0662 31.1122C35.1825 30.9007 35.2883 30.6893 35.394 30.4672C35.4257 30.4037 35.4575 30.372 35.5315 30.3826C35.6584 30.3932 35.7747 30.3826 35.9016 30.3826C35.965 30.3826 35.9756 30.4037 35.965 30.4672C35.8804 30.8796 35.7853 31.2814 35.7007 31.6938C35.6901 31.7467 35.6584 31.7679 35.6161 31.789C34.8864 32.1274 34.1462 32.4023 33.3637 32.561C33.0465 32.6244 32.7187 32.5715 32.412 32.4975C31.3334 32.2543 30.498 31.6833 29.9798 30.6893C29.6203 30.0019 29.5251 29.2617 29.578 28.5003C29.6309 27.7707 29.8424 27.0939 30.2971 26.5123C30.7729 25.9095 31.3968 25.5289 32.1159 25.2856C32.5706 25.127 33.0253 24.9896 33.5117 25.0107C34.3577 25.0319 35.1191 25.3174 35.8064 25.8038C35.8593 25.8355 35.8699 25.8884 35.8699 25.9413C35.8487 26.0893 35.8593 26.2691 35.8593 26.4488Z" fill="black"/>
<path d="M55.6338 18.6233C55.6761 18.5916 55.7184 18.581 55.7501 18.5493C56.1308 18.2955 56.5115 18.0523 56.871 17.7985C57.0614 17.6611 57.2411 17.5976 57.4738 17.6399C57.569 17.6611 57.6747 17.6611 57.7699 17.6822C58.3092 17.788 58.563 18.0735 58.6264 18.6339C58.6476 18.8243 58.6581 19.0252 58.6581 19.2155C58.6581 20.1672 58.6581 21.1189 58.6581 22.0707C58.6581 22.187 58.6899 22.2081 58.7956 22.2187C58.9965 22.2293 59.208 22.2716 59.4089 22.2821C59.4935 22.2927 59.4935 22.3139 59.483 22.3879C59.4407 22.6311 59.4407 22.6311 59.1869 22.6205C58.6476 22.5888 58.0977 22.5888 57.5584 22.6205C57.5161 22.6205 57.4632 22.6205 57.4209 22.6205C57.3575 22.6311 57.3469 22.5994 57.3363 22.5465C57.294 22.3033 57.294 22.3033 57.5372 22.2504C57.6324 22.2293 57.7699 22.2504 57.8227 22.187C57.8862 22.113 57.8439 21.9861 57.8439 21.8803C57.8439 21.0026 57.8439 20.1249 57.8439 19.2578C57.8439 19.1732 57.8439 19.0886 57.8227 19.004C57.7593 18.4859 57.3892 18.3378 56.9451 18.4013C56.723 18.433 56.5326 18.5387 56.3423 18.6551C56.1308 18.782 55.9299 18.9194 55.7184 19.0463C55.6655 19.078 55.6444 19.1098 55.6444 19.1732C55.6444 20.1461 55.6444 21.1295 55.6444 22.1024C55.6444 22.187 55.6761 22.2081 55.7501 22.2187C55.8876 22.2293 56.0356 22.261 56.1731 22.2821C56.2366 22.2927 56.2471 22.3139 56.2366 22.3667C56.2048 22.6205 56.2048 22.6205 55.951 22.61C55.38 22.5782 54.7984 22.5888 54.2274 22.6205C54.1111 22.6311 54.0899 22.5782 54.0793 22.4831C54.0582 22.2821 54.0582 22.2821 54.2485 22.2716C54.3966 22.2504 54.5552 22.2293 54.7032 22.2187C54.7878 22.2081 54.8196 22.187 54.8196 22.0918C54.809 21.838 54.8196 21.5736 54.8196 21.3199C54.8196 20.3893 54.8196 19.4482 54.8196 18.5176C54.8196 18.4119 54.809 18.3801 54.6927 18.4013C54.5129 18.433 54.3226 18.4436 54.1428 18.4647C54.0899 18.4753 54.0688 18.4647 54.0582 18.4119C53.9948 18.1581 53.9947 18.1581 54.2485 18.084C54.5235 18.01 54.7878 17.9254 55.0628 17.8514C55.1685 17.8197 55.2848 17.8091 55.4012 17.7985C55.5809 17.788 55.5809 17.788 55.5915 17.9571C55.6021 18.1263 55.6127 18.3061 55.6232 18.4753C55.6127 18.507 55.6232 18.5599 55.6338 18.6233Z" fill="black"/>
<path d="M67.6677 21.9229C67.8474 21.373 68.0378 20.8337 68.2175 20.2838C68.4396 19.6282 68.6617 18.9726 68.8837 18.317C68.9154 18.2324 68.9154 18.1795 68.8097 18.1689C68.7674 18.1689 68.7357 18.1478 68.6934 18.1478C68.4502 18.0949 68.4502 18.0949 68.4819 17.8517C68.4925 17.7777 68.5136 17.7671 68.5876 17.7671C69.1058 17.7988 69.6239 17.7988 70.1421 17.7671C70.2267 17.7565 70.2584 17.7882 70.269 17.8728C70.2901 18.0843 70.3007 18.0843 70.0786 18.1266C70.0046 18.1372 69.92 18.1689 69.846 18.1689C69.6662 18.1584 69.6028 18.2535 69.5393 18.4121C69.0318 19.734 68.5348 21.0558 68.006 22.3565C67.6465 23.2341 67.2447 24.1013 66.8534 24.9684C66.8323 25.0107 66.8111 25.0318 66.7583 25.0318C66.4305 25.0318 66.1026 25.0318 65.7854 25.0318C65.7114 25.0318 65.7008 25.0001 65.7008 24.9472C65.7008 24.6934 65.7008 24.4502 65.7008 24.1964C65.7008 24.1224 65.7325 24.1013 65.796 24.1013C65.9969 24.1013 66.1978 24.1013 66.4093 24.1013C66.4727 24.1013 66.5045 24.0801 66.5468 24.0272C66.8429 23.5514 67.1389 23.0861 67.435 22.6102C67.4456 22.5891 67.4879 22.5679 67.4562 22.5362C67.435 22.5045 67.3927 22.5362 67.3716 22.5362C67.2764 22.5785 67.2553 22.5362 67.2235 22.4622C66.6948 21.0875 66.1555 19.7022 65.6268 18.3276C65.5845 18.2324 65.5316 18.1901 65.4365 18.1795C65.299 18.1584 65.1509 18.1372 65.0135 18.1161C64.9289 18.1055 64.8866 18.0843 64.9077 17.9786C64.95 17.7671 64.9395 17.7671 65.1509 17.7777C65.7748 17.8094 66.3881 17.8094 67.012 17.7777C67.1072 17.7777 67.1389 17.7988 67.1495 17.894C67.1707 18.1055 67.1812 18.1055 66.9592 18.1372C66.8217 18.1584 66.6948 18.1795 66.5573 18.1901C66.4622 18.2007 66.4622 18.2324 66.4939 18.3064C66.7583 19.0466 67.0332 19.7763 67.287 20.5165C67.4033 20.8443 67.5619 21.1615 67.6042 21.5105C67.6148 21.648 67.6359 21.7854 67.6465 21.9229C67.6571 21.9229 67.6571 21.9229 67.6677 21.9229Z" fill="black"/>
<path d="M49.2466 20.326C49.2572 19.6281 49.4052 19.0359 49.8388 18.5389C50.2194 18.1054 50.727 17.8833 51.2663 17.7247C52.2603 17.418 53.4023 17.989 53.8147 19.0465C54.1003 19.7867 54.1003 20.5375 53.7936 21.2671C53.4446 22.1025 52.7361 22.5044 51.8902 22.6947C51.1606 22.8639 50.5367 22.663 49.9974 22.166C49.5321 21.743 49.3206 21.2037 49.2572 20.5904C49.2466 20.4846 49.2466 20.3789 49.2466 20.326Z" fill="black"/>
<path d="M39.011 31.6305C38.6198 31.9161 38.2391 32.191 37.8584 32.4765C37.795 32.5294 37.7315 32.54 37.6469 32.54C37.1922 32.5082 36.7798 32.3813 36.5049 31.9795C36.2088 31.5354 36.2193 31.0701 36.4414 30.5942C36.5366 30.4039 36.6635 30.2876 36.875 30.2241C37.5306 30.0232 38.1757 29.7906 38.8313 29.5791C38.9159 29.5474 38.9476 29.5156 38.937 29.431C38.9265 29.1455 38.9582 28.86 38.9159 28.5745C38.8524 28.1409 38.6515 27.9823 38.218 28.014C37.9642 28.0352 37.7104 28.0986 37.4672 28.1832C37.4037 28.2044 37.3826 28.2361 37.372 28.2996C37.3297 28.4793 37.2768 28.6697 37.2345 28.8494C37.2134 28.9235 37.1922 28.9658 37.1076 28.9552C36.9173 28.9446 36.7269 28.9552 36.5366 28.9552C36.4731 28.9552 36.452 28.9446 36.452 28.8706C36.452 28.6802 36.452 28.4899 36.452 28.2996C36.452 28.2361 36.4731 28.215 36.526 28.1832C37.0759 27.94 37.6258 27.6862 38.1757 27.443C38.1968 27.4324 38.218 27.4219 38.2391 27.4219C38.5881 27.4219 38.9476 27.4219 39.2648 27.5805C39.5821 27.7391 39.6773 28.0352 39.7301 28.3524C39.7724 28.5956 39.7724 28.8283 39.7724 29.0715C39.7724 29.8223 39.7724 30.5625 39.783 31.3133C39.783 31.4719 39.8253 31.6305 39.8993 31.7786C39.931 31.842 39.9733 31.8738 40.0579 31.8738C40.1743 31.8632 40.2906 31.8738 40.4175 31.8738C40.4809 31.8738 40.4915 31.8949 40.5021 31.9478C40.5338 32.2016 40.5338 32.2016 40.28 32.2439C39.9945 32.2967 39.709 32.3496 39.4235 32.4131C39.36 32.4236 39.3283 32.4131 39.3071 32.3496C39.2014 32.0958 39.1062 31.8738 39.011 31.6305Z" fill="black"/>
<path d="M43.7897 20.2417C43.7897 20.6224 43.7897 21.0454 43.7897 21.4684C43.7897 21.6587 43.832 21.8491 43.9272 22.0183C43.9589 22.0711 43.9906 22.0923 44.0435 22.0923C44.1598 22.0923 44.2762 22.0923 44.403 22.0923C44.4771 22.0923 44.4982 22.1134 44.5088 22.1874C44.5405 22.4095 44.5405 22.4095 44.3185 22.4518C44.0329 22.5047 43.7369 22.5576 43.4513 22.621C43.3562 22.6422 43.3245 22.621 43.2927 22.5258C43.2293 22.3355 43.1447 22.1451 43.0707 21.9442C43.0389 21.8702 43.0178 21.8596 42.9543 21.9125C42.5948 22.1769 42.2353 22.4412 41.8652 22.7056C41.8334 22.7267 41.8017 22.7585 41.7489 22.7585C41.2624 22.7479 40.8183 22.6316 40.5328 22.2086C40.2261 21.7645 40.2367 21.2886 40.4693 20.8128C40.5645 20.6224 40.6808 20.5061 40.8923 20.4426C41.5479 20.2417 42.1824 20.0091 42.838 19.7976C42.9438 19.7659 42.9755 19.713 42.9755 19.6073C42.9649 19.3006 42.9966 18.9834 42.9332 18.6767C42.8697 18.3806 42.7111 18.2537 42.415 18.2326C42.0872 18.2114 41.7806 18.3066 41.4739 18.4018C41.421 18.4229 41.4105 18.4441 41.3999 18.4969C41.3576 18.6873 41.2942 18.8776 41.2519 19.0785C41.2413 19.1526 41.2096 19.1737 41.1355 19.1737C40.9452 19.1631 40.7443 19.1737 40.5539 19.1737C40.4799 19.1737 40.4588 19.1526 40.4588 19.0785C40.4588 18.8882 40.4588 18.7084 40.4588 18.5181C40.4588 18.4546 40.4799 18.4335 40.5328 18.4123C41.0827 18.1691 41.622 17.9048 42.1824 17.6721C42.3622 17.5981 42.5631 17.6615 42.7429 17.6615C42.8063 17.6615 42.8697 17.6721 42.9332 17.6933C43.4619 17.799 43.7051 18.1057 43.758 18.7084C43.8003 19.1948 43.7686 19.7024 43.7897 20.2417Z" fill="black"/>
<path d="M54.5654 30.0125C54.5759 30.4037 54.5442 30.8902 54.5865 31.366C54.5865 31.4083 54.5971 31.44 54.6076 31.4823C54.6817 31.8313 54.7028 31.8524 55.0518 31.8524C55.295 31.8524 55.2844 31.8524 55.3056 32.0957C55.3161 32.1803 55.2738 32.1908 55.2104 32.2014C54.872 32.2649 54.5336 32.3283 54.2058 32.3917C54.1318 32.4023 54.1106 32.3812 54.0895 32.3283C54.0155 32.138 53.9309 31.9476 53.8674 31.7467C53.8357 31.641 53.804 31.6304 53.7088 31.6938C53.3599 31.9582 53.0109 32.212 52.6619 32.4658C52.5985 32.5081 52.5456 32.5292 52.461 32.5292C52.0698 32.4975 51.6997 32.4023 51.4247 32.1062C51.0546 31.715 50.9912 31.1017 51.2555 30.5941C51.3507 30.4037 51.4776 30.2768 51.6997 30.2134C52.3553 30.0125 53.0109 29.7798 53.6665 29.5578C53.7405 29.5366 53.7723 29.5049 53.7723 29.4203C53.7617 29.0925 53.7934 28.7647 53.73 28.4474C53.6665 28.1514 53.5185 28.0139 53.2224 27.9927C52.8946 27.9716 52.5774 28.0668 52.2707 28.1725C52.2178 28.1936 52.2178 28.2254 52.2072 28.2677C52.1544 28.458 52.1121 28.6484 52.0592 28.8493C52.0486 28.9021 52.0275 28.9339 51.964 28.9339C51.7631 28.9339 51.5622 28.9339 51.3507 28.9339C51.2873 28.9339 51.2661 28.9127 51.2661 28.8598C51.2661 28.6695 51.2661 28.4792 51.2661 28.2888C51.2661 28.2254 51.2873 28.1936 51.3401 28.1725C51.89 27.9293 52.4399 27.6755 52.9898 27.4323C53.0109 27.4217 53.0321 27.4111 53.0638 27.4111C53.3916 27.4111 53.7194 27.4111 54.0261 27.538C54.301 27.6543 54.4385 27.8658 54.5125 28.1408C54.5759 28.3946 54.5971 28.6589 54.5971 28.9233C54.5654 29.2617 54.5654 29.5895 54.5654 30.0125Z" fill="black"/>
<path d="M57.1247 28.5108C57.1247 29.6317 57.1247 30.742 57.1247 31.8629C57.1247 31.9581 57.1564 31.9898 57.2515 32.0004C57.4525 32.0109 57.6534 32.0532 57.8543 32.0638C57.9283 32.0744 57.96 32.085 57.9495 32.1696C57.9177 32.4022 57.9177 32.4022 57.6851 32.3916C57.0295 32.3705 56.3739 32.3705 55.7077 32.4022C55.6125 32.4022 55.5808 32.3705 55.5596 32.2859C55.5279 32.085 55.5279 32.085 55.7288 32.0532C55.8874 32.0321 56.0566 32.0109 56.2153 31.9898C56.2787 31.9792 56.2999 31.9686 56.2893 31.9052C56.2893 31.884 56.2893 31.8629 56.2893 31.8417C56.2893 29.8432 56.2893 27.834 56.2893 25.8354C56.2893 25.7085 56.247 25.6874 56.1412 25.6979C55.972 25.7085 55.7923 25.7085 55.6231 25.7191C55.5491 25.7191 55.5279 25.6979 55.5173 25.6345C55.4856 25.4018 55.475 25.4018 55.7077 25.3278C55.9826 25.2432 56.2576 25.1692 56.5325 25.0952C56.7017 25.0529 56.8709 25.0529 57.0506 25.0317C57.1035 25.0317 57.1141 25.0423 57.1141 25.0952C57.1141 25.1269 57.1141 25.1586 57.1141 25.1798C57.1247 26.2795 57.1247 27.3899 57.1247 28.5108Z" fill="black"/>
<path d="M48.5593 30.076C48.5593 29.3992 48.5593 28.807 48.5593 28.2148C48.5593 28.1197 48.5381 28.088 48.443 28.088C48.1892 28.0985 47.9248 28.088 47.671 28.088C47.6287 28.088 47.5653 28.1197 47.5547 28.0562C47.5441 28.0034 47.523 27.9293 47.5759 27.8765C47.671 27.7813 47.7662 27.6861 47.8614 27.5909C47.8931 27.5592 47.9354 27.5698 47.9671 27.5698C48.1469 27.5698 48.3267 27.5698 48.517 27.5698C48.5804 27.5698 48.6122 27.5486 48.6016 27.4852C48.6016 27.4429 48.6122 27.4006 48.6016 27.3583C48.5487 27.0305 48.665 26.7767 48.9083 26.5652C48.9929 26.5018 49.0563 26.4066 49.1197 26.3326C49.1515 26.3009 49.1726 26.2797 49.2255 26.2691C49.3735 26.2586 49.3841 26.2586 49.3841 26.4066C49.3841 26.7767 49.3841 27.1468 49.3841 27.5275C49.3841 27.6332 49.4053 27.665 49.511 27.665C49.9657 27.6544 50.4204 27.665 50.8751 27.665C50.9597 27.665 50.9914 27.6861 50.9809 27.7707C50.9703 27.8765 51.0126 28.0139 50.9597 28.0774C50.9068 28.1514 50.7588 28.0985 50.653 28.0985C50.2618 28.0985 49.8705 28.0985 49.4899 28.0985C49.4053 28.0985 49.3735 28.1197 49.3735 28.2148C49.3735 29.1877 49.3735 30.1711 49.3735 31.144C49.3735 31.1757 49.3735 31.2074 49.3735 31.2286C49.3947 31.7573 49.7119 31.8525 50.1243 31.789C50.3147 31.7573 50.4839 31.6833 50.6636 31.5987C50.7165 31.567 50.7482 31.567 50.7905 31.641C50.9068 31.8842 50.9174 31.8736 50.6742 32.0111C50.3993 32.1697 50.1137 32.3284 49.8388 32.487C49.8071 32.5081 49.7754 32.5398 49.7225 32.5398C49.4581 32.5398 49.1938 32.5293 48.9506 32.4235C48.6439 32.2966 48.5699 32.0428 48.5487 31.7467C48.5487 31.1546 48.5699 30.573 48.5593 30.076Z" fill="black"/>
<path d="M38.1859 19.0256C38.556 18.6027 38.9262 18.1797 39.2857 17.7673C39.3386 17.7038 39.3914 17.6721 39.476 17.6827C39.6664 17.6932 39.8462 17.6932 40.0365 17.6827C40.1422 17.6721 40.1634 17.7144 40.1528 17.8096C40.1422 18.0316 40.1422 18.2537 40.1528 18.4863C40.1528 18.5709 40.1422 18.6132 40.0365 18.6027C39.8885 18.5921 39.751 18.6027 39.6029 18.6027C39.4655 18.5921 39.3386 18.6344 39.2117 18.6978C38.8204 18.9199 38.5137 19.216 38.2388 19.5755C38.2071 19.6178 38.2071 19.6495 38.2071 19.6918C38.2071 20.4849 38.2071 21.278 38.2071 22.0605C38.2071 22.1346 38.2176 22.1663 38.3022 22.1663C38.5983 22.1874 38.8944 22.2192 39.1905 22.2403C39.2751 22.2509 39.2857 22.272 39.2645 22.346C39.2222 22.6104 39.2222 22.621 38.979 22.6104C38.2705 22.5893 37.5726 22.5681 36.8641 22.6104C36.7266 22.621 36.6843 22.5787 36.6737 22.4518C36.6632 22.2826 36.642 22.2826 36.8112 22.2614C36.9804 22.2403 37.1496 22.2192 37.3188 22.2086C37.3928 22.198 37.414 22.1769 37.414 22.1028C37.414 20.8973 37.414 19.6813 37.414 18.4758C37.414 18.3912 37.3928 18.3806 37.3082 18.3806C37.1179 18.4017 36.9275 18.4123 36.7372 18.444C36.6632 18.4546 36.6314 18.444 36.6209 18.3594C36.5891 18.1268 36.5786 18.1268 36.8112 18.0634C37.0967 17.9893 37.3822 17.9047 37.6678 17.8307C37.7947 17.799 37.9215 17.7884 38.059 17.7778C38.1648 17.7673 38.1753 17.8096 38.1753 17.8942C38.1859 18.2643 38.1859 18.6344 38.1859 19.0256Z" fill="black"/>
<path d="M47.0363 29.7589C47.0363 30.4569 47.0363 31.1548 47.0363 31.8527C47.0363 31.9479 47.0574 31.9796 47.1526 31.9902C47.3535 32.0007 47.565 32.0325 47.7659 32.0536C47.8399 32.0642 47.8505 32.0748 47.8399 32.1488C47.7976 32.3814 47.7976 32.3814 47.5756 32.3814C46.9199 32.3603 46.2537 32.3603 45.5981 32.392C45.5029 32.392 45.4606 32.3708 45.4712 32.2757C45.4712 32.2334 45.4606 32.2017 45.4501 32.1594C45.4289 32.0853 45.4501 32.0536 45.5347 32.043C45.7356 32.0219 45.9259 31.9902 46.1268 31.969C46.1903 31.9584 46.2114 31.9373 46.2114 31.8738C46.2114 30.6578 46.2114 29.4523 46.2114 28.2362C46.2114 28.1622 46.1797 28.1516 46.1268 28.1622C45.9365 28.1833 45.7462 28.1939 45.5558 28.2151C45.4712 28.2256 45.4395 28.2151 45.4289 28.1199C45.4078 27.8978 45.3972 27.8978 45.6193 27.8344C45.9048 27.7498 46.1903 27.6652 46.4652 27.5912C46.6238 27.5489 46.793 27.5594 46.9517 27.5277C47.0468 27.5171 47.0363 27.57 47.0363 27.6335C47.0363 28.1833 47.0363 28.7438 47.0363 29.2937C47.0363 29.4523 47.0363 29.6109 47.0363 29.7589Z" fill="black"/>
<path d="M46.6982 25.7828C46.7194 25.7828 46.7511 25.7723 46.7723 25.7723C47.0472 25.7511 47.0895 25.804 47.1318 26.0684C47.1741 26.3116 47.1212 26.5336 47.0683 26.7557C47.0578 26.7874 47.0578 26.8191 47.0155 26.8297C46.7511 26.8403 46.4867 26.9249 46.2224 26.8509C46.1589 26.8297 46.1272 26.8086 46.1166 26.7346C46.0743 26.4596 46.0638 26.1952 46.1378 25.9203C46.1589 25.8463 46.1801 25.804 46.2647 25.804C46.4127 25.8146 46.5608 25.7934 46.6982 25.7828Z" fill="black"/>
<path d="M63.6176 15.8428C63.6176 16.4984 63.6176 17.1329 63.6176 17.7673C63.6176 17.8308 63.5965 17.8414 63.533 17.8414C62.8457 17.8414 62.1583 17.8414 61.471 17.8414C61.4181 17.8414 61.397 17.8308 61.397 17.7673C61.4075 17.429 61.3864 17.0906 61.4498 16.7522C61.4921 16.4667 61.6613 16.2552 61.8411 16.0543C61.8728 16.0225 61.9046 16.0225 61.9469 16.0225C62.1055 16.0225 62.2641 16.0225 62.4333 16.0225C62.6342 16.0225 62.8457 16.0437 63.036 16.012C63.2264 16.0014 63.4167 15.9168 63.6176 15.8428Z" fill="#FEFEFE"/>
<path d="M16.8787 16.255C16.35 16.5194 15.8213 16.7838 15.2925 17.0481C14.362 17.5134 13.442 17.9787 12.5114 18.444C12.4268 18.4863 12.3951 18.4757 12.3634 18.3911C12.1096 17.7037 11.8558 17.027 11.602 16.3396C11.5703 16.2445 11.5809 16.2339 11.676 16.2339C13.3891 16.2339 15.1022 16.2339 16.8153 16.2339C16.8258 16.2339 16.847 16.2339 16.8576 16.2339C16.8787 16.2339 16.8787 16.2445 16.8787 16.255Z" fill="#FEFEFE"/>
<path d="M26.2254 16.2339C26.0351 16.7415 25.8447 17.249 25.665 17.7566C25.5804 17.9787 25.4958 18.1902 25.4218 18.4122C25.4006 18.4651 25.39 18.4968 25.316 18.4651C23.8567 17.7355 22.408 17.0058 20.9487 16.2762C20.9381 16.2762 20.9381 16.2656 20.917 16.255C22.6935 16.2339 24.4489 16.2339 26.2254 16.2339Z" fill="#FEFEFE"/>
<path d="M31.3228 18.9515C31.3228 17.9575 31.3228 16.9529 31.3228 15.9589C31.3228 15.8637 31.3439 15.8426 31.4391 15.832C31.7352 15.8214 32.0418 15.7897 32.3379 15.7897C33.7655 15.7686 34.8018 16.5828 35.0979 17.9892C35.3094 18.9726 35.2353 19.9349 34.7806 20.8443C34.3048 21.7855 33.3636 22.2613 32.4119 22.145C32.0947 22.1027 31.7669 22.0921 31.4391 22.071C31.3439 22.071 31.3228 22.0287 31.3228 21.9441C31.3228 20.9395 31.3228 19.9455 31.3228 18.9515Z" fill="#FEFEFE"/>
<path d="M46.8672 22.7056C47.1738 22.7161 47.5334 22.6844 47.8823 22.7584C48.263 22.843 48.3899 23.0545 48.3053 23.4352C48.2313 23.7842 48.0198 24.0591 47.7237 24.2495C47.0787 24.6619 46.4019 24.6619 45.7251 24.3552C45.5665 24.2812 45.4396 24.1754 45.3445 24.0274C45.2281 23.837 45.207 23.6467 45.3127 23.4564C45.4502 23.192 45.6511 22.9699 45.8414 22.7479C45.8732 22.7056 45.926 22.7056 45.9683 22.7056C46.2539 22.7056 46.5288 22.7056 46.8672 22.7056Z" fill="#FEFEFE"/>
<path d="M45.6303 19.1629C45.6197 19.036 45.6408 18.9197 45.6726 18.8034C45.7571 18.4544 45.9581 18.1901 46.3176 18.116C46.7194 18.0314 47.0789 18.1055 47.3433 18.4439C47.6605 18.8457 47.7451 19.3215 47.6394 19.8185C47.5548 20.2098 47.2481 20.4424 46.8569 20.4636C46.2224 20.4953 45.7889 20.1464 45.662 19.5013C45.6408 19.385 45.6197 19.2687 45.6303 19.1629Z" fill="#FEFEFE"/>
<path d="M41.8338 30.1501C41.8338 29.7483 41.8338 29.3571 41.8338 28.9552C41.8338 28.9129 41.8232 28.8706 41.8761 28.8283C42.1722 28.6063 42.4577 28.3736 42.7961 28.2044C43.2825 27.9718 43.6843 28.0775 43.9804 28.5217C44.1919 28.8283 44.2871 29.1879 44.3294 29.558C44.3928 30.0867 44.3928 30.6049 44.2025 31.1124C44.0439 31.546 43.7795 31.895 43.3037 32.0113C42.8172 32.1382 42.1616 31.895 41.8655 31.4931C41.8232 31.4402 41.8232 31.3874 41.8232 31.3239C41.8338 30.9327 41.8338 30.5414 41.8338 30.1501Z" fill="#FEFEFE"/>
<path d="M53.1591 20.2208C53.1486 20.6543 53.0957 21.0561 52.9371 21.4368C52.4929 22.4837 51.4566 22.452 50.8433 21.9127C50.4626 21.5743 50.2617 21.1407 50.1771 20.6543C50.0714 20.0727 50.1242 19.4911 50.3569 18.9412C50.8116 17.8626 51.9113 17.9684 52.4824 18.4971C52.863 18.8355 53.0428 19.2796 53.1274 19.766C53.1486 19.9247 53.1486 20.0833 53.1591 20.2208Z" fill="#FEFEFE"/>
<path d="M38.9366 29.9277C38.9366 30.3613 38.9366 30.7737 38.9366 31.1861C38.9366 31.2284 38.9155 31.2496 38.8838 31.2601C38.6617 31.4082 38.4502 31.5562 38.2176 31.7043C38.1012 31.7783 37.9638 31.8311 37.8263 31.8417C37.3928 31.884 37.1284 31.6514 37.1072 31.1967C37.0967 31.0804 37.1178 30.964 37.1495 30.8477C37.2024 30.6997 37.2764 30.5939 37.4351 30.5411C37.8898 30.3613 38.3339 30.1709 38.7886 29.9806C38.8415 29.97 38.8838 29.9595 38.9366 29.9277Z" fill="#FEFEFE"/>
<path d="M42.9652 20.1465C42.9652 20.5695 42.9652 20.9713 42.9652 21.3837C42.9652 21.4366 42.9441 21.4577 42.9124 21.4895C42.7009 21.6375 42.4894 21.7855 42.2673 21.923C42.0558 22.0499 41.8338 22.1239 41.58 22.0605C41.4108 22.0182 41.2839 21.9336 41.2205 21.775C41.1041 21.5318 41.1041 21.278 41.1993 21.0242C41.2416 20.9079 41.3262 20.8233 41.4531 20.781C41.9501 20.58 42.4471 20.3685 42.9652 20.1465Z" fill="#FEFEFE"/>
<path d="M53.7513 29.9387C53.7513 30.3617 53.7513 30.7741 53.7513 31.1865C53.7513 31.2394 53.7196 31.25 53.6879 31.2711C53.4975 31.4086 53.2966 31.546 53.1063 31.6729C52.8736 31.821 52.6198 31.9162 52.3343 31.8316C52.1651 31.7893 52.0488 31.6835 51.9854 31.5249C51.8902 31.2923 51.8902 31.0596 51.9748 30.8164C52.0171 30.6895 52.1017 30.6049 52.2391 30.552C52.7044 30.3723 53.1591 30.1714 53.6138 29.981C53.6561 29.9704 53.6984 29.9493 53.7513 29.9387Z" fill="#FEFEFE"/>
</g>
<defs>
<clipPath id="clip0">
<rect width="60" height="19.5418" fill="white" transform="translate(10.3218 15.229)"/>
</clipPath>
</defs>
</svg>
