<svg width="91" height="50" viewBox="0 0 91 50" fill="none" xmlns="http://www.w3.org/2000/svg">
<g clip-path="url(#clip0)">
<path d="M15.4873 17.8308L10.23 21.3235V31.4338L12.877 29.7058V24.6323L15.4873 22.9043V17.8308Z" fill="#2062AF"/>
<path d="M16.5166 22.9043L25.524 24.6323L16.5166 17.8308V22.9043Z" fill="#2062AF"/>
<path d="M13.9067 29.7059L22.9141 31.4338L13.9067 24.6323V29.7059Z" fill="#5A7A9F"/>
<path d="M16.5166 17.8308L25.524 24.6323V19.5588L16.5166 17.8308Z" fill="#547AA6"/>
<path d="M13.9067 24.6323L22.9141 26.397V31.4338L13.9067 24.6323Z" fill="#7C92AB"/>
<path d="M29.127 18.7866H29.2373H29.2741H29.3476H29.5682H29.7152H29.9358H29.9726H30.0829H30.1197H30.1932H30.23H30.5608H30.855H30.8917H31.0755H31.2961H31.3697H31.6638H31.8108H31.9211H32.105H32.1785H32.3991H32.4726H32.7667H32.8035H33.0241V20.0734H32.9873H32.6564H32.5461H32.4358H32.3623H32.2888H32.0682H31.9947H31.7005H31.6638H31.48H31.4064H31.3329H31.2961H31.002H30.7814H30.7079H30.4138H30.377H30.1932V21.3601H30.3035H30.6344H30.7447H30.7814H30.8182H30.855H30.9285H30.9652H31.0388H31.0755H31.4064H31.48H31.5535H31.5902H31.9211H32.1417H32.2152H32.5094H32.5461H32.73V22.5734H32.5094H32.4726H32.3991H32.3623H32.2888H32.252H31.9211H31.7005H31.5535H31.3329H31.2961H31.002H30.7814H30.7079H30.4138H30.377H30.1932V25.2204H30.0829H30.0461H30.0094H29.9726H29.9358H29.8991H29.8623H29.8255H29.7888H29.752H29.7152H29.6785H29.6417H29.605H29.5682H29.5314H29.4947H29.4579H29.4211H29.3844H29.3476H29.7152H29.6785H29.6417H29.605H29.5682H29.5314H29.4947H29.4579H29.4211H29.3844H29.3476H29.3108H29.2741H29.2373H29.2005H29.1638H29.127H29.0902H29.0535H29.0167H28.98H29.3476H29.3108H29.2741H29.2373H29.2005H29.1638H29.127H29.0902H29.0535H29.0167H28.98H28.9432H28.9064H28.8697H28.8329H28.7961H28.7594H28.7226H28.6858H28.6491H28.6123H28.98H28.9432H28.9064H28.8697H28.8329H28.7961H28.7594H28.7226H28.6858H28.6491H28.6123V25.1469V24.8528V24.7057V24.5587V24.5219V24.4484V24.1543V24.1175V23.7866V23.6395V23.566V23.2719V23.2351V23.1984V22.6837V22.5734V22.5366V22.4631V22.169V21.8748V21.8381V21.7645V21.7278V21.6543V21.6175V21.2498V20.9557V20.919V20.6984V20.4778V20.441V20.1469V20.0734V19.8895V19.7057V19.6322V19.4116V19.3381V19.044V19.0072V18.7866H29.127ZM34.8255 18.7866H34.8623H35.1564H35.1932H35.377H35.7079H35.7814H36.0755H36.1123H36.1491H36.6638H36.9579H37.105H37.2152H37.2888H37.3255H37.6564H37.8035H37.8402H38.1344H38.355H38.4285H38.7226H38.7594H38.9432V20.0734H38.6123H38.5388H38.2447H38.2079H38.0241H37.8035H37.73H37.4358H37.3991H37.2152H37.0314H36.9579H36.7005H36.627H36.3329H36.2961H36.1123V21.3601H36.1491H36.48H36.7005H36.7741H37.0682H37.1417H37.2152H37.2888H37.5829H37.73H37.8035H37.877H38.0976H38.1711H38.4652H38.502H38.6858V22.5366H38.4652H38.4285H38.355H38.3182H38.2447H38.1711H37.8402H37.6197H37.5094H37.2888H37.252H36.9579H36.7005H36.627H36.3329H36.2961H36.1123V23.8969C36.1491 23.9337 36.1858 23.9704 36.2226 23.9337H36.3329H36.6638H36.7741H37.0682H37.105H37.2888H37.5094H37.5829H37.877H37.9138H38.0976H38.2814H38.355H38.5755H38.6491H38.9432H38.98H39.1638V25.2204H39.127H39.0535H38.7594H38.7226H38.5388H38.2079H38.0608H37.9138H37.7667H37.6197H37.2888H37.252H37.2152H36.7005H36.5902H36.48H36.3697H36.2594H36.1858H36.0755H36.002H35.7079H35.5241H35.4505H35.377H35.3035H35.23H34.9358H34.8991H34.7152V25.1469V24.8528V24.7057V24.5587V24.5219V24.4484V24.1543V24.1175V23.7866V23.6395V23.566V23.2719V23.2351V23.1984V22.6837V22.5734V22.5366V22.4631V22.169V21.8748V21.8381V21.7645V21.7278V21.6543V21.6175V21.2498V20.9557V20.919V20.6984V20.4778V20.441V20.1469V20.0734V19.8895V19.7057V19.6322V19.4116V19.3381V19.044V19.0072V18.7866H34.8255ZM41.48 18.7866H41.7005H41.7741H41.8476H42.1417H42.2152H42.2888H42.3623H42.6564H42.6932H42.877L42.9505 18.8969L43.0241 19.0072L43.0976 19.1175L43.1711 19.2278L43.2447 19.3013L43.2814 19.3381V19.3748C43.2814 19.3748 43.3182 19.4116 43.2814 19.4116C43.355 19.4851 43.4285 19.5954 43.4652 19.669C43.5388 19.7425 43.6123 19.8528 43.6491 19.9263L43.7226 20.0366L43.7961 20.1469C43.8329 20.1837 43.8697 20.2204 43.8697 20.2572V20.294C43.9064 20.3307 43.9432 20.3675 43.9432 20.441C44.0535 20.5513 44.127 20.6984 44.1638 20.8087L44.2373 20.919C44.2373 20.919 44.2741 20.9557 44.2373 20.9557C44.3108 21.066 44.3844 21.1395 44.4211 21.2131L44.4947 21.3234L44.5314 21.4337L44.605 21.544L44.6785 21.6175L44.7152 21.691L44.752 21.7645C44.8255 21.8381 44.8623 21.9116 44.8991 21.9851L44.9358 22.0587L44.9726 22.1322L45.0094 22.169C45.0461 22.2425 45.1197 22.316 45.1197 22.3528L45.1564 22.3895L45.1932 22.4263V22.4631H45.23C45.2667 22.5366 45.3035 22.6101 45.3402 22.6469V22.6837C45.3402 22.6837 45.377 22.7204 45.3402 22.7204C45.4505 22.8307 45.5241 22.941 45.5608 23.0513V22.941V22.8307V22.6837V22.6101V22.316V22.1322V22.0587V21.9851V21.9116V21.8748V21.5807V21.544V21.3234V21.2498V20.9557V20.8822V20.6984V20.4778V20.4043V20.1101V20.0734V19.8895V19.7057V19.5954V19.3748V19.3013V19.044V18.9704V18.7866H45.7814H45.855H46.1491H46.2226H46.2961H46.3697H46.6638H46.7005H46.8844V25.1837H46.9947H46.8108H46.627H46.5167H46.4064H46.3329H46.2594H46.1858H46.1123H46.0755H46.0388H46.002H45.9652H46.002H45.9652H45.8182H45.7814H45.5608V25.1469C45.5241 25.1101 45.4873 25.0366 45.4873 24.9998C45.4873 24.9998 45.4505 24.9631 45.4873 24.9631C45.377 24.8528 45.3035 24.7425 45.2667 24.6322C45.2667 24.6322 45.23 24.5954 45.2667 24.5954L45.1932 24.4851C45.1197 24.4116 45.0829 24.3381 45.0461 24.3013L44.9726 24.191L44.8991 24.0807L44.7888 24.0072C44.7152 23.9337 44.6417 23.8601 44.605 23.7866L44.5682 23.7498C44.5314 23.6395 44.4579 23.566 44.4211 23.5293V23.4925L44.3844 23.4557L44.2373 23.2351C44.2005 23.1984 44.1638 23.1248 44.1638 23.0881C44.1638 23.0881 44.127 23.0513 44.1638 23.0513H44.127L44.0535 22.941V22.9043C44.0167 22.8675 43.98 22.794 43.98 22.7572C43.9432 22.7204 43.9432 22.6837 43.9432 22.6837L43.8697 22.6101L43.7961 22.4998L43.6858 22.3895H43.6491L43.6123 22.2425L43.4652 22.0219L43.4285 21.9484L43.3917 21.8748L43.3182 21.8381L43.2814 21.8013V21.7645C43.2079 21.691 43.1711 21.6543 43.1344 21.5807L43.0976 21.5072C43.0608 21.4337 43.0241 21.3969 42.9873 21.3234C42.9505 21.3234 42.9505 21.2866 42.9505 21.2866V21.2498V21.2131L42.877 21.1028L42.73 20.8822V25.1837H42.5094H42.4358H42.1417H42.0682H41.9947H41.9211H41.627H41.5902H41.4064V25.1469V25.0734V25.0366V24.9631V24.669V24.5219V24.3748V24.3381V24.0072V23.9337V23.8601V23.7866V23.7131V23.4925V23.419V23.1248V23.0881V22.9043V22.8307V22.7572V22.5366V22.4631V22.169V22.1322V21.9484V21.8381V21.691V21.5072V21.3969V21.3234V21.2866V20.7719V20.6616V20.5513V20.441V20.3307V20.2572V20.1469V20.0734V19.7793V19.5954V19.5219V19.4484V19.3748V19.3013V19.044V18.9704V18.7866H41.48ZM49.7152 18.7866H49.752H49.8255H49.8623H49.9358H49.9726H50.3035H50.4138H50.7447H50.855H50.9653H51.0388H51.1491H51.2226H51.5167H51.7005H51.7741H51.8476H51.9211H51.9947H52.2888H52.4358H52.5461H52.5829H52.6197H52.7667L53.0241 18.8601C53.502 19.0807 53.8329 19.3748 54.0535 19.816C54.3844 20.6248 54.2373 21.2498 53.5755 21.7278C54.0535 21.9484 54.3476 22.2793 54.4579 22.7572C54.6417 23.8969 54.2741 24.669 53.2814 25.0734H53.2447C53.0976 25.1469 52.9873 25.1837 52.877 25.1837L52.7667 25.2204H52.73H52.3255H52.2152H52.105H52.0682H52.0314H51.5167H51.4064H51.2961H51.1858H51.0388H50.9653H50.855H50.7814H50.4873H50.3035H50.23H50.1564H50.0829H50.0094H49.7152H49.6785H49.4947V25.1469V24.8528V24.7057V24.5587V24.5219V24.4484V24.1543V24.1175V23.7866V23.6395V23.566V23.2719V23.2351V23.1984V22.6837V22.5734V22.5366V22.4631V22.169V21.8748V21.8381V21.7645V21.7278V21.6543V21.6175V21.2498V20.9557V20.919V20.6984V20.4778V20.441V20.1469V20.0734V19.8895V19.7057V19.6322V19.4116V19.3381V19.044V19.0072V18.7866H49.7152ZM50.8182 21.3969H50.9285H51.002H51.2226H51.2961H51.5902H51.8108H51.9579H51.9947H52.0314H52.0682H52.105H52.2888H52.3991C52.7667 21.2131 52.9138 20.919 52.8402 20.5513C52.7667 20.4043 52.6932 20.2572 52.5461 20.1469C52.4726 20.1469 52.4358 20.1101 52.3991 20.0734H52.3255H52.2888H52.252C52.2153 20.0734 52.1417 20.0734 52.105 20.0734H52.0314H51.7741H51.7005H51.627H51.4064H51.3329H51.0388H51.002H50.8182V21.3969ZM50.8182 23.9704H51.1123H51.1858H51.2226H51.2594H51.48H51.6638H51.7005H51.7373H51.9211H52.2152C52.3623 23.9704 52.4726 23.9704 52.5829 23.9337C52.9873 23.7131 53.1344 23.419 53.0976 23.0145C53.0241 22.7572 52.8403 22.5366 52.6197 22.4263C52.5461 22.4263 52.4726 22.3895 52.3991 22.3895H52.105H52.0314H51.9579H51.9211H51.627H51.4064H51.3329H51.0388H51.002H50.8182V23.9704ZM56.5535 18.8234H56.627H56.7005H56.9947H57.1785H57.252H57.5461H57.6932H57.8035V22.8675L57.9138 23.2351C58.2079 23.7131 58.5755 24.0072 59.0902 24.0072C59.6417 23.9704 60.0461 23.7131 60.3035 23.2719V23.2351C60.377 23.0513 60.4138 22.9043 60.4505 22.7204C60.4505 22.5734 60.4873 22.4631 60.4505 22.3895V22.2425V22.0954V21.8748V21.8013V21.7645V21.691V21.6543V21.2866V20.9925V20.9557V20.7351V20.5145V20.4778V20.1837V20.1101V19.9263V19.7425V19.669V19.4484V19.3748V19.0807V19.044V18.8234H60.5241H60.5976H60.6344H60.9285H61.1491H61.2226H61.5167H61.5535H61.7373V22.9778C61.7373 23.0145 61.7373 23.0881 61.7373 23.1248V23.1616C61.7373 23.3087 61.7005 23.419 61.6638 23.5293C61.4064 24.2278 61.002 24.7425 60.4138 25.0734C59.7153 25.441 58.98 25.5145 58.2814 25.2572C56.8844 24.7425 56.2594 23.6028 56.4432 21.9116V21.691V21.4337V21.3601V21.3234V21.2498V21.2131V20.8454V20.7719V20.6616V20.5513V20.441V20.2204V19.7057V19.4484V19.4116V19.3013V19.2645V19.191V19.1543V18.8234H56.5535ZM69.2005 19.7057L69.0167 19.8895L68.98 19.9263L68.9432 19.9631L68.8697 19.9998L68.7961 20.0366L68.7594 20.0734L68.7226 20.1101L68.6491 20.1469C68.6123 20.1837 68.5755 20.2572 68.5388 20.2572L68.4285 20.3307V20.3675H68.3917C68.3182 20.441 68.2814 20.5145 68.2079 20.5513C67.5094 19.9631 66.7741 19.7793 66.0388 19.9998C66.002 20.0366 65.9652 20.0734 65.8917 20.0734C65.8182 20.1469 65.7814 20.1837 65.7079 20.2204V20.2572L65.6344 20.441C65.6344 20.6616 65.7079 20.8454 65.855 20.9925L66.1491 21.1028L66.4064 21.1395C66.48 21.1763 66.5535 21.1763 66.627 21.1763H66.7005H66.7741H66.8476H66.9211L66.9947 21.2131H67.0314H67.105L67.1785 21.2498H67.252H67.2888C67.3623 21.2866 67.3991 21.2866 67.4726 21.2866L67.6197 21.3234C67.6564 21.3601 67.73 21.3601 67.7667 21.3601H67.8035L68.0241 21.4337L68.0608 21.4704C68.1711 21.5072 68.2447 21.5807 68.3182 21.6543C68.355 21.6543 68.355 21.691 68.355 21.691H68.3917C68.4285 21.7278 68.4653 21.7645 68.502 21.8013C68.5755 21.8381 68.6123 21.9116 68.6858 21.9484C69.0903 22.4998 69.2005 23.0881 68.98 23.7131C68.7594 24.3381 68.355 24.7425 67.8035 24.9263C66.0388 25.4778 64.6417 25.1101 63.5388 23.8969L63.5755 23.8234L63.6491 23.7866C63.6858 23.7498 63.6858 23.7498 63.7226 23.7498C63.7594 23.6763 63.8329 23.6395 63.8697 23.6395C63.9064 23.6028 63.9064 23.6028 63.9432 23.6028C63.98 23.566 63.98 23.566 64.0167 23.566L64.0535 23.5293L64.0903 23.4925L64.127 23.4557L64.1638 23.419H64.2005L64.2373 23.3822H64.2741L64.3108 23.3454H64.3476H64.3844L64.605 23.1616C65.3402 23.8969 66.1858 24.1543 67.105 23.9337L67.1417 23.8969H67.1785V23.8601L67.4358 23.6763C67.4726 23.566 67.5094 23.4925 67.5461 23.4557C67.5829 23.1616 67.4726 22.9043 67.252 22.7204H67.1785L67.1417 22.6837H67.0682L66.9211 22.6469H66.8844H66.8108H66.7741C66.6638 22.6469 66.5903 22.6101 66.5167 22.5734H66.48H66.4432L66.2961 22.5366C66.1491 22.5366 66.0388 22.4998 65.9285 22.4631C64.8255 22.316 64.2373 21.7645 64.127 20.7351C64.1638 19.4851 64.8991 18.7498 66.3697 18.6028C67.5461 18.6028 68.502 18.9704 69.2005 19.7057ZM71.48 18.8234H71.5535H71.8476H71.9211H71.9947H72.0682H72.3623H72.3991H72.5829V21.2498H72.7667H72.8403H72.877H72.9505H72.9873H73.0608H73.0976H73.4285H73.7594H73.8329H74.127H74.2005H74.2741H74.4947H74.5682H74.8623H74.8991H75.0829V21.1395V21.0293V20.919V20.5881V20.4778V20.3675V20.294V20.1837V20.1101V19.816V19.6322V19.5587V19.4851V19.4116V19.3381V19.0807V19.0072V18.8234H75.3035H75.377H75.6711H75.7447H75.8182H75.8917H76.1858H76.3329H76.4432V25.2572H76.2226H76.1491H75.855H75.7814H75.7079H75.6344H75.3403H75.3035H75.1197V25.1469V25.1101V25.0734V24.5587V24.4484V24.3381V24.2278V24.1175V24.044V23.9337V23.8601V23.566V23.3822V23.3087V23.2351V23.1616V23.0881V22.794V22.7572V22.5734H75.0094H74.9358H74.8255H74.5682H74.4579H74.3844H74.2741H74.2005H73.9064H73.7226H73.6491H73.5755H73.502H73.4653H73.1711H73.0976H72.9138H72.877H72.8403H72.6197V25.294H72.3623H72.2888H71.9947H71.9211H71.8476H71.7741H71.48H71.4432H71.2594V25.1837V25.1101V25.0734V24.9998V24.7057V24.5587V24.4116V24.3748V24.044V23.9704V23.8969V23.8234V23.7498V23.5293V23.4557V23.1616V23.1248V22.941V22.8675V22.794V22.5734V22.4998V22.2057V22.169V21.9851V21.8748V21.7278V21.5807V21.4337V21.3601V21.3234V20.8087V20.6616V20.5881V20.4778V20.3675V20.294V20.1837V20.1101V19.816V19.6322V19.5587V19.4851V19.4116V19.3381V19.0807V19.0072V18.8234H71.48ZM79.127 18.8234H79.2005H79.4947H79.5682H79.6417H79.7153H80.0094H80.0461H80.23V25.2572H80.0094H79.9358H79.6417H79.5682H79.4947H79.4211H79.127H79.0903H78.9064V25.1837V25.1101V25.0734V24.9998V24.7057V24.5587V24.4116V24.3748V24.044V23.9704V23.8969V23.8234V23.7498V23.5293V23.4557V23.1616V23.1248V22.941V22.8675V22.794V22.5734V22.4998V22.2057V22.169V21.9851V21.8748V21.7278V21.5807V21.4337V21.3601V21.3234V20.8087V20.6616V20.5881V20.4778V20.3675V20.294V20.1837V20.1101V19.816V19.6322V19.5587V19.4851V19.4116V19.3381V19.0807V19.0072V18.8234H79.127Z" fill="#2062AF"/>
<path d="M32.9503 28.8602L32.9136 28.897L32.7298 28.9705H32.6562H32.6195C32.5459 29.0073 32.5092 29.0441 32.4724 29.0441H32.3989L32.3621 29.0808H32.3253L32.2886 29.1176V29.1176L32.2518 29.1544H32.215L32.1783 29.1911H32.1415L32.0312 29.2279C31.8474 28.5294 31.3695 28.2352 30.6709 28.3823C30.1195 28.6029 29.8621 29.0073 29.8621 29.6323C29.7886 30.2573 29.9356 30.7352 30.34 31.0661C30.6342 31.2867 30.965 31.3235 31.3327 31.2132C31.7739 31.0661 31.9945 30.8088 32.068 30.3676C32.1415 30.3676 32.215 30.4044 32.2518 30.4411C32.3253 30.4779 32.3989 30.4779 32.4356 30.5146L32.4724 30.5514L32.5459 30.5882H32.5827L32.6562 30.6249H32.693L32.7298 30.6617C32.7665 30.6617 32.8033 30.6985 32.84 30.6985L32.9871 30.7352C32.6562 31.6176 32.1048 32.0955 31.2224 32.1323C30.34 32.2058 29.715 31.9117 29.2371 31.2499C28.7592 30.4044 28.6856 29.5955 29.0165 28.7499C29.3474 27.9779 29.8989 27.5367 30.7077 27.4264C31.8106 27.3896 32.5827 27.8676 32.9503 28.8602ZM39.0165 27.5367H39.1636H39.5312H39.6783H39.715H39.7886H39.8253H39.8621H39.8989H40.1195V27.5735C40.1562 27.647 40.193 27.7205 40.193 27.7573L40.2298 27.8308V27.8676V27.9044V27.9411V27.9779C40.2665 28.0146 40.2665 28.0514 40.2665 28.0882L40.34 28.272V28.3088C40.3768 28.3823 40.4136 28.4558 40.4136 28.4926C40.4503 28.5661 40.4871 28.6396 40.4871 28.7132C40.4871 28.7499 40.5239 28.7499 40.5239 28.7867L40.5606 28.8235C40.5606 28.8602 40.5974 28.897 40.5974 28.9338V28.9705V29.0073C40.6342 29.0441 40.6342 29.0808 40.6342 29.1176L40.7077 29.3014V29.3382V29.3749L40.7445 29.4852L40.7812 29.522L40.818 29.5955V29.6323V29.6691L40.8548 29.7426C40.8548 29.7794 40.8915 29.8161 40.8915 29.8529V29.8896V29.9264C40.9283 29.9632 40.9283 29.9999 40.9283 30.0367L41.0018 30.2205V30.2941L41.0386 30.3676L41.0753 30.4411V30.4779L41.1121 30.5146V30.5514V30.6249C41.1856 30.772 41.2224 30.8823 41.2224 30.9926V31.0294C41.2959 31.1764 41.3327 31.2867 41.3327 31.397L41.3695 31.4338V31.4705V31.5073V31.5441V31.5808V31.6176V31.6544V31.6911L41.4062 31.7279V31.7646V31.8014C41.443 31.8382 41.443 31.8749 41.443 31.9117C41.4798 31.9852 41.4798 32.022 41.4798 32.0588L41.5165 32.1323H41.443H41.4062H41.1856H41.0386H41.1121H41.0753H41.0386H41.0018H40.818H40.7445H40.5974L40.5606 32.0588V32.022L40.5239 31.9852V31.9485C40.4871 31.9117 40.4871 31.8749 40.4871 31.8382L40.4503 31.8014V31.7646V31.7279L40.4136 31.6544L40.3768 31.2499H40.1562H39.9356H39.8621H39.7886H39.715H39.6415H39.6048H39.3842H39.2371H39.2003H39.1636H39.1268H39.09H38.9062H38.8695H38.7224V31.3235V31.397L38.6489 31.4338C38.6489 31.4705 38.6121 31.5073 38.6121 31.5441V31.6176V31.6544L38.5386 31.7279V31.7646V31.8014C38.5386 31.8382 38.5018 31.8749 38.5018 31.9117L38.465 32.0588H38.4283H38.3915H38.3548H38.1342H38.0974H37.8768H37.8033H37.4356L37.4724 31.9485L37.5092 31.8382V31.8014V31.7646V31.7279V31.6911L37.5827 31.5073V31.4705V31.4338V31.397L37.6195 31.3602L37.6562 31.2132V31.1764V31.1396V31.1029V31.0661C37.693 30.9926 37.693 30.9191 37.7298 30.8455L37.7665 30.772V30.7352C37.8033 30.6617 37.8033 30.5882 37.84 30.5146C37.84 30.4779 37.8768 30.4411 37.8768 30.4044L37.9136 30.2941L37.9503 30.2205L37.9871 30.1102V30.0735C38.0239 29.9999 38.0239 29.9264 38.0606 29.8529L38.0974 29.7426L38.2077 29.4852L38.2445 29.4117V29.3749V29.3382C38.2812 29.2646 38.2812 29.1911 38.318 29.1544L38.3548 29.0808V29.0441V29.0073V28.9705L38.4283 28.7499V28.6764L38.465 28.6029L38.5018 28.5661C38.5018 28.4926 38.5386 28.4191 38.5753 28.3823V28.3088V28.272V28.2352C38.6121 28.1617 38.6121 28.0882 38.6489 28.0146V27.9779V27.9411C38.6856 27.9044 38.6856 27.8676 38.6856 27.7941L38.7224 27.6838V27.647L38.8327 27.3896H39.0165V27.5367ZM39.4945 28.6029L39.4577 28.7499V28.7867L39.3842 29.0073L39.3106 29.1911V29.2279L39.2371 29.4852V29.522L39.1636 29.7058L39.1268 29.7794C39.1268 29.8529 39.09 29.8896 39.09 29.9264C39.09 29.9632 39.09 29.9999 39.0533 30.0735V30.1102C39.0533 30.147 39.0165 30.1838 39.0165 30.2205L38.943 30.4779H38.9798H39.0165H39.0533H39.09H39.1268H39.3106H39.3474H39.4945H39.5312H39.6783H39.7518H39.7886H39.8253H39.8621H40.0827L40.0459 30.3676L40.0092 30.147L39.9356 29.9632C39.8989 29.8896 39.8989 29.8161 39.8621 29.7794V29.7426C39.8621 29.6691 39.8253 29.6323 39.8253 29.5955V29.5588V29.522L39.7886 29.4485V29.3749V29.3382L39.7518 29.3014V29.2279V29.1911C39.7518 29.1544 39.715 29.1544 39.715 29.1176V29.0808C39.6783 29.0073 39.6783 28.9705 39.6415 28.9338V28.897V28.8602L39.6048 28.7499V28.7132L39.5312 28.5661L39.4945 28.6029ZM46.59 27.5367H46.7003H46.7371H46.7739H47.1415H47.215H47.2886H47.3621H47.4356H47.5092H47.5827H47.6195H47.84H47.9871H48.0239H48.0606H48.0974H48.1342H48.318H48.3548H48.5018H48.5386H48.5753H48.6121H48.6856H48.7224L48.8695 27.5735C49.6048 27.9411 49.8989 28.4926 49.7886 29.2646C49.5312 30.1838 48.9062 30.5514 47.9871 30.4411H47.9503H47.8033H47.7298V30.4411H47.693H47.6562H47.4356V32.022H47.2886H47.2518H47.0312H46.9945H46.9577H46.9209H46.7371H46.6268H46.4798V31.9852V31.9485V31.9117V31.8749V31.6544V31.5441V31.4338V31.2132V31.1764V31.1029V31.0661V30.9926V30.8455V30.8088V30.6249V30.5882V30.4411V30.4044V30.3308V30.1838V30.147V29.9632V29.9264V29.7794V29.7058V29.5955V29.4852V29.3749V29.3382V29.3014V28.9338V28.8602V28.7867V28.7132V28.6396V28.5661V28.4926V28.4558V28.2352V28.0882V28.0514V28.0146V27.9779V27.9411V27.7573V27.7205V27.5735H46.59V27.5367ZM47.4356 29.5955H47.4724H47.5092H47.5459H47.693H47.84H48.0606H48.0974H48.1342H48.1709H48.3915H48.4283C48.465 29.5588 48.5386 29.5588 48.5753 29.5588C48.9062 29.3749 49.0165 29.0808 48.9062 28.7499C48.8327 28.5661 48.7224 28.4558 48.5753 28.3823H48.5386C48.4283 28.3455 48.318 28.3455 48.2077 28.3455H48.0974H48.0606H47.9871H47.84H47.8033H47.6195H47.5827H47.4356V29.5955ZM54.8989 27.5735H54.9356H55.1562H55.193H55.2298H55.2665H55.4503H55.4871H55.6342V32.0588H55.4871H55.4503H55.2298H55.193H55.1562H55.1195H54.9356H54.8989H54.7518V32.022V31.9852V31.9485V31.9117V31.6911V31.5808V31.4705V31.4338V31.2132V31.1764V31.1029V31.0661V30.9926V30.8455V30.8088V30.6249V30.5882V30.4411V30.4044V30.3308V30.1838V30.147V29.9632V29.9264V29.7794V29.7058V29.5955V29.4852V29.3749V29.3382V29.3014V28.9338V28.8602V28.7867V28.7132V28.6396V28.5661V28.4926V28.4558V28.2352V28.1249V28.0882V28.0514V28.0146V27.9779V27.7941V27.7573V27.6102H54.8989V27.5735ZM60.5239 27.5367H60.5606H60.5974H60.6342H60.8548H60.8915H61.1121H61.1856H61.2592H61.4797H61.59H61.7003H61.8106H61.9209H62.1415H62.1783H62.215H62.5827H62.6562H62.7298H62.8033H62.8768H62.9503H63.0239H63.0606H63.2812H63.4283H63.465H63.5018H63.5386H63.5753H63.7592H63.7959H63.943V28.4191H63.8695H63.8327H63.6121H63.465H63.4283H63.2077H63.1709H63.1342H63.0974H62.9136H62.8768H62.7298V32.022H62.5827H62.5459H62.3253H62.2886H62.2518H62.215H62.0312H61.9945H61.8474V31.9485V31.9117V31.8382V31.8014V31.8014V31.7646V31.5441V31.5073V31.2867V31.2132V31.1396V30.9191V30.8088V30.6985V30.5882V30.4779V30.2573V30.2205V30.1838V29.8161V29.7426V29.6691V29.5955V29.522V29.4485V29.3749V29.3382V29.1176V28.9705V28.9338V28.897V28.8602V28.8235V28.6396V28.6029V28.4558H61.7003H61.6636H61.443H61.2959H61.2592H61.0386H60.965H60.9283H60.8915H60.7077H60.6709H60.5239V28.2352V28.1249V28.0882V28.0514V28.0146V27.9779V27.9411V27.7573V27.7205V27.5735V27.5367ZM69.8253 27.5367H69.9724H70.34H70.4871H70.5239H70.5974H70.6342H70.6709H70.7077H70.9283V27.5735C70.965 27.647 71.0018 27.7205 71.0018 27.7573L71.0386 27.8308V27.8676V27.9044V27.9411V27.9779C71.0753 28.0146 71.0753 28.0514 71.0753 28.0882L71.1489 28.272V28.3088C71.1856 28.3823 71.2224 28.4558 71.2224 28.4926C71.2592 28.5661 71.2959 28.6396 71.2959 28.7132C71.2959 28.7499 71.3327 28.7499 71.3327 28.7867L71.3695 28.8235C71.3695 28.8602 71.4062 28.897 71.4062 28.9338V28.9705V29.0073C71.443 29.0441 71.443 29.0808 71.443 29.1176L71.5165 29.3014V29.3382V29.3749L71.5533 29.4852L71.59 29.522L71.6268 29.5955V29.6323V29.6691L71.6636 29.7426C71.6636 29.7794 71.7003 29.8161 71.7003 29.8529V29.8896V29.9264C71.7371 29.9632 71.7371 29.9999 71.7371 30.0367L71.8106 30.2205V30.2941L71.8474 30.3676L71.8842 30.4411V30.4779L71.9209 30.5146V30.5514V30.6249C71.9945 30.772 72.0312 30.8823 72.0312 30.9926V31.0294C72.1048 31.1764 72.1415 31.2867 72.1415 31.397L72.1783 31.4338V31.4705V31.5073V31.5441V31.5808V31.6176V31.6544V31.6911L72.215 31.7279V31.7646V31.8014C72.2518 31.8382 72.2518 31.8749 72.2518 31.9117C72.2886 31.9852 72.2886 32.022 72.2886 32.0588L72.3253 32.1323H72.2518H72.3621H72.1415H71.9945H71.9577H71.9209H71.8842H71.8474H71.6268H71.59H71.443L71.4062 32.0588V32.022L71.3695 31.9852V31.9485C71.3327 31.9117 71.3327 31.8749 71.3327 31.8382L71.2959 31.8014V31.7646V31.7279L71.2592 31.6544L71.1856 31.3602H70.965H70.7445H70.6709H70.5974H70.5239H70.4503H70.4136H70.193H70.0459H70.0092H69.9724H69.9356H69.8989H69.715H69.6783H69.5312V31.4338V31.5073L69.4945 31.5441C69.4945 31.5808 69.4577 31.6176 69.4577 31.6544V31.7279V31.7646L69.4209 31.8749V31.9117V31.9485C69.4209 31.9852 69.3842 32.022 69.3842 32.0588L69.3474 32.2058H69.3106H69.2739H69.2371H69.0165H68.9798H68.6856H68.6489H68.2812L68.318 32.0955L68.3548 31.9852V31.9485V31.9117V31.8749V31.8382L68.4283 31.6544V31.6176V31.5808V31.5441L68.465 31.5073L68.5018 31.3602V31.3235V31.2867V31.2499V31.2132C68.5386 31.1396 68.5386 31.0661 68.5753 30.9926L68.6121 30.9191V30.8823C68.6489 30.8088 68.6489 30.7352 68.6856 30.6617C68.6856 30.6249 68.7224 30.5882 68.7224 30.5514L68.7592 30.4411L68.7959 30.3676L68.8327 30.2573V30.2205C68.8695 30.147 68.8695 30.0735 68.9062 29.9999L68.943 29.8896L69.0533 29.6323L69.09 29.5588V29.522V29.4852C69.1268 29.4117 69.1268 29.3382 69.1636 29.3014L69.2003 29.2279V29.1911V29.1544V29.1176L69.2739 28.897V28.8235L69.3106 28.7499L69.3474 28.7132C69.3474 28.6396 69.3842 28.5661 69.4209 28.5294V28.4558V28.4191V28.3823C69.4577 28.3088 69.4577 28.2352 69.4945 28.1617V28.1249V28.0882C69.5312 28.0514 69.5312 28.0146 69.5312 27.9411L69.568 27.8308V27.7941L69.6783 27.5367H69.8253V27.5367ZM70.34 28.6029L70.3033 28.7499V28.7867L70.2298 29.0073L70.1562 29.1911V29.2279L70.0827 29.4852V29.522L70.0092 29.7058L69.9724 29.7794C69.9724 29.8529 69.9356 29.8896 69.9356 29.9264C69.9356 29.9632 69.9356 29.9999 69.8989 30.0735V30.1102C69.8989 30.147 69.8621 30.1838 69.8621 30.2205L69.7886 30.4779H69.8253H69.8621H69.8989H69.9356H69.9724H70.1562H70.193H70.34H70.3768H70.5239H70.5974H70.6342H70.6709H70.7077H70.9283L70.8915 30.3676L70.818 30.147L70.7445 29.9632C70.7077 29.8896 70.7077 29.8161 70.6709 29.7794V29.7426C70.6709 29.6691 70.6342 29.6323 70.6342 29.5955V29.5588V29.522L70.5974 29.4485V29.3749V29.3382L70.5606 29.3014V29.2279V29.1911C70.5606 29.1544 70.5239 29.1544 70.5239 29.1176V29.0808C70.4871 29.0073 70.4871 28.9705 70.4503 28.9338V28.897V28.8602L70.4136 28.7499V28.7132L70.34 28.5661V28.6029ZM77.4724 27.5367H77.5092H77.7298H77.7665H77.8033H77.84H78.0239H78.0606H78.2077V31.1396H78.2445H78.2812H78.318H78.465H78.6489H78.6856H78.8327H78.9798H79.0165H79.2003H79.2371H79.3842H79.5312H79.6048H79.7518H79.7886H79.9724H80.0092H80.1562V32.022H80.0827V32.022H80.0092H79.7886H79.6783H79.568H79.4577H79.3474H79.1268H79.09H79.0533H78.6856H78.6121H78.5386H78.465H78.3915H78.318H78.2445V32.022H78.0239H77.8768H77.84H77.8033H77.7665H77.7298H77.5092H77.4724H77.3253V31.9852V31.9485V31.9117V31.8749V31.6544V31.5441V31.4338V31.2132V31.1764V31.1029V31.0661V30.9926V30.8455V30.8088V30.6249V30.5882V30.4411V30.4044V30.3308V30.1838V30.147V29.9632V29.9264V29.7794V29.7058V29.5955V29.4852V29.3749V29.3382V29.3014V28.9338V28.8602V28.7867V28.7132V28.6396V28.5661V28.4926V28.4558V28.2352V28.1249V28.0882V28.0514V28.0146V27.9779V27.7941V27.7573V27.6102H77.4724V27.5367Z" fill="#5A7A9F"/>
</g>
<defs>
<clipPath id="clip0">
<rect width="70" height="14.3382" fill="white" transform="translate(10.23 17.8308)"/>
</clipPath>
</defs>
</svg>
