<svg width="70" height="50" viewBox="0 0 70 50" fill="none" xmlns="http://www.w3.org/2000/svg">
<g clip-path="url(#clip0)">
<path d="M51.8567 31.529C51.855 31.4957 51.875 31.4507 51.8284 31.4273C51.7884 31.439 51.765 31.4723 51.7384 31.499C51.4484 31.769 51.1317 32.0023 50.7867 32.1957C50.3967 32.414 49.9817 32.544 49.5334 32.5407C48.6934 32.5357 47.9717 32.2357 47.3767 31.644C46.7384 31.0074 46.365 30.2374 46.3434 29.3307C46.32 28.3507 46.695 27.5257 47.4 26.8491C47.675 26.5841 47.9967 26.3907 48.3367 26.2224C48.42 26.1941 48.5034 26.1657 48.5884 26.1374C49.3167 25.8991 50.0267 25.9107 50.7134 26.2807C51.0017 26.4357 51.2734 26.6174 51.5284 26.8257C51.5584 26.8507 51.5834 26.8974 51.6417 26.8774C51.6417 26.8441 51.6434 26.8124 51.6417 26.7791C51.6284 26.3857 51.6134 25.9924 51.6017 25.5991C51.59 25.2291 51.59 25.2291 51.2517 25.0841C51.2367 25.0774 51.22 25.0774 51.2034 25.0741C51.105 25.0091 50.9934 24.9741 50.8884 24.9258C50.12 24.5691 49.325 24.5308 48.515 24.7424C47.2984 25.0607 46.36 25.7674 45.6934 26.8257C45.0884 27.7874 44.86 28.8374 45.0417 29.964C45.1834 30.8457 45.565 31.6207 46.1484 32.294C46.8417 33.0957 47.7017 33.6223 48.7484 33.8307C48.8884 33.859 49.035 33.854 49.1684 33.914C49.39 33.914 49.6134 33.914 49.835 33.914C49.9467 33.8607 50.07 33.8607 50.1884 33.8323C50.7834 33.6907 51.3167 33.4057 51.8467 33.114C51.9117 33.0773 51.92 33.0273 51.9184 32.9623C51.8967 32.4823 51.8784 32.0057 51.8567 31.529Z" fill="#080DF8"/>
<path d="M39.4381 28.4458C39.4014 28.1641 39.3264 27.8924 39.2047 27.6358C39.113 27.3524 38.9814 27.0891 38.813 26.8441C38.773 26.7391 38.7047 26.6508 38.6364 26.5641C37.4997 25.0957 36.033 24.404 34.163 24.6874C33.638 24.7674 33.1496 24.959 32.7013 25.2474C32.663 25.2674 32.6213 25.2857 32.5846 25.3091C31.8796 25.7591 31.3213 26.3457 30.9313 27.0891C30.7713 27.3924 30.6296 27.7041 30.5613 28.0441C30.3813 28.5858 30.3613 29.1458 30.413 29.7058C30.4796 30.4308 30.7296 31.1008 31.123 31.7109C31.8413 32.8259 32.8363 33.5542 34.1447 33.8326C34.2847 33.8626 34.4313 33.8592 34.5647 33.9159C34.6313 33.9159 34.698 33.9159 34.7647 33.9159C34.943 33.9159 35.1197 33.9159 35.298 33.9159C35.4197 33.8576 35.5547 33.8609 35.683 33.8342C36.5247 33.6542 37.2314 33.2192 37.8864 32.6825C37.953 32.6275 37.9447 32.5792 37.9147 32.5125C37.7464 32.1375 37.583 31.7625 37.4164 31.3875C37.4047 31.3592 37.4014 31.3192 37.358 31.3125C37.3014 31.3375 37.2664 31.3892 37.2247 31.4309C36.9447 31.7109 36.6347 31.9509 36.2964 32.1559C35.6563 32.5442 34.973 32.6342 34.248 32.4625C33.9863 32.4009 33.7463 32.2875 33.5047 32.1792C33.4697 32.1325 33.4163 32.1159 33.3697 32.0842C32.5596 31.5342 32.0146 30.8008 31.8163 29.8308C31.8096 29.7942 31.7896 29.7575 31.8213 29.7208C31.8846 29.6992 31.953 29.7092 32.018 29.7092C34.438 29.7092 36.858 29.7092 39.278 29.7092C39.328 29.7092 39.378 29.7092 39.428 29.7075C39.4747 29.7075 39.4981 29.6825 39.5014 29.6375C39.5364 29.2358 39.5314 28.8375 39.4381 28.4458ZM37.858 28.0441C37.9697 28.2875 37.9597 28.3008 37.6947 28.3008C35.863 28.3008 34.0297 28.3008 32.198 28.3008C32.1046 28.3008 32.008 28.2875 31.918 28.3258C31.9163 28.3275 31.913 28.3275 31.9113 28.3291C31.983 28.2041 32.073 28.0841 32.0413 27.9258C32.0413 27.9224 32.0413 27.9208 32.0396 27.9191C32.1396 27.8991 32.163 27.8058 32.2046 27.7341C32.5063 27.2008 32.923 26.7758 33.4447 26.4574C34.2513 25.9657 35.1113 25.8791 35.9863 26.2207C36.8547 26.5624 37.468 27.1958 37.858 28.0441ZM39.1997 27.7474C39.198 27.7458 39.1964 27.7441 39.1964 27.7408C39.198 27.7408 39.1997 27.7391 39.2014 27.7391C39.1997 27.7424 39.1997 27.7458 39.1997 27.7474Z" fill="#080DF8"/>
<path d="M59.9782 30.3043C59.9416 29.9359 59.7882 29.6126 59.5932 29.3076C59.3515 28.9326 59.0515 28.6093 58.6699 28.3693C58.6465 28.3409 58.6165 28.3193 58.5799 28.3109C58.5465 28.2626 58.4932 28.2426 58.4465 28.2159C57.8432 27.8642 57.1865 27.6992 56.4915 27.6876C56.0415 27.6792 55.5915 27.6826 55.1431 27.6476C54.9331 27.6309 54.7215 27.6192 54.5198 27.5492C54.2614 27.4592 54.1548 27.2776 54.1848 27.0076C54.2214 26.6726 54.4148 26.4509 54.7015 26.2992C55.0148 26.1326 55.3548 26.0559 55.7048 26.0159C56.1698 25.9626 56.6348 25.9776 57.1015 26.0092C57.7698 26.0542 58.3282 26.3276 58.8132 26.7759C58.8949 26.8509 58.9799 26.9226 59.0649 26.9926C59.0915 27.0142 59.1199 27.0526 59.1715 27.0226C59.1715 26.6042 59.1682 26.1826 59.1732 25.7609C59.1749 25.6642 59.1449 25.5959 59.0749 25.5292C58.7649 25.2326 58.4015 25.0242 57.9982 24.8842C56.8032 24.4692 55.6298 24.5492 54.4764 25.0459C54.2831 25.1292 54.0898 25.2126 53.9248 25.3476C53.7248 25.4559 53.5514 25.5992 53.4014 25.7709C53.0648 26.0742 52.8814 26.4542 52.8331 26.9009C52.8147 27.0676 52.8197 27.2326 52.8347 27.3992C52.8947 28.0576 53.2214 28.5176 53.8448 28.7576C54.1681 28.8826 54.5048 28.9509 54.8481 28.9793C55.3681 29.0209 55.8881 29.0443 56.4098 29.0493C56.5715 29.0509 56.7315 29.0593 56.8898 29.0826C57.4565 29.1676 57.9499 29.3976 58.3465 29.8159C58.6132 30.0976 58.7515 30.4343 58.7349 30.8276C58.7265 31.0276 58.6432 31.201 58.5615 31.3776C58.3582 31.6526 58.1065 31.8743 57.8165 32.0543C57.5798 32.201 57.3248 32.306 57.0665 32.406C57.0232 32.4143 56.9798 32.4226 56.9365 32.4326C56.6115 32.5126 56.2831 32.5576 55.9481 32.536C55.4315 32.5026 54.9281 32.3926 54.4364 32.236C54.1031 32.131 53.7798 31.9993 53.4931 31.7926C53.4598 31.7676 53.4331 31.7243 53.3764 31.7326C53.2848 32.026 53.1698 32.3143 53.0964 32.616C53.0764 32.6676 53.0548 32.7176 53.0381 32.7693C52.9997 32.8876 52.9997 32.8893 53.1064 32.9476C53.4698 33.1493 53.8398 33.336 54.2231 33.496C54.5764 33.6443 54.9381 33.7643 55.3148 33.8343C55.4665 33.8626 55.6231 33.861 55.7698 33.916C56.0148 33.916 56.2581 33.916 56.5032 33.916C56.5432 33.8843 56.5882 33.901 56.6315 33.8993C57.1415 33.8726 57.6232 33.746 58.0649 33.486C58.1115 33.4526 58.1582 33.421 58.2049 33.391C58.6399 33.1593 59.0249 32.8626 59.3482 32.486C59.6216 32.1676 59.8332 31.8143 59.9482 31.406C59.9732 31.321 59.9499 31.2276 60.0032 31.1493C60.0032 31.0709 60.0032 30.9943 60.0032 30.9159C60.0032 30.7943 60.0032 30.6709 60.0032 30.5493C60.0016 30.5409 59.9982 30.5343 59.9966 30.5259C59.9982 30.5343 60.0016 30.5409 60.0032 30.5493C60.0032 30.4826 60.0032 30.4159 60.0032 30.3493C59.9916 30.3326 59.9799 30.3193 59.9782 30.3043Z" fill="#080DF8"/>
<path d="M24.501 26.6606C24.4394 26.3439 24.3494 26.0372 24.1411 25.7789H24.1394C24.1394 25.7422 24.1127 25.7189 24.0944 25.6922C23.7877 25.2872 23.3711 25.0422 22.9011 24.8822C22.3061 24.6789 21.6878 24.6239 21.0628 24.6156C20.5794 24.6089 20.1144 24.6989 19.6628 24.8722C19.2628 25.0256 18.8811 25.2156 18.5128 25.4339C18.4778 25.4556 18.4461 25.4956 18.3778 25.4722C18.3778 25.2772 18.3795 25.0806 18.3778 24.8822C18.3761 24.7556 18.3745 24.7539 18.2511 24.7539C17.9128 24.7522 17.5728 24.7522 17.2345 24.7539C16.9962 24.7556 17.0245 24.7172 17.0245 24.9656C17.0245 27.2472 17.0245 29.5289 17.0245 31.8122C17.0245 32.4122 17.0245 33.0122 17.0245 33.6105C17.0245 33.7705 17.0261 33.7705 17.1911 33.7705C17.5361 33.7705 17.8795 33.7705 18.2245 33.7688C18.3745 33.7688 18.3761 33.7671 18.3761 33.6105C18.3778 33.3055 18.3778 33.0005 18.3778 32.6938C18.3778 30.8222 18.3795 28.9522 18.3761 27.0806C18.3761 26.9489 18.4161 26.8656 18.5195 26.7889C18.9045 26.5089 19.3161 26.2856 19.7728 26.1472C20.4228 25.9489 21.0844 25.9406 21.7511 26.0322C22.0044 26.0672 22.2511 26.1322 22.4811 26.2522C22.9494 26.4939 23.1877 26.8789 23.1911 27.4055C23.1944 27.7939 23.1911 28.1822 23.1911 28.5722C23.1911 30.2372 23.1911 31.9038 23.1927 33.5688C23.1927 33.7955 23.1694 33.7688 23.4011 33.7688C23.7227 33.7705 24.0461 33.7688 24.3677 33.7688C24.551 33.7688 24.5444 33.7905 24.5444 33.5871C24.5444 31.4655 24.5444 29.3455 24.5444 27.2239C24.5427 27.0356 24.5377 26.8456 24.501 26.6606Z" fill="#080DF8"/>
<path d="M44.0847 33.6076C44.0847 32.1642 44.0847 30.7209 44.0847 29.2775C44.0847 28.1675 44.0847 27.0575 44.0847 25.9458C44.0847 25.5908 44.0847 25.2358 44.0831 24.8791C44.0831 24.7541 44.0797 24.7525 43.953 24.7525C43.5813 24.7508 43.208 24.7541 42.8362 24.7508C42.7512 24.7491 42.7112 24.7741 42.7212 24.8625C42.7246 24.8958 42.7212 24.9291 42.7212 24.9625C42.7212 27.8225 42.7212 30.6809 42.7212 33.5409C42.7212 33.5859 42.7229 33.6292 42.7212 33.6742C42.7179 33.7442 42.7446 33.7742 42.8179 33.7726C42.9229 33.7692 43.0296 33.7709 43.1346 33.7709C43.413 33.7709 43.6897 33.7676 43.968 33.7726C44.0547 33.7742 44.0931 33.7459 44.0831 33.6592C44.0831 33.6409 44.0847 33.6242 44.0847 33.6076Z" fill="#080DF8"/>
<path d="M15.9679 24.7524C15.6295 24.7524 15.2912 24.7524 14.9512 24.7524C14.7412 24.7541 14.7628 24.7257 14.7628 24.9357C14.7628 26.3791 14.7628 27.8224 14.7628 29.2658C14.7628 29.5708 14.7628 29.8758 14.7628 30.1825C14.7628 31.3258 14.7645 32.4692 14.7645 33.6125C14.7645 33.7858 14.7662 33.7692 14.9162 33.7692C15.2495 33.7692 15.5828 33.7708 15.9162 33.7692C16.1479 33.7692 16.1229 33.7858 16.1229 33.5642C16.1229 31.6375 16.1229 29.7125 16.1229 27.7858C16.1229 26.8258 16.1229 25.8658 16.1245 24.9041C16.1229 24.7357 16.1229 24.7524 15.9679 24.7524Z" fill="#080DF8"/>
<path d="M29.3534 24.7525C29.0034 24.7525 28.6534 24.7525 28.3034 24.7525C28.1267 24.7525 28.1384 24.7625 28.1384 24.5925C28.1384 24.2375 28.1367 23.8825 28.1367 23.5258C28.1367 23.2875 28.1367 23.0492 28.1367 22.7842C27.695 22.8958 27.275 23.0058 26.855 23.1075C26.7683 23.1292 26.7734 23.1808 26.7734 23.2425C26.7734 23.6975 26.7717 24.1525 26.77 24.6075C26.77 24.7592 26.775 24.7492 26.6233 24.7508C26.2683 24.7508 25.9117 24.7542 25.5567 24.7508C25.4717 24.7508 25.4383 24.7725 25.44 24.8625C25.4433 25.2392 25.44 25.6175 25.4417 25.9958C25.4417 26.1108 25.445 26.1141 25.565 26.1141C25.9033 26.1158 26.2433 26.1141 26.5817 26.1158C26.7884 26.1175 26.77 26.0892 26.77 26.3008C26.77 27.5341 26.77 28.7658 26.77 29.9991C26.77 31.2041 26.7717 32.4091 26.7717 33.6141C26.7717 33.7691 26.7734 33.7707 26.925 33.7707C27.2867 33.7724 27.6467 33.7724 28.0084 33.7707C28.1334 33.7707 28.1367 33.7674 28.1367 33.6407C28.1384 33.3291 28.1384 33.0191 28.1384 32.7074C28.1384 30.5641 28.1384 28.4208 28.1384 26.2791C28.1384 26.1075 28.1267 26.1158 28.3017 26.1158C28.6567 26.1158 29.0134 26.1158 29.3684 26.1158C29.4934 26.1158 29.4967 26.1125 29.4967 25.9858C29.4984 25.6192 29.4967 25.2525 29.4967 24.8858C29.4934 24.7542 29.4917 24.7525 29.3534 24.7525Z" fill="#080DF8"/>
<path d="M43.4115 23.4006C43.7848 23.3956 44.0831 23.1006 44.0798 22.7389C44.0764 22.3772 43.7715 22.0855 43.4015 22.0872C43.0416 22.0872 42.7466 22.3822 42.7466 22.7422C42.7433 23.1122 43.0416 23.4056 43.4115 23.4006Z" fill="#080DF8"/>
<path d="M15.4383 23.4007C15.8116 23.4007 16.1183 23.1106 16.1233 22.7523C16.1283 22.3889 15.8133 22.0855 15.4366 22.0872C15.075 22.0888 14.7866 22.3822 14.7866 22.7456C14.785 23.1123 15.0716 23.4007 15.4383 23.4007Z" fill="#080DF8"/>
<path d="M13.7331 18.7222C13.7348 18.6338 13.7015 18.6005 13.6198 18.6005C13.5915 18.6005 13.5648 18.5972 13.5365 18.5972C13.1248 18.6022 12.7148 18.6188 12.3098 18.6922C12.0331 18.7422 11.7531 18.7922 11.4965 18.9172C11.2231 19.0038 10.9815 19.1455 10.7631 19.3255C10.5698 19.4838 10.4015 19.6672 10.2981 19.8988C10.2498 19.9355 10.2365 19.9922 10.2181 20.0455C10.1965 20.0622 10.1965 20.0838 10.1981 20.1072C10.1181 20.2455 10.0931 20.4005 10.0648 20.5555C10.0531 20.6138 10.0548 20.6755 10.0015 20.7155C10.0015 21.2938 10.0015 21.8705 10.0015 22.4488C10.0015 22.7272 10.0015 23.0038 10.0015 23.2822C10.0015 24.0588 10.0015 24.8372 10.0015 25.6138C10.0015 26.3905 10.0015 27.1688 10.0015 27.9455C10.0015 28.7222 10.0015 29.5005 10.0015 30.2772C10.0015 31.4205 10.0015 32.5655 10.0015 33.7088C10.0015 33.7305 10.0015 33.7538 10.0015 33.7755C10.3948 33.7722 10.7898 33.7705 11.1831 33.7655C11.3965 33.7638 11.3865 33.7955 11.3865 33.5572C11.3881 31.1472 11.3881 28.7372 11.3898 26.3288C11.3898 26.2572 11.3948 26.1855 11.3965 26.1122C12.0348 26.1105 12.6715 26.1088 13.3098 26.1072C13.4681 26.1072 13.4698 26.1055 13.4698 25.9422C13.4698 25.5922 13.4698 25.2438 13.4698 24.8938C13.4698 24.7272 13.4715 24.7455 13.3131 24.7455C12.6748 24.7455 12.0381 24.7438 11.3998 24.7438C11.3798 24.6788 11.3898 24.6122 11.3898 24.5455C11.3881 23.4922 11.3915 22.4388 11.3848 21.3855C11.3831 21.1205 11.4081 20.8622 11.5365 20.6205C11.7598 20.3188 12.0698 20.1655 12.4248 20.0805C12.7515 20.0022 13.0831 19.9838 13.4148 19.9638C13.5131 19.9572 13.6431 19.9905 13.7048 19.9388C13.7798 19.8772 13.7298 19.7405 13.7315 19.6372C13.7348 19.3322 13.7298 19.0272 13.7331 18.7222ZM11.6948 20.3588C11.6948 20.3572 11.6948 20.3555 11.6948 20.3538C11.6965 20.3538 11.6981 20.3522 11.6981 20.3522C11.6981 20.3538 11.6965 20.3555 11.6948 20.3588Z" fill="#080DF8"/>
<path d="M42.7493 10.689C42.7143 10.6274 42.6876 10.559 42.6343 10.5074C42.5793 10.4057 42.5259 10.304 42.4676 10.204C42.2793 9.88736 42.1109 9.55903 41.9076 9.25069C41.8993 9.23069 41.8943 9.20736 41.8843 9.18903C41.6809 8.83736 41.4793 8.48736 41.2759 8.13736C41.2626 8.11403 41.2493 8.08903 41.2043 8.08569C40.2343 9.76569 39.2626 11.449 38.2876 13.139C38.3643 13.1674 38.4209 13.1574 38.4743 13.1574C39.0626 13.159 39.6526 13.1574 40.2409 13.159C40.4259 13.159 40.4193 13.1357 40.4209 13.339C40.4209 13.3507 40.4209 13.3607 40.4209 13.3724C40.4209 19.709 40.4209 26.0457 40.4209 32.3824C40.4209 32.799 40.4209 33.2157 40.4226 33.6324C40.4226 33.7657 40.4259 33.769 40.5626 33.769C40.9009 33.7707 41.2409 33.7707 41.5793 33.769C41.7926 33.7674 41.7859 33.8057 41.7859 33.564C41.7859 32.1974 41.7859 30.8324 41.7859 29.4657C41.7859 24.1174 41.7859 18.7707 41.7876 13.4224C41.7876 13.334 41.7743 13.244 41.8026 13.1574C42.5843 13.1574 43.3659 13.1574 44.1676 13.1574C44.1259 13.0807 44.0976 13.0224 44.0659 12.9657C43.6276 12.2074 43.1893 11.4474 42.7493 10.689ZM41.0759 25.1457C41.0876 25.1474 41.1009 25.1474 41.1126 25.1474C41.1009 25.1524 41.0859 25.1507 41.0759 25.1457ZM41.7309 27.449C41.7326 27.449 41.7326 27.449 41.7309 27.449V27.449ZM41.7309 25.449C41.7293 25.4474 41.7293 25.4474 41.7293 25.4457C41.7309 25.4457 41.7309 25.4457 41.7309 25.4457C41.7309 25.4457 41.7309 25.4474 41.7309 25.449Z" fill="#080DF8"/>
</g>
<defs>
<clipPath id="clip0">
<rect width="50" height="25.825" fill="white" transform="translate(10 8.0874)"/>
</clipPath>
</defs>
</svg>
