<svg width="142" height="50" viewBox="0 0 142 50" fill="none" xmlns="http://www.w3.org/2000/svg">
<g clip-path="url(#clip0)">
<path d="M35.4937 22.7028V24.7007H38.192V25.6139H35.4937V28.4496H34.3745V21.7827H38.8786V22.6959H35.4937V22.7028Z" fill="#0D191F"/>
<path d="M44.9545 21.7827C45.6136 21.7827 45.8608 21.8514 46.0943 22.0505C46.4856 22.3869 46.7259 22.8675 46.7259 25.1196C46.7259 27.3648 46.4856 27.8523 46.0943 28.1887C45.8677 28.3878 45.6136 28.4565 44.9545 28.4565H42.9565C42.2974 28.4565 42.0502 28.3878 41.8167 28.1887C41.4254 27.8523 41.1851 27.3717 41.1851 25.1196C41.1851 22.8744 41.4254 22.3869 41.8167 22.0505C42.0433 21.8514 42.2974 21.7827 42.9565 21.7827H44.9545ZM42.5789 27.4335C42.6613 27.5021 42.7368 27.5364 43.0801 27.5364H44.8378C45.1742 27.5433 45.2566 27.4953 45.339 27.4335C45.4489 27.3373 45.5862 27.0421 45.5862 25.1196C45.5862 23.1971 45.4489 22.9019 45.339 22.8058C45.2566 22.7371 45.1811 22.7028 44.8378 22.7028H43.0801C42.7436 22.7028 42.6613 22.744 42.5789 22.8058C42.469 22.9019 42.3317 23.1971 42.3317 25.1196C42.3317 27.0421 42.469 27.3373 42.5789 27.4335Z" fill="#0D191F"/>
<path d="M55.062 25.6826C55.062 27.3579 54.9109 27.7012 54.5401 28.0513C54.2174 28.3534 53.7437 28.4496 52.8236 28.4496H51.8075C50.9011 28.4496 50.4274 28.3466 50.1253 28.0582C49.7545 27.708 49.6172 27.3716 49.6172 25.6757V21.7827H50.7364V25.9023C50.7364 27.1107 50.8393 27.2137 50.9767 27.351C51.0865 27.454 51.2788 27.5021 52.0478 27.5021H52.6794C53.4278 27.5021 53.6064 27.4609 53.7299 27.351C53.881 27.2068 53.9497 27.1313 53.9497 25.9023V21.7827H55.0688V25.6826H55.062Z" fill="#0D191F"/>
<path d="M63.6658 28.4496H62.526C62.2376 28.4496 62.1277 28.3946 62.0041 28.1337L59.34 23.2314H59.1889V28.4496H58.104V21.7827H59.34C59.6283 21.7827 59.7313 21.8376 59.8481 22.0985L62.4298 26.7743H62.5809V21.7827H63.6658V28.4496Z" fill="#0D191F"/>
<path d="M69.7482 21.7827C70.5996 21.7827 71.0596 21.9132 71.4441 22.2496C71.9041 22.6478 72.1238 23.4786 72.1238 25.1127C72.1238 26.7537 71.9041 27.5776 71.4441 27.9759C71.0527 28.3123 70.5927 28.4428 69.7482 28.4428H66.7065V21.7827H69.7482ZM70.5927 22.9087C70.373 22.7165 70.1739 22.6959 69.7413 22.6959H67.8257V27.5296H69.7413C70.1739 27.5296 70.3936 27.5021 70.5927 27.3167C70.8605 27.0764 70.9841 26.6233 70.9841 25.1196C70.9841 23.5953 70.8674 23.1491 70.5927 22.9087Z" fill="#0D191F"/>
<path d="M79.6977 28.4496H74.9258V21.7827H79.7045V22.6959H76.0449V24.536H79.0729V25.4491H76.0449V27.5364H79.7045V28.4496H79.6977Z" fill="#0D191F"/>
<path d="M86.1992 25.8337C86.0688 25.7307 85.8697 25.7032 85.4714 25.7032H83.5352V28.4565H82.4092V21.7827H86.1786C86.6387 21.7827 86.9682 21.8582 87.1811 22.0574C87.4488 22.3114 87.6274 22.6753 87.6274 23.6777C87.6274 24.8518 87.2909 25.1814 86.4876 25.2844V25.305C87.2291 25.4354 87.5175 25.6071 87.5587 26.5821C87.5999 27.5159 87.6274 28.0857 87.6686 28.4496H86.5494C86.4807 28.0033 86.4395 27.3717 86.4189 26.6095C86.4052 26.0809 86.3365 25.9435 86.1992 25.8337ZM85.8491 24.8244C86.1374 24.8244 86.2267 24.7763 86.2816 24.7282C86.3709 24.6459 86.5013 24.433 86.5013 23.7464C86.5013 23.0598 86.3846 22.8607 86.2885 22.7783C86.2404 22.7302 86.1374 22.7028 85.8491 22.7028H83.5283V24.8244H85.8491Z" fill="#0D191F"/>
<path d="M95.2408 28.1477C95.0279 28.3469 94.719 28.4498 94.1628 28.4498H91.8146C91.2653 28.4498 90.9426 28.3812 90.7229 28.1752C90.4346 27.9006 90.3453 27.5779 90.3247 26.3557H91.437C91.4576 27.1865 91.4851 27.3581 91.5675 27.4337C91.6293 27.4886 91.7048 27.5367 92.0069 27.5367H93.9774C94.2658 27.5367 94.3551 27.5092 94.4374 27.4337C94.5267 27.3513 94.5473 27.0904 94.5473 26.5274C94.5473 26.0399 94.5404 25.8888 94.4306 25.7858C94.3482 25.7103 94.2521 25.6828 93.9706 25.6622L91.7734 25.47C91.2654 25.4219 90.9632 25.3258 90.7573 25.1267C90.4758 24.8589 90.4277 24.5431 90.4277 23.6711C90.4277 22.8128 90.517 22.394 90.8397 22.0919C91.0525 21.8928 91.3683 21.7898 91.897 21.7898H94.053C94.6022 21.7898 94.9249 21.8585 95.1447 22.0644C95.433 22.3391 95.5017 22.648 95.5429 23.8359H94.4237C94.4031 23.0531 94.3757 22.8815 94.2933 22.806C94.2315 22.751 94.1559 22.703 93.8538 22.703H92.0824C91.8009 22.703 91.7116 22.7304 91.6361 22.806C91.5469 22.8884 91.5263 23.1561 91.5263 23.6642C91.5263 24.1311 91.5331 24.2959 91.643 24.3989C91.7254 24.4744 91.8215 24.4813 92.103 24.5156L94.3001 24.7079C94.7808 24.7491 95.0897 24.8383 95.3026 25.0443C95.5703 25.2983 95.6527 25.6279 95.6527 26.5274C95.6527 27.4405 95.5635 27.8388 95.2408 28.1477Z" fill="#0D191F"/>
<path d="M103.228 22.7028V24.7007H105.926V25.6139H103.228V28.4496H102.108V21.7827H106.613V22.6959H103.228V22.7028Z" fill="#0D191F"/>
<path d="M114.625 25.6826C114.625 27.3579 114.473 27.7012 114.103 28.0513C113.78 28.3534 113.306 28.4496 112.386 28.4496H111.37C110.463 28.4496 109.989 28.3466 109.687 28.0582C109.317 27.708 109.179 27.3716 109.179 25.6757V21.7827H110.298V25.9023C110.298 27.1107 110.401 27.2137 110.539 27.351C110.649 27.454 110.841 27.5021 111.61 27.5021H112.242C112.99 27.5021 113.169 27.4609 113.292 27.351C113.443 27.2068 113.512 27.1313 113.512 25.9023V21.7827H114.631V25.6826H114.625Z" fill="#0D191F"/>
<path d="M123.227 28.4496H122.087C121.799 28.4496 121.689 28.3946 121.565 28.1337L118.895 23.2314H118.744V28.4496H117.652V21.7827H118.888C119.176 21.7827 119.279 21.8376 119.396 22.0985L121.977 26.7743H122.129V21.7827H123.22V28.4496H123.227Z" fill="#0D191F"/>
<path d="M129.304 21.7827C130.155 21.7827 130.615 21.9132 131 22.2496C131.46 22.6478 131.679 23.4786 131.679 25.1127C131.679 26.7537 131.46 27.5776 131 27.9759C130.608 28.3123 130.148 28.4428 129.304 28.4428H126.262V21.7827H129.304ZM130.155 22.9087C129.936 22.7165 129.736 22.6959 129.304 22.6959H127.381V27.5296H129.304C129.736 27.5296 129.956 27.5021 130.155 27.3167C130.423 27.0764 130.547 26.6233 130.547 25.1196C130.54 23.5953 130.423 23.1491 130.155 22.9087Z" fill="#0D191F"/>
<path d="M24.7686 18H10.7275V21.5223H24.7686V18Z" fill="#E8404F"/>
<path d="M24.7686 21.4814H10.7275V25.0038H24.7686V21.4814Z" fill="#B0EFED"/>
<path d="M24.7686 24.9963H10.7275V28.5186H24.7686V24.9963Z" fill="#7CD2D5"/>
<path d="M24.7686 28.4846H10.7275V32.0068H24.7686V28.4846Z" fill="#0B1622"/>
</g>
<defs>
<clipPath id="clip0">
<rect width="120.952" height="13.9998" fill="white" transform="translate(10.7275 18)"/>
</clipPath>
</defs>
</svg>
