<svg width="91" height="50" viewBox="0 0 91 50" fill="none" xmlns="http://www.w3.org/2000/svg">
<g clip-path="url(#clip0)">
<path d="M62.5213 29.6119C63.2314 29.0323 63.9415 28.8201 64.7578 29.0242C65.7536 29.2772 66.4719 30.1506 66.4963 31.179C66.5127 31.9789 66.4963 32.7788 66.5045 33.5869C66.5045 33.8073 66.4719 34.0195 66.1943 34.0195C65.8923 34.0195 65.876 33.791 65.876 33.5624C65.876 32.7707 65.8923 31.9871 65.8678 31.1954C65.8515 30.4199 65.2638 29.7425 64.5292 29.6119C63.713 29.4649 62.9621 29.8649 62.6356 30.6158C62.5539 30.8036 62.5213 30.9995 62.5295 31.2117C62.5376 32.0034 62.5295 32.787 62.5295 33.5787C62.5295 33.8073 62.5131 34.0358 62.1948 34.0277C61.8846 34.0195 61.8765 33.791 61.8765 33.5624C61.8765 31.4729 61.8765 29.3752 61.8765 27.2856C61.8765 27.0571 61.9173 26.8612 62.1866 26.853C62.4805 26.8448 62.5295 27.0571 62.5295 27.2938C62.5213 28.0365 62.5213 28.7793 62.5213 29.6119Z" fill="#EC3C5C"/>
<path d="M52.1305 31.4238C52.9793 30.6729 53.7548 29.9791 54.5302 29.2853C54.6037 29.22 54.669 29.1547 54.7424 29.0975C54.873 28.9996 55.0036 28.9424 55.1424 29.0812C55.2975 29.2281 55.2485 29.3832 55.1179 29.5056C54.8159 29.7913 54.4976 30.0688 54.1874 30.3545C53.9425 30.5749 53.714 30.8034 53.4609 31.0075C53.2895 31.1463 53.3058 31.2361 53.4364 31.3911C53.967 32.0278 54.4812 32.6726 55.0036 33.3174C55.0526 33.3827 55.1097 33.4399 55.1587 33.5052C55.2811 33.6684 55.3709 33.8398 55.175 34.0031C54.9791 34.1582 54.8159 34.0439 54.6853 33.8888C54.2935 33.4154 53.918 32.942 53.5344 32.4604C53.3467 32.2319 53.1508 32.0033 52.9712 31.7666C52.8651 31.6197 52.7835 31.636 52.6447 31.7421C52.2937 32.0115 52.0488 32.3053 52.1223 32.7869C52.1631 33.0481 52.1305 33.3256 52.1305 33.6031C52.1305 33.8235 52.106 34.0276 51.8203 34.0276C51.5346 34.0276 51.502 33.8317 51.502 33.6113C51.502 32.5502 51.502 31.4891 51.502 30.4361C51.502 29.3914 51.502 28.3466 51.502 27.3018C51.502 27.0733 51.5101 26.8447 51.8203 26.8447C52.1305 26.8447 52.1305 27.0814 52.1305 27.31C52.1305 28.6404 52.1305 29.9872 52.1305 31.4238Z" fill="#EC3C5C"/>
<path d="M80.4619 32.3708C80.4619 32.7789 80.4619 33.187 80.4619 33.5951C80.4619 33.8237 80.4293 34.0195 80.1518 34.0195C79.8661 34.0195 79.8416 33.7992 79.8416 33.5869C79.8334 32.7544 79.8579 31.93 79.8171 31.0974C79.7681 30.2077 78.9927 29.5466 78.1112 29.5711C77.2134 29.5956 76.4869 30.322 76.4624 31.2199C76.4461 31.8157 76.4624 32.4197 76.4624 33.0156C76.4624 33.2441 76.4624 33.4808 76.4624 33.7094C76.4624 33.9053 76.3563 34.0195 76.1604 34.0195C75.9645 34.0195 75.8503 33.9053 75.8503 33.7175C75.8666 32.7381 75.7523 31.7586 75.8993 30.7873C76.0707 29.6527 77.1562 28.8691 78.3806 28.9589C79.4906 29.0324 80.4374 30.0282 80.4619 31.1546C80.4701 31.5545 80.4619 31.9626 80.4619 32.3708Z" fill="#EC3C5C"/>
<path d="M44.1479 22.0456C44.1479 22.47 44.1398 22.8863 44.1479 23.3107C44.1479 23.5311 44.0745 23.7025 43.8459 23.7025C43.6092 23.7107 43.5276 23.5229 43.5276 23.3107C43.5194 22.4782 43.5439 21.6538 43.5113 20.8294C43.4868 20.1111 43.0052 19.5316 42.3359 19.3193C41.6747 19.1153 40.9973 19.3193 40.5402 19.8662C40.2708 20.1927 40.1484 20.5682 40.1484 20.9926C40.1484 21.7436 40.1484 22.4863 40.1484 23.2373C40.1484 23.474 40.1239 23.7107 39.83 23.7025C39.5362 23.6943 39.5199 23.4576 39.528 23.2209C39.528 22.4455 39.5199 21.6701 39.528 20.8947C39.5444 19.6132 40.581 18.6011 41.8625 18.6174C43.1358 18.6255 44.1398 19.6458 44.1479 20.9436C44.1479 21.3109 44.1479 21.6783 44.1479 22.0456Z" fill="#EC3C5C"/>
<path d="M61.2807 23.7432C60.644 23.7351 60.04 23.5963 59.5176 23.2127C59.338 23.0821 59.1421 22.927 59.3462 22.6821C59.5258 22.4617 59.7135 22.5352 59.9012 22.6985C60.4563 23.1882 61.1174 23.2617 61.8194 23.1474C62.2847 23.0739 62.603 22.7637 62.6275 22.4046C62.652 22.0536 62.4234 21.7435 61.9582 21.5884C61.599 21.4659 61.2236 21.3925 60.8562 21.3027C60.5216 21.2211 60.2033 21.1068 59.9257 20.9027C59.2809 20.4293 59.2972 19.5396 59.942 19.0662C60.7093 18.5112 62.1459 18.5765 62.8479 19.205C63.003 19.3437 63.2479 19.5151 63.0601 19.7437C62.8805 19.9641 62.652 19.8172 62.4643 19.6539C61.9174 19.1805 61.2807 19.1478 60.6195 19.3437C60.3339 19.4335 60.1053 19.6213 60.089 19.9477C60.0645 20.2824 60.2441 20.5028 60.5461 20.6497C60.8971 20.8211 61.2725 20.8701 61.6399 20.9517C61.999 21.0333 62.35 21.1313 62.6683 21.3272C63.4193 21.8006 63.4601 22.8209 62.7499 23.3514C62.3745 23.629 61.9255 23.7514 61.2807 23.7432Z" fill="#EC3C5C"/>
<path d="M57.0449 31.5869C57.0776 32.2889 57.3388 32.9174 58.0326 33.2847C58.71 33.6438 59.3875 33.603 60.0405 33.1867C60.2037 33.0806 60.3915 32.9092 60.5629 33.1622C60.7506 33.4234 60.5057 33.5377 60.3507 33.6356C59.4691 34.207 58.5549 34.2315 57.6489 33.7254C56.7592 33.2275 56.3919 32.4031 56.4327 31.4073C56.5388 29.1627 58.6692 28.5913 59.9752 29.277C60.1956 29.3912 60.3833 29.5463 60.5547 29.7259C60.669 29.8483 60.7833 29.9708 60.6445 30.1503C60.4813 30.3462 60.3262 30.2483 60.1874 30.1258C59.7875 29.7341 59.314 29.5463 58.7508 29.579C57.7469 29.6279 57.0531 30.4278 57.0449 31.5869Z" fill="#EC3C5C"/>
<path d="M46.0987 31.979C46.0823 30.5588 46.4496 29.767 47.323 29.3018C48.1311 28.8773 48.9718 28.8773 49.7717 29.3589C49.9513 29.465 50.1064 29.6364 50.2615 29.7833C50.3757 29.8895 50.4084 30.0119 50.2941 30.1425C50.1717 30.2894 50.0329 30.2649 49.9023 30.167C49.8615 30.1343 49.8207 30.1017 49.7799 30.0609C49.1187 29.5058 48.3107 29.3997 47.6332 29.7833C46.9802 30.1425 46.6047 30.9914 46.719 31.8158C46.9231 33.2931 48.4413 33.9951 49.6901 33.1952C49.8615 33.0891 50.0492 32.9258 50.2125 33.1625C50.4084 33.4401 50.139 33.5625 49.9758 33.6605C49.1351 34.1828 48.2617 34.2155 47.3802 33.7666C46.5313 33.3503 46.0905 32.5585 46.0987 31.979Z" fill="#EC3C5C"/>
<path d="M57.4038 20.1437C57.4038 19.1397 57.4038 18.1357 57.4038 17.1318C57.4038 17.0093 57.412 16.8869 57.4283 16.7645C57.4609 16.5849 57.5834 16.5277 57.7548 16.5359C57.9099 16.5359 58.016 16.6012 58.0486 16.7645C58.0731 16.8869 58.0731 17.0093 58.0731 17.1318C58.0731 19.1397 58.0731 21.1476 58.0731 23.1555C58.0731 23.1964 58.0731 23.2372 58.0731 23.278C58.0731 23.5228 58.0078 23.7269 57.7221 23.7187C57.4609 23.7106 57.4038 23.5147 57.4038 23.2861C57.4038 22.6332 57.4038 21.9802 57.4038 21.3353C57.4038 20.9272 57.4038 20.5354 57.4038 20.1437Z" fill="#ED405F"/>
<path d="M38.1403 30.4036C38.1403 29.3833 38.1403 28.3712 38.1403 27.3509C38.1403 27.1142 38.1239 26.853 38.4586 26.853C38.7933 26.8448 38.8096 27.106 38.8096 27.3427C38.8096 29.4078 38.8177 31.4647 38.8096 33.5297C38.8096 33.7338 38.8341 33.995 38.5239 34.0276C38.1974 34.0603 38.1484 33.8399 38.1484 33.5869C38.1403 32.5176 38.1403 31.4565 38.1403 30.4036Z" fill="#ED405F"/>
<path d="M32.3942 21.2208C32.3942 21.8983 32.386 22.5758 32.3942 23.2614C32.3942 23.5063 32.3452 23.7103 32.0595 23.7103C31.7983 23.7022 31.7412 23.5144 31.7412 23.2777C31.7412 21.9065 31.7412 20.5352 31.7412 19.1639C31.7412 18.9436 31.782 18.7477 32.0595 18.7395C32.3697 18.7395 32.3942 18.9436 32.3942 19.1803C32.3942 19.8659 32.3942 20.5434 32.3942 21.2208Z" fill="#EC3C5C"/>
<path d="M73.9248 31.5627C73.9248 30.8689 73.9248 30.1751 73.9248 29.4895C73.9248 29.2609 73.9656 29.065 74.235 29.0569C74.5125 29.0569 74.5859 29.2528 74.5778 29.4976C74.5696 30.8526 74.5778 32.2157 74.5778 33.5706C74.5778 33.8073 74.537 34.0196 74.2431 34.0196C73.9248 34.0196 73.9248 33.791 73.9248 33.5625C73.9248 32.8932 73.9248 32.232 73.9248 31.5627Z" fill="#EC3D5D"/>
<path d="M11.3682 20.3966C10.8621 20.3885 10.4622 19.9722 10.4703 19.4743C10.4785 18.9682 10.8948 18.5765 11.4008 18.5928C11.8987 18.6009 12.2987 19.0172 12.2987 19.5151C12.2905 20.0049 11.8743 20.3966 11.3682 20.3966Z" fill="#FC9477"/>
<path d="M22.6077 22.1757C22.6077 22.6899 22.2241 23.0817 21.7099 23.0735C21.1956 23.0735 20.812 22.6899 20.812 22.1757C20.812 21.6533 21.1793 21.2778 21.7017 21.2778C22.2159 21.2778 22.6077 21.6615 22.6077 22.1757Z" fill="#F36368"/>
<path d="M13.9719 23.0739C13.4495 23.0739 13.0496 22.674 13.0577 22.1434C13.0659 21.6537 13.4495 21.2782 13.9474 21.2782C14.4698 21.27 14.8534 21.6455 14.8534 22.1597C14.8616 22.6903 14.4861 23.0739 13.9719 23.0739Z" fill="#FA8873"/>
<path d="M22.6073 19.4826C22.6073 19.9968 22.2319 20.3886 21.7177 20.3886C21.2034 20.3886 20.8198 20.005 20.8116 19.4989C20.8035 18.9928 21.1953 18.5929 21.7013 18.5847C22.1992 18.5847 22.5992 18.9847 22.6073 19.4826Z" fill="#F36368"/>
<path d="M11.3844 21.2863C11.8905 21.2863 12.2986 21.6862 12.2986 22.1841C12.2986 22.682 11.8823 23.082 11.3762 23.082C10.8783 23.0738 10.4702 22.6657 10.4702 22.176C10.4784 21.6699 10.8702 21.2781 11.3844 21.2863Z" fill="#FC9477"/>
<path d="M27.7587 32.9093C27.7587 33.4154 27.3588 33.8317 26.8772 33.8317C26.4038 33.8317 25.9712 33.3991 25.963 32.9175C25.9549 32.4196 26.3548 32.0115 26.8609 32.0033C27.3669 31.9951 27.7587 32.3951 27.7587 32.9093Z" fill="#EF4A60"/>
<path d="M14.8616 32.893C14.8698 33.399 14.4698 33.8153 13.9801 33.8235C13.5148 33.8398 13.0741 33.399 13.0577 32.9175C13.0496 32.4114 13.4414 32.0033 13.9474 31.9951C14.4535 32.0033 14.8534 32.3869 14.8616 32.893Z" fill="#FA8873"/>
<path d="M19.1306 17.7031C18.6327 17.7031 18.2246 17.3031 18.2164 16.8134C18.2083 16.3236 18.6245 15.9155 19.1306 15.9155C19.6285 15.9155 20.0366 16.3155 20.0366 16.8215C20.0285 17.3276 19.6448 17.7031 19.1306 17.7031Z" fill="#F56F6B"/>
<path d="M14.8533 30.2404C14.8533 30.7383 14.4452 31.1464 13.9555 31.1464C13.4739 31.1464 13.0576 30.722 13.0576 30.2241C13.0576 29.718 13.4412 29.3426 13.9636 29.3507C14.5023 29.3507 14.8615 29.7099 14.8533 30.2404Z" fill="#FA8873"/>
<path d="M15.6616 24.853C15.6616 24.3224 16.0289 23.9714 16.5595 23.9714C17.0737 23.9714 17.4655 24.3714 17.4573 24.8775C17.4492 25.3754 17.041 25.7753 16.5431 25.7753C16.0371 25.7672 15.6616 25.3672 15.6616 24.853Z" fill="#F87C6F"/>
<path d="M27.7582 27.5223C27.7664 28.0447 27.3991 28.4365 26.8849 28.4446C26.387 28.4528 25.9707 28.061 25.9625 27.5631C25.9544 27.0489 26.3298 26.6571 26.8441 26.6489C27.3828 26.6489 27.7501 27.0081 27.7582 27.5223Z" fill="#EF4A60"/>
<path d="M15.6616 27.498C15.678 26.9675 16.0453 26.641 16.6003 26.6573C17.0901 26.6736 17.4655 27.0654 17.4574 27.5552C17.4574 28.0531 17.0411 28.4612 16.5432 28.453C16.0208 28.4449 15.6453 28.0367 15.6616 27.498Z" fill="#F87C6F"/>
<path d="M27.7581 24.8369C27.7663 25.3593 27.3908 25.7592 26.8929 25.7674C26.395 25.7756 25.9787 25.3756 25.9624 24.8859C25.9461 24.3716 26.3297 23.9798 26.8439 23.9635C27.3745 23.9553 27.75 24.3227 27.7581 24.8369Z" fill="#EE4A60"/>
<path d="M24.313 20.3965C23.7988 20.4047 23.407 20.0292 23.3906 19.515C23.3743 18.9926 23.7498 18.6008 24.264 18.5927C24.7619 18.5845 25.1864 18.9844 25.2027 19.4742C25.219 19.9639 24.8027 20.3884 24.313 20.3965Z" fill="#F15664"/>
<path d="M11.3763 28.4528C10.8948 28.4528 10.4622 28.0121 10.4703 27.5386C10.4785 27.0244 10.8621 26.649 11.3845 26.6571C11.8987 26.6571 12.3068 27.0571 12.2905 27.5468C12.2824 28.0447 11.8661 28.4528 11.3763 28.4528Z" fill="#FC9477"/>
<path d="M14.8537 27.563C14.8455 28.0772 14.4619 28.4609 13.9477 28.4527C13.4579 28.4527 13.058 28.0364 13.0498 27.5385C13.0498 27.0325 13.4416 26.657 13.964 26.657C14.5027 26.6651 14.8618 27.0325 14.8537 27.563Z" fill="#FA8873"/>
<path d="M15.6613 22.1516C15.6694 21.6292 16.0449 21.2701 16.5754 21.2864C17.0815 21.2946 17.4733 21.7027 17.457 22.2006C17.4406 22.6985 17.0325 23.0821 16.5265 23.074C16.0204 23.0658 15.6531 22.674 15.6613 22.1516Z" fill="#F77B6F"/>
<path d="M23.3911 32.9012C23.3993 32.3951 23.7992 31.9951 24.2971 32.0115C24.795 32.0278 25.2113 32.4441 25.195 32.9338C25.1868 33.4154 24.7461 33.848 24.2726 33.8398C23.7911 33.8235 23.3911 33.3991 23.3911 32.9012Z" fill="#F15764"/>
<path d="M22.6074 32.9254C22.5992 33.4233 22.1829 33.8396 21.6932 33.8233C21.2116 33.8151 20.8035 33.3907 20.8116 32.8928C20.8198 32.3867 21.2116 31.9949 21.7258 32.0031C22.2237 32.0194 22.6155 32.4193 22.6074 32.9254Z" fill="#F36368"/>
<path d="M23.3912 27.5631C23.3831 27.0326 23.7422 26.6653 24.2728 26.6571C24.787 26.6489 25.1951 27.0326 25.2033 27.5305C25.2115 28.0202 24.7952 28.4446 24.3054 28.4528C23.7994 28.4528 23.3994 28.061 23.3912 27.5631Z" fill="#F15764"/>
<path d="M19.1141 25.7674C18.6244 25.7592 18.2 25.3348 18.2163 24.845C18.2244 24.339 18.6244 23.9553 19.1386 23.9635C19.6528 23.9717 20.0446 24.3635 20.0283 24.8695C20.012 25.3756 19.6039 25.7755 19.1141 25.7674Z" fill="#F56F6B"/>
<path d="M20.0278 32.8931C20.036 33.391 19.6197 33.8236 19.1463 33.8318C18.6647 33.8318 18.224 33.4073 18.2158 32.9257C18.1995 32.4442 18.6157 32.0116 19.1136 32.0034C19.5952 31.9871 20.0197 32.3952 20.0278 32.8931Z" fill="#F56F6B"/>
<path d="M16.5185 32.0032C17.0001 31.9868 17.4409 32.4031 17.449 32.8928C17.4654 33.3744 17.0328 33.8233 16.5675 33.8397C16.0778 33.8478 15.6615 33.4479 15.6533 32.95C15.6533 32.4113 16.0125 32.0113 16.5185 32.0032Z" fill="#F77B6F"/>
<path d="M13.9474 17.7031C13.4414 17.6949 13.0496 17.3031 13.0577 16.797C13.0659 16.291 13.4822 15.8992 13.9801 15.9074C14.4943 15.9155 14.8698 16.3155 14.8616 16.8297C14.8534 17.3439 14.4698 17.7112 13.9474 17.7031Z" fill="#FA8873"/>
<path d="M15.6622 16.8051C15.6622 16.2909 16.0377 15.9072 16.5519 15.9072C17.0498 15.9072 17.458 16.3235 17.4498 16.8132C17.4416 17.3193 17.0417 17.7029 16.5356 17.7029C16.0132 17.6948 15.6541 17.3356 15.6622 16.8051Z" fill="#F77B6F"/>
<path d="M23.3917 24.8369C23.3999 24.3145 23.7754 23.9554 24.3059 23.9635C24.7875 23.9717 25.1956 24.3635 25.1956 24.8369C25.2038 25.3429 24.7712 25.7755 24.2651 25.7592C23.7754 25.7592 23.3836 25.3429 23.3917 24.8369Z" fill="#F15664"/>
<path d="M11.3927 25.7672C10.903 25.7672 10.4785 25.3427 10.4785 24.8693C10.4785 24.3632 10.8703 23.9714 11.3845 23.9714C11.8988 23.9714 12.315 24.3714 12.3069 24.8611C12.2824 25.359 11.8824 25.7672 11.3927 25.7672Z" fill="#FC9477"/>
<path d="M27.7581 16.7889C27.7663 17.3194 27.4071 17.6949 26.8848 17.7031C26.3705 17.7112 25.9706 17.3358 25.9624 16.8297C25.9461 16.3318 26.3379 15.9237 26.8439 15.9074C27.3582 15.8992 27.75 16.2828 27.7581 16.7889Z" fill="#EF4A60"/>
<path d="M24.2728 17.7029C23.7667 17.6948 23.3831 17.303 23.3994 16.7888C23.4076 16.2827 23.8157 15.8909 24.3218 15.9072C24.8278 15.9236 25.2196 16.3317 25.2115 16.8296C25.1951 17.3275 24.7789 17.7111 24.2728 17.7029Z" fill="#F15664"/>
<path d="M19.139 29.3507C19.6695 29.3507 20.045 29.7262 20.0287 30.2404C20.0205 30.7383 19.5961 31.1546 19.1145 31.1383C18.6411 31.1301 18.2085 30.6893 18.2085 30.2159C18.2167 29.718 18.6084 29.3426 19.139 29.3507Z" fill="#F56F6B"/>
<path d="M21.7262 29.3505C22.2567 29.3505 22.6159 29.726 22.6077 30.2483C22.5995 30.7544 22.1833 31.1544 21.6935 31.1462C21.1956 31.1299 20.812 30.7218 20.812 30.2157C20.812 29.6933 21.1793 29.3423 21.7262 29.3505Z" fill="#F36368"/>
<path d="M26.8604 29.3506C27.4073 29.3506 27.7582 29.6934 27.7582 30.224C27.7582 30.7382 27.3664 31.1463 26.8767 31.1463C26.387 31.1463 25.9707 30.73 25.9625 30.2403C25.9544 29.7261 26.338 29.3506 26.8604 29.3506Z" fill="#EE4A60"/>
<path d="M14.8537 24.8857C14.8455 25.3918 14.4374 25.7836 13.9395 25.7673C13.4416 25.751 13.0498 25.3428 13.0498 24.8449C13.058 24.3389 13.4498 23.9634 13.9721 23.9716C14.4945 23.9797 14.8618 24.3634 14.8537 24.8857Z" fill="#FA8873"/>
<path d="M11.3681 17.703C10.8538 17.6948 10.4702 17.303 10.4702 16.8051C10.4702 16.3154 10.8947 15.9072 11.3926 15.9154C11.8741 15.9236 12.2986 16.348 12.2986 16.8377C12.2904 17.3193 11.8823 17.703 11.3681 17.703Z" fill="#FC9577"/>
<path d="M20.0124 22.1757C20.0124 22.6981 19.6369 23.0735 19.1227 23.0735C18.6248 23.0735 18.2085 22.6654 18.2085 22.1757C18.2085 21.6778 18.6084 21.2778 19.1227 21.2778C19.6451 21.2778 20.0124 21.6533 20.0124 22.1757Z" fill="#F56F6B"/>
<path d="M14.8537 19.4905C14.8537 20.0047 14.4782 20.3965 13.964 20.3965C13.4579 20.3965 13.0498 20.0047 13.0498 19.5068C13.0498 19.0008 13.4416 18.6008 13.9477 18.5927C14.4537 18.5845 14.8537 18.9844 14.8537 19.4905Z" fill="#FA8873"/>
<path d="M22.6079 24.8449C22.6079 25.3592 22.2242 25.7591 21.7263 25.7673C21.2284 25.7754 20.8203 25.3755 20.8121 24.8776C20.804 24.3634 21.1794 23.9716 21.6937 23.9716C22.2079 23.9634 22.5997 24.3389 22.6079 24.8449Z" fill="#F36368"/>
<path d="M19.1143 20.3965C18.6245 20.3965 18.2083 19.9721 18.2164 19.4823C18.2246 18.9844 18.6409 18.5845 19.1388 18.5927C19.6285 18.6008 20.0366 19.0089 20.0366 19.5068C20.0285 20.0129 19.6285 20.3965 19.1143 20.3965Z" fill="#F56F6B"/>
<path d="M22.6075 16.8215C22.6075 17.3276 22.2157 17.7112 21.7015 17.7031C21.1873 17.6949 20.8118 17.3194 20.82 16.797C20.82 16.291 21.2117 15.8992 21.726 15.9074C22.2157 15.9155 22.6075 16.3155 22.6075 16.8215Z" fill="#F36368"/>
<path d="M15.6613 30.1996C15.6694 29.6609 16.0122 29.3426 16.5754 29.3507C17.0733 29.3589 17.4488 29.7262 17.457 30.2159C17.4651 30.7138 17.0162 31.1546 16.5183 31.1383C16.0286 31.1301 15.6531 30.722 15.6613 30.1996Z" fill="#F87B6F"/>
<path d="M24.3054 23.0739C23.7912 23.0821 23.3994 22.6984 23.3912 22.1924C23.3831 21.67 23.7586 21.2864 24.2728 21.2782C24.7788 21.27 25.187 21.6618 25.2033 22.1597C25.2114 22.6576 24.8115 23.0739 24.3054 23.0739Z" fill="#F15664"/>
<path d="M11.4007 33.832C10.9436 33.8483 10.4702 33.3912 10.4702 32.9341C10.4702 32.4444 10.8783 32.0199 11.3681 32.0036C11.8415 31.9873 12.2904 32.4199 12.2986 32.9015C12.3067 33.3667 11.8741 33.8238 11.4007 33.832Z" fill="#FC9577"/>
<path d="M27.7587 19.4906C27.7587 20.013 27.3914 20.3966 26.8772 20.3966C26.3711 20.3966 25.9712 20.0049 25.963 19.4988C25.9549 19.0009 26.3548 18.5928 26.8609 18.5928C27.3669 18.5928 27.7587 18.9846 27.7587 19.4906Z" fill="#EE4A60"/>
<path d="M20.0287 27.5467C20.0205 28.0527 19.6206 28.4527 19.1227 28.4527C18.6329 28.4527 18.2085 28.0201 18.2085 27.5467C18.2167 27.0406 18.6084 26.657 19.1227 26.657C19.6532 26.657 20.0287 27.0324 20.0287 27.5467Z" fill="#F56F6B"/>
<path d="M15.6616 19.4905C15.6616 18.9844 16.0534 18.5845 16.5513 18.5927C17.0492 18.6008 17.4573 19.0089 17.4573 19.4987C17.4492 19.9966 17.0492 20.3965 16.5513 20.3965C16.0371 20.3965 15.6616 20.0047 15.6616 19.4905Z" fill="#F87B6F"/>
<path d="M12.2986 30.2159C12.2986 30.6893 11.8741 31.1301 11.4007 31.1383C10.9355 31.1464 10.4784 30.7057 10.4702 30.2404C10.4702 29.7262 10.8457 29.3507 11.3681 29.3507C11.8986 29.3426 12.2904 29.718 12.2986 30.2159Z" fill="#FC9576"/>
<path d="M24.289 29.3505C24.8032 29.3505 25.2031 29.7423 25.2031 30.232C25.195 30.7136 24.7624 31.1462 24.289 31.1462C23.8074 31.1462 23.3993 30.7299 23.3911 30.232C23.3911 29.6933 23.7503 29.3423 24.289 29.3505Z" fill="#F15664"/>
<path d="M22.6074 27.5956C22.5829 28.1016 22.1666 28.4771 21.6687 28.4526C21.1627 28.4281 20.7872 27.9955 20.8198 27.465C20.8525 26.9834 21.2525 26.6406 21.7585 26.6651C22.2728 26.6814 22.6319 27.0732 22.6074 27.5956Z" fill="#F36368"/>
<path d="M26.8191 23.0736C26.3212 23.0491 25.9376 22.6247 25.962 22.1268C25.9865 21.6207 26.3947 21.2616 26.9089 21.2779C27.4068 21.2942 27.7741 21.7023 27.7578 22.2247C27.7414 22.7389 27.3333 23.0981 26.8191 23.0736Z" fill="#EE4A60"/>
<path d="M32.5495 17.1153C32.5168 17.3928 32.3699 17.5643 32.0924 17.5969C31.8394 17.6214 31.5782 17.3602 31.6027 17.1072C31.6272 16.8215 31.7986 16.6501 32.0842 16.6582C32.3618 16.6582 32.525 16.8215 32.5495 17.1153Z" fill="#ED4261"/>
<path d="M74.7158 27.4245C74.6913 27.6857 74.577 27.8897 74.275 27.8979C73.973 27.9142 73.7853 27.7428 73.7771 27.4408C73.769 27.1551 73.9404 26.9919 74.2261 26.9837C74.5281 26.9755 74.675 27.1306 74.7158 27.4245Z" fill="#EC3E5D"/>
<path d="M35.2676 30.1909C35.2268 30.1746 35.1941 30.1583 35.1288 30.1419C35.2758 30.0603 35.4063 29.995 35.5288 29.9134C35.9451 29.6359 36.2226 29.2767 36.2471 28.7462C36.2879 27.6769 35.5614 26.877 34.4677 26.828C33.6841 26.7954 32.8924 26.8199 32.1006 26.8035C31.7333 26.7954 31.5864 26.9423 31.5946 27.3096C31.6027 28.2238 31.5946 29.1298 31.5946 30.044C31.5946 31.1949 31.5946 32.3539 31.5946 33.5048C31.5946 33.7742 31.6272 34.0109 31.97 34.0109C32.9087 34.0109 33.8473 34.0435 34.786 33.9864C35.8226 33.9292 36.5899 33.1375 36.7041 32.1009C36.8103 31.1622 36.3368 30.5419 35.2676 30.1909ZM32.37 27.481C32.6148 27.2443 33.1209 27.4239 33.5127 27.4157C33.9045 27.4076 34.2963 27.3831 34.6881 27.481C35.2921 27.6279 35.6104 28.0279 35.6104 28.6482C35.6104 29.2849 35.2757 29.7257 34.6717 29.8481C33.9453 29.995 33.2107 29.8971 32.4761 29.9215C32.3047 29.9297 32.2802 29.8154 32.2802 29.6767C32.2802 29.3339 32.2802 28.9992 32.2802 28.5829C32.3292 28.2564 32.1006 27.7422 32.37 27.481ZM36.0593 32.0029C36.0267 32.7947 35.4635 33.3742 34.6064 33.415C33.9126 33.4477 33.2189 33.415 32.5332 33.4232C32.321 33.4232 32.2884 33.3171 32.2884 33.1457C32.2965 32.7375 32.2884 32.3294 32.2884 31.9213C32.2884 31.5295 32.2884 31.1377 32.2884 30.7378C32.2884 30.6072 32.2884 30.4929 32.4679 30.4929C33.227 30.5011 33.9943 30.4521 34.7452 30.5337C35.6267 30.6317 36.092 31.2112 36.0593 32.0029Z" fill="#EC3C5C"/>
<path d="M38.3119 18.7806C38.2874 17.4991 37.2182 16.5197 35.9367 16.5523C34.6797 16.585 33.7084 17.5971 33.7002 18.8786C33.7002 19.5724 33.7002 20.2662 33.7002 20.96C33.7002 21.7191 33.7002 22.4781 33.7002 23.2454C33.7002 23.4739 33.7328 23.678 34.0022 23.678C34.2716 23.678 34.3205 23.4739 34.3205 23.2454C34.3205 22.7393 34.3287 22.2414 34.3205 21.7354C34.3124 21.4905 34.394 21.4007 34.647 21.4089C35.5694 21.417 36.4917 21.417 37.4222 21.4089C37.6589 21.4089 37.7161 21.4987 37.7161 21.7191C37.6998 22.2333 37.7161 22.7557 37.7079 23.2699C37.7079 23.4821 37.7569 23.6698 37.9936 23.678C38.2548 23.6862 38.3283 23.5066 38.3283 23.2699C38.3201 21.768 38.3446 20.2743 38.3119 18.7806ZM37.3733 20.7477C36.9243 20.7314 36.4754 20.7396 36.0265 20.7396C35.5531 20.7396 35.0715 20.7314 34.5981 20.7396C34.3858 20.7477 34.3124 20.6661 34.3124 20.4539C34.3205 19.8989 34.296 19.3357 34.3205 18.7806C34.3695 17.8175 35.1041 17.1563 36.0673 17.1808C36.9488 17.1971 37.6671 17.9236 37.6834 18.8378C37.6998 19.3683 37.6753 19.8989 37.6916 20.4294C37.7161 20.7069 37.61 20.7559 37.3733 20.7477Z" fill="#EC3C5C"/>
<path d="M50.3433 21.0576C50.3188 20.1515 49.9189 19.4251 49.1026 19.0007C48.1476 18.5109 47.1682 18.5436 46.2948 19.1884C45.3643 19.874 45.1847 20.8617 45.4133 21.9228C45.6092 22.8696 46.3601 23.5716 47.258 23.7185C48.2701 23.8817 48.9965 23.5226 49.5679 22.5839C49.5924 22.5431 49.625 22.5023 49.7148 22.3635C49.7393 22.8859 49.7556 23.294 49.6985 23.694C49.5842 24.4857 48.972 25.1469 48.1966 25.2612C47.4212 25.3754 46.7437 25.1632 46.205 24.5755C46.0663 24.4204 45.903 24.3143 45.7153 24.4857C45.5112 24.6735 45.6581 24.8285 45.7806 24.9755C46.4091 25.7346 47.715 26.0529 48.7353 25.7019C49.6985 25.3673 50.3433 24.4449 50.3515 23.3838C50.3596 22.6002 50.3678 21.8248 50.3433 21.0576ZM47.813 23.1879C46.7192 23.1716 45.9275 22.3309 45.9438 21.1963C45.952 20.0536 46.7845 19.221 47.8946 19.2374C48.9802 19.2537 49.7393 20.0944 49.7311 21.2535C49.723 22.4043 48.9231 23.2124 47.813 23.1879Z" fill="#EC3C5C"/>
<path d="M72.6344 31.3503C72.6099 30.5178 72.2181 29.873 71.5325 29.4159C70.6918 28.8527 69.4756 28.8853 68.6594 29.473C67.8105 30.0852 67.4432 31.1463 67.7044 32.2237C68.0309 33.5542 69.2144 34.2969 70.5449 34.0031C71.1325 33.8725 71.5651 33.5134 71.9977 33.0726C71.9977 33.2603 71.9977 33.4399 71.9977 33.6276C71.9977 33.8725 72.0875 34.0194 72.3569 34.0113C72.6181 34.0031 72.6507 33.8235 72.6507 33.6195C72.6426 32.8685 72.6589 32.1094 72.6344 31.3503ZM70.1204 33.5215C69.0511 33.5134 68.2349 32.6482 68.2349 31.5381C68.2349 30.4035 69.0756 29.5546 70.1694 29.571C71.2387 29.5873 72.0549 30.4607 72.0467 31.5707C72.0304 32.6645 71.1815 33.5297 70.1204 33.5215Z" fill="#EC3C5C"/>
<path d="M54.8077 18.8293C53.3549 18.3314 51.6734 19.1558 51.551 20.9842C51.4775 22.0126 51.9101 22.935 52.7753 23.4166C53.6405 23.8981 54.9383 23.8247 55.6729 23.2533C55.7954 23.1554 55.9178 23.0656 55.7954 22.886C55.6893 22.7309 55.5587 22.7228 55.4036 22.7962C55.2077 22.8942 55.02 23.0084 54.8241 23.0819C53.7058 23.5063 52.4815 22.9105 52.1877 21.8167C52.1142 21.5474 52.1224 21.3841 52.4897 21.4005C53.0284 21.425 53.5752 21.4086 54.1221 21.4086C54.6935 21.4086 55.2648 21.4005 55.8362 21.4086C56.0729 21.4086 56.2198 21.3433 56.2524 21.074C56.3259 20.168 55.6811 19.1313 54.8077 18.8293ZM55.3872 20.9515C54.8894 20.9352 54.3833 20.9434 53.8772 20.9434C53.3875 20.9434 52.8978 20.9352 52.408 20.9515C52.155 20.9597 52.106 20.8618 52.155 20.6414C52.3264 19.7925 53.0447 19.2293 53.9915 19.2375C54.8404 19.2456 55.4689 19.7843 55.6321 20.6414C55.6811 20.8536 55.6403 20.9597 55.3872 20.9515Z" fill="#EC3C5C"/>
<path d="M42.4508 29.0242C40.9734 29.0161 39.9286 30.0445 39.9205 31.5219C39.9123 33.0074 40.9734 34.0849 42.4426 34.0849C43.9118 34.0767 44.9484 33.0319 44.9484 31.5545C44.9566 30.069 43.92 29.0242 42.4508 29.0242ZM42.4263 33.5217C41.3407 33.5217 40.5408 32.681 40.549 31.5464C40.549 30.3873 41.3244 29.5793 42.4263 29.5793C43.5527 29.5711 44.3281 30.3873 44.3199 31.5709C44.3199 32.7054 43.52 33.5217 42.4263 33.5217Z" fill="#EC3C5C"/>
</g>
<defs>
<clipPath id="clip0">
<rect width="70" height="18.1856" fill="white" transform="translate(10.4702 15.9072)"/>
</clipPath>
</defs>
</svg>
