<svg width="94" height="50" viewBox="0 0 94 50" fill="none" xmlns="http://www.w3.org/2000/svg">
<g clip-path="url(#clip0)">
<path d="M43.4788 26.6974C43.4788 27.3864 43.3222 27.8781 43.0082 28.1715C42.695 28.4649 42.2157 28.6115 41.5711 28.6115C41.2336 28.6115 40.957 28.5644 40.7412 28.4711C40.5255 28.3777 40.3541 28.2444 40.2262 28.0719C40.0992 27.8994 40.0114 27.6985 39.9644 27.4691C39.9166 27.2397 39.8931 26.9979 39.8931 26.7436V26.4627H41.064V26.6618C41.064 27.0068 41.1005 27.2619 41.1744 27.4282C41.2484 27.5945 41.4006 27.678 41.6311 27.678C41.8617 27.678 42.0139 27.5953 42.0878 27.4282C42.1618 27.2619 42.1983 27.0068 42.1983 26.6618V22.0369H43.4762V26.6974H43.4788Z" fill="#2A2A28"/>
<path d="M46.7089 27.9403C46.5784 28.1821 46.4105 28.3546 46.2034 28.4568C45.9964 28.56 45.7598 28.6106 45.4936 28.6106C45.103 28.6106 44.8029 28.5066 44.5932 28.2977C44.3836 28.0888 44.2783 27.7402 44.2783 27.2504V23.6318H45.5032V26.9961C45.5032 27.2504 45.5449 27.4264 45.6276 27.5269C45.7102 27.6264 45.8433 27.6762 46.0268 27.6762C46.4583 27.6762 46.6749 27.4068 46.6749 26.8689V23.6318H47.8998V28.5111H46.7289V27.9394H46.7089V27.9403Z" fill="#2A2A28"/>
<path d="M49.8856 23.6328V24.1315H49.903C50.057 23.9075 50.2301 23.7474 50.4224 23.6505C50.6146 23.5536 50.8434 23.5056 51.1105 23.5056C51.394 23.5056 51.6324 23.5723 51.8246 23.7048C52.0169 23.8381 52.1456 24.0311 52.2109 24.2853H52.2283C52.3231 24.0257 52.4753 23.8301 52.685 23.7003C52.8946 23.5705 53.1452 23.5056 53.4348 23.5056C53.8428 23.5056 54.1429 23.631 54.3352 23.8817C54.5274 24.1324 54.624 24.4943 54.624 24.9655V28.5111H53.3992V25.1015C53.3992 24.8961 53.3618 24.7388 53.2887 24.6303C53.2148 24.5218 53.0921 24.4667 52.9207 24.4667C52.7259 24.4667 52.5702 24.5334 52.4545 24.6659C52.3388 24.7992 52.2813 25.0108 52.2813 25.3007V28.5111H51.0565V25.1015C51.0565 24.8961 51.0191 24.7388 50.9452 24.6303C50.8712 24.5218 50.7486 24.4667 50.5772 24.4667C50.3823 24.4667 50.2266 24.5334 50.1109 24.6659C49.9952 24.7992 49.9378 25.0108 49.9378 25.3007V28.5111H48.7139V23.6319H49.8856V23.6328Z" fill="#2A2A28"/>
<path d="M56.6102 23.6328V24.1493H56.6276C56.7633 23.9199 56.9156 23.7546 57.0843 23.655C57.2531 23.5554 57.461 23.5056 57.7098 23.5056C58.2126 23.5056 58.5823 23.7065 58.8189 24.1084C59.0555 24.5103 59.1739 25.1646 59.1739 26.0715C59.1739 26.9783 59.0555 27.6282 58.8189 28.0212C58.5823 28.4142 58.2126 28.6107 57.7098 28.6107C57.4793 28.6107 57.2827 28.5671 57.12 28.4791C56.9573 28.392 56.8112 28.2506 56.6807 28.0577H56.6633V29.7682L55.4385 30.0803V23.6328H56.6102ZM56.7833 27.2735C56.8634 27.5429 57.0391 27.6771 57.3114 27.6771C57.5776 27.6771 57.7507 27.5429 57.8307 27.2735C57.9108 27.0041 57.9508 26.604 57.9508 26.0715C57.9508 25.5398 57.9108 25.1388 57.8307 24.8703C57.7507 24.6018 57.5776 24.4667 57.3114 24.4667C57.0391 24.4667 56.8634 24.601 56.7833 24.8703C56.7033 25.1397 56.6633 25.5398 56.6633 26.0715C56.6642 26.604 56.7033 27.0041 56.7833 27.2735Z" fill="#2A2A28"/>
<path d="M62.454 23.1926C62.3444 22.9783 62.1452 22.8708 61.8556 22.8708C61.6955 22.8708 61.5641 22.9143 61.4606 23.0023C61.3571 23.0904 61.2753 23.2317 61.2162 23.4282C61.157 23.6247 61.1153 23.8816 61.0918 24.199C61.0683 24.5164 61.0561 24.905 61.0561 25.3646C61.0561 25.8545 61.0726 26.2501 61.1048 26.5524C61.137 26.8547 61.1875 27.0894 61.2553 27.2557C61.3232 27.4219 61.4093 27.5339 61.5128 27.5908C61.6163 27.6486 61.7364 27.6771 61.8721 27.6771C61.9843 27.6771 62.0896 27.6575 62.187 27.6184C62.2844 27.5793 62.3688 27.5002 62.4401 27.3828C62.5115 27.2654 62.5671 27.0983 62.6089 26.884C62.6498 26.6698 62.6707 26.387 62.6707 26.0359H63.9485C63.9485 26.3861 63.9216 26.7187 63.8685 27.0334C63.8154 27.3481 63.7163 27.6228 63.571 27.8584C63.4257 28.0941 63.2222 28.279 62.9586 28.4115C62.695 28.5448 62.354 28.6106 61.9338 28.6106C61.4545 28.6106 61.0735 28.5324 60.789 28.375C60.5055 28.2176 60.288 27.9909 60.1366 27.6949C59.9861 27.3988 59.8878 27.0449 59.8435 26.6342C59.7991 26.2234 59.7773 25.77 59.7773 25.2739C59.7773 24.784 59.7991 24.3324 59.8435 23.9181C59.8878 23.5038 59.9853 23.149 60.1366 22.8521C60.2871 22.556 60.5046 22.3249 60.789 22.1586C61.0726 21.9924 61.4545 21.9097 61.9338 21.9097C62.3897 21.9097 62.7489 21.9852 63.0117 22.1364C63.2752 22.2875 63.4718 22.4796 63.6015 22.7125C63.7319 22.9454 63.8128 23.1962 63.845 23.4655C63.8772 23.7349 63.8937 23.9865 63.8937 24.223H62.6158C62.6185 23.75 62.5637 23.4069 62.454 23.1926Z" fill="#93948F"/>
<path d="M64.6327 25.0102C64.6327 24.7257 64.6771 24.4884 64.7658 24.2981C64.8546 24.1078 64.9746 23.9531 65.1251 23.8358C65.2756 23.7184 65.4531 23.6331 65.6575 23.5815C65.8619 23.5299 66.0785 23.5042 66.3099 23.5042C66.6762 23.5042 66.9728 23.5406 67.1972 23.6126C67.4217 23.6855 67.5965 23.7878 67.7209 23.9211C67.8453 24.0545 67.9297 24.2127 67.9741 24.3977C68.0184 24.5826 68.0402 24.7826 68.0402 25.0005V27.5672C68.0402 27.7975 68.0506 27.9753 68.0715 28.1024C68.0924 28.2296 68.1324 28.3656 68.1915 28.5105H67.0206C66.9789 28.4323 66.9484 28.3487 66.9276 28.2616C66.9067 28.1736 66.8875 28.0882 66.8701 28.0029H66.8528C66.711 28.2571 66.5465 28.4216 66.3604 28.4972C66.1742 28.5727 65.9333 28.611 65.6375 28.611C65.4244 28.611 65.2443 28.5727 65.0964 28.4972C64.9485 28.4216 64.8302 28.3176 64.7415 28.1842C64.6528 28.0509 64.5875 27.9015 64.5466 27.7352C64.5049 27.569 64.4849 27.4045 64.4849 27.2409C64.4849 27.0115 64.5084 26.8133 64.5562 26.647C64.6032 26.4808 64.6762 26.3385 64.7737 26.2212C64.8711 26.1038 64.9955 26.0051 65.146 25.926C65.2965 25.8477 65.4792 25.7775 65.6914 25.717L66.3839 25.5268C66.5674 25.4788 66.6944 25.4121 66.7658 25.3276C66.8371 25.2432 66.8719 25.1187 66.8719 24.956C66.8719 24.7684 66.8293 24.6217 66.7431 24.5159C66.657 24.4101 66.5109 24.3568 66.3038 24.3568C66.1142 24.3568 65.9724 24.4146 65.8776 24.5292C65.7828 24.6439 65.7358 24.7986 65.7358 24.9916V25.1276H64.6354V25.0102H64.6327ZM66.6022 26.23C66.5074 26.2692 66.4213 26.2985 66.3447 26.3163C66.0959 26.3705 65.9185 26.4612 65.8123 26.5883C65.7062 26.7155 65.6523 26.888 65.6523 27.1049C65.6523 27.2925 65.6879 27.4525 65.7584 27.5859C65.8297 27.7192 65.9481 27.785 66.1133 27.785C66.196 27.785 66.2821 27.7717 66.3708 27.7441C66.4596 27.7166 66.5405 27.673 66.6144 27.6125C66.6883 27.5521 66.7492 27.4739 66.7962 27.3769C66.8432 27.28 66.8675 27.1653 66.8675 27.032V26.0709C66.7858 26.1376 66.697 26.1909 66.6022 26.23Z" fill="#93948F"/>
<path d="M70.08 23.6328V24.1493H70.0974C70.2331 23.9199 70.3853 23.7546 70.5541 23.655C70.7228 23.5554 70.9307 23.5056 71.1795 23.5056C71.6823 23.5056 72.052 23.7065 72.2887 24.1084C72.5253 24.5103 72.6436 25.1646 72.6436 26.0715C72.6436 26.9783 72.5253 27.6282 72.2887 28.0212C72.052 28.4142 71.6823 28.6107 71.1795 28.6107C70.949 28.6107 70.7524 28.5671 70.5897 28.4791C70.4271 28.392 70.2809 28.2506 70.1504 28.0577H70.133V29.738L68.9082 30.0803V23.6328H70.08ZM70.2531 27.2735C70.3331 27.5429 70.5088 27.6771 70.7811 27.6771C71.0473 27.6771 71.2204 27.5429 71.3004 27.2735C71.3805 27.0041 71.4205 26.604 71.4205 26.0715C71.4205 25.5398 71.3805 25.1388 71.3004 24.8703C71.2204 24.6018 71.0473 24.4667 70.7811 24.4667C70.5088 24.4667 70.3331 24.601 70.2531 24.8703C70.173 25.1397 70.133 25.5398 70.133 26.0715C70.133 26.604 70.173 27.0041 70.2531 27.2735Z" fill="#93948F"/>
<path d="M74.614 21.9639V23.0343H73.3892V21.9639H74.614ZM74.614 23.6327V28.5119H73.3892V23.6327H74.614Z" fill="#93948F"/>
<path d="M76.9661 22.2361V23.6328H77.6759V24.4854H76.9661V27.1242C76.9661 27.318 76.9939 27.4549 77.0504 27.5367C77.107 27.6185 77.2235 27.6594 77.401 27.6594C77.448 27.6594 77.4958 27.6576 77.5428 27.655C77.5898 27.6523 77.6341 27.6479 77.6759 27.6416V28.512C77.5393 28.512 77.408 28.5165 77.281 28.5254C77.154 28.5343 77.0191 28.5387 76.8773 28.5387C76.6407 28.5387 76.4467 28.5218 76.2962 28.4889C76.1457 28.456 76.03 28.3894 75.95 28.2898C75.87 28.1902 75.8152 28.0586 75.7856 27.895C75.756 27.7314 75.7412 27.5261 75.7412 27.278V24.4845H75.1201V23.6319H75.7412V22.5464L76.9661 22.2361Z" fill="#93948F"/>
<path d="M78.0927 25.0102C78.0927 24.7257 78.1371 24.4884 78.2258 24.2981C78.3145 24.1078 78.4346 23.9531 78.5851 23.8358C78.7356 23.7184 78.913 23.6331 79.1175 23.5815C79.3219 23.5299 79.5385 23.5042 79.7699 23.5042C80.1361 23.5042 80.4328 23.5406 80.6572 23.6126C80.8816 23.6855 81.0565 23.7878 81.1809 23.9211C81.3053 24.0545 81.3896 24.2127 81.434 24.3977C81.4784 24.5826 81.5001 24.7826 81.5001 25.0005V27.5672C81.5001 27.7975 81.5106 27.9753 81.5314 28.1024C81.5523 28.2296 81.5923 28.3656 81.6515 28.5105H80.4806C80.4388 28.4323 80.4084 28.3487 80.3875 28.2616C80.3666 28.1736 80.3475 28.0882 80.3301 28.0029H80.3127C80.1709 28.2571 80.0065 28.4216 79.8203 28.4972C79.6342 28.5727 79.3932 28.611 79.0974 28.611C78.8843 28.611 78.7043 28.5727 78.5564 28.4972C78.4085 28.4216 78.2902 28.3176 78.2014 28.1842C78.1127 28.0509 78.0475 27.9015 78.0066 27.7352C77.9648 27.569 77.9448 27.4045 77.9448 27.2409C77.9448 27.0115 77.9683 26.8133 78.0162 26.647C78.0631 26.4808 78.1362 26.3385 78.2336 26.2212C78.3311 26.1038 78.4555 26.0051 78.606 25.926C78.7564 25.8477 78.9391 25.7775 79.1514 25.717L79.8438 25.5268C80.0274 25.4788 80.1544 25.4121 80.2257 25.3276C80.297 25.2432 80.3318 25.1187 80.3318 24.956C80.3318 24.7684 80.2892 24.6217 80.2031 24.5159C80.117 24.4101 79.9708 24.3568 79.7638 24.3568C79.5742 24.3568 79.4324 24.4146 79.3375 24.5292C79.2427 24.6439 79.1957 24.7986 79.1957 24.9916V25.1276H78.0953V25.0102H78.0927ZM80.063 26.23C79.9682 26.2692 79.8821 26.2985 79.8056 26.3163C79.5568 26.3705 79.3793 26.4612 79.2732 26.5883C79.167 26.7155 79.1131 26.888 79.1131 27.1049C79.1131 27.2925 79.1488 27.4525 79.2192 27.5859C79.2906 27.7192 79.4089 27.785 79.5742 27.785C79.6568 27.785 79.7429 27.7717 79.8316 27.7441C79.9204 27.7166 80.0013 27.673 80.0752 27.6125C80.1492 27.5521 80.2101 27.4739 80.257 27.3769C80.304 27.28 80.3284 27.1653 80.3284 27.032V26.0709C80.2457 26.1376 80.157 26.1909 80.063 26.23Z" fill="#93948F"/>
<path d="M83.6384 22.0369V28.512H82.4136V22.348L83.6384 22.0369Z" fill="#93948F"/>
<path d="M23.3423 38C19.9671 38 16.7449 36.6513 14.3509 34.2054C11.957 31.7596 10.6382 28.4656 10.6382 25.016C10.6382 21.5664 11.9578 18.2724 14.3509 15.8266C16.7441 13.3807 19.9671 12 23.3423 12C26.7175 12 29.9397 13.3487 32.3337 15.7946C34.7276 18.2404 36.0464 21.5344 36.0464 24.984C36.0464 28.4336 34.7268 31.7267 32.3337 34.1734C29.9405 36.6513 26.7489 38 23.3423 38ZM23.3423 13.7879C20.4272 13.7879 17.6653 14.9482 15.6088 17.0499C13.5219 19.1828 12.4171 21.9736 12.4171 24.9538C12.4171 27.9339 13.5524 30.7558 15.6088 32.8576C17.6957 34.9905 20.4264 36.1196 23.3423 36.1196C26.2582 36.1196 29.0193 34.9594 31.0758 32.8576C33.1627 30.7247 34.2675 27.9339 34.2675 24.9538C34.2675 21.9736 33.1322 19.1517 31.0758 17.0499C29.0202 14.9482 26.2887 13.7879 23.3423 13.7879Z" fill="#386BA2"/>
<path d="M30.892 28.2147L30.7693 28.4343C29.9411 30.0027 28.805 31.194 27.3018 32.0413C26.5041 32.5116 25.7369 32.7623 25.1845 32.8877V17.2685C25.7369 17.425 26.4737 17.6766 27.3018 18.1149C28.7746 18.9613 29.9411 20.1535 30.7693 21.7219L30.892 21.9415L32.242 21.3458L32.0889 21.0639C30.8615 18.7746 29.2043 17.457 28.0387 16.7982C26.7495 16.0771 25.522 15.7633 24.9696 15.6691C24.2641 15.5437 23.7422 15.5437 23.7422 15.5437V34.5814L24.5399 34.5183C24.6017 34.5183 26.1971 34.3618 28.0387 33.326C29.2357 32.6672 30.8615 31.3816 32.0889 29.0603L32.242 28.8095L30.892 28.2147Z" fill="#386BA2"/>
<path d="M21.4719 15.7634V32.95C20.889 32.7936 19.9374 32.5108 18.9865 31.9152C17.6364 31.0999 16.6543 29.9708 15.9488 28.5278C15.9184 28.4967 15.9184 28.4967 15.9184 28.4336L15.7957 28.214L14.4761 28.8096C14.5683 28.9661 14.6292 29.1235 14.6909 29.28C15.6731 31.2244 17.0536 32.4477 18.2202 33.2008C20.1844 34.4241 21.9329 34.5806 22.1173 34.6117L22.8846 34.6748V15.9519V15.8888V15.6069C22.9446 15.6069 22.1156 15.6069 21.4719 15.7634Z" fill="#386BA2"/>
</g>
<defs>
<clipPath id="clip0">
<rect width="73" height="26" fill="white" transform="translate(10.6382 12)"/>
</clipPath>
</defs>
</svg>
