<svg width="98" height="50" viewBox="0 0 98 50" fill="none" xmlns="http://www.w3.org/2000/svg">
<path d="M11.7743 29V20.6H13.2263V24.02H13.4303L16.3583 20.6H18.2183L14.5583 24.74L18.3383 29H16.4303L13.4303 25.508H13.2263V29H11.7743ZM21.1231 29.168C20.7071 29.168 20.3311 29.096 19.9951 28.952C19.6591 28.8 19.3911 28.584 19.1911 28.304C18.9991 28.024 18.9031 27.68 18.9031 27.272C18.9031 26.872 18.9991 26.536 19.1911 26.264C19.3911 25.992 19.6631 25.788 20.0071 25.652C20.3511 25.508 20.7431 25.436 21.1831 25.436H22.8991V25.076C22.8991 24.764 22.8031 24.512 22.6111 24.32C22.4191 24.12 22.1191 24.02 21.7111 24.02C21.3111 24.02 21.0071 24.116 20.7991 24.308C20.5991 24.492 20.4671 24.732 20.4031 25.028L19.1311 24.608C19.2271 24.296 19.3791 24.012 19.5871 23.756C19.8031 23.5 20.0871 23.296 20.4391 23.144C20.7911 22.984 21.2231 22.904 21.7351 22.904C22.5111 22.904 23.1191 23.1 23.5591 23.492C24.0071 23.876 24.2311 24.436 24.2311 25.172V27.5C24.2311 27.74 24.3431 27.86 24.5671 27.86H25.0711V29H24.0991C23.8111 29 23.5751 28.928 23.3911 28.784C23.2071 28.64 23.1151 28.444 23.1151 28.196V28.172H22.9111C22.8631 28.284 22.7791 28.42 22.6591 28.58C22.5391 28.74 22.3551 28.88 22.1071 29C21.8671 29.112 21.5391 29.168 21.1231 29.168ZM21.3511 28.04C21.8071 28.04 22.1791 27.912 22.4671 27.656C22.7551 27.392 22.8991 27.04 22.8991 26.6V26.48H21.2671C20.9711 26.48 20.7311 26.544 20.5471 26.672C20.3631 26.8 20.2711 26.988 20.2711 27.236C20.2711 27.476 20.3671 27.672 20.5591 27.824C20.7511 27.968 21.0151 28.04 21.3511 28.04ZM26.2129 29V23.072H27.5929V29H26.2129ZM26.8969 22.316C26.6489 22.316 26.4329 22.236 26.2489 22.076C26.0729 21.908 25.9849 21.688 25.9849 21.416C25.9849 21.144 26.0729 20.928 26.2489 20.768C26.4329 20.6 26.6489 20.516 26.8969 20.516C27.1609 20.516 27.3769 20.6 27.5449 20.768C27.7209 20.928 27.8089 21.144 27.8089 21.416C27.8089 21.688 27.7209 21.908 27.5449 22.076C27.3769 22.236 27.1609 22.316 26.8969 22.316ZM29.3418 29V23.072H30.6978V23.9H30.9018C31.0058 23.676 31.1938 23.464 31.4658 23.264C31.7378 23.064 32.1498 22.964 32.7018 22.964C33.1578 22.964 33.5618 23.068 33.9138 23.276C34.2658 23.484 34.5378 23.772 34.7298 24.14C34.9298 24.508 35.0298 24.944 35.0298 25.448V29H33.6498V25.556C33.6498 25.076 33.5298 24.72 33.2898 24.488C33.0578 24.248 32.7258 24.128 32.2938 24.128C31.8058 24.128 31.4218 24.292 31.1418 24.62C30.8618 24.94 30.7218 25.4 30.7218 26V29H29.3418ZM40.3849 29L39.2209 20.6H40.6489L41.5609 28.004H41.7649L42.9409 20.6H45.4489L46.6249 28.004H46.8289L47.7289 20.6H49.1689L47.9929 29H45.4849L44.2969 21.452H44.0929L42.8929 29H40.3849ZM52.1661 29.168C51.7501 29.168 51.3741 29.096 51.0381 28.952C50.7021 28.8 50.4341 28.584 50.2341 28.304C50.0421 28.024 49.9461 27.68 49.9461 27.272C49.9461 26.872 50.0421 26.536 50.2341 26.264C50.4341 25.992 50.7061 25.788 51.0501 25.652C51.3941 25.508 51.7861 25.436 52.2261 25.436H53.9421V25.076C53.9421 24.764 53.8461 24.512 53.6541 24.32C53.4621 24.12 53.1621 24.02 52.7541 24.02C52.3541 24.02 52.0501 24.116 51.8421 24.308C51.6421 24.492 51.5101 24.732 51.4461 25.028L50.1741 24.608C50.2701 24.296 50.4221 24.012 50.6301 23.756C50.8461 23.5 51.1301 23.296 51.4821 23.144C51.8341 22.984 52.2661 22.904 52.7781 22.904C53.5541 22.904 54.1621 23.1 54.6021 23.492C55.0501 23.876 55.2741 24.436 55.2741 25.172V27.5C55.2741 27.74 55.3861 27.86 55.6101 27.86H56.1141V29H55.1421C54.8541 29 54.6181 28.928 54.4341 28.784C54.2501 28.64 54.1581 28.444 54.1581 28.196V28.172H53.9541C53.9061 28.284 53.8221 28.42 53.7021 28.58C53.5821 28.74 53.3981 28.88 53.1501 29C52.9101 29.112 52.5821 29.168 52.1661 29.168ZM52.3941 28.04C52.8501 28.04 53.2221 27.912 53.5101 27.656C53.7981 27.392 53.9421 27.04 53.9421 26.6V26.48H52.3101C52.0141 26.48 51.7741 26.544 51.5901 26.672C51.4061 26.8 51.3141 26.988 51.3141 27.236C51.3141 27.476 51.4101 27.672 51.6021 27.824C51.7941 27.968 52.0581 28.04 52.3941 28.04ZM57.2559 29V23.072H58.6119V23.756H58.8159C58.9039 23.508 59.0519 23.328 59.2599 23.216C59.4679 23.104 59.7159 23.048 60.0039 23.048H60.7239V24.272H59.9799C59.5799 24.272 59.2559 24.38 59.0079 24.596C58.7599 24.804 58.6359 25.128 58.6359 25.568V29H57.2559ZM62.5074 29L61.5834 23.072H62.9514L63.5874 28.076H63.7914L64.6914 23.072H66.8994L67.7994 28.076H68.0034L68.6394 23.072H70.0074L69.0834 29H66.7914L65.9034 23.996H65.6994L64.7994 29H62.5074ZM71.4004 29V23.072H72.7804V29H71.4004ZM72.0844 22.316C71.8364 22.316 71.6204 22.236 71.4364 22.076C71.2604 21.908 71.1724 21.688 71.1724 21.416C71.1724 21.144 71.2604 20.928 71.4364 20.768C71.6204 20.6 71.8364 20.516 72.0844 20.516C72.3484 20.516 72.5644 20.6 72.7324 20.768C72.9084 20.928 72.9964 21.144 72.9964 21.416C72.9964 21.688 72.9084 21.908 72.7324 22.076C72.5644 22.236 72.3484 22.316 72.0844 22.316ZM77.3013 29.168C76.7253 29.168 76.2053 29.048 75.7413 28.808C75.2773 28.568 74.9093 28.22 74.6373 27.764C74.3733 27.308 74.2413 26.76 74.2413 26.12V25.952C74.2413 25.312 74.3733 24.764 74.6373 24.308C74.9093 23.852 75.2773 23.504 75.7413 23.264C76.2053 23.024 76.7253 22.904 77.3013 22.904C77.8693 22.904 78.3533 23.004 78.7533 23.204C79.1613 23.404 79.4893 23.68 79.7373 24.032C79.9853 24.376 80.1453 24.764 80.2173 25.196L78.8853 25.472C78.8533 25.224 78.7773 25 78.6573 24.8C78.5373 24.592 78.3653 24.428 78.1413 24.308C77.9253 24.188 77.6573 24.128 77.3373 24.128C77.0093 24.128 76.7133 24.2 76.4493 24.344C76.1933 24.48 75.9893 24.688 75.8373 24.968C75.6933 25.248 75.6213 25.584 75.6213 25.976V26.096C75.6213 26.488 75.6933 26.824 75.8373 27.104C75.9893 27.376 76.1933 27.584 76.4493 27.728C76.7133 27.872 77.0093 27.944 77.3373 27.944C77.8253 27.944 78.1933 27.82 78.4413 27.572C78.6973 27.316 78.8573 26.988 78.9213 26.588L80.2533 26.9C80.1573 27.316 79.9853 27.696 79.7373 28.04C79.4893 28.384 79.1613 28.66 78.7533 28.868C78.3533 29.068 77.8693 29.168 77.3013 29.168ZM81.5957 29V20.6H82.9757V25.316H83.1797L85.3157 23.072H87.1277L84.2597 25.94L87.2237 29H85.4357L83.1797 26.588H82.9757V29H81.5957Z" fill="#C5C5C5"/>
<path d="M11.7743 29V20.6H13.2263V24.02H13.4303L16.3583 20.6H18.2183L14.5583 24.74L18.3383 29H16.4303L13.4303 25.508H13.2263V29H11.7743ZM21.1231 29.168C20.7071 29.168 20.3311 29.096 19.9951 28.952C19.6591 28.8 19.3911 28.584 19.1911 28.304C18.9991 28.024 18.9031 27.68 18.9031 27.272C18.9031 26.872 18.9991 26.536 19.1911 26.264C19.3911 25.992 19.6631 25.788 20.0071 25.652C20.3511 25.508 20.7431 25.436 21.1831 25.436H22.8991V25.076C22.8991 24.764 22.8031 24.512 22.6111 24.32C22.4191 24.12 22.1191 24.02 21.7111 24.02C21.3111 24.02 21.0071 24.116 20.7991 24.308C20.5991 24.492 20.4671 24.732 20.4031 25.028L19.1311 24.608C19.2271 24.296 19.3791 24.012 19.5871 23.756C19.8031 23.5 20.0871 23.296 20.4391 23.144C20.7911 22.984 21.2231 22.904 21.7351 22.904C22.5111 22.904 23.1191 23.1 23.5591 23.492C24.0071 23.876 24.2311 24.436 24.2311 25.172V27.5C24.2311 27.74 24.3431 27.86 24.5671 27.86H25.0711V29H24.0991C23.8111 29 23.5751 28.928 23.3911 28.784C23.2071 28.64 23.1151 28.444 23.1151 28.196V28.172H22.9111C22.8631 28.284 22.7791 28.42 22.6591 28.58C22.5391 28.74 22.3551 28.88 22.1071 29C21.8671 29.112 21.5391 29.168 21.1231 29.168ZM21.3511 28.04C21.8071 28.04 22.1791 27.912 22.4671 27.656C22.7551 27.392 22.8991 27.04 22.8991 26.6V26.48H21.2671C20.9711 26.48 20.7311 26.544 20.5471 26.672C20.3631 26.8 20.2711 26.988 20.2711 27.236C20.2711 27.476 20.3671 27.672 20.5591 27.824C20.7511 27.968 21.0151 28.04 21.3511 28.04ZM26.2129 29V23.072H27.5929V29H26.2129ZM26.8969 22.316C26.6489 22.316 26.4329 22.236 26.2489 22.076C26.0729 21.908 25.9849 21.688 25.9849 21.416C25.9849 21.144 26.0729 20.928 26.2489 20.768C26.4329 20.6 26.6489 20.516 26.8969 20.516C27.1609 20.516 27.3769 20.6 27.5449 20.768C27.7209 20.928 27.8089 21.144 27.8089 21.416C27.8089 21.688 27.7209 21.908 27.5449 22.076C27.3769 22.236 27.1609 22.316 26.8969 22.316ZM29.3418 29V23.072H30.6978V23.9H30.9018C31.0058 23.676 31.1938 23.464 31.4658 23.264C31.7378 23.064 32.1498 22.964 32.7018 22.964C33.1578 22.964 33.5618 23.068 33.9138 23.276C34.2658 23.484 34.5378 23.772 34.7298 24.14C34.9298 24.508 35.0298 24.944 35.0298 25.448V29H33.6498V25.556C33.6498 25.076 33.5298 24.72 33.2898 24.488C33.0578 24.248 32.7258 24.128 32.2938 24.128C31.8058 24.128 31.4218 24.292 31.1418 24.62C30.8618 24.94 30.7218 25.4 30.7218 26V29H29.3418ZM40.3849 29L39.2209 20.6H40.6489L41.5609 28.004H41.7649L42.9409 20.6H45.4489L46.6249 28.004H46.8289L47.7289 20.6H49.1689L47.9929 29H45.4849L44.2969 21.452H44.0929L42.8929 29H40.3849ZM52.1661 29.168C51.7501 29.168 51.3741 29.096 51.0381 28.952C50.7021 28.8 50.4341 28.584 50.2341 28.304C50.0421 28.024 49.9461 27.68 49.9461 27.272C49.9461 26.872 50.0421 26.536 50.2341 26.264C50.4341 25.992 50.7061 25.788 51.0501 25.652C51.3941 25.508 51.7861 25.436 52.2261 25.436H53.9421V25.076C53.9421 24.764 53.8461 24.512 53.6541 24.32C53.4621 24.12 53.1621 24.02 52.7541 24.02C52.3541 24.02 52.0501 24.116 51.8421 24.308C51.6421 24.492 51.5101 24.732 51.4461 25.028L50.1741 24.608C50.2701 24.296 50.4221 24.012 50.6301 23.756C50.8461 23.5 51.1301 23.296 51.4821 23.144C51.8341 22.984 52.2661 22.904 52.7781 22.904C53.5541 22.904 54.1621 23.1 54.6021 23.492C55.0501 23.876 55.2741 24.436 55.2741 25.172V27.5C55.2741 27.74 55.3861 27.86 55.6101 27.86H56.1141V29H55.1421C54.8541 29 54.6181 28.928 54.4341 28.784C54.2501 28.64 54.1581 28.444 54.1581 28.196V28.172H53.9541C53.9061 28.284 53.8221 28.42 53.7021 28.58C53.5821 28.74 53.3981 28.88 53.1501 29C52.9101 29.112 52.5821 29.168 52.1661 29.168ZM52.3941 28.04C52.8501 28.04 53.2221 27.912 53.5101 27.656C53.7981 27.392 53.9421 27.04 53.9421 26.6V26.48H52.3101C52.0141 26.48 51.7741 26.544 51.5901 26.672C51.4061 26.8 51.3141 26.988 51.3141 27.236C51.3141 27.476 51.4101 27.672 51.6021 27.824C51.7941 27.968 52.0581 28.04 52.3941 28.04ZM57.2559 29V23.072H58.6119V23.756H58.8159C58.9039 23.508 59.0519 23.328 59.2599 23.216C59.4679 23.104 59.7159 23.048 60.0039 23.048H60.7239V24.272H59.9799C59.5799 24.272 59.2559 24.38 59.0079 24.596C58.7599 24.804 58.6359 25.128 58.6359 25.568V29H57.2559ZM62.5074 29L61.5834 23.072H62.9514L63.5874 28.076H63.7914L64.6914 23.072H66.8994L67.7994 28.076H68.0034L68.6394 23.072H70.0074L69.0834 29H66.7914L65.9034 23.996H65.6994L64.7994 29H62.5074ZM71.4004 29V23.072H72.7804V29H71.4004ZM72.0844 22.316C71.8364 22.316 71.6204 22.236 71.4364 22.076C71.2604 21.908 71.1724 21.688 71.1724 21.416C71.1724 21.144 71.2604 20.928 71.4364 20.768C71.6204 20.6 71.8364 20.516 72.0844 20.516C72.3484 20.516 72.5644 20.6 72.7324 20.768C72.9084 20.928 72.9964 21.144 72.9964 21.416C72.9964 21.688 72.9084 21.908 72.7324 22.076C72.5644 22.236 72.3484 22.316 72.0844 22.316ZM77.3013 29.168C76.7253 29.168 76.2053 29.048 75.7413 28.808C75.2773 28.568 74.9093 28.22 74.6373 27.764C74.3733 27.308 74.2413 26.76 74.2413 26.12V25.952C74.2413 25.312 74.3733 24.764 74.6373 24.308C74.9093 23.852 75.2773 23.504 75.7413 23.264C76.2053 23.024 76.7253 22.904 77.3013 22.904C77.8693 22.904 78.3533 23.004 78.7533 23.204C79.1613 23.404 79.4893 23.68 79.7373 24.032C79.9853 24.376 80.1453 24.764 80.2173 25.196L78.8853 25.472C78.8533 25.224 78.7773 25 78.6573 24.8C78.5373 24.592 78.3653 24.428 78.1413 24.308C77.9253 24.188 77.6573 24.128 77.3373 24.128C77.0093 24.128 76.7133 24.2 76.4493 24.344C76.1933 24.48 75.9893 24.688 75.8373 24.968C75.6933 25.248 75.6213 25.584 75.6213 25.976V26.096C75.6213 26.488 75.6933 26.824 75.8373 27.104C75.9893 27.376 76.1933 27.584 76.4493 27.728C76.7133 27.872 77.0093 27.944 77.3373 27.944C77.8253 27.944 78.1933 27.82 78.4413 27.572C78.6973 27.316 78.8573 26.988 78.9213 26.588L80.2533 26.9C80.1573 27.316 79.9853 27.696 79.7373 28.04C79.4893 28.384 79.1613 28.66 78.7533 28.868C78.3533 29.068 77.8693 29.168 77.3013 29.168ZM81.5957 29V20.6H82.9757V25.316H83.1797L85.3157 23.072H87.1277L84.2597 25.94L87.2237 29H85.4357L83.1797 26.588H82.9757V29H81.5957Z" fill="url(#paint0_linear)"/>
<defs>
<linearGradient id="paint0_linear" x1="10.6787" y1="25.2459" x2="87.6831" y2="25.471" gradientUnits="userSpaceOnUse">
<stop stop-color="#2D82B7"/>
<stop offset="1" stop-color="#5CC7F2"/>
</linearGradient>
</defs>
</svg>
