<svg width="141" height="50" viewBox="0 0 141 50" fill="none" xmlns="http://www.w3.org/2000/svg">
<path d="M36.6396 33.8896C36.897 33.6322 36.897 33.215 36.6396 32.9576C36.3823 32.7003 35.965 32.7003 35.7077 32.9576C35.4503 33.215 35.4503 33.6322 35.7077 33.8896C35.965 34.1469 36.3823 34.1469 36.6396 33.8896Z" fill="#1E3888"/>
<path d="M35.2998 32.5496C35.5203 32.3291 35.5203 31.9716 35.2998 31.7511C35.0793 31.5306 34.7218 31.5306 34.5013 31.7511C34.2808 31.9716 34.2808 32.3291 34.5013 32.5496C34.7218 32.7701 35.0793 32.7701 35.2998 32.5496Z" fill="#1E3888"/>
<path d="M34.0928 31.3428C34.2765 31.1591 34.2765 30.8614 34.0928 30.6777C33.9092 30.4941 33.6114 30.4941 33.4277 30.6777C33.2441 30.8614 33.2441 31.1591 33.4277 31.3428C33.6114 31.5264 33.9092 31.5264 34.0928 31.3428Z" fill="#1E3888"/>
<path d="M33.0215 30.269C33.1683 30.1222 33.1683 29.8842 33.0215 29.7374C32.8747 29.5906 32.6367 29.5906 32.4899 29.7374C32.3431 29.8842 32.3431 30.1222 32.4899 30.269C32.6367 30.4158 32.8747 30.4158 33.0215 30.269Z" fill="#1E3888"/>
<path d="M32.0811 29.3282C32.1911 29.2183 32.1911 29.04 32.0811 28.9301C31.9712 28.8201 31.7929 28.8201 31.683 28.9301C31.573 29.04 31.573 29.2183 31.683 29.3282C31.7929 29.4382 31.9712 29.4382 32.0811 29.3282Z" fill="#1E3888"/>
<path d="M31.2739 28.5214C31.3476 28.4477 31.3476 28.3282 31.2739 28.2545C31.2002 28.1808 31.0807 28.1808 31.007 28.2545C30.9333 28.3282 30.9333 28.4477 31.007 28.5214C31.0807 28.5951 31.2002 28.5951 31.2739 28.5214Z" fill="#1E3888"/>
<path d="M30.5991 27.847C30.636 27.8101 30.636 27.7504 30.5991 27.7135C30.5622 27.6767 30.5025 27.6767 30.4657 27.7135C30.4288 27.7504 30.4288 27.8101 30.4657 27.847C30.5025 27.8838 30.5622 27.8838 30.5991 27.847Z" fill="#1E3888"/>
<path d="M29.9253 27.1721C30.109 26.9885 30.109 26.6907 29.9253 26.5071C29.7417 26.3234 29.4439 26.3234 29.2603 26.5071C29.0766 26.6907 29.0766 26.9885 29.2603 27.1721C29.4439 27.3558 29.7417 27.3558 29.9253 27.1721Z" fill="#1E3888"/>
<path d="M19.7134 16.9611C19.9707 16.7037 19.9707 16.2865 19.7134 16.0291C19.456 15.7718 19.0388 15.7718 18.7814 16.0291C18.5241 16.2865 18.5241 16.7037 18.7814 16.9611C19.0388 17.2185 19.456 17.2185 19.7134 16.9611Z" fill="#1E3888"/>
<path d="M20.9204 18.1676C21.1409 17.9471 21.1409 17.5896 20.9204 17.3691C20.6999 17.1486 20.3424 17.1486 20.1219 17.3691C19.9014 17.5896 19.9014 17.9471 20.1219 18.1676C20.3424 18.3881 20.6999 18.3881 20.9204 18.1676Z" fill="#1E3888"/>
<path d="M21.9922 19.2412C22.1759 19.0576 22.1759 18.7598 21.9922 18.5762C21.8086 18.3925 21.5108 18.3925 21.3272 18.5762C21.1435 18.7598 21.1435 19.0576 21.3272 19.2412C21.5108 19.4249 21.8086 19.4249 21.9922 19.2412Z" fill="#1E3888"/>
<path d="M22.9317 20.1816C23.0785 20.0348 23.0785 19.7968 22.9317 19.65C22.7849 19.5032 22.5469 19.5032 22.4001 19.65C22.2533 19.7968 22.2533 20.0348 22.4001 20.1816C22.5469 20.3284 22.7849 20.3284 22.9317 20.1816Z" fill="#1E3888"/>
<path d="M23.7393 20.9886C23.8493 20.8787 23.8493 20.7004 23.7393 20.5905C23.6294 20.4805 23.4511 20.4805 23.3412 20.5905C23.2312 20.7004 23.2312 20.8787 23.3412 20.9886C23.4511 21.0986 23.6294 21.0986 23.7393 20.9886Z" fill="#1E3888"/>
<path d="M24.415 21.664C24.4887 21.5903 24.4887 21.4708 24.415 21.3971C24.3413 21.3234 24.2218 21.3234 24.1481 21.3971C24.0744 21.4708 24.0744 21.5903 24.1481 21.664C24.2218 21.7377 24.3413 21.7377 24.415 21.664Z" fill="#1E3888"/>
<path d="M24.956 22.2049C24.9929 22.1681 24.9929 22.1083 24.956 22.0715C24.9192 22.0346 24.8594 22.0346 24.8226 22.0715C24.7857 22.1083 24.7857 22.1681 24.8226 22.2049C24.8594 22.2418 24.9192 22.2418 24.956 22.2049Z" fill="#1E3888"/>
<path d="M26.1621 23.4116C26.3458 23.228 26.3458 22.9302 26.1621 22.7466C25.9785 22.5629 25.6807 22.5629 25.4971 22.7466C25.3134 22.9302 25.3134 23.228 25.4971 23.4116C25.6807 23.5953 25.9785 23.5953 26.1621 23.4116Z" fill="#1E3888"/>
<path d="M19.7129 33.8881C19.9702 33.6307 19.9702 33.2135 19.7129 32.9561C19.4555 32.6988 19.0383 32.6988 18.7809 32.9561C18.5236 33.2135 18.5236 33.6307 18.7809 33.8881C19.0383 34.1455 19.4555 34.1455 19.7129 33.8881Z" fill="#1E3888"/>
<path d="M20.919 32.5484C21.1395 32.3279 21.1395 31.9704 20.919 31.7499C20.6985 31.5294 20.341 31.5294 20.1204 31.7499C19.8999 31.9704 19.8999 32.3279 20.1204 32.5484C20.3409 32.7689 20.6985 32.7689 20.919 32.5484Z" fill="#1E3888"/>
<path d="M21.9917 31.3423C22.1754 31.1586 22.1754 30.8609 21.9917 30.6772C21.8081 30.4936 21.5103 30.4936 21.3267 30.6772C21.143 30.8609 21.143 31.1586 21.3267 31.3423C21.5103 31.5259 21.8081 31.5259 21.9917 31.3423Z" fill="#1E3888"/>
<path d="M22.9327 30.2702C23.0795 30.1234 23.0795 29.8854 22.9327 29.7386C22.7859 29.5918 22.5479 29.5918 22.4011 29.7386C22.2543 29.8854 22.2543 30.1234 22.4011 30.2702C22.5479 30.417 22.7859 30.417 22.9327 30.2702Z" fill="#1E3888"/>
<path d="M23.7403 29.3292C23.8503 29.2193 23.8503 29.041 23.7403 28.931C23.6304 28.8211 23.4521 28.8211 23.3421 28.931C23.2322 29.041 23.2322 29.2193 23.3421 29.3292C23.4521 29.4392 23.6304 29.4392 23.7403 29.3292Z" fill="#1E3888"/>
<path d="M24.4155 28.5224C24.4892 28.4487 24.4892 28.3292 24.4155 28.2555C24.3418 28.1818 24.2223 28.1818 24.1486 28.2555C24.0749 28.3292 24.0749 28.4487 24.1486 28.5224C24.2223 28.5961 24.3418 28.5961 24.4155 28.5224Z" fill="#1E3888"/>
<path d="M24.957 27.8477C24.9939 27.8109 24.9939 27.7511 24.957 27.7143C24.9202 27.6774 24.8604 27.6774 24.8236 27.7143C24.7867 27.7511 24.7867 27.8109 24.8236 27.8477C24.8604 27.8846 24.9202 27.8846 24.957 27.8477Z" fill="#1E3888"/>
<path d="M26.1631 27.1734C26.3468 26.9897 26.3468 26.6919 26.1631 26.5083C25.9795 26.3246 25.6817 26.3246 25.4981 26.5083C25.3144 26.6919 25.3144 26.9897 25.4981 27.1734C25.6817 27.357 25.9795 27.357 26.1631 27.1734Z" fill="#1E3888"/>
<path d="M36.6411 16.9628C36.8985 16.7055 36.8985 16.2882 36.6411 16.0308C36.3838 15.7735 35.9665 15.7735 35.7091 16.0308C35.4518 16.2882 35.4518 16.7055 35.7091 16.9628C35.9665 17.2202 36.3838 17.2202 36.6411 16.9628Z" fill="#1E3888"/>
<path d="M35.3008 18.1693C35.5213 17.9488 35.5213 17.5913 35.3008 17.3708C35.0803 17.1503 34.7228 17.1503 34.5023 17.3708C34.2818 17.5913 34.2818 17.9488 34.5023 18.1693C34.7228 18.3898 35.0803 18.3898 35.3008 18.1693Z" fill="#1E3888"/>
<path d="M34.0933 19.2415C34.2769 19.0578 34.2769 18.7601 34.0933 18.5764C33.9096 18.3928 33.6119 18.3928 33.4282 18.5764C33.2446 18.7601 33.2446 19.0578 33.4282 19.2415C33.6119 19.4251 33.9096 19.4251 34.0933 19.2415Z" fill="#1E3888"/>
<path d="M33.0206 20.1804C33.1674 20.0336 33.1674 19.7955 33.0206 19.6487C32.8738 19.5019 32.6358 19.5019 32.489 19.6487C32.3422 19.7955 32.3421 20.0336 32.489 20.1804C32.6358 20.3272 32.8738 20.3272 33.0206 20.1804Z" fill="#1E3888"/>
<path d="M32.0792 20.9877C32.1891 20.8777 32.1891 20.6994 32.0792 20.5895C31.9692 20.4795 31.791 20.4795 31.681 20.5895C31.5711 20.6994 31.5711 20.8777 31.681 20.9877C31.791 21.0976 31.9692 21.0976 32.0792 20.9877Z" fill="#1E3888"/>
<path d="M31.2729 21.6635C31.3466 21.5898 31.3466 21.4703 31.2729 21.3966C31.1992 21.3229 31.0797 21.3229 31.006 21.3966C30.9323 21.4703 30.9323 21.5898 31.006 21.6635C31.0797 21.7372 31.1992 21.7372 31.2729 21.6635Z" fill="#1E3888"/>
<path d="M30.5986 22.2044C30.6355 22.1676 30.6355 22.1078 30.5986 22.071C30.5618 22.0341 30.502 22.0341 30.4652 22.071C30.4283 22.1078 30.4283 22.1676 30.4652 22.2044C30.502 22.2413 30.5618 22.2413 30.5986 22.2044Z" fill="#1E3888"/>
<path d="M29.9234 23.4107C30.107 23.227 30.107 22.9292 29.9234 22.7456C29.7397 22.5619 29.442 22.5619 29.2583 22.7456C29.0747 22.9292 29.0747 23.227 29.2583 23.4107C29.442 23.5943 29.7397 23.5943 29.9234 23.4107Z" fill="#1E3888"/>
<path d="M25.8301 25.4298C26.0899 25.4298 26.3004 25.2193 26.3004 24.9595C26.3004 24.6998 26.0899 24.4893 25.8301 24.4893C25.5704 24.4893 25.3599 24.6998 25.3599 24.9595C25.3599 25.2193 25.5704 25.4298 25.8301 25.4298Z" fill="#1E3888"/>
<path d="M29.5923 25.4298C29.8521 25.4298 30.0626 25.2193 30.0626 24.9595C30.0626 24.6998 29.8521 24.4893 29.5923 24.4893C29.3326 24.4893 29.1221 24.6998 29.1221 24.9595C29.1221 25.2193 29.3326 25.4298 29.5923 25.4298Z" fill="#1E3888"/>
<path d="M19.2479 25.618C19.6118 25.618 19.9069 25.323 19.9069 24.959C19.9069 24.5951 19.6118 24.3 19.2479 24.3C18.8839 24.3 18.5889 24.5951 18.5889 24.959C18.5889 25.323 18.8839 25.618 19.2479 25.618Z" fill="#1E3888"/>
<path d="M21.48 25.3587C21.7005 25.1382 21.7005 24.7807 21.48 24.5602C21.2595 24.3397 20.902 24.3397 20.6815 24.5602C20.461 24.7807 20.461 25.1382 20.6815 25.3587C20.902 25.5792 21.2595 25.5792 21.48 25.3587Z" fill="#1E3888"/>
<path d="M23.0591 25.2915C23.2428 25.1079 23.2428 24.8101 23.0591 24.6265C22.8755 24.4428 22.5777 24.4428 22.3941 24.6265C22.2104 24.8101 22.2104 25.1079 22.3941 25.2915C22.5777 25.4752 22.8755 25.4752 23.0591 25.2915Z" fill="#1E3888"/>
<path d="M24.4502 25.2248C24.5971 25.078 24.597 24.84 24.4502 24.6932C24.3034 24.5464 24.0654 24.5464 23.9186 24.6932C23.7718 24.84 23.7718 25.078 23.9186 25.2248C24.0654 25.3716 24.3034 25.3716 24.4502 25.2248Z" fill="#1E3888"/>
<path d="M36.1741 25.618C36.5381 25.618 36.8331 25.323 36.8331 24.959C36.8331 24.5951 36.5381 24.3 36.1741 24.3C35.8102 24.3 35.5151 24.5951 35.5151 24.959C35.5151 25.323 35.8102 25.618 36.1741 25.618Z" fill="#1E3888"/>
<path d="M34.7407 25.3582C34.9612 25.1377 34.9612 24.7802 34.7407 24.5597C34.5202 24.3392 34.1627 24.3392 33.9422 24.5597C33.7217 24.7802 33.7217 25.1377 33.9422 25.3582C34.1627 25.5787 34.5202 25.5787 34.7407 25.3582Z" fill="#1E3888"/>
<path d="M33.0269 25.2922C33.2105 25.1086 33.2105 24.8108 33.0269 24.6272C32.8432 24.4435 32.5455 24.4435 32.3618 24.6272C32.1782 24.8108 32.1782 25.1086 32.3618 25.2922C32.5455 25.4759 32.8432 25.4759 33.0269 25.2922Z" fill="#1E3888"/>
<path d="M31.5035 25.2241C31.6503 25.0773 31.6503 24.8392 31.5035 24.6924C31.3567 24.5456 31.1187 24.5456 30.9719 24.6924C30.8251 24.8392 30.8251 25.0773 30.9719 25.2241C31.1187 25.3709 31.3567 25.3709 31.5035 25.2241Z" fill="#1E3888"/>
<path d="M27.711 27.3107C27.9707 27.3107 28.1813 27.1001 28.1813 26.8404C28.1813 26.5807 27.9707 26.3701 27.711 26.3701C27.4513 26.3701 27.2407 26.5807 27.2407 26.8404C27.2407 27.1001 27.4513 27.3107 27.711 27.3107Z" fill="#1E3888"/>
<path d="M27.711 23.5487C27.9707 23.5487 28.1813 23.3381 28.1813 23.0784C28.1813 22.8187 27.9707 22.6082 27.711 22.6082C27.4513 22.6082 27.2407 22.8187 27.2407 23.0784C27.2407 23.3381 27.4513 23.5487 27.711 23.5487Z" fill="#1E3888"/>
<path d="M27.7112 34.0814C28.0752 34.0814 28.3702 33.7864 28.3702 33.4224C28.3702 33.0585 28.0752 32.7634 27.7112 32.7634C27.3473 32.7634 27.0522 33.0585 27.0522 33.4224C27.0522 33.7864 27.3473 34.0814 27.7112 34.0814Z" fill="#1E3888"/>
<path d="M28.1099 31.9891C28.3304 31.7686 28.3304 31.4111 28.1099 31.1906C27.8894 30.9701 27.5319 30.9701 27.3114 31.1906C27.0909 31.4111 27.0909 31.7686 27.3114 31.9891C27.5319 32.2096 27.8894 32.2096 28.1099 31.9891Z" fill="#1E3888"/>
<path d="M28.043 30.2756C28.2267 30.092 28.2267 29.7942 28.043 29.6106C27.8594 29.4269 27.5616 29.4269 27.3779 29.6106C27.1943 29.7942 27.1943 30.092 27.3779 30.2756C27.5616 30.4593 27.8594 30.4593 28.043 30.2756Z" fill="#1E3888"/>
<path d="M27.9776 28.7516C28.1244 28.6048 28.1244 28.3668 27.9776 28.22C27.8308 28.0732 27.5928 28.0732 27.446 28.22C27.2992 28.3668 27.2992 28.6048 27.446 28.7516C27.5928 28.8984 27.8308 28.8984 27.9776 28.7516Z" fill="#1E3888"/>
<path d="M27.7112 17.1549C28.0752 17.1549 28.3702 16.8599 28.3702 16.4959C28.3702 16.132 28.0752 15.8369 27.7112 15.8369C27.3473 15.8369 27.0522 16.132 27.0522 16.4959C27.0522 16.8599 27.3473 17.1549 27.7112 17.1549Z" fill="#1E3888"/>
<path d="M28.1099 18.7281C28.3304 18.5076 28.3304 18.1501 28.1099 17.9296C27.8894 17.7091 27.5319 17.7091 27.3114 17.9296C27.0909 18.1501 27.0909 18.5076 27.3114 18.7281C27.5319 18.9486 27.8894 18.9486 28.1099 18.7281Z" fill="#1E3888"/>
<path d="M28.044 20.3081C28.2276 20.1245 28.2276 19.8267 28.044 19.6431C27.8603 19.4594 27.5626 19.4594 27.3789 19.6431C27.1953 19.8267 27.1953 20.1245 27.3789 20.3081C27.5626 20.4918 27.8603 20.4918 28.044 20.3081Z" fill="#1E3888"/>
<path d="M27.9771 21.6984C28.1239 21.5516 28.1239 21.3136 27.9771 21.1668C27.8303 21.02 27.5923 21.02 27.4455 21.1668C27.2987 21.3136 27.2987 21.5516 27.4455 21.6984C27.5923 21.8452 27.8303 21.8452 27.9771 21.6984Z" fill="#1E3888"/>
<path d="M23.7736 17.0861C24.0991 16.9231 24.2308 16.5272 24.0678 16.2017C23.9048 15.8763 23.5089 15.7446 23.1835 15.9076C22.8581 16.0705 22.7263 16.4665 22.8893 16.7919C23.0523 17.1173 23.4482 17.249 23.7736 17.0861Z" fill="#1E3888"/>
<path d="M24.8726 18.273C24.9724 17.9767 24.8132 17.6557 24.5169 17.5559C24.2207 17.4561 23.8996 17.6154 23.7998 17.9116C23.7 18.2078 23.8593 18.5289 24.1555 18.6287C24.4518 18.7285 24.7728 18.5692 24.8726 18.273Z" fill="#1E3888"/>
<path d="M25.412 19.6136C25.494 19.3671 25.3606 19.1009 25.1142 19.0189C24.8678 18.9369 24.6015 19.0703 24.5195 19.3167C24.4376 19.5632 24.5709 19.8294 24.8173 19.9114C25.0638 19.9934 25.33 19.86 25.412 19.6136Z" fill="#1E3888"/>
<path d="M25.9385 20.8145C26.004 20.6175 25.8974 20.4046 25.7004 20.3391C25.5034 20.2736 25.2906 20.3802 25.2251 20.5771C25.1596 20.7741 25.2661 20.987 25.4631 21.0525C25.6601 21.118 25.8729 21.0115 25.9385 20.8145Z" fill="#1E3888"/>
<path d="M26.3824 21.8488C26.4315 21.7013 26.3517 21.5419 26.2042 21.4928C26.0566 21.4437 25.8972 21.5235 25.8481 21.6711C25.7991 21.8186 25.8789 21.978 26.0264 22.0271C26.174 22.0762 26.3334 21.9964 26.3824 21.8488Z" fill="#1E3888"/>
<path d="M32.5356 16.7905C32.6985 16.465 32.5668 16.0691 32.2414 15.9061C31.916 15.7432 31.52 15.8749 31.3571 16.2003C31.1941 16.5257 31.3258 16.9217 31.6513 17.0846C31.9767 17.2476 32.3726 17.1159 32.5356 16.7905Z" fill="#1E3888"/>
<path d="M31.3385 18.6001C31.6344 18.5017 31.7945 18.182 31.696 17.8861C31.5976 17.5902 31.278 17.4301 30.9821 17.5286C30.6862 17.627 30.5261 17.9467 30.6245 18.2426C30.7229 18.5384 31.0426 18.6985 31.3385 18.6001Z" fill="#1E3888"/>
<path d="M30.6833 19.8373C30.93 19.7542 31.0627 19.4868 30.9795 19.24C30.8964 18.9933 30.629 18.8606 30.3823 18.9438C30.1356 19.0269 30.0029 19.2943 30.086 19.541C30.1691 19.7877 30.4365 19.9204 30.6833 19.8373Z" fill="#1E3888"/>
<path d="M29.9622 21.0522C30.1592 20.9867 30.2657 20.7739 30.2002 20.5769C30.1347 20.3799 29.9218 20.2733 29.7249 20.3389C29.5279 20.4044 29.4213 20.6172 29.4868 20.8142C29.5523 21.0112 29.7652 21.1178 29.9622 21.0522Z" fill="#1E3888"/>
<path d="M29.3975 22.0284C29.5451 21.9794 29.6249 21.82 29.5758 21.6724C29.5267 21.5249 29.3673 21.4451 29.2198 21.4941C29.0722 21.5432 28.9924 21.7026 29.0415 21.8502C29.0906 21.9977 29.25 22.0775 29.3975 22.0284Z" fill="#1E3888"/>
<path d="M24.0668 33.7162C24.2298 33.3908 24.0981 32.9949 23.7726 32.8319C23.4472 32.669 23.0513 32.8007 22.8883 33.1261C22.7254 33.4515 22.8571 33.8474 23.1825 34.0104C23.5079 34.1734 23.9039 34.0417 24.0668 33.7162Z" fill="#1E3888"/>
<path d="M24.4425 32.3887C24.7384 32.2902 24.8985 31.9706 24.8001 31.6747C24.7016 31.3788 24.382 31.2187 24.0861 31.3171C23.7902 31.4156 23.6301 31.7352 23.7285 32.0311C23.827 32.327 24.1466 32.4871 24.4425 32.3887Z" fill="#1E3888"/>
<path d="M25.1142 30.8983C25.3606 30.8163 25.494 30.5501 25.412 30.3036C25.33 30.0572 25.0638 29.9239 24.8173 30.0059C24.5709 30.0878 24.4376 30.3541 24.5195 30.6005C24.6015 30.847 24.8678 30.9803 25.1142 30.8983Z" fill="#1E3888"/>
<path d="M25.7014 29.5786C25.8984 29.5131 26.005 29.3003 25.9395 29.1033C25.8739 28.9063 25.6611 28.7997 25.4641 28.8652C25.2671 28.9308 25.1605 29.1436 25.2261 29.3406C25.2916 29.5376 25.5044 29.6441 25.7014 29.5786Z" fill="#1E3888"/>
<path d="M26.2047 28.4237C26.3522 28.3746 26.432 28.2152 26.3829 28.0677C26.3339 27.9201 26.1745 27.8403 26.0269 27.8894C25.8794 27.9385 25.7996 28.0979 25.8486 28.2454C25.8977 28.393 26.0571 28.4728 26.2047 28.4237Z" fill="#1E3888"/>
<path d="M32.2419 34.0094C32.5673 33.8464 32.699 33.4505 32.5361 33.1251C32.3731 32.7996 31.9772 32.6679 31.6517 32.8309C31.3263 32.9939 31.1946 33.3898 31.3576 33.7152C31.5205 34.0407 31.9165 34.1724 32.2419 34.0094Z" fill="#1E3888"/>
<path d="M31.6965 32.0304C31.795 31.7345 31.6349 31.4148 31.339 31.3164C31.0431 31.218 30.7234 31.3781 30.625 31.674C30.5266 31.9698 30.6866 32.2895 30.9825 32.3879C31.2784 32.4864 31.5981 32.3263 31.6965 32.0304Z" fill="#1E3888"/>
<path d="M30.9047 30.6011C30.9866 30.3547 30.8533 30.0885 30.6069 30.0065C30.3604 29.9245 30.0942 30.0578 30.0122 30.3043C29.9302 30.5507 30.0636 30.8169 30.31 30.8989C30.5564 30.9809 30.8227 30.8476 30.9047 30.6011Z" fill="#1E3888"/>
<path d="M30.2002 29.3386C30.2657 29.1416 30.1592 28.9288 29.9622 28.8633C29.7652 28.7978 29.5523 28.9043 29.4868 29.1013C29.4213 29.2983 29.5279 29.5111 29.7249 29.5767C29.9218 29.6422 30.1347 29.5356 30.2002 29.3386Z" fill="#1E3888"/>
<path d="M29.5768 28.2468C29.6259 28.0992 29.546 27.9398 29.3985 27.8908C29.251 27.8417 29.0916 27.9215 29.0425 28.069C28.9934 28.2166 29.0732 28.376 29.2208 28.4251C29.3683 28.4741 29.5277 28.3943 29.5768 28.2468Z" fill="#1E3888"/>
<path d="M19.5441 29.7809C19.8696 29.6179 20.0013 29.222 19.8383 28.8966C19.6753 28.5711 19.2794 28.4394 18.954 28.6024C18.6286 28.7654 18.4969 29.1613 18.6598 29.4867C18.8228 29.8121 19.2187 29.9438 19.5441 29.7809Z" fill="#1E3888"/>
<path d="M21.421 28.6653C21.5208 28.369 21.3615 28.048 21.0652 27.9482C20.769 27.8484 20.448 28.0077 20.3482 28.3039C20.2484 28.6002 20.4076 28.9212 20.7039 29.021C21.0001 29.1208 21.3212 28.9615 21.421 28.6653Z" fill="#1E3888"/>
<path d="M22.6649 27.8536C22.7469 27.6071 22.6136 27.3409 22.3671 27.2589C22.1207 27.1769 21.8544 27.3103 21.7725 27.5567C21.6905 27.8031 21.8238 28.0694 22.0703 28.1514C22.3167 28.2334 22.5829 28.1 22.6649 27.8536Z" fill="#1E3888"/>
<path d="M23.8062 27.2063C23.8717 27.0093 23.7651 26.7965 23.5681 26.731C23.3711 26.6654 23.1583 26.772 23.0928 26.969C23.0272 27.166 23.1338 27.3788 23.3308 27.4443C23.5278 27.5099 23.7406 27.4033 23.8062 27.2063Z" fill="#1E3888"/>
<path d="M24.7823 26.644C24.8314 26.4964 24.7516 26.337 24.6041 26.288C24.4565 26.2389 24.2971 26.3187 24.248 26.4662C24.199 26.6138 24.2788 26.7732 24.4263 26.8223C24.5739 26.8713 24.7333 26.7915 24.7823 26.644Z" fill="#1E3888"/>
<path d="M19.8388 21.0204C20.0018 20.695 19.8701 20.2991 19.5446 20.1361C19.2192 19.9732 18.8233 20.1049 18.6603 20.4303C18.4973 20.7557 18.629 21.1516 18.9545 21.3146C19.2799 21.4776 19.6758 21.3459 19.8388 21.0204Z" fill="#1E3888"/>
<path d="M20.9952 22.0474C21.2911 21.9489 21.4512 21.6293 21.3528 21.3334C21.2544 21.0375 20.9347 20.8774 20.6388 20.9758C20.3429 21.0743 20.1828 21.3939 20.2813 21.6898C20.3797 21.9857 20.6993 22.1458 20.9952 22.0474Z" fill="#1E3888"/>
<path d="M22.3671 22.6591C22.6136 22.5771 22.7469 22.3108 22.6649 22.0644C22.5829 21.8179 22.3167 21.6846 22.0702 21.7666C21.8238 21.8486 21.6905 22.1148 21.7725 22.3613C21.8544 22.6077 22.1207 22.741 22.3671 22.6591Z" fill="#1E3888"/>
<path d="M23.5686 23.1853C23.7656 23.1198 23.8722 22.9069 23.8066 22.71C23.7411 22.513 23.5283 22.4064 23.3313 22.4719C23.1343 22.5375 23.0277 22.7503 23.0933 22.9473C23.1588 23.1443 23.3716 23.2508 23.5686 23.1853Z" fill="#1E3888"/>
<path d="M24.6041 23.6283C24.7516 23.5792 24.8314 23.4198 24.7823 23.2723C24.7333 23.1247 24.5739 23.0449 24.4263 23.094C24.2788 23.1431 24.199 23.3025 24.248 23.45C24.2971 23.5976 24.4565 23.6774 24.6041 23.6283Z" fill="#1E3888"/>
<path d="M36.7636 29.4865C36.9266 29.1611 36.7949 28.7651 36.4694 28.6022C36.144 28.4392 35.7481 28.5709 35.5851 28.8964C35.4221 29.2218 35.5539 29.6177 35.8793 29.7807C36.2047 29.9436 36.6006 29.8119 36.7636 29.4865Z" fill="#1E3888"/>
<path d="M34.7853 28.9412C35.0812 28.8427 35.2413 28.5231 35.1428 28.2272C35.0444 27.9313 34.7247 27.7712 34.4288 27.8696C34.1329 27.9681 33.9729 28.2877 34.0713 28.5836C34.1697 28.8795 34.4894 29.0396 34.7853 28.9412Z" fill="#1E3888"/>
<path d="M33.3559 28.1508C33.6023 28.0688 33.7357 27.8025 33.6537 27.5561C33.5717 27.3096 33.3055 27.1763 33.059 27.2583C32.8126 27.3403 32.6793 27.6065 32.7612 27.853C32.8432 28.0994 33.1095 28.2327 33.3559 28.1508Z" fill="#1E3888"/>
<path d="M32.0925 27.4441C32.2895 27.3786 32.3961 27.1657 32.3306 26.9687C32.265 26.7718 32.0522 26.6652 31.8552 26.7307C31.6582 26.7962 31.5517 27.0091 31.6172 27.2061C31.6827 27.403 31.8955 27.5096 32.0925 27.4441Z" fill="#1E3888"/>
<path d="M30.9996 26.8236C31.1471 26.7745 31.2269 26.6151 31.1779 26.4676C31.1288 26.32 30.9694 26.2402 30.8218 26.2893C30.6743 26.3384 30.5945 26.4978 30.6436 26.6453C30.6926 26.7929 30.852 26.8727 30.9996 26.8236Z" fill="#1E3888"/>
<path d="M36.4709 21.3146C36.7963 21.1516 36.928 20.7557 36.7651 20.4303C36.6021 20.1048 36.2062 19.9731 35.8807 20.1361C35.5553 20.299 35.4236 20.695 35.5866 21.0204C35.7495 21.3458 36.1455 21.4775 36.4709 21.3146Z" fill="#1E3888"/>
<path d="M35.1433 21.6888C35.2417 21.393 35.0817 21.0733 34.7858 20.9749C34.4899 20.8764 34.1702 21.0365 34.0718 21.3324C33.9733 21.6283 34.1334 21.948 34.4293 22.0464C34.7252 22.1448 35.0449 21.9847 35.1433 21.6888Z" fill="#1E3888"/>
<path d="M33.6542 22.3594C33.7362 22.113 33.6028 21.8468 33.3564 21.7648C33.1099 21.6828 32.8437 21.8161 32.7617 22.0626C32.6797 22.309 32.8131 22.5752 33.0595 22.6572C33.306 22.7392 33.5722 22.6059 33.6542 22.3594Z" fill="#1E3888"/>
<path d="M32.332 22.9475C32.3976 22.7505 32.291 22.5377 32.094 22.4722C31.897 22.4066 31.6842 22.5132 31.6187 22.7102C31.5531 22.9072 31.6597 23.12 31.8567 23.1855C32.0537 23.2511 32.2665 23.1445 32.332 22.9475Z" fill="#1E3888"/>
<path d="M31.1783 23.4501C31.2274 23.3026 31.1476 23.1432 31.0001 23.0941C30.8525 23.045 30.6931 23.1249 30.644 23.2724C30.595 23.4199 30.6748 23.5793 30.8223 23.6284C30.9699 23.6775 31.1293 23.5977 31.1783 23.4501Z" fill="#1E3888"/>
<path d="M46.8205 25.0472L44.0824 27.8317V32.751H42.2261V17.4363H44.0824V25.3257L51.7862 17.4363H54.2226L48.1199 23.6782L54.2922 32.751H52.0646L46.8205 25.0472Z" fill="#1E3888"/>
<path d="M65.2905 27.6463H56.5425C56.6456 28.8219 57.036 29.7346 57.7135 30.3843C58.3911 31.0341 59.2615 31.3589 60.3248 31.3589C61.1756 31.3589 61.8836 31.212 62.4487 30.918C62.9826 30.6578 63.3942 30.2001 63.5966 29.6418L65.1512 30.454C64.7196 31.2412 64.0767 31.8921 63.2949 32.3335C62.5214 32.7666 61.5314 32.9832 60.3248 32.9832C58.5716 32.9832 57.1989 32.4495 56.2068 31.3821C55.2147 30.3147 54.7161 28.8374 54.7109 26.9501C54.7109 25.0629 55.1864 23.5855 56.1372 22.5182C57.0881 21.4508 58.4375 20.9171 60.1856 20.9171C61.1701 20.8915 62.1423 21.1406 62.9933 21.6364C63.7659 22.0983 64.3868 22.7758 64.78 23.5855C65.1914 24.4471 65.3979 25.3922 65.3833 26.3468C65.383 26.7816 65.352 27.2159 65.2905 27.6463V27.6463ZM57.7105 23.4463C57.0845 24.0496 56.7018 24.9004 56.5626 25.9988H63.5935C63.4697 24.9159 63.1139 24.0692 62.5261 23.4587C61.9382 22.8482 61.1581 22.5424 60.1856 22.5414C59.1646 22.5414 58.3406 22.843 57.7135 23.4463H57.7105Z" fill="#1E3888"/>
<path d="M77.1035 22.0542C77.9543 22.8122 78.3797 23.9027 78.3797 25.3259V32.7512H76.5234V25.9756C76.5234 24.769 76.2656 23.8924 75.7499 23.3458C75.2343 22.7993 74.5402 22.5311 73.6677 22.5414C73.0637 22.5384 72.4675 22.6778 71.9274 22.9483C71.3599 23.2448 70.8951 23.7058 70.594 24.2709C70.2464 24.8825 70.0726 25.6518 70.0726 26.579V32.7512H68.2163V21.1492H69.8329L69.9489 22.9591C70.3072 22.2883 70.8673 21.7472 71.55 21.4122C72.2699 21.0717 73.0587 20.9023 73.8549 20.9172C75.1688 20.9172 76.2516 21.2962 77.1035 22.0542Z" fill="#1E3888"/>
<path d="M91.742 27.6463H82.9956C83.0988 28.8219 83.4891 29.7346 84.1667 30.3843C84.8442 31.034 85.7146 31.3589 86.7779 31.3589C87.6287 31.3589 88.3362 31.2119 88.9003 30.918C89.4348 30.6583 89.8471 30.2005 90.0497 29.6418L91.5966 30.4539C91.1651 31.2412 90.5221 31.8922 89.7403 32.3335C88.9668 32.7666 87.9768 32.9832 86.7702 32.9832C85.017 32.9832 83.6443 32.4495 82.6522 31.3821C81.6601 30.3147 81.161 28.8374 81.1548 26.9501C81.1548 25.0629 81.6307 23.5855 82.5826 22.5181C83.5345 21.4508 84.886 20.9171 86.6371 20.9171C87.6217 20.8915 88.5939 21.1406 89.4448 21.6364C90.2174 22.0984 90.8383 22.7758 91.2315 23.5855C91.643 24.4471 91.8495 25.3922 91.8348 26.3468C91.8346 26.7816 91.8036 27.2158 91.742 27.6463ZM84.162 23.4463C83.535 24.0496 83.1519 24.9004 83.0127 25.9988H90.0435C89.9197 24.9159 89.5639 24.0692 88.9761 23.4587C88.3883 22.8482 87.6086 22.5424 86.6371 22.5414C85.6172 22.5414 84.7937 22.843 84.1667 23.4463H84.162Z" fill="#1E3888"/>
<path d="M101.418 31.9391C100.645 32.6353 99.6471 32.9833 98.425 32.9833C97.4814 32.9833 96.712 32.7255 96.117 32.2098C95.5219 31.6942 95.2172 30.9156 95.2027 29.874V22.7503H92.8823V21.1492H95.2027V18.3647L97.0591 17.8542V21.1492H101.352V22.7503H97.0591V29.5568C97.0591 30.1137 97.2174 30.535 97.534 30.8207C97.8857 31.1198 98.3382 31.2736 98.7994 31.2507C99.1699 31.2487 99.536 31.1708 99.8752 31.0219C100.214 30.8729 100.52 30.6559 100.772 30.3845L101.418 31.9391Z" fill="#1E3888"/>
<path d="M103.263 18.5394C103.134 18.4058 103.034 18.2473 102.968 18.0737C102.903 17.9 102.873 17.7147 102.881 17.5292C102.881 17.16 103.028 16.8058 103.289 16.5447C103.55 16.2836 103.904 16.137 104.273 16.137C104.643 16.137 104.997 16.2836 105.258 16.5447C105.519 16.8058 105.666 17.16 105.666 17.5292C105.659 17.8046 105.573 18.0723 105.418 18.3C105.263 18.5277 105.046 18.7056 104.792 18.8124C104.538 18.9192 104.258 18.9502 103.987 18.9018C103.716 18.8533 103.465 18.7275 103.263 18.5394V18.5394ZM105.2 32.7511H103.344V21.149H105.2V32.7511Z" fill="#1E3888"/>
<path d="M116.652 21.717C117.479 22.287 118.127 23.0798 118.521 24.0034L116.757 24.8387C116.261 23.3073 115.232 22.5415 113.67 22.5415C112.509 22.5415 111.601 22.9324 110.944 23.7141C110.287 24.4958 109.958 25.5746 109.958 26.9503C109.958 28.3271 110.287 29.4058 110.945 30.1865C111.603 30.9672 112.511 31.3581 113.67 31.3591C114.567 31.3591 115.289 31.1528 115.835 30.7403C116.404 30.3028 116.789 29.67 116.918 28.9644L118.635 29.5677C118.288 30.5764 117.64 31.4547 116.779 32.0846C115.944 32.6807 114.923 32.9787 113.716 32.9787C111.963 32.9787 110.59 32.445 109.598 31.3777C108.606 30.3103 108.107 28.8329 108.101 26.9457C108.101 25.0584 108.6 23.5811 109.598 22.5137C110.596 21.4463 111.969 20.9142 113.716 20.9172C114.876 20.9172 115.855 21.1838 116.652 21.717Z" fill="#1E3888"/>
</svg>
