<svg width="134" height="54" viewBox="0 0 134 54" fill="none" xmlns="http://www.w3.org/2000/svg">
<path d="M88.8207 23.5738C87.4667 22.8613 85.9175 22.7198 84.4572 23.1727C82.9969 23.6263 81.8003 24.6217 81.0891 25.9751C80.3772 27.3284 80.2344 28.8777 80.688 30.3386C81.4364 32.7478 83.6344 34.3662 86.1585 34.3662H86.1592C86.7323 34.3662 87.3027 34.2792 87.8539 34.1085C90.8687 33.1722 92.5594 29.9575 91.6238 26.9433C91.1689 25.4823 90.1741 24.2857 88.8207 23.5738ZM83.2107 29.5544C82.9664 28.7675 83.0434 27.9327 83.4266 27.2043C83.8104 26.4758 84.4545 25.9399 85.2408 25.6955C86.0177 25.4538 86.8704 25.5321 87.5909 25.9113C88.3194 26.2951 88.8553 26.9393 89.0997 27.7262C89.3434 28.5111 89.2663 29.3452 88.8825 30.075C88.4987 30.8048 87.8552 31.3407 87.0696 31.5844C86.2854 31.8281 85.4506 31.7511 84.7208 31.3673C83.9904 30.9834 83.4545 30.3393 83.2107 29.5544Z" fill="#282828"/>
<path d="M57.7659 22.9138C54.6089 22.9138 52.041 25.4817 52.041 28.6387C52.041 31.7957 54.6096 34.3642 57.7659 34.3642C60.9222 34.3642 63.4908 31.7957 63.4908 28.6387C63.4908 25.4817 60.9229 22.9138 57.7659 22.9138ZM60.8491 28.6387C60.8491 30.3387 59.4659 31.7219 57.7659 31.7219C56.0659 31.7219 54.6827 30.3387 54.6827 28.6387C54.6827 26.9387 56.0659 25.5555 57.7659 25.5555C59.4659 25.5555 60.8491 26.9387 60.8491 28.6387Z" fill="#282828"/>
<path d="M71.9602 22.9138C68.8033 22.9138 66.2354 25.4817 66.2354 28.6387V34.3642H68.8777V28.6387C68.8777 26.9387 70.2609 25.5555 71.9609 25.5555C73.6609 25.5555 75.0441 26.9387 75.0441 28.6387V34.3642H77.6864V28.6387C77.6851 25.4824 75.1165 22.9138 71.9602 22.9138Z" fill="#282828"/>
<path d="M50.8159 23.0267C50.45 22.953 50.0715 22.9138 49.6844 22.9138C46.5274 22.9138 43.9595 25.4817 43.9595 28.6387V34.3642H46.6018V28.6387C46.6018 26.9958 47.8947 25.6531 49.5157 25.5641L50.8159 23.0267Z" fill="#282828"/>
<path d="M97.0998 27.1884C97.0998 26.1744 97.9246 25.3496 98.9386 25.3496C99.61 25.3496 100.228 25.7155 100.552 26.3052C100.607 26.4042 100.761 26.7183 100.85 26.9513H103.554C103.262 26.1352 102.957 25.4579 102.757 25.094C101.991 23.6994 100.528 22.8335 98.9379 22.8335C96.5367 22.8335 94.583 24.7872 94.583 27.1884C94.583 28.6022 95.2736 29.933 96.4291 30.7485C96.4763 30.7817 96.4052 30.7471 97.7559 31.5327L99.0209 29.3579C98.4578 29.0305 97.9983 28.7669 97.8655 28.6832C97.3867 28.3366 97.0998 27.7794 97.0998 27.1884Z" fill="#282828"/>
<path d="M100.992 34.4612C100.992 35.4753 100.167 36.3 99.1528 36.3C98.4815 36.3 97.8632 35.9341 97.5392 35.3444C97.4847 35.2455 97.33 34.9314 97.241 34.6983H94.5376C94.8291 35.5144 95.1339 36.1918 95.3345 36.5557C96.1001 37.9502 97.5631 38.8162 99.1535 38.8162C101.555 38.8162 103.508 36.8625 103.508 34.4612C103.508 33.0474 102.818 31.7167 101.662 30.9012C101.615 30.868 101.686 30.9025 100.336 30.1169L99.0705 32.2917C99.6336 32.6191 100.093 32.8828 100.226 32.9664C100.705 33.3131 100.992 33.8702 100.992 34.4612Z" fill="#282828"/>
<path d="M33.0709 22.9138H30.4604V34.3642H33.0709V22.9138Z" fill="#282828"/>
<path d="M33.0553 15.0544H30.4448V21.4062H33.0553V15.0544Z" fill="#282828"/>
<path d="M39.0924 34.7787L35.4314 31.1171C34.7694 30.455 34.4048 29.5751 34.4048 28.6388C34.4048 27.7024 34.7694 26.8226 35.4314 26.1612L39.0924 22.4995L40.8714 24.2785L37.2104 27.9402C37.0238 28.1268 36.9209 28.3751 36.9209 28.6388C36.9209 28.9031 37.0238 29.1508 37.2104 29.338L40.8714 32.9997L39.0924 34.7787Z" fill="#282828"/>
</svg>
