<svg width="95" height="50" viewBox="0 0 95 50" fill="none" xmlns="http://www.w3.org/2000/svg">
<g clip-path="url(#clip0)">
<path d="M76.1252 16.5673C76.3483 16.6304 76.5762 16.6789 76.7992 16.7516C77.1435 16.868 77.4199 17.0911 77.6624 17.3578C77.74 17.4402 77.7594 17.513 77.6333 17.5857C77.4878 17.673 77.3666 17.8282 77.2114 17.8621C77.0271 17.9058 76.9689 17.6681 76.8429 17.5663C76.2028 17.0523 75.0972 17.0717 74.4862 17.6099C73.9818 18.0561 73.8946 19.1278 74.5541 19.5981C75.005 19.9182 75.5287 20.054 76.0476 20.2043C76.5616 20.3546 77.0611 20.5389 77.4345 20.9462C78.2249 21.8143 77.9388 23.3321 76.8914 23.9383C75.9312 24.4959 74.137 24.365 73.3175 23.3272C73.2157 23.1963 73.1914 23.1284 73.3563 23.046C73.5115 22.9635 73.6521 22.789 73.8024 22.7744C73.977 22.7599 74.0352 23.0072 74.1564 23.1284C74.8062 23.7491 75.9506 23.8122 76.6586 23.2739C77.2841 22.7938 77.4733 21.6251 76.4937 21.116C76.067 20.8978 75.6015 20.7814 75.1554 20.6262C74.7771 20.4904 74.4037 20.3449 74.0691 20.1073C73.1429 19.4527 73.0896 17.6342 74.2825 16.9407C74.6171 16.7468 74.9808 16.674 75.3396 16.5625C75.6112 16.5673 75.8682 16.5673 76.1252 16.5673Z" fill="#1E1E3F"/>
<path d="M11.0089 21.9452C10.9944 21.9452 10.975 21.9452 10.9604 21.9452C10.9604 21.2033 10.9604 20.4613 10.9604 19.7145C11.5424 19.5691 12.1291 19.4236 12.711 19.2733C12.808 19.249 12.9002 19.249 12.9874 19.2975C13.5742 19.6466 14.161 19.9909 14.7477 20.3401C14.7865 20.3643 14.8108 20.408 14.8447 20.4419C14.835 20.4516 14.8253 20.4613 14.8205 20.471C14.2046 20.665 13.5839 20.8299 12.9487 20.956C12.5898 20.7959 12.2601 20.5777 11.9206 20.374C11.7024 20.2431 11.4599 20.1413 11.2514 19.9861C11.1059 19.8794 11.0768 19.9376 11.0768 20.0831C11.0768 20.5874 11.0817 21.0966 11.0768 21.6009C11.0768 21.7173 11.1059 21.8482 11.0089 21.9452Z" fill="#CB458F"/>
<path d="M20.8524 33.3798C20.7409 33.4622 20.6342 33.4477 20.5178 33.3798C19.1115 32.57 17.7052 31.7553 16.2941 30.9503C16.1632 30.8727 16.0953 30.7951 16.105 30.6303C16.1195 30.3829 16.1001 30.1308 16.105 29.8835C16.105 29.7865 16.0856 29.7137 16.0128 29.6507C16.0225 28.5839 16.0177 27.517 16.0177 26.455C16.0177 26.3095 16.0322 26.1592 15.911 26.0477C15.8916 26.0234 15.8868 25.9943 15.8965 25.9652C16.0031 25.8537 16.0274 25.7179 16.0274 25.5676C16.0274 25.2476 16.0177 24.9275 16.0322 24.6026C16.0177 24.3795 16.0225 24.1565 16.0322 23.9334C16.0419 23.7249 15.9643 23.5067 16.1098 23.3127C16.1098 21.7561 16.1098 20.1946 16.1098 18.638C16.1098 18.4489 16.1195 18.2694 16.2553 18.1191C16.3329 18.09 16.4008 18.1191 16.4638 18.1531C17.1621 18.5701 17.8943 18.9338 18.5732 19.3799C18.612 19.4042 18.6508 19.4381 18.6751 19.4818C18.7284 19.5739 18.6993 19.666 18.6993 19.763C18.6896 20.0249 18.6751 20.2916 18.7818 20.5438C18.7818 20.6844 18.903 20.7232 19 20.7717C19.4849 21.0432 19.9698 21.3099 20.4402 21.6009C20.542 21.6639 20.6536 21.7124 20.7069 21.8337C20.7603 22.0373 20.7409 22.2458 20.7312 22.4495C20.7215 22.6629 20.7748 22.8035 21.0076 22.8278C21.1094 22.9344 21.0076 22.9684 20.9397 22.9926C20.7991 23.046 20.6487 23.046 20.5178 22.9635C20.0571 22.6677 19.5382 22.4689 19.1067 22.1295C19.0824 22.1101 19.0533 22.0907 19.0242 22.081C18.9563 22.0616 18.8836 21.9985 18.8254 22.0664C18.7769 22.1198 18.8254 22.1877 18.8497 22.2458C19.0388 22.6774 19.2958 23.0702 19.6255 23.4C19.8874 23.657 20.2365 23.8122 20.5711 23.9722C20.6439 24.0061 20.7312 23.9819 20.8088 23.977C20.9009 23.9722 21.0076 23.9382 21.0658 24.0498C21.0561 24.0789 21.0367 24.1031 21.0076 24.1225C20.9251 24.1856 20.7651 24.1662 20.7506 24.3116C20.7263 24.5493 20.7069 24.7917 20.7603 25.0293C20.7894 25.1603 20.9639 25.0972 21.0415 25.1748C21.0706 25.3009 20.9688 25.3203 20.8912 25.3397C20.736 25.3785 20.5905 25.3542 20.4548 25.2573C20.3044 25.1506 20.1347 25.073 19.9747 24.976C19.7807 24.8596 19.7274 24.8984 19.7128 25.1263C19.6983 25.3639 19.7468 25.6112 19.674 25.844C19.5819 25.941 19.4801 25.878 19.417 25.8198C19.063 25.4949 18.6702 25.5482 18.2629 25.684C18.1368 25.7276 18.001 25.7373 17.841 25.8149C18.1805 26.0331 18.5102 26.198 18.8206 26.3871C19.0776 26.5423 19.354 26.6587 19.5722 26.8721C19.7031 26.9933 19.7128 27.1533 19.7128 27.3182C19.7128 27.8031 19.7128 28.2832 19.7128 28.7681C19.7128 29.1027 19.7565 29.1318 20.0814 29.0203C20.1735 28.9912 20.2608 28.9524 20.3578 28.9282C20.4596 28.8991 20.5663 28.8845 20.6584 28.9524C20.7166 29.1124 20.5857 29.127 20.4936 29.1512C20.2947 29.2094 20.0911 29.2676 19.8922 29.3209C19.771 29.3549 19.7177 29.4228 19.7177 29.544C19.7177 30.0483 19.6983 30.5575 19.7322 31.0618C19.7419 31.1831 19.7613 31.2995 19.7468 31.4207C19.7371 31.508 19.771 31.5759 19.8438 31.6244C19.9213 31.8426 20.0959 31.959 20.2996 32.0462C20.4548 32.1093 20.6051 32.1917 20.6972 32.3469C20.7506 32.5409 20.7215 32.7445 20.7263 32.9385C20.7312 33.1034 20.7312 33.2586 20.8524 33.3798Z" fill="#802257"/>
<path d="M47.4905 23.5455C46.7874 22.4059 46.0794 21.2615 45.3762 20.1219C45.1677 19.7825 44.9495 19.443 44.7264 19.0793C44.644 19.186 44.6682 19.2878 44.6682 19.3751C44.6682 20.7766 44.6634 22.1829 44.6731 23.5843C44.6731 23.7783 44.6343 23.8559 44.4258 23.8413C44.096 23.8219 43.7614 23.8219 43.4316 23.8413C43.2086 23.8559 43.1504 23.7831 43.1504 23.5649C43.1601 21.8968 43.1552 20.2238 43.1552 18.5556C43.1552 18.1192 43.1601 17.6827 43.1552 17.2463C43.1504 17.096 43.1892 17.0329 43.3541 17.0378C43.9166 17.0475 44.4839 17.0426 45.0513 17.0329C45.2016 17.0281 45.2695 17.1057 45.3326 17.2172C45.575 17.6294 45.8223 18.0464 46.0648 18.4586C46.1182 18.5605 46.1569 18.672 46.2588 18.7447C46.7874 19.6079 47.3208 20.4711 47.8493 21.3342C47.9075 21.4312 47.9706 21.5234 48.0336 21.6203C48.087 21.7076 48.1161 21.664 48.1403 21.601C48.1645 20.5681 48.1452 19.5352 48.15 18.5023C48.15 18.1143 48.1549 17.7264 48.15 17.3433C48.1452 17.1687 48.213 17.096 48.3925 17.1008C48.6834 17.1105 48.9744 17.1105 49.2653 17.1008C49.4739 17.0911 49.5563 17.2075 49.5999 17.3772C49.6193 17.4645 49.6096 17.5518 49.6096 17.6439C49.6096 19.5158 49.6096 21.3876 49.6096 23.2594C49.6096 23.3079 49.6145 23.3564 49.6096 23.4049C49.5854 23.7055 49.4593 23.8316 49.212 23.7928C49.1344 23.7831 49.0471 23.7686 48.9841 23.8316C48.7271 23.8316 48.4652 23.8316 48.2082 23.8316C48.1645 23.7928 48.1064 23.7831 48.053 23.788C47.8057 23.8268 47.6263 23.7346 47.4905 23.5455Z" fill="#C91E79"/>
<path d="M55.8698 17.1445C56.2141 17.227 56.4953 17.4258 56.7621 17.6489C56.9318 17.7895 56.7427 17.8428 56.6796 17.9253C56.4662 18.0901 56.3353 18.3181 56.151 18.512C56.1365 18.5314 56.1316 18.5557 56.1122 18.5751C55.831 18.8903 55.8407 18.8757 55.4915 18.6478C54.7496 18.158 53.9543 18.1241 53.1638 18.4878C52.4073 18.8321 52.0824 19.4964 52.0387 20.2966C51.9854 21.3052 52.4073 22.0859 53.2123 22.4448C53.964 22.7745 54.7108 22.6776 55.443 22.3624C55.54 22.3187 55.5643 22.2508 55.5643 22.149C55.5594 21.892 55.5546 21.6301 55.5643 21.3731C55.5691 21.2373 55.5255 21.1888 55.3897 21.1937C55.089 21.2034 54.7932 21.1937 54.4925 21.1985C54.3955 21.1985 54.3422 21.1888 54.3374 21.0725C54.3325 20.7088 54.3131 20.3451 54.3325 19.9814C54.3422 19.8359 54.4052 19.8116 54.5313 19.8116C55.2927 19.8165 56.0492 19.8165 56.8106 19.8116C56.9657 19.8116 57.0239 19.8601 57.0239 20.0202C57.0191 21.0773 57.0142 22.1344 57.0239 23.1964C57.0239 23.4195 56.8687 23.468 56.733 23.5262C56.1801 23.7541 55.6079 23.9238 55.0114 23.982C54.2113 24.0596 53.416 24.0742 52.6449 23.7686C51.3016 23.2352 50.5985 22.2217 50.4821 20.8057C50.3996 19.7922 50.6033 18.8418 51.3016 18.0562C51.7429 17.547 52.2764 17.1833 52.9407 17.0427C53.5518 16.9312 54.1628 16.8342 54.7835 16.936C55.1472 16.9942 55.5012 17.096 55.8698 17.1445Z" fill="#C91E79"/>
<path d="M19.8834 31.6921C19.6749 31.7018 19.6313 31.6194 19.6652 31.4109C19.6992 31.212 19.6458 30.9987 19.6458 30.7902C19.641 30.3731 19.6507 29.9512 19.641 29.5342C19.6361 29.3645 19.6798 29.2966 19.8689 29.2481C20.1405 29.1802 20.4363 29.1656 20.669 28.9862C20.8048 28.8698 20.829 28.7244 20.829 28.5546C20.8339 28.0891 20.7999 27.6187 20.8678 27.1532C20.8872 27.0174 20.8484 26.8816 20.8242 26.7459C20.6981 26.4985 20.4363 26.4258 20.2277 26.2852C20.1017 26.1979 19.9513 26.1542 19.8252 26.0718C19.7477 26.0233 19.6458 25.9894 19.641 25.873C19.641 25.6014 19.6458 25.325 19.6458 25.0535C19.6507 24.8013 19.7525 24.7286 19.9513 24.8692C20.1405 25.005 20.3587 25.0874 20.5429 25.228C20.6981 25.3444 20.8872 25.3347 21.0424 25.1844C21.1152 25.005 21.28 25.0389 21.4207 25.0195C21.668 25.0583 21.8765 24.9516 22.0947 24.8643C22.1286 24.8498 22.1626 24.8401 22.1965 24.8352C22.3178 24.8158 22.4487 24.8595 22.5602 24.7867C22.5796 24.7722 22.599 24.7625 22.6184 24.7577C22.7154 24.7334 22.8172 24.7383 22.8997 24.6655C22.9336 24.651 22.9676 24.6413 23.0015 24.6364C23.1276 24.6219 23.2682 24.6704 23.3604 24.5443C23.758 24.4182 24.1508 24.2679 24.5727 24.2388C24.7327 24.263 24.8685 24.1757 25.0188 24.1466C25.3534 24.0836 25.431 24.1418 25.431 24.4764C25.4358 24.9516 25.4552 25.4269 25.4407 25.9021C25.431 26.2658 25.4892 26.6246 25.4455 26.9883C25.4358 27.0853 25.4164 27.1774 25.3679 27.2647C25.3679 28.2249 25.3728 29.1802 25.3728 30.1404C25.397 30.247 25.3146 30.281 25.2419 30.3052C24.8879 30.4265 24.5339 30.5428 24.1556 30.5816C23.9374 30.5816 23.7337 30.6689 23.5398 30.7514C23.147 30.9211 22.7251 30.9647 22.3275 31.1102C22.2935 31.1248 22.2499 31.1199 22.2111 31.0957C21.9832 31.0908 21.7747 31.1635 21.571 31.2508C21.5419 31.3187 21.4788 31.3333 21.4158 31.3478C20.9842 31.4448 20.5623 31.566 20.1356 31.6824C20.0532 31.7261 19.9659 31.76 19.8834 31.6921Z" fill="#1F1E40"/>
<path d="M15.8582 25.9797C15.8582 25.9942 15.8582 26.0088 15.8582 26.0233C15.7321 27.0562 15.8194 28.0939 15.7903 29.1317C15.7855 29.2578 15.8 29.3935 15.6594 29.4711C15.1551 29.185 14.6508 28.8941 14.1464 28.6128C14.0397 28.5546 14.0591 28.4722 14.0591 28.3897C14.0591 27.8418 14.0543 27.2938 14.064 26.741C14.0688 26.5567 14.0252 26.4452 13.8506 26.3579C13.5791 26.2173 13.3269 26.0427 13.0553 25.8924C12.9341 25.8245 12.8905 25.7469 12.8905 25.6063C12.8953 24.8546 12.8905 24.103 12.8953 23.3562C12.8953 23.1865 12.8614 23.0798 12.7013 22.9877C12.1146 22.6531 11.5375 22.2942 10.9604 21.9451C10.9604 21.2856 10.9604 20.6212 10.9604 19.9617C10.9604 19.9035 10.9604 19.7192 10.9604 19.7192C10.9653 19.7386 11.072 19.8114 11.1641 19.8696C11.4793 20.0732 11.8139 20.2478 12.134 20.4466C12.391 20.6115 12.7401 20.7958 12.9535 20.9316C12.9971 21.0091 12.9826 21.1546 12.9826 21.2759C12.9826 21.7268 12.9826 22.173 12.9826 22.624C12.9826 22.7452 12.9874 22.8664 13.0214 22.9828C13.0553 23.0992 13.1378 23.1622 13.2396 23.2204C13.6857 23.4774 14.1416 23.7102 14.578 23.9818C14.6653 24.0351 14.7574 24.0884 14.8205 24.1757C14.995 24.4279 14.9854 24.68 14.8059 24.9274C14.6071 25.0098 14.4034 25.0728 14.1804 25.0777C14.7332 25.3783 15.2666 25.7275 15.8582 25.9797Z" fill="#802257"/>
<path d="M34.2317 23.8316C33.0049 23.8364 31.778 23.8364 30.5511 23.8413C30.4299 23.8413 30.3911 23.8122 30.3911 23.6813C30.396 21.5427 30.396 19.4042 30.3911 17.2657C30.3911 17.0862 30.4445 17.028 30.6239 17.0329C30.9633 17.0474 31.3028 17.0474 31.6422 17.0329C31.8459 17.0232 31.9138 17.0717 31.9138 17.2948C31.9041 19.0065 31.9089 20.7135 31.9138 22.4253C32.1659 22.4738 32.423 22.4738 32.68 22.4641C33.2764 22.4447 33.8729 22.4107 34.4645 22.498C34.61 22.5174 34.673 22.595 34.6682 22.7405C34.6633 22.9684 34.6682 23.1915 34.6682 23.4194C34.6682 23.7103 34.6391 23.7443 34.3433 23.7831C34.3045 23.7976 34.2657 23.8073 34.2317 23.8316Z" fill="#C71F78"/>
<path d="M59.4731 20.4225C59.4731 19.2587 59.478 18.0949 59.4683 16.9359C59.4683 16.7807 59.5119 16.7516 59.6574 16.7468C60.1617 16.7419 60.1617 16.7371 60.1617 17.2511C60.1617 18.09 60.1666 18.929 60.1569 19.7727C60.1569 19.9425 60.2054 19.9861 60.3751 19.9861C61.602 19.9813 62.8289 19.9764 64.0606 19.9861C64.2449 19.9861 64.2643 19.9182 64.2643 19.763C64.2594 18.8417 64.2692 17.9203 64.2546 17.0038C64.2546 16.8098 64.2885 16.7371 64.5019 16.7468C64.9481 16.7662 64.9481 16.7516 64.9481 17.1929C64.9481 19.4236 64.9432 21.6494 64.9529 23.8801C64.9529 24.0595 64.8996 24.0934 64.7347 24.0886C64.2595 24.0837 64.2595 24.0886 64.2595 23.6085C64.2595 22.6823 64.2546 21.7512 64.2595 20.825C64.2595 20.6553 64.211 20.6068 64.0412 20.6068C62.8192 20.6117 61.602 20.6117 60.3799 20.6068C60.1908 20.6068 60.152 20.665 60.152 20.8396C60.1617 21.8337 60.152 22.8278 60.1617 23.817C60.1617 24.011 60.1375 24.1031 59.9047 24.0886C59.4683 24.0643 59.4683 24.0789 59.4683 23.6425C59.4683 22.5708 59.4683 21.4991 59.4731 20.4225C59.4683 20.4225 59.4683 20.4225 59.4731 20.4225Z" fill="#1E1F3D"/>
<path d="M79.2192 20.4083C79.2192 19.2687 79.2241 18.134 79.2144 16.9944C79.2144 16.815 79.2435 16.7423 79.4471 16.7471C79.9078 16.7617 79.9078 16.752 79.9078 17.1981C79.9078 18.0467 79.9126 18.8953 79.903 19.7391C79.903 19.9282 79.9466 19.9864 80.1406 19.9864C81.3577 19.9767 82.5798 19.9767 83.8018 19.9864C83.986 19.9864 84.0103 19.9185 84.0103 19.7634C84.0054 18.8371 84.0151 17.9061 84.0054 16.9799C84.0054 16.8004 84.0394 16.7423 84.2285 16.7471C84.7037 16.7617 84.7037 16.7471 84.7037 17.232C84.7037 19.4288 84.6989 21.6255 84.7086 23.8174C84.7086 24.0356 84.6552 24.0889 84.4419 24.0841C84.0103 24.0647 84.0103 24.0792 84.0103 23.6331C84.0103 22.7069 84.0054 21.7758 84.0151 20.8496C84.0151 20.675 83.9909 20.5974 83.7824 20.5974C82.5701 20.6071 81.3577 20.6071 80.1454 20.5974C79.9514 20.5974 79.903 20.6556 79.9078 20.8447C79.9175 21.8437 79.9078 22.8475 79.9175 23.8464C79.9175 24.0453 79.8545 24.0889 79.6702 24.0792C79.2192 24.0647 79.2192 24.0744 79.2192 23.6185C79.2192 22.5517 79.2192 21.48 79.2192 20.4083Z" fill="#1F1E3F"/>
<path d="M18.6218 19.4768C17.8314 19.0258 17.041 18.5748 16.2554 18.119C16.3815 17.9347 16.5948 17.9056 16.7839 17.8571C18.229 17.4886 19.6741 17.1297 21.1192 16.766C21.5847 16.6496 22.0309 16.6884 22.4479 16.9357C23.025 17.2703 23.6069 17.6001 24.1839 17.9395C24.2567 17.9783 24.3634 17.9977 24.3488 18.119C24.1597 18.2257 23.9415 18.2063 23.7426 18.2644C23.3741 18.3711 23.0104 18.5118 22.6273 18.5603C22.2685 18.6087 21.9242 18.7348 21.575 18.827C21.0852 18.9579 20.5858 19.0403 20.1057 19.1955C19.7371 19.3167 19.3492 19.3507 18.9807 19.4671C18.8594 19.501 18.7382 19.5447 18.6218 19.4768Z" fill="#CB458F"/>
<path d="M69.3164 17.5468C69.0351 18.2014 68.7684 18.8173 68.5017 19.4428C67.8665 20.9316 67.2312 22.4203 66.6008 23.9139C66.5377 24.0642 66.4505 24.0933 66.305 24.0885C65.7958 24.0836 65.7958 24.0885 65.9946 23.6326C66.9693 21.4068 67.944 19.1761 68.9139 16.9503C68.977 16.8048 69.0497 16.7466 69.2146 16.7515C69.7092 16.7612 69.7141 16.7563 69.9032 17.1976C70.8391 19.4138 71.775 21.6347 72.7158 23.8508C72.7934 24.0351 72.7885 24.0933 72.5655 24.0885C72.032 24.0739 72.0369 24.0788 71.8332 23.5841C71.0185 21.6008 70.2038 19.6223 69.3843 17.6438C69.3746 17.6244 69.3601 17.605 69.3164 17.5468Z" fill="#1F1D40"/>
<path d="M20.6537 21.8046C20.0524 21.4554 19.4511 21.1063 18.8449 20.762C18.7722 20.7183 18.6946 20.6941 18.714 20.5923C18.937 20.5001 19.1552 20.4128 19.3977 20.374C19.8002 20.3013 20.193 20.1752 20.5906 20.0734C21.6769 19.797 22.7631 19.5448 23.8445 19.2393C24.0045 19.1957 24.1791 19.1908 24.3488 19.1763C24.9065 19.5012 25.4593 19.8261 26.017 20.1558C26.0946 20.1995 26.1673 20.2528 26.2401 20.3013C26.2498 20.374 26.2352 20.4371 26.1722 20.4807C25.309 20.7474 24.4216 20.9026 23.5536 21.1548C22.9959 21.3148 22.4237 21.3972 21.8757 21.5864C21.5459 21.6979 21.1774 21.7076 20.8428 21.8288C20.7846 21.8385 20.7167 21.8337 20.6537 21.8046Z" fill="#CC4490"/>
<path d="M21.0418 24.0254C20.5278 24.1612 20.1738 23.8508 19.7859 23.6035C19.2621 23.2641 19.0245 22.721 18.7384 22.207C18.6948 22.1245 18.6996 22.0178 18.7481 21.916C18.9372 21.9742 19.1118 22.0518 19.2767 22.1682C19.6161 22.4058 19.9895 22.59 20.3581 22.7792C20.5036 22.8519 20.6102 23.0119 20.8091 22.9634C20.8964 22.944 20.9885 22.9489 21.0418 22.8616C21.0515 22.8519 21.0564 22.8422 21.0661 22.8374C21.1631 22.7937 21.2697 22.7598 21.3716 22.7161C21.7741 22.6094 22.1766 22.4931 22.5888 22.4203C22.7197 22.3912 22.87 22.4397 22.9864 22.3379C23.4762 22.1245 23.9999 22.0324 24.5188 21.9208C24.7612 21.9402 24.9746 21.8336 25.1977 21.7705C25.2656 21.7608 25.3238 21.7657 25.348 21.8433C25.6293 22.1827 25.9881 22.4252 26.3421 22.6773C26.3373 22.7986 26.25 22.818 26.1627 22.8325C25.4498 22.9392 24.7661 23.1623 24.0678 23.332C23.5829 23.4484 23.1028 23.5987 22.613 23.6908C22.3463 23.7151 22.0844 23.7636 21.8371 23.8702C21.5753 23.9527 21.3279 24.0788 21.0418 24.0254Z" fill="#1F1E40"/>
<path d="M48.251 31.1105C48.3189 31.0038 48.2898 30.9214 48.2898 30.8438C48.2898 29.7624 48.2995 28.681 48.2849 27.5947C48.2801 27.2941 48.4644 27.3911 48.6147 27.3668C48.8038 27.3377 48.8377 27.4202 48.8377 27.5947C48.8329 28.9671 48.8281 30.3394 48.8377 31.7118C48.8377 31.8864 48.799 31.9252 48.6147 31.9446C48.251 31.9882 48.0522 31.8282 47.8582 31.5421C47.1114 30.4413 46.3404 29.3599 45.579 28.2688C45.5645 28.2445 45.5402 28.2251 45.4821 28.1573C45.4821 28.2882 45.4821 28.3658 45.4821 28.4434C45.4821 29.5442 45.4772 30.6401 45.4869 31.7409C45.4869 31.9155 45.4287 31.9737 45.2687 31.9446C45.1378 31.9203 44.9341 32.0513 44.9341 31.7506C44.9438 30.354 44.9389 28.9574 44.9341 27.5608C44.9341 27.4008 44.9923 27.3911 45.1281 27.3717C45.4772 27.3329 45.6906 27.4444 45.8942 27.7499C46.6022 28.8071 47.3442 29.8448 48.0764 30.8874C48.1298 30.9553 48.1879 31.0232 48.251 31.1105Z" fill="#1E1D3F"/>
<path d="M24.349 19.1714C24.3345 19.2199 24.3151 19.2393 24.2521 19.249C23.6992 19.3266 23.1755 19.5254 22.6372 19.6466C21.7498 19.8455 20.8673 20.0734 19.9895 20.3061C19.6549 20.3934 19.2961 20.408 18.976 20.568C18.9033 20.6019 18.8015 20.5825 18.7142 20.5874C18.5736 20.2625 18.6027 19.923 18.6463 19.5884C18.6511 19.5545 18.6269 19.5157 18.6172 19.4769C19.2379 19.3314 19.8635 19.1908 20.4842 19.0308C21.0952 18.8756 21.6965 18.701 22.3075 18.5458C22.7051 18.4489 23.1076 18.381 23.4956 18.2646C23.7671 18.1822 24.0338 18.0512 24.3345 18.1143C24.3442 18.4683 24.349 18.8223 24.349 19.1714Z" fill="#CA1E7A"/>
<path d="M22.5937 23.6374C22.9622 23.5404 23.3308 23.4483 23.7041 23.3513C24.3927 23.1719 25.0813 22.9973 25.7699 22.813C25.8718 22.7839 25.9736 22.7839 26.0754 22.7645C26.1676 22.75 26.2743 22.7742 26.3373 22.6772C26.4149 22.9731 26.4003 23.2737 26.3421 23.5647C26.3034 23.7538 26.1676 23.8993 25.9494 23.9381C25.7457 23.9478 25.6342 24.1757 25.4159 24.1611C25.1007 24.1029 24.8243 24.2484 24.5334 24.3115C24.1357 24.3696 23.7575 24.5054 23.3696 24.6073C23.258 24.7091 23.098 24.6121 22.9816 24.7043C22.9525 24.7091 22.9234 24.7091 22.8895 24.7139C22.807 24.7964 22.6761 24.7188 22.5937 24.8061C22.4773 24.8982 22.3221 24.8255 22.2057 24.8982C22.1766 24.9031 22.1427 24.9031 22.1136 24.9079C21.8857 24.9613 21.6578 25.0389 21.4298 25.0922C21.2941 25.1067 21.1534 25.097 21.0371 25.1892C20.974 25.1892 20.9061 25.1843 20.8431 25.194C20.6879 25.2134 20.6443 25.1407 20.654 25.0001C20.6588 24.9128 20.6588 24.8206 20.654 24.7333C20.6297 24.4133 20.5958 24.0932 21.0419 24.0302C21.2989 23.9623 21.5559 23.8993 21.8178 23.8314C22.07 23.7441 22.3367 23.7101 22.5937 23.6374Z" fill="#C91E7A"/>
<path d="M25.3429 21.8434C25.2993 21.8289 25.2605 21.8143 25.2168 21.7998C24.9841 21.8483 24.7513 21.8822 24.5331 21.9841C24.0772 22.1005 23.6214 22.2168 23.1656 22.3332C23.1025 22.3478 23.0443 22.3672 22.9813 22.3817C22.8698 22.4836 22.7049 22.372 22.5934 22.4787C22.1715 22.566 21.7641 22.7212 21.3374 22.7745C21.2453 22.823 21.1289 22.7939 21.0416 22.8618C20.9834 22.8618 20.9301 22.8569 20.8719 22.8618C20.6973 22.886 20.6488 22.8133 20.6536 22.6436C20.6633 22.3623 20.6536 22.0811 20.6536 21.7998C21.0076 21.7077 21.3471 21.5816 21.7205 21.5379C22.0308 21.504 22.3267 21.3585 22.6273 21.2518C22.6806 21.2324 22.7291 21.213 22.7873 21.213C23.2529 21.2324 23.6651 20.9997 24.1063 20.9124C24.5719 20.8202 25.0326 20.6796 25.4981 20.5875C25.7309 20.5438 25.9248 20.3547 26.1818 20.4323C26.2643 20.3935 26.3128 20.4371 26.3176 20.5099C26.3273 20.8542 26.4001 21.213 26.1333 21.5088C25.9442 21.6495 25.7163 21.698 25.4932 21.7513C25.435 21.7707 25.3623 21.761 25.3429 21.8434Z" fill="#C91E7A"/>
<path d="M37.8696 29.6504C37.8696 28.9569 37.8744 28.2635 37.8647 27.5652C37.8647 27.4051 37.9084 27.3664 38.0684 27.3664C38.8831 27.376 39.7026 27.3809 40.5173 27.3615C40.7452 27.3567 40.7598 27.4536 40.7549 27.6282C40.7501 27.7931 40.7501 27.8901 40.527 27.8852C39.8869 27.8658 39.2517 27.8852 38.6115 27.8755C38.4515 27.8755 38.403 27.9192 38.4079 28.0792C38.4224 28.4187 38.4224 28.7581 38.4079 29.0976C38.3982 29.277 38.4661 29.3109 38.6309 29.3109C39.1983 29.3012 39.7608 29.3206 40.3282 29.3012C40.5513 29.2964 40.6095 29.3546 40.6095 29.5776C40.6095 29.8007 40.5173 29.8153 40.3379 29.8153C39.7657 29.8056 39.1886 29.8153 38.6164 29.8104C38.4661 29.8104 38.403 29.8395 38.4079 30.0092C38.4224 30.4117 38.4176 30.8191 38.4079 31.2216C38.403 31.3913 38.4564 31.4398 38.6261 31.4398C39.305 31.4301 39.9839 31.4446 40.6628 31.4301C40.8762 31.4252 40.8762 31.5271 40.8713 31.6774C40.8665 31.818 40.8956 31.9393 40.6725 31.9393C39.7996 31.9296 38.9267 31.9296 38.0539 31.9393C37.8793 31.9393 37.8647 31.8665 37.8647 31.7259C37.8696 31.0421 37.8696 30.3438 37.8696 29.6504Z" fill="#201D3D"/>
<path d="M75.185 29.6262C75.185 28.9473 75.1899 28.2684 75.1802 27.5895C75.1802 27.4343 75.1996 27.3616 75.3838 27.3664C76.2179 27.3761 77.0472 27.381 77.8812 27.3664C78.0898 27.3616 78.0801 27.4683 78.0655 27.6041C78.051 27.7301 78.1431 27.8999 77.8812 27.895C77.2363 27.8805 76.5865 27.8999 75.9415 27.8853C75.7524 27.8805 75.7087 27.9387 75.7184 28.1181C75.733 28.4575 75.7281 28.797 75.7184 29.1364C75.7136 29.2916 75.7669 29.3256 75.9124 29.3207C76.504 29.311 77.0908 29.3256 77.6824 29.311C77.9006 29.3062 77.9103 29.4031 77.9103 29.5729C77.9103 29.7426 77.8958 29.8347 77.6824 29.8299C77.0908 29.8153 76.504 29.8299 75.9124 29.8202C75.7669 29.8202 75.7136 29.8541 75.7184 30.0093C75.7281 30.4215 75.7281 30.8337 75.7184 31.2459C75.7136 31.4253 75.7863 31.4544 75.9464 31.4544C76.6156 31.4447 77.2896 31.4641 77.9588 31.4447C78.1867 31.4398 78.177 31.5514 78.177 31.7066C78.177 31.8569 78.1771 31.9587 77.9685 31.9539C77.1054 31.9393 76.2422 31.9442 75.3741 31.9539C75.2238 31.9539 75.1802 31.9151 75.1802 31.7647C75.1899 31.0471 75.185 30.3391 75.185 29.6262Z" fill="#1F1E3D"/>
<path d="M60.1567 28.996C60.1567 28.5208 60.1616 28.0455 60.1519 27.5655C60.1519 27.4297 60.1713 27.3618 60.3313 27.3666C60.7774 27.386 60.6853 27.323 60.6901 27.7206C60.6998 28.5596 60.695 29.3985 60.6998 30.2374C60.6998 30.3683 60.7192 30.4944 60.7435 30.6205C60.9181 31.4885 61.6455 31.7019 62.3583 31.4643C62.8239 31.3091 62.9887 30.9066 63.0372 30.4653C63.11 29.8155 63.0566 29.1609 63.0663 28.5062C63.0712 28.1813 63.076 27.8613 63.0663 27.5364C63.0615 27.3957 63.1051 27.3472 63.2457 27.3666C63.3233 27.3763 63.4058 27.3715 63.4882 27.3666C63.5852 27.3618 63.6143 27.4054 63.6095 27.4976C63.5852 28.5547 63.6773 29.6118 63.561 30.6641C63.4882 31.3382 63.1245 31.8231 62.4311 31.988C61.7085 32.1577 61.0296 32.0898 60.5156 31.474C60.2537 31.1588 60.1616 30.7708 60.1567 30.3683C60.1567 29.9174 60.1616 29.4567 60.1567 28.996Z" fill="#201E3F"/>
<path d="M83.6217 27.255C84.0582 27.2502 84.4509 27.3666 84.7758 27.6721C84.8728 27.7642 84.8631 27.8272 84.7661 27.8951C84.7467 27.9097 84.7273 27.9242 84.7128 27.9436C84.5576 28.1182 84.4412 28.1715 84.223 27.9679C83.8836 27.6527 83.2338 27.6915 82.875 27.9873C82.5162 28.2831 82.5453 28.8213 82.9283 29.0832C83.1659 29.2432 83.4423 29.3063 83.709 29.4033C83.8448 29.4517 83.9854 29.4905 84.1163 29.5487C84.7564 29.8251 84.9989 30.2082 84.9552 30.8629C84.9213 31.4011 84.5479 31.8182 83.9418 31.9782C83.2629 32.1576 82.6325 32.0897 82.0846 31.6097C81.9537 31.4981 81.9101 31.4011 82.0895 31.3042C82.1089 31.2945 82.1283 31.2751 82.1428 31.2557C82.2931 31.0811 82.4046 31.0617 82.5889 31.2605C82.9332 31.6291 83.6266 31.6485 84.0436 31.3575C84.2909 31.1829 84.3976 30.9502 84.3685 30.6495C84.3394 30.378 84.1697 30.2276 83.9369 30.1161C83.6217 29.9609 83.2823 29.8833 82.9623 29.7572C82.2543 29.4808 81.9682 29.059 82.0507 28.3801C82.1186 27.803 82.6229 27.352 83.2872 27.2744C83.3938 27.2696 83.5102 27.2647 83.6217 27.255Z" fill="#1E1E3E"/>
<path d="M32.0792 31.1251C32.4865 30.0679 32.8793 29.0593 33.2721 28.0458C33.3109 27.9391 33.3545 27.8373 33.3933 27.7306C33.5437 27.3572 33.5437 27.3621 33.9413 27.3718C34.0722 27.3766 34.111 27.3912 34.0577 27.5318C33.6843 28.4677 33.3206 29.4036 32.9521 30.3395C32.7629 30.8196 32.5593 31.2948 32.3895 31.7797C32.3071 32.0173 32.1374 31.9203 31.9919 31.9397C31.861 31.9591 31.7785 31.93 31.7203 31.7846C31.1966 30.3977 30.6632 29.0157 30.1346 27.6336C30.0376 27.3766 30.0425 27.396 30.3044 27.3669C30.5711 27.3427 30.6923 27.43 30.7844 27.6918C31.1675 28.7683 31.5797 29.8352 31.9774 30.902C32.0016 30.965 32.0307 31.0184 32.0792 31.1251Z" fill="#1F1D3F"/>
<path d="M54.7788 29.9413C54.7788 30.5474 54.7739 31.1488 54.7836 31.7549C54.7885 31.9053 54.7448 31.9489 54.5993 31.944C54.1872 31.9295 54.2308 32.0119 54.2308 31.59C54.226 30.4359 54.226 29.2818 54.2357 28.1325C54.2357 27.9288 54.1823 27.8706 53.9787 27.8803C53.6247 27.8997 53.2658 27.8755 52.9119 27.89C52.6888 27.8997 52.7082 27.7736 52.7131 27.633C52.7179 27.5021 52.6646 27.3663 52.9022 27.3663C53.9738 27.376 55.0503 27.376 56.122 27.3663C56.4129 27.3614 56.2674 27.5651 56.2965 27.6864C56.3305 27.8367 56.2771 27.8997 56.1074 27.89C55.7389 27.8755 55.3655 27.8949 54.9921 27.8803C54.8176 27.8755 54.7788 27.9337 54.7788 28.0985C54.7885 28.7144 54.7788 29.3254 54.7788 29.9413Z" fill="#1F1F3D"/>
<path d="M27.2981 24.947C27.4048 24.981 27.3902 25.0683 27.3902 25.1458C27.3902 25.7908 27.3854 26.4358 27.3951 27.0807C27.3951 27.2504 27.3417 27.3329 27.1768 27.362C26.8762 27.4105 26.5901 27.5317 26.2846 27.5608C26.1488 27.5753 26.0372 27.5365 26.0324 27.3814C26.013 26.6928 25.9742 26.009 26.0518 25.3204C26.2312 25.1264 26.4979 25.1361 26.7258 25.0586C26.9004 24.9955 27.1041 24.9761 27.2981 24.947Z" fill="#C71F79"/>
<path d="M14.8401 24.1758C14.2776 23.8606 13.7199 23.5454 13.1574 23.2302C13.0943 23.1963 13.041 23.1429 13.0361 23.0605C13.2737 22.915 13.5405 22.8423 13.8072 22.7986C14.0302 22.7598 14.2485 22.6968 14.4667 22.6483C14.6849 22.5998 14.7673 22.4786 14.7625 22.2555C14.7479 21.7657 14.7576 21.2711 14.7576 20.7813C14.7576 20.6698 14.7382 20.5534 14.8207 20.4564L14.8352 20.4419C14.908 20.568 14.8692 20.7086 14.8692 20.8395C14.874 21.3778 14.874 21.9161 14.8692 22.4592C14.8692 22.5416 14.8546 22.6241 14.9419 22.6726C15.325 22.8859 15.679 23.1526 16.0912 23.3127C16.0912 23.5212 16.0863 23.7248 16.0863 23.9334C15.7178 24.1952 15.3008 24.2971 14.8401 24.1758Z" fill="#CD438F"/>
<path d="M20.8531 33.3799C20.6979 33.346 20.6543 33.2345 20.6543 33.089C20.6543 32.832 20.6543 32.575 20.6543 32.318C20.8337 32.1337 21.0956 32.1434 21.3186 32.0609C21.629 31.9494 21.9588 31.8961 22.2643 31.7748C22.3564 31.736 22.4534 31.7312 22.5407 31.7845C22.5455 32.1385 22.5455 32.4877 22.5601 32.8417C22.5649 32.929 22.5213 32.9532 22.4534 32.9678C21.92 33.0987 21.3962 33.2733 20.8531 33.3799Z" fill="#C6207A"/>
<path d="M26.2402 31.9884C25.6826 32.1533 25.12 32.3181 24.5381 32.4054C24.446 32.3569 24.3733 32.2939 24.3733 32.1872C24.3636 31.8963 24.3248 31.6101 24.4024 31.3192C24.4654 31.2173 24.5721 31.1737 24.6788 31.1495C25.0425 31.0622 25.411 30.9943 25.765 30.8633C25.9056 30.8148 26.0608 30.8003 26.2111 30.8391C26.2257 30.8488 26.2451 30.8536 26.2499 30.8633C26.3712 31.0282 26.3615 31.8138 26.2402 31.9884Z" fill="#C81F79"/>
<path d="M24.4416 31.2994C24.4416 31.5467 24.4464 31.7989 24.4367 32.0462C24.4319 32.1819 24.4561 32.2983 24.5386 32.405C24.4658 32.4341 24.4028 32.4244 24.3349 32.3856C23.6414 31.9783 22.948 31.5709 22.2545 31.1636C22.2352 31.1539 22.2255 31.1297 22.2061 31.1103C22.5504 30.9696 22.9141 30.9017 23.268 30.7999C23.4766 30.7417 23.6851 30.6496 23.8936 30.5768C23.9809 30.5477 24.0585 30.5235 24.1506 30.538C24.0876 30.7272 23.8791 30.6738 23.753 30.7757C23.8888 30.9163 24.073 30.9793 24.2282 31.086C24.3203 31.1442 24.4222 31.183 24.4416 31.2994Z" fill="#812258"/>
<path d="M26.0903 25.2911C26.0903 25.9409 26.0903 26.5907 26.0903 27.2405C26.0903 27.386 26.1 27.5266 26.2843 27.5605C26.1631 27.643 26.0661 27.5799 25.9546 27.5314C25.7557 27.4539 25.62 27.2356 25.3727 27.2744C25.3678 26.3337 25.3581 25.3929 25.363 24.457C25.363 24.2388 25.329 24.1418 25.0768 24.2145C24.9071 24.263 24.7325 24.3697 24.5386 24.3164C24.8053 24.1466 25.0962 24.0885 25.4066 24.1272C25.5278 24.263 25.4842 24.4328 25.4793 24.5831C25.4745 24.7964 25.5521 24.9322 25.746 25.0147C25.8818 25.0729 26.0176 25.1456 26.0903 25.2911Z" fill="#82205A"/>
<path d="M22.5405 31.7845C22.2593 31.7845 22.0265 31.9445 21.7598 32.0076C21.3864 32.09 21.0227 32.2209 20.6541 32.3179C20.4068 32.1482 20.1159 32.0512 19.8734 31.8669C19.7667 31.7845 19.8249 31.7457 19.8831 31.6924C20.4456 31.5566 20.9984 31.3675 21.5707 31.2656C21.8907 31.445 22.2399 31.576 22.5405 31.7845Z" fill="#CC4392"/>
<path d="M24.4418 31.2992C24.1606 31.1246 23.8793 30.9501 23.5835 30.7658C23.7629 30.6494 23.9908 30.6688 24.1509 30.5379C24.5388 30.4651 24.9122 30.3488 25.2904 30.2372C25.3244 30.2275 25.3438 30.1839 25.368 30.1548C25.4795 30.3633 25.7123 30.3924 25.882 30.5233C25.9499 30.5767 26.0469 30.5912 26.0954 30.6688C26.0905 30.6737 26.0857 30.6834 26.0808 30.6882C26.076 30.6931 26.0663 30.6931 26.0615 30.6979C26.1051 30.7609 26.2409 30.7464 26.2166 30.8725C26.2166 30.8773 26.2069 30.8773 26.1972 30.8773C26.1875 30.8773 26.1827 30.8725 26.173 30.8676C25.6638 30.9452 25.1886 31.1586 24.6794 31.2168C24.6067 31.2216 24.5242 31.2701 24.4418 31.2992Z" fill="#CC4391"/>
<path d="M26.09 25.2912C25.9009 25.1845 25.7069 25.0827 25.5178 24.976C25.4208 24.9227 25.4062 24.8305 25.4062 24.7287C25.4062 24.5299 25.4062 24.3311 25.4062 24.1322C25.5954 24.0935 25.7312 23.8995 25.9494 23.9431C25.7796 24.0062 25.799 24.0741 25.9445 24.1565C26.3276 24.3699 26.7107 24.5881 27.089 24.8063C27.1617 24.8499 27.2538 24.8693 27.3023 24.9566C27.2538 25.0197 27.1859 25.0779 27.1035 25.0779C26.7495 25.0633 26.4391 25.2718 26.09 25.2912Z" fill="#CF428F"/>
<path d="M15.7129 29.4665C15.7711 29.3696 15.7662 29.2677 15.7662 29.161C15.7662 28.2979 15.7614 27.4396 15.7711 26.5764C15.7711 26.3873 15.7468 26.1739 15.9117 26.0187C16.062 25.9945 16.1057 26.0624 16.1057 26.2079C16.1008 27.2941 16.1008 28.3852 16.1008 29.4714C16.1008 29.5441 16.1154 29.6217 16.0184 29.646C15.9117 29.5878 15.8099 29.5296 15.7129 29.4665Z" fill="#271941"/>
<path d="M48.9735 23.8314C48.9978 23.7829 48.9056 23.6568 49.0802 23.7102C49.4197 23.812 49.5554 23.7005 49.5554 23.3368C49.5603 22.3281 49.5554 21.3195 49.5554 20.3108C49.5554 19.4089 49.5554 18.5021 49.5554 17.6001C49.5554 17.217 49.4924 17.1491 49.119 17.1491C48.8911 17.1491 48.668 17.1588 48.4401 17.1443C48.251 17.1297 48.1928 17.1927 48.1928 17.3867C48.2025 18.6669 48.1976 19.952 48.1928 21.2322C48.1928 21.3534 48.2461 21.4892 48.1346 21.5959C48.0764 21.4553 48.1152 21.3098 48.1152 21.1692C48.1104 19.8792 48.1152 18.5893 48.1055 17.3043C48.1055 17.0909 48.1685 17.0279 48.3771 17.0376C48.7311 17.057 49.0851 17.0473 49.4391 17.0376C49.6088 17.0327 49.6573 17.1006 49.6136 17.2558C49.6185 19.4089 49.6282 21.5668 49.6088 23.7199C49.6476 23.8605 49.5409 23.8363 49.4682 23.8363C49.3081 23.8411 49.1433 23.8363 48.9735 23.8314Z" fill="#9B396A"/>
<path d="M41.9957 22.0178C41.9618 21.7414 42.0684 21.4892 42.1606 21.2419C42.1897 21.1692 42.1848 21.1013 42.1848 21.0285C42.1848 20.6891 42.1654 20.3496 42.1897 20.0102C42.209 19.7677 42.146 19.5447 42.0636 19.3361C41.9957 19.1761 42.0006 19.0306 41.9957 18.8706C42.2284 19.1955 42.2624 19.5834 42.306 19.9617C42.3836 20.5921 42.3254 21.2079 42.1072 21.8044C42.083 21.882 42.0636 21.9644 41.9957 22.0178Z" fill="#AD3675"/>
<path d="M34.2325 23.8316C34.2422 23.7783 34.2664 23.7395 34.3246 23.7395C34.5865 23.7589 34.6301 23.6037 34.6204 23.3855C34.6107 23.177 34.6204 22.9684 34.6156 22.7599C34.6156 22.692 34.6301 22.5805 34.5331 22.5902C34.3246 22.6096 34.1597 22.469 33.9512 22.4787C33.4808 22.5078 33.0056 22.4496 32.5304 22.5223C32.3218 22.5514 32.1036 22.5223 31.9048 22.4302C32.7486 22.435 33.5972 22.4447 34.441 22.4399C34.6398 22.4399 34.7126 22.4932 34.7029 22.6969C34.6883 22.9878 34.6835 23.2788 34.7029 23.5649C34.7174 23.7928 34.6398 23.8753 34.4168 23.8413C34.3634 23.8316 34.3004 23.8365 34.2325 23.8316Z" fill="#AE4A82"/>
<path d="M49.619 23.7199C49.6142 23.429 49.6045 23.138 49.6045 22.8471C49.6045 21.0771 49.6045 19.312 49.6045 17.542C49.6045 17.445 49.619 17.348 49.6239 17.2559C49.6287 17.3092 49.6384 17.3674 49.6384 17.4207C49.6384 19.438 49.6384 21.4602 49.6384 23.4775C49.6384 23.5648 49.6239 23.6424 49.619 23.7199Z" fill="#C91E79"/>
<path d="M55.8697 17.1442C55.5158 17.1733 55.1763 17.1394 54.8466 16.9842C54.7302 16.9308 54.575 16.9745 54.4393 16.9551C53.9301 16.8775 53.4452 17.1006 52.936 17.0472C53.4743 16.8339 54.0368 16.8484 54.5993 16.8823C55.0357 16.9017 55.4673 16.9551 55.8697 17.1442Z" fill="#AB427A"/>
<path d="M26.1868 30.8629C26.1965 30.7756 26.0946 30.7998 26.0607 30.7417C26.017 30.6592 26.0655 30.6786 26.1043 30.6641C26.3225 30.7223 26.4098 30.8532 26.3904 31.0908C26.3662 31.3333 26.3856 31.5757 26.3856 31.8182C26.3856 31.9201 26.371 31.9976 26.245 31.9928C26.3274 31.6727 26.2692 31.3478 26.2886 31.0229C26.2886 30.9405 26.2207 30.9114 26.1868 30.8629Z" fill="#AC4E85"/>
<path d="M26.1387 21.5136C26.2502 21.2274 26.3181 20.9413 26.2842 20.631C26.2745 20.5534 26.2987 20.4613 26.1872 20.4419C26.1872 20.3885 26.1823 20.3303 26.2405 20.2964C26.2745 20.3158 26.323 20.3255 26.3424 20.3546C26.4587 20.5292 26.3715 21.3293 26.2211 21.4796C26.2017 21.4942 26.1678 21.499 26.1387 21.5136Z" fill="#A95282"/>
<path d="M47.4907 23.5454C47.6992 23.6666 47.9029 23.7879 48.1551 23.7539C48.1648 23.7539 48.1842 23.8024 48.1987 23.8267C48.1163 23.8315 48.0387 23.8267 47.9563 23.8364C47.7089 23.8849 47.5635 23.7782 47.4907 23.5454Z" fill="#A34071"/>
<path d="M56.1509 18.5069C56.306 18.2936 56.3933 18.022 56.6793 17.9202C56.5436 18.1529 56.3545 18.3324 56.1509 18.5069Z" fill="#B64F86"/>
<path d="M46.2584 18.7495C46.0984 18.7204 46.0887 18.5846 46.0645 18.4634C46.1566 18.541 46.2148 18.638 46.2584 18.7495Z" fill="#B35583"/>
<path d="M14.8254 20.4563C14.8302 21.1255 14.8302 21.7947 14.8351 22.4591C14.8351 22.5754 14.7866 22.6288 14.6799 22.6676C14.2144 22.847 13.7003 22.8324 13.2445 23.0507C13.1766 23.0846 13.1039 23.0119 13.036 23.0604C12.9487 22.9828 12.9438 22.8809 12.9438 22.7743C12.9487 22.1584 12.9438 21.5425 12.9487 20.9267C13.5694 20.7376 14.1853 20.5484 14.8254 20.4563Z" fill="#C91E7A"/>
<path d="M20.8772 26.6491C20.9597 26.9158 20.9306 27.1825 20.916 27.4589C20.8918 27.8808 20.8966 28.3076 20.9112 28.7343C20.916 28.9283 20.8481 28.9962 20.6687 28.9865C20.4505 28.9331 20.2565 29.0398 20.0674 29.1126C19.7328 29.2435 19.6358 29.1853 19.6407 28.8458C19.6455 28.3076 19.6358 27.7693 19.6455 27.2262C19.6455 27.0855 19.6019 26.9788 19.5049 26.8819C19.888 26.7946 20.2759 26.7461 20.6493 26.6103C20.7172 26.586 20.8045 26.6103 20.8772 26.6491Z" fill="#C61F79"/>
<path d="M20.8775 26.6491C20.6835 26.6248 20.5235 26.7364 20.3441 26.7752C20.0677 26.8382 19.8009 26.9546 19.5051 26.8819C19.0493 26.557 18.5401 26.3193 18.0601 26.0235C17.9437 25.9508 17.7303 25.8974 17.7448 25.7908C17.7594 25.6744 17.9776 25.7083 18.0988 25.655C18.6517 25.4222 19.1657 25.461 19.6312 25.8683C19.9416 26.0478 20.2471 26.232 20.5574 26.4066C20.6787 26.4794 20.7805 26.5618 20.8775 26.6491Z" fill="#CD438F"/>
<path d="M15.9067 25.9799C15.737 26.0671 15.6254 25.9362 15.5042 25.8683C15.0629 25.621 14.6216 25.3689 14.1367 25.0876C14.3986 24.9712 14.6119 24.9227 14.8399 24.8985C14.9368 24.7918 15.0581 24.7482 15.1939 24.7142C15.4169 24.6609 15.6545 24.6463 15.8728 24.559C15.9503 24.5299 16.0473 24.5057 16.1055 24.6124C16.1055 24.9906 16.1055 25.364 16.1152 25.7422C16.1104 25.8926 16.0522 25.9653 15.9067 25.9799Z" fill="#CC448F"/>
<path d="M16.1006 24.6125C15.863 24.5592 15.6642 24.724 15.4314 24.7386C15.2326 24.7531 15.0338 24.8404 14.835 24.8986C14.9513 24.6561 14.9562 24.4185 14.8398 24.1761C15.2762 24.1858 15.6884 24.0742 16.0958 23.9336C16.1006 24.1615 16.1006 24.3846 16.1006 24.6125Z" fill="#C7207A"/>
<path d="M17.3223 19.826C17.4289 19.8502 17.5162 19.8842 17.589 19.9569C17.6714 20.0393 17.749 20.0927 17.5647 20.1654C17.361 20.2479 17.3174 20.4709 17.4192 20.6794C17.4386 20.7182 17.5114 20.7425 17.4629 20.7958C17.4241 20.8395 17.3756 20.8104 17.3271 20.8007C16.9828 20.7134 16.8131 20.2285 17.041 19.9714C17.1186 19.8793 17.2107 19.8211 17.3223 19.826Z" fill="#F8EEF3"/>
<path d="M41.9959 18.8755C41.8504 18.3857 41.5304 18.0123 41.1473 17.7019C40.1095 16.8533 38.9069 16.7127 37.6461 16.9745C36.6956 17.1685 35.9343 17.6874 35.4445 18.5409C35.0129 19.2925 34.8917 20.112 34.9984 20.9704C35.1439 22.139 35.687 23.0555 36.7538 23.5793C38.1165 24.2485 39.4888 24.2048 40.803 23.4338C41.3509 23.1137 41.7777 22.6434 41.991 22.0226C42.0686 21.7026 42.1947 21.3971 42.2286 21.0673C42.3159 20.3157 42.2529 19.5835 41.9959 18.8755ZM40.6963 21.0285C40.512 21.882 39.8573 22.4882 38.9893 22.6143C37.9564 22.7597 37.0496 22.2748 36.6859 21.305C36.4047 20.5533 36.4677 19.8017 36.9235 19.1082C36.9672 19.0403 37.0108 18.9724 37.0496 18.9046C37.2872 18.5409 37.6558 18.3663 38.0583 18.2693C38.8148 18.0802 39.5034 18.216 40.1095 18.7203C40.1774 18.7736 40.221 18.8367 40.2453 18.9094C40.7254 19.5447 40.866 20.2527 40.6963 21.0285Z" fill="#C91E79"/>
<path d="M40.246 18.9094C39.5283 18.2305 38.7088 18.0996 37.7874 18.4148C37.4964 18.5166 37.2927 18.7397 37.0503 18.9046C37.0309 18.7349 37.1618 18.6864 37.2539 18.5797C37.4819 18.3227 37.7874 18.3081 38.0638 18.2063C38.5148 18.0317 38.9561 18.0996 39.4119 18.2402C39.7126 18.3324 39.9211 18.5506 40.1781 18.7009C40.2751 18.7542 40.2363 18.8367 40.246 18.9094Z" fill="#AD3677"/>
<path d="M23.3891 25.5821C23.3891 25.0729 23.3891 25.0826 23.9177 24.9808C24.0486 24.9565 24.0729 24.9856 24.068 25.1068C24.0583 25.3105 24.0729 25.5093 24.0632 25.713C24.0535 25.8876 24.1359 25.9167 24.2668 25.8585C24.5093 25.7469 24.5432 25.8585 24.519 26.0622C24.5141 26.0961 24.5093 26.1252 24.519 26.1591C24.5578 26.4065 24.5044 26.581 24.2135 26.5907C24.0777 26.5956 24.0729 26.6877 24.0729 26.7944C24.0777 27.1726 24.0826 27.5557 24.0729 27.934C24.068 28.1037 24.1165 28.1619 24.2765 28.094C24.485 28.0019 24.5529 28.0795 24.5238 28.288C24.5141 28.351 24.5141 28.4189 24.5238 28.4819C24.5529 28.6856 24.4802 28.802 24.262 28.8117C24.1068 28.8165 24.0583 28.9087 24.0729 29.0542C24.0826 29.1512 24.0729 29.2481 24.0729 29.3451C24.0729 29.8543 24.0486 29.8785 23.5346 29.9464C23.4182 29.961 23.394 29.9222 23.394 29.8204C23.3988 29.6118 23.3891 29.3985 23.3988 29.1899C23.4037 29.0639 23.36 29.0299 23.2388 29.0639C23.006 29.1269 22.7733 29.1899 22.5356 29.2433C22.429 29.2675 22.4193 29.3354 22.4193 29.4227C22.4241 29.6264 22.4096 29.8252 22.4241 30.0289C22.4338 30.1792 22.3756 30.2374 22.235 30.2762C21.7452 30.412 21.7501 30.4168 21.7501 29.9173C21.7501 29.8834 21.7501 29.8543 21.7501 29.8204C21.7501 29.4615 21.7501 29.4518 21.4106 29.5294C21.2894 29.5536 21.2457 29.5294 21.2554 29.4082C21.2603 29.35 21.2651 29.2918 21.2554 29.2384C21.2021 28.9523 21.2942 28.7729 21.6094 28.7632C21.7404 28.7584 21.7549 28.6711 21.7501 28.5595C21.7452 28.1813 21.7404 27.7982 21.7501 27.42C21.7549 27.2599 21.721 27.2017 21.5464 27.2502C21.2554 27.3278 21.2554 27.3181 21.2506 27.0223C21.2506 26.9641 21.2554 26.9108 21.2506 26.8526C21.2263 26.678 21.2797 26.5762 21.4737 26.5665C21.687 26.5519 21.7937 26.4501 21.7501 26.2222C21.7404 26.1688 21.7501 26.1106 21.7501 26.0525C21.7501 25.5045 21.7501 25.5045 22.2786 25.3978C22.3853 25.3736 22.429 25.3929 22.4241 25.5093C22.4193 25.7275 22.429 25.9458 22.4193 26.164C22.4144 26.3046 22.4532 26.3289 22.589 26.2852C22.7733 26.227 22.9624 26.1737 23.1515 26.1494C23.36 26.1252 23.4231 26.0234 23.3988 25.8294C23.3794 25.7469 23.3891 25.6645 23.3891 25.5821Z" fill="#FCFCFC"/>
<path d="M21.4302 25.0922C21.6436 24.971 21.8618 24.874 22.114 24.908C21.9103 25.0486 21.6823 25.1213 21.4302 25.0922Z" fill="#7D1D5F"/>
<path d="M22.9819 24.7048C23.0838 24.5544 23.2389 24.6272 23.3698 24.6078C23.2777 24.7969 23.1129 24.6757 22.9819 24.7048Z" fill="#731B5B"/>
<path d="M22.2061 24.8982C22.3127 24.7769 22.4582 24.806 22.594 24.806C22.5067 24.9903 22.337 24.8691 22.2061 24.8982Z" fill="#7D1D5F"/>
<path d="M22.5986 24.8063C22.652 24.6366 22.7926 24.7336 22.8944 24.7142C22.8314 24.8693 22.6956 24.7821 22.5986 24.8063Z" fill="#74215F"/>
<path d="M24.5386 21.989C24.7228 21.766 24.975 21.7902 25.2223 21.8048C25.0041 21.9211 24.7859 21.9987 24.5386 21.989Z" fill="#91246B"/>
<path d="M22.5942 23.6377C22.3518 23.7686 22.0899 23.822 21.8184 23.8317C22.056 23.6862 22.3178 23.6425 22.5942 23.6377Z" fill="#6F1C5A"/>
<path d="M22.5986 22.4785C22.6908 22.2991 22.8556 22.4106 22.9866 22.3815C22.8944 22.5707 22.7247 22.4446 22.5986 22.4785Z" fill="#6B1E5A"/>
<path d="M21.0425 22.8616C21.1007 22.6919 21.2364 22.7937 21.3383 22.7743C21.2558 22.8616 21.154 22.8762 21.0425 22.8616Z" fill="#802257"/>
<path d="M71.014 31.7552C70.6794 31.212 70.3497 30.6689 70.0151 30.1258C69.8502 29.8542 69.8502 29.8542 70.146 29.7524C70.7134 29.5633 70.9995 29.156 70.9752 28.5692C70.951 27.9582 70.6843 27.6236 70.083 27.4684C69.4574 27.3084 68.8124 27.3957 68.1772 27.3666C68.022 27.3617 67.9735 27.4054 67.9784 27.5654C67.9881 28.2491 67.9832 28.9377 67.9832 29.6215C67.9832 30.3149 67.9929 31.0084 67.9784 31.7018C67.9735 31.9006 68.0365 31.9491 68.2208 31.9394C68.3954 31.9297 68.5457 31.9685 68.5263 31.6921C68.4972 31.2169 68.5215 30.7417 68.5215 30.2664C68.5215 29.8882 68.5215 29.9027 68.8997 29.8785C69.1373 29.8639 69.278 29.9367 69.3944 30.1501C69.6562 30.6301 69.9763 31.0811 70.2284 31.566C70.3836 31.8715 70.5825 31.9976 70.9122 31.9346C70.9704 31.9249 71.048 31.9734 71.0819 31.8958C71.1062 31.8425 71.0431 31.8037 71.014 31.7552ZM68.6573 29.379C68.5554 29.3839 68.5166 29.3402 68.5166 29.2335C68.5215 29.0347 68.5166 28.831 68.5166 28.6274C68.5166 28.4334 68.5215 28.2394 68.5166 28.0455C68.5166 27.9436 68.5312 27.8709 68.6573 27.8757C69.0355 27.8951 69.4138 27.8418 69.792 27.9194C70.1848 28.0018 70.3933 28.2443 70.3982 28.6177C70.403 28.9717 70.1945 29.219 69.8114 29.3063C69.4332 29.4033 69.0452 29.3693 68.6573 29.379Z" fill="#1E1D3F"/>
<path d="M22.4144 27.7838C22.4144 27.7207 22.4144 27.6528 22.4144 27.5898C22.4144 27.0176 22.4144 27.0176 22.972 26.8867C23.389 26.7897 23.389 26.7897 23.389 27.2116C23.389 27.5268 23.3842 27.842 23.389 28.1523C23.389 28.2687 23.3551 28.322 23.2339 28.3463C23.0156 28.3899 22.7974 28.453 22.5792 28.516C22.4531 28.55 22.4047 28.5209 22.4095 28.3851C22.4192 28.1911 22.4144 27.9874 22.4144 27.7838Z" fill="#201E3F"/>
</g>
<defs>
<clipPath id="clip0">
<rect width="74" height="16.8658" fill="white" transform="translate(10.9604 16.5671)"/>
</clipPath>
</defs>
</svg>
