<svg width="93" height="50" viewBox="0 0 93 50" fill="none" xmlns="http://www.w3.org/2000/svg">
<path d="M16.4465 21.3199C16.1784 21.1389 15.9115 21.1174 15.6615 21.0578C14.5746 20.798 13.4981 20.5071 12.4896 20.0255C11.6596 19.6296 10.9022 19.1407 10.3912 18.3625C10.2332 18.122 10.1155 17.8661 10.0365 17.5916C9.93874 17.2513 10.0306 17.0896 10.3941 17.0324C10.9244 16.949 11.4436 17.0579 11.954 17.1759C13.878 17.6217 15.7165 18.3205 17.5697 18.9762C18.1626 19.186 18.7626 19.3778 19.3532 19.5927C19.6383 19.6965 19.777 19.57 19.8701 19.3415C19.9503 19.1441 19.9415 18.9348 19.9473 18.7266C19.9508 18.6098 19.8619 18.5961 19.791 18.5519C19.228 18.2025 19.235 17.6568 19.825 17.3562C20.3243 17.1016 20.8441 17.1061 21.3287 17.3988C21.828 17.7005 21.8315 18.2195 21.3287 18.5128C21.1379 18.6239 21.1051 18.7465 21.1297 18.924C21.1642 19.1747 21.1619 19.4407 21.4136 19.6063C21.4996 19.6631 21.5827 19.6103 21.6653 19.5888C22.5023 19.3704 23.2972 19.0374 24.1114 18.7567C25.7585 18.1883 27.3875 17.5638 29.0972 17.1804C29.5994 17.0681 30.1052 16.9478 30.6279 17.0238C31.0563 17.0862 31.1553 17.2502 31.0265 17.6512C30.7514 18.5077 30.1461 19.1021 29.394 19.5774C28.3199 20.2558 27.1182 20.6267 25.8908 20.9342C25.5706 21.0147 25.2493 21.0896 24.9297 21.1701C24.8389 21.1928 24.7365 21.1996 24.6698 21.3159C25.014 21.4407 25.3704 21.4611 25.7193 21.5059C26.9256 21.6613 28.1349 21.7963 29.3062 22.1378C29.689 22.2495 30.066 22.3777 30.3832 22.625C30.8275 22.9722 30.8614 23.372 30.4938 23.8008C30.1204 24.2365 29.5983 24.3176 29.068 24.3318C28.0659 24.3584 27.0925 24.1542 26.1284 23.9171C25.5068 23.7645 24.8916 23.587 24.2747 23.4163C23.5167 23.207 22.9337 22.7396 22.4127 22.1945C22.1148 21.8831 21.8438 21.5479 21.564 21.2206C21.4838 21.127 21.427 21.0102 21.2643 21.0533C21.0764 21.1032 21.1473 21.2512 21.1473 21.359C21.1437 24.9489 21.1443 28.5393 21.1437 32.1292C21.1437 32.2426 21.1461 32.3566 21.1326 32.4683C21.0905 32.8172 20.8663 32.9862 20.4847 32.9675C20.1575 32.951 19.9491 32.752 19.945 32.419C19.9368 31.7202 19.9415 31.0208 19.9409 30.3215C19.9409 27.3453 19.9421 24.3692 19.9368 21.3936C19.9368 21.2796 20.0258 21.1179 19.8291 21.0561C19.6365 20.996 19.5733 21.1543 19.4878 21.2575C18.9587 21.9013 18.422 22.5343 17.7037 22.9982C17.0142 23.4435 16.21 23.5751 15.4385 23.7918C14.54 24.0442 13.6257 24.2274 12.6916 24.3142C12.2209 24.3578 11.7574 24.3431 11.2985 24.2331C11.0462 24.1724 10.822 24.0578 10.6534 23.8678C10.2238 23.3851 10.167 22.9109 10.8138 22.5286C11.4741 22.1384 12.2245 22.0028 12.9655 21.8531C14.0056 21.6438 15.0668 21.5632 16.114 21.3964C16.2094 21.3811 16.3025 21.3533 16.4465 21.3199Z" fill="black"/>
<path d="M35.9259 18.564C36.5025 17.9004 37.1739 17.4568 38.0015 17.2992C39.1968 17.0717 40.3686 17.0859 41.4128 17.821C41.8243 18.1108 42.0824 18.5221 42.3195 18.9594C42.978 17.9696 43.8859 17.3678 45.0782 17.2243C46.2963 17.0779 47.4599 17.1902 48.3906 18.0904C48.9367 18.6179 49.1796 19.2901 49.3148 20.0059C49.3991 20.4528 49.4225 20.906 49.4231 21.3598C49.426 23.5135 49.4208 25.6672 49.4301 27.8209C49.4313 28.0483 49.3651 28.1039 49.1392 28.0982C48.5351 28.0829 47.9299 28.0829 47.3258 28.0982C47.1058 28.1039 47.0507 28.0466 47.0513 27.8328C47.0601 25.7358 47.0584 23.6388 47.0554 21.5419C47.0548 21.193 47.0484 20.8453 46.9828 20.4988C46.7493 19.2611 45.9433 18.8244 44.751 18.9747C43.9485 19.0756 43.2847 19.4557 42.7901 20.0909C42.7304 20.1675 42.6836 20.2356 42.6894 20.3428C42.8129 22.6837 42.7199 25.0268 42.745 27.3688C42.7474 27.6019 42.8533 27.9065 42.6988 28.05C42.546 28.1912 42.234 28.0874 41.9923 28.0908C41.5439 28.0971 41.0944 28.0795 40.6466 28.0982C40.4224 28.1073 40.3744 28.0404 40.375 27.8311C40.3838 25.7341 40.3821 23.6371 40.3785 21.5402C40.378 21.2203 40.378 20.9004 40.3194 20.581C40.0958 19.3655 39.4221 18.8448 38.1596 18.9633C37.3811 19.0365 36.7337 19.3751 36.2239 19.9577C36.1085 20.0892 36.067 20.2225 36.0676 20.3933C36.0723 22.8589 36.067 25.324 36.0769 27.7897C36.0781 28.0375 36.0196 28.1084 35.7585 28.0999C35.1451 28.0789 34.5299 28.088 33.9159 28.0965C33.752 28.0988 33.7011 28.0562 33.7017 27.8923C33.7063 24.4539 33.7063 21.0155 33.7017 17.5771C33.7017 17.4086 33.762 17.3729 33.9212 17.3752C34.4766 17.3831 35.0327 17.3842 35.5888 17.3746C35.7562 17.3718 35.8001 17.429 35.8112 17.5833C35.8329 17.893 35.8814 18.2016 35.9259 18.564Z" fill="black"/>
<path d="M66.7453 18.5441C66.997 18.3268 67.1813 18.1073 67.4149 17.9366C68.6956 16.9996 70.7542 16.8929 72.097 17.733C72.8901 18.2293 73.2542 19.0041 73.4374 19.8731C73.5416 20.3665 73.5632 20.8657 73.5632 21.3665C73.5627 23.5202 73.5586 25.6739 73.5697 27.8276C73.5708 28.0607 73.4948 28.1027 73.2776 28.0976C72.6829 28.084 72.0876 28.0834 71.4935 28.0976C71.2734 28.1027 71.2032 28.0562 71.2043 27.8264C71.2149 25.7108 71.2102 23.5945 71.2108 21.4788C71.2108 20.9865 71.1762 20.4993 71.0001 20.0302C70.773 19.4261 70.3375 19.0534 69.6801 18.9757C68.5914 18.847 67.6941 19.214 66.9841 20.0222C66.8834 20.1368 66.8887 20.2616 66.8887 20.3938C66.8893 22.8685 66.8863 25.3438 66.8939 27.8185C66.8945 28.0329 66.8495 28.1055 66.6124 28.0987C65.9984 28.0806 65.3838 28.0845 64.7698 28.0976C64.5737 28.1015 64.5327 28.0426 64.5333 27.8622C64.5386 24.4425 64.5392 21.0234 64.5327 17.6037C64.5321 17.4114 64.5936 17.37 64.7786 17.3739C65.3048 17.3853 65.8322 17.3904 66.3578 17.3722C66.5861 17.3643 66.6358 17.4516 66.6469 17.6456C66.6633 17.9343 66.7084 18.2208 66.7453 18.5441Z" fill="black"/>
<path d="M79.1041 18.6186C79.7451 17.8506 80.4996 17.4014 81.4238 17.2295C81.761 17.1671 82.101 17.1745 82.4423 17.1898C82.6191 17.1978 82.6694 17.276 82.6676 17.4411C82.6595 18.0928 82.6577 18.7445 82.6682 19.3963C82.6717 19.5988 82.612 19.601 82.4353 19.5466C81.3331 19.208 80.3468 19.4252 79.4706 20.1495C79.3037 20.2879 79.2376 20.4422 79.2382 20.6628C79.247 23.0428 79.2405 25.4228 79.2493 27.8029C79.2499 28.0286 79.2101 28.1097 78.9549 28.1006C78.3415 28.0796 77.7269 28.0876 77.1123 28.0978C76.9378 28.1006 76.8828 28.0632 76.8828 27.8823C76.8887 24.4541 76.8887 21.0259 76.8834 17.5971C76.8834 17.4264 76.9232 17.3702 77.1087 17.3742C77.6543 17.3866 78.201 17.3849 78.7465 17.3747C78.9198 17.3713 78.9847 17.4184 78.9947 17.5925C79.014 17.9119 79.0614 18.2301 79.1041 18.6186Z" fill="black"/>
<path fill-rule="evenodd" clip-rule="evenodd" d="M53.8115 27.8287C52.3886 26.6892 52.6502 24.8259 54.3453 24.0267C53.8841 23.7613 53.4661 23.4595 53.1313 23.0608C51.8477 21.5327 51.9466 18.5089 54.7779 17.505C56.3922 16.9321 57.9931 17.0404 59.4945 17.9173C59.6115 17.986 59.6601 17.9894 59.7409 17.8708C60.0236 17.4556 60.455 17.2605 60.9449 17.2095C61.2095 17.1817 61.4768 17.1793 61.7442 17.1769C61.8868 17.1756 62.0295 17.1743 62.1718 17.1692C62.3076 17.1641 62.3609 17.2066 62.3585 17.3462C62.3509 17.7897 62.3474 18.2344 62.3597 18.678C62.3644 18.8549 62.2836 18.8765 62.1332 18.8748C61.724 18.8708 61.3149 18.8771 60.9151 18.9797C60.7395 19.0245 60.6733 19.071 60.7793 19.2798C61.7808 21.2571 60.9619 23.7063 58.4298 24.3506C57.735 24.527 57.0343 24.5985 56.3173 24.5299C55.7009 24.4709 55.2344 24.7891 55.1285 25.3262C55.0085 25.9354 55.307 26.4209 55.9169 26.59C56.2453 26.6813 56.5825 26.7164 56.926 26.7261C57.0995 26.7311 57.2732 26.7343 57.4469 26.7375L57.4471 26.7375C58.3248 26.7537 59.2032 26.77 60.0587 27.012C60.8823 27.2451 61.5589 27.658 61.8545 28.4827C62.3726 29.9274 62.0641 31.6585 59.9879 32.5008C58.8249 32.9727 57.6109 33.0425 56.3752 32.9813C55.4545 32.9353 54.5584 32.7822 53.7237 32.38C52.5126 31.7964 51.9437 30.717 52.1895 29.468C52.3341 28.7323 52.865 28.308 53.5007 27.9734C53.5694 27.9371 53.6416 27.9049 53.7148 27.8723C53.7469 27.858 53.7792 27.8436 53.8115 27.8287ZM56.7636 22.891C56.0764 22.8717 55.4793 22.7577 55.0316 22.2279C54.4796 21.5756 54.472 19.764 55.3898 19.1928C56.1683 18.7084 57.6099 18.7294 58.3088 19.3113C58.8081 19.7271 58.9158 20.3073 58.9088 20.9041C58.9006 21.5853 58.7519 22.2205 58.0729 22.5989C57.6556 22.8309 57.1955 22.8876 56.7636 22.891ZM57.4342 28.4624C57.2095 28.4524 56.9845 28.4424 56.7604 28.4188C56.6656 28.4188 56.5707 28.4189 56.4758 28.4189C56.1911 28.419 55.9061 28.4191 55.6207 28.4183C55.1027 28.4177 54.6479 28.7206 54.4963 29.1681C54.2505 29.8953 54.5461 30.6593 55.2684 30.9775C56.4496 31.4982 57.6723 31.4818 58.8699 31.0422C59.5319 30.7994 59.8468 30.2384 59.783 29.644C59.7245 29.0978 59.3833 28.7796 58.6475 28.5975C58.248 28.4984 57.8415 28.4804 57.4342 28.4624Z" fill="black"/>
</svg>
