<svg width="81" height="50" viewBox="0 0 81 50" fill="none" xmlns="http://www.w3.org/2000/svg">
<g clip-path="url(#clip0)">
<path d="M39.5508 30.5H39.9907L41.0082 33.2223L42.0256 30.5H42.4655L41.2281 33.6072H40.8157L39.5508 30.5Z" fill="#0E3460"/>
<path d="M45.6275 33.6621C45.1875 33.6621 44.83 33.5246 44.555 33.2221C44.2801 32.9196 44.1426 32.5347 44.1426 32.0397C44.1426 31.5447 44.2801 31.1598 44.555 30.8848C44.83 30.5823 45.215 30.4448 45.6549 30.4448C46.0949 30.4448 46.4524 30.5823 46.7274 30.8573C47.0023 31.1323 47.1123 31.4897 47.1123 31.8747C47.1123 31.9847 47.1123 32.0947 47.0848 32.1772H44.5275C44.555 32.5347 44.6375 32.8096 44.8575 33.0296C45.05 33.2221 45.325 33.3321 45.6275 33.3321C45.8749 33.3321 46.0674 33.2771 46.2324 33.1671C46.3974 33.0571 46.5074 32.9196 46.5899 32.7271H47.0298C46.9198 33.0021 46.7549 33.2221 46.5349 33.3871C46.2874 33.5796 45.9849 33.6621 45.6275 33.6621ZM46.6999 31.8747C46.6999 31.5447 46.5899 31.2698 46.3974 31.0498C46.1774 30.8573 45.9299 30.7473 45.6275 30.7473C45.325 30.7473 45.0775 30.8573 44.8575 31.0498C44.665 31.2423 44.555 31.5172 44.5275 31.8747H46.6999Z" fill="#0E3460"/>
<path d="M49.1752 30.4998V30.9948C49.3951 30.6098 49.7251 30.4448 50.1926 30.4448C50.55 30.4448 50.825 30.5548 51.045 30.7748C51.265 30.9948 51.4025 31.3248 51.4025 31.7372V33.5796H51.0175V31.7922C51.0175 31.4622 50.935 31.1873 50.77 31.0223C50.605 30.8573 50.3851 30.7473 50.0826 30.7473C49.8076 30.7473 49.5601 30.8298 49.3951 31.0223C49.2302 31.1873 49.1477 31.4622 49.1477 31.7922V33.5796H48.7627V30.4998H49.1752Z" fill="#0E3460"/>
<path d="M54.7848 30.8023H53.9324V32.8646C53.9324 33.0296 53.9599 33.1396 54.0148 33.1946C54.0698 33.2496 54.1798 33.2771 54.3448 33.2771H54.7848V33.5796H54.2623C53.7674 33.5796 53.5474 33.3321 53.5474 32.8371V30.7748H53.1074V30.4723H53.5474V29.7024H53.9324V30.4723H54.7848V30.8023Z" fill="#0E3460"/>
<path d="M58.6892 30.5H59.0742V33.6072H58.6892V33.1123C58.4693 33.4973 58.1393 33.6622 57.6718 33.6622C57.3143 33.6622 57.0394 33.5522 56.8194 33.3323C56.5994 33.1123 56.4619 32.7823 56.4619 32.3698V30.5275H56.8469V32.3149C56.8469 32.6448 56.9294 32.9198 57.0944 33.0848C57.2593 33.2498 57.4793 33.3598 57.7818 33.3598C58.0568 33.3598 58.3043 33.2773 58.4693 33.0848C58.6342 32.9198 58.7167 32.6448 58.7167 32.3149V30.5H58.6892Z" fill="#0E3460"/>
<path d="M61.1364 30.4998V31.0223C61.3014 30.6373 61.6314 30.4448 62.0989 30.4448V30.8573H61.9889C61.7139 30.8573 61.4939 30.9398 61.3564 31.0773C61.2189 31.2148 61.1364 31.4897 61.1364 31.8472V33.6071H60.7515V30.4998H61.1364Z" fill="#0E3460"/>
<path d="M65.2612 33.6621C64.8213 33.6621 64.4638 33.5246 64.1888 33.2221C63.9139 32.9196 63.7764 32.5347 63.7764 32.0397C63.7764 31.5447 63.9139 31.1598 64.1888 30.8848C64.4638 30.5823 64.8488 30.4448 65.2887 30.4448C65.7287 30.4448 66.0862 30.5823 66.3612 30.8573C66.6361 31.1323 66.7461 31.4897 66.7461 31.8747C66.7461 31.9847 66.7461 32.0947 66.7186 32.1772H64.1613C64.1888 32.5347 64.2713 32.8096 64.4913 33.0296C64.6838 33.2221 64.9588 33.3321 65.2612 33.3321C65.5087 33.3321 65.7012 33.2771 65.8662 33.1671C66.0312 33.0571 66.1412 32.9196 66.2237 32.7271H66.6636C66.5536 33.0021 66.3886 33.2221 66.1687 33.3871C65.9212 33.5796 65.6187 33.6621 65.2612 33.6621ZM66.3612 31.8747C66.3612 31.5447 66.2512 31.2698 66.0587 31.0498C65.8387 30.8573 65.5912 30.7473 65.2887 30.7473C64.9863 30.7473 64.7388 30.8573 64.5188 31.0498C64.3263 31.2423 64.2163 31.5172 64.1888 31.8747H66.3612Z" fill="#0E3460"/>
<path d="M68.4233 31.3522C68.4233 31.1047 68.5333 30.8847 68.7533 30.6922C68.9733 30.5272 69.2483 30.4172 69.5782 30.4172C69.9082 30.4172 70.1557 30.4997 70.3482 30.6647C70.5407 30.8297 70.6232 31.0772 70.6507 31.3797H70.2382C70.2382 31.1872 70.1557 31.0222 70.0457 30.9122C69.9357 30.8022 69.7432 30.7197 69.5507 30.7197C69.3308 30.7197 69.1658 30.7747 69.0283 30.8847C68.9183 30.9947 68.8358 31.1322 68.8358 31.2697C68.8358 31.4072 68.8908 31.5446 68.9733 31.6271C69.0558 31.7096 69.1658 31.7646 69.3308 31.7921C69.4683 31.8196 69.6057 31.8471 69.7707 31.9021C69.9357 31.9571 70.0732 31.9846 70.2107 32.0396C70.3482 32.0946 70.4582 32.1771 70.5682 32.2871C70.6507 32.3971 70.7057 32.5621 70.7057 32.7545C70.7057 33.002 70.5957 33.222 70.4032 33.3595C70.1832 33.5245 69.9082 33.607 69.5782 33.607C69.2483 33.607 68.9733 33.5245 68.7808 33.332C68.5883 33.167 68.4783 32.9195 68.4508 32.6171H68.8633C68.8633 32.8095 68.9458 32.9745 69.0558 33.0845C69.1933 33.1945 69.3583 33.277 69.5782 33.277C69.7982 33.277 69.9907 33.222 70.1007 33.1395C70.2382 33.0295 70.2932 32.9195 70.2932 32.7545C70.2932 32.5896 70.2382 32.4796 70.1557 32.3971C70.0732 32.3146 69.9632 32.2596 69.7982 32.2046C69.6607 32.1771 69.5233 32.1221 69.3583 32.0946C69.1933 32.0396 69.0558 32.0121 68.9183 31.9571C68.7808 31.9021 68.6708 31.8196 68.5608 31.7096C68.4783 31.6821 68.4233 31.5171 68.4233 31.3522Z" fill="#0E3460"/>
<path d="M45.9303 17.9058H48.3226V27.7224H45.9303L41.9431 21.5355V27.7224H39.5508V17.9058H41.9431L45.9303 24.0927V17.9058Z" fill="#0E3460"/>
<path d="M51.43 26.4026C50.4676 25.4677 49.9727 24.2578 49.9727 22.8004C49.9727 21.343 50.4676 20.1606 51.43 19.1982C52.3925 18.2633 53.6024 17.7683 55.0047 17.7683C56.1046 17.7683 57.0671 18.0433 57.9195 18.6207C58.7719 19.1982 59.3494 19.9956 59.6793 21.013H56.8196C56.4346 20.2981 55.8572 19.9406 55.0322 19.9406C54.2073 19.9406 53.5749 20.1881 53.1074 20.7106C52.6399 21.233 52.3925 21.893 52.3925 22.7729C52.3925 23.6253 52.6399 24.3128 53.1074 24.8352C53.5749 25.3577 54.2073 25.6052 55.0047 25.6052C55.5822 25.6052 56.0222 25.4677 56.4071 25.1927C56.7646 24.9177 57.0121 24.5327 57.1221 24.0653H54.3448V22.2504H59.6518V24.0653C59.4869 24.9452 58.9919 25.7976 58.1945 26.5676C57.8095 26.9525 57.342 27.255 56.7646 27.475C56.2146 27.695 55.6097 27.8325 54.9772 27.8325C53.5749 27.8325 52.3925 27.365 51.43 26.4026Z" fill="#0E3460"/>
<path d="M62.7586 26.4026C61.7962 25.4677 61.3013 24.2578 61.3013 22.8004C61.3013 21.343 61.7962 20.1606 62.7586 19.1982C63.7211 18.2633 64.931 17.7683 66.3333 17.7683C67.4332 17.7683 68.3957 18.0433 69.2481 18.6207C70.1005 19.1982 70.678 19.9956 71.0079 21.013H68.1482C67.7632 20.2981 67.1858 19.9406 66.3608 19.9406C65.5359 19.9406 64.9035 20.1881 64.436 20.7106C63.9685 21.233 63.7211 21.893 63.7211 22.7729C63.7211 23.6253 63.9685 24.3128 64.436 24.8352C64.9035 25.3577 65.5634 25.6052 66.3608 25.6052C67.1858 25.6052 67.7632 25.2477 68.1482 24.5327H71.0079C70.678 25.5502 70.073 26.3476 69.2481 26.925C68.3957 27.5025 67.4332 27.7775 66.3333 27.7775C64.9035 27.8325 63.7211 27.365 62.7586 26.4026Z" fill="#0E3460"/>
<path d="M13.9227 17.2732L10.9805 15.5684V31.0496L13.9227 32.7269L16.8375 34.4318V18.9506L13.9227 17.2732Z" fill="#0E3460"/>
<path d="M22.722 17.2732L19.7798 15.5684V31.0496L22.722 32.7269L25.6368 34.4318V18.9506L22.722 17.2732Z" fill="#0E3460"/>
<path d="M31.5214 17.2732L28.5791 15.5684V31.0496L31.5214 32.7269L34.4361 34.4318V18.9506L31.5214 17.2732Z" fill="#0E3460"/>
</g>
<defs>
<clipPath id="clip0">
<rect width="60" height="18.8634" fill="white" transform="translate(10.9805 15.5684)"/>
</clipPath>
</defs>
</svg>
