<svg width="55" height="50" viewBox="0 0 55 50" fill="none" xmlns="http://www.w3.org/2000/svg">
<g clip-path="url(#clip0)">
<path d="M27.3083 10.256C31.1807 10.256 35.0523 10.261 38.9247 10.2478C39.2943 10.2462 39.4003 10.3365 39.4003 10.7168C39.3888 18.4486 39.3879 26.1796 39.4011 33.9113C39.4019 34.3163 39.2877 34.4009 38.8993 34.4001C31.1824 34.3886 23.4655 34.3878 15.7486 34.4001C15.356 34.4009 15.2484 34.3081 15.2492 33.9064C15.2615 26.1886 15.2632 18.4708 15.2476 10.753C15.2459 10.3185 15.3782 10.2462 15.774 10.2478C19.6185 10.2618 23.463 10.256 27.3083 10.256ZM28.399 22.3404C28.399 22.1219 28.399 21.9026 28.399 21.6841C28.399 19.454 28.3932 17.2247 28.4056 14.9947C28.4072 14.6924 28.3349 14.5848 28.0204 14.6053C27.5982 14.6332 27.1712 14.6382 26.749 14.6045C26.354 14.5733 26.2217 14.6686 26.2258 15.1039C26.2497 17.8531 26.2382 20.6031 26.2382 23.3523C26.2382 25.4452 26.2431 27.5382 26.2324 29.6311C26.2308 29.9103 26.2948 30.0204 26.5921 30.0032C27.0151 29.9785 27.4397 29.9999 27.8635 29.9966C28.4639 29.9917 28.3973 30.0631 28.3973 29.4808C28.3998 27.1004 28.399 24.72 28.399 22.3404ZM33.2175 19.9041C33.2175 18.2622 33.211 16.6194 33.2233 14.9774C33.2257 14.6949 33.1535 14.5922 32.8594 14.6053C32.3675 14.6283 31.8739 14.6275 31.3819 14.6053C31.1076 14.593 31.0329 14.6875 31.0337 14.9519C31.0403 18.2367 31.0411 21.5215 31.0329 24.8054C31.0321 25.0814 31.1011 25.1997 31.3984 25.1865C31.8764 25.1652 32.3568 25.1643 32.8348 25.1873C33.1453 25.2021 33.2266 25.0937 33.2241 24.789C33.2093 23.1618 33.2175 21.533 33.2175 19.9041ZM21.4599 19.8713C21.4599 21.5132 21.4681 23.1544 21.4525 24.7963C21.45 25.106 21.5403 25.2029 21.8459 25.1882C22.3239 25.1652 22.8035 25.1725 23.2815 25.1857C23.5271 25.1923 23.6133 25.1118 23.6125 24.858C23.6051 21.5469 23.6051 18.2367 23.6133 14.9257C23.6141 14.6661 23.523 14.5996 23.2807 14.6078C22.8158 14.6234 22.3493 14.6341 21.8861 14.6053C21.5494 14.584 21.4467 14.6801 21.4508 15.0292C21.4705 16.6424 21.459 18.2564 21.4599 19.8713Z" fill="#151628"/>
<path d="M38.7014 39.6891C38.3654 39.7893 38.1642 39.7129 38.0254 39.455C37.9482 39.3121 37.8259 39.193 37.7478 39.0501C37.614 38.8036 37.4218 38.7018 37.1458 38.7445C37.0793 38.7543 37.0095 38.7461 36.9413 38.7461C36.2728 38.7461 36.2744 38.7461 36.2572 39.3959C36.2531 39.5462 36.3196 39.74 36.0412 39.7326C35.7718 39.7261 35.826 39.5355 35.8244 39.3835C35.8194 38.7552 35.8317 38.126 35.8186 37.4976C35.8129 37.2438 35.9073 37.165 36.1529 37.1707C36.7261 37.1838 37.301 37.1756 37.8743 37.1748C38.28 37.174 38.5543 37.3596 38.6619 37.7547C38.7646 38.1317 38.6315 38.4463 38.2997 38.6237C38.0829 38.7404 38.1026 38.8242 38.2201 38.9843C38.3794 39.202 38.5256 39.4295 38.7014 39.6891ZM37.1713 38.3601C37.3758 38.3601 37.5795 38.3584 37.784 38.3609C38.0649 38.3642 38.2907 38.2566 38.2948 37.9584C38.2981 37.6619 38.078 37.5428 37.7955 37.542C37.4004 37.5412 37.0046 37.5592 36.6112 37.5354C36.3138 37.5173 36.2654 37.6364 36.2465 37.9075C36.2194 38.2952 36.3598 38.4143 36.722 38.3642C36.869 38.3437 37.021 38.3601 37.1713 38.3601Z" fill="#151628"/>
<path d="M23.0097 39.2268C23.0097 38.5911 23.0056 38.0637 23.0121 37.5364C23.0138 37.3885 22.9464 37.1832 23.2166 37.1807C23.4852 37.1791 23.4269 37.3795 23.4277 37.5315C23.4318 38.1327 23.4343 38.734 23.4253 39.3352C23.4228 39.4691 23.5123 39.6695 23.3029 39.718C23.1049 39.7632 22.9078 39.7517 22.7436 39.5685C22.2508 39.0206 21.7432 38.4851 21.2406 37.9463C21.1782 37.8797 21.1092 37.8198 20.9655 37.6818C20.9655 38.2978 20.9712 38.8219 20.9622 39.3451C20.9597 39.4995 21.0542 39.7361 20.7487 39.7279C20.4448 39.7196 20.5524 39.4798 20.5491 39.3303C20.5368 38.743 20.5392 38.1557 20.5483 37.5676C20.5507 37.4345 20.4669 37.2349 20.6805 37.1906C20.8792 37.1495 21.0706 37.1544 21.2373 37.3409C21.7457 37.9118 22.2738 38.4646 22.7945 39.0239C22.8315 39.0642 22.8725 39.0979 23.0097 39.2268Z" fill="#151628"/>
<path d="M32.1824 39.7308C31.8408 39.7308 31.4991 39.7242 31.1583 39.7333C30.962 39.7382 30.8552 39.693 30.8585 39.4638C30.8692 38.7944 30.8683 38.125 30.8585 37.4555C30.8552 37.237 30.9464 37.1705 31.15 37.1721C31.8465 37.1779 32.543 37.173 33.2402 37.1754C33.3708 37.1763 33.531 37.1508 33.5269 37.366C33.5228 37.5894 33.3519 37.536 33.2296 37.5368C32.6834 37.5426 32.1364 37.5525 31.5903 37.5344C31.3159 37.5253 31.2749 37.6551 31.279 37.881C31.2831 38.0913 31.2864 38.2605 31.5755 38.2441C31.8884 38.2268 32.2038 38.24 32.5175 38.2424C32.6588 38.2432 32.7992 38.2432 32.7893 38.4511C32.7811 38.6342 32.6514 38.6277 32.529 38.6293C32.2144 38.6326 31.8999 38.6457 31.587 38.6277C31.3102 38.6121 31.2757 38.7566 31.2798 38.98C31.2831 39.1928 31.2938 39.3472 31.5804 39.3382C32.1266 39.3201 32.6727 39.3308 33.2197 39.3349C33.3585 39.3357 33.5392 39.284 33.5318 39.5337C33.5244 39.7751 33.3486 39.7267 33.2074 39.7283C32.8657 39.7341 32.5241 39.7308 32.1824 39.7308Z" fill="#151628"/>
<path d="M10.4125 38.4372C10.4125 38.1235 10.4265 37.808 10.4076 37.4951C10.3928 37.2364 10.502 37.1657 10.7427 37.1706C11.3291 37.1821 11.9171 37.1649 12.5035 37.1789C12.9889 37.1904 13.2714 37.4869 13.2731 37.9485C13.2747 38.4044 12.9848 38.7223 12.5167 38.7412C12.0806 38.7584 11.6428 38.7592 11.2067 38.7412C10.9406 38.7297 10.8305 38.8159 10.8626 39.0861C10.8782 39.2208 10.8593 39.3588 10.8659 39.4952C10.8749 39.6726 10.796 39.7367 10.6219 39.7334C10.4585 39.7301 10.41 39.6513 10.4117 39.5034C10.4158 39.1477 10.4133 38.7929 10.4125 38.4372ZM11.7676 38.36C11.9721 38.36 12.1758 38.3592 12.3803 38.36C12.6612 38.3617 12.8813 38.2598 12.8813 37.9526C12.8813 37.6446 12.6555 37.5436 12.3795 37.5419C11.9845 37.5395 11.5894 37.5575 11.1952 37.5353C10.9094 37.5189 10.8708 37.6454 10.8552 37.8935C10.833 38.2541 10.9291 38.4274 11.3184 38.3641C11.4646 38.3403 11.6173 38.36 11.7676 38.36Z" fill="#151628"/>
<path d="M16.6054 37.183C16.8263 37.1468 16.9487 37.2232 17.0448 37.4121C17.3848 38.0799 17.747 38.7354 18.0903 39.4015C18.1363 39.4911 18.2907 39.6192 18.1223 39.7088C18.0147 39.7654 17.8078 39.7909 17.7601 39.6373C17.5655 39.0138 17.0653 39.165 16.6251 39.1576C16.4617 39.1543 16.2958 39.1716 16.1348 39.1535C15.8843 39.1256 15.7176 39.2077 15.628 39.4508C15.596 39.5379 15.5459 39.6324 15.4753 39.6874C15.3743 39.7671 15.2297 39.7646 15.1271 39.7022C15.008 39.6299 15.118 39.5346 15.1574 39.459C15.5163 38.7707 15.8802 38.0849 16.2383 37.3957C16.3229 37.2331 16.428 37.1279 16.6054 37.183ZM16.6834 37.6331C16.515 37.684 16.4879 37.8327 16.4337 37.9501C16.3171 38.2048 15.982 38.5029 16.1225 38.6927C16.2678 38.889 16.6818 38.737 16.9774 38.7584C17.1902 38.774 17.2567 38.7025 17.1442 38.5005C16.9856 38.2146 16.837 37.923 16.6834 37.6331Z" fill="#151628"/>
<path d="M44.0542 39.5617C44.0821 39.6619 44.0624 39.7186 43.9992 39.7219C43.8686 39.7285 43.7306 39.7736 43.6206 39.6406C43.49 39.482 43.5187 39.1724 43.2354 39.1642C42.7303 39.1502 42.2244 39.1543 41.7201 39.1789C41.5731 39.1863 41.5402 39.3736 41.4926 39.4952C41.4047 39.7202 41.2166 39.8024 41.0392 39.7112C40.8339 39.6061 41.0425 39.4582 41.0975 39.349C41.4195 38.7165 41.762 38.0947 42.0823 37.4614C42.1784 37.2708 42.2835 37.1682 42.5135 37.1665C42.7459 37.1649 42.8494 37.2717 42.9455 37.4598C43.2814 38.1161 43.6321 38.7641 43.977 39.4155C44.009 39.4763 44.0403 39.5362 44.0542 39.5617ZM42.52 37.5501C42.3221 37.9222 42.171 38.2204 42.0067 38.5103C41.8901 38.7157 41.964 38.7682 42.1702 38.76C42.4001 38.7518 42.6309 38.7535 42.8609 38.7592C43.0728 38.7641 43.1344 38.7001 43.0202 38.4988C42.8609 38.2171 42.7171 37.9263 42.52 37.5501Z" fill="#151628"/>
<path d="M27.1693 37.1762C27.5512 37.1762 27.9331 37.1754 28.3158 37.1771C28.4423 37.1779 28.5663 37.182 28.5647 37.3643C28.563 37.5541 28.43 37.5344 28.3084 37.5401C28.2945 37.5409 28.2813 37.5401 28.2674 37.5409C27.3722 37.5812 27.3722 37.5812 27.3722 38.4781C27.3722 38.819 27.3697 39.1607 27.3722 39.5016C27.3738 39.6478 27.3278 39.7299 27.1635 39.7332C26.9911 39.7365 26.9163 39.6749 26.918 39.4967C26.9237 38.9644 26.9048 38.4313 26.9254 37.8999C26.9369 37.6075 26.8326 37.5105 26.5509 37.5376C26.348 37.5574 26.1419 37.5393 25.9374 37.5401C25.815 37.5401 25.7246 37.5138 25.7271 37.3602C25.7296 37.2099 25.8199 37.1787 25.9406 37.1787C26.3496 37.1779 26.7595 37.1787 27.1685 37.1787C27.1693 37.1771 27.1693 37.1762 27.1693 37.1762Z" fill="#151628"/>
</g>
<defs>
<clipPath id="clip0">
<rect width="33.66" height="29.5044" fill="white" transform="translate(10.4072 10.2478)"/>
</clipPath>
</defs>
</svg>
