<svg width="82" height="50" viewBox="0 0 82 50" fill="none" xmlns="http://www.w3.org/2000/svg">
<path d="M11.2479 29V20.6H14.6439C15.1719 20.6 15.6359 20.704 16.0359 20.912C16.4359 21.12 16.7519 21.416 16.9839 21.8C17.2159 22.176 17.3319 22.624 17.3319 23.144V23.312C17.3319 23.824 17.2119 24.272 16.9719 24.656C16.7399 25.04 16.4199 25.336 16.0119 25.544C15.6119 25.752 15.1559 25.856 14.6439 25.856H12.6999V29H11.2479ZM12.6999 24.548H14.4999C14.9159 24.548 15.2479 24.436 15.4959 24.212C15.7519 23.988 15.8799 23.68 15.8799 23.288V23.168C15.8799 22.776 15.7559 22.468 15.5079 22.244C15.2599 22.02 14.9239 21.908 14.4999 21.908H12.6999V24.548ZM21.086 29.168C20.494 29.168 19.97 29.044 19.514 28.796C19.066 28.54 18.714 28.184 18.458 27.728C18.21 27.264 18.086 26.724 18.086 26.108V25.964C18.086 25.34 18.21 24.8 18.458 24.344C18.706 23.888 19.054 23.536 19.502 23.288C19.95 23.032 20.466 22.904 21.05 22.904C21.626 22.904 22.13 23.032 22.562 23.288C22.994 23.536 23.33 23.888 23.57 24.344C23.81 24.8 23.93 25.332 23.93 25.94V26.432H19.478C19.494 26.896 19.658 27.268 19.97 27.548C20.282 27.828 20.666 27.968 21.122 27.968C21.57 27.968 21.902 27.872 22.118 27.68C22.334 27.48 22.498 27.256 22.61 27.008L23.75 27.596C23.638 27.812 23.474 28.044 23.258 28.292C23.05 28.532 22.77 28.74 22.418 28.916C22.066 29.084 21.622 29.168 21.086 29.168ZM19.49 25.388H22.526C22.494 24.996 22.342 24.684 22.07 24.452C21.806 24.22 21.462 24.104 21.038 24.104C20.598 24.104 20.246 24.22 19.982 24.452C19.718 24.684 19.554 24.996 19.49 25.388ZM27.4035 29C27.0195 29 26.7115 28.888 26.4795 28.664C26.2555 28.432 26.1435 28.12 26.1435 27.728V24.212H24.5955V23.072H26.1435V21.164H27.5235V23.072H29.2275V24.212H27.5235V27.5C27.5235 27.74 27.6355 27.86 27.8595 27.86H29.0475V29H27.4035ZM33.1329 29.168C32.5409 29.168 32.0169 29.044 31.5609 28.796C31.1129 28.54 30.7609 28.184 30.5049 27.728C30.2569 27.264 30.1329 26.724 30.1329 26.108V25.964C30.1329 25.34 30.2569 24.8 30.5049 24.344C30.7529 23.888 31.1009 23.536 31.5489 23.288C31.9969 23.032 32.5129 22.904 33.0969 22.904C33.6729 22.904 34.1769 23.032 34.6089 23.288C35.0409 23.536 35.3769 23.888 35.6169 24.344C35.8569 24.8 35.9769 25.332 35.9769 25.94V26.432H31.5249C31.5409 26.896 31.7049 27.268 32.0169 27.548C32.3289 27.828 32.7129 27.968 33.1689 27.968C33.6169 27.968 33.9489 27.872 34.1649 27.68C34.3809 27.48 34.5449 27.256 34.6569 27.008L35.7969 27.596C35.6849 27.812 35.5209 28.044 35.3049 28.292C35.0969 28.532 34.8169 28.74 34.4649 28.916C34.1129 29.084 33.6689 29.168 33.1329 29.168ZM31.5369 25.388H34.5729C34.5409 24.996 34.3889 24.684 34.1169 24.452C33.8529 24.22 33.5089 24.104 33.0849 24.104C32.6449 24.104 32.2929 24.22 32.0289 24.452C31.7649 24.684 31.6009 24.996 31.5369 25.388ZM37.3936 29V23.072H38.7496V23.756H38.9536C39.0416 23.508 39.1896 23.328 39.3976 23.216C39.6056 23.104 39.8536 23.048 40.1416 23.048H40.8616V24.272H40.1176C39.7176 24.272 39.3936 24.38 39.1456 24.596C38.8976 24.804 38.7736 25.128 38.7736 25.568V29H37.3936ZM46.7201 29V21.908H44.2121V20.6H50.6681V21.908H48.1601V29H46.7201ZM51.8428 29V20.6H53.2228V23.852H53.4268C53.4908 23.716 53.5948 23.58 53.7388 23.444C53.8828 23.308 54.0708 23.196 54.3028 23.108C54.5428 23.02 54.8428 22.976 55.2028 22.976C55.6588 22.976 56.0628 23.08 56.4148 23.288C56.7668 23.488 57.0388 23.772 57.2308 24.14C57.4308 24.508 57.5308 24.944 57.5308 25.448V29H56.1508V25.556C56.1508 25.076 56.0308 24.72 55.7908 24.488C55.5588 24.248 55.2268 24.128 54.7948 24.128C54.3068 24.128 53.9228 24.292 53.6428 24.62C53.3628 24.94 53.2228 25.4 53.2228 26V29H51.8428ZM59.2256 29V23.072H60.6056V29H59.2256ZM59.9096 22.316C59.6616 22.316 59.4456 22.236 59.2616 22.076C59.0856 21.908 58.9976 21.688 58.9976 21.416C58.9976 21.144 59.0856 20.928 59.2616 20.768C59.4456 20.6 59.6616 20.516 59.9096 20.516C60.1736 20.516 60.3896 20.6 60.5576 20.768C60.7336 20.928 60.8216 21.144 60.8216 21.416C60.8216 21.688 60.7336 21.908 60.5576 22.076C60.3896 22.236 60.1736 22.316 59.9096 22.316ZM65.0665 29.168C64.4745 29.168 63.9505 29.044 63.4945 28.796C63.0465 28.54 62.6945 28.184 62.4385 27.728C62.1905 27.264 62.0665 26.724 62.0665 26.108V25.964C62.0665 25.34 62.1905 24.8 62.4385 24.344C62.6865 23.888 63.0345 23.536 63.4825 23.288C63.9305 23.032 64.4465 22.904 65.0305 22.904C65.6065 22.904 66.1105 23.032 66.5425 23.288C66.9745 23.536 67.3105 23.888 67.5505 24.344C67.7905 24.8 67.9105 25.332 67.9105 25.94V26.432H63.4585C63.4745 26.896 63.6385 27.268 63.9505 27.548C64.2625 27.828 64.6465 27.968 65.1025 27.968C65.5505 27.968 65.8825 27.872 66.0985 27.68C66.3145 27.48 66.4785 27.256 66.5905 27.008L67.7305 27.596C67.6185 27.812 67.4545 28.044 67.2385 28.292C67.0305 28.532 66.7505 28.74 66.3985 28.916C66.0465 29.084 65.6025 29.168 65.0665 29.168ZM63.4705 25.388H66.5065C66.4745 24.996 66.3225 24.684 66.0505 24.452C65.7865 24.22 65.4425 24.104 65.0185 24.104C64.5785 24.104 64.2265 24.22 63.9625 24.452C63.6985 24.684 63.5345 24.996 63.4705 25.388ZM69.3272 29V20.6H70.7072V29H69.3272Z" fill="#C5C5C5"/>
<path d="M11.2479 29V20.6H14.6439C15.1719 20.6 15.6359 20.704 16.0359 20.912C16.4359 21.12 16.7519 21.416 16.9839 21.8C17.2159 22.176 17.3319 22.624 17.3319 23.144V23.312C17.3319 23.824 17.2119 24.272 16.9719 24.656C16.7399 25.04 16.4199 25.336 16.0119 25.544C15.6119 25.752 15.1559 25.856 14.6439 25.856H12.6999V29H11.2479ZM12.6999 24.548H14.4999C14.9159 24.548 15.2479 24.436 15.4959 24.212C15.7519 23.988 15.8799 23.68 15.8799 23.288V23.168C15.8799 22.776 15.7559 22.468 15.5079 22.244C15.2599 22.02 14.9239 21.908 14.4999 21.908H12.6999V24.548ZM21.086 29.168C20.494 29.168 19.97 29.044 19.514 28.796C19.066 28.54 18.714 28.184 18.458 27.728C18.21 27.264 18.086 26.724 18.086 26.108V25.964C18.086 25.34 18.21 24.8 18.458 24.344C18.706 23.888 19.054 23.536 19.502 23.288C19.95 23.032 20.466 22.904 21.05 22.904C21.626 22.904 22.13 23.032 22.562 23.288C22.994 23.536 23.33 23.888 23.57 24.344C23.81 24.8 23.93 25.332 23.93 25.94V26.432H19.478C19.494 26.896 19.658 27.268 19.97 27.548C20.282 27.828 20.666 27.968 21.122 27.968C21.57 27.968 21.902 27.872 22.118 27.68C22.334 27.48 22.498 27.256 22.61 27.008L23.75 27.596C23.638 27.812 23.474 28.044 23.258 28.292C23.05 28.532 22.77 28.74 22.418 28.916C22.066 29.084 21.622 29.168 21.086 29.168ZM19.49 25.388H22.526C22.494 24.996 22.342 24.684 22.07 24.452C21.806 24.22 21.462 24.104 21.038 24.104C20.598 24.104 20.246 24.22 19.982 24.452C19.718 24.684 19.554 24.996 19.49 25.388ZM27.4035 29C27.0195 29 26.7115 28.888 26.4795 28.664C26.2555 28.432 26.1435 28.12 26.1435 27.728V24.212H24.5955V23.072H26.1435V21.164H27.5235V23.072H29.2275V24.212H27.5235V27.5C27.5235 27.74 27.6355 27.86 27.8595 27.86H29.0475V29H27.4035ZM33.1329 29.168C32.5409 29.168 32.0169 29.044 31.5609 28.796C31.1129 28.54 30.7609 28.184 30.5049 27.728C30.2569 27.264 30.1329 26.724 30.1329 26.108V25.964C30.1329 25.34 30.2569 24.8 30.5049 24.344C30.7529 23.888 31.1009 23.536 31.5489 23.288C31.9969 23.032 32.5129 22.904 33.0969 22.904C33.6729 22.904 34.1769 23.032 34.6089 23.288C35.0409 23.536 35.3769 23.888 35.6169 24.344C35.8569 24.8 35.9769 25.332 35.9769 25.94V26.432H31.5249C31.5409 26.896 31.7049 27.268 32.0169 27.548C32.3289 27.828 32.7129 27.968 33.1689 27.968C33.6169 27.968 33.9489 27.872 34.1649 27.68C34.3809 27.48 34.5449 27.256 34.6569 27.008L35.7969 27.596C35.6849 27.812 35.5209 28.044 35.3049 28.292C35.0969 28.532 34.8169 28.74 34.4649 28.916C34.1129 29.084 33.6689 29.168 33.1329 29.168ZM31.5369 25.388H34.5729C34.5409 24.996 34.3889 24.684 34.1169 24.452C33.8529 24.22 33.5089 24.104 33.0849 24.104C32.6449 24.104 32.2929 24.22 32.0289 24.452C31.7649 24.684 31.6009 24.996 31.5369 25.388ZM37.3936 29V23.072H38.7496V23.756H38.9536C39.0416 23.508 39.1896 23.328 39.3976 23.216C39.6056 23.104 39.8536 23.048 40.1416 23.048H40.8616V24.272H40.1176C39.7176 24.272 39.3936 24.38 39.1456 24.596C38.8976 24.804 38.7736 25.128 38.7736 25.568V29H37.3936ZM46.7201 29V21.908H44.2121V20.6H50.6681V21.908H48.1601V29H46.7201ZM51.8428 29V20.6H53.2228V23.852H53.4268C53.4908 23.716 53.5948 23.58 53.7388 23.444C53.8828 23.308 54.0708 23.196 54.3028 23.108C54.5428 23.02 54.8428 22.976 55.2028 22.976C55.6588 22.976 56.0628 23.08 56.4148 23.288C56.7668 23.488 57.0388 23.772 57.2308 24.14C57.4308 24.508 57.5308 24.944 57.5308 25.448V29H56.1508V25.556C56.1508 25.076 56.0308 24.72 55.7908 24.488C55.5588 24.248 55.2268 24.128 54.7948 24.128C54.3068 24.128 53.9228 24.292 53.6428 24.62C53.3628 24.94 53.2228 25.4 53.2228 26V29H51.8428ZM59.2256 29V23.072H60.6056V29H59.2256ZM59.9096 22.316C59.6616 22.316 59.4456 22.236 59.2616 22.076C59.0856 21.908 58.9976 21.688 58.9976 21.416C58.9976 21.144 59.0856 20.928 59.2616 20.768C59.4456 20.6 59.6616 20.516 59.9096 20.516C60.1736 20.516 60.3896 20.6 60.5576 20.768C60.7336 20.928 60.8216 21.144 60.8216 21.416C60.8216 21.688 60.7336 21.908 60.5576 22.076C60.3896 22.236 60.1736 22.316 59.9096 22.316ZM65.0665 29.168C64.4745 29.168 63.9505 29.044 63.4945 28.796C63.0465 28.54 62.6945 28.184 62.4385 27.728C62.1905 27.264 62.0665 26.724 62.0665 26.108V25.964C62.0665 25.34 62.1905 24.8 62.4385 24.344C62.6865 23.888 63.0345 23.536 63.4825 23.288C63.9305 23.032 64.4465 22.904 65.0305 22.904C65.6065 22.904 66.1105 23.032 66.5425 23.288C66.9745 23.536 67.3105 23.888 67.5505 24.344C67.7905 24.8 67.9105 25.332 67.9105 25.94V26.432H63.4585C63.4745 26.896 63.6385 27.268 63.9505 27.548C64.2625 27.828 64.6465 27.968 65.1025 27.968C65.5505 27.968 65.8825 27.872 66.0985 27.68C66.3145 27.48 66.4785 27.256 66.5905 27.008L67.7305 27.596C67.6185 27.812 67.4545 28.044 67.2385 28.292C67.0305 28.532 66.7505 28.74 66.3985 28.916C66.0465 29.084 65.6025 29.168 65.0665 29.168ZM63.4705 25.388H66.5065C66.4745 24.996 66.3225 24.684 66.0505 24.452C65.7865 24.22 65.4425 24.104 65.0185 24.104C64.5785 24.104 64.2265 24.22 63.9625 24.452C63.6985 24.684 63.5345 24.996 63.4705 25.388ZM69.3272 29V20.6H70.7072V29H69.3272Z" fill="url(#paint0_linear)"/>
<defs>
<linearGradient id="paint0_linear" x1="10" y1="25.2459" x2="72.0037" y2="25.3918" gradientUnits="userSpaceOnUse">
<stop stop-color="#2D82B7"/>
<stop offset="1" stop-color="#5CC7F2"/>
</linearGradient>
</defs>
</svg>
