<svg width="48" height="50" viewBox="0 0 48 50" fill="none" xmlns="http://www.w3.org/2000/svg">
<g clip-path="url(#clip0)">
<path d="M24.1531 38.8127C31.7816 38.8127 37.9658 32.6286 37.9658 25C37.9658 17.3714 31.7816 11.1873 24.1531 11.1873C16.5245 11.1873 10.3403 17.3714 10.3403 25C10.3403 32.6286 16.5245 38.8127 24.1531 38.8127Z" fill="#8147E4"/>
<path d="M25.0024 26.9145C25.0024 27.1019 25.0024 27.2772 25.0024 27.4526C25.0024 27.7451 25.0008 28.0373 25.0029 28.3298C25.0056 28.7483 25.1997 29.0639 25.5544 29.2678C26.214 29.647 26.8787 30.0176 27.5488 30.3784C27.9194 30.5781 28.3031 30.5834 28.6777 30.3694C29.3464 29.9876 30.0167 29.6084 30.683 29.2224C31.0194 29.0275 31.1991 28.7294 31.2015 28.3383C31.2057 27.5853 31.2055 26.8321 31.2018 26.0791C31.1996 25.6707 31.0015 25.3638 30.6567 25.1655C30.0047 24.7909 29.3448 24.4298 28.686 24.0674C28.2698 23.8385 27.8646 23.8674 27.4506 24.1014C25.2507 25.3436 23.0447 26.5755 20.8442 27.8172C20.3855 28.0761 19.954 28.0791 19.4903 27.815C18.3026 27.1386 17.1045 26.48 15.9075 25.8198C15.4988 25.5946 15.3026 25.261 15.3042 24.7941C15.309 23.4341 15.3071 22.074 15.3053 20.714C15.3045 20.2748 15.4911 19.9502 15.8748 19.7369C17.1085 19.0512 18.3412 18.3639 19.5759 17.68C19.974 17.4596 20.3722 17.4543 20.7753 17.6837C21.9902 18.3753 23.2087 19.0608 24.4251 19.7497C24.7782 19.9496 24.9638 20.257 24.971 20.6611C24.979 21.1174 24.9715 21.5737 24.9747 22.0299C24.9753 22.0982 24.9476 22.1333 24.8923 22.1644C24.3757 22.4556 23.8591 22.7465 23.3451 23.0424C23.2441 23.1006 23.2406 23.0568 23.2412 22.9733C23.243 22.5569 23.2401 22.1405 23.2425 21.7241C23.2451 21.2642 23.0407 20.9273 22.6429 20.705C22.0021 20.3466 21.3619 19.9866 20.7176 19.634C20.3329 19.4237 19.9431 19.4163 19.5531 19.6351C18.9088 19.997 18.2632 20.3564 17.6153 20.7122C17.2242 20.927 17.0338 21.2546 17.0335 21.6968C17.033 22.4056 17.0343 23.1145 17.033 23.823C17.0322 24.2788 17.2412 24.6101 17.6304 24.8313C18.2768 25.1982 18.9248 25.5625 19.5738 25.9243C19.967 26.1437 20.3643 26.1567 20.7612 25.9294C22.0439 25.1955 23.3262 24.4617 24.6208 23.7486C25.5857 23.2171 26.5371 22.6611 27.4956 22.1185C27.8918 21.8943 28.2908 21.8802 28.695 22.1073C29.9447 22.8095 31.1959 23.5088 32.4466 24.2091C32.8162 24.416 33.0002 24.7329 33.0005 25.1546C33.0015 26.5234 32.9986 27.8924 33.0021 29.2612C33.0031 29.7241 32.7944 30.0578 32.3998 30.279C31.4966 30.7852 30.5905 31.2864 29.6857 31.7895C29.3608 31.97 29.0385 32.1554 28.7107 32.3303C28.3238 32.5366 27.9367 32.5422 27.5461 32.3239C26.3065 31.631 25.0638 30.944 23.8234 30.2527C23.46 30.0501 23.2736 29.7387 23.2739 29.3194C23.2741 28.8765 23.2741 28.4335 23.2736 27.9905C23.2736 27.9275 23.2741 27.8757 23.344 27.8366C23.8771 27.5388 24.4076 27.2362 24.9391 26.9355C24.9537 26.9275 24.9707 26.9249 25.0024 26.9145Z" fill="#FEFEFE"/>
</g>
<defs>
<clipPath id="clip0">
<rect width="27.6255" height="27.6255" fill="white" transform="translate(10.3403 11.1873)"/>
</clipPath>
</defs>
</svg>
