<svg width="115" height="50" viewBox="0 0 115 50" fill="none" xmlns="http://www.w3.org/2000/svg">
<path d="M11.8362 30.6558C11.3234 30.6558 10.9204 30.2465 10.9204 29.7255V20.4976C10.9204 19.9767 11.3234 19.5674 11.8362 19.5674H21.3242C22.9726 19.5674 24.328 20.9441 24.328 22.6185V23.9209C24.328 25.5953 22.9726 26.972 21.3608 26.972H12.7521V29.7255C12.7521 30.2465 12.3491 30.6558 11.8362 30.6558ZM12.7521 21.5395V24.9999C12.7521 25.0744 12.7887 25.1116 12.862 25.1116L21.3242 25.0744C21.9469 25.0744 22.4964 24.5534 22.4964 23.8837V22.5813C22.4964 21.9116 21.9835 21.3906 21.3242 21.3906H12.862C12.7887 21.4278 12.7521 21.4651 12.7521 21.5395Z" fill="#4D4C4C"/>
<path d="M26.7459 30.6558C26.233 30.6558 25.8301 30.2465 25.8301 29.7256V24.5907C25.8301 22.7302 26.9657 21.9116 28.834 21.9116H30.4825C30.9953 21.9116 31.3983 22.3209 31.3983 22.8419C31.3983 23.3628 30.9953 23.7721 30.4825 23.7721H28.834C28.2112 23.7721 27.6617 23.9209 27.6617 24.5907V29.7256C27.6984 30.2465 27.2588 30.6558 26.7459 30.6558Z" fill="#4D4C4C"/>
<path d="M42.0582 30.6558H35.5376C33.8891 30.6558 32.5337 29.2791 32.5337 27.6046V24.9628C32.5337 23.2884 33.8891 21.9116 35.5376 21.9116H41.3256C42.9741 21.9116 44.3295 23.2884 44.3295 24.9628V26.4884C44.3295 27.0093 43.9265 27.4186 43.4137 27.4186H34.3653V27.6419C34.3653 28.2744 34.8782 28.8326 35.5376 28.8326H42.0582C42.5711 28.8326 42.9741 29.2419 42.9741 29.7628C42.9741 30.2837 42.5711 30.6558 42.0582 30.6558ZM34.4752 25.5581H42.3879C42.4612 25.5581 42.4978 25.5209 42.4978 25.4465V24.9628C42.4978 24.293 41.985 23.7721 41.3256 23.7721H35.5376C34.8782 23.7721 34.3653 24.293 34.3653 24.9628V25.4465C34.3653 25.5209 34.402 25.5581 34.4752 25.5581Z" fill="#4D4C4C"/>
<path d="M59.4591 30.656C59.166 30.656 58.8729 30.5071 58.7264 30.2467L52.975 22.0606L47.2237 30.2467C46.9306 30.656 46.3445 30.7676 45.9415 30.4699C45.5386 30.1722 45.4287 29.5769 45.7217 29.1676L52.2057 19.9025C52.3889 19.642 52.6453 19.4932 52.9384 19.4932C53.2315 19.4932 53.5245 19.642 53.6711 19.9025L60.1551 29.1676C60.4482 29.5769 60.3383 30.1722 59.9353 30.4699C59.8254 30.6187 59.6422 30.656 59.4591 30.656Z" fill="#35A7D6"/>
<path d="M73.3063 30.7674C72.7934 30.7674 72.3904 30.3581 72.3904 29.8372V24.9628C72.3904 24.3302 71.8776 23.7721 71.2182 23.7721H65.3935C64.7708 23.7721 64.2213 24.293 64.2213 24.9628V29.7256C64.2213 30.2465 63.8183 30.6558 63.3055 30.6558C62.7926 30.6558 62.3896 30.2465 62.3896 29.7256V24.9628C62.3896 23.2884 63.7451 21.9116 65.3935 21.9116H71.2182C72.8667 21.9116 74.2221 23.2884 74.2221 24.9628V29.8372C74.2221 30.3581 73.8191 30.7674 73.3063 30.7674Z" fill="#35A7D6"/>
<path d="M83.6734 33H82.1348C81.6219 33 81.219 32.5907 81.219 32.0698C81.219 31.5488 81.6219 31.1395 82.1348 31.1395H84.406C84.7724 31.1395 85.505 30.9535 85.6882 30.6558H78.9477C77.2993 30.6558 75.9438 29.2791 75.9438 27.6046V24.9628C75.9438 23.2884 77.2993 21.9116 78.9477 21.9116H84.7724C86.4209 21.9116 87.7763 23.2884 87.7763 24.9628V30.1349C87.7763 32.293 85.8714 33 83.6734 33ZM78.9844 23.8093C78.325 23.8093 77.8121 24.3302 77.8121 25V27.6419C77.8121 28.3116 78.325 28.8326 78.9844 28.8326H85.8714C85.9446 28.8326 85.9813 28.7953 85.9813 28.7209V25C85.9813 24.3302 85.4684 23.8093 84.809 23.8093H78.9844Z" fill="#35A7D6"/>
<path d="M99.0592 30.6558H92.5019C90.8535 30.6558 89.498 29.2791 89.498 27.6046V24.9628C89.498 23.2884 90.8535 21.9116 92.5019 21.9116H98.3266C99.9751 21.9116 101.33 23.2884 101.33 24.9628V26.4884C101.33 27.0093 100.928 27.4186 100.415 27.4186H91.3663V27.6419C91.3663 28.2744 91.8792 28.8326 92.5386 28.8326H99.0959C99.6087 28.8326 100.012 29.2419 100.012 29.7628C100.012 30.2837 99.5721 30.6558 99.0592 30.6558ZM91.4762 25.5581H99.3889C99.4622 25.5581 99.4988 25.5209 99.4988 25.4465V24.9628C99.4988 24.293 98.986 23.7721 98.3266 23.7721H92.5019C91.8426 23.7721 91.3297 24.293 91.3297 24.9628V25.4465C91.3663 25.5209 91.403 25.5581 91.4762 25.5581Z" fill="#35A7D6"/>
<path d="M104.005 30.6558C103.492 30.6558 103.089 30.2465 103.089 29.7256V20.6465C103.089 20.1256 103.492 19.7163 104.005 19.7163C104.518 19.7163 104.921 20.1256 104.921 20.6465V29.7628C104.921 30.2465 104.518 30.6558 104.005 30.6558Z" fill="#35A7D6"/>
<path d="M64.9538 17.7814C63.7449 18.2651 59.6054 20.3116 57.0044 25.6697C56.7846 26.1162 56.6015 26.5628 56.4183 27.0093C55.7589 28.6465 55.1728 30.1721 53.0481 30.1721C52.2421 30.1721 51.6927 29.986 51.3263 29.6139C50.9966 29.279 50.8501 28.7953 50.8501 28.2C50.8501 26.8604 51.6194 25.9302 52.7916 25.9302C53.9273 25.9302 54.4401 26.6 54.4401 27.2697C54.4401 27.9023 54.1104 28.7953 53.2679 28.7953C52.2421 28.7953 52.2421 28.0883 52.2421 28.0139C52.2421 27.7535 52.4253 27.3814 52.7184 27.3814C52.9748 27.3814 53.0114 27.5674 53.0481 27.6418C53.0847 27.7907 53.2312 27.9023 53.3778 27.8651C53.5243 27.8279 53.6342 27.679 53.5976 27.5302C53.5609 27.3069 53.3045 26.8232 52.755 26.8232C52.1322 26.8232 51.7293 27.4558 51.7293 28.0139C51.7293 28.4976 52.059 29.3535 53.3045 29.3535C54.4401 29.3535 55.0629 28.3116 55.0629 27.2697C55.0629 26.5628 54.6233 25.8186 53.7441 25.5209C53.7441 24.7023 53.9273 22.8418 54.6599 22.0976C54.8797 21.8744 55.0995 21.8 55.3559 21.8C55.5757 21.8 55.8322 21.8372 55.9787 21.9116C55.7223 22.693 55.4292 23.6604 55.1728 24.8511C55.1361 25 55.246 25.1488 55.3926 25.186C55.4292 25.186 55.4292 25.186 55.4658 25.186C55.5757 25.186 55.7223 25.1116 55.7223 24.9628C56.2351 22.5814 57.4074 19.1953 58.3965 19.1953C58.7262 19.1953 59.0192 19.3069 59.239 19.3814C59.2024 19.4186 59.1291 19.493 59.0925 19.5302C58.0301 20.7953 57.5173 22.0232 57.5173 22.0976C57.444 22.2465 57.5173 22.3953 57.6638 22.4697C57.8103 22.5442 57.9569 22.4697 58.0301 22.3209C58.0668 22.2837 59.9351 17.5581 64.2577 17.5581C64.9538 17.5581 65.1369 17.7069 65.1369 17.7814H64.9538Z" fill="white" stroke="white" stroke-miterlimit="10"/>
<path d="M52.7918 25.4465C51.3631 25.4465 50.3374 26.6 50.3374 28.2372C50.3374 28.6465 50.4839 30.7302 53.0116 30.7302H53.0482C55.466 30.7302 56.2353 28.8698 56.8581 27.2326C57.0412 26.786 57.2244 26.3395 57.4442 25.9302C59.9352 20.7209 63.9648 18.7488 65.1005 18.2651C65.1371 18.2651 65.1371 18.2651 65.1371 18.2651C65.3569 18.1907 65.5034 17.9302 65.4668 17.6698C65.5034 17.3349 65.2104 17 64.148 17C62.4629 17 60.8877 17.6698 59.5323 18.9721H59.4956C59.2026 18.8233 58.763 18.6372 58.2867 18.6372C57.2244 18.6372 56.3086 20.907 56.1254 21.3535V21.3907H56.0888C55.7957 21.3163 55.5393 21.2419 55.2828 21.2419C54.8799 21.2419 54.5136 21.3907 54.2205 21.6884C53.3413 22.5814 53.1948 24.5535 53.1581 25.3721V25.4093H53.1215C52.975 25.4465 52.9017 25.4465 52.7918 25.4465ZM53.0849 30.2093C52.2789 30.2093 51.6562 29.986 51.2899 29.5023C50.8869 29.0186 50.8503 28.4233 50.8503 28.2C50.8503 26.8233 51.6562 25.893 52.8284 25.893C53.9641 25.893 54.5136 26.6372 54.5136 27.3442C54.5136 28.0512 54.1472 28.8326 53.268 28.8326C52.3156 28.8326 52.2057 28.2372 52.2057 28.014C52.2057 27.6791 52.3888 27.3442 52.7185 27.3442C52.9383 27.3442 53.0482 27.493 53.0849 27.6419C53.1215 27.7535 53.2314 27.8651 53.3779 27.8279C53.4512 27.8279 53.4878 27.7907 53.5245 27.7163C53.5611 27.6791 53.5611 27.6047 53.5611 27.5302C53.5245 27.307 53.268 26.8605 52.7552 26.8605C52.169 26.8605 51.7661 27.3442 51.7661 28.014C51.7661 28.6093 52.169 29.3163 53.3047 29.3163C54.4769 29.3163 54.9898 28.2744 54.9898 27.3442C54.9898 26.6744 54.5868 25.8558 53.671 25.5581H53.6344V25.5209C53.6344 25.2605 53.7076 22.9535 54.5502 22.0605C54.77 21.8372 54.9898 21.7256 55.2828 21.7256C55.466 21.7256 55.6858 21.7628 55.9056 21.8372H55.9422V21.8744C55.6492 22.693 55.3927 23.6977 55.1363 24.7767C55.1363 24.8512 55.1363 24.8884 55.1729 24.9628C55.2096 25 55.2462 25.0372 55.3195 25.0744C55.4294 25.1116 55.5759 25 55.6125 24.8884C56.1254 22.507 57.3343 19.1209 58.3234 19.1209C58.5798 19.1209 58.8729 19.1953 59.1659 19.307L59.2026 19.3442L59.1659 19.3814C59.1293 19.4186 59.1293 19.4186 59.0927 19.4558C59.056 19.493 59.056 19.493 59.0194 19.5302C57.957 20.7953 57.4442 22.0233 57.4442 22.0605C57.4076 22.1721 57.4442 22.3209 57.5907 22.3581C57.6273 22.3581 57.664 22.3581 57.664 22.3581C57.7739 22.3581 57.8471 22.2837 57.8838 22.2093C57.9204 22.1721 59.8253 17.4093 64.148 17.4093C64.844 17.4093 65.0638 17.5953 65.0638 17.6326V17.6698L64.9906 17.7442C63.7817 18.3023 59.6422 20.3488 57.0779 25.707C56.8581 26.1163 56.6749 26.6 56.4917 27.0465C55.8323 28.6837 55.2096 30.2093 53.0849 30.2093Z" fill="#35A7D6"/>
</svg>
