<svg width="134" height="50" viewBox="0 0 134 50" fill="none" xmlns="http://www.w3.org/2000/svg">
<g clip-path="url(#clip0)">
<path d="M43.9245 13.1968C44.0306 13.3558 43.9974 13.4751 43.9974 13.5944C43.9974 20.3549 43.9974 27.1219 44.0041 33.8823C44.0041 34.1938 43.9179 34.2668 43.6197 34.2668C36.952 34.2601 30.2844 34.2601 23.6168 34.2601C23.5041 34.2601 23.3782 34.2999 23.2456 34.1872C30.1386 27.1882 37.0183 20.2024 43.9245 13.1968Z" fill="#A42F17"/>
<path d="M85.1968 28.666C85.5083 27.9966 86.0385 27.6254 86.7477 27.5128C87.8943 27.3404 88.9482 27.9436 89.0675 29.2161C89.1868 30.4489 89.0873 31.6817 89.1205 32.9145C89.1271 33.0934 89.0409 33.1067 88.9018 33.1067C88.4511 33.1 87.9937 33.0934 87.543 33.1067C87.331 33.1133 87.2647 33.0603 87.2647 32.8349C87.2779 31.9667 87.2713 31.0918 87.2713 30.2236C87.2713 29.5343 86.9532 29.1432 86.4031 29.13C85.8198 29.1167 85.3559 29.6005 85.3559 30.2434C85.3492 31.0918 85.3492 31.9402 85.3625 32.7885C85.3691 33.0205 85.3293 33.1199 85.0642 33.1067C84.6334 33.0802 84.2026 33.0868 83.7718 33.1067C83.5531 33.1133 83.4934 33.0536 83.5 32.8349C83.5133 31.9534 83.5067 31.0719 83.5067 30.1904C83.5067 29.521 83.1952 29.1432 82.6451 29.1366C82.0684 29.13 81.5979 29.5939 81.5846 30.2103C81.5713 31.0785 81.5713 31.9534 81.5846 32.8217C81.5912 33.0603 81.5183 33.1199 81.2863 33.1067C80.8555 33.0868 80.4247 33.0934 79.9939 33.1067C79.8017 33.1133 79.7222 33.0603 79.7222 32.8482C79.7288 31.1581 79.7288 29.4746 79.7222 27.7845C79.7222 27.5923 79.7818 27.5393 79.9674 27.5393C80.4181 27.5525 80.8754 27.5525 81.3261 27.5393C81.5448 27.5326 81.5912 27.6254 81.578 27.811C81.5647 27.9701 81.578 28.1291 81.578 28.3147C83.0361 27.0952 84.4346 27.2278 85.1968 28.666Z" fill="#595959"/>
<path d="M67.1954 17.9092C67.8847 17.0741 68.7198 16.862 69.6809 17.1271C70.4497 17.3392 70.8606 17.8893 70.9799 18.6582C71.1125 19.533 71.0131 20.4146 71.0396 21.2961C71.0462 21.6738 71.033 22.045 71.0462 22.4228C71.0529 22.5885 71.0131 22.6548 70.8275 22.6481C70.3503 22.6349 69.8797 22.6349 69.4025 22.6481C69.2236 22.6548 69.1838 22.5885 69.1838 22.4228C69.1904 21.528 69.1904 20.6399 69.1838 19.7451C69.1838 19.0757 68.8524 18.6847 68.289 18.6714C67.6859 18.6582 67.2087 19.1155 67.1954 19.7451C67.1822 20.6134 67.1822 21.4883 67.1954 22.3565C67.2021 22.5885 67.1358 22.6548 66.9038 22.6481C66.4664 22.6283 66.0223 22.6349 65.5782 22.6481C65.4059 22.6548 65.333 22.6216 65.333 22.4228C65.3396 20.0434 65.3396 17.6574 65.333 15.278C65.333 15.0858 65.3927 15.0327 65.5782 15.0394C66.0289 15.0526 66.4863 15.0526 66.937 15.0394C67.149 15.0327 67.1954 15.1056 67.1888 15.3045C67.1888 16.1462 67.1954 17.0012 67.1954 17.9092Z" fill="#0C0C0C"/>
<path d="M98.2671 28.2952C98.7245 27.7915 99.2746 27.5263 99.9241 27.4866C101.197 27.407 102.072 28.2156 102.098 29.5015C102.118 30.6282 102.098 31.7483 102.105 32.875C102.105 33.0739 102.032 33.1136 101.853 33.1136C101.409 33.1004 100.971 33.1004 100.527 33.1136C100.309 33.1203 100.249 33.0474 100.255 32.8353C100.269 31.967 100.262 31.0921 100.262 30.2239C100.262 29.5147 99.944 29.1435 99.3541 29.1369C98.751 29.1369 98.2738 29.6141 98.2738 30.2637C98.2671 31.112 98.2605 31.9604 98.2804 32.8088C98.287 33.0672 98.2009 33.1203 97.9623 33.107C97.5314 33.0871 97.1006 33.0938 96.6698 33.107C96.4842 33.1136 96.418 33.054 96.418 32.8684C96.4246 31.1717 96.4246 29.4683 96.418 27.7716C96.418 27.6258 96.4378 27.5462 96.6102 27.5462C97.094 27.5529 97.5845 27.5529 98.0683 27.5462C98.234 27.5462 98.2738 27.6191 98.2671 27.765C98.2605 27.9439 98.2671 28.1162 98.2671 28.2952Z" fill="#595959"/>
<path d="M53.0914 28.2952C53.5553 27.7716 54.1253 27.5064 54.7881 27.4866C56.054 27.4402 56.8958 28.2289 56.9223 29.5081C56.9488 30.6348 56.9223 31.7549 56.9289 32.8816C56.9289 33.054 56.8825 33.1136 56.7035 33.1136C56.2396 33.1004 55.7756 33.1004 55.3117 33.1136C55.1129 33.1202 55.0731 33.0407 55.0797 32.8618C55.0863 31.9339 55.0797 31.006 55.0797 30.0847C55.0797 29.6738 54.9207 29.3556 54.523 29.2032C54.1121 29.0441 53.7409 29.1435 53.4294 29.4418C53.1908 29.6738 53.0914 29.972 53.0914 30.3034C53.0914 31.1518 53.0847 32.0001 53.098 32.8485C53.098 33.0407 53.0582 33.1202 52.8461 33.1136C52.3954 33.0937 51.9381 33.1004 51.4874 33.1136C51.2952 33.1202 51.2422 33.054 51.2422 32.8684C51.2488 31.1783 51.2488 29.4948 51.2422 27.8047C51.2422 27.5926 51.3151 27.5462 51.5139 27.5528C51.9447 27.5661 52.3756 27.5661 52.8064 27.5528C53.0383 27.5462 53.1311 27.6125 53.098 27.8445C53.0781 27.9903 53.0914 28.1427 53.0914 28.2952Z" fill="#595959"/>
<path d="M54.0854 17.094C54.6687 17.094 55.2321 17.1073 55.7954 17.0874C56.0075 17.0808 56.0208 17.2199 56.0672 17.3459C56.445 18.3798 56.8228 19.4138 57.2005 20.4477C57.2204 20.5007 57.2337 20.5538 57.3066 20.5803C57.6512 19.5132 58.0025 18.4527 58.3339 17.3923C58.4002 17.1735 58.4996 17.0808 58.7448 17.094C59.2353 17.1205 59.7324 17.1006 60.2759 17.1006C60.0373 17.7038 59.8186 18.2671 59.5932 18.8305C59.0365 20.2621 58.4598 21.6871 57.923 23.132C57.2204 25.0209 55.2785 24.9745 54.2445 24.2654C54.0921 24.1593 54.0656 24.0864 54.1716 23.9406C54.2777 23.7882 54.3704 23.6225 54.4632 23.4634C54.5693 23.2844 54.6422 23.0591 54.7946 22.9398C54.9802 22.794 55.1128 23.079 55.2983 23.1254C55.749 23.238 56.1799 23.026 56.3124 22.5753C56.3522 22.4427 56.2859 22.3367 56.2395 22.2306C55.5502 20.6068 54.8543 18.983 54.165 17.3525C54.1451 17.273 54.1186 17.1934 54.0854 17.094Z" fill="#0C0C0C"/>
<path d="M103.854 22.7209C102.919 22.7076 102.17 22.5287 101.481 22.0912C101.315 21.9852 101.256 21.9056 101.368 21.7068C101.541 21.4152 101.594 20.9777 101.839 20.8319C102.071 20.6927 102.369 21.0904 102.674 21.1832C103.092 21.3158 103.509 21.4616 103.953 21.4085C104.132 21.3887 104.344 21.3688 104.371 21.1235C104.397 20.8783 104.198 20.8054 104.033 20.7458C103.622 20.5999 103.204 20.4806 102.787 20.3348C101.72 19.9637 101.514 19.3804 101.541 18.7707C101.574 17.8626 102.137 17.2728 103.058 17.0938C104.053 16.9016 104.994 17.0806 105.895 17.5312C106.087 17.6307 106.121 17.7168 106.014 17.9024C105.869 18.1609 105.73 18.4194 105.604 18.6845C105.524 18.8568 105.451 18.8634 105.285 18.7773C104.841 18.5453 104.371 18.3597 103.86 18.3067C103.748 18.2935 103.648 18.3001 103.536 18.3332C103.39 18.373 103.257 18.4194 103.231 18.5917C103.198 18.7839 103.33 18.8833 103.476 18.9364C103.94 19.1021 104.404 19.2479 104.868 19.4069C105.087 19.4798 105.299 19.566 105.484 19.6986C106.068 20.1095 106.187 20.6927 106.061 21.3356C105.928 22.0117 105.431 22.3696 104.815 22.5684C104.477 22.6877 104.106 22.7474 103.854 22.7209Z" fill="#0B0B0B"/>
<path d="M109.773 33.1864C108.819 33.1665 108.056 32.9942 107.374 32.5501C107.201 32.4441 107.155 32.3513 107.261 32.1591C107.414 31.9072 107.539 31.6355 107.652 31.3637C107.718 31.2046 107.771 31.2113 107.911 31.2974C108.414 31.6222 108.964 31.8343 109.568 31.8807C109.581 31.8807 109.587 31.8873 109.601 31.8873C109.853 31.8873 110.157 31.9138 110.244 31.6288C110.343 31.2974 110.032 31.2444 109.813 31.1649C109.382 31.0124 108.938 30.8799 108.507 30.7208C107.851 30.4756 107.447 30.0249 107.42 29.3025C107.394 28.5866 107.785 27.9769 108.481 27.7118C109.66 27.2611 110.787 27.4798 111.874 28.0432C112.013 28.1161 111.993 28.189 111.927 28.3083C111.775 28.5866 111.622 28.865 111.496 29.1566C111.423 29.3223 111.344 29.3157 111.198 29.2428C110.747 29.0108 110.283 28.8252 109.773 28.7656C109.674 28.7523 109.581 28.7391 109.481 28.7789C109.329 28.8319 109.143 28.8518 109.13 29.0705C109.117 29.2759 109.263 29.3621 109.422 29.4151C109.899 29.5808 110.376 29.72 110.847 29.899C111.662 30.2038 112.027 30.7009 111.993 31.43C111.96 32.232 111.523 32.802 110.721 33.0339C110.37 33.1334 110.005 33.2129 109.773 33.1864Z" fill="#595959"/>
<path d="M72.1598 33.1864C71.1921 33.1665 70.4366 32.9876 69.7539 32.5501C69.5816 32.4375 69.5352 32.3513 69.6478 32.1591C69.8003 31.9072 69.9262 31.6355 70.0389 31.3638C70.1052 31.1981 70.1582 31.2113 70.2974 31.2975C70.7945 31.6156 71.3247 31.8343 71.9212 31.8741C71.9411 31.8741 71.961 31.8874 71.9875 31.8874C72.2393 31.8874 72.5442 31.9139 72.6304 31.6222C72.7298 31.2908 72.4117 31.2378 72.1929 31.1583C71.7621 31.0058 71.3181 30.8733 70.8873 30.7142C70.2311 30.469 69.8268 30.0183 69.8003 29.2959C69.7738 28.58 70.1648 27.9769 70.8607 27.7052C72.0405 27.2545 73.1672 27.4732 74.2542 28.0366C74.3934 28.1095 74.3669 28.1824 74.3072 28.3017C74.1548 28.58 74.0023 28.8584 73.8764 29.15C73.8035 29.3157 73.724 29.3091 73.5848 29.2362C73.1474 29.0109 72.69 28.8253 72.1929 28.7723C72.1267 28.7656 72.0604 28.7391 72.0007 28.7524C71.8152 28.7988 71.5766 28.7855 71.5302 29.0307C71.4771 29.2892 71.6959 29.3754 71.8748 29.4417C72.3255 29.6007 72.7894 29.7267 73.2401 29.8924C74.0554 30.1906 74.4067 30.6943 74.3868 31.4234C74.3669 32.3646 73.7836 32.7887 73.1076 33.0207C72.7497 33.1466 72.3785 33.2063 72.1598 33.1864Z" fill="#595959"/>
<path d="M57.3931 27.5528C57.9564 27.5528 58.48 27.5661 58.997 27.5462C59.2356 27.5329 59.3218 27.6257 59.3814 27.8312C59.7128 28.9778 60.0641 30.1244 60.4286 31.3572C60.6275 30.7143 60.7998 30.1576 60.9721 29.5942C61.1511 28.9977 61.3366 28.4078 61.5023 27.8047C61.562 27.5992 61.6614 27.5396 61.8669 27.5396C62.3706 27.5528 62.8809 27.5462 63.4377 27.5462C63.1659 28.2686 62.9008 28.9579 62.6423 29.6538C62.238 30.7276 61.8404 31.8013 61.4427 32.875C61.383 33.034 61.3101 33.1136 61.1179 33.107C60.6473 33.0871 60.1701 33.1003 59.6929 33.1003C59.567 33.1003 59.461 33.107 59.4079 32.9545C58.7452 31.1716 58.0757 29.3821 57.3931 27.5528Z" fill="#595959"/>
<path d="M64.1333 21.0575C64.2327 21.4419 64.3255 21.8197 64.4316 22.1975C64.4581 22.2837 64.4979 22.3433 64.3786 22.4096C63.7489 22.741 62.5029 22.8934 61.8202 22.4229C61.3165 22.0782 61.1309 21.5877 61.1176 21.0111C61.1044 20.3086 61.1044 19.5994 61.1176 18.8902C61.1243 18.6649 61.0779 18.5588 60.8326 18.5986C60.7597 18.6118 60.6736 18.5919 60.6007 18.6052C60.3886 18.6383 60.3289 18.5456 60.3488 18.3467C60.3621 18.2274 60.3488 18.1015 60.3488 17.9822C60.3488 17.3923 60.3488 17.3857 60.9254 17.3658C61.1044 17.3592 61.1176 17.2863 61.111 17.1471C61.1044 16.7825 61.1176 16.418 61.1044 16.0535C61.0978 15.8812 61.1442 15.8215 61.3231 15.8281C61.8003 15.8414 62.2709 15.8348 62.7481 15.8281C62.9072 15.8281 62.9602 15.8745 62.9536 16.0336C62.9403 16.4114 62.9602 16.7825 62.9469 17.1603C62.9403 17.3194 62.9867 17.3724 63.1458 17.3658C63.4639 17.3525 63.7887 17.3724 64.1068 17.3592C64.2791 17.3525 64.3653 17.379 64.352 17.5845C64.3322 17.9159 64.4647 18.3467 64.299 18.5456C64.1267 18.751 63.676 18.6185 63.3512 18.5986C63.0331 18.5853 62.9138 18.6516 62.9337 19.0029C62.9734 19.5331 62.9403 20.0633 62.9403 20.5936C62.9403 21.1503 63.1259 21.3094 63.6627 21.2033C63.8284 21.1569 63.9743 21.1039 64.1333 21.0575Z" fill="#0B0B0B"/>
<path d="M103.51 30.4093C103.51 30.0448 103.496 29.6802 103.516 29.3157C103.523 29.1169 103.477 29.0506 103.264 29.0506C102.761 29.0572 102.761 29.044 102.761 28.5535C102.761 28.5005 102.761 28.4408 102.761 28.3878C102.761 27.8377 102.761 27.8311 103.291 27.8178C103.463 27.8178 103.523 27.7648 103.516 27.5925C103.503 27.2412 103.523 26.8899 103.51 26.532C103.503 26.3597 103.536 26.2735 103.742 26.2801C104.206 26.2934 104.67 26.2934 105.134 26.2801C105.339 26.2735 105.365 26.3663 105.359 26.532C105.352 26.8833 105.365 27.2346 105.352 27.5925C105.346 27.7714 105.405 27.8244 105.578 27.8178C105.896 27.8045 106.22 27.8244 106.539 27.8112C106.718 27.8045 106.771 27.8642 106.757 28.0365C106.737 28.3679 106.857 28.7855 106.698 28.9976C106.545 29.203 106.101 29.0506 105.783 29.0572C105.352 29.0705 105.352 29.0572 105.352 29.5013C105.352 29.9984 105.379 30.4955 105.346 30.9859C105.312 31.5029 105.538 31.8542 106.181 31.6156C106.505 31.4963 106.585 31.5824 106.618 31.8807C106.638 32.053 106.704 32.2187 106.751 32.3844C106.877 32.8484 106.877 32.8616 106.413 33.0008C105.882 33.1665 105.346 33.2328 104.789 33.1002C104 32.908 103.516 32.3181 103.503 31.4896C103.503 31.1384 103.51 30.7738 103.51 30.4093Z" fill="#595959"/>
<path d="M78.5755 31.5225C78.6749 31.9003 78.7677 32.2847 78.8803 32.6558C78.9068 32.7553 78.9201 32.8083 78.8141 32.8679C78.1712 33.1993 76.9384 33.3451 76.2557 32.8679C75.7652 32.5233 75.5797 32.0461 75.5598 31.4827C75.5399 30.7802 75.5465 30.071 75.5598 29.3684C75.5664 29.1232 75.5068 29.0437 75.2549 29.0569C74.8042 29.0768 74.8042 29.0569 74.8042 28.6062C74.8042 28.5399 74.8042 28.4737 74.8042 28.4074C74.8042 27.8506 74.8042 27.844 75.3543 27.8241C75.5134 27.8175 75.5664 27.7711 75.5598 27.612C75.5531 27.2608 75.5664 26.9095 75.5531 26.5516C75.5465 26.366 75.5797 26.2732 75.7984 26.2798C76.2491 26.2997 76.6998 26.2931 77.1571 26.2798C77.3427 26.2732 77.409 26.3262 77.4023 26.5184C77.3891 26.8697 77.4089 27.2276 77.3957 27.5789C77.3891 27.7711 77.4553 27.8241 77.6409 27.8175C77.9524 27.8042 78.2573 27.8241 78.5688 27.8109C78.761 27.7976 78.8141 27.8705 78.8008 28.0561C78.7875 28.3212 78.7875 28.5863 78.8008 28.8514C78.8141 29.0304 78.7411 29.0768 78.5755 29.0702C78.2772 29.0569 77.9789 29.0834 77.6807 29.0635C77.4355 29.0437 77.3891 29.1431 77.3957 29.3618C77.4089 29.945 77.3957 30.5283 77.4023 31.1115C77.4023 31.5954 77.6078 31.7545 78.0916 31.655C78.2441 31.6219 78.4031 31.5689 78.5755 31.5225Z" fill="#595959"/>
<path d="M48.0013 29.5343C48.0013 28.4341 48.0079 27.3272 47.9946 26.227C47.9946 26.0149 48.0477 25.942 48.2664 25.9487C48.7303 25.9685 49.1943 25.9619 49.6582 25.9487C49.8703 25.942 49.9101 26.0149 49.9101 26.2138C49.9035 28.4208 49.9035 30.6279 49.9101 32.835C49.9101 33.0736 49.8305 33.1266 49.6118 33.12C49.1678 33.1067 48.7303 33.1001 48.2863 33.12C48.0477 33.1333 47.9946 33.0405 47.9946 32.8151C48.0079 31.7149 48.0013 30.6213 48.0013 29.5343Z" fill="#595959"/>
<path d="M93.1702 17.9686C93.5612 17.4053 94.0384 17.1335 94.6283 17.0407C94.8404 17.0076 94.9796 17.001 94.9597 17.2992C94.9332 17.6836 94.9398 18.0747 94.9597 18.4591C94.9663 18.6712 94.9001 18.7043 94.7012 18.7043C93.9191 18.7043 93.4154 19.0291 93.2232 19.619C93.1768 19.7515 93.1768 19.8775 93.1768 20.01C93.1768 20.812 93.1702 21.6206 93.1834 22.4226C93.1834 22.6081 93.1304 22.6612 92.9448 22.6612C92.4809 22.6479 92.0169 22.6479 91.553 22.6612C91.3807 22.6678 91.3276 22.6081 91.3276 22.4358C91.3343 20.7258 91.3343 19.0158 91.3276 17.3058C91.3276 17.1468 91.3807 17.1004 91.5331 17.1004C92.0103 17.107 92.4809 17.1136 92.9581 17.1004C93.1304 17.0938 93.1901 17.1468 93.1768 17.3191C93.1569 17.4981 93.1702 17.6836 93.1702 17.9686Z" fill="#0C0C0C"/>
<path d="M31.0931 24.6297C32.6242 23.1053 34.1618 21.5809 35.6929 20.0498C37.9729 17.7765 40.2396 15.4899 42.5196 13.2165C42.6322 13.1038 42.7317 12.8984 42.9504 13.0575C43.0896 13.2497 42.9437 13.3623 42.8311 13.475C42.334 13.9721 41.8236 14.4626 41.3199 14.9596C39.9546 16.3051 38.5892 17.6572 37.2504 19.0292C34.4336 21.899 31.5571 24.7159 28.727 27.5791C27.2092 29.1168 25.6914 30.6544 24.1538 32.1722C23.5572 32.7621 22.9939 33.3785 22.3642 33.9352C22.3046 33.9882 22.2449 34.0943 22.1455 34.0413C22.0527 33.9882 21.9533 33.9153 22.0196 33.7762C22.0925 33.69 22.1654 33.6105 22.2449 33.5309C23.9417 31.8541 25.6053 30.1507 27.2821 28.454C28.4486 27.2742 29.6217 26.1143 30.7816 24.9346C30.881 24.8219 30.9805 24.7159 31.0931 24.6297Z" fill="#A43B23"/>
<path d="M45.0051 23.7746C45.0051 27.1283 45.0051 30.482 45.0051 33.8357C45.0051 33.9152 44.9985 33.9881 45.0051 34.0677C45.0117 34.2002 44.972 34.2798 44.8195 34.2731C44.6671 34.2665 44.5942 34.2069 44.6141 34.0478C44.6207 33.9815 44.6141 33.9152 44.6141 33.849C44.6141 27.1084 44.6141 20.3679 44.6141 13.6273C44.6141 13.5478 44.6141 13.4749 44.6141 13.3954C44.6141 13.2628 44.6604 13.1833 44.7996 13.1767C44.9454 13.17 44.9985 13.2496 44.9985 13.3755C44.9985 13.4418 44.9985 13.508 44.9985 13.5743C45.0051 16.9744 45.0051 20.3745 45.0051 23.7746Z" fill="#A8422B"/>
<path d="M83.3739 17.0872C83.0557 17.1005 82.731 17.0939 82.4128 17.0939C81.8097 17.0939 81.8097 17.0939 81.7434 17.6572C81.6904 17.6838 81.6639 17.6374 81.6374 17.6042C80.7227 16.6366 78.5488 16.842 77.992 18.6117C77.833 19.1286 77.8065 19.6522 77.8727 20.1758C77.9854 21.0242 78.3566 21.7466 79.1718 22.0979C80.0798 22.4956 80.9613 22.4492 81.75 21.687C81.8428 22.7872 81.4054 23.2578 80.3648 23.2379C79.8545 23.2246 79.3773 23.0656 78.9398 22.8005C78.7741 22.701 78.7079 22.7143 78.6283 22.8933C78.4958 23.1915 78.3499 23.4831 78.1909 23.7681C78.0915 23.9338 78.1379 24.0134 78.2903 24.0995C79.4369 24.7027 80.6299 24.8882 81.8826 24.4906C82.837 24.1857 83.5462 23.3705 83.5594 22.5088C83.586 20.779 83.5793 19.0491 83.5926 17.3192C83.5926 17.1469 83.5528 17.0806 83.3739 17.0872ZM80.2919 20.9248C79.702 20.7193 79.3839 19.9173 79.6225 19.2347C79.8412 18.5984 80.4112 18.2869 81.0144 18.4857C81.465 18.6315 81.7699 19.1353 81.7699 19.7185C81.7699 20.6133 81.0607 21.1899 80.2919 20.9248Z" fill="#0C0C0C"/>
<path d="M53.9858 17.3521C53.787 16.232 52.8525 15.5294 51.6661 15.5029C50.5327 15.4764 49.3927 15.4963 48.2594 15.4764C48.0208 15.4698 48.0009 15.5692 48.0009 15.7614C48.0075 16.855 48.0075 17.942 48.0075 19.0355C48.0075 20.1358 48.0141 21.2426 48.0009 22.3429C47.9942 22.6013 48.0738 22.661 48.319 22.6477C48.7564 22.6279 49.2005 22.6345 49.6446 22.6477C49.85 22.6544 49.9296 22.608 49.9229 22.3826C49.9031 21.8789 49.9229 21.3686 49.9163 20.8648C49.9163 20.7058 49.9561 20.6527 50.1152 20.6594C50.5592 20.6726 50.9967 20.6859 51.4407 20.6594C53.5152 20.5401 54.2973 19.1482 53.9858 17.3521ZM52.2361 18.2269C52.2096 18.7174 51.8119 19.1018 51.2883 19.135C51.0895 19.1482 50.8906 19.135 50.6918 19.135C50.6918 19.1283 50.6918 19.1217 50.6918 19.1151C50.4399 19.1151 50.1019 19.2145 49.9627 19.0886C49.7904 18.9361 49.9163 18.5915 49.9097 18.333C49.8964 17.9486 49.9097 17.5642 49.9031 17.1797C49.9031 17.0406 49.9163 16.9478 50.0953 16.961C50.5327 16.9875 50.9702 16.9279 51.4076 17.014C52.0041 17.1334 52.2758 17.5178 52.2361 18.2269Z" fill="#0C0C0C"/>
<path d="M89.3986 17.6374C88.7689 17.1602 88.0332 17.0143 87.2578 17.0342C85.5412 17.074 84.4078 18.2007 84.4012 19.8643C84.3945 20.4144 84.5006 20.9314 84.7922 21.402C85.2827 22.1907 86.025 22.5354 86.9131 22.6679C88.3315 22.88 90.1873 22.2504 90.4193 20.2885C90.5386 19.2347 90.2801 18.3068 89.3986 17.6374ZM88.6032 19.9041C88.5701 20.4409 88.4177 20.9248 87.8742 21.1568C87.4367 21.349 87.0125 21.2827 86.6613 20.9513C86.1642 20.4873 86.0979 19.5661 86.5088 18.9894C86.9662 18.3532 87.9736 18.3863 88.3779 19.0557C88.5303 19.3142 88.6165 19.5992 88.6032 19.9041Z" fill="#0C0C0C"/>
<path d="M77.1308 19.102C77.1175 18.0151 76.5939 17.3523 75.5268 17.1203C74.3802 16.8685 73.2866 17.1336 72.2262 17.5776C72.0936 17.6307 72.1201 17.6969 72.1665 17.803C72.2924 18.0946 72.4117 18.3862 72.5178 18.6845C72.5841 18.8833 72.6769 18.8833 72.8492 18.7972C73.2734 18.5851 73.7373 18.4658 74.2079 18.4459C74.6056 18.4326 75.0099 18.4857 75.2286 18.8966C75.4009 19.2213 75.3479 19.3075 74.99 19.3141C74.3338 19.3274 73.6644 19.2545 73.0149 19.4069C72.2195 19.5925 71.7688 20.189 71.7755 21.0374C71.7821 21.8659 72.2593 22.4823 73.048 22.648C73.8699 22.8203 74.6387 22.7407 75.3346 22.0647C75.3346 22.1973 75.3413 22.2503 75.3346 22.2967C75.2816 22.5817 75.3876 22.6745 75.6859 22.6546C76.0902 22.6281 76.5011 22.6347 76.9121 22.6546C77.1043 22.6612 77.1507 22.5949 77.1507 22.4093C77.1308 21.3025 77.144 20.2023 77.1308 19.102ZM74.2211 21.4549C74.0091 21.4814 73.8102 21.4152 73.6445 21.2428C73.3463 20.9313 73.4722 20.4342 73.8898 20.3348C74.3139 20.2354 74.7447 20.2884 75.1689 20.2818C75.3081 20.2818 75.3147 20.3812 75.3214 20.4806C75.3744 21.0241 74.8906 21.4549 74.2211 21.4549Z" fill="#0C0C0C"/>
<path d="M100.647 19.0757C100.627 17.9887 100.077 17.3193 99.023 17.1072C97.883 16.8752 96.8027 17.1337 95.7489 17.5712C95.6296 17.6176 95.6229 17.6706 95.676 17.7899C95.8151 18.0881 95.9344 18.393 96.0405 18.6979C96.1001 18.8702 96.1664 18.8901 96.3189 18.8106C96.743 18.5919 97.2004 18.4924 97.6709 18.4394C98.2277 18.3731 98.7181 18.6515 98.7977 19.0691C98.8308 19.2414 98.8176 19.3209 98.6055 19.3209C98.0554 19.3143 97.4986 19.3143 96.9485 19.3474C96.4647 19.374 96.014 19.5264 95.6826 19.8909C95.1855 20.4278 95.1722 21.0641 95.4108 21.7003C95.6693 22.3896 96.246 22.6614 96.9286 22.7144C97.6245 22.7674 98.2741 22.6481 98.7844 22.1179C98.864 22.1974 98.8441 22.2703 98.8308 22.3233C98.7778 22.6083 98.9037 22.6746 99.1755 22.6614C99.5798 22.6349 99.9907 22.6481 100.402 22.6614C100.581 22.668 100.647 22.6216 100.647 22.4294C100.647 21.3027 100.667 20.1892 100.647 19.0757ZM97.724 21.4551C97.5649 21.4816 97.3992 21.4286 97.2534 21.3225C97.0413 21.1767 96.9684 20.958 97.0214 20.7194C97.0744 20.5007 97.2335 20.3748 97.4589 20.3284C97.8632 20.2422 98.2675 20.2952 98.6718 20.282C98.8308 20.2753 98.8374 20.3814 98.8441 20.5007C98.8772 21.0375 98.4 21.4551 97.724 21.4551Z" fill="#0B0B0B"/>
<path d="M93.1768 27.5262C92.0302 27.4268 90.9963 27.672 90.3534 28.6927C89.7105 29.7267 89.7038 30.8468 90.3004 31.9139C90.751 32.7158 91.5331 33.0472 92.408 33.14C93.3956 33.2461 94.3036 33.034 95.0724 32.3579C95.2249 32.2188 95.2315 32.1326 95.0724 32C94.8404 31.7946 94.6217 31.5758 94.4163 31.3439C94.297 31.2113 94.2108 31.2179 94.0981 31.3372C93.9324 31.5096 93.727 31.609 93.5082 31.6819C92.7991 31.9205 92.0965 31.6554 91.8248 31.0589C91.7386 30.8667 91.7717 30.807 91.9838 30.807C92.5339 30.8136 93.0907 30.807 93.6408 30.807C94.2042 30.807 94.7675 30.807 95.3309 30.807C95.4635 30.807 95.5629 30.807 95.5695 30.6281C95.6358 29.1302 94.9995 27.6787 93.1768 27.5262ZM93.5944 29.8526C93.3227 29.846 93.0443 29.8526 92.7725 29.8526C92.4743 29.8526 92.1827 29.8526 91.8844 29.8526C91.7916 29.8526 91.7121 29.8526 91.732 29.7134C91.785 29.276 92.2755 28.8187 92.7261 28.8054C93.2961 28.7921 93.6938 29.1103 93.78 29.6206C93.8065 29.7996 93.7667 29.8592 93.5944 29.8526Z" fill="#595959"/>
<path d="M69.2107 30.6348C69.1908 30.3365 69.2107 30.0383 69.1643 29.7466C68.9323 28.4277 68.1303 27.6257 66.7849 27.5197C65.6648 27.4335 64.6507 27.6721 64.0144 28.6663C63.3516 29.6936 63.345 30.8137 63.9282 31.8874C64.3723 32.7093 65.161 33.0473 66.0558 33.1401C67.0433 33.2395 67.9514 33.0341 68.7202 32.3646C68.8726 32.2321 68.8859 32.1459 68.7268 32.0067C68.4948 31.8013 68.2761 31.5825 68.0707 31.3506C67.9514 31.218 67.8652 31.2246 67.7525 31.3439C67.5802 31.5229 67.3615 31.6223 67.1295 31.7019C66.4336 31.9272 65.7377 31.6488 65.4792 31.0656C65.393 30.8734 65.4261 30.8137 65.6382 30.8137C66.1884 30.8203 66.7451 30.8137 67.2952 30.8203C67.8586 30.8203 68.4219 30.8203 68.9853 30.8203C69.1046 30.8137 69.2239 30.8203 69.2107 30.6348ZM67.2223 29.8527C66.9373 29.8461 66.6523 29.8527 66.3673 29.8527C66.0956 29.8527 65.8172 29.8527 65.5454 29.8527C65.4527 29.8527 65.34 29.8792 65.3665 29.7069C65.4394 29.223 65.9299 28.8121 66.4336 28.8121C66.9572 28.8121 67.3283 29.1435 67.4145 29.634C67.4543 29.8262 67.3814 29.8527 67.2223 29.8527Z" fill="#595959"/>
<path d="M33.1944 35.228C29.6485 35.228 26.1092 35.228 22.5633 35.2213C22.4308 35.2213 22.1855 35.3141 22.1855 35.1153C22.1855 34.8767 22.444 34.9761 22.5898 34.9761C29.675 34.9695 36.7602 34.9695 43.8454 34.9695C43.9117 34.9695 43.978 34.9695 44.0442 34.9695C44.1503 34.9695 44.2563 34.9894 44.2563 35.1219C44.2563 35.2545 44.137 35.2213 44.0509 35.228C43.9515 35.2346 43.852 35.228 43.7526 35.228C40.2398 35.228 36.7204 35.228 33.1944 35.228Z" fill="#9F2D18"/>
</g>
<defs>
<clipPath id="clip0">
<rect width="89.9998" height="22.2431" fill="white" transform="translate(22 12.9976)"/>
</clipPath>
</defs>
</svg>
