<svg width="136" height="136" viewBox="0 0 136 136" fill="none" xmlns="http://www.w3.org/2000/svg">
<path d="M74.7363 100.555L88.899 86.0444L74.7363 73.105V100.555Z" fill="#919191"/>
<path d="M86.5447 75.3285C86.5136 75.212 86.4497 75.1069 86.3607 75.0255C86.2716 74.9442 86.1611 74.89 86.0422 74.8694L75.7773 73.105L88.9997 85.2195L86.5447 75.3285Z" fill="#919191"/>
<path d="M82.0297 70.5732L75.5908 72.4955L85.3748 74.052L82.0297 70.5732Z" fill="#919191"/>
<path d="M87.5218 71.8201L83.3369 71.0024L86.5312 74.2158L87.5218 71.8201Z" fill="#919191"/>
<path d="M87.7002 71.1739L87.6787 61.498L82.9482 70.2917L87.7002 71.1739Z" fill="#919191"/>
<path d="M86.9252 61.4844L80.7734 64.4036L82.288 70.0126L86.9252 61.4844Z" fill="#919191"/>
<path d="M87.3631 59.7696L82.9628 46.3496L80.1992 50.5815L87.3631 59.7696Z" fill="#919191"/>
<path d="M79.811 51.2915L70.2783 66.1102L79.3803 64.1735L87.1113 60.6518L79.811 51.2915Z" fill="#919191"/>
<path d="M82.5828 45.7844L68.8867 36.1157L79.7546 50.088L82.5828 45.7844Z" fill="#919191"/>
<path d="M79.4095 50.6537L67.9961 36L56.5898 50.6537L66.5891 66.3187L63.4164 74.933L67.9961 77.4793L72.583 74.933L69.4102 66.3187L79.4095 50.6537Z" fill="#919191"/>
<path d="M61.2633 100.555V73.105L47.1006 86.0444L61.2633 100.555Z" fill="#919191"/>
<path d="M49.9503 74.8694C49.8323 74.8904 49.7229 74.9449 49.6351 75.0263C49.5473 75.1077 49.4848 75.2126 49.455 75.3285L47 85.2195L60.2223 73.105L49.9503 74.8694Z" fill="#919191"/>
<path d="M53.9704 70.5732L50.6182 74.052L60.4093 72.4955L53.9704 70.5732Z" fill="#919191"/>
<path d="M49.4691 74.2158L52.6634 71.0024L48.4785 71.8201L49.4691 74.2158Z" fill="#919191"/>
<path d="M48.3213 61.498L48.2998 71.1739L53.0518 70.2917L48.3213 61.498Z" fill="#919191"/>
<path d="M49.0742 61.4844L53.7042 70.0126L55.226 64.4036L49.0742 61.4844Z" fill="#919191"/>
<path d="M53.037 46.3496L48.6367 59.7696L55.8006 50.5815L53.037 46.3496Z" fill="#919191"/>
<path d="M56.188 51.2915L48.8877 60.6518L56.6187 64.1735L65.7135 66.1102L56.188 51.2915Z" fill="#919191"/>
<path d="M67.1131 36.1157L53.417 45.7844L56.2452 50.088L67.1131 36.1157Z" fill="#919191"/>
</svg>
