<svg width="53" height="50" viewBox="0 0 53 50" fill="none" xmlns="http://www.w3.org/2000/svg">
<g clip-path="url(#clip0)">
<path d="M12.9722 38.8257L12.4511 39.1358C12.3803 39.0091 12.2824 38.8965 12.1696 38.8117C11.916 38.6711 11.6065 38.6991 11.3669 38.8825C11.2541 38.9672 11.1842 39.1078 11.1982 39.2624C11.1982 39.4737 11.3529 39.6283 11.6633 39.755L12.0856 39.9235C12.3812 40.0222 12.6347 40.2047 12.8463 40.4301C13.015 40.6414 13.0999 40.8947 13.0859 41.1619C13.0999 41.5279 12.9591 41.8798 12.7055 42.1191C12.452 42.3724 12.0856 42.513 11.7333 42.4991C11.3949 42.513 11.0714 42.4004 10.8179 42.175C10.5643 41.9218 10.4095 41.5977 10.3667 41.2606L11.0146 41.12C11.0286 41.3026 11.0705 41.486 11.1693 41.6405C11.4229 41.9506 11.888 42.0065 12.1975 41.7532C12.2115 41.7392 12.2255 41.7253 12.2395 41.7113C12.3663 41.5707 12.4511 41.3873 12.4371 41.2047C12.4371 41.134 12.4231 41.0501 12.4091 40.9794C12.3812 40.9087 12.3532 40.8388 12.2963 40.7969C12.2404 40.741 12.1836 40.6842 12.1136 40.6283C12.0288 40.5724 11.9309 40.5296 11.8321 40.4877L11.4378 40.3191C10.8598 40.0798 10.5643 39.7139 10.5643 39.2353C10.5643 38.9261 10.6911 38.6301 10.9306 38.4336C11.1842 38.2082 11.5086 38.0956 11.8461 38.1096C12.3103 38.1218 12.6907 38.3611 12.9722 38.8257Z" fill="#292929"/>
<path d="M15.9018 40.7257V42.4427H15.2539V38.2069H15.9726C16.2402 38.193 16.5077 38.2209 16.7752 38.2777C16.958 38.3344 17.1276 38.4183 17.2544 38.5589C17.4939 38.7982 17.6347 39.1222 17.6207 39.4593C17.6347 39.8113 17.4939 40.1493 17.2264 40.3877C16.9309 40.627 16.5505 40.7536 16.1702 40.7397H15.9027V40.7257H15.9018ZM15.9018 40.1344H16.1414C16.7333 40.1344 17.0288 39.9091 17.0288 39.4593C17.0288 39.0235 16.7193 38.7982 16.1134 38.7982H15.9018V40.1344Z" fill="#292929"/>
<path d="M26.4266 40.6407L27.7372 42.4416H26.9486L25.7367 40.7106H25.624V42.4416H24.9761V38.2058H25.7228C26.2858 38.2058 26.695 38.3045 26.9346 38.515C27.2021 38.7403 27.3569 39.0923 27.3429 39.4434C27.3429 39.7246 27.2581 39.9927 27.0893 40.2172C26.9337 40.4302 26.6941 40.5848 26.4266 40.6407ZM25.6231 40.1482H25.8198C26.4257 40.1482 26.7352 39.9228 26.7352 39.4582C26.7352 39.0224 26.4397 38.811 25.8478 38.811H25.6222V40.1482H25.6231Z" fill="#292929"/>
<path d="M30.9062 38.7981V42.4426H30.2584V38.7981H29.2861L28.835 38.1929H32.3288L31.8776 38.7981H30.9062Z" fill="#292929"/>
<path d="M39.2178 42.4423V37.9114L42.3173 41.148V38.2074H42.9512V42.7105L39.8517 39.4738V42.4432H39.2178V42.4423Z" fill="#292929"/>
<path d="M36.57 42.442H37.2747L35.2454 37.939L33.147 42.442H33.8368L35.2454 39.3739L36.2884 41.7948L36.57 42.442Z" fill="#292929"/>
<path d="M22.2987 42.442H22.9886L20.9741 37.939L18.8608 42.442H19.5516L20.9601 39.3739L22.0023 41.7948L22.2987 42.442Z" fill="#292929"/>
<path d="M20.716 21.0332L19.3809 22.421L23.3311 21.7956L20.716 21.0332Z" fill="#292929"/>
<path d="M18.7817 17.4138L20.6065 20.8155L21.2063 18.5841L18.7817 17.4138Z" fill="#292929"/>
<path d="M19.0535 22.7475L18.9722 22.8566L17.937 26.8566L23.1952 22.04L19.0535 22.7475Z" fill="#292929"/>
<path d="M21.5874 13.3586L18.6724 17.087L21.8331 18.5839L25.3741 19.2643L21.5874 13.3586Z" fill="#292929"/>
<path d="M18.9456 22.476L20.2256 21.1965L18.5093 21.5232L18.9456 22.476Z" fill="#292929"/>
<path d="M20.3884 11.4001L18.5908 16.7888L21.4787 13.0875L20.3884 11.4001Z" fill="#292929"/>
<path d="M21.6418 12.8969L25.9741 7.31787L20.416 11.2366L20.5253 11.1825L21.6418 12.8969Z" fill="#292929"/>
<path d="M23.6304 32.9526V22.04L17.9639 27.1832L23.6304 32.9526Z" fill="#292929"/>
<path d="M18.4814 17.4138V21.2784L20.3342 20.9247L18.4814 17.4138Z" fill="#292929"/>
<path d="M31.9399 21.0332L29.3799 21.7956L33.3021 22.421L31.9399 21.0332Z" fill="#292929"/>
<path d="M32.0481 20.8155L33.9009 17.4138L31.4492 18.5841L32.0481 20.8155Z" fill="#292929"/>
<path d="M33.7377 22.8566L33.6013 22.7475L29.4604 22.04L34.7187 26.8566L33.7377 22.8566Z" fill="#292929"/>
<path d="M26.9273 19.3457L30.9055 13.1143L26.3554 7.29077L21.7783 13.1143L25.7285 19.3457L24.5027 22.7745L26.3554 23.7815L28.181 22.7745L26.9273 19.3457Z" fill="#292929"/>
<path d="M31.068 13.3586L27.2812 19.2643L30.8774 18.5839L33.983 17.087L31.068 13.3586Z" fill="#292929"/>
<path d="M34.1463 21.5232L32.458 21.1965L33.738 22.476L34.1463 21.5232Z" fill="#292929"/>
<path d="M34.0918 16.7888L32.3212 11.4001L31.231 13.0875L34.0918 16.7888Z" fill="#292929"/>
<path d="M32.1578 11.1825L32.2391 11.2366L26.709 7.31787L31.0404 12.8969L32.1578 11.1825Z" fill="#292929"/>
<path d="M29.0522 32.9526L34.6917 27.1832L29.0522 22.04V32.9526Z" fill="#292929"/>
<path d="M34.2016 21.2784V17.4138L32.3218 20.9247L34.2016 21.2784Z" fill="#292929"/>
</g>
<defs>
<clipPath id="clip0">
<rect width="32.5855" height="35.419" fill="white" transform="translate(10.3657 7.29053)"/>
</clipPath>
</defs>
</svg>
