<svg width="136" height="136" viewBox="0 0 136 136" fill="none" xmlns="http://www.w3.org/2000/svg">
<path d="M92.8782 69.9483C92.5346 68.0125 91.8152 66.1621 90.7602 64.5009C88.6908 61.0974 86.0728 58.057 83.0113 55.5019C78.8229 51.7949 74.0104 48.854 68.7957 46.8147C65.7187 45.6495 62.5956 44.8268 59.2622 45.0312C56.9185 45.1743 54.9288 45.9817 53.539 47.9849C52.6928 49.2062 51.8005 50.3969 50.9338 51.5978C48.691 54.7047 46.4517 57.8083 44.2157 60.9084C43.3523 62.0721 42.9258 63.5007 43.0106 64.9455C43.1234 67.2859 44.0362 69.3708 45.1799 71.3638C46.8603 74.1587 48.9325 76.7002 51.3338 78.9115C55.99 83.4094 61.5063 86.9285 67.5546 89.2595C70.1961 90.2993 72.994 90.89 75.8317 91.0072C76.3445 91.0072 77.2881 90.9203 77.8163 90.8539C79.8677 90.6035 81.6421 89.8728 82.8882 88.1302C86.037 83.7304 88.6524 79.3714 91.8063 74.9869C92.315 74.2616 92.672 73.4417 92.8561 72.5761C93.0402 71.7105 93.0477 70.8169 92.8782 69.9483ZM52.6056 54.4901C52.5091 54.4908 52.4149 54.4604 52.3372 54.4032C52.2596 54.3461 52.2026 54.2654 52.1749 54.1733C52.0121 53.6175 51.8819 53.0527 51.7851 52.4818C51.7658 52.366 51.7932 52.2472 51.8614 52.1515C51.9296 52.0558 52.0331 51.9908 52.1492 51.9708C52.2072 51.9606 52.2667 51.9621 52.3241 51.9752C52.3815 51.9882 52.4357 52.0126 52.4835 52.0469C52.5313 52.0812 52.5718 52.1247 52.6024 52.1748C52.6331 52.225 52.6533 52.2807 52.662 52.3387C52.757 52.8746 52.8802 53.4051 53.0313 53.928C53.0643 54.0371 53.0539 54.1547 53.0024 54.2565C52.9508 54.3582 52.8621 54.4364 52.7544 54.4748C52.7058 54.4871 52.6557 54.4923 52.6056 54.4901ZM66.9136 70.8937C66.8717 70.9523 66.8163 71.0001 66.7521 71.033C66.6878 71.0659 66.6166 71.083 66.5443 71.0827C66.4545 71.085 66.3663 71.0581 66.2931 71.0061C59.9647 66.6931 55.0877 61.2968 52.9133 56.2224C52.8875 56.1683 52.873 56.1095 52.8706 56.0496C52.8681 55.9897 52.8779 55.93 52.8992 55.874C52.9206 55.8179 52.9531 55.7668 52.9948 55.7236C53.0365 55.6804 53.0865 55.646 53.1418 55.6226C53.1972 55.5991 53.2567 55.5871 53.3169 55.5872C53.377 55.5872 53.4366 55.5994 53.4919 55.623C53.5472 55.6466 53.5971 55.681 53.6387 55.7243C53.6803 55.7676 53.7126 55.8189 53.7339 55.875C55.8313 60.8062 60.6058 66.0544 66.7956 70.2753C66.8442 70.3082 66.8857 70.3502 66.9179 70.3991C66.9501 70.448 66.9724 70.5027 66.9833 70.5601C66.9943 70.6176 66.9938 70.6766 66.9818 70.7338C66.9698 70.7911 66.9466 70.8454 66.9136 70.8937ZM81.4267 77.3427C81.4037 77.4409 81.3482 77.5286 81.2691 77.5916C81.19 77.6547 81.092 77.6894 80.9908 77.6902C80.9585 77.6951 80.9256 77.6951 80.8933 77.6902C80.1702 77.5266 79.4266 77.3274 78.6882 77.1025C78.6305 77.0852 78.577 77.0564 78.5308 77.0179C78.4846 76.9794 78.4467 76.932 78.4194 76.8785C78.3921 76.825 78.3759 76.7666 78.3719 76.7067C78.3678 76.6469 78.376 76.5868 78.3958 76.5302C78.4123 76.4742 78.4397 76.4221 78.4766 76.3768C78.5134 76.3315 78.5589 76.294 78.6105 76.2664C78.662 76.2388 78.7186 76.2217 78.7768 76.2161C78.835 76.2105 78.8938 76.2165 78.9497 76.2338C79.6728 76.4535 80.3959 76.6477 81.0985 76.8112C81.1551 76.8244 81.2087 76.8487 81.2559 76.8826C81.3031 76.9165 81.3431 76.9594 81.3737 77.0088C81.4042 77.0582 81.4246 77.1132 81.4337 77.1705C81.4428 77.2278 81.4404 77.2863 81.4267 77.3427ZM87.7704 78.2932C87.314 78.3289 86.8473 78.3494 86.3652 78.3494C85.1088 78.3418 83.8551 78.2324 82.6164 78.0223C82.4995 78.0027 82.3951 77.9375 82.3264 77.8412C82.2576 77.7449 82.23 77.6253 82.2498 77.5088C82.2695 77.3922 82.3349 77.2882 82.4315 77.2197C82.5282 77.1512 82.6482 77.1237 82.7652 77.1434C84.3944 77.4316 86.0528 77.5208 87.7037 77.4091C87.7645 77.3998 87.8265 77.4032 87.8859 77.419C87.9453 77.4347 88.0008 77.4625 88.0489 77.5007C88.097 77.5388 88.1367 77.5864 88.1655 77.6406C88.1942 77.6947 88.2115 77.7542 88.2161 77.8153C88.2207 77.8764 88.2126 77.9377 88.1922 77.9955C88.1719 78.0533 88.1398 78.1064 88.098 78.1512C88.0561 78.1961 88.0054 78.2319 87.9491 78.2563C87.8927 78.2807 87.8318 78.2933 87.7704 78.2932ZM88.0576 75.3855C85.7909 75.8556 83.5652 75.5643 81.3908 75.0431C77.5988 74.0906 73.978 72.5581 70.6572 70.5002C65.9779 67.7896 61.8121 64.282 58.3493 60.1368C56.6721 58.1733 55.3671 55.9223 54.498 53.4936C54.1593 52.472 54.0371 51.3914 54.139 50.3202C54.2723 48.7207 55.6775 47.2899 57.5134 46.9015C58.3186 46.7329 59.1493 46.6818 59.9699 46.5796C62.4874 46.6849 64.9703 47.2028 67.3187 48.1126C74.1645 50.6371 80.3419 54.6849 85.3806 59.9477C87.4277 61.9785 89.1271 64.3296 90.4114 66.9078C91.1128 68.2186 91.509 69.67 91.5704 71.1543C91.5704 73.3823 90.2935 74.9154 88.0576 75.3855Z" fill="#919191"/>
<path d="M79.5087 68.2014C77.5447 68.1504 75.6171 67.6615 73.8676 66.7706C70.4094 65.2084 67.3866 62.8279 65.0623 59.8361C64.1883 58.7848 63.5924 57.5322 63.3289 56.1926C63.2762 55.9429 63.2745 55.6852 63.3239 55.4349C63.3732 55.1846 63.4726 54.9467 63.6162 54.7355C63.7598 54.5242 63.9445 54.3439 64.1595 54.2053C64.3744 54.0668 64.6152 53.9727 64.8674 53.9288C66.1737 53.6823 67.5218 53.7773 68.7803 54.2047C71.9887 55.1747 74.944 56.8355 77.4369 59.0696C79.1157 60.4098 80.4911 62.0886 81.4728 63.9958C81.7757 64.631 81.9732 65.3109 82.0575 66.0092C82.1857 67.1334 81.6113 67.8182 80.519 68.0532C80.1138 68.1452 79.7343 68.1708 79.5087 68.2014Z" fill="#919191"/>
</svg>
