<svg width="65" height="50" viewBox="0 0 65 50" fill="none" xmlns="http://www.w3.org/2000/svg">
<g clip-path="url(#clip0)">
<path d="M15.7586 13C16.1931 13.1246 16.6448 13.1371 17.0922 13.2035C18.2451 13.3697 19.4023 13.5234 20.5553 13.6771C21.7899 13.8432 23.0203 14.001 24.2549 14.1672C25.4035 14.3209 26.5478 14.487 27.6964 14.6449C28.987 14.8193 30.2776 14.9896 31.5639 15.1599C32.0328 15.2222 32.4974 15.2928 32.962 15.3634C32.9233 15.4507 32.8458 15.4548 32.7641 15.4631C32.6566 15.4714 32.549 15.4714 32.4415 15.4714C26.9135 15.4714 21.3855 15.4714 15.8576 15.4714C15.6941 15.4714 15.5263 15.4922 15.3715 15.4299C15.2854 15.351 15.2811 15.2513 15.294 15.1475C15.3887 14.5202 15.4704 13.893 15.5693 13.27C15.5866 13.1578 15.6296 13.0706 15.7156 13C15.7285 13 15.7414 13 15.7586 13Z" fill="#CBCBCB"/>
<path d="M11.8008 36.9999C11.7793 36.867 11.8266 36.8089 11.9729 36.8255C12.0503 36.8338 12.1321 36.8255 12.2095 36.8255C24.6334 36.8255 37.0574 36.8255 49.4813 36.8255C49.5975 36.8255 49.7824 36.759 49.7351 36.9958C37.0918 36.9999 24.4442 36.9999 11.8008 36.9999Z" fill="#010101"/>
<path d="M10.9404 15.3677C10.9576 15.3718 10.9705 15.3718 10.9878 15.376C11.0566 15.4258 11.0781 15.4964 11.0824 15.5754C11.0867 15.6709 11.091 15.7706 11.091 15.8661C11.091 21.1662 11.091 26.4705 11.0867 31.7706C11.0867 31.9367 11.1426 32.1195 10.9878 32.2607C10.9705 32.2649 10.9576 32.2649 10.9404 32.269C10.9404 26.6325 10.9404 21.0001 10.9404 15.3677Z" fill="#4F4F4F"/>
<path d="M10.9877 32.2607C10.9834 28.7052 10.9834 25.1538 10.9834 21.5982C10.9834 19.5255 10.9877 17.4487 10.9877 15.376C12.3471 15.376 13.7108 15.3718 15.0702 15.3718C15.1692 15.3718 15.2724 15.3677 15.3714 15.3635C15.4574 15.3677 15.5434 15.3718 15.6295 15.3718C21.3596 15.3718 27.0855 15.3718 32.8156 15.3718C32.8672 15.3718 32.9146 15.3677 32.9662 15.3635C33.1469 15.3677 33.3232 15.3718 33.5039 15.3718C39.1093 15.3718 44.7104 15.3718 50.3158 15.3718C50.5911 15.3718 50.5911 15.3718 50.5911 15.6418C50.5954 16.3396 50.5954 17.0375 50.5997 17.7394C50.6729 17.8142 50.6987 17.9056 50.703 18.0053C50.7073 18.1008 50.7073 18.2005 50.7073 18.296C50.7073 22.7862 50.7073 27.2721 50.7073 31.7623C50.7073 31.8952 50.7073 32.024 50.6987 32.1569C50.6858 32.2898 50.6169 32.3563 50.4793 32.3687C50.3717 32.377 50.2642 32.3812 50.1566 32.3812C47.2916 32.3812 44.4265 32.3853 41.5614 32.3812C41.0452 32.3812 40.5333 32.323 40.0213 32.2856C39.8837 32.2815 39.7503 32.2773 39.6126 32.2773C30.1656 32.2773 20.7186 32.2773 11.2716 32.2773C11.1727 32.2649 11.078 32.2607 10.9877 32.2607Z" fill="#010101"/>
<path d="M40.0127 32.273C40.1633 32.2689 40.3138 32.2647 40.4644 32.2647C43.7382 32.2647 47.0119 32.2647 50.2857 32.2647C50.6255 32.2647 50.5911 32.3104 50.5911 31.9615C50.5911 27.3011 50.5911 22.6406 50.5911 17.9802C50.5911 17.8971 50.5954 17.814 50.5997 17.731C51.3913 17.8431 52.1871 17.9511 52.9787 18.0633C53.5594 18.1422 54.1402 18.2336 54.721 18.3C54.9145 18.3208 54.9619 18.4039 54.9361 18.57C54.8328 19.2346 54.7339 19.895 54.6392 20.5596C54.4671 21.7642 54.2951 22.9688 54.123 24.1733C54.0197 24.8795 53.9079 25.5814 53.8047 26.2834C53.5939 27.7413 53.3874 29.1993 53.1766 30.6531C53.0217 31.7123 52.8625 32.7715 52.7077 33.8306C52.6905 33.9594 52.6259 33.9885 52.5055 33.9719C51.9118 33.8888 51.3138 33.814 50.7202 33.7351C50.3932 33.6894 50.0706 33.6437 49.7436 33.598C49.6576 33.5856 49.5716 33.5939 49.4941 33.6354C49.2059 33.5648 48.922 33.461 48.6165 33.5191C48.5864 33.5274 48.552 33.4942 48.5391 33.461C48.0229 33.382 47.5109 33.299 46.9947 33.2242C46.087 33.0954 45.1793 32.975 44.2716 32.8545C42.9036 32.6718 41.5356 32.4849 40.1676 32.3021C40.1116 32.3021 40.0643 32.2855 40.0127 32.273Z" fill="#CBCBCB"/>
<path d="M14.4896 33.7851C14.4896 34.3167 14.4896 34.7944 14.4896 35.2679C14.4896 35.3593 14.4896 35.4465 14.4896 35.5379C14.4896 35.6044 14.4638 35.6418 14.3906 35.6418C14.3089 35.6418 14.3003 35.5919 14.3003 35.5296C14.3003 35.2804 14.3003 35.0312 14.3003 34.782C14.3003 34.3957 14.296 34.0052 14.3003 33.6189C14.3003 33.5566 14.2573 33.4694 14.3433 33.4362C14.4466 33.3946 14.4982 33.4735 14.5541 33.54C15.0015 34.08 15.4489 34.62 15.9006 35.1558C15.9221 35.1807 15.9479 35.2056 15.9738 35.2347C16.0512 35.189 16.0125 35.1226 16.0125 35.0686C16.0168 34.5784 16.0125 34.0841 16.0168 33.594C16.0168 33.5317 15.9651 33.4279 16.1028 33.4237C16.2491 33.4196 16.2147 33.5234 16.2147 33.5982C16.219 34.2129 16.219 34.8318 16.2147 35.4465C16.2147 35.5088 16.2534 35.5961 16.1587 35.6293C16.0598 35.6625 16.0039 35.5878 15.9479 35.5213C15.5005 34.9813 15.0445 34.4372 14.5928 33.8931C14.5756 33.8723 14.5541 33.8515 14.4896 33.7851Z" fill="#060606"/>
<path d="M26.0443 34.541C26.0443 34.2378 26.0486 33.9304 26.04 33.6272C26.0357 33.5067 26.0658 33.4527 26.2034 33.4527C26.582 33.4611 26.9649 33.4527 27.3434 33.4569C27.4037 33.4569 27.4983 33.4195 27.5026 33.54C27.5069 33.6687 27.4037 33.6355 27.3348 33.6355C27.0337 33.6397 26.7326 33.6438 26.4314 33.6355C26.2981 33.6314 26.2335 33.6604 26.2464 33.8058C26.2637 33.9886 26.169 34.2295 26.2809 34.3458C26.397 34.4662 26.6465 34.3749 26.8358 34.3832C26.9864 34.3915 27.1369 34.3832 27.2875 34.3832C27.3563 34.3832 27.4166 34.3873 27.4166 34.4787C27.4166 34.5659 27.3693 34.5825 27.2918 34.5825C26.9993 34.5825 26.7025 34.5909 26.4099 34.5825C26.2723 34.5784 26.2378 34.6241 26.2421 34.7487C26.2507 34.9356 26.2551 35.1225 26.2421 35.3094C26.2335 35.4424 26.2895 35.4714 26.4142 35.4673C26.7369 35.459 27.0595 35.4631 27.3822 35.4673C27.451 35.4673 27.5327 35.4465 27.5327 35.5587C27.537 35.6667 27.4639 35.6625 27.3908 35.6625C26.9907 35.6625 26.5863 35.6584 26.1862 35.6625C26.0529 35.6625 26.0314 35.6044 26.0357 35.4964C26.0443 35.1765 26.0443 34.8608 26.0443 34.541Z" fill="#050505"/>
<path d="M46.3065 34.5577C46.3065 34.2462 46.3108 33.9347 46.3022 33.6232C46.2979 33.5027 46.3323 33.4487 46.4699 33.4529C46.8485 33.4612 47.2271 33.4529 47.6099 33.457C47.6745 33.457 47.7648 33.4279 47.7648 33.5401C47.7691 33.6522 47.6831 33.6315 47.6142 33.6315C47.3002 33.6315 46.9862 33.6356 46.6678 33.6315C46.5517 33.6273 46.5086 33.6605 46.5043 33.781C46.4828 34.3833 46.4785 34.3833 47.098 34.3833C47.2185 34.3833 47.3432 34.375 47.4637 34.3874C47.5411 34.3957 47.6702 34.321 47.6745 34.4788C47.6788 34.6491 47.5325 34.5785 47.4508 34.5827C47.1926 34.591 46.9345 34.591 46.6764 34.5827C46.5517 34.5785 46.4957 34.6076 46.5043 34.7405C46.5172 34.9316 46.5129 35.1268 46.5043 35.322C46.5 35.4466 46.5517 35.4715 46.6678 35.4674C46.9905 35.4632 47.3131 35.4632 47.6357 35.4674C47.7046 35.4674 47.8035 35.4342 47.7992 35.5629C47.7949 35.6875 47.7003 35.6585 47.6271 35.6626C47.24 35.6668 46.8528 35.6585 46.4656 35.6668C46.328 35.6709 46.2979 35.6169 46.2979 35.4965C46.3108 35.1808 46.3065 34.8693 46.3065 34.5577Z" fill="#060606"/>
<path d="M23.7558 34.2377C23.7558 34.03 23.7515 33.8223 23.7601 33.6146C23.7644 33.5482 23.6956 33.4319 23.8505 33.4277C23.9967 33.4235 23.9537 33.5357 23.9537 33.6063C23.958 33.9718 23.9666 34.3374 23.9537 34.7029C23.9279 35.4381 24.4269 35.5461 24.9647 35.4464C25.2744 35.3882 25.4723 35.1266 25.4766 34.7901C25.4809 34.3914 25.4766 33.9884 25.4809 33.5897C25.4809 33.5274 25.4336 33.4194 25.5755 33.4277C25.696 33.4319 25.653 33.5274 25.653 33.5855C25.6573 33.9926 25.6573 34.3997 25.653 34.8067C25.6487 35.2969 25.3906 35.5752 24.8915 35.6541C24.685 35.6873 24.4785 35.6707 24.2764 35.6125C23.9623 35.5212 23.773 35.2636 23.7644 34.8981C23.7515 34.6821 23.7558 34.4578 23.7558 34.2377Z" fill="#050505"/>
<path d="M11.9511 34.2171C11.9511 34.0011 11.9511 33.7893 11.9511 33.5733C11.9511 33.5068 11.9339 33.432 12.05 33.4279C12.1705 33.4237 12.1447 33.5027 12.149 33.5691C12.149 33.9637 12.149 34.3583 12.1533 34.7529C12.1533 35.0188 12.1963 35.2804 12.4759 35.405C12.7771 35.5338 13.0911 35.5338 13.3836 35.3635C13.6159 35.2264 13.6805 35.0021 13.6805 34.7529C13.6848 34.3708 13.6805 33.9928 13.6848 33.6107C13.6848 33.5483 13.6374 33.4404 13.7665 33.4362C13.8999 33.432 13.8568 33.54 13.8568 33.6065C13.8611 34.0011 13.8611 34.3957 13.8568 34.7903C13.8525 35.1267 13.7493 35.4341 13.4051 35.5753C13.0266 35.7332 12.6351 35.7332 12.2737 35.5172C12.0845 35.405 11.9941 35.2181 11.9812 35.0104C11.9683 34.7488 11.9769 34.4871 11.9769 34.2212C11.964 34.2171 11.9554 34.2171 11.9511 34.2171Z" fill="#050505"/>
<path d="M27.8555 35.3135C28.0362 35.4174 28.2169 35.463 28.4019 35.4921C28.5869 35.517 28.7589 35.4838 28.9181 35.3924C29.0644 35.3094 29.1633 35.1931 29.159 35.0269C29.159 34.8732 29.0472 34.7735 28.9095 34.7154C28.7073 34.6282 28.5008 34.5534 28.2943 34.4745C28.1007 34.3997 27.9373 34.2917 27.8856 34.0799C27.8254 33.8182 27.9631 33.5939 28.2384 33.4942C28.5395 33.382 28.845 33.407 29.1375 33.5233C29.2063 33.5523 29.2881 33.5773 29.2321 33.6894C29.1762 33.7974 29.116 33.731 29.0601 33.7019C28.8321 33.5939 28.5955 33.569 28.3503 33.6479C28.204 33.6936 28.1007 33.785 28.0878 33.9428C28.0792 34.0965 28.1653 34.192 28.3029 34.246C28.5309 34.3415 28.7632 34.4329 28.9955 34.5285C29.2063 34.6157 29.3612 34.7611 29.3784 34.9895C29.3999 35.2387 29.2666 35.4298 29.0472 35.5503C28.6643 35.7621 28.2857 35.6624 27.9115 35.5212C27.8512 35.4921 27.8555 35.4797 27.8555 35.3135Z" fill="#040404"/>
<path d="M32.8499 35.3178C33.0306 35.4175 33.207 35.4673 33.392 35.4923C33.5253 35.5089 33.6501 35.5006 33.7706 35.4549C33.9684 35.3843 34.1362 35.2597 34.1448 35.0437C34.1534 34.8443 33.9899 34.7446 33.8179 34.674C33.6329 34.5992 33.4436 34.5369 33.2586 34.4663C32.9876 34.3625 32.8499 34.1797 32.8628 33.9388C32.8758 33.6979 33.0349 33.54 33.3232 33.4653C33.5899 33.3946 33.848 33.4154 34.0975 33.5151C34.1663 33.54 34.2782 33.5483 34.2179 33.6812C34.1577 33.81 34.0932 33.7186 34.033 33.6937C33.8093 33.5982 33.577 33.5691 33.3447 33.6439C33.1984 33.6896 33.0908 33.7726 33.0736 33.9346C33.0564 34.1008 33.1597 34.1922 33.2973 34.2545C33.5038 34.3458 33.7189 34.4206 33.9297 34.5078C34.2352 34.6366 34.3857 34.8318 34.3685 35.0603C34.347 35.3178 34.1405 35.5504 33.848 35.6335C33.521 35.729 33.2113 35.6418 32.9059 35.5338C32.8155 35.4923 32.8198 35.4175 32.8499 35.3178Z" fill="#050505"/>
<path d="M48.5308 33.4651C48.7889 33.4111 49.0471 33.4028 49.3009 33.4984C49.3783 33.5275 49.4687 33.5399 49.4902 33.6396C49.4557 33.7268 49.4127 33.7725 49.3052 33.7144C49.0772 33.5898 48.832 33.5648 48.5782 33.6479C48.4319 33.6936 48.3286 33.785 48.32 33.9428C48.3071 34.1048 48.4104 34.2004 48.548 34.2585C48.7717 34.3499 48.9997 34.433 49.2234 34.5285C49.4385 34.6199 49.5977 34.7653 49.6106 35.0062C49.6235 35.2512 49.4945 35.4257 49.2837 35.5503C48.9997 35.7165 48.3889 35.6998 48.1307 35.5212C48.0576 35.4714 48.0533 35.4132 48.092 35.3343C48.2598 35.4091 48.4362 35.4755 48.6212 35.4963C48.8363 35.5212 49.0342 35.488 49.2105 35.3592C49.4773 35.1599 49.4558 34.8816 49.1589 34.7237C48.9567 34.6157 48.7373 34.5576 48.5222 34.4786C48.2254 34.3665 48.0791 34.163 48.1092 33.9179C48.1351 33.6645 48.3157 33.5482 48.5308 33.4651Z" fill="#050505"/>
<path d="M35.4225 33.4238C35.5988 33.4155 35.7623 33.4653 35.9215 33.5276C35.9903 33.5525 36.0505 33.5899 36.0075 33.6813C35.9602 33.7851 35.9 33.7353 35.8398 33.7062C35.6074 33.5899 35.3622 33.565 35.1127 33.6481C34.9665 33.6979 34.8632 33.7893 34.8546 33.9471C34.846 34.1008 34.9449 34.1922 35.0783 34.2462C35.302 34.3417 35.53 34.4206 35.7494 34.5162C35.9774 34.6159 36.1495 34.7612 36.1452 35.0271C36.1409 35.3012 35.9817 35.4757 35.7365 35.5837C35.3751 35.7457 35.0224 35.6501 34.6782 35.5131C34.6051 35.484 34.5793 35.4175 34.6137 35.3594C34.6567 35.2846 34.7126 35.3552 34.76 35.376C35.0654 35.4965 35.3751 35.5671 35.6849 35.3885C35.8268 35.3054 35.9344 35.1932 35.9258 35.0229C35.9215 34.8609 35.801 34.7696 35.6634 34.6989C35.4913 34.6076 35.3063 34.5577 35.1256 34.4954C34.7858 34.375 34.6223 34.1839 34.6395 33.9388C34.661 33.6688 34.8675 33.4902 35.2289 33.4321C35.2934 33.4238 35.3579 33.4279 35.4225 33.4238Z" fill="#050505"/>
<path d="M40.0986 35.6831C39.4877 35.679 39.0919 35.4464 38.9285 35.0185C38.7478 34.5492 38.8854 33.9926 39.2425 33.6852C39.6727 33.3197 40.3438 33.3945 40.7224 33.5606C40.7912 33.5897 40.7912 33.6312 40.7654 33.6935C40.731 33.7641 40.6923 33.76 40.632 33.7309C40.3997 33.6271 40.1545 33.5938 39.9007 33.6188C39.3931 33.6728 39.0618 34.0424 39.0575 34.5533C39.0532 35.085 39.3544 35.4256 39.8835 35.4921C40.1459 35.5253 40.3954 35.4879 40.6363 35.3799C40.688 35.355 40.7439 35.2885 40.7912 35.3882C40.8299 35.4713 40.7955 35.5128 40.7181 35.5502C40.5116 35.6541 40.2879 35.6914 40.0986 35.6831Z" fill="#040404"/>
<path d="M19.553 33.4528C19.282 34.0467 19.0153 34.6324 18.7486 35.2222C18.7013 35.3302 18.6496 35.4341 18.6023 35.5462C18.5765 35.6085 18.5421 35.6501 18.4604 35.6501C18.3872 35.6501 18.3614 35.6044 18.3399 35.5504C18.0345 34.8899 17.729 34.2254 17.4279 33.5649C17.4107 33.5275 17.3548 33.4735 17.4236 33.4445C17.4795 33.4237 17.5527 33.4071 17.5957 33.4777C17.6301 33.5358 17.6602 33.6023 17.6903 33.6646C17.914 34.1506 18.142 34.6324 18.3657 35.1184C18.3915 35.1724 18.4044 35.2347 18.4819 35.2887C18.6367 34.9647 18.7873 34.649 18.9379 34.3333C19.054 34.0841 19.1745 33.8308 19.282 33.5774C19.3293 33.4528 19.3939 33.3988 19.553 33.4528Z" fill="#050505"/>
<path d="M45.1363 34.6533C45.1363 34.9316 45.1363 35.2057 45.1363 35.484C45.1363 35.5505 45.1707 35.6501 45.0373 35.6418C44.9126 35.6377 44.9384 35.5463 44.9384 35.4715C44.9384 34.9399 44.9255 34.4082 44.9427 33.8765C44.947 33.6855 44.8782 33.6356 44.6975 33.6522C44.5254 33.6647 44.3533 33.6564 44.1813 33.6564C44.1253 33.6564 44.0651 33.6605 44.0608 33.5775C44.0565 33.4902 44.1081 33.4736 44.1813 33.4736C44.7448 33.4736 45.3127 33.4736 45.8762 33.4736C45.9494 33.4736 46.001 33.4902 45.9967 33.5775C45.9924 33.6605 45.9321 33.6564 45.8719 33.6564C45.6869 33.6564 45.4977 33.6605 45.3127 33.6564C45.1793 33.6522 45.1234 33.6855 45.1277 33.8308C45.1449 34.1008 45.1363 34.3791 45.1363 34.6533Z" fill="#080808"/>
<path d="M21.9877 34.5369C21.9877 34.2212 21.9877 33.9014 21.9877 33.5857C21.9877 33.5276 21.9662 33.4528 22.0694 33.4486C22.1856 33.4445 22.1684 33.5234 22.1684 33.5899C22.1684 34.1423 22.177 34.6947 22.1641 35.2472C22.1598 35.4383 22.2243 35.4798 22.405 35.4715C22.7319 35.459 23.0632 35.4673 23.3901 35.4673C23.4547 35.4673 23.5407 35.4424 23.5407 35.5587C23.5364 35.675 23.4504 35.6459 23.3858 35.6459C22.9728 35.6459 22.5556 35.6418 22.1426 35.6501C22.0178 35.6501 21.9877 35.6086 21.9877 35.4923C21.9963 35.1724 21.992 34.8526 21.9877 34.5369Z" fill="#020202"/>
<path d="M41.2174 34.5203C41.2174 34.217 41.2131 33.9138 41.2218 33.6065C41.2218 33.54 41.1658 33.4237 41.3207 33.4278C41.467 33.432 41.4153 33.5441 41.4153 33.6148C41.4196 34.2212 41.4196 34.8318 41.4153 35.4382C41.4153 35.513 41.467 35.6418 41.3078 35.6376C41.1572 35.6335 41.2218 35.5172 41.2218 35.4507C41.2131 35.1433 41.2174 34.8318 41.2174 34.5203Z" fill="#0E0E0E"/>
<path d="M17.0101 34.5495C17.0101 34.8693 17.0101 35.185 17.0101 35.5048C17.0101 35.563 17.0316 35.6336 16.9284 35.6419C16.8165 35.6502 16.8208 35.5796 16.8208 35.5048C16.8208 34.8568 16.8208 34.2047 16.8208 33.5567C16.8208 33.4944 16.8208 33.4321 16.9198 33.4321C17.023 33.4321 17.0144 33.4944 17.0144 33.5567C17.0058 33.8849 17.0058 34.2172 17.0101 34.5495C17.0058 34.5495 17.0058 34.5495 17.0101 34.5495Z" fill="#020202"/>
<path d="M16.6962 22.973C16.6962 22.1215 16.6962 21.27 16.6962 20.4185C16.6962 20.2108 16.6661 20.0072 16.6231 19.8037C16.5629 19.5337 16.3951 19.3676 16.1198 19.2887C15.9004 19.2263 15.6767 19.1848 15.4444 19.1682C15.3239 19.1599 15.2895 19.1017 15.2938 18.9937C15.2981 18.8691 15.3841 18.8899 15.4616 18.8899C16.8081 18.8899 18.1546 18.8899 19.5054 18.8899C19.6086 18.8899 19.6818 18.8941 19.6775 19.027C19.6732 19.1474 19.6258 19.1807 19.5097 19.1807C19.3247 19.1848 19.1397 19.218 18.959 19.2637C18.4944 19.38 18.3439 19.542 18.2922 20.0072C18.2707 20.2149 18.2535 20.4226 18.2535 20.6261C18.2492 22.1422 18.2492 23.6583 18.2535 25.1744C18.2535 25.6396 18.2836 26.1007 18.4041 26.5534C18.6407 27.4465 19.2258 27.9865 20.1636 28.1651C20.8003 28.2855 21.4369 28.2689 22.0564 28.0945C23.0071 27.8286 23.532 27.1931 23.7084 26.2668C23.7729 25.9346 23.8116 25.5939 23.8159 25.2575C23.8245 23.6542 23.8589 22.0467 23.7944 20.4434C23.7901 20.3063 23.7686 20.1692 23.7342 20.0322C23.6051 19.4756 23.3427 19.2845 22.577 19.1807C22.5038 19.1723 22.4006 19.2014 22.3877 19.0934C22.3705 18.9813 22.3533 18.8816 22.5425 18.8816C23.6266 18.8899 24.7064 18.8857 25.7905 18.8857C25.8851 18.8857 25.954 18.8857 25.9497 19.0145C25.9454 19.1225 25.9195 19.189 25.7991 19.1848C25.769 19.1848 25.7432 19.189 25.713 19.1931C24.8441 19.3343 24.6247 19.5628 24.5429 20.4101C24.5171 20.6594 24.5214 20.9086 24.5171 21.1578C24.4999 22.6324 24.5558 24.1069 24.487 25.5773C24.4612 26.1464 24.3493 26.703 24.0826 27.218C23.6481 28.0529 22.9297 28.5431 22.0048 28.7549C21.0412 28.975 20.0732 28.9792 19.1139 28.7383C17.7803 28.4018 17.0361 27.5337 16.7866 26.2461C16.7177 25.8764 16.6919 25.5067 16.6962 25.1329C16.7005 24.4143 16.7005 23.6957 16.6962 22.973Z" fill="#FEFEFE"/>
<path d="M40.447 25.5027C39.8319 25.5027 39.2124 25.5027 38.5972 25.5027C38.494 25.5027 38.4122 25.5027 38.3649 25.6273C38.1455 26.1964 37.9132 26.7613 37.6852 27.3262C37.6637 27.3843 37.6465 27.4425 37.6293 27.5048C37.4916 28.0198 37.6551 28.2774 38.1971 28.3812C38.2961 28.3978 38.395 28.4103 38.494 28.4186C38.6144 28.4269 38.6359 28.4892 38.6359 28.5972C38.6359 28.7177 38.5628 28.7135 38.481 28.7135C37.5561 28.7135 36.6312 28.7135 35.7063 28.7177C35.6203 28.7177 35.5687 28.6969 35.5816 28.6014C35.5902 28.5266 35.5428 28.4227 35.6805 28.4103C36.2527 28.3521 36.5366 27.97 36.7689 27.5172C37.3324 26.4207 37.797 25.2826 38.2961 24.1611C39.0747 22.404 39.8491 20.6387 40.6234 18.8776C40.6664 18.782 40.7094 18.7239 40.8385 18.7197C40.9805 18.7197 41.0364 18.7779 41.088 18.89C42.3055 21.565 43.5229 24.24 44.7446 26.915C44.8737 27.1974 45.0243 27.4757 45.1576 27.7582C45.3383 28.1361 45.648 28.3397 46.0653 28.4061C46.16 28.4227 46.246 28.4352 46.2417 28.5681C46.2374 28.6678 46.2245 28.7218 46.0997 28.7177C45.8072 28.7093 45.5104 28.7177 45.2178 28.7177C44.323 28.7177 43.4239 28.7177 42.5292 28.7177C42.4388 28.7177 42.327 28.755 42.3141 28.593C42.3011 28.431 42.4087 28.4352 42.5162 28.4186C42.6711 28.3978 42.8303 28.3854 42.9852 28.3563C43.2949 28.2981 43.3938 28.1652 43.3723 27.8578C43.3465 27.5422 43.2261 27.2514 43.1056 26.9648C42.9206 26.5245 42.7227 26.0884 42.5421 25.6439C42.4904 25.5235 42.4173 25.4985 42.2968 25.5027C41.6817 25.5069 41.0665 25.5027 40.447 25.5027Z" fill="#FEFEFE"/>
<path d="M32.4628 26.462C32.9962 25.1038 33.5167 23.7829 34.033 22.4579C34.2997 21.7684 34.5922 21.083 34.8288 20.381C34.8891 20.1983 34.9493 20.0114 34.9407 19.812C34.9321 19.5088 34.7686 19.3011 34.4632 19.2305C34.304 19.1931 34.1405 19.1723 33.9771 19.164C33.8566 19.1557 33.8179 19.1183 33.8222 19.002C33.8265 18.8816 33.8996 18.8899 33.9771 18.8899C34.9235 18.8899 35.8699 18.8899 36.8163 18.8899C36.8851 18.8899 36.9669 18.8691 36.9626 18.9854C36.9626 19.0726 36.9669 19.1474 36.8464 19.164C36.2872 19.2305 35.9817 19.5877 35.771 20.0446C35.3279 20.9875 34.9665 21.9636 34.5664 22.9272C33.7792 24.8338 33.0048 26.7403 32.2219 28.6469C32.1832 28.7383 32.1918 28.8712 32.0197 28.8712C31.8519 28.8753 31.8433 28.7466 31.8003 28.6593C30.5484 25.9844 29.2966 23.3094 28.049 20.6303C27.92 20.352 27.7737 20.0861 27.6188 19.8203C27.3994 19.4423 27.0854 19.2138 26.638 19.164C26.5218 19.1515 26.453 19.1308 26.4659 18.9937C26.4788 18.8483 26.5778 18.894 26.6509 18.894C27.8984 18.8899 29.146 18.894 30.3936 18.894C30.4839 18.894 30.5828 18.8691 30.5871 19.0145C30.5914 19.1557 30.5011 19.1432 30.4065 19.1474C30.2559 19.1557 30.1053 19.1682 29.9591 19.1848C29.5332 19.2388 29.3482 19.5005 29.4643 19.9075C29.5891 20.3561 29.8085 20.7715 30.0021 21.191C30.7893 22.894 31.5852 24.5929 32.381 26.2959C32.3939 26.3416 32.4198 26.3831 32.4628 26.462Z" fill="#FEFEFE"/>
<path d="M37.4534 33.3987C36.8382 33.3987 36.3349 33.9096 36.3306 34.5327C36.3263 35.1765 36.8167 35.6749 37.4534 35.6791C38.0858 35.6791 38.5891 35.1806 38.5891 34.541C38.5891 33.9013 38.0858 33.3946 37.4534 33.3987ZM37.4577 35.488C36.9329 35.4922 36.5242 35.0851 36.5242 34.5534C36.5242 34.001 36.92 33.5939 37.4491 33.5939C37.9696 33.5939 38.3783 34.0093 38.3826 34.5327C38.3826 35.0519 37.9653 35.4838 37.4577 35.488Z" fill="#040404"/>
<path d="M21.7471 35.5297C21.433 34.8568 21.1233 34.1839 20.8092 33.5069C20.7877 33.4612 20.7619 33.4279 20.7017 33.4238C20.6243 33.4196 20.6071 33.4778 20.5856 33.5235C20.2801 34.1839 19.979 34.8485 19.6778 35.5089C19.6606 35.5422 19.6004 35.6003 19.6735 35.6294C19.7295 35.6502 19.8026 35.6585 19.8413 35.5879C19.8585 35.5588 19.8714 35.5256 19.8843 35.4923C20.0005 35.2639 20.0306 34.9399 20.2371 34.8277C20.4393 34.7197 20.7533 34.8028 21.0157 34.7904C21.1448 34.782 21.2093 34.8277 21.2523 34.9399C21.3341 35.1434 21.433 35.3428 21.5234 35.5463C21.5578 35.6252 21.618 35.6419 21.6954 35.6335C21.7342 35.6294 21.7686 35.6252 21.7643 35.5754C21.76 35.5671 21.7557 35.5463 21.7471 35.5297ZM20.9856 34.6242C20.8006 34.6242 20.6114 34.6201 20.4264 34.6242C20.2973 34.6284 20.3016 34.5744 20.3446 34.483C20.4565 34.2504 20.564 34.0178 20.6974 33.7312C20.8308 34.0219 20.9426 34.267 21.0588 34.5121C21.1018 34.5951 21.0803 34.6242 20.9856 34.6242Z" fill="#040404"/>
<path d="M43.8674 35.463C43.8115 35.3135 43.7383 35.1722 43.6695 35.0269C43.4372 34.5284 43.2092 34.0341 42.9769 33.5357C42.9554 33.49 42.9468 33.4318 42.8693 33.4235C42.779 33.4194 42.7661 33.4817 42.7403 33.5357C42.693 33.6354 42.6499 33.7392 42.6026 33.8389C42.3316 34.4287 42.0606 35.0227 41.7896 35.6125C41.9186 35.6707 41.9917 35.6333 42.0391 35.5212C42.1251 35.3176 42.224 35.1182 42.3101 34.9147C42.3488 34.8233 42.4004 34.7901 42.4994 34.7943C42.7231 34.7984 42.9425 34.8067 43.1662 34.7943C43.3038 34.786 43.3727 34.8316 43.42 34.9521C43.4974 35.1432 43.5964 35.3301 43.6738 35.5212C43.7168 35.625 43.7899 35.6748 43.8889 35.6292C43.9921 35.5835 43.8846 35.5128 43.8674 35.463ZM43.1231 34.624C42.9382 34.624 42.7532 34.624 42.5682 34.624C42.4865 34.624 42.4434 34.599 42.4822 34.516C42.5983 34.2709 42.7188 34.0258 42.8564 33.7392C42.9898 34.0258 43.0973 34.2667 43.2135 34.5077C43.2608 34.6073 43.2135 34.624 43.1231 34.624Z" fill="#040404"/>
<path d="M31.6325 33.515C31.6067 33.461 31.5766 33.4195 31.5078 33.4278C31.4217 33.4361 31.4174 33.5109 31.3916 33.5649C31.0991 34.1963 30.8108 34.8235 30.5269 35.4548C30.5054 35.5047 30.3936 35.5877 30.5226 35.6376C30.6259 35.6791 30.6689 35.5919 30.7076 35.513C30.7936 35.3177 30.8926 35.1225 30.9743 34.9273C31.013 34.8401 31.0604 34.7985 31.1636 34.8027C31.4002 34.811 31.6368 34.811 31.8734 34.8027C31.9767 34.7985 32.0283 34.8359 32.067 34.9231C32.153 35.1184 32.2477 35.3136 32.3294 35.513C32.3767 35.6251 32.4456 35.6833 32.609 35.621C32.2778 34.9107 31.9552 34.2129 31.6325 33.515ZM31.8046 34.6241C31.5852 34.6199 31.3615 34.6241 31.1034 34.6241C31.2453 34.325 31.3744 34.0467 31.5207 33.7352C31.654 34.0176 31.7702 34.271 31.8863 34.5202C31.9293 34.6075 31.8863 34.6241 31.8046 34.6241Z" fill="#040404"/>
<path d="M40.4604 20.8213C40.9551 21.9594 41.4283 23.0518 41.9015 24.1484C41.9833 24.3395 42.0607 24.5347 42.151 24.7216C42.2113 24.8545 42.2156 24.9085 42.0306 24.9085C40.9852 24.9002 39.9399 24.9044 38.8945 24.9085C38.7267 24.9085 38.7009 24.867 38.7654 24.7216C39.2343 23.6499 39.6989 22.57 40.1635 21.4942C40.2582 21.2865 40.3485 21.0747 40.4604 20.8213Z" fill="#010101"/>
</g>
<defs>
<clipPath id="clip0">
<rect width="44" height="24" fill="white" transform="translate(10.9404 13)"/>
</clipPath>
</defs>
</svg>
