<svg width="111" height="50" viewBox="0 0 111 50" fill="none" xmlns="http://www.w3.org/2000/svg">
<rect width="111" height="50" fill="none"/>
<g clip-path="url(#clip0)">
<path d="M89.854 18.7317L85.6889 23.8964L81.6904 18.7317H70.2446V35.742H78.8581V27.3285L83.4064 33.3263H87.5382L92.1198 27.3285V35.742H100.75V18.7317H89.854Z" fill="#04F9FA"/>
<path d="M61.7311 18.7483H43.1381V35.7253H51.6516V30.294H54.0673C54.2006 30.5106 54.3339 30.7105 54.4672 30.9271C55.6001 32.6931 56.733 35.7253 63.797 35.7253C65.5631 35.7253 68.2621 35.7253 68.2621 35.7253V29.1444H62.6142C61.6978 29.1444 61.2813 28.6113 61.0647 28.1115C62.2143 28.1115 63.0973 28.0948 63.9303 27.7949C64.3135 27.6617 64.6801 27.5117 65.0632 27.3118C65.6464 27.0619 66.2795 26.712 66.8293 26.2455C67.7289 25.4958 68.4453 24.4795 68.4453 23.23V23.03C68.4287 19.6646 65.3965 18.7483 61.7311 18.7483ZM51.6516 23.3799H57.9825C59.1488 23.3799 59.5653 23.8131 59.5653 24.4462C59.5653 25.0626 59.1821 25.5124 57.9825 25.5124H51.6516V23.3799Z" fill="#04F9FA"/>
<path d="M40.6889 18.5815H32.2087V27.0617H40.6889V18.5815Z" fill="#04F9FA"/>
<path d="M32.2088 35.5587C24.4617 35.5587 21.2962 30.9104 18.9804 27.5116C16.8478 24.3795 15.565 22.4802 11 22.4802V14C20.0466 14 23.4954 19.0481 25.9944 22.7301C28.0936 25.8123 29.0766 27.0618 32.2088 27.0618V35.5587Z" fill="#04F9FA"/>
</g>
<defs>
<clipPath id="clip0">
<rect width="89.75" height="21.7419" fill="white" transform="translate(11 14)"/>
</clipPath>
</defs>
</svg>
