<svg width="70" height="65" viewBox="0 0 70 65" fill="none" xmlns="http://www.w3.org/2000/svg">
<path d="M40.9996 36.1788C40.9996 37.6018 40.5375 38.8271 39.6132 39.8548C38.689 40.8826 37.4884 41.5173 36.0115 41.7591V44.2005C36.0115 44.3308 35.9697 44.4377 35.8861 44.5214C35.8025 44.6051 35.6957 44.647 35.5657 44.647H33.6847C33.564 44.647 33.4595 44.6028 33.3712 44.5144C33.283 44.4261 33.2388 44.3215 33.2388 44.2005V41.7591C32.6258 41.6754 32.0336 41.5313 31.4624 41.3267C30.8911 41.122 30.4197 40.9151 30.0482 40.7058C29.6766 40.4966 29.3329 40.2734 29.0171 40.0362C28.7013 39.799 28.4853 39.6247 28.3692 39.513C28.2531 39.4014 28.1718 39.3177 28.1254 39.2619C27.9675 39.0666 27.9582 38.876 28.0975 38.6899L29.5326 36.8066C29.5977 36.7136 29.7045 36.6578 29.8531 36.6392C29.9924 36.6206 30.1039 36.6624 30.1875 36.7647L30.2154 36.7926C31.265 37.7134 32.3936 38.2947 33.6011 38.5365C33.9448 38.6109 34.2885 38.6481 34.6322 38.6481C35.3845 38.6481 36.0464 38.4481 36.6176 38.0482C37.1889 37.6483 37.4745 37.0809 37.4745 36.3462C37.4745 36.0858 37.4048 35.8393 37.2655 35.6068C37.1262 35.3743 36.9706 35.179 36.7987 35.0209C36.6269 34.8627 36.3552 34.6884 35.9837 34.4977C35.6121 34.307 35.3056 34.1582 35.0641 34.0513C34.8226 33.9443 34.451 33.7932 33.9494 33.5979C33.5872 33.4491 33.3015 33.3328 33.0925 33.2491C32.8836 33.1654 32.5979 33.0422 32.2357 32.8794C31.8734 32.7166 31.5831 32.5725 31.3648 32.4469C31.1466 32.3214 30.8842 32.1563 30.5776 31.9517C30.2711 31.747 30.0226 31.5494 29.8322 31.3587C29.6418 31.1681 29.4398 30.9402 29.2261 30.6752C29.0125 30.4101 28.8476 30.1404 28.7315 29.866C28.6154 29.5916 28.5179 29.2824 28.4389 28.9383C28.3599 28.5941 28.3205 28.2314 28.3205 27.8501C28.3205 26.5666 28.7756 25.4412 29.6859 24.474C30.5962 23.5067 31.7805 22.8836 33.2388 22.6046V20.0934C33.2388 19.9725 33.283 19.8679 33.3712 19.7795C33.4595 19.6912 33.564 19.647 33.6847 19.647H35.5657C35.6957 19.647 35.8025 19.6888 35.8861 19.7725C35.9697 19.8562 36.0115 19.9632 36.0115 20.0934V22.5488C36.541 22.6046 37.0542 22.7115 37.5511 22.8696C38.0481 23.0277 38.4521 23.1835 38.7633 23.337C39.0745 23.4904 39.3694 23.6648 39.6481 23.8601C39.9267 24.0555 40.1079 24.1903 40.1915 24.2647C40.2751 24.3391 40.3447 24.4042 40.4005 24.46C40.5584 24.6274 40.5816 24.8042 40.4701 24.9902L39.3415 27.027C39.2672 27.1665 39.1604 27.2409 39.0211 27.2502C38.891 27.2781 38.7656 27.2456 38.6449 27.1526C38.617 27.1247 38.5497 27.0688 38.4429 26.9851C38.336 26.9014 38.1549 26.7782 37.8995 26.6154C37.644 26.4527 37.3723 26.3039 37.0844 26.169C36.7964 26.0342 36.4504 25.9132 36.0464 25.8063C35.6423 25.6993 35.2452 25.6459 34.8551 25.6459C33.9727 25.6459 33.2528 25.8458 32.6955 26.2457C32.1381 26.6457 31.8595 27.1619 31.8595 27.7943C31.8595 28.0361 31.8989 28.2593 31.9779 28.4639C32.0569 28.6685 32.1939 28.8615 32.3889 29.0429C32.584 29.2243 32.7674 29.3777 32.9393 29.5033C33.1111 29.6288 33.3712 29.773 33.7195 29.9358C34.0679 30.0985 34.3488 30.2241 34.5625 30.3124C34.7761 30.4008 35.1012 30.5287 35.5378 30.6961C36.0301 30.8821 36.4063 31.0286 36.6664 31.1355C36.9265 31.2425 37.2794 31.4052 37.7253 31.6238C38.1712 31.8424 38.5218 32.04 38.7772 32.2167C39.0327 32.3934 39.3206 32.626 39.6411 32.9143C39.9616 33.2026 40.2077 33.4979 40.3796 33.8002C40.5514 34.1024 40.6977 34.4582 40.8184 34.8674C40.9392 35.2766 40.9996 35.7138 40.9996 36.1788Z" fill="white" stroke="white"/>
<path d="M20.1776 19.8266C20.0681 19.4538 19.815 19.1397 19.4739 18.9535C19.1329 18.7673 18.7318 18.7241 18.359 18.8336L9.92389 21.3105C9.55715 21.4251 9.25011 21.6792 9.06891 22.018C8.8877 22.3569 8.84682 22.7533 8.95508 23.122C9.06334 23.4907 9.31207 23.8021 9.64771 23.9892C9.98334 24.1762 10.379 24.224 10.7495 24.1222L14.7145 22.9579C12.7753 27.0319 12.1368 31.6041 12.8857 36.0536C13.6346 40.5031 15.7346 44.6143 18.9006 47.8291C22.0667 51.0439 26.1453 53.2066 30.5828 54.0234C35.0203 54.8402 39.6017 54.2717 43.705 52.395C44.0587 52.2339 44.3338 51.9388 44.47 51.5748C44.6061 51.2108 44.5921 50.8076 44.4309 50.4539C44.2698 50.1002 43.9748 49.825 43.6107 49.6889C43.2467 49.5527 42.8435 49.5668 42.4898 49.7279C38.8362 51.4009 34.7471 51.8757 30.8074 51.0844C26.8676 50.2931 23.279 48.2763 20.5547 45.3224C17.8303 42.3685 16.1098 38.6287 15.6392 34.6379C15.1686 30.6471 15.972 26.6098 17.9344 23.1031C17.9682 23.0414 17.9995 22.9717 18.0241 22.9083L19.8428 29.0873C19.9575 29.4541 20.2116 29.7611 20.5504 29.9423C20.8893 30.1235 21.2857 30.1644 21.6544 30.0561C22.0231 29.9479 22.3345 29.6991 22.5215 29.3635C22.7086 29.0279 22.7564 28.6322 22.6545 28.2617L20.1776 19.8266ZM48.9466 44.9787C49.0561 45.3515 49.3093 45.6656 49.6503 45.8518C49.9914 46.038 50.3924 46.0811 50.7653 45.9717L59.2003 43.4948C59.5671 43.3802 59.8741 43.1261 60.0553 42.7872C60.2365 42.4484 60.2774 42.052 60.1692 41.6833C60.0609 41.3146 59.8122 41.0032 59.4765 40.8161C59.1409 40.6291 58.7452 40.5813 58.3747 40.6831L54.4097 41.8474C56.3489 37.7733 56.9875 33.2012 56.2386 28.7517C55.4897 24.3022 53.3897 20.191 50.2236 16.9762C47.0576 13.7613 42.9789 11.5987 38.5414 10.7819C34.1039 9.96504 29.5225 10.5336 25.4193 12.4103C25.2441 12.4901 25.0864 12.6036 24.9552 12.7443C24.8239 12.885 24.7217 13.0502 24.6543 13.2305C24.5869 13.4107 24.5556 13.6025 24.5623 13.7948C24.569 13.9872 24.6135 14.1763 24.6933 14.3514C24.7731 14.5265 24.8866 14.6842 25.0273 14.8155C25.168 14.9467 25.3333 15.049 25.5135 15.1164C25.6938 15.1838 25.8855 15.2151 26.0778 15.2084C26.2702 15.2017 26.4593 15.1572 26.6344 15.0774C30.288 13.4044 34.3771 12.9296 38.3169 13.7209C42.2566 14.5122 45.8452 16.529 48.5696 19.4829C51.2939 22.4368 53.0144 26.1766 53.485 30.1674C53.9557 34.1581 53.1523 38.1955 51.1898 41.7022C51.1553 41.7649 51.1254 41.83 51.1001 41.897L49.2854 35.7168C49.2338 35.5292 49.1454 35.3537 49.0253 35.2006C48.9052 35.0475 48.7558 34.9199 48.5858 34.8251C48.4158 34.7304 48.2287 34.6705 48.0353 34.6488C47.8419 34.6272 47.6462 34.6443 47.4595 34.6991C47.2728 34.7539 47.0989 34.8454 46.9479 34.9681C46.7969 35.0909 46.6719 35.2425 46.5801 35.4141C46.4884 35.5857 46.4317 35.7738 46.4134 35.9675C46.3951 36.1613 46.4156 36.3567 46.4737 36.5424L48.948 44.9761L48.9466 44.9787Z" fill="white"/>
</svg>
