<svg width="83" height="63" viewBox="0 0 83 63" fill="none" xmlns="http://www.w3.org/2000/svg">
<path opacity="0.3" d="M53.524 22.4137H28.7209C28.4677 22.4137 28.2248 22.3134 28.0452 22.1351C27.8657 21.9568 27.764 21.715 27.7625 21.462L31.5281 7.4574C31.5274 7.33195 31.5515 7.20754 31.599 7.09143C31.6465 6.97532 31.7166 6.8697 31.8052 6.78073C31.8937 6.69176 31.9989 6.62132 32.1149 6.57314C32.2308 6.52496 32.3552 6.5 32.4808 6.5H49.9556C50.2088 6.50149 50.4512 6.60301 50.6297 6.78238C50.8082 6.96175 50.9084 7.20448 50.9083 7.4574L54.5329 21.462C54.5315 21.715 54.4299 21.9568 54.2503 22.1351C54.0708 22.3134 53.8279 22.4137 53.5747 22.4137H53.524ZM40.2825 37.5107L36.6578 23.3653C36.6578 23.1129 36.5575 22.8709 36.3788 22.6925C36.2001 22.514 35.9579 22.4137 35.7052 22.4137H18.2303C17.9776 22.4137 17.7353 22.514 17.5566 22.6925C17.378 22.8709 17.2776 23.1129 17.2776 23.3653L13.5121 37.5107C13.5121 37.7646 13.6131 38.0081 13.7928 38.1877C13.9725 38.3672 14.2162 38.4678 14.4704 38.4678H39.2734C39.5276 38.4678 39.7713 38.3672 39.951 38.1877C40.1307 38.0081 40.2317 37.7646 40.2317 37.5107H40.2825ZM68.6256 37.5107L65.0066 23.3653C65.0066 23.1129 64.9063 22.8709 64.7276 22.6925C64.549 22.514 64.3066 22.4137 64.0539 22.4137H46.5791C46.3264 22.4137 46.0841 22.514 45.9055 22.6925C45.7268 22.8709 45.6264 23.1129 45.6264 23.3653L41.8665 37.5107C41.8657 37.6362 41.8898 37.7606 41.9374 37.8767C41.9849 37.9928 42.055 38.0981 42.1435 38.1871C42.232 38.2761 42.3374 38.3468 42.4533 38.395C42.5693 38.4431 42.6936 38.4678 42.8192 38.4678H67.6223C67.8754 38.4663 68.1177 38.3648 68.2962 38.1855C68.4747 38.0061 68.5749 37.7636 68.5749 37.5107H68.6256ZM26.7648 53.3171L23.1458 39.1717C23.1458 38.9193 23.0454 38.6774 22.8668 38.4989C22.6881 38.3204 22.4458 38.2201 22.1931 38.2201H4.71822C4.59264 38.2194 4.46817 38.2435 4.35193 38.291C4.2357 38.3385 4.13003 38.4085 4.04097 38.497C3.95191 38.5854 3.88125 38.6905 3.83302 38.8063C3.7848 38.9221 3.75994 39.0463 3.75995 39.1717L0 53.3171C0 53.5695 0.100373 53.8118 0.279032 53.9902C0.457691 54.1687 0.700037 54.2688 0.952699 54.2688H25.7558C26.0084 54.2688 26.2507 54.1687 26.4294 53.9902C26.608 53.8118 26.7084 53.5695 26.7084 53.3171H26.7648ZM55.1079 53.3171L51.4833 39.1717C51.4841 39.0465 51.4599 38.9227 51.4123 38.8069C51.3647 38.6911 51.2946 38.5858 51.206 38.4973C51.1173 38.4087 51.012 38.3386 50.8961 38.291C50.7802 38.2435 50.656 38.2193 50.5306 38.2201H33.0557C32.8031 38.2201 32.5608 38.3204 32.3821 38.4989C32.2035 38.6774 32.1031 38.9193 32.1031 39.1717L28.3375 53.3171C28.339 53.5701 28.4406 53.8122 28.6202 53.9905C28.7998 54.1688 29.0427 54.2688 29.2959 54.2688H54.0989C54.3521 54.2688 54.595 54.1688 54.7745 53.9905C54.9541 53.8122 55.0557 53.5701 55.0572 53.3171H55.1079ZM82.5097 53.3171L78.8907 39.1717C78.8907 39.0463 78.8659 38.9221 78.8177 38.8063C78.7694 38.6905 78.6988 38.5854 78.6097 38.497C78.5206 38.4085 78.415 38.3385 78.2987 38.291C78.1825 38.2435 78.058 38.2194 77.9324 38.2201H60.4575C60.2048 38.2201 59.9626 38.3204 59.7839 38.4989C59.6052 38.6774 59.5049 38.9193 59.5049 39.1717L55.7449 53.3171C55.7449 53.5695 55.8453 53.8118 56.024 53.9902C56.2026 54.1687 56.445 54.2688 56.6976 54.2688H81.5288C81.7815 54.2688 82.0239 54.1687 82.2025 53.9902C82.3812 53.8118 82.4815 53.5695 82.4815 53.3171" fill="#F0C4CA"/>
<path fill-rule="evenodd" clip-rule="evenodd" d="M35.7052 22.4137H46.5791C46.3264 22.4137 46.0841 22.514 45.9055 22.6925C45.7268 22.8709 45.6264 23.1129 45.6264 23.3653L41.8665 37.5107C41.8657 37.6362 41.8898 37.7606 41.9374 37.8767C41.9849 37.9928 42.055 38.0981 42.1435 38.1871L64.7276 22.6925C64.549 22.514 64.3066 22.4137 64.0539 22.4137H53.5747C53.8278 22.4137 54.0708 22.3134 54.2503 22.1351C54.4299 21.9568 54.5315 21.715 54.5329 21.462L50.9083 7.4574C50.9084 7.20448 50.8082 6.96175 50.6297 6.78238C50.4512 6.60301 50.2088 6.50149 49.9556 6.5H32.4808C32.3552 6.5 32.2308 6.52496 32.1149 6.57314C31.9989 6.62132 31.8937 6.69176 31.8052 6.78073C31.7166 6.8697 31.6465 6.97532 31.599 7.09143C31.5515 7.20754 31.5274 7.33195 31.5281 7.4574L27.7625 21.462C27.764 21.715 27.8657 21.9568 28.0452 22.1351C28.2248 22.3134 28.4677 22.4137 28.7209 22.4137H18.2303C17.9776 22.4137 17.7353 22.514 17.5566 22.6925C17.378 22.8709 17.2776 23.1129 17.2776 23.3653L13.5121 37.5107C13.5121 37.7646 13.6131 38.0081 13.7928 38.1877C13.8039 38.1988 13.8153 38.2096 13.8269 38.2201H4.71822C4.59264 38.2194 4.46817 38.2435 4.35193 38.291C4.2357 38.3385 4.13003 38.4085 4.04097 38.497C3.95191 38.5854 3.88125 38.6905 3.83302 38.8063C3.7848 38.9221 3.75994 39.0463 3.75995 39.1717L0 53.3171C0 53.5695 0.100373 53.8118 0.279032 53.9902C0.457691 54.1687 0.700037 54.2688 0.952699 54.2688L22.8668 38.4989C22.8561 38.4883 22.8453 38.4779 22.8342 38.4678C22.6592 38.3088 22.4307 38.2201 22.1931 38.2201H13.8269L36.3788 22.6925C36.2001 22.514 35.9579 22.4137 35.7052 22.4137ZM68.2599 38.2201H60.4575C60.2199 38.2201 59.9915 38.3088 59.8165 38.4678C59.8094 38.4743 59.8023 38.4809 59.7954 38.4876L59.7839 38.4989C59.6052 38.6774 59.5049 38.9193 59.5049 39.1717L55.7449 53.3171C55.7449 53.5695 55.8453 53.8118 56.024 53.9902L78.6097 38.497C78.5206 38.4085 78.415 38.3385 78.2987 38.291C78.1825 38.2435 78.058 38.2194 77.9324 38.2201H68.2599ZM42.178 38.2201H39.9169H33.0557C32.8181 38.2201 32.5897 38.3088 32.4148 38.4678C32.4037 38.4779 32.3928 38.4883 32.3821 38.4989C32.2035 38.6774 32.1031 38.9193 32.1031 39.1717L28.3375 53.3171C28.339 53.5701 28.4406 53.8122 28.6202 53.9905L50.6452 38.4678H51.1752C51.0933 38.3931 50.9989 38.3332 50.8961 38.291C50.7802 38.2435 50.656 38.2193 50.5306 38.2201H42.178Z" fill="#F0C4CA"/>
<path d="M50.8078 7.06258L54.7238 20.5827C55.0016 21.5421 54.2818 22.5 53.283 22.5H28.0238C27.5323 22.5 27.3358 21.8652 27.7413 21.5875L49.5873 6.62511C50.0369 6.31716 50.6561 6.53911 50.8078 7.06258Z" fill="#FBEDEF"/>
</svg>
