<svg width="64" height="54" viewBox="0 0 64 54" fill="none" xmlns="http://www.w3.org/2000/svg">
<path d="M13.8291 31.0037C13.8133 31.0018 13.7994 30.9923 13.7919 30.9783C13.6829 30.7768 13.5855 30.6085 13.494 30.4346C13.1023 29.6048 12.4505 28.9203 11.6342 28.4815C11.0002 28.1039 10.2636 27.9267 9.52385 27.9734C8.7841 28.0201 8.07674 28.2884 7.49706 28.7427L7.19343 28.9604C6.86448 29.1968 6.86444 29.2029 6.59876 28.8857C5.75109 27.8719 4.91608 26.8521 4.06842 25.8445C4.02418 25.792 4 25.7258 4 25.6577C4 25.5228 4.10228 25.4124 4.16963 25.2955C5.21538 23.4804 6.25921 21.673 7.301 19.8734C8.31313 18.1029 9.32734 16.3304 10.3437 14.5557C11.2862 12.9074 12.2414 11.2714 13.184 9.62935C13.2979 9.43031 13.3865 9.3557 13.6268 9.49876C14.424 10.0467 15.2975 10.4783 16.2204 10.7801C17.2199 11.0413 18.232 11.2154 19.2441 11.402C19.6933 11.4953 20.1487 11.5699 20.5979 11.6632C20.8383 11.7068 20.8636 11.7753 20.7244 11.9806C20.0918 12.8949 19.4593 13.8029 18.8267 14.7172C17.9766 15.8235 17.273 17.0314 16.7328 18.3121C16.4966 19.013 16.4316 19.7588 16.5431 20.489C16.6303 20.8607 16.8247 21.1999 17.1029 21.4657C17.3811 21.7316 17.7315 21.913 18.1119 21.9881C19.0828 22.1596 20.08 22.1216 21.0344 21.8763C22.988 21.3863 24.7657 20.3745 26.171 18.9529C26.9238 18.2252 27.5626 17.3918 28.2648 16.6205C28.3845 16.4874 28.5371 16.3866 28.7077 16.328C29.4288 16.0979 30.1626 15.8864 30.8964 15.7061C31.0257 15.6638 31.1655 15.6638 31.2949 15.7061C33.8252 16.95 36.267 18.2438 38.6645 19.6681C41.062 21.0924 43.371 22.5603 45.623 24.165C47.565 25.5582 49.5071 26.9641 51.4238 28.3946C52.3853 29.1161 53.3215 29.8997 54.2325 30.6772C54.6996 31.0331 55.0476 31.5182 55.2319 32.0703C55.384 32.6013 55.355 33.1669 55.1494 33.6802C54.9437 34.1935 54.5728 34.6265 54.0933 34.9129C53.8169 35.0485 53.5159 35.1288 53.2077 35.1492C52.756 35.1969 52.3019 35.2197 51.8476 35.2175C51.7241 35.2168 51.6027 35.1868 51.4934 35.1304C49.5956 34.0232 47.7485 32.9038 45.8634 31.8091C43.9783 30.7144 42.2576 29.7441 40.4484 28.6992C40.2078 28.5639 39.9506 28.4594 39.683 28.3882C39.4011 28.3065 39.2374 28.3243 39.1178 28.4538C39.0166 28.5634 38.9422 28.7033 38.9197 28.8508C38.9084 28.9248 38.9133 29.0005 38.9343 29.0725C38.9553 29.1444 38.9918 29.2109 39.0413 29.2677C39.1401 29.3814 39.2846 29.4432 39.4106 29.5257C39.9284 29.8648 40.4434 30.2062 40.9735 30.5278C43.8581 32.2569 46.7426 33.9862 49.6399 35.6904C49.8043 35.7625 49.9416 35.8834 50.0324 36.0363C50.2115 36.3379 50.1736 36.7188 50.1539 37.069C50.1374 37.3622 50.0861 37.6531 50.0005 37.9356C49.8144 38.3758 49.5077 38.7564 49.1146 39.0353C48.7214 39.3143 48.2573 39.4806 47.7738 39.5155C46.9959 39.6252 46.2032 39.4693 45.5281 39.0739C44.0478 38.2446 42.5718 37.4153 41.1 36.586L36.7794 34.2038C36.6941 34.1646 36.6016 34.1427 36.5076 34.1394C36.4135 34.1361 36.3197 34.1516 36.2317 34.1846C36.1438 34.2177 36.0635 34.2677 35.9957 34.3319C35.9278 34.3961 35.8739 34.4731 35.8369 34.5582C35.7993 34.6214 35.7756 34.6919 35.7674 34.7647C35.7592 34.8375 35.7667 34.9111 35.7893 34.9809C35.812 35.0507 35.8494 35.1152 35.899 35.1698C35.9486 35.2245 36.0093 35.2682 36.0773 35.2983C37.0198 35.883 37.975 36.4553 38.9239 37.0151C40.6888 38.0476 42.4727 39.0489 44.2312 40.0876C44.5656 40.2903 44.8701 40.5373 45.1359 40.8217C45.199 40.8959 45.2448 40.9827 45.2699 41.0762C45.2951 41.1697 45.299 41.2674 45.2814 41.3626C45.1724 41.8106 45.0111 42.2448 44.8006 42.6563C44.5886 42.9999 44.2879 43.2822 43.929 43.4745C43.5701 43.6668 43.1659 43.7622 42.7573 43.7512C42.0246 43.7985 41.292 43.6569 40.6319 43.3406C38.7341 42.4947 36.8996 41.6238 35.0272 40.7655C34.5401 40.5416 34.034 40.3301 33.528 40.1435C33.3694 40.0718 33.1883 40.0649 33.0246 40.1244C32.8609 40.1839 32.728 40.305 32.655 40.4609C32.582 40.6168 32.575 40.7946 32.6355 40.9556C32.696 41.1166 32.8191 41.2474 32.9776 41.3191C34.0846 41.8789 35.2043 42.4326 36.3177 42.9861C37.431 43.5397 38.5823 44.1057 39.702 44.6717C40.0626 44.8521 40.0752 44.9389 39.8221 45.225C39.2761 45.9091 38.5826 46.4657 37.7916 46.8547C37.151 47.0871 36.4673 47.1826 35.7862 47.1347C34.2824 47.1015 32.7912 46.8565 31.3582 46.407C30.7256 46.2329 30.1626 46.0213 29.568 45.8285C29.3592 45.7663 29.2959 45.648 29.4098 45.4552C29.5237 45.2624 29.7261 44.9141 29.8779 44.6404C30.228 44.0381 30.4004 43.352 30.3758 42.6588C30.3513 41.9655 30.1307 41.2925 29.7388 40.7157C29.4073 40.1554 28.9501 39.6772 28.4019 39.3172C27.8538 38.9571 27.2292 38.7249 26.5758 38.6384L26.2786 38.595C25.8927 38.5203 25.9053 38.5203 25.9243 38.1409C25.9741 37.4506 25.8467 36.7591 25.5538 36.1298C25.2609 35.5006 24.8118 34.9538 24.2479 34.5397C23.7193 34.1019 23.0856 33.8043 22.4071 33.675C22.2239 33.6595 22.0398 33.6595 21.8567 33.675C21.6733 33.675 21.6101 33.6067 21.6037 33.4263C21.6016 32.9566 21.5741 32.4873 21.5215 32.0205C21.3902 31.2652 21.0462 30.5612 20.5285 29.9884C20.0107 29.4156 19.3401 28.997 18.5926 28.78C17.7832 28.536 16.9149 28.5579 16.1192 28.8423C15.5344 29.0786 15.0299 29.4734 14.6642 29.9805L14.0316 30.8078C13.9905 30.8598 13.9439 30.9064 13.8716 30.9875C13.8609 30.9995 13.845 31.0056 13.8291 31.0037ZM35.0051 8.05101C35.0068 8.07711 34.9859 8.09913 34.9598 8.09895C32.8289 8.08452 30.7002 8.23645 28.5938 8.55334C27.6069 8.71505 26.6391 8.94518 25.6649 9.17532C24.8623 9.35668 24.1634 9.83875 23.7165 10.5189C22.9827 11.5451 22.2046 12.534 21.4772 13.5665C20.5663 14.8602 19.687 16.1728 18.795 17.4851C18.2758 18.1621 18.012 18.9954 18.0486 19.8424C18.0929 20.4084 18.2447 20.6197 18.833 20.6943C18.9172 20.7005 19.0018 20.7005 19.086 20.6943C20.3858 20.6873 21.6605 20.3418 22.7803 19.693C24.5913 18.652 26.1243 17.2024 27.2527 15.4637C27.3246 15.3567 27.4284 15.2739 27.55 15.2271C28.4925 14.9224 29.4477 14.6052 30.3966 14.3315C30.6245 14.2381 30.8702 14.1942 31.117 14.2028C31.3637 14.2113 31.6057 14.2723 31.8263 14.3813C33.2306 15.1215 34.6666 15.7994 36.0583 16.5582C37.6398 17.4103 39.2212 18.2813 40.7394 19.2205C42.4263 20.2612 44.0879 21.3455 45.7242 22.4734C47.7232 23.8604 49.6905 25.2908 51.6515 26.7276C52.6857 27.4858 53.6859 28.2995 54.6896 29.0796C54.8063 29.1702 54.9131 29.297 55.0602 29.3106C55.1349 29.3175 55.2097 29.297 55.2699 29.2529C55.5419 29.0912 55.8265 28.9481 56.0922 28.7739C57.466 27.8139 58.7292 26.7094 59.8591 25.4802C59.9288 25.4043 60 25.3191 60 25.2161C60 25.1642 59.9876 25.1132 59.9637 25.067C59.7992 24.7498 59.6094 24.4449 59.4323 24.1401L55.2699 16.9066C53.9373 14.5845 52.5983 12.2624 51.253 9.94033C50.8228 9.19396 50.8102 9.18175 49.9878 9.39945C48.8807 9.71206 47.7195 9.79445 46.5782 9.6418C45.4522 9.46764 44.3325 9.23751 43.2191 9.01982C41.8717 8.76481 40.5433 8.44142 39.1896 8.27971C37.8523 8.11996 36.4348 8.08785 35.0528 8.00315C35.0258 8.00149 35.0034 8.02394 35.0051 8.05101ZM14.2286 40.9541C14.2322 40.9487 14.2371 40.9442 14.2427 40.9409C14.5255 40.777 14.779 40.5685 14.9932 40.3239C15.6384 39.5361 16.271 38.7337 16.8909 37.9168C17.8335 36.6728 18.7887 35.3981 19.6807 34.1354C19.9877 33.7901 20.1623 33.35 20.1741 32.8915C20.1707 32.4651 20.072 32.0445 19.8851 31.6597C19.6981 31.2749 19.4275 30.9354 19.0923 30.6648C18.8344 30.4415 18.5336 30.2714 18.2076 30.1646C17.8816 30.0577 17.5371 30.0164 17.1946 30.0428C16.9111 30.0829 16.6409 30.1868 16.405 30.3465C16.1691 30.5062 15.9739 30.7173 15.8346 30.9633C14.2109 33.1153 12.5936 35.2715 10.9826 37.4318C10.8327 37.6585 10.7374 37.9159 10.7042 38.1844C10.6662 38.9383 10.9329 39.6764 11.4459 40.238C11.9128 40.749 12.5495 41.076 13.2379 41.1633C13.374 41.1806 13.5122 41.1742 13.6464 41.1455C13.8392 41.1044 14.0278 41.0456 14.2097 40.9697C14.2174 40.9665 14.2239 40.961 14.2286 40.9541ZM24.3048 37.071C24.1596 36.5797 23.8758 36.1391 23.4861 35.8C23.3088 35.6457 23.1128 35.5152 22.9035 35.4112C22.4008 35.1613 21.8125 34.9907 21.272 35.1422C20.9996 35.2186 20.7563 35.3724 20.5726 35.5844C19.0942 37.3024 17.7151 39.1008 16.4418 40.9708C16.211 41.3008 16.0975 41.6966 16.1192 42.0966C16.1292 42.6172 16.2914 43.1238 16.5865 43.5562C16.8815 43.9885 17.2968 44.3282 17.7829 44.5347C18.8583 45.0074 19.6806 44.8769 20.3512 44.0373C20.4207 43.9564 20.503 43.8817 20.5663 43.7946C21.7471 42.1982 22.9258 40.5975 24.1024 38.9928C24.3359 38.6719 24.46 38.2868 24.4567 37.8922C24.4287 37.6149 24.3779 37.3402 24.3048 37.071ZM28.9316 42.5382C28.9265 42.5382 28.9222 42.5345 28.9214 42.5294C28.9132 42.475 28.8988 42.4216 28.8785 42.3702C28.7628 41.9289 28.5498 41.5178 28.2546 41.1664C27.9595 40.8149 27.5893 40.5316 27.1704 40.3364C26.8099 40.134 26.3908 40.0567 25.9802 40.1165C25.5695 40.1763 25.1912 40.3698 24.9058 40.6662C23.8959 41.8129 22.9819 43.0378 22.173 44.3294C21.959 44.6308 21.8564 44.9953 21.882 45.362C21.9258 45.8238 22.0798 46.2689 22.3315 46.6612C22.5832 47.0535 22.9256 47.3819 23.3307 47.6197C23.7523 47.9223 24.2771 48.0519 24.7941 47.9811C25.3111 47.9103 25.7799 47.6447 26.1014 47.2404C26.9894 46.1875 27.8172 45.0871 28.5811 43.944C28.8187 43.6295 28.9454 43.2473 28.9417 42.8556V42.5483C28.9417 42.5427 28.9372 42.5382 28.9316 42.5382ZM10.369 29.5326C10.0217 29.3982 9.63946 29.3779 9.27929 29.4743C8.91912 29.5706 8.60022 29.7788 8.37003 30.0677C7.8007 30.8099 7.23979 31.556 6.68733 32.3066C6.45923 32.6059 6.32463 32.9643 6.29992 33.3376C6.27521 33.7109 6.36147 34.0832 6.54818 34.4091C6.75031 34.8652 7.06608 35.2636 7.46632 35.568C7.86656 35.8724 8.33836 36.0728 8.83813 36.1505C9.11281 36.2025 9.39683 36.1784 9.65829 36.0806C9.91975 35.9829 10.1483 35.8152 10.3184 35.5968C10.9509 34.8256 11.5836 34.0296 12.1719 33.2335C12.3782 32.9482 12.4726 32.5991 12.4376 32.2507C12.4543 31.6348 12.2591 31.0314 11.8837 30.5381C11.5083 30.0449 10.9746 29.6906 10.369 29.5326Z" fill="white"/>
</svg>
