<svg width="82" height="64" viewBox="0 0 82 64" fill="none" xmlns="http://www.w3.org/2000/svg">
<path d="M28.4127 24.1184L28.901 24.0049C28.9924 23.6489 28.9911 23.2757 28.8973 22.9203C28.8034 22.5649 28.6201 22.239 28.3645 21.9731C28.1453 21.6244 27.9902 21.24 27.9063 20.8377H38.9192C38.9903 21.0436 39.0008 21.2651 38.9496 21.4767C38.8983 21.6884 38.7875 21.8814 38.6299 22.0329C38.3672 22.2803 38.1787 22.5949 38.0851 22.9419C37.9915 23.2888 37.9964 23.6547 38.0994 23.999L38.5093 24.0886C38.5876 24.4532 38.6057 24.7697 38.2139 24.9789C38.1235 25.0267 38.0692 25.2241 38.0692 25.3556C38.0692 31.3316 38.0692 37.2877 38.0692 43.2239C38.0641 43.3055 38.0641 43.3871 38.0692 43.4687H38.4249C39.0276 43.4687 39.1964 43.7678 39.106 44.3295C39.1019 44.5029 39.1391 44.6748 39.2145 44.8314C39.2869 45.0346 39.4616 45.2258 39.4677 45.429C39.4677 46.4748 39.54 46.2656 38.66 46.2656H27.5266C27.5266 45.7038 27.3277 45.1661 27.8159 44.7298C27.8524 44.69 27.879 44.6422 27.8937 44.5904C27.9083 44.5385 27.9106 44.4839 27.9003 44.431C27.7798 43.6303 27.9003 43.4868 28.696 43.4629C28.7662 43.4673 28.8367 43.4673 28.907 43.4629V25.5348C28.9219 25.4015 28.9019 25.2667 28.8492 25.1432C28.7964 25.0197 28.7125 24.9116 28.6056 24.8295C28.4549 24.704 28.4549 24.3873 28.3826 24.1304L28.4127 24.1184ZM43.4882 24.8175C43.6115 24.9076 43.7079 25.029 43.7673 25.1689C43.8268 25.3088 43.847 25.4621 43.8258 25.6124C43.8258 31.3852 43.8258 37.1621 43.8258 42.9429V43.4807C43.6993 43.4807 43.6208 43.4807 43.5425 43.4807C42.8131 43.5105 42.6564 43.7138 42.789 44.4249C42.7998 44.4817 42.799 44.54 42.7866 44.5965C42.7741 44.653 42.7504 44.7066 42.7167 44.7538C42.2525 45.19 42.3791 45.7159 42.4273 46.2478H54.3444C54.3444 45.698 54.5252 45.148 54.0249 44.7237C53.9586 44.664 53.9887 44.4608 54.0249 44.3353C54.1454 43.8214 53.9224 43.5107 53.4221 43.4868C53.2955 43.4868 53.1689 43.4868 52.9941 43.4868V35.1802C52.9941 31.9491 52.9941 28.718 52.9941 25.4869C52.9919 25.289 53.0554 25.0958 53.1749 24.9372C53.6149 24.5009 53.5728 24.1781 53.0183 23.9451C52.9236 23.5896 52.9297 23.2153 53.0361 22.8631C53.1424 22.5109 53.3449 22.1946 53.621 21.9492C53.9767 21.6444 53.9224 21.2439 53.8681 20.8316H43.0181C42.9439 21.0544 42.9375 21.2939 42.9997 21.5202C43.0618 21.7466 43.1899 21.9497 43.3677 22.1044C43.9705 22.6124 43.9343 23.2999 43.8439 23.999L43.3375 24.1064C43.4099 24.3754 43.3978 24.7041 43.5425 24.7997L43.4882 24.8175ZM67.8888 43.1401C67.8888 37.2358 67.8888 31.3314 67.8888 25.4271C67.8888 25.2419 68.0818 25.0566 68.1601 24.8654C68.2385 24.6742 68.3228 24.3694 68.4072 24.1184L67.9009 23.981C67.8105 22.8216 67.7924 22.7857 68.5037 22.0029C68.6427 21.8401 68.7391 21.6461 68.7843 21.4376C68.8295 21.2292 68.8222 21.0126 68.7629 20.8077H57.9128C57.8387 21.0132 57.8266 21.2359 57.878 21.4482C57.9294 21.6604 58.042 21.853 58.2022 22.0029C58.4682 22.2505 58.6588 22.5672 58.7526 22.9168C58.8463 23.2664 58.8394 23.635 58.7326 23.981L58.2624 24.1064C58.3348 24.3634 58.3287 24.704 58.4794 24.8056C58.5847 24.8912 58.6665 25.0021 58.7171 25.1274C58.7677 25.2528 58.7854 25.3888 58.7688 25.5228V42.949C58.7688 43.1163 58.7688 43.2895 58.7688 43.4509H58.5638C57.7682 43.4808 57.6476 43.6303 57.7922 44.431C57.8027 44.4752 57.8032 44.5209 57.7939 44.5653C57.7845 44.6097 57.7654 44.6515 57.738 44.6878C57.2196 45.1181 57.3884 45.6681 57.4125 46.2239H69.3295C69.3295 45.6741 69.5043 45.1422 69.016 44.7059C68.9437 44.6342 68.9618 44.4251 69.016 44.2816C69.1125 43.7498 68.9015 43.4806 68.359 43.4567H67.9672C67.9672 43.3193 67.9672 43.2238 67.9672 43.1282L67.8888 43.1401ZM13.8675 24.8534C13.9519 25.0745 14.1388 25.2897 14.1388 25.5109C14.1388 31.3196 14.1388 37.1283 14.1388 42.937C14.1388 43.1103 14.1388 43.2777 14.1388 43.4451C14.0364 43.4451 13.9881 43.4451 13.9459 43.4451C13.1321 43.4749 13.0056 43.6362 13.1442 44.4191C13.1547 44.4692 13.1536 44.5209 13.1411 44.5705C13.1285 44.6202 13.1049 44.6666 13.0719 44.7059C12.5776 45.1302 12.7404 45.6679 12.7584 46.2058H24.579C24.579 45.644 24.7418 45.0942 24.2354 44.6759C24.1751 44.6221 24.1872 44.449 24.2354 44.3415C24.3801 43.7439 24.1691 43.4749 23.5723 43.4451C23.4578 43.4451 23.3493 43.4451 23.2167 43.4451C23.2167 43.3016 23.2167 43.1759 23.2167 43.0444C23.2167 37.17 23.2167 31.2957 23.2167 25.4213C23.2167 25.236 23.3975 25.0508 23.4699 24.8596C23.5422 24.6683 23.6386 24.3574 23.729 24.0945L23.2408 23.9871C23.1338 23.6426 23.1261 23.2752 23.2188 22.9267C23.3115 22.5782 23.5008 22.2622 23.7652 22.0148C23.9294 21.8678 24.0449 21.6749 24.0965 21.4616C24.1481 21.2483 24.1335 21.0245 24.0546 20.8196H13.2045C13.1254 21.0322 13.113 21.2638 13.169 21.4835C13.2249 21.7032 13.3466 21.9008 13.5179 22.0507C13.7728 22.2954 13.9545 22.6053 14.0428 22.9459C14.1311 23.2866 14.1226 23.6448 14.0182 23.981L13.5119 24.1064C13.6084 24.3694 13.6807 24.6144 13.7711 24.8534H13.8675ZM72.47 13.3916C72.4872 13.3004 72.4849 13.2065 72.4632 13.1161C72.4415 13.0258 72.401 12.941 72.3441 12.8672C72.2873 12.7935 72.2155 12.7323 72.1333 12.6878C72.0512 12.6432 71.9605 12.6163 71.8672 12.6087L41.4026 4.06282C41.0765 3.97906 40.7342 3.97906 40.408 4.06282C31.306 6.60861 22.206 9.1644 13.108 11.7301L9.40694 12.7759V19.5468H72.4519V18.997C72.4519 17.1325 72.4519 15.2679 72.4519 13.3974L72.47 13.3916ZM71.7648 18.0528H10.0459V16.8576H71.7768L71.7648 18.0528ZM74.9896 54.5722V50.7178H72.4218V47.4191H9.37081V50.7298H6.79088V54.6081H4V57.1958H77.8227V54.5842L74.9896 54.5722ZM10.0339 50.4368H71.7768V51.1062H10.0459L10.0339 50.4368ZM74.3627 54.6201H7.36953V53.9507H74.3748L74.3627 54.6201Z" fill="#F0C4CA"/>
</svg>
