<svg width="61" height="53" viewBox="0 0 61 53" fill="none" xmlns="http://www.w3.org/2000/svg">
<path d="M15.0267 29.7694C15.0241 29.7592 15.0328 29.7498 15.0431 29.7514C15.2976 29.7918 15.5555 29.8067 15.813 29.796C17.5006 29.5548 19.2209 29.6777 20.8565 30.1562C22.4922 30.6347 24.005 31.4575 25.2921 32.5689C26.5423 33.6154 28.0009 34.3872 29.5724 34.8337C31.1439 35.2803 32.7926 35.3912 34.4103 35.1597C35.1896 35.074 35.9766 35.0848 36.7532 35.1918C37.077 35.2114 37.3936 35.2951 37.6844 35.438C37.9752 35.5809 38.2344 35.7802 38.4467 36.024C38.6589 36.2679 38.82 36.5515 38.9204 36.8581C39.0208 37.1647 39.0586 37.4882 39.0314 37.8095C38.956 39.2334 38.0565 40.0203 36.4408 40.0257C33.8197 40.0257 31.195 40.0257 28.5667 40.0257C27.7858 40.0257 26.951 40.0255 26.924 41.0265C26.8971 42.0275 27.6726 42.1507 28.4805 42.1507C31.2434 42.1507 34.028 42.3596 36.7586 42.0652C38.4404 41.8842 40.0403 41.2492 41.3849 40.229C45.0689 37.2742 49.4961 36.2143 53.8263 34.8761C54.1213 34.77 54.4347 34.7236 54.748 34.7396C55.0614 34.7557 55.3683 34.8337 55.6508 34.9694C55.9334 35.105 56.1857 35.2955 56.3931 35.5295C56.6005 35.7635 56.7588 36.0363 56.8586 36.3319C57.2948 37.6166 56.7077 38.8532 55.2912 39.4206C47.7834 42.4182 40.272 45.3998 32.7569 48.3653C31.6209 48.8226 30.4007 49.0372 29.1758 48.9947C27.9509 48.9523 26.7488 48.6539 25.6475 48.1191C22.9007 46.8451 20.1755 45.5069 17.4233 44.249C17.0326 44.1031 16.6375 43.9692 16.2386 43.8475C15.5736 43.6446 14.9025 44.0974 14.7951 44.7843C14.7828 45.0382 14.7196 45.2873 14.6093 45.5166C14.499 45.746 14.3437 45.9512 14.1526 46.1201C13.9615 46.2891 13.7386 46.4185 13.4965 46.5007C13.2545 46.5829 12.9983 46.6164 12.7431 46.599C11.1758 46.6257 9.60852 46.6365 8.04663 46.599C6.69478 46.5508 6.02154 45.8656 6.01616 44.5166C5.99461 39.4848 5.99461 34.4513 6.01616 29.416C6.01616 28.0456 6.68404 27.4355 8.07898 27.4034C9.27463 27.3766 10.4702 27.4034 11.6713 27.4034C14.1865 27.4034 14.2619 27.4676 15.0267 29.7694ZM42.6371 35.9093C42.6353 35.9093 42.6347 35.9067 42.6364 35.9059C45.2033 34.7292 47.4048 32.8883 49.0105 30.576C50.6176 28.2614 51.5686 25.5596 51.7637 22.7541C51.9588 19.9485 51.3908 17.1426 50.1193 14.6303C48.8478 12.118 46.9196 9.99198 44.5369 8.47519C42.1542 6.9584 39.4048 6.10667 36.577 6.00938C33.7492 5.9121 30.9471 6.57271 28.4646 7.92212C25.9821 9.27153 23.9107 11.26 22.4674 13.6789C21.0242 16.0978 20.2622 18.8582 20.2617 21.6704C20.2541 24.8358 21.218 27.9282 23.0247 30.5349C23.2147 30.8103 23.5069 30.9993 23.8372 31.0605C24.1675 31.1218 24.5088 31.0502 24.7859 30.8614C25.063 30.6726 25.2532 30.382 25.3149 30.0537C25.3765 29.7255 25.3043 29.3864 25.1143 29.111C23.5813 26.8868 22.773 24.2481 22.7989 21.5523C22.8248 18.8564 23.6837 16.2337 25.2591 14.0391C26.8345 11.8444 29.0504 10.184 31.6068 9.28257C34.1632 8.38116 36.9365 8.28238 39.5513 8.99951C42.1661 9.71663 44.4961 11.2149 46.2256 13.2918C47.9551 15.3686 49.0006 17.9237 49.2207 20.6108C49.4408 23.2979 48.8248 25.9873 47.456 28.3148C46.0872 30.6423 44.0318 32.4956 41.5681 33.6236C41.3035 33.7429 41.0882 33.9488 40.9584 34.2072C40.8286 34.4656 40.7923 34.7607 40.8554 35.0426C40.9186 35.3245 41.0775 35.5761 41.3054 35.7553C41.5332 35.9346 41.8161 36.0305 42.1067 36.0269C42.2898 36.0258 42.4707 35.987 42.6379 35.9126C42.6396 35.9119 42.639 35.9093 42.6371 35.9093ZM36.0476 10.9912C33.9172 10.9912 31.8346 11.6191 30.0632 12.7954C28.2918 13.9718 26.9112 15.6438 26.0959 17.6C25.2806 19.5563 25.0673 21.709 25.4829 23.7857C25.8985 25.8625 26.9245 27.77 28.4309 29.2673C29.9374 30.7645 31.8566 31.7842 33.9461 32.1973C36.0356 32.6103 38.2016 32.3983 40.1698 31.588C42.1381 30.7777 43.8203 29.4055 45.0039 27.6449C46.1876 25.8843 46.8193 23.8145 46.8193 21.6971C46.8193 18.8577 45.6844 16.1346 43.6643 14.1269C41.6442 12.1191 38.9044 10.9912 36.0476 10.9912ZM36.8555 27.4408V28.525C36.8555 28.9846 36.4829 29.3572 36.0234 29.3572C35.5638 29.3572 35.1912 28.9846 35.1912 28.525V28.4249C35.1912 27.9255 34.7948 27.5231 34.3059 27.4213C33.6665 27.2882 33.054 27.0418 32.4983 26.6914C32.4031 26.6251 32.3643 26.5031 32.4037 26.394L32.8426 25.1802C32.9006 25.0196 33.0931 24.9551 33.2362 25.0481C33.9704 25.5245 34.8262 25.7825 35.703 25.792C36.8502 25.792 37.6202 25.1817 37.6202 24.2771C37.6202 23.4581 37.0818 22.9016 35.7245 22.361C34.0711 21.7133 32.5414 20.8567 32.5414 18.9725C32.5414 17.6682 33.2864 16.612 34.5006 16.087C34.9466 15.8942 35.2937 15.4886 35.2937 15.0028V14.8047C35.2937 14.3452 35.6662 13.9727 36.1257 13.9727C36.5853 13.9727 36.9578 14.3452 36.9578 14.8047V14.8823C36.9578 15.368 37.3428 15.7593 37.8165 15.8666C38.2965 15.9754 38.7589 16.1557 39.1876 16.4029C39.2935 16.465 39.3398 16.594 39.2975 16.7092L38.8559 17.9114C38.8012 18.0605 38.6256 18.1249 38.4874 18.0465C37.8366 17.6584 37.0921 17.4528 36.3331 17.4521C35.0997 17.4521 34.658 18.1588 34.658 18.7637C34.658 19.497 35.1482 19.9252 36.7586 20.5943C38.8483 21.4454 39.7424 22.5055 39.7424 24.1328C39.7317 24.9328 39.4365 25.7032 38.9091 26.3077C38.3817 26.9122 37.6562 27.3117 36.8609 27.4355" fill="white"/>
</svg>
