<svg width="60" height="66" viewBox="0 0 60 66" fill="none" xmlns="http://www.w3.org/2000/svg">
<path d="M36.4174 43.5971C36.4237 44.222 35.9188 44.7321 35.2938 44.7321C34.6732 44.7321 34.1701 44.229 34.1701 43.6084V43.4457C34.1701 42.7587 33.6259 42.2045 32.9542 42.0603C32.0942 41.8758 31.2702 41.5398 30.5214 41.0651C30.3947 40.9738 30.3436 40.8097 30.3961 40.6626L30.9974 38.9777C31.0743 38.762 31.3344 38.6771 31.5238 38.806C32.5201 39.4536 33.678 39.8067 34.8651 39.8249C36.4222 39.8249 37.4647 38.9871 37.4647 37.7402C37.4647 36.6208 36.7162 35.8564 34.8852 35.1057C32.6398 34.2208 30.5547 33.041 30.5547 30.4535C30.5547 28.6678 31.5626 27.2192 33.2117 26.4982C33.8251 26.2301 34.3038 25.6716 34.3038 25.0021V24.7151C34.3038 24.0896 34.8109 23.5825 35.4365 23.5825C36.062 23.5825 36.5691 24.0896 36.5691 24.7151V24.8283C36.5691 25.4904 37.0919 26.025 37.7369 26.1748C38.39 26.3265 39.0192 26.5751 39.6031 26.9142C39.7499 26.9994 39.8144 27.1777 39.7559 27.3371L39.1506 28.9866C39.0759 29.1902 38.837 29.2789 38.6475 29.1734C37.7547 28.6323 36.7301 28.3492 35.6871 28.3554C34.003 28.3554 33.4082 29.3274 33.4082 30.1586C33.4082 31.1641 34.0765 31.7473 36.2684 32.6724C39.1153 33.8388 40.3315 35.2936 40.3315 37.5393C40.3315 39.4042 39.253 40.9455 37.5323 41.7062C36.8992 41.9861 36.4071 42.5676 36.414 43.2598L36.4174 43.5971ZM25.7366 58.5746C25.7366 57.6679 25.3775 56.7982 24.7383 56.1571C24.0992 55.5159 23.2323 55.1558 22.3284 55.1558H9.26376C8.38509 55.1948 7.55535 55.5723 6.94734 56.2098C6.33933 56.8473 6 57.6956 6 58.5779C6 59.4602 6.33933 60.3085 6.94734 60.946C7.55535 61.5835 8.38509 61.961 9.26376 62H22.3284C23.2329 61.9982 24.0998 61.6367 24.7387 60.9945C25.3777 60.3523 25.7366 59.482 25.7366 58.5746ZM25.7366 50.1953C25.7366 49.2886 25.3775 48.4189 24.7383 47.7777C24.0992 47.1366 23.2323 46.7765 22.3284 46.7765H9.26376C8.38509 46.8155 7.55535 47.1929 6.94734 47.8304C6.33933 48.4679 6 49.3163 6 50.1986C6 51.0808 6.33933 51.9292 6.94734 52.5667C7.55535 53.2042 8.38509 53.5817 9.26376 53.6207H22.3284C23.2329 53.6189 24.0998 53.2574 24.7387 52.6152C25.3777 51.973 25.7366 51.1026 25.7366 50.1953ZM25.7366 41.816C25.7366 40.9093 25.3775 40.0396 24.7383 39.3984C24.0992 38.7573 23.2323 38.3972 22.3284 38.3972H9.26376C8.38509 38.4362 7.55535 38.8136 6.94734 39.4511C6.33933 40.0886 6 40.937 6 41.8193C6 42.7015 6.33933 43.5499 6.94734 44.1874C7.55535 44.8249 8.38509 45.2023 9.26376 45.2414H22.3284C23.2329 45.2396 24.0998 44.8781 24.7387 44.2358C25.3777 43.5936 25.7366 42.7233 25.7366 41.816ZM25.7366 33.4367C25.7366 32.53 25.3775 31.6603 24.7383 31.0191C24.0992 30.378 23.2323 30.0178 22.3284 30.0178H9.26376C8.38509 30.0569 7.55535 30.4343 6.94734 31.0718C6.33933 31.7093 6 32.5577 6 33.4399C6 34.3222 6.33933 35.1706 6.94734 35.8081C7.55535 36.4456 8.38509 36.823 9.26376 36.862H22.3284C23.2329 36.8603 24.0998 36.4987 24.7387 35.8565C25.3777 35.2143 25.7366 34.344 25.7366 33.4367ZM25.7366 25.0574C25.7366 24.1506 25.3775 23.2809 24.7383 22.6398C24.0992 21.9986 23.2323 21.6385 22.3284 21.6385H9.26376C8.38509 21.6775 7.55535 22.055 6.94734 22.6925C6.33933 23.33 6 24.1784 6 25.0606C6 25.9429 6.33933 26.7913 6.94734 27.4288C7.55535 28.0663 8.38509 28.4437 9.26376 28.4827H22.3284C23.2329 28.481 24.0998 28.1194 24.7387 27.4772C25.3777 26.835 25.7366 25.9647 25.7366 25.0574ZM21.9742 11.6838L17.0156 6.55575C16.7935 6.32316 16.5134 6.15463 16.2044 6.0674C15.8953 5.98016 15.5686 5.97757 15.2582 6.05987C14.9642 6.12846 14.6927 6.27131 14.4696 6.47523L10.6202 10.9982C10.3003 11.3741 9.90012 11.6946 9.66878 12.1306C9.55233 12.3501 9.48203 12.5914 9.46223 12.8393C9.44243 13.0871 9.47356 13.3362 9.55368 13.5715C9.6338 13.8067 9.76121 14.0229 9.92803 14.2068C10.0948 14.3907 10.2975 14.5383 10.5234 14.6405C10.7494 14.7426 10.9939 14.7973 11.2417 14.8009C11.4895 14.8044 11.7355 14.7568 11.9642 14.6611C12.193 14.5655 12.3998 14.4238 12.5717 14.2448C13.0841 13.7769 13.9083 14.1405 13.9083 14.8343V18.5146C13.9083 18.9982 14.0997 19.462 14.4406 19.8039C14.7815 20.1459 15.2438 20.3381 15.7259 20.3381C16.208 20.3381 16.6703 20.1459 17.0112 19.8039C17.3521 19.462 17.5436 18.9982 17.5436 18.5146V12.4815C17.5396 12.4222 17.6096 12.3955 17.6509 12.4382L19.3413 14.1842C19.6828 14.4997 20.1316 14.6723 20.5958 14.6663C21.06 14.6604 21.5043 14.4766 21.8376 14.1525C22.171 13.8284 22.3681 13.3886 22.3885 12.9234C22.4089 12.4582 22.2511 12.0027 21.9474 11.6504L21.9742 11.6838ZM35.8608 12.3208L37.1973 10.9801C37.543 10.645 37.7417 10.1857 37.7499 9.70356C37.758 9.22145 37.5748 8.75603 37.2407 8.40935C36.9067 8.06267 36.4489 7.86337 35.9683 7.8552C35.4877 7.84703 35.0236 8.03069 34.678 8.36582L29.559 13.3397C29.3295 13.5641 29.1629 13.8452 29.0761 14.1547C28.9893 14.4642 28.9853 14.7911 29.0645 15.1027C29.1354 15.398 29.2803 15.6704 29.4855 15.8938L33.988 19.7548C34.3625 20.0759 34.6815 20.4769 35.1168 20.7093C35.3355 20.8261 35.5759 20.8966 35.823 20.9165C36.07 20.9363 36.3185 20.9052 36.5531 20.8248C36.7876 20.7444 37.0032 20.6167 37.1865 20.4494C37.3698 20.2821 37.5169 20.0787 37.6188 19.852C37.7206 19.6254 37.7749 19.3802 37.7784 19.1316C37.7819 18.883 37.7346 18.6364 37.6392 18.4069C37.5439 18.1774 37.4026 17.9699 37.2241 17.7975L36.0825 16.5528C36.0251 16.4903 35.988 16.4118 35.976 16.3277C35.9357 16.0443 36.184 15.8043 36.4641 15.8633C38.6068 16.3144 40.6493 17.1606 42.4869 18.3608C44.4868 19.6669 46.2028 21.3653 47.5317 23.3537C48.8606 25.342 49.775 27.5792 50.22 29.9311C50.6649 32.283 50.6312 34.701 50.1209 37.0395C49.6105 39.3779 48.6341 41.5887 47.2503 43.539C45.8665 45.4893 44.1038 47.1386 42.0683 48.3882C40.0328 49.6377 37.7664 50.4618 35.4054 50.8103C33.0444 51.1589 30.6375 51.0249 28.3294 50.4166C27.9042 50.3103 27.4543 50.3756 27.0768 50.5989C26.6993 50.8222 26.4244 51.1856 26.3113 51.6103C26.1982 52.035 26.256 52.4871 26.4723 52.8695C26.6885 53.2519 27.0459 53.5339 27.4673 53.6544C30.2449 54.406 33.1467 54.5783 35.9933 54.1611C38.8399 53.7438 41.5711 52.7457 44.0182 51.2283C46.4653 49.7109 48.5762 47.7063 50.2209 45.3386C51.8655 42.9708 53.009 40.29 53.5805 37.4617C54.152 34.6334 54.1394 31.7178 53.5437 28.8945C52.948 26.0712 51.7817 23.4002 50.1168 21.0467C48.4519 18.6933 46.3238 16.7072 43.8638 15.211C41.4038 13.7148 38.6641 12.7403 35.814 12.3476" fill="white"/>
</svg>
