<svg width="68" height="62" viewBox="0 0 68 62" fill="none" xmlns="http://www.w3.org/2000/svg">
<path d="M60.7898 49.6013C60.7722 49.5927 60.7597 49.5763 60.7561 49.557L58.4142 36.8899C58.2309 35.8983 58.8415 34.9412 59.3333 34.0609C59.6117 33.5626 59.7249 32.9918 59.6573 32.4277C59.5897 31.8637 59.3445 31.334 58.9559 30.9122C58.2662 30.164 57.4397 29.3759 57.3696 28.3607L56.7122 18.84C56.6603 18.0895 57.1398 17.4031 57.4302 16.7091C57.5889 16.3297 57.6153 15.9098 57.5053 15.5142C57.3953 15.1187 57.155 14.7696 56.8218 14.5213C56.4885 14.273 56.0808 14.1392 55.662 14.1408C55.3551 14.1429 55.0373 14.0773 54.8178 13.8627L48.4042 7.59127C48.0146 7.21029 47.9764 6.60643 47.9809 6.06152C47.9814 5.63219 47.8309 5.21587 47.5547 4.88235C47.2785 4.54883 46.8935 4.31845 46.4642 4.23008C46.035 4.14172 45.5877 4.20055 45.1977 4.39691C44.4984 4.74891 43.8166 5.30408 43.0338 5.29757L20.9189 5.11368C20.1353 5.10717 19.4577 4.54946 18.7555 4.20166C18.3656 4.00853 17.9197 3.95179 17.4925 4.04152C17.0652 4.13125 16.6823 4.36176 16.4077 4.69446C16.133 5.02716 15.9832 5.44222 15.9834 5.86995C15.983 6.66971 16.1709 7.57197 15.7454 8.24915L6.26353 23.3395C6.18707 23.4612 6.05346 23.535 5.90977 23.535C5.40326 23.535 4.91749 23.7321 4.55934 24.0826C4.20118 24.4332 4 24.9085 4 25.4042C4 25.9 4.20118 26.3753 4.55934 26.7258C5.19496 27.3479 6.09164 27.8503 6.3591 28.6985L10.3814 41.4555C10.5272 41.9178 10.3306 42.4083 10.0994 42.8343C9.97081 43.0712 9.89578 43.3324 9.87951 43.6002C9.86325 43.868 9.90612 44.1364 10.0051 44.3865C10.1041 44.6367 10.2569 44.863 10.4533 45.0502C10.6496 45.2374 10.8849 45.3811 11.143 45.4714C11.4011 45.5618 11.676 45.5967 11.9491 45.5737C12.2222 45.5508 12.4871 45.4704 12.7257 45.3384C13.1434 45.1073 13.6413 44.9348 14.0832 45.1153L32.0667 52.4617C32.369 52.5852 32.5275 52.9106 32.5278 53.2371C32.5278 53.9699 32.8252 54.6728 33.3545 55.1909C33.8839 55.709 34.6019 56 35.3505 56C36.0992 56 36.8171 55.709 37.3465 55.1909C37.8758 54.6728 38.1732 53.9699 38.1732 53.2371C38.1738 52.3568 38.2049 51.365 38.8346 50.7497L41.8343 47.8183C42.0958 47.5627 42.4875 47.5138 42.8532 47.5132C43.5081 47.5058 44.1944 47.2733 44.8232 47.4564L57.2062 51.0637C57.7839 51.232 58.1404 51.7989 58.4574 52.3104C58.6374 52.6007 58.8947 52.8375 59.2019 52.9954C59.509 53.1534 59.8544 53.2264 60.2008 53.2067C60.5472 53.187 60.8816 53.0754 61.168 52.8838C61.4545 52.6921 61.6821 52.4276 61.8266 52.1188C61.971 51.81 62.0269 51.4687 61.988 51.1312C61.9491 50.7937 61.8169 50.473 61.6058 50.2035C61.3947 49.9339 61.1127 49.7257 60.7898 49.6013ZM41.3247 46.0137C41.3227 46.0137 41.3212 46.0153 41.3212 46.0172C41.3219 46.115 41.3333 46.2121 41.3551 46.3071C41.3815 46.422 41.3574 46.5462 41.2731 46.6287L37.2983 50.5132C37.053 50.7529 36.6781 50.781 36.3568 50.6611C36.0441 50.5444 35.7838 50.2878 35.748 49.956L34.9648 42.6848C34.9077 42.1548 35.2053 41.6607 35.4858 41.2074C35.762 40.7611 36.076 40.284 36.5737 40.1172L41.6547 38.4141C41.7907 38.3685 41.938 38.4149 42.0445 38.5109C42.1299 38.5879 42.1868 38.6949 42.1838 38.8098L42.0475 43.9992C42.0351 44.4709 41.7441 44.8844 41.515 45.2969C41.3934 45.5159 41.3292 45.7611 41.3282 46.0102C41.3282 46.0121 41.3266 46.0137 41.3247 46.0137ZM32.5208 38.9133L19.9705 33.2286C19.9451 33.2171 19.9288 33.2052 19.9288 33.1774C19.9288 33.1473 19.9479 33.1071 19.9763 33.0971L27.6614 30.4015C28.1049 30.2459 28.5873 30.4172 29.0074 30.6281C29.4361 30.8432 29.8762 31.1149 30.0497 31.5621L32.753 38.5314C32.7931 38.6345 32.7546 38.7503 32.6699 38.8214C32.6398 38.8468 32.6106 38.8732 32.5824 38.9006C32.566 38.9164 32.542 38.9216 32.5208 38.9133ZM18.0536 31.3133C18.0355 31.3222 18.0156 31.3267 17.9954 31.327C17.9518 31.3278 17.9083 31.33 17.8649 31.3337C17.5146 31.3636 17.1361 31.2567 16.9574 30.9539L14.3053 26.4624C13.9591 25.8761 14.1523 25.1059 14.1505 24.425C14.163 24.296 14.2224 24.171 14.3345 24.106L21.8377 19.7537C22.4551 19.3956 23.2322 19.5828 23.8777 19.8875C24.2542 20.0653 24.6666 20.1581 25.0846 20.1593C25.3183 20.1532 25.5462 20.2734 25.6342 20.49L28.279 27.0061C28.4373 27.3962 28.3172 27.836 28.1503 28.2226C27.9737 28.6315 27.72 29.0428 27.2996 29.1901L20.2236 31.6691C19.7738 31.8267 19.2842 31.6652 18.8496 31.4696C18.6183 31.3654 18.368 31.3078 18.1136 31.3001C18.0929 31.2995 18.0723 31.3042 18.0536 31.3133ZM11.9198 41.8182C11.9192 41.8171 11.9187 41.816 11.9184 41.8148L7.43015 27.58C7.29391 27.148 7.46876 26.6891 7.68598 26.2915C7.89428 25.9103 8.21451 25.5498 8.64664 25.505L10.6971 25.2924C11.13 25.2475 11.5363 25.4816 11.9135 25.6988C12.3006 25.9216 12.7264 26.1338 12.9537 26.5183L15.9726 31.624C16.2352 32.0682 16.196 32.6201 16.1803 33.1358C16.1643 33.6578 16.197 34.2129 15.9436 34.6694L11.9779 41.8123C11.9718 41.8234 11.96 41.8303 11.9473 41.8303H11.9395C11.9311 41.8303 11.9235 41.8256 11.9198 41.8182ZM18.1703 7.89194C18.2016 7.79094 18.2906 7.72006 18.3941 7.6987C18.516 7.67356 18.6451 7.71943 18.7088 7.82627L22.5992 14.352C22.9452 14.9324 22.7862 15.667 22.5092 16.2832C22.3501 16.6372 22.2693 17.02 22.2723 17.4068C22.2741 17.7842 22.1252 18.1669 21.7988 18.3562L13.485 23.1755C13.4811 23.1778 13.4766 23.179 13.472 23.179C13.4546 23.179 13.4422 23.1621 13.4473 23.1455L18.1703 7.89194ZM46.204 7.93775C46.6699 7.93713 47.169 7.99874 47.5019 8.32458L53.936 14.6222C54.1148 14.7972 54.1274 15.0765 54.0283 15.3062C53.9368 15.518 53.7501 15.6882 53.5196 15.6977L40.7993 16.2263C40.7551 16.2282 40.7146 16.2034 40.6927 16.165C40.6718 16.1282 40.6703 16.0829 40.6918 16.0464L45.2261 8.37496C45.4158 8.05412 45.8105 7.93276 46.1831 7.93775H46.204ZM55.4811 17.8659C55.4885 17.8659 55.4945 17.8715 55.495 17.8788L56.2651 28.9723C56.3084 29.5967 55.8586 30.1363 55.34 30.4869C54.8214 30.8374 54.1587 31.0513 53.5939 30.7813L46.2893 27.2895C46.1998 27.2467 46.1474 27.1535 46.1411 27.0545C46.1474 26.7068 46.1925 26.3317 46.4402 26.0877L54.5791 18.0652C54.7975 17.8499 55.1244 17.8044 55.4264 17.8572C55.444 17.8603 55.4615 17.8631 55.4791 17.8657C55.4798 17.8658 55.4805 17.8659 55.4811 17.8659ZM44.4169 36.2839C44.2809 36.3263 44.135 36.2882 44.0188 36.2057C43.8762 36.1044 43.781 35.9388 43.8077 35.7659L44.8729 28.8569C44.9036 28.6583 45.0586 28.5064 45.2417 28.4239C45.3989 28.3531 45.5797 28.3324 45.7354 28.4064L53.8318 32.2501C54.0182 32.3386 54.102 32.5243 54.102 32.7306C54.1089 33.0248 53.9452 33.3106 53.6643 33.3982L44.4169 36.2839ZM36.2971 38.9599C35.8295 39.1149 35.3282 38.9089 34.9016 38.6626C34.4576 38.4061 33.9913 38.1106 33.8059 37.6325L33.591 37.0782C32.7889 35.01 35.0914 33.1174 36.9652 34.3046L37.5865 34.6983C39.1745 35.7044 38.8796 38.1037 37.0952 38.6953L36.2971 38.9599ZM27.0838 20.7771C26.8361 20.1501 27.1032 19.452 27.4678 18.8849C27.8266 18.3266 28.3536 17.8062 29.0171 17.7905L37.9075 17.5793C37.9418 17.5785 37.9737 17.597 37.99 17.6271C38.0077 17.6597 38.004 17.6998 37.9807 17.7285L30.6558 26.742C30.4555 26.9886 30.1243 27.0732 29.8065 27.0682C29.6659 27.0555 29.5331 26.978 29.4812 26.8467L27.0838 20.7771ZM43.9073 17.3118C47.4465 17.1883 49.2791 21.4892 46.7386 23.9563L45.3834 25.2723C45.1577 25.4915 44.8258 25.5444 44.5112 25.5413C44.4011 25.5345 44.2974 25.4771 44.2484 25.3783L40.4997 17.8227C40.4585 17.7397 40.4683 17.6414 40.5156 17.5617C40.5632 17.4814 40.6453 17.4255 40.7386 17.4223L43.9073 17.3118ZM43.2455 26.1062C43.2928 26.2015 43.2839 26.3139 43.2338 26.4077C43.1842 26.5008 43.0969 26.5702 42.9924 26.5847L31.7215 28.1443C31.6393 28.1557 31.5603 28.112 31.5166 28.0413C31.4699 27.9658 31.4687 27.8679 31.5242 27.7985L38.926 18.5354C39.0106 18.4296 39.1437 18.3789 39.2785 18.3657C39.3556 18.3657 39.4261 18.4094 39.4603 18.4784L43.2455 26.1062ZM31.7795 29.6137C31.7306 29.5826 31.711 29.5214 31.7287 29.4663C31.7436 29.4198 31.7827 29.3847 31.8311 29.378L42.8955 27.8425C43.1045 27.8135 43.3021 27.9264 43.4419 28.0844C43.5643 28.2227 43.6469 28.4014 43.6187 28.5839L42.4821 35.9381C42.4692 36.022 42.4156 36.0935 42.3421 36.1361C42.251 36.1889 42.1377 36.1926 42.0488 36.1361L31.7795 29.6137ZM44.4032 6.87603C44.465 7.01078 44.4706 7.16877 44.395 7.29628L39.7234 15.1734C39.6333 15.3255 39.4552 15.396 39.2785 15.3939C38.9723 15.3989 38.6748 15.4945 38.4251 15.668C37.9787 15.9782 37.5235 16.3745 36.98 16.3874L28.8488 16.5801C28.2085 16.5953 27.6646 16.148 27.2549 15.6556C27.0217 15.3755 26.7333 15.144 26.4069 14.9753C26.0805 14.8066 25.7227 14.7042 25.3549 14.6737C24.7116 14.6205 24.0321 14.4049 23.7021 13.8501L19.7181 7.15296C19.637 7.01678 19.6431 6.84793 19.7082 6.70346C19.7883 6.52567 19.9543 6.39131 20.1493 6.39294L44.0021 6.59292C44.179 6.59441 44.3294 6.71519 44.4032 6.87603ZM44.1208 45.1725C43.776 44.7196 43.346 44.2402 43.3605 43.6712L43.4796 39.0001C43.4815 38.9255 43.5359 38.8637 43.607 38.8415C43.6608 38.8247 43.7201 38.8319 43.7647 38.8664L48.306 42.3793C50.4108 44.0075 48.7134 47.3438 46.1581 46.6011L44.4533 46.1056C44.4337 46.0999 44.4202 46.0819 44.4202 46.0615C44.4214 45.7412 44.3164 45.4294 44.1208 45.1725ZM57.5698 38.9259C58.2547 42.6273 54.0073 45.2177 51.03 42.9145L44.6873 38.008C44.5988 37.9394 44.5666 37.8223 44.5876 37.7123C44.6083 37.6042 44.6794 37.5087 44.7847 37.4764L53.4066 34.8361C54.1515 34.608 54.94 34.931 55.638 35.2769C56.0293 35.4707 56.4617 35.5718 56.9002 35.5721C56.9286 35.5721 56.953 35.5923 56.9582 35.6203L57.5698 38.9259ZM12.2791 22.2986C12.1419 22.7402 11.7628 23.0638 11.4415 23.3963C11.1351 23.7133 10.7925 24.0514 10.3541 24.0977L7.67604 24.3802C7.57546 24.3909 7.47915 24.3424 7.41674 24.2628C7.33966 24.1645 7.32134 24.028 7.3878 23.9222L9.33154 20.8292C10.361 19.191 12.8529 20.4509 12.2791 22.2986ZM14.3818 43.9192C13.9511 43.7436 13.6931 43.3137 13.4876 42.8965C13.2903 42.4959 13.1735 42.0143 13.3902 41.6239L16.5243 35.9785C16.8691 35.3575 17.6766 35.1664 18.3706 35.0147C19.0955 34.8563 19.8946 34.586 20.5708 34.8915L31.7404 39.939C31.862 39.9939 31.9402 40.1151 31.9402 40.2486C31.9421 40.7051 32.1146 41.145 32.4252 41.4856C32.9677 42.0805 33.6873 42.6655 33.7735 43.466L34.4463 49.714C34.5022 50.2333 34.1635 50.703 33.7366 51.0038C33.3385 51.2845 32.8325 51.4398 32.3814 51.2559L14.3818 43.9192Z" fill="white"/>
</svg>
