<svg width="68" height="60" viewBox="0 0 68 60" fill="none" xmlns="http://www.w3.org/2000/svg">
<path d="M32.8148 10.7407V22.5926L42.2963 27.3333" fill="white"/>
<path d="M51.7778 10.7407L42.2963 6L32.8148 10.7407L42.2963 15.4815L51.7778 10.7407Z" fill="white"/>
<path d="M51.7778 10.7407L42.2963 15.4815V27.3333L51.7778 22.5926V10.7407Z" fill="white"/>
<path d="M42.2963 15.4815L32.8148 10.7407V22.5926L42.2963 27.3333V15.4815Z" fill="white"/>
<path d="M51.7778 10.7407L42.2963 6L32.8148 10.7407M51.7778 10.7407L42.2963 15.4815M51.7778 10.7407V22.5926L42.2963 27.3333M32.8148 10.7407L42.2963 15.4815M32.8148 10.7407V22.5926L42.2963 27.3333M42.2963 15.4815V27.3333" stroke="#0E47EF" stroke-width="2" stroke-linecap="round" stroke-linejoin="round"/>
<path d="M17.4074 19.0371V30.889L26.8889 35.6297" fill="white"/>
<path d="M36.3704 19.0371L26.8889 14.2964L17.4074 19.0371L26.8889 23.7779L36.3704 19.0371Z" fill="white"/>
<path d="M36.3704 19.0371L26.8889 23.7779V35.6297L36.3704 30.889V19.0371Z" fill="white"/>
<path d="M26.8889 23.7779L17.4074 19.0371V30.889L26.8889 35.6297V23.7779Z" fill="white"/>
<path d="M36.3704 19.0371L26.8889 14.2964L17.4074 19.0371M36.3704 19.0371L26.8889 23.7779M36.3704 19.0371V30.889L26.8889 35.6297M17.4074 19.0371L26.8889 23.7779M17.4074 19.0371V30.889L26.8889 35.6297M26.8889 23.7779V35.6297" stroke="#0E47EF" stroke-width="2" stroke-linecap="round" stroke-linejoin="round"/>
<path d="M2 26.1482V38.0001L11.4815 42.7408" fill="white"/>
<path d="M20.963 26.1482L11.4815 21.4075L2 26.1482L11.4815 30.889L20.963 26.1482Z" fill="white"/>
<path d="M20.963 26.1482L11.4815 30.889V42.7408L20.963 38.0001V26.1482Z" fill="white"/>
<path d="M11.4815 30.889L2 26.1482V38.0001L11.4815 42.7408V30.889Z" fill="white"/>
<path d="M20.963 26.1482L11.4815 21.4075L2 26.1482M20.963 26.1482L11.4815 30.889M20.963 26.1482V38.0001L11.4815 42.7408M2 26.1482L11.4815 30.889M2 26.1482V38.0001L11.4815 42.7408M11.4815 30.889V42.7408" stroke="#0E47EF" stroke-width="2" stroke-linecap="round" stroke-linejoin="round"/>
<path d="M47.037 21.4075V33.2593L56.5185 38.0001" fill="white"/>
<path d="M66 21.4075L56.5185 16.6667L47.037 21.4075L56.5185 26.1482L66 21.4075Z" fill="white"/>
<path d="M66 21.4075L56.5185 26.1482V38.0001L66 33.2593V21.4075Z" fill="white"/>
<path d="M56.5185 26.1482L47.037 21.4075V33.2593L56.5185 38.0001V26.1482Z" fill="white"/>
<path d="M66 21.4075L56.5185 16.6667L47.037 21.4075M66 21.4075L56.5185 26.1482M66 21.4075V33.2593L56.5185 38.0001M47.037 21.4075L56.5185 26.1482M47.037 21.4075V33.2593L56.5185 38.0001M56.5185 26.1482V38.0001" stroke="#0E47EF" stroke-width="2" stroke-linecap="round" stroke-linejoin="round"/>
<path d="M32.8148 29.7036V41.5555L42.2963 46.2962" fill="white"/>
<path d="M51.7778 29.7036L42.2963 24.9629L32.8148 29.7036L42.2963 34.4444L51.7778 29.7036Z" fill="white"/>
<path d="M51.7778 29.7036L42.2963 34.4444V46.2962L51.7778 41.5555V29.7036Z" fill="white"/>
<path d="M42.2963 34.4444L32.8148 29.7036V41.5555L42.2963 46.2962V34.4444Z" fill="white"/>
<path d="M51.7778 29.7036L42.2963 24.9629L32.8148 29.7036M51.7778 29.7036L42.2963 34.4444M51.7778 29.7036V41.5555L42.2963 46.2962M32.8148 29.7036L42.2963 34.4444M32.8148 29.7036V41.5555L42.2963 46.2962M42.2963 34.4444V46.2962" stroke="#0E47EF" stroke-width="2" stroke-linecap="round" stroke-linejoin="round"/>
<path d="M17.4074 36.8147V48.6666L26.8889 53.4073" fill="white"/>
<path d="M36.3704 36.8147L26.8889 32.074L17.4074 36.8147L26.8889 41.5555L36.3704 36.8147Z" fill="white"/>
<path d="M36.3704 36.8147L26.8889 41.5555V53.4073L36.3704 48.6666V36.8147Z" fill="white"/>
<path d="M26.8889 41.5555L17.4074 36.8147V48.6666L26.8889 53.4073V41.5555Z" fill="white"/>
<path d="M36.3704 36.8147L26.8889 32.074L17.4074 36.8147M36.3704 36.8147L26.8889 41.5555M36.3704 36.8147V48.6666L26.8889 53.4073M17.4074 36.8147L26.8889 41.5555M17.4074 36.8147V48.6666L26.8889 53.4073M26.8889 41.5555V53.4073" stroke="#0E47EF" stroke-width="2" stroke-linecap="round" stroke-linejoin="round"/>
</svg>
