<svg width="37" height="80" viewBox="0 0 37 80" fill="none" xmlns="http://www.w3.org/2000/svg">
<path d="M25.0799 44.5338C26.9671 44.8333 28.7604 45.5569 30.3227 46.6498C32.1127 47.8472 33.5705 49.4725 34.562 51.3759C35.5535 53.2792 36.0468 55.3995 35.9965 57.5417C35.9965 60.3581 35.9965 63.1747 35.9965 65.9911C36.0008 67.7099 35.6605 69.4124 34.9954 70.9994C34.3303 72.5864 33.3536 74.0262 32.1224 75.2347C30.8912 76.4433 29.43 77.3963 27.824 78.0386C26.218 78.6809 24.4993 78.9995 22.768 78.9758C19.7508 78.9758 16.7415 79.0303 13.7321 78.9758C10.3955 78.8792 7.22325 77.5158 4.86869 75.1667C2.51414 72.8177 1.15664 69.6618 1.07581 66.3489C1.01311 63.1902 1.02095 60.0316 1.07581 56.8652C1.1809 53.9261 2.28784 51.1093 4.2155 48.8762C6.14316 46.6431 8.77726 45.1258 11.6868 44.5726L11.9689 44.5338C11.9689 44.6816 11.9689 44.8059 11.9689 44.9304C11.9689 47.6923 11.9689 50.4465 11.9689 53.2084C11.9786 53.3397 11.9524 53.4713 11.8931 53.5891C11.8338 53.7068 11.7436 53.8063 11.6319 53.8774C11.0526 54.2657 10.5801 54.7914 10.2572 55.4068C9.9342 56.0222 9.77103 56.7081 9.78247 57.4019C9.78247 60.2494 9.78247 63.0891 9.78247 65.9599C9.77388 66.5408 9.88342 67.1171 10.1046 67.6549C10.3257 68.1928 10.6539 68.6808 11.0695 69.0898C11.4851 69.4987 11.9795 69.8205 12.5232 70.0353C13.0669 70.2501 13.6487 70.3536 14.2337 70.3399H22.7837C23.3647 70.3524 23.9423 70.2493 24.4825 70.0364C25.0226 69.8236 25.5144 69.5051 25.9286 69.1004C26.3428 68.6957 26.6711 68.2128 26.8942 67.68C27.1172 67.1472 27.2305 66.5756 27.2272 65.9987C27.2272 63.1434 27.2272 60.2804 27.2272 57.4407C27.2326 56.7391 27.0638 56.0469 26.7358 55.4254C26.4077 54.8039 25.9305 54.2723 25.3463 53.8774C25.2663 53.8185 25.1992 53.7438 25.1494 53.6582C25.0995 53.5726 25.0678 53.478 25.0564 53.3797C25.0564 50.5167 25.0564 47.6615 25.0564 44.8218C25.0516 44.7466 25.0516 44.6712 25.0564 44.5961L25.0799 44.5338ZM11.9611 35.0656C11.9611 32.3193 11.9611 29.5729 11.9611 26.8344C11.9726 26.6861 11.941 26.5376 11.8701 26.4066C11.7993 26.2756 11.6922 26.1675 11.5614 26.0951C11.008 25.7223 10.5555 25.2201 10.2439 24.6326C9.93225 24.0451 9.77113 23.3903 9.77463 22.7263C9.77463 19.8322 9.77463 16.9435 9.77463 14.0597C9.76732 13.4896 9.87462 12.9235 10.0903 12.3951C10.306 11.8666 10.6258 11.3862 11.0308 10.9819C11.4358 10.5776 11.918 10.2575 12.4491 10.0406C12.9802 9.82357 13.5497 9.71423 14.124 9.71841C17.0471 9.71841 19.9703 9.71841 22.8934 9.71841C24.0374 9.72045 25.1341 10.1712 25.9445 10.9728C26.7549 11.7744 27.2131 12.8617 27.2193 13.9974C27.2193 16.8682 27.2193 19.7469 27.2193 22.6177C27.2299 23.318 27.0632 24.0097 26.7346 24.6295C26.406 25.2493 25.926 25.7771 25.3385 26.165C25.2356 26.2264 25.152 26.3149 25.0966 26.4207C25.0413 26.5264 25.0165 26.6452 25.025 26.7641C25.025 28.748 25.025 30.7242 25.025 32.7081V35.4702C25.1005 35.4794 25.1768 35.4794 25.2523 35.4702C28.1805 34.9345 30.8374 33.4238 32.7849 31.1878C34.7323 28.9518 35.8541 26.1239 35.9651 23.17C36.02 20.1825 35.9651 17.195 35.9651 14.2075C35.9889 12.5003 35.6735 10.8052 35.0366 9.21925C34.3998 7.63329 33.4541 6.18765 32.2537 4.96495C31.0534 3.74225 29.622 2.76627 28.0414 2.09342C26.4608 1.42058 24.7619 1.06411 23.0423 1.04381C20.0329 0.981571 17.0237 0.989351 14.0065 1.04381C10.5629 1.05818 7.26477 2.42384 4.83196 4.84339C2.39915 7.26293 1.02915 10.5396 1.0209 13.9583C0.973877 16.7746 1.0209 19.5912 1.0209 22.4076C0.957324 24.5526 1.43876 26.6789 2.42075 28.5906C3.40274 30.5022 4.85372 32.1378 6.63991 33.3463C8.21542 34.4609 10.028 35.2008 11.9376 35.509C11.9376 35.33 11.9376 35.1977 11.9376 35.0732L11.9611 35.0656ZM22.3918 16.9225C22.7616 17.3554 22.9521 17.9115 22.9248 18.4785V61.4085C22.9668 61.7503 22.9306 62.0969 22.8189 62.4228C22.7071 62.7487 22.5228 63.0455 22.2794 63.2909C22.0361 63.5362 21.7401 63.7239 21.4136 63.8398C21.087 63.9557 20.7383 63.9967 20.3934 63.9602H16.475C16.1514 63.9835 15.8264 63.9373 15.5224 63.8246C15.2184 63.7119 14.9425 63.5354 14.7134 63.3072C14.4843 63.079 14.3074 62.8048 14.1949 62.5026C14.0824 62.2004 14.0368 61.8776 14.0613 61.5563V18.5719C14.0239 18.2369 14.062 17.8979 14.1729 17.5793C14.2838 17.2607 14.4646 16.9705 14.7025 16.7299C14.9403 16.4893 15.2291 16.3042 15.5479 16.1882C15.8666 16.0721 16.2075 16.0281 16.5456 16.059H20.5893C20.933 16.053 21.274 16.1191 21.5901 16.2531C21.9061 16.3872 22.1901 16.5863 22.4232 16.837" fill="#3CA3D6"/>
<path d="M22.3918 16.9225C22.7616 17.3554 22.9521 17.9115 22.9248 18.4785V61.4085C22.9668 61.7503 22.9306 62.0969 22.8189 62.4228C22.7071 62.7487 22.5228 63.0455 22.2794 63.2909C22.0361 63.5362 21.7401 63.7239 21.4136 63.8398C21.087 63.9557 20.7383 63.9967 20.3934 63.9602H16.475C16.1514 63.9835 15.8264 63.9373 15.5224 63.8246C15.2184 63.7119 14.9425 63.5354 14.7134 63.3072C14.4843 63.079 14.3074 62.8048 14.1949 62.5026C14.0824 62.2004 14.0368 61.8776 14.0613 61.5563V18.5719C14.0239 18.2369 14.062 17.8979 14.1729 17.5793C14.2838 17.2607 14.4646 16.9705 14.7025 16.7299C14.9403 16.4893 15.2291 16.3042 15.5479 16.1882C15.8666 16.0721 16.2075 16.0281 16.5456 16.059H20.5893C20.933 16.053 21.274 16.1191 21.5901 16.2531C21.9061 16.3872 22.1901 16.5863 22.4232 16.837M25.0799 44.5338C26.9671 44.8333 28.7604 45.5569 30.3227 46.6498C32.1127 47.8472 33.5705 49.4725 34.562 51.3759C35.5535 53.2792 36.0468 55.3995 35.9965 57.5417C35.9965 60.3581 35.9965 63.1747 35.9965 65.9911C36.0008 67.7099 35.6605 69.4124 34.9954 70.9994C34.3303 72.5864 33.3536 74.0262 32.1224 75.2347C30.8912 76.4433 29.43 77.3963 27.824 78.0386C26.218 78.6809 24.4993 78.9995 22.768 78.9758C19.7508 78.9758 16.7415 79.0303 13.7321 78.9758C10.3955 78.8792 7.22325 77.5158 4.86869 75.1667C2.51414 72.8177 1.15664 69.6618 1.07581 66.3489C1.01311 63.1902 1.02095 60.0316 1.07581 56.8652C1.1809 53.9261 2.28784 51.1093 4.2155 48.8762C6.14316 46.6431 8.77726 45.1258 11.6868 44.5726L11.9689 44.5338C11.9689 44.6816 11.9689 44.8059 11.9689 44.9304C11.9689 47.6923 11.9689 50.4465 11.9689 53.2084C11.9786 53.3397 11.9524 53.4713 11.8931 53.5891C11.8338 53.7068 11.7436 53.8063 11.6319 53.8774C11.0526 54.2657 10.5801 54.7914 10.2572 55.4068C9.9342 56.0222 9.77103 56.7081 9.78247 57.4019C9.78247 60.2494 9.78247 63.0891 9.78247 65.9599C9.77387 66.5408 9.88342 67.1171 10.1046 67.6549C10.3257 68.1928 10.6539 68.6808 11.0695 69.0898C11.4851 69.4987 11.9795 69.8205 12.5232 70.0353C13.0669 70.2501 13.6487 70.3536 14.2337 70.3399H22.7837C23.3647 70.3524 23.9423 70.2493 24.4825 70.0364C25.0226 69.8236 25.5144 69.5051 25.9286 69.1004C26.3428 68.6957 26.6711 68.2128 26.8942 67.68C27.1172 67.1472 27.2305 66.5756 27.2272 65.9987C27.2272 63.1434 27.2272 60.2804 27.2272 57.4407C27.2326 56.7391 27.0638 56.0469 26.7358 55.4254C26.4077 54.8039 25.9305 54.2723 25.3463 53.8774C25.2663 53.8185 25.1992 53.7438 25.1494 53.6582C25.0995 53.5726 25.0678 53.478 25.0564 53.3797C25.0564 50.5167 25.0564 47.6615 25.0564 44.8218C25.0516 44.7466 25.0516 44.6712 25.0564 44.5961L25.0799 44.5338ZM11.9611 35.0656C11.9611 32.3193 11.9611 29.5729 11.9611 26.8344C11.9726 26.6861 11.941 26.5376 11.8701 26.4066C11.7993 26.2756 11.6922 26.1675 11.5614 26.0951C11.008 25.7223 10.5555 25.2201 10.2439 24.6326C9.93225 24.0451 9.77113 23.3903 9.77463 22.7263C9.77463 19.8322 9.77463 16.9435 9.77463 14.0597C9.76732 13.4896 9.87462 12.9235 10.0903 12.3951C10.306 11.8666 10.6258 11.3862 11.0308 10.9819C11.4358 10.5776 11.918 10.2575 12.4491 10.0406C12.9802 9.82357 13.5497 9.71423 14.124 9.71841C17.0471 9.71841 19.9703 9.71841 22.8934 9.71841C24.0374 9.72045 25.1341 10.1712 25.9445 10.9728C26.7549 11.7744 27.2131 12.8617 27.2193 13.9974C27.2193 16.8682 27.2193 19.7469 27.2193 22.6177C27.2299 23.318 27.0632 24.0097 26.7346 24.6295C26.406 25.2493 25.926 25.7771 25.3385 26.165C25.2356 26.2264 25.152 26.3149 25.0966 26.4207C25.0413 26.5264 25.0165 26.6452 25.025 26.7641C25.025 28.748 25.025 30.7242 25.025 32.7081V35.4702C25.1005 35.4794 25.1768 35.4794 25.2523 35.4702C28.1805 34.9345 30.8374 33.4238 32.7849 31.1878C34.7323 28.9518 35.8541 26.1239 35.9651 23.17C36.02 20.1825 35.9651 17.195 35.9651 14.2075C35.9889 12.5003 35.6735 10.8052 35.0366 9.21925C34.3998 7.63329 33.4541 6.18765 32.2537 4.96495C31.0534 3.74225 29.622 2.76627 28.0414 2.09342C26.4608 1.42058 24.7619 1.06411 23.0423 1.04381C20.0329 0.981571 17.0237 0.989351 14.0065 1.04381C10.5629 1.05818 7.26477 2.42384 4.83196 4.84339C2.39915 7.26293 1.02915 10.5396 1.0209 13.9583C0.973877 16.7746 1.0209 19.5912 1.0209 22.4076C0.957324 24.5526 1.43876 26.6789 2.42075 28.5906C3.40274 30.5022 4.85372 32.1378 6.63991 33.3463C8.21542 34.4609 10.028 35.2008 11.9376 35.509C11.9376 35.33 11.9376 35.1977 11.9376 35.0732L11.9611 35.0656Z" stroke="#F9C2CA" stroke-width="2"/>
</svg>
