<svg width="1440" height="573" viewBox="0 0 1440 573" fill="none" xmlns="http://www.w3.org/2000/svg">
<circle cx="275.929" cy="456.236" r="56.4573" transform="rotate(-90 275.929 456.236)" fill="url(#paint0_linear)"/>
<circle cx="1267.75" cy="151.061" r="35.0951" transform="rotate(-90 1267.75 151.061)" fill="url(#paint1_linear)"/>
<path d="M1268.96 335.05L1248.43 276L1191 295.961C1196.44 311.622 1207.71 324.538 1222.33 331.869C1236.95 339.2 1253.72 340.344 1268.96 335.05Z" fill="url(#paint2_linear)"/>
<path d="M1111.48 477.674L984 539.806L1078.81 572.48L1111.48 477.674Z" fill="url(#paint3_linear)"/>
<path d="M150.514 166.893L14.9668 208.586L103.587 255.513L150.514 166.893Z" fill="url(#paint4_linear)"/>
<path d="M392 233.952L408.824 177L464.872 193.557L448.048 250.509L392 233.952Z" fill="url(#paint5_linear)"/>
<path d="M992 200.68L1006.38 152L1054.29 166.152L1039.91 214.832L992 200.68Z" fill="url(#paint6_linear)"/>
<defs>
<linearGradient id="paint0_linear" x1="275.929" y1="399.779" x2="275.929" y2="512.693" gradientUnits="userSpaceOnUse">
<stop stop-color="white"/>
<stop offset="1" stop-color="white" stop-opacity="0"/>
</linearGradient>
<linearGradient id="paint1_linear" x1="1267.75" y1="115.966" x2="1267.75" y2="186.156" gradientUnits="userSpaceOnUse">
<stop stop-color="white"/>
<stop offset="1" stop-color="white" stop-opacity="0"/>
</linearGradient>
<linearGradient id="paint2_linear" x1="1219.72" y1="285.98" x2="1240.24" y2="345.031" gradientUnits="userSpaceOnUse">
<stop stop-color="white"/>
<stop offset="1" stop-color="white" stop-opacity="0"/>
</linearGradient>
<linearGradient id="paint3_linear" x1="1031.4" y1="556.143" x2="1064.08" y2="461.337" gradientUnits="userSpaceOnUse">
<stop stop-color="white"/>
<stop offset="1" stop-color="white" stop-opacity="0"/>
</linearGradient>
<linearGradient id="paint4_linear" x1="59.2768" y1="232.049" x2="106.204" y2="143.43" gradientUnits="userSpaceOnUse">
<stop stop-color="white"/>
<stop offset="1" stop-color="white" stop-opacity="0"/>
</linearGradient>
<linearGradient id="paint5_linear" x1="400.412" y1="205.476" x2="456.46" y2="222.033" gradientUnits="userSpaceOnUse">
<stop stop-color="white"/>
<stop offset="1" stop-color="white" stop-opacity="0"/>
</linearGradient>
<linearGradient id="paint6_linear" x1="999.191" y1="176.34" x2="1047.1" y2="190.492" gradientUnits="userSpaceOnUse">
<stop stop-color="white"/>
<stop offset="1" stop-color="white" stop-opacity="0"/>
</linearGradient>
</defs>
</svg>
