<svg width="70" height="70" viewBox="0 0 70 70" fill="none" xmlns="http://www.w3.org/2000/svg">
<mask id="mask0" mask-type="alpha" maskUnits="userSpaceOnUse" x="0" y="0" width="70" height="70">
<circle cx="35" cy="35" r="35" fill="#C4C4C4"/>
</mask>
<g mask="url(#mask0)">
<path d="M40.3105 21.957C42.6569 22.2367 44.8193 23.3668 46.3884 25.1335C47.9576 26.9002 48.8246 29.1808 48.8254 31.5437" stroke="white" stroke-width="1.92" stroke-miterlimit="10" stroke-linecap="round"/>
<path d="M42.8469 27.0155L43.7055 26.403L40.6812 22.1976L45.1 19.496L44.5477 18.5991L39.1719 21.8913L42.8469 27.0155Z" fill="white"/>
<path d="M29.7004 48.0652C27.3541 47.7856 25.1917 46.6555 23.6225 44.8888C22.0534 43.1221 21.1863 40.8414 21.1855 38.4785" stroke="white" stroke-width="1.92" stroke-miterlimit="10" stroke-linecap="round"/>
<path d="M27.1633 43.0059L26.3047 43.6184L29.3289 47.8238L24.9102 50.5254L25.4625 51.4223L30.8383 48.1301L27.1633 43.0059Z" fill="white"/>
<path d="M23.827 31.5162C28.4571 31.5162 32.2105 27.7627 32.2105 23.1326C32.2105 18.5025 28.4571 14.749 23.827 14.749C19.1968 14.749 15.4434 18.5025 15.4434 23.1326C15.4434 27.7627 19.1968 31.5162 23.827 31.5162Z" fill="white"/>
<path d="M46.1844 55.2726C50.8145 55.2726 54.568 51.5191 54.568 46.889C54.568 42.2588 50.8145 38.5054 46.1844 38.5054C41.5542 38.5054 37.8008 42.2588 37.8008 46.889C37.8008 51.5191 41.5542 55.2726 46.1844 55.2726Z" fill="white"/>
</g>
</svg>
