<svg width="70" height="70" viewBox="0 0 70 70" fill="none" xmlns="http://www.w3.org/2000/svg">
<mask id="mask0" mask-type="alpha" maskUnits="userSpaceOnUse" x="0" y="0" width="70" height="70">
<circle cx="35" cy="35" r="35" fill="#C4C4C4"/>
</mask>
<g mask="url(#mask0)">
<path d="M52.0684 52.7406H54.9996C55.3105 52.7406 55.6087 52.6175 55.8291 52.3982C56.0494 52.1789 56.1739 51.8812 56.1754 51.5703V42.8203C56.174 42.5089 56.0496 42.2107 55.8294 41.9905C55.6092 41.7703 55.311 41.646 54.9996 41.6445H52.0684V52.7406ZM53.534 43.2852C53.5481 43.139 53.6161 43.0034 53.7248 42.9047C53.8335 42.806 53.9751 42.7513 54.1219 42.7513C54.2687 42.7513 54.4102 42.806 54.5189 42.9047C54.6276 43.0034 54.6957 43.139 54.7098 43.2852V44.4609C54.6957 44.6071 54.6276 44.7427 54.5189 44.8414C54.4102 44.9401 54.2687 44.9948 54.1219 44.9948C53.9751 44.9948 53.8335 44.9401 53.7248 44.8414C53.6161 44.7427 53.5481 44.6071 53.534 44.4609V43.2852Z" fill="white"/>
<path d="M25.9388 41.6445C26.2011 41.2845 26.5929 41.0405 27.0317 40.964C27.4704 40.8875 27.9217 40.9844 28.2904 41.2344L33.4529 44.5156C33.5506 45.0435 33.7955 45.533 34.1593 45.9277C34.5231 46.3225 34.991 46.6064 35.5091 46.7469L40.8521 48.043C40.9961 48.0759 41.1472 48.0553 41.2771 47.9848C41.407 47.9143 41.5067 47.7989 41.5575 47.6601C41.5888 47.5133 41.5641 47.3601 41.4882 47.2306C41.4123 47.1011 41.2908 47.0046 41.1474 46.9601L35.8044 45.6367C35.4029 45.5257 35.0604 45.2626 34.8496 44.9033C34.6388 44.544 34.5761 44.1168 34.675 43.7121C34.7739 43.3074 35.0264 42.9571 35.3792 42.7355C35.7319 42.5139 36.1571 42.4384 36.5646 42.525L39.0911 43.1156C40.3939 43.4534 41.77 43.3711 43.0232 42.8805C44.1169 42.4101 46.4904 42.175 50.9529 43.7008V50.9797L36.8599 51.0398C36.4963 51.0397 36.1435 50.9163 35.8591 50.6898L26.0591 42.525C25.942 42.4137 25.8663 42.2659 25.8444 42.1059C25.8226 41.9458 25.8558 41.7831 25.9388 41.6445Z" fill="white"/>
<path d="M15.3516 17.812C15.0407 17.812 14.7424 17.9351 14.5221 18.1545C14.3017 18.3738 14.1772 18.6714 14.1758 18.9823V27.9073C14.1815 28.2159 14.3077 28.5099 14.5274 28.7266C14.7472 28.9432 15.043 29.0653 15.3516 29.0667H18.168V17.812H15.3516ZM16.757 26.912C16.757 27.0672 16.6954 27.216 16.5856 27.3258C16.4759 27.4355 16.3271 27.4972 16.1719 27.4972C16.0167 27.4972 15.8678 27.4355 15.7581 27.3258C15.6484 27.216 15.5867 27.0672 15.5867 26.912V25.7362C15.5867 25.581 15.6484 25.4322 15.7581 25.3225C15.8678 25.2127 16.0167 25.1511 16.1719 25.1511C16.3271 25.1511 16.4759 25.2127 16.5856 25.3225C16.6954 25.4322 16.757 25.581 16.757 25.7362V26.912Z" fill="white"/>
<path d="M35.077 28.7324L35.3723 28.9676C35.9195 29.4129 36.2734 30.0525 36.36 30.7526C36.4466 31.4528 36.2593 32.1593 35.8371 32.7246C35.6137 32.9727 35.3581 33.1898 35.077 33.3699C34.6415 33.6278 34.1448 33.764 33.6387 33.764C33.1326 33.764 32.6358 33.6278 32.2004 33.3699L31.3473 32.8394C31.3473 33.0144 31.2871 33.1894 31.2871 33.4246C31.2871 34.3883 31.5729 35.3304 32.1083 36.1317C32.6437 36.933 33.4047 37.5575 34.2951 37.9263C35.1854 38.2951 36.1652 38.3916 37.1104 38.2036C38.0556 38.0156 38.9238 37.5515 39.6053 36.8701C40.2867 36.1886 40.7508 35.3204 40.9388 34.3752C41.1268 33.43 41.0303 32.4503 40.6615 31.5599C40.2927 30.6695 39.6682 29.9085 38.8669 29.3731C38.0656 28.8377 37.1235 28.5519 36.1598 28.5519C35.7899 28.5307 35.42 28.5924 35.077 28.7324Z" fill="white"/>
<path d="M32.8461 32.4295C33.1781 32.6304 33.5733 32.6997 33.9539 32.6238C34.3344 32.5479 34.6728 32.3322 34.9023 32.0194C35.1438 31.7014 35.2505 31.3011 35.1993 30.9051C35.1482 30.5091 34.9433 30.1491 34.6289 29.9029C28.1703 24.7951 28.3453 25.0904 28.4055 24.6201C28.4177 24.5093 28.4636 24.4048 28.5369 24.3207C28.6102 24.2367 28.7075 24.177 28.8156 24.1498C29.7885 23.7409 30.5956 23.0167 31.107 22.0936C31.1619 21.9938 31.2453 21.9127 31.3464 21.8604C31.4476 21.8081 31.562 21.7871 31.6751 21.8C31.7882 21.8129 31.8949 21.8591 31.9817 21.9328C32.0685 22.0065 32.1314 22.1043 32.1625 22.2139C32.4578 23.1545 34.3938 23.7397 35.0391 23.9147C35.1783 23.9338 35.3049 24.0058 35.3925 24.1158C35.4801 24.2258 35.5219 24.3653 35.5094 24.5053L35.3125 27.4256C35.5837 27.3821 35.8583 27.3638 36.1328 27.3709C36.5652 27.3793 36.9964 27.4177 37.4234 27.4858C38.1891 23.9037 38.1891 24.0787 38.2492 23.9639C38.8945 22.6733 37.5438 21.8475 37.4836 21.8475C37.4234 21.8475 37.4234 21.8475 37.4234 21.7928C31.8945 17.8662 32.2609 18.1287 32.2008 18.0467C31.3203 17.1061 29.2039 17.4561 28.4437 17.6365L19.3438 19.6873V27.0865C22.2203 27.4967 24.2656 27.2014 26.8578 28.6725L32.8461 32.4295Z" fill="white"/>
</g>
</svg>
