<svg width="70" height="70" viewBox="0 0 70 70" fill="none" xmlns="http://www.w3.org/2000/svg">
<mask id="mask0" mask-type="alpha" maskUnits="userSpaceOnUse" x="0" y="0" width="70" height="70">
<circle cx="35" cy="35" r="35" fill="#C4C4C4"/>
</mask>
<g mask="url(#mask0)">
<path d="M45.6859 41.7812H19.6055V56.3281H45.6859V41.7812Z" fill="white"/>
<path d="M47.3273 37.8325H18.0312V40.4903H47.3273V37.8325Z" fill="white"/>
<path fill-rule="evenodd" clip-rule="evenodd" d="M39.3531 33.2608L41.6883 29.6132L40.6328 28.9897L37.7234 30.1601C37.3589 30.3185 36.9669 30.404 36.5695 30.4116C35.6289 30.4116 34.8906 29.8647 34.3055 28.7218C34.1719 28.4515 34.0957 28.1565 34.0816 27.8553C34.0675 27.5542 34.1158 27.2534 34.2234 26.9718C34.4029 26.509 34.6986 26.1003 35.082 25.7851L33.5727 24.8663C33.5001 24.8204 33.437 24.761 33.3867 24.6913L33.1625 24.5601L26.8789 33.939L38.943 33.8733L39.3531 33.2608Z" fill="white"/>
<path fill-rule="evenodd" clip-rule="evenodd" d="M42.2949 33.2612H40.884L40.4465 33.9448H41.3762V35.23H26.3262L24.4777 35.2409L24.4832 35.23H23.9801V33.9448H25.3418L25.8012 33.2612H23.0395L18.834 36.548H46.5277L42.2949 33.2612Z" fill="white"/>
<path fill-rule="evenodd" clip-rule="evenodd" d="M45.6207 18.0519C43.9184 18.0209 42.2265 17.7784 40.584 17.33C40.455 17.2993 40.3228 17.2846 40.1902 17.2863C39.277 17.2863 38.2762 18.0683 37.5105 19.3808C36.5973 20.9558 36.2965 21.4863 35.9957 22.0113C35.6949 22.5363 35.4488 22.941 34.7871 24.1113L36.4277 25.1066L37.3629 24.7456C37.6477 24.4515 37.9109 24.1371 38.1504 23.805C38.4238 23.4495 38.6973 23.0831 38.9762 22.7933C39.1997 22.5323 39.473 22.3186 39.7801 22.1644C40.0236 22.0605 40.2865 22.0102 40.5512 22.0167C40.9427 22.0114 41.3305 22.0936 41.6863 22.2573C42.042 22.421 42.3567 22.662 42.6074 22.9628C42.6573 23.0405 42.69 23.1281 42.7032 23.2195C42.7164 23.3109 42.7098 23.4041 42.6839 23.4927C42.658 23.5814 42.6133 23.6634 42.5529 23.7334C42.4926 23.8033 42.4179 23.8594 42.334 23.898L37.9207 25.916L37.7074 25.998L36.4551 26.5066L36.2855 26.5777C36.0946 26.6559 35.921 26.7711 35.7746 26.9165C35.6282 27.062 35.5119 27.2349 35.4324 27.4253C35.3808 27.5377 35.3541 27.6599 35.3541 27.7835C35.3541 27.9072 35.3808 28.0294 35.4324 28.1417C35.941 29.1316 36.3676 29.1316 36.5262 29.1316C36.7816 29.1335 37.0346 29.0833 37.2699 28.9839L41.7488 27.1683C42.6846 26.7764 43.7038 26.626 44.7129 26.7308C44.8332 26.7308 44.9535 26.7308 45.0793 26.7308C45.8977 26.7469 46.6955 26.4739 47.3324 25.9597C47.583 25.7376 47.8499 25.5347 48.1309 25.3527L51.1988 23.3839L48.0434 17.9152C47.1137 18.0081 46.3316 18.0519 45.6207 18.0519Z" fill="white"/>
<path d="M50.9056 14.3285L48.291 15.8374L52.9025 23.828L55.5171 22.319L50.9056 14.3285Z" fill="white"/>
</g>
</svg>
