<svg width="70" height="70" viewBox="0 0 81 81" fill="none" xmlns="http://www.w3.org/2000/svg">
<path d="M54.7952 54.7487H26.9853C26.8667 54.7487 26.753 54.7017 26.6691 54.6178C26.5852 54.5339 26.5381 54.4202 26.5381 54.3016V26.5109C26.5381 26.3527 26.6009 26.201 26.7127 26.0892C26.8246 25.9774 26.9762 25.9146 27.1344 25.9146C27.2921 25.9158 27.4431 25.979 27.5547 26.0906C27.6662 26.2022 27.7294 26.3531 27.7307 26.5109V53.1281C27.7301 53.1871 27.7412 53.2455 27.7634 53.3001C27.7857 53.3546 27.8186 53.4042 27.8603 53.4458C27.9019 53.4875 27.9515 53.5204 28.006 53.5426C28.0606 53.5649 28.119 53.576 28.1779 53.5754H54.7952C54.953 53.5767 55.1039 53.6399 55.2155 53.7514C55.327 53.863 55.3903 54.0139 55.3915 54.1717C55.3865 54.3265 55.3215 54.4733 55.2102 54.581C55.0989 54.6887 54.9501 54.7488 54.7952 54.7487Z" fill="white"/>
<path d="M36.3255 49.2956C36.0851 49.2956 35.8446 49.2956 35.585 49.2956C33.772 49.2956 31.6705 48.858 30.324 47.6558L30.2471 47.5933V49.1129C30.2471 50.796 32.5505 52.0704 35.585 52.0704C38.6194 52.0704 40.8988 50.8056 40.9229 49.1273V47.7664L40.8555 47.7087C39.7206 48.7234 37.8932 49.1946 36.3255 49.2956Z" fill="white"/>
<path d="M44.2688 38.8896L43.634 38.4712L41.042 36.7352C40.8775 37.0188 40.7897 37.3403 40.7871 37.6681C40.7871 37.7162 40.7871 37.7691 40.7871 37.8172C40.9458 39.8466 43.9658 40.6304 46.1202 40.6304C49.1594 40.6304 51.4581 39.3608 51.4581 37.6729C51.4581 36.3553 50.0731 35.2685 48.0293 34.8838L44.7833 38.3366L44.2688 38.8896Z" fill="white"/>
<path d="M41.9365 44.6174C42.0712 45.2329 41.9798 45.8869 42.0087 47.2094C43.2549 47.938 44.6823 48.2981 46.1251 48.248C49.1739 48.248 51.4726 46.9689 51.4726 45.2762V43.8335C50.3473 44.8915 48.4334 45.5454 46.1251 45.5454C44.6749 45.5744 43.2388 45.2562 41.9365 44.6174Z" fill="white"/>
<path d="M40.792 40.0298V41.5205C40.8401 43.1892 43.1147 44.4444 46.1251 44.4444C49.1354 44.4444 51.4678 43.1652 51.4678 41.4725C51.4678 40.2077 51.4678 40.0298 51.4678 40.0298C49.0345 42.2996 43.1868 42.2611 40.792 40.0298Z" fill="white"/>
<path d="M42.0322 48.459V51.0366C43.277 51.7645 44.7027 52.1247 46.1438 52.0753C49.1927 52.0753 51.4962 50.8009 51.4962 49.1082V47.6655C50.3709 48.7187 48.4569 49.3775 46.1487 49.3775C44.7246 49.3879 43.3168 49.0738 42.0322 48.459Z" fill="white"/>
<path d="M39.9218 43.4921C38.9359 42.7371 37.3538 42.3091 35.5937 42.3091C32.5497 42.3091 30.2559 43.5835 30.2559 45.2762C30.2559 46.9689 32.5497 48.2385 35.5937 48.2385C37.3634 48.2385 38.96 47.8057 39.9218 47.0555C41.2731 46.0264 41.2442 44.4972 39.9218 43.4921Z" fill="white"/>
<path d="M52.9734 26.271L53.863 27.1029L44.1346 37.4469L38.0225 33.3593L32.5981 38.0528C32.5327 38.1096 32.456 38.1518 32.3731 38.1767C32.2902 38.2016 32.203 38.2085 32.1172 38.1971C31.9994 38.1792 31.8892 38.1279 31.7999 38.0491C31.7106 37.9703 31.6458 37.8674 31.6133 37.7528C31.5809 37.6382 31.5821 37.5166 31.6169 37.4027C31.6516 37.2888 31.7185 37.1873 31.8094 37.1103L37.9552 31.8205L43.9423 35.8888L52.9926 26.271" fill="white"/>
<path d="M54.0119 26.1117L54.0456 33.3251C54.0462 33.404 54.0313 33.4823 54.0017 33.5555C53.972 33.6287 53.9283 33.6953 53.8729 33.7516C53.8175 33.8078 53.7516 33.8526 53.6789 33.8834C53.6062 33.9142 53.5282 33.9304 53.4493 33.931H53.3531C53.2103 33.9093 53.08 33.8372 52.9857 33.7279C52.8914 33.6185 52.8392 33.4791 52.8385 33.3347L52.8145 27.3428H46.813H46.7216C46.5801 27.3203 46.451 27.2486 46.3569 27.1405C46.2628 27.0324 46.2098 26.8946 46.2071 26.7513C46.2064 26.6717 46.2215 26.5928 46.2513 26.5191C46.2812 26.4453 46.3253 26.3781 46.3811 26.3214C46.4369 26.2647 46.5034 26.2196 46.5767 26.1885C46.6499 26.1575 46.7286 26.1412 46.8082 26.1406L54.0215 26.1069" fill="white"/>
</svg>
