<svg width="70" height="70" viewBox="0 0 70 70" fill="none" xmlns="http://www.w3.org/2000/svg">
<mask id="mask0" mask-type="alpha" maskUnits="userSpaceOnUse" x="0" y="0" width="70" height="70">
<circle cx="35" cy="35" r="35" fill="#C4C4C4"/>
</mask>
<g mask="url(#mask0)">
<path d="M35.1611 15.4986C34.8768 15.5072 34.6069 15.6262 34.4089 15.8304C34.2108 16.0346 34.1001 16.3079 34.1002 16.5924V23.1822C34.1406 23.4365 34.2694 23.6684 34.4639 23.8371C34.6585 24.0057 34.9063 24.1003 35.1637 24.1043C35.4212 24.1082 35.6718 24.0212 35.8714 23.8585C36.0709 23.6958 36.2068 23.468 36.2549 23.215V16.5869C36.255 16.3024 36.1443 16.0291 35.9462 15.8249C35.7481 15.6207 35.4783 15.5017 35.1939 15.4932L35.1611 15.4986ZM28.3799 17.4346C28.0972 17.4343 27.8255 17.5436 27.6215 17.7393C27.4176 17.9351 27.2974 18.2021 27.2861 18.4846C27.2826 18.5916 27.2955 18.6986 27.3244 18.8018L28.3471 22.6299C28.3622 22.7876 28.4114 22.9401 28.4913 23.0769C28.5712 23.2136 28.6798 23.3314 28.8097 23.4221C28.9395 23.5128 29.0876 23.5742 29.2435 23.602C29.3994 23.6299 29.5596 23.6235 29.7128 23.5834C29.866 23.5433 30.0087 23.4704 30.131 23.3697C30.2533 23.269 30.3523 23.143 30.421 23.0003C30.4898 22.8576 30.5268 22.7017 30.5294 22.5433C30.532 22.3849 30.5002 22.2279 30.4361 22.083C30.4361 22.083 30.4361 22.083 30.4361 22.0502L29.4135 18.2221C29.3472 17.9949 29.209 17.7953 29.0197 17.6533C28.8304 17.5113 28.6001 17.4346 28.3635 17.4346H28.3799ZM42.0518 17.4346C41.8048 17.4261 41.5623 17.5015 41.3637 17.6485C41.1651 17.7954 41.0221 18.0053 40.958 18.2439L39.9353 22.0721C39.9118 22.326 39.9777 22.5803 40.1216 22.7908C40.2656 23.0013 40.4787 23.1549 40.7239 23.2249C40.9692 23.295 41.2312 23.2771 41.4647 23.1745C41.6981 23.0718 41.8884 22.8908 42.0025 22.6627C42.0025 22.6627 42.0025 22.6627 42.0025 22.6299L43.0252 18.8018C43.0978 18.5256 43.0595 18.232 42.9184 17.9836C42.7774 17.7353 42.5449 17.552 42.2705 17.4729C42.1936 17.4521 42.1148 17.4393 42.0353 17.4346H42.0518ZM20.7236 18.3424C20.4393 18.3579 20.1723 18.4838 19.9793 18.6931C19.7862 18.9025 19.6825 19.1788 19.69 19.4635C19.6998 19.6428 19.7523 19.8172 19.8432 19.9721L23.1244 25.6869C23.2821 25.8941 23.5085 26.0383 23.7629 26.0935C24.0174 26.1487 24.2832 26.1114 24.5126 25.9881C24.7419 25.8649 24.9198 25.6638 25.0142 25.4212C25.1086 25.1785 25.1133 24.9101 25.0275 24.6643V24.6369L21.7463 18.9221C21.6491 18.739 21.5019 18.5873 21.3218 18.4847C21.1417 18.382 20.9361 18.3327 20.7291 18.3424H20.7236ZM49.5549 18.3424C49.3621 18.3416 49.1726 18.3918 49.0055 18.4878C48.8384 18.5839 48.6997 18.7223 48.6033 18.8893L45.3221 24.6041C45.2199 24.7259 45.1454 24.8685 45.1039 25.0219C45.0624 25.1754 45.0549 25.3361 45.0819 25.4928C45.1088 25.6494 45.1696 25.7984 45.26 25.9291C45.3504 26.0599 45.4682 26.1694 45.6052 26.2501C45.7423 26.3307 45.8952 26.3804 46.0535 26.3959C46.2117 26.4113 46.3714 26.3921 46.5214 26.3395C46.6715 26.287 46.8082 26.2023 46.9222 26.0915C47.0362 25.9807 47.1247 25.8464 47.1814 25.6979L50.4627 19.983C50.6047 19.7368 50.6453 19.445 50.5759 19.1694C50.5065 18.8938 50.3325 18.656 50.0908 18.5064C49.9252 18.4081 49.7365 18.3553 49.5439 18.3533L49.5549 18.3424ZM15.2385 23.5049C15.0291 23.5138 14.8266 23.5828 14.6553 23.7035C14.4839 23.8242 14.3509 23.9916 14.2719 24.1857C14.193 24.3799 14.1715 24.5927 14.21 24.7987C14.2486 25.0047 14.3455 25.1953 14.4893 25.3479L17.2838 28.1479C17.3732 28.2802 17.4906 28.3913 17.6276 28.4734C17.7646 28.5555 17.918 28.6066 18.0768 28.6231C18.2357 28.6396 18.3963 28.6211 18.5472 28.5689C18.6982 28.5168 18.8359 28.4321 18.9507 28.321C19.0654 28.2099 19.1545 28.075 19.2115 27.9258C19.2685 27.7766 19.2922 27.6167 19.2808 27.4574C19.2695 27.2981 19.2234 27.1432 19.1457 27.0036C19.0681 26.864 18.9608 26.7431 18.8314 26.6494L16.0205 23.8275C15.8163 23.6221 15.539 23.5061 15.2494 23.5049H15.2385ZM55.051 23.5049C54.7728 23.5146 54.5088 23.63 54.3127 23.8275L51.5182 26.6275C51.3692 26.8349 51.2975 27.0879 51.3154 27.3426C51.3334 27.5973 51.44 27.8377 51.6166 28.0222C51.7932 28.2066 52.0288 28.3234 52.2825 28.3523C52.5362 28.3813 52.792 28.3205 53.0057 28.1807L53.0385 28.1479L55.833 25.3479C55.9784 25.1933 56.0757 24.9997 56.113 24.7908C56.1503 24.5819 56.126 24.3666 56.0431 24.1713C55.9602 23.9759 55.8223 23.8089 55.6461 23.6906C55.4699 23.5723 55.2632 23.5077 55.051 23.5049ZM28.1885 26.983C27.5942 26.982 27.0153 27.1724 26.5376 27.526C26.0599 27.8796 25.7088 28.3776 25.5361 28.9463H25.4978C24.8381 28.9473 24.2004 29.1836 23.6992 29.6126C23.1981 30.0416 22.8663 30.6353 22.7635 31.2869C22.4002 30.8411 21.9073 30.5193 21.353 30.366C20.7987 30.2128 20.2105 30.2356 19.6698 30.4315C19.1291 30.6274 18.6627 30.9865 18.3351 31.4592C18.0076 31.9319 17.8351 32.4947 17.8416 33.0697C17.8425 33.5489 17.9668 34.0198 18.2025 34.4369H52.1088C52.3488 34.0212 52.4752 33.5497 52.4752 33.0697C52.4752 32.3329 52.1825 31.6263 51.6615 31.1053C51.1405 30.5843 50.4339 30.2916 49.6971 30.2916C49.3466 30.2953 48.9999 30.3639 48.6744 30.4939C48.673 29.7581 48.3796 29.0529 47.8588 28.533C47.3379 28.0132 46.6321 27.7213 45.8963 27.7213C45.2711 27.7217 44.6642 27.933 44.174 28.3211C43.6837 28.7091 43.3387 29.2511 43.1947 29.8596C42.6986 29.4492 42.0749 29.2247 41.431 29.2247C40.7872 29.2247 40.1635 29.4492 39.6674 29.8596C39.6356 29.1942 39.3658 28.5624 38.9072 28.0793C38.4486 27.5962 37.8317 27.294 37.1688 27.2277C36.506 27.1614 35.8415 27.3355 35.2963 27.7182C34.7511 28.1009 34.3615 28.6668 34.1986 29.3127C33.7415 28.936 33.1744 28.7179 32.5826 28.6913C31.9909 28.6647 31.4065 28.8309 30.9174 29.165C30.7864 28.5374 30.4428 27.9743 29.9446 27.5707C29.4464 27.1672 28.8241 26.948 28.183 26.9502L28.1885 26.983ZM15.2385 35.8697V49.2736C15.2363 49.9737 15.3726 50.6674 15.6395 51.3146C15.9064 51.9618 16.2987 52.5499 16.7938 53.0449C17.2888 53.54 17.8769 53.9322 18.5241 54.1992C19.1713 54.4661 19.8649 54.6024 20.565 54.6002H49.7572C50.4573 54.6024 51.1509 54.4661 51.7982 54.1992C52.4454 53.9322 53.0334 53.54 53.5285 53.0449C54.0235 52.5499 54.4158 51.9618 54.6827 51.3146C54.9496 50.6674 55.0859 49.9737 55.0838 49.2736V35.8697H15.2385ZM28.7189 39.3533H41.6033V44.6854C41.6033 46.3939 40.9246 48.0325 39.7164 49.2407C38.5083 50.4488 36.8697 51.1275 35.1611 51.1275C33.4526 51.1275 31.814 50.4488 30.6058 49.2407C29.3977 48.0325 28.7189 46.3939 28.7189 44.6854V39.3533ZM35.1611 40.9447C34.6428 40.9524 34.1422 41.1347 33.7404 41.4622C33.3386 41.7898 33.0591 42.2433 32.9471 42.7495C32.8351 43.2556 32.8972 43.7847 33.1234 44.2512C33.3495 44.7176 33.7264 45.0941 34.1932 45.3197L33.4166 48.8252H36.9057L36.1291 45.3361C36.5958 45.1105 36.9728 44.734 37.1989 44.2676C37.425 43.8011 37.4871 43.272 37.3752 42.7659C37.2632 42.2597 36.9837 41.8062 36.5818 41.4786C36.18 41.1511 35.6795 40.9688 35.1611 40.9611V40.9447Z" fill="white"/>
</g>
</svg>
