<svg width="70" height="70" viewBox="0 0 81 82" fill="none" xmlns="http://www.w3.org/2000/svg">
<path d="M60.4365 40.1756L53.3063 35.2672C53.419 34.9498 53.4297 34.6055 53.3368 34.2819C53.2439 33.9583 53.052 33.6713 52.7876 33.4607C52.5233 33.2501 52.1996 33.1263 51.8614 33.1065C51.5231 33.0866 51.187 33.1717 50.8995 33.3498L45.3202 28.5118C45.3813 28.2783 45.3635 28.0313 45.2693 27.809C45.1752 27.5866 45.01 27.4011 44.7992 27.2812C44.5885 27.1613 44.3438 27.1136 44.1031 27.1454C43.8623 27.1772 43.6387 27.2867 43.4669 27.4572C43.3999 27.5267 43.3415 27.6039 43.2931 27.6873H37.199C37.1476 27.5112 37.0524 27.3507 36.9223 27.2207C36.7426 27.04 36.5055 26.9265 36.2512 26.8997C35.9969 26.8729 35.7411 26.9344 35.5273 27.0737C35.3135 27.2131 35.1548 27.4216 35.0783 27.6639C35.0018 27.9063 35.0121 28.1674 35.1075 28.4031L24.882 38.386C24.6823 38.3111 24.4651 38.2947 24.2563 38.3389C24.0475 38.3831 23.8559 38.486 23.7043 38.6353C23.6 38.737 23.5172 38.8584 23.4607 38.9922C23.4041 39.1261 23.375 39.2698 23.375 39.415C23.375 39.5602 23.4041 39.7039 23.4607 39.8378C23.5172 39.9717 23.6 40.0931 23.7043 40.1948C23.8934 40.386 24.149 40.4981 24.4187 40.508L27.0764 51.5774L26.9734 51.6605C26.7879 51.8703 26.6891 52.1421 26.6971 52.4213C26.7051 52.7005 26.8191 52.9664 27.0163 53.1655C27.2135 53.3646 27.4793 53.4822 27.7602 53.4947C28.0412 53.5071 28.3164 53.4135 28.5307 53.2327L36.7421 57.5403C36.7138 57.768 36.758 57.9988 36.8684 58.2003C36.9788 58.4019 37.15 58.5641 37.3579 58.6641C37.5658 58.7642 37.8 58.7972 38.0277 58.7584C38.2554 58.7196 38.4651 58.611 38.6276 58.4479C38.7485 58.3255 38.8393 58.1771 38.8929 58.0141C38.9465 57.8511 38.9614 57.678 38.9365 57.5084L50.1466 52.9323C50.2061 53.0281 50.2775 53.1161 50.359 53.1944C50.6718 53.4705 51.079 53.6174 51.4973 53.6052C51.9156 53.593 52.3135 53.4224 52.6094 53.1285C52.9053 52.8346 53.077 52.4396 53.0893 52.0241C53.1016 51.6087 52.9536 51.2043 52.6756 50.8936C52.4638 50.6817 52.1962 50.5333 51.9034 50.4653V46.7904C52.011 46.7447 52.1091 46.6797 52.193 46.5987C52.3347 46.4526 52.4231 46.2636 52.444 46.0618L60.1018 41.946C60.2456 42.0877 60.4255 42.1878 60.6223 42.2355C60.819 42.2832 61.0252 42.2768 61.2185 42.2168C61.4118 42.1568 61.585 42.0454 61.7193 41.8949C61.8537 41.7444 61.9442 41.5604 61.981 41.3626C62.0179 41.1648 61.9997 40.9607 61.9285 40.7724C61.8572 40.5841 61.7356 40.4188 61.5767 40.294C61.4178 40.1693 61.2277 40.09 61.0268 40.0646C60.8259 40.0392 60.6218 40.0687 60.4365 40.15V40.1756ZM50.9381 46.6243C51.0051 46.6909 51.0836 46.745 51.1698 46.784V50.4781C50.9524 50.5273 50.7468 50.6185 50.5649 50.7465L46.53 47.5062C46.5668 47.339 46.5645 47.1656 46.5233 46.9994C46.482 46.8331 46.4028 46.6786 46.2919 46.5476L47.9458 43.1986C48.0268 43.2115 48.1093 43.2115 48.1903 43.1986L50.7 45.8254C50.6692 45.9677 50.6748 46.1154 50.7164 46.255C50.758 46.3946 50.8343 46.5215 50.9381 46.6243V46.6243ZM44.342 47.2634L36.7678 50.0307L36.7228 49.9988L38.9558 45.3077C39.1084 45.3247 39.2629 45.3096 39.4093 45.2633C39.5556 45.2171 39.6905 45.1407 39.8052 45.0393L44.3742 47.078C44.358 47.1365 44.3472 47.1965 44.342 47.257V47.2634ZM35.1847 50.018C35.0777 50.1254 34.9944 50.2538 34.9402 50.395L30.9568 49.3405C30.9582 49.1023 30.8658 48.873 30.6994 48.7014C30.6677 48.6725 30.6333 48.6468 30.5965 48.6247L32.0637 42.9365C32.3051 42.9611 32.549 42.9327 32.7781 42.8531C33.0072 42.7736 33.2159 42.645 33.3893 42.4764C33.4408 42.4189 33.4859 42.3549 33.5309 42.2974L37.9583 44.2148C37.9588 44.3564 37.9875 44.4965 38.0427 44.627C38.0979 44.7575 38.1786 44.8759 38.2801 44.9754V44.9754L36.0342 49.6984C35.8783 49.6878 35.722 49.7101 35.5755 49.7641C35.429 49.8181 35.2958 49.9025 35.1847 50.0116V50.018ZM37.0638 56.9204L28.8525 52.6192C28.8733 52.4718 28.8629 52.3218 28.8219 52.1787C28.7809 52.0357 28.7102 51.9026 28.6144 51.7883L29.9014 50.2225C30.0364 50.2482 30.1754 50.2432 30.308 50.2077C30.4407 50.1723 30.5635 50.1074 30.6672 50.018L34.9338 51.1428C34.9833 51.3093 35.074 51.4609 35.1976 51.5838C35.3085 51.6944 35.4425 51.7795 35.5902 51.8331L37.096 56.9076L37.0638 56.9204ZM25.3518 40.1308C25.3993 40.0714 25.4403 40.0072 25.474 39.9391L30.6222 41.2749C30.6113 41.5005 30.6474 41.7259 30.7283 41.9371C30.8091 42.1482 30.9329 42.3405 31.092 42.502C31.1839 42.5896 31.2853 42.6667 31.3944 42.7321L29.9079 48.4841L25.3518 40.1308ZM36.9351 28.8121C37.0417 28.7093 37.1251 28.5851 37.1797 28.4479H43.1708C43.1951 28.6089 43.2568 28.762 43.351 28.8952L38.1642 34.5003H38.087L36.6262 29.0422C36.738 28.981 36.8381 28.901 36.9223 28.8057L36.9351 28.8121ZM44.9276 29.1509L50.3911 33.8931C50.1586 34.2528 50.0777 34.6889 50.1659 35.1074L45.0177 36.865L44.9598 36.7883C44.8781 36.7092 44.782 36.6463 44.6767 36.6029V29.3043C44.7641 29.264 44.8445 29.21 44.9148 29.1445L44.9276 29.1509ZM48.0358 41.4474C47.9344 41.4474 47.8338 41.4669 47.7398 41.5049L45.0435 37.9195C45.1123 37.8198 45.1584 37.7064 45.1786 37.5872L50.4683 35.7849C50.5077 35.8388 50.5507 35.8901 50.5971 35.9383C50.6672 36.0127 50.7473 36.0772 50.8352 36.13L48.0358 41.4474ZM45.6741 46.1833C45.5107 46.1535 45.3427 46.1605 45.1824 46.2036C45.022 46.2467 44.8734 46.3249 44.7475 46.4325L40.2042 44.4065L47.2829 42.911L45.6741 46.1833ZM33.8462 41.6519C33.8916 41.4302 33.8886 41.2014 33.8376 40.981C33.7865 40.7605 33.6885 40.5534 33.5502 40.3737L37.5979 36.1555H37.6687L38.5375 43.1858C38.4483 43.2344 38.3661 43.2946 38.293 43.3648C38.2608 43.3967 38.235 43.435 38.2029 43.4734L33.8462 41.6519ZM43.9045 29.3681V36.6157C43.8173 36.6592 43.7371 36.7152 43.6664 36.7819L43.5956 36.865L38.7048 35.1841C38.6928 35.1258 38.6778 35.0682 38.6598 35.0115L43.9045 29.3681ZM43.4476 37.5744C43.4609 37.6399 43.4803 37.7041 43.5055 37.7661L39.4256 43.1538L39.2582 43.1091L38.3509 36.0022L38.4474 35.9255L38.4989 35.8616L43.4476 37.5744ZM40.0562 43.6907L40.0047 43.5949L44.0589 38.2455C44.1838 38.2741 44.3137 38.2741 44.4386 38.2455L47.2121 41.9779C47.1874 42.0347 47.1722 42.0952 47.1671 42.1568L40.0562 43.6907ZM35.8926 29.0933L37.3598 34.5897C37.3117 34.622 37.2665 34.6583 37.2247 34.6983C37.0971 34.8245 37.0114 34.9864 36.9791 35.1624C36.9469 35.3383 36.9698 35.5199 37.0445 35.6826L32.9968 39.9071C32.6867 39.7424 32.3313 39.6815 31.9835 39.7333C31.6357 39.7851 31.314 39.947 31.0662 40.1948C30.9572 40.3075 30.8641 40.4343 30.7895 40.5718L25.5706 39.2041C25.5428 39.0922 25.4995 38.9846 25.4419 38.8846L35.5837 28.9719C35.6756 29.0272 35.7754 29.0681 35.8798 29.0933H35.8926ZM51.1634 45.2246L48.8081 42.764L48.866 42.649L59.6385 41.3707L52.2187 45.3652C52.0814 45.2278 51.9021 45.1394 51.7088 45.1139C51.5155 45.0885 51.3191 45.1274 51.1505 45.2246H51.1634ZM59.8444 40.6421L48.8274 41.9204C48.795 41.8535 48.7539 41.7912 48.7051 41.735L51.5366 36.3601C51.7879 36.3974 52.0445 36.3758 52.2858 36.297C52.5272 36.2182 52.7466 36.0844 52.9266 35.9063V35.9063L59.8444 40.6421ZM29.2901 48.9506C29.2236 49.0769 29.1888 49.2172 29.1888 49.3597C29.1888 49.5021 29.2236 49.6425 29.2901 49.7687L28.0031 51.3856C27.9304 51.3763 27.8569 51.3763 27.7843 51.3856L25.5255 41.9715L29.2901 48.9506ZM38.6083 56.8821C38.495 56.7814 38.3627 56.7041 38.2191 56.6547C38.0755 56.6054 37.9234 56.5848 37.7717 56.5944L36.3495 51.8203C36.5073 51.7689 36.6506 51.6813 36.7678 51.5646C36.8771 51.4507 36.9602 51.3145 37.0113 51.1655C37.0624 51.0166 37.0804 50.8583 37.0638 50.7018L44.5737 47.9536C44.6059 47.9536 44.6252 48.0239 44.6574 48.0559C44.8494 48.2459 45.1054 48.3588 45.3762 48.373C45.647 48.3872 45.9135 48.3015 46.1246 48.1326L50.0758 51.3281C49.9099 51.6282 49.8445 51.973 49.8892 52.3124L38.6083 56.8821Z" fill="white"/>
</svg>
