<svg width="70" height="70" viewBox="0 0 81 82" fill="none" xmlns="http://www.w3.org/2000/svg">
<path d="M31.2447 35.3733L29.0482 33.9456C28.9323 33.8741 28.7998 33.8341 28.6638 33.8296H28.4929C28.395 33.8504 28.3028 33.8924 28.2227 33.9524C28.1427 34.0125 28.0766 34.0893 28.0292 34.1774L22.3914 43.0002C22.335 43.0833 22.2956 43.1769 22.2757 43.2754C22.2558 43.3738 22.2557 43.4752 22.2755 43.5737C22.2904 43.6738 22.3301 43.7686 22.3908 43.8495C22.4515 43.9305 22.5314 43.9951 22.6233 44.0374L24.8198 45.4653C24.9029 45.5217 24.9964 45.561 25.0949 45.5809C25.1934 45.6008 25.2948 45.6009 25.3934 45.5812C25.4934 45.5662 25.5882 45.5266 25.6691 45.4659C25.7501 45.4051 25.8147 45.3253 25.8571 45.2334L31.4827 36.4105C31.5354 36.3269 31.5711 36.2336 31.5877 36.1361C31.6043 36.0386 31.6014 35.9388 31.5793 35.8425C31.5572 35.7461 31.5163 35.655 31.4589 35.5745C31.4014 35.494 31.3287 35.4256 31.2447 35.3733ZM25.6618 43.4212C25.5236 43.6248 25.3186 43.7738 25.0822 43.8422C25.0029 43.8422 24.9662 43.8849 24.8869 43.8849C24.708 43.8898 24.5324 43.8362 24.3866 43.7324C24.1969 43.5933 24.0675 43.387 24.025 43.1557C23.9825 42.9243 24.0301 42.6855 24.1581 42.4881C24.286 42.2907 24.4846 42.1497 24.7132 42.0941C24.9417 42.0384 25.1829 42.0723 25.3872 42.1887C25.5963 42.3362 25.7474 42.552 25.8143 42.7989C25.8431 43.0181 25.7886 43.2401 25.6618 43.4212Z" fill="white"/>
<path d="M58.7438 42.9999L53.1182 34.2137C53.013 34.0474 52.85 33.9257 52.6606 33.8721H52.502C52.3548 33.8738 52.2103 33.9115 52.081 33.9819L49.8844 35.4096C49.801 35.4624 49.7288 35.5311 49.6719 35.6119C49.6151 35.6926 49.5748 35.7838 49.5532 35.8802C49.5317 35.9765 49.5294 36.0762 49.5464 36.1734C49.5635 36.2707 49.5995 36.3636 49.6526 36.4469L55.2782 45.2331C55.3859 45.4004 55.5551 45.5184 55.7492 45.5618C55.9434 45.6052 56.1468 45.5705 56.3154 45.465L58.512 44.0372C58.5954 43.9844 58.6676 43.9157 58.7245 43.835C58.7813 43.7542 58.8216 43.663 58.8432 43.5667C58.8647 43.4703 58.867 43.3707 58.85 43.2734C58.8329 43.1762 58.7969 43.0832 58.7438 42.9999ZM56.7425 43.6894C56.591 43.781 56.4191 43.8334 56.2422 43.842C56.175 43.8477 56.1075 43.835 56.047 43.8053C55.9247 43.7861 55.8088 43.7378 55.709 43.6645C55.6092 43.5913 55.5284 43.4952 55.4734 43.3843C55.4068 43.2829 55.362 43.1686 55.3421 43.0488C55.3221 42.929 55.3274 42.8064 55.3575 42.6888C55.3732 42.5606 55.4197 42.4382 55.493 42.3319C55.5663 42.2257 55.6643 42.1387 55.7785 42.0786C55.9834 41.9476 56.2319 41.9029 56.4697 41.9543C56.7074 42.0057 56.9152 42.1491 57.0476 42.3531C57.1734 42.5736 57.2119 42.8333 57.1554 43.0808C57.0989 43.3282 56.9516 43.5454 56.7425 43.6894Z" fill="white"/>
<path d="M49.7332 46.3077L49.0377 45.4657C47.0805 43.4287 44.8157 41.7115 42.326 40.3769L41.7463 41.2678C41.5187 41.6249 41.1824 41.8995 40.7869 42.051C40.3915 42.2026 39.9578 42.2232 39.5498 42.1098H39.4766C38.9999 41.9561 38.5976 41.6302 38.3483 41.1958C38.099 40.7615 38.0205 40.2498 38.1281 39.7607C38.3066 38.8977 38.6328 38.072 39.0922 37.32L38.1647 37.1614C37.4782 37.0862 36.7844 37.2068 36.1634 37.5092L35.5838 37.8204C35.2204 38.0177 34.8172 38.1306 34.4042 38.1507C33.9911 38.1707 33.5789 38.0975 33.1981 37.9363L32.0449 37.436L27.4199 44.6358L29.0735 45.7524L29.9643 44.8676C30.3163 44.4952 30.8006 44.276 31.3127 44.2575C31.7789 44.2644 32.2269 44.4402 32.5735 44.752C32.9202 45.0639 33.1421 45.4908 33.1981 45.9537C33.5111 45.8773 33.8386 45.8833 34.1487 45.9709C34.4587 46.0586 34.7408 46.2251 34.9675 46.4541C35.3175 46.8155 35.5124 47.2994 35.5106 47.8025C35.5196 47.9322 35.5051 48.0624 35.4678 48.1869C35.8751 48.223 36.257 48.3999 36.5478 48.6872H36.5844C36.815 48.9141 36.9823 49.1973 37.0701 49.5087C37.1578 49.82 37.1629 50.1489 37.0848 50.4628C37.5112 50.5015 37.9096 50.6921 38.2075 50.9997V51.0364C38.5536 51.3998 38.7459 51.8829 38.7444 52.3848C38.7414 52.802 38.6069 53.2077 38.36 53.5441L39.2813 54.6973C39.5232 54.9246 39.8446 55.0481 40.1766 55.0412C40.5085 55.0344 40.8245 54.8978 41.0569 54.6606C41.2926 54.4227 41.4299 54.1046 41.4413 53.7698C41.4421 53.6134 41.4118 53.4583 41.3521 53.3138C41.2924 53.1692 41.2045 53.038 41.0935 52.9278L40.7091 52.5373C40.6209 52.4286 40.5728 52.2929 40.5728 52.1529C40.5728 52.0129 40.6209 51.8772 40.7091 51.7685C40.8178 51.6803 40.9535 51.6322 41.0935 51.6322C41.2334 51.6322 41.3692 51.6803 41.4779 51.7685L42.2101 52.5007C42.3294 52.6224 42.4717 52.7191 42.6289 52.7852C42.7861 52.8512 42.9548 52.8853 43.1253 52.8853C43.2958 52.8853 43.4645 52.8512 43.6217 52.7852C43.7788 52.7191 43.9212 52.6224 44.0405 52.5007L44.0771 52.4641C44.301 52.2227 44.4254 51.9055 44.4254 51.5763C44.4254 51.247 44.301 50.93 44.0771 50.6885L43.2656 49.8832C43.2149 49.8332 43.1751 49.7732 43.1489 49.707C43.1226 49.6408 43.1104 49.5699 43.1131 49.4988C43.11 49.4276 43.122 49.3565 43.1483 49.2903C43.1746 49.224 43.2146 49.1641 43.2656 49.1144C43.3748 49.0246 43.5117 48.9755 43.6531 48.9755C43.7944 48.9755 43.9313 49.0246 44.0405 49.1144L45.1937 50.2676C45.3104 50.3818 45.4488 50.4714 45.6008 50.5311C45.7528 50.5909 45.9152 50.6195 46.0784 50.6153C46.2417 50.6195 46.4041 50.5909 46.556 50.5311C46.708 50.4714 46.8464 50.3818 46.9631 50.2676C47.0859 50.1565 47.1848 50.0215 47.2538 49.871C47.3228 49.7205 47.3605 49.5575 47.3645 49.3919C47.3685 49.2264 47.3388 49.0618 47.2771 48.9081C47.2154 48.7544 47.1231 48.615 47.0059 48.4981L45.7855 47.2778C45.6873 47.1727 45.6327 47.0342 45.6327 46.8903C45.6327 46.7465 45.6873 46.608 45.7855 46.5029C45.8943 46.4147 46.03 46.3666 46.1699 46.3666C46.3099 46.3666 46.4456 46.4147 46.5543 46.5029L48.0553 48.0099C48.1856 48.1433 48.3412 48.2493 48.5131 48.3216C48.6849 48.394 48.8695 48.4311 49.056 48.431H49.0987C49.2642 48.4283 49.4276 48.393 49.5794 48.327C49.7312 48.261 49.8685 48.1658 49.9834 48.0466C50.2051 47.8198 50.3299 47.5156 50.3312 47.1985C50.3226 47.0414 50.296 46.8858 50.2519 46.7347C50.0474 46.6359 49.8695 46.4894 49.7332 46.3077Z" fill="white"/>
<path d="M44.2233 37.2223L42.4904 36.6122C42.0943 36.4819 41.6666 36.4828 41.271 36.6147C40.8753 36.7466 40.5327 37.0024 40.2939 37.3443L40.2207 37.4603C39.7221 38.2008 39.3681 39.0288 39.1773 39.9009C39.1315 40.1354 39.1732 40.3786 39.2947 40.5843C39.4161 40.7901 39.6088 40.9442 39.8363 41.0175C40.0221 41.0728 40.221 41.0651 40.402 40.9956C40.583 40.926 40.7359 40.7986 40.8369 40.6331L41.685 39.3212C41.7367 39.2482 41.8054 39.189 41.8851 39.1486C41.9649 39.1082 42.0533 39.0878 42.1427 39.0894C42.2224 39.0822 42.3026 39.097 42.3745 39.1321C42.6064 39.248 48.4211 42.134 51.118 46.3319L53.8149 44.7943L49.0801 37.4359C47.472 37.8087 45.7925 37.7349 44.2233 37.2223Z" fill="white"/>
<path d="M37.4452 51.9155C37.29 51.7687 37.0852 51.6859 36.8716 51.6836C36.6472 51.686 36.4309 51.7682 36.2615 51.9155L34.9863 53.1845C34.9003 53.2612 34.8315 53.3553 34.7844 53.4604C34.7372 53.5656 34.7129 53.6795 34.7129 53.7947C34.7129 53.9099 34.7372 54.0239 34.7844 54.129C34.8315 54.2342 34.9003 54.3282 34.9863 54.4049C35.1522 54.5588 35.3701 54.6444 35.5964 54.6444C35.8227 54.6444 36.0407 54.5588 36.2066 54.4049L37.4757 53.1297C37.6307 52.965 37.7141 52.7456 37.7076 52.5195C37.7235 52.4119 37.7105 52.302 37.6697 52.2012C37.6289 52.1003 37.562 52.0122 37.4757 51.946L37.4452 51.9155Z" fill="white"/>
<path d="M35.8142 49.6202C35.6482 49.4674 35.4297 49.3844 35.2041 49.3883C34.9798 49.3918 34.7639 49.4738 34.5939 49.6202L32.977 51.2371C32.8258 51.4041 32.7431 51.622 32.7452 51.8473C32.7476 52.0717 32.8298 52.288 32.977 52.4574C33.1415 52.6141 33.36 52.7015 33.5872 52.7015C33.8143 52.7015 34.0328 52.6141 34.1973 52.4574L35.8142 50.8405C35.8985 50.7628 35.9658 50.6684 36.0118 50.5634C36.0579 50.4584 36.0816 50.345 36.0816 50.2303C36.0816 50.1157 36.0579 50.0023 36.0118 49.8973C35.9658 49.7922 35.8985 49.6979 35.8142 49.6202Z" fill="white"/>
<path d="M34.4784 47.9312C34.4788 47.7063 34.3962 47.4891 34.2466 47.3211C34.0819 47.1661 33.8625 47.0827 33.6364 47.0892C33.4117 47.09 33.1948 47.1724 33.0263 47.3211L31.1043 49.2431C30.9493 49.4078 30.8659 49.6272 30.8724 49.8532C30.8721 50.0782 30.9546 50.2954 31.1043 50.4634C31.2658 50.6139 31.4784 50.6976 31.6992 50.6976C31.92 50.6976 32.1326 50.6139 32.2941 50.4634L34.2222 48.5414C34.3048 48.4629 34.3702 48.3682 34.4143 48.2632C34.4584 48.1582 34.4802 48.0451 34.4784 47.9312Z" fill="white"/>
<path d="M31.9404 45.6909C31.777 45.5293 31.5597 45.4337 31.3302 45.4224C31.1058 45.4248 30.8895 45.507 30.7201 45.6542L29.0971 47.2711C28.9471 47.4385 28.8663 47.6566 28.8713 47.8813C28.8715 48.1051 28.9516 48.3214 29.0971 48.4915C29.2628 48.6448 29.4815 48.7279 29.7072 48.7233C29.9322 48.7236 30.1494 48.6411 30.3174 48.4915L31.9404 46.8745C32.0841 46.7109 32.1634 46.5005 32.1634 46.2827C32.1634 46.0649 32.0841 45.8545 31.9404 45.6909Z" fill="white"/>
</svg>
