<svg width="70" height="70" viewBox="0 0 70 70" fill="none" xmlns="http://www.w3.org/2000/svg">
<mask id="mask0" mask-type="alpha" maskUnits="userSpaceOnUse" x="0" y="0" width="70" height="70">
<circle cx="35" cy="35" r="35" fill="#C4C4C4"/>
</mask>
<g mask="url(#mask0)">
<path d="M54.4258 49.388H52.4024V46.9107C52.4031 46.8638 52.3944 46.8172 52.3768 46.7738C52.3592 46.7303 52.3331 46.6908 52.2999 46.6577C52.2668 46.6245 52.2273 46.5984 52.1838 46.5808C52.1404 46.5632 52.0938 46.5545 52.0469 46.5552H17.386C17.2917 46.5552 17.2013 46.5927 17.1346 46.6593C17.068 46.726 17.0305 46.8164 17.0305 46.9107V49.388H14.9961C14.9019 49.388 14.8114 49.4255 14.7448 49.4921C14.6781 49.5588 14.6407 49.6492 14.6407 49.7435V52.9318C14.6399 52.9787 14.6486 53.0252 14.6662 53.0687C14.6838 53.1121 14.71 53.1516 14.7431 53.1848C14.7763 53.2179 14.8158 53.2441 14.8592 53.2617C14.9027 53.2793 14.9493 53.288 14.9961 53.2872H54.5297C54.624 53.2872 54.7144 53.2498 54.7811 53.1831C54.8477 53.1165 54.8852 53.0261 54.8852 52.9318V49.7435C54.857 49.6427 54.7971 49.5538 54.7143 49.4897C54.6316 49.4257 54.5304 49.39 54.4258 49.388Z" fill="white"/>
<path d="M15.3068 25.3535H54.0857C54.1847 25.3542 54.2829 25.3352 54.3745 25.2974C54.4661 25.2597 54.5493 25.204 54.619 25.1337C54.6888 25.0634 54.7439 24.9799 54.7809 24.888C54.818 24.7962 54.8364 24.6978 54.8349 24.5988V23.3191C54.8281 23.1367 54.7741 22.9593 54.6783 22.804C54.5824 22.6487 54.448 22.521 54.288 22.4332L35.3169 11.4519C35.1277 11.3445 34.9138 11.2881 34.6962 11.2881C34.4786 11.2881 34.2648 11.3445 34.0755 11.4519L15.1263 22.4332C14.9634 22.5174 14.8265 22.6443 14.7302 22.8004C14.6338 22.9564 14.5817 23.1357 14.5794 23.3191V24.5988C14.5698 24.6979 14.5817 24.798 14.6144 24.8921C14.6472 24.9862 14.7 25.0721 14.7691 25.1438C14.8382 25.2156 14.9221 25.2715 15.0149 25.3076C15.1077 25.3438 15.2073 25.3595 15.3068 25.3535ZM34.6935 16.9425C35.0687 16.9426 35.4356 17.0535 35.7479 17.2615C36.0603 17.4694 36.3042 17.765 36.449 18.1112C36.5938 18.4573 36.633 18.8386 36.5618 19.207C36.4906 19.5754 36.312 19.9145 36.0486 20.1817C35.7851 20.4489 35.4486 20.6323 35.0812 20.7088C34.7139 20.7853 34.3321 20.7515 33.9839 20.6116C33.6357 20.4718 33.3367 20.2321 33.1243 19.9228C32.9119 19.6134 32.7958 19.2482 32.7904 18.873C32.7845 18.6202 32.8295 18.3688 32.9227 18.1337C33.0159 17.8986 33.1554 17.6847 33.333 17.5046C33.5105 17.3245 33.7224 17.182 33.9562 17.0854C34.1899 16.9889 34.4406 16.9403 34.6935 16.9425Z" fill="white"/>
<path d="M23.2537 28.1695C23.3006 28.1702 23.3471 28.1615 23.3906 28.1439C23.4341 28.1263 23.4735 28.1002 23.5067 28.067C23.5398 28.0339 23.566 27.9944 23.5836 27.9509C23.6012 27.9075 23.6099 27.8609 23.6092 27.814V26.6382C23.6099 26.5913 23.6012 26.5448 23.5836 26.5013C23.566 26.4579 23.5398 26.4184 23.5067 26.3852C23.4735 26.3521 23.4341 26.3259 23.3906 26.3083C23.3471 26.2907 23.3006 26.282 23.2537 26.2828H19.3326C19.286 26.282 19.2397 26.2907 19.1965 26.3084C19.1533 26.326 19.1142 26.3523 19.0815 26.3855C19.0487 26.4188 19.0231 26.4583 19.0061 26.5017C18.9891 26.5452 18.9811 26.5916 18.9826 26.6382V27.7867C18.9811 27.8333 18.9891 27.8797 19.0061 27.9232C19.0231 27.9666 19.0487 28.0061 19.0815 28.0394C19.1142 28.0726 19.1533 28.0989 19.1965 28.1165C19.2397 28.1342 19.286 28.1429 19.3326 28.1421H19.8193V43.7664H19.3326C19.2862 43.7663 19.2402 43.7756 19.1974 43.7935C19.1546 43.8114 19.1157 43.8377 19.0832 43.8708C19.0506 43.9039 19.0249 43.9431 19.0077 43.9862C18.9904 44.0293 18.9819 44.0754 18.9826 44.1218V45.2757C18.9819 45.3219 18.9904 45.3677 19.0077 45.4105C19.0251 45.4533 19.0508 45.4922 19.0835 45.5249C19.1161 45.5575 19.155 45.5833 19.1978 45.6006C19.2406 45.6179 19.2864 45.6265 19.3326 45.6257H23.2537C23.3001 45.6265 23.3462 45.6179 23.3893 45.6007C23.4324 45.5834 23.4716 45.5577 23.5047 45.5252C23.5378 45.4926 23.5641 45.4538 23.582 45.4109C23.5999 45.3681 23.6092 45.3222 23.6092 45.2757V44.1218C23.6092 44.0275 23.5717 43.9371 23.505 43.8705C23.4384 43.8038 23.348 43.7664 23.2537 43.7664H22.767V28.1695H23.2537Z" fill="white"/>
<path d="M50.0118 28.1695C50.0586 28.1702 50.1052 28.1615 50.1487 28.1439C50.1921 28.1263 50.2316 28.1002 50.2648 28.067C50.2979 28.0339 50.3241 27.9944 50.3417 27.9509C50.3593 27.9074 50.368 27.8609 50.3672 27.814V26.6382C50.368 26.5913 50.3593 26.5448 50.3417 26.5013C50.3241 26.4579 50.2979 26.4184 50.2648 26.3852C50.2316 26.3521 50.1921 26.3259 50.1487 26.3083C50.1052 26.2907 50.0586 26.282 50.0118 26.2828H46.0743C46.0274 26.282 45.9808 26.2907 45.9374 26.3083C45.8939 26.3259 45.8544 26.3521 45.8213 26.3852C45.7881 26.4184 45.762 26.4579 45.7443 26.5013C45.7267 26.5448 45.7181 26.5913 45.7188 26.6382V27.7867C45.7181 27.8335 45.7267 27.8801 45.7443 27.9236C45.762 27.967 45.7881 28.0065 45.8213 28.0397C45.8544 28.0728 45.8939 28.099 45.9374 28.1166C45.9808 28.1342 46.0274 28.1429 46.0743 28.1421H46.561V43.7664H46.0743C46.0274 43.7656 45.9808 43.7743 45.9374 43.7919C45.8939 43.8095 45.8544 43.8357 45.8213 43.8688C45.7881 43.902 45.762 43.9415 45.7443 43.9849C45.7267 44.0284 45.7181 44.0749 45.7188 44.1218V45.2757C45.718 45.3224 45.7267 45.3687 45.7444 45.4118C45.7621 45.455 45.7883 45.4941 45.8216 45.5269C45.8548 45.5596 45.8943 45.5852 45.9378 45.6022C45.9812 45.6192 46.0276 45.6272 46.0743 45.6257H50.0118C50.0584 45.6272 50.1048 45.6192 50.1483 45.6022C50.1917 45.5852 50.2312 45.5596 50.2645 45.5269C50.2977 45.4941 50.324 45.455 50.3416 45.4118C50.3593 45.3687 50.368 45.3224 50.3672 45.2757V44.1218C50.3672 44.0275 50.3298 43.9371 50.2631 43.8705C50.1965 43.8038 50.106 43.7664 50.0118 43.7664H49.5032V28.1695H50.0118Z" fill="white"/>
<path d="M43.3283 28.1695C43.3752 28.1702 43.4217 28.1615 43.4652 28.1439C43.5087 28.1263 43.5481 28.1002 43.5813 28.067C43.6145 28.0339 43.6406 27.9944 43.6582 27.9509C43.6758 27.9075 43.6845 27.8609 43.6838 27.814V26.6382C43.6845 26.5913 43.6758 26.5448 43.6582 26.5013C43.6406 26.4579 43.6145 26.4184 43.5813 26.3852C43.5481 26.3521 43.5087 26.3259 43.4652 26.3083C43.4217 26.2907 43.3752 26.282 43.3283 26.2828H39.3853C39.3387 26.282 39.2924 26.2907 39.2492 26.3084C39.206 26.326 39.1669 26.3523 39.1342 26.3855C39.1015 26.4188 39.0758 26.4583 39.0588 26.5017C39.0418 26.5452 39.0338 26.5916 39.0353 26.6382V27.7867C39.0338 27.8333 39.0418 27.8797 39.0588 27.9232C39.0758 27.9666 39.1015 28.0061 39.1342 28.0394C39.1669 28.0726 39.206 28.0989 39.2492 28.1165C39.2924 28.1342 39.3387 28.1429 39.3853 28.1421H39.872V43.7664H39.3853C39.3389 43.7663 39.2929 43.7756 39.2501 43.7935C39.2073 43.8114 39.1685 43.8377 39.1359 43.8708C39.1033 43.9039 39.0777 43.9431 39.0604 43.9862C39.0431 44.0293 39.0346 44.0754 39.0353 44.1218V45.2757C39.0346 45.3219 39.0431 45.3677 39.0605 45.4105C39.0778 45.4533 39.1035 45.4922 39.1362 45.5249C39.1688 45.5575 39.2077 45.5833 39.2505 45.6006C39.2933 45.6179 39.3392 45.6265 39.3853 45.6257H43.3283C43.3747 45.6265 43.4208 45.6179 43.4639 45.6007C43.507 45.5834 43.5462 45.5577 43.5793 45.5252C43.6124 45.4926 43.6387 45.4538 43.6566 45.4109C43.6745 45.3681 43.6838 45.3222 43.6838 45.2757V44.1218C43.6838 44.0275 43.6463 43.9371 43.5797 43.8705C43.513 43.8038 43.4226 43.7664 43.3283 43.7664H42.8416V28.1695H43.3283Z" fill="white"/>
<path d="M36.6407 28.1695C36.6876 28.1702 36.7341 28.1615 36.7776 28.1439C36.821 28.1263 36.8605 28.1002 36.8937 28.067C36.9268 28.0339 36.953 27.9944 36.9706 27.9509C36.9882 27.9074 36.9969 27.8609 36.9961 27.814V26.6382C36.9969 26.5913 36.9882 26.5448 36.9706 26.5013C36.953 26.4579 36.9268 26.4184 36.8937 26.3852C36.8605 26.3521 36.821 26.3259 36.7776 26.3083C36.7341 26.2907 36.6876 26.282 36.6407 26.2828H32.7032C32.6563 26.282 32.6097 26.2907 32.5663 26.3083C32.5228 26.3259 32.4833 26.3521 32.4502 26.3852C32.417 26.4184 32.3909 26.4579 32.3733 26.5013C32.3557 26.5448 32.347 26.5913 32.3477 26.6382V27.7867C32.347 27.8335 32.3557 27.8801 32.3733 27.9236C32.3909 27.967 32.417 28.0065 32.4502 28.0397C32.4833 28.0728 32.5228 28.099 32.5663 28.1166C32.6097 28.1342 32.6563 28.1429 32.7032 28.1421H33.1899V43.7664H32.7032C32.6089 43.7664 32.5185 43.8038 32.4518 43.8705C32.3852 43.9371 32.3477 44.0275 32.3477 44.1218V45.2757C32.3477 45.3222 32.3569 45.3681 32.3749 45.4109C32.3928 45.4538 32.4191 45.4926 32.4521 45.5252C32.4852 45.5577 32.5245 45.5834 32.5676 45.6007C32.6106 45.6179 32.6567 45.6265 32.7032 45.6257H36.6407C36.6873 45.6272 36.7337 45.6192 36.7772 45.6022C36.8206 45.5852 36.8601 45.5596 36.8934 45.5269C36.9266 45.4941 36.9529 45.455 36.9705 45.4118C36.9882 45.3687 36.9969 45.3224 36.9961 45.2757V44.1218C36.9969 44.0749 36.9882 44.0284 36.9706 43.9849C36.953 43.9415 36.9268 43.902 36.8937 43.8688C36.8605 43.8357 36.821 43.8095 36.7776 43.7919C36.7341 43.7743 36.6876 43.7656 36.6407 43.7664H36.1539V28.1695H36.6407Z" fill="white"/>
<path d="M29.9571 28.1695C30.004 28.1702 30.0505 28.1615 30.094 28.1439C30.1374 28.1263 30.1769 28.1002 30.2101 28.067C30.2432 28.0339 30.2694 27.9944 30.287 27.9509C30.3046 27.9074 30.3133 27.8609 30.3125 27.814V26.6382C30.3133 26.5913 30.3046 26.5448 30.287 26.5013C30.2694 26.4579 30.2432 26.4184 30.2101 26.3852C30.1769 26.3521 30.1374 26.3259 30.094 26.3083C30.0505 26.2907 30.004 26.282 29.9571 26.2828H26.0196C25.9727 26.282 25.9261 26.2907 25.8827 26.3083C25.8392 26.3259 25.7997 26.3521 25.7666 26.3852C25.7334 26.4184 25.7073 26.4579 25.6897 26.5013C25.6721 26.5448 25.6634 26.5913 25.6641 26.6382V27.7867C25.6634 27.8335 25.6721 27.8801 25.6897 27.9236C25.7073 27.967 25.7334 28.0065 25.7666 28.0397C25.7997 28.0728 25.8392 28.099 25.8827 28.1166C25.9261 28.1342 25.9727 28.1429 26.0196 28.1421H26.5336V43.7664H26.0469C26 43.7656 25.9535 43.7743 25.91 43.7919C25.8666 43.8095 25.8271 43.8357 25.7939 43.8688C25.7608 43.902 25.7346 43.9415 25.717 43.9849C25.6994 44.0284 25.6907 44.0749 25.6914 44.1218V45.2757C25.6907 45.3224 25.6994 45.3687 25.7171 45.4118C25.7347 45.455 25.761 45.4941 25.7942 45.5269C25.8274 45.5596 25.867 45.5852 25.9104 45.6022C25.9539 45.6192 26.0003 45.6272 26.0469 45.6257H29.9844C30.031 45.6272 30.0775 45.6192 30.1209 45.6022C30.1644 45.5852 30.2039 45.5596 30.2371 45.5269C30.2704 45.4941 30.2966 45.455 30.3143 45.4118C30.3319 45.3687 30.3407 45.3224 30.3399 45.2757V44.1218C30.3399 44.0275 30.3024 43.9371 30.2358 43.8705C30.1691 43.8038 30.0787 43.7664 29.9844 43.7664H29.4977V28.1695H29.9571Z" fill="white"/>
</g>
</svg>
