<svg width="70" height="70" viewBox="0 0 70 70" fill="none" xmlns="http://www.w3.org/2000/svg">
<path d="M40.2383 16.7559V19.698H43.1805L40.2383 16.7559Z" fill="white"/>
<path d="M46.8352 36.482L46.868 35.9352L46.9336 34.7867L47.5898 34.743V21.1641H45.4023V37.1766C45.8586 36.9033 46.338 36.6709 46.8352 36.482Z" fill="white"/>
<path d="M52.7953 42.1363C52.0431 41.4641 51.0698 41.0923 50.0609 41.0918H49.8094C49.2641 41.1182 48.7297 41.2543 48.2383 41.492C47.7468 41.7298 47.3084 42.0642 46.9492 42.4754C46.4057 43.0872 46.0557 43.8464 45.9434 44.657C45.8312 45.4677 45.9617 46.2934 46.3185 47.0299C46.6753 47.7664 47.2424 48.3806 47.9482 48.7949C48.6539 49.2093 49.4666 49.4051 50.2836 49.3578C51.1006 49.3105 51.8853 49.022 52.5384 48.529C53.1916 48.0359 53.684 47.3603 53.9533 46.5875C54.2227 45.8147 54.257 44.9794 54.0518 44.1872C53.8467 43.3949 53.4113 42.6813 52.8008 42.1363H52.7953ZM51.532 45.7895L50.493 44.7395V47.4246H49.6125V44.7395L48.5625 45.7895V44.5207L50.0609 43.0277L51.5539 44.5207L51.532 45.7895Z" fill="white"/>
<path d="M41.9781 52.3415L41.0977 51.5595L41.7703 50.5915L41.7977 50.5532H21.1367V52.7571H42.4484L41.9781 52.3415Z" fill="white"/>
<path d="M41.2668 48.5023H40.7199L39.5441 48.4312L39.473 47.2609L39.3199 44.6195L39.2488 43.4383L40.4137 43.2359L40.9277 43.1484C41.0778 42.5281 41.2922 41.925 41.5676 41.3492L41.2176 40.9555L40.4301 40.075L41.2176 39.2L42.9512 37.2094L43.7332 36.3289L43.8918 36.4383V21.1641H38.7676V16.0234H17.4668V49.082H41.5293C41.4309 48.8906 41.3434 48.6992 41.2668 48.5023ZM25.5441 18.2273H27.0152V19.6984H25.5441V18.2273ZM22.6074 18.2273H24.0785V19.6984H22.6074V18.2273ZM21.8746 24.1063H39.5059V25.5719H21.8746V24.1063ZM21.8746 27.7758H39.5059V29.2469H21.8746V27.7758ZM21.8746 31.4508H39.5059V32.9219H21.8746V31.4508ZM21.1363 19.6984H19.6707V18.2273H21.1363V19.6984ZM37.827 40.2555H21.8746V38.8008H37.827V40.2555ZM38.4559 36.5859H21.8746V35.1258H38.4559V36.5859Z" fill="white"/>
<path d="M45.9109 52.1395C46.863 52.716 47.9245 53.0885 49.0281 53.2332L49.2797 54.6551L51.9211 54.4965L52.0031 53.0582C53.0868 52.7854 54.1018 52.29 54.9836 51.6035L56.1703 52.4293L57.9477 50.4387L56.9797 49.3449C57.5561 48.3948 57.9286 47.3351 58.0734 46.2332L59.4953 45.9926L59.3367 43.3512L57.893 43.2691C57.6221 42.1929 57.1325 41.1839 56.4547 40.3051L57.275 39.1238L55.3008 37.3902L54.207 38.3473C53.2559 37.773 52.1966 37.4006 51.0953 37.2535L50.8273 35.8809L48.1859 36.0559L48.1039 37.4941C47.0278 37.7599 46.0186 38.2459 45.1398 38.9215L43.9586 38.0684L42.2031 40.0426L43.1656 41.1363C42.5864 42.0891 42.2138 43.153 42.0719 44.259L40.6445 44.5051L40.8031 47.1465L42.2414 47.2285C42.5098 48.2936 42.9957 49.2917 43.6687 50.1598L42.8375 51.3465L44.8172 53.102L45.9109 52.1395ZM45.8508 41.4809C46.3783 40.8844 47.0264 40.4068 47.7524 40.0796C48.4783 39.7525 49.2655 39.5833 50.0617 39.5832C51.3559 39.5822 52.6113 40.0252 53.6182 40.8382C54.6252 41.6512 55.3228 42.785 55.5946 44.0503C55.8664 45.3157 55.6959 46.6359 55.1116 47.7907C54.5274 48.9455 53.5647 49.8649 52.3842 50.3955C51.2038 50.9261 49.8771 51.0357 48.6256 50.7061C47.3741 50.3764 46.2736 49.6274 45.5077 48.5842C44.7418 47.5409 44.357 46.2666 44.4175 44.9738C44.4779 43.681 44.98 42.4481 45.8398 41.4809H45.8508Z" fill="white"/>
</svg>
