<svg width="22" height="20" viewBox="0 0 22 20" fill="none" xmlns="http://www.w3.org/2000/svg">
<path fill-rule="evenodd" clip-rule="evenodd" d="M0 9.52264C0 9.16192 0.142968 8.81596 0.397453 8.56089C0.651937 8.30581 0.997092 8.16251 1.35699 8.16251H17.0791L11.2521 2.32483C10.9973 2.06943 10.8542 1.72304 10.8542 1.36185C10.8542 1.00067 10.9973 0.654274 11.2521 0.398877C11.507 0.143481 11.8525 0 12.2129 0C12.5732 0 12.9188 0.143481 13.1736 0.398877L21.3156 8.55967C21.4419 8.68602 21.5422 8.83611 21.6106 9.00135C21.679 9.16659 21.7142 9.34374 21.7142 9.52264C21.7142 9.70155 21.679 9.8787 21.6106 10.0439C21.5422 10.2092 21.4419 10.3593 21.3156 10.4856L13.1736 18.6464C12.9188 18.9018 12.5732 19.0453 12.2129 19.0453C11.8525 19.0453 11.507 18.9018 11.2521 18.6464C10.9973 18.391 10.8542 18.0446 10.8542 17.6834C10.8542 17.3223 10.9973 16.9759 11.2521 16.7205L17.0791 10.8828H1.35699C0.997092 10.8828 0.651937 10.7395 0.397453 10.4844C0.142968 10.2293 0 9.88337 0 9.52264Z" fill="#0E47EF"/>
</svg>
