<svg width="70" height="70" viewBox="0 0 70 70" fill="none" xmlns="http://www.w3.org/2000/svg">
<g clip-path="url(#clip0)">
<rect width="1440" height="1711" transform="translate(-837 -712)" fill="url(#paint0_linear)"/>
<rect x="-86" y="-106" width="242" height="437" rx="18" fill="#0E47EF"/>
<circle cx="35" cy="35" r="64" fill="white"/>
<circle cx="35" cy="35" r="64" fill="white"/>
<mask id="mask0" mask-type="alpha" maskUnits="userSpaceOnUse" x="-29" y="-29" width="128" height="128">
<circle cx="35" cy="35" r="64" fill="white"/>
</mask>
<g mask="url(#mask0)">
</g>
<path d="M34.9906 60C34.0663 59.9993 33.1647 59.7177 32.4086 59.1936C31.6801 58.6921 31.1213 57.9862 30.8048 57.1676C30.4883 56.3491 30.4287 55.4557 30.6338 54.6033C26.9238 52.4952 23.2192 50.3871 19.5198 48.279C18.8499 48.8994 18.0021 49.3007 17.0922 49.4283C16.1822 49.5558 15.2545 49.4034 14.4357 48.9917C13.6169 48.58 12.9471 47.9293 12.5175 47.1282C12.0879 46.3272 11.9197 45.4149 12.0357 44.516C12.1492 43.6604 12.513 42.856 13.0825 42.2009C13.6521 41.5458 14.4029 41.0683 15.2432 40.8268V28.2047C13.1049 27.4985 12.0357 25.9964 12.0357 23.8356C12.0212 22.9819 12.2762 22.1449 12.7657 21.4405C13.2551 20.7361 13.9547 20.1991 14.7674 19.9041C15.5578 19.5596 16.4345 19.4558 17.2851 19.6061C18.1357 19.7563 18.9213 20.1538 19.5412 20.7474L22.0484 19.3137C24.8995 17.687 27.7613 16.0604 30.6338 14.4336C30.4915 13.8551 30.4713 13.254 30.5742 12.6674C30.6772 12.0809 30.9012 11.5214 31.2325 11.0237C31.5731 10.518 32.0147 10.0863 32.5304 9.75464C33.046 9.42298 33.6248 9.19844 34.2315 9.09483L34.3117 9.06845L34.5255 9H35.4931L35.7016 9.05263L36.1132 9.15813C37.2296 9.44823 38.1881 10.1544 38.7865 11.1278C39.3849 12.1012 39.5764 13.2657 39.3207 14.3756L48.5422 19.6458L50.4828 20.7526C51.0823 20.2018 51.8207 19.8196 52.6211 19.6458C53.7441 19.4239 54.9107 19.636 55.8795 20.2382C56.8483 20.8405 57.5452 21.7868 57.8261 22.8814C58.1069 23.9761 57.9503 25.1354 57.3884 26.1194C56.8266 27.1033 55.9026 27.8366 54.8076 28.1677C54.7778 28.1717 54.7488 28.1807 54.722 28.1941C54.7187 28.2345 54.7187 28.275 54.722 28.3153C54.722 31.5056 54.722 34.6941 54.722 37.8809V40.7531L54.9465 40.8532C55.4131 41.047 55.8575 41.2891 56.2723 41.5753C56.7521 41.9311 57.1515 42.3813 57.4451 42.8976C57.7387 43.4139 57.9201 43.9849 57.9776 44.574C58.0386 45.1734 57.9747 45.7788 57.7898 46.353C57.6049 46.9272 57.303 47.4581 56.9025 47.9131C56.502 48.3681 56.0115 48.7377 55.461 48.999C54.9104 49.2604 54.3115 49.4082 53.701 49.4332C53.1128 49.4557 52.5259 49.3619 51.9751 49.1573C51.4242 48.9527 50.9204 48.6416 50.4935 48.2421C46.992 50.25 43.3301 52.3371 39.3047 54.6191C39.4512 55.2622 39.4493 55.9294 39.2992 56.5716C39.1491 57.2139 38.8546 57.8146 38.4374 58.3296C38.0202 58.8446 37.491 59.2607 36.8889 59.5471C36.2867 59.8334 35.6271 59.9828 34.9586 59.9842L34.9906 60ZM34.9586 53.839C34.7232 53.8392 34.4902 53.8859 34.2735 53.9764C34.0568 54.0669 33.8607 54.1994 33.6969 54.366C33.5336 54.526 33.4046 54.7167 33.3174 54.9268C33.2301 55.1368 33.1865 55.3618 33.1891 55.5888C33.1947 56.051 33.3846 56.4926 33.7176 56.818C34.0507 57.1435 34.5003 57.3266 34.9692 57.328C35.4382 57.3211 35.8859 57.1336 36.2165 56.8057C36.5472 56.4778 36.7346 56.0353 36.7387 55.5729C36.7331 55.1116 36.5429 54.6712 36.2095 54.3475C35.8761 54.0238 35.4265 53.8429 34.9586 53.8443V53.839ZM36.3057 51.3252L38.0377 52.3265L41.2452 50.5136C43.9003 48.9993 46.5518 47.4849 49.1998 45.9706C49.0662 45.329 49.0662 44.6675 49.1998 44.0259L48.5797 43.6676C46.837 42.6768 45.0996 41.6806 43.3515 40.7056C42.1166 41.3908 40.8977 42.0917 39.6735 42.8137L36.3271 44.7216H36.295C36.295 46.3659 36.295 48.0102 36.295 49.6545L36.3057 51.3252ZM20.8028 45.9811C21.733 46.4976 22.6596 47.0246 23.5827 47.5622L31.89 52.3054L33.5847 51.3462V50.4134C33.5847 48.5477 33.5847 46.6241 33.5847 44.6952L30.0938 42.6873L26.5602 40.6582H26.5282C25.459 41.2765 24.3899 41.8845 23.3207 42.4818L20.8188 43.9047C20.8188 44.0259 20.8188 44.1366 20.8188 44.2525C20.8538 44.8181 20.8431 45.3856 20.7868 45.9495C20.7842 45.9652 20.7842 45.9813 20.7868 45.997L20.8028 45.9811ZM16.446 43.3038C16.0969 43.3014 15.7549 43.4012 15.4633 43.5905C15.1717 43.7798 14.9437 44.0501 14.8081 44.3673C14.6724 44.6844 14.6353 45.0341 14.7013 45.372C14.7673 45.71 14.9336 46.021 15.179 46.2658C15.3404 46.4312 15.5338 46.563 15.7477 46.6536C15.9616 46.7441 16.1918 46.7914 16.4246 46.7928C16.6562 46.7949 16.8859 46.7517 17.1005 46.6658C17.3151 46.5798 17.5103 46.4529 17.6748 46.2921C17.8394 46.1314 17.97 45.9401 18.0591 45.7293C18.1482 45.5186 18.194 45.2925 18.194 45.0641C18.193 44.8322 18.1452 44.6029 18.0534 44.3894C17.9616 44.1759 17.8277 43.9823 17.6594 43.8203C17.4985 43.6558 17.306 43.5245 17.0931 43.434C16.8802 43.3436 16.6511 43.2956 16.4192 43.2933L16.446 43.3038ZM53.5192 43.3038C53.2867 43.3031 53.0564 43.3481 52.8416 43.436C52.6268 43.5238 52.4319 43.653 52.2683 43.8158C52.1046 43.9786 51.9754 44.1719 51.8882 44.3844C51.801 44.5969 51.7576 44.8244 51.7604 45.0536C51.7597 45.2824 51.8051 45.5091 51.8939 45.7205C51.9827 45.9318 52.1132 46.1236 52.2778 46.2849C52.4424 46.4462 52.6378 46.5737 52.8528 46.66C53.0677 46.7463 53.2979 46.7896 53.5299 46.7875C53.7701 46.8005 54.0105 46.7652 54.2363 46.6835C54.4622 46.6019 54.6688 46.4756 54.8435 46.3126C55.0182 46.1496 55.1573 45.9532 55.2524 45.7354C55.3475 45.5176 55.3966 45.2829 55.3966 45.0457C55.3966 44.8086 55.3475 44.5739 55.2524 44.3561C55.1573 44.1382 55.0182 43.9418 54.8435 43.7787C54.6688 43.6157 54.4622 43.4896 54.2363 43.4079C54.0105 43.3263 53.7701 43.2908 53.5299 43.3038H53.5192ZM36.2736 35.3722C36.2736 37.4487 36.2736 39.5304 36.2736 41.649V41.7966L36.3966 41.728C38.2034 40.674 40.0157 39.6199 41.8172 38.5659C41.8493 36.4578 41.844 34.4341 41.844 32.3892V32.0993C39.989 33.1903 38.134 34.276 36.279 35.3775L36.2736 35.3722ZM27.8486 31.9676V32.4946C27.8486 34.5131 27.8486 36.4262 27.8486 38.3657C27.8978 38.4274 27.9533 38.4839 28.0143 38.5344C29.6501 39.5041 31.3288 40.4738 32.9539 41.4119L33.6221 41.8019V41.5331C33.6221 39.483 33.6221 37.4381 33.6221 35.3932L33.5847 35.3511C31.8419 34.2971 30.0778 33.2799 28.3083 32.2469L27.8486 31.9676ZM44.4206 38.2918C44.9552 38.5817 45.4898 38.8875 46.0244 39.1932L50.4988 41.7439L52.1026 40.8321V28.2047L50.44 27.256L49.6275 27.7146C47.9221 28.6843 46.1634 29.6856 44.4099 30.7028C44.4099 32.0045 44.4099 33.3115 44.4099 34.6185C44.4099 35.8342 44.4099 37.0534 44.4099 38.2761L44.4206 38.2918ZM17.7718 40.8163L19.3327 41.6649L20.1881 41.1748C21.8292 40.2419 23.5238 39.2774 25.2131 38.2971C25.2131 37.0323 25.2131 35.7622 25.2131 34.4973C25.2131 33.2324 25.2131 31.8359 25.2131 30.5026V30.4604C23.9729 29.7383 22.7487 29.0005 21.5192 28.268L19.5946 27.119C19.0854 27.6224 18.4626 27.9998 17.7771 28.2205L17.7718 40.8163ZM29.4684 29.87L30.1954 30.2969C31.6228 31.1296 32.9699 31.9202 34.3117 32.7845C34.4808 32.9439 34.7058 33.0329 34.9398 33.0329C35.1739 33.0329 35.3988 32.9439 35.5679 32.7845C36.867 31.9412 38.2409 31.1455 39.5345 30.3708L40.2402 29.9544L39.2031 29.322C37.7776 28.4401 36.352 27.5618 34.9265 26.6869L29.4684 29.87ZM36.2629 24.4944C38.5937 25.8436 40.8817 27.1296 43.0628 28.3786C44.2602 27.7111 45.4542 27.0364 46.6445 26.3548L49.1624 24.9213C49.0877 24.3016 49.0877 23.6754 49.1624 23.0557C47.7154 22.2405 46.2685 21.4184 44.8216 20.5892L37.9629 16.6839C37.4754 17.126 36.8976 17.4603 36.2683 17.6642C36.2683 20.331 36.2683 22.5076 36.2683 24.5155L36.2629 24.4944ZM20.8723 24.7738L21.7223 25.3008C23.3635 26.281 25.0581 27.2929 26.758 28.2942C29.0995 27.0188 31.3876 25.7593 33.558 24.5472C33.558 22.2546 33.558 19.9515 33.558 17.6959C33.3495 17.5641 33.1623 17.4639 32.9752 17.3638C32.6076 17.1777 32.2507 16.9719 31.9061 16.7472C30.3023 17.6748 28.6986 18.5812 27.0948 19.4877L24.5716 20.9265C23.2886 21.6538 22.0109 22.3811 20.7386 23.1242C20.7386 23.5564 20.7814 23.9937 20.8188 24.4944L20.8723 24.7738ZM16.2749 27.1348H16.3871H16.2695H16.2749ZM51.739 24.0043C51.7362 24.4675 51.9197 24.9128 52.2494 25.2427C52.5791 25.5727 53.028 25.7604 53.4978 25.7646C53.9524 25.74 54.3801 25.5446 54.6931 25.2187C55.006 24.8928 55.1805 24.461 55.1805 24.0122C55.1805 23.5634 55.006 23.1316 54.6931 22.8057C54.3801 22.4797 53.9524 22.2844 53.4978 22.2598C53.0295 22.2612 52.5807 22.4457 52.25 22.7727C51.9194 23.0997 51.7337 23.5426 51.7337 24.0043H51.739ZM16.4139 22.2598C15.9444 22.2681 15.4968 22.4567 15.1663 22.7855C14.8358 23.1142 14.6486 23.5573 14.6445 24.0201C14.6513 24.4798 14.8392 24.9188 15.1684 25.2443C15.4976 25.5698 15.9423 25.7565 16.4085 25.7646C16.7597 25.7631 17.1025 25.6588 17.3935 25.4651C17.6846 25.2714 17.9108 24.997 18.0435 24.6765C18.1763 24.356 18.2097 24.0039 18.1394 23.6648C18.0691 23.3256 17.8984 23.0145 17.6488 22.771C17.4888 22.6053 17.2964 22.4732 17.0833 22.3826C16.8702 22.292 16.6406 22.2449 16.4085 22.244L16.4139 22.2598ZM34.8837 11.7405C34.4162 11.7404 33.9674 11.9217 33.6343 12.2451C33.3012 12.5686 33.1105 13.0083 33.1035 13.4691C33.109 13.9316 33.2967 14.3738 33.6269 14.7023C33.9571 15.0308 34.404 15.2198 34.873 15.2293C35.3407 15.2225 35.7873 15.0368 36.1185 14.7113C36.4497 14.3858 36.6395 13.946 36.6478 13.485C36.6496 13.2586 36.6062 13.0341 36.52 12.8243C36.4337 12.6145 36.3064 12.4235 36.1453 12.2622C35.9808 12.0966 35.7845 11.9648 35.568 11.8743C35.3515 11.7838 35.1189 11.7365 34.8837 11.7352V11.7405Z" fill="#0E47EF"/>
<g opacity="0.2">
<mask id="mask1" mask-type="alpha" maskUnits="userSpaceOnUse" x="-86" y="-105" width="242" height="437">
<rect x="-86" y="-105" width="242" height="437" rx="18" fill="#0E47EF"/>
</mask>
<g mask="url(#mask1)">
<g opacity="0.5">
</g>
<path opacity="0.6" d="M57 31V17L44 17V31H57Z" fill="white"/>
<path opacity="0.6" d="M30 17V4C33.713 4 37.274 5.36965 39.8995 7.80762C42.525 10.2456 44 13.5522 44 17H30Z" fill="white"/>
<path opacity="0.6" d="M30 31V17C33.713 17 37.274 18.475 39.8995 21.1005C42.525 23.726 44 27.287 44 31H30Z" fill="white"/>
<path opacity="0.6" d="M30 17L30 4L18 4V17H30Z" fill="white"/>
<path opacity="0.6" d="M18 24C18 22.6155 18.3519 21.2621 19.0112 20.111C19.6705 18.9599 20.6075 18.0626 21.7039 17.5328C22.8003 17.003 24.0067 16.8644 25.1705 17.1345C26.3344 17.4046 27.4035 18.0713 28.2426 19.0503C29.0817 20.0292 29.6532 21.2765 29.8847 22.6344C30.1162 23.9922 29.9974 25.3997 29.5433 26.6788C29.0891 27.9579 28.3201 29.0511 27.3334 29.8203C26.3467 30.5894 25.1867 31 24 31C23.2121 31 22.4319 30.8189 21.7039 30.4672C20.9759 30.1154 20.3145 29.5997 19.7574 28.9497C19.2002 28.2997 18.7582 27.5281 18.4567 26.6788C18.1552 25.8295 18 24.9192 18 24Z" fill="white"/>
<path opacity="0.6" d="M69 10.5C69 9.21441 69.4105 7.95771 70.1797 6.88879C70.9489 5.81987 72.0421 4.98674 73.3212 4.49477C74.6003 4.0028 76.0078 3.8741 77.3656 4.1249C78.7235 4.37571 79.9708 4.99477 80.9497 5.90381C81.9287 6.81285 82.5954 7.97103 82.8655 9.23191C83.1356 10.4928 82.997 11.7997 82.4672 12.9874C81.9373 14.1752 81.0401 15.1903 79.889 15.9045C78.7378 16.6188 77.3845 17 76 17C74.1435 17 72.363 16.3152 71.0503 15.0962C69.7375 13.8772 69 12.2239 69 10.5Z" fill="white"/>
<path opacity="0.6" d="M69 24C69 22.6155 69.4105 21.2621 70.1797 20.111C70.9489 18.9599 72.0421 18.0626 73.3212 17.5328C74.6003 17.003 76.0078 16.8644 77.3656 17.1345C78.7235 17.4046 79.9708 18.0713 80.9497 19.0503C81.9287 20.0292 82.5954 21.2765 82.8655 22.6344C83.1356 23.9922 82.997 25.3997 82.4672 26.6788C81.9373 27.9579 81.0401 29.0511 79.889 29.8203C78.7378 30.5894 77.3845 31 76 31C75.0807 31 74.1705 30.8189 73.3212 30.4672C72.4719 30.1154 71.7003 29.5997 71.0503 28.9497C70.4002 28.2997 69.8846 27.5281 69.5328 26.6788C69.1811 25.8295 69 24.9192 69 24Z" fill="white"/>
<path opacity="0.6" d="M57 10.5118C56.9978 9.22524 57.3482 7.96691 58.0066 6.89618C58.6651 5.82545 59.6021 4.99049 60.6989 4.49706C61.7957 4.00362 63.003 3.87389 64.1679 4.12432C65.3328 4.37475 66.4029 4.99406 67.2426 5.90382C68.0824 6.81357 68.6541 7.97284 68.8852 9.23481C69.1164 10.4968 68.9967 11.8047 68.5412 12.9929C68.0857 14.1811 67.315 15.1961 66.3266 15.9095C65.3382 16.6228 64.1767 17.0023 62.9891 17C61.4007 17 59.8773 16.3164 58.7542 15.0996C57.631 13.8829 57 12.2326 57 10.5118Z" fill="white"/>
<path opacity="0.6" d="M69 -2.01094C69.0025 -3.19716 69.4152 -4.35613 70.1859 -5.34138C70.9566 -6.32664 72.0508 -7.09395 73.3301 -7.5464C74.6094 -7.99885 76.0164 -8.11612 77.3735 -7.88337C78.7305 -7.65063 79.9766 -7.07832 80.9543 -6.23877C81.9319 -5.39922 82.5974 -4.33009 82.8664 -3.16651C83.1355 -2.00292 82.9961 -0.797088 82.4659 0.298631C81.9357 1.39435 81.0385 2.33077 79.8877 2.98958C78.7368 3.64838 77.3839 4 76 4C75.0797 4 74.1684 3.84445 73.3183 3.54224C72.4682 3.24002 71.6959 2.79709 71.0457 2.23878C70.3956 1.68047 69.8802 1.01776 69.5292 0.28854C69.1782 -0.440678 68.9983 -1.22208 69 -2.01094Z" fill="white"/>
<path opacity="0.6" d="M57 -2C57 -3.18716 57.3522 -4.34763 58.012 -5.33456C58.6717 -6.32149 59.6094 -7.09053 60.7064 -7.54434C61.8034 -7.99814 63.0104 -8.1163 64.1746 -7.8839C65.3388 -7.6515 66.4078 -7.07899 67.2465 -6.23878C68.0852 -5.39858 68.6558 -4.32845 68.886 -3.16384C69.1163 -1.99924 68.9959 -0.792474 68.5401 0.303691C68.0843 1.39986 67.3136 2.33617 66.3255 2.99414C65.3373 3.65212 64.1762 4.00215 62.9891 3.99999C62.2017 3.99999 61.422 3.84472 60.6946 3.54306C59.9673 3.2414 59.3066 2.79927 58.7503 2.24198C58.194 1.68468 57.7531 1.02318 57.4528 0.295286C57.1524 -0.432604 56.9986 -1.21259 57 -2Z" fill="white"/>
<path opacity="0.6" d="M57 4V-8L44 -8V4L57 4Z" fill="white"/>
<path opacity="0.6" d="M44 4V-8L30 -8V4L44 4Z" fill="white"/>
<path opacity="0.6" d="M5.00001 49.5C5.00001 48.2139 5.38153 46.9568 6.09629 45.8876C6.81104 44.8184 7.8269 43.9853 9.01531 43.4937C10.2037 43.002 11.5113 42.874 12.7725 43.1258C14.0336 43.3775 15.1918 43.9978 16.1004 44.908C17.009 45.8182 17.6271 46.9775 17.8765 48.2392C18.126 49.5008 17.9956 50.8081 17.5018 51.9956C17.008 53.1831 16.1731 54.1975 15.1026 54.9103C14.0321 55.6231 12.7742 56.0023 11.4882 56C10.6351 56 9.79047 55.8318 9.00252 55.505C8.21457 55.1782 7.49879 54.6992 6.89616 54.0955C6.29352 53.4917 5.81586 52.7751 5.49049 51.9865C5.16513 51.198 4.99845 50.353 5.00001 49.5Z" fill="white"/>
<path opacity="0.6" d="M5 68L5 56C8.44781 56 11.7544 57.2643 14.1924 59.5147C16.6304 61.7652 18 64.8174 18 68H5Z" fill="white"/>
<path opacity="0.6" d="M18 82L18 68H5L5 82H18Z" fill="white"/>
<path opacity="0.6" d="M5 56L5 43H-7L-7 56H5Z" fill="white"/>
<path opacity="0.6" d="M-6.99999 62C-6.99999 60.8128 -6.64781 59.6524 -5.98804 58.6654C-5.32827 57.6785 -4.39055 56.9095 -3.29356 56.4557C-2.19657 56.0019 -0.989613 55.8837 0.17457 56.1161C1.33875 56.3485 2.40783 56.921 3.24651 57.7612C4.08519 58.6014 4.65576 59.6716 4.88604 60.8362C5.11631 62.0008 4.99593 63.2075 4.54013 64.3037C4.08433 65.3998 3.3136 66.3361 2.32547 66.9941C1.33733 67.6521 0.176229 68.0022 -1.01092 68C-1.79834 68 -2.57803 67.8447 -3.30537 67.5431C-4.03271 67.2414 -4.69342 66.7993 -5.2497 66.242C-5.80598 65.6847 -6.2469 65.0231 -6.54724 64.2953C-6.84757 63.5674 -7.00143 62.7874 -6.99999 62Z" fill="white"/>
<path opacity="0.6" d="M-7 82C-7 78.287 -5.73572 74.726 -3.48528 72.1005C-1.23485 69.475 1.8174 68 5 68L5 82H-7Z" fill="white"/>
<path opacity="0.6" d="M5 24.0127V31H18L18 24.0127C18 22.1528 17.3152 20.3691 16.0962 19.054C14.8772 17.7388 13.2239 17 11.5 17C9.77609 17 8.1228 17.7388 6.90381 19.054C5.68482 20.3691 5 22.1528 5 24.0127Z" fill="white"/>
<path opacity="0.6" d="M-7 17L-7 31H5L5 24.0254C5 23.1085 4.84501 22.2005 4.54389 21.3534C4.24278 20.5064 3.80146 19.737 3.24518 19.0892C2.68889 18.4414 2.02858 17.9279 1.30201 17.5781C0.575444 17.2284 -0.203105 17.0492 -0.989089 17.0509L-7 17Z" fill="white"/>
<path opacity="0.6" d="M5 31L5 43C8.44781 43 11.7544 41.7357 14.1924 39.4853C16.6304 37.2348 18 34.1826 18 31L5 31Z" fill="white"/>
<path opacity="0.6" d="M5 43L5 31L-7 31L-7 43H5Z" fill="white"/>
<path opacity="0.6" d="M83 43V31L69 31V43H83Z" fill="white"/>
<path opacity="0.6" d="M69 43H83V56C79.287 56 75.726 54.6304 73.1005 52.1924C70.475 49.7544 69 46.4478 69 43Z" fill="white"/>
<path opacity="0.6" d="M57 43C57 39.5522 58.2643 36.2456 60.5147 33.8076C62.7652 31.3696 65.8174 30 69 30V43H57Z" fill="white"/>
<path opacity="0.6" d="M69 56V43H57V56H69Z" fill="white"/>
<path opacity="0.6" d="M83 68V56H69V68H83Z" fill="white"/>
<path opacity="0.6" d="M83 82V68H69V82H83Z" fill="white"/>
<path opacity="0.6" d="M69 68V56H57V68H69Z" fill="white"/>
<path opacity="0.6" d="M57 82V68C60.1826 68 63.2348 69.475 65.4853 72.1005C67.7357 74.726 69 78.287 69 82H57Z" fill="white"/>
<path opacity="0.6" d="M44 37.0109C43.9977 35.8233 44.3772 34.6618 45.0905 33.6734C45.8038 32.685 46.8189 31.9143 48.0071 31.4588C49.1953 31.0033 50.5032 30.8836 51.7652 31.1148C53.0272 31.3459 54.1864 31.9176 55.0962 32.7574C56.0059 33.5971 56.6253 34.6672 56.8757 35.8321C57.1261 36.997 56.9964 38.2043 56.5029 39.3011C56.0095 40.3979 55.1746 41.3349 54.1038 41.9933C53.0331 42.6518 51.7748 43.0022 50.4882 43C48.7684 42.9971 47.1199 42.3652 45.9038 41.2426C44.6877 40.1201 44.0031 38.5984 44 37.0109Z" fill="white"/>
<path opacity="0.6" d="M44 68H57V82C53.5522 82 50.2456 80.525 47.8076 77.8995C45.3696 75.274 44 71.713 44 68Z" fill="white"/>
<path opacity="0.6" d="M30 82V68H44C44 71.713 42.525 75.274 39.8995 77.8995C37.274 80.525 33.713 82 30 82Z" fill="white"/>
<path opacity="0.6" d="M30 82L30 68H18V82H30Z" fill="white"/>
<path opacity="0.6" d="M44 49.5C44 48.2139 44.3815 46.9568 45.0963 45.8876C45.811 44.8184 46.8269 43.9853 48.0153 43.4937C49.2037 43.002 50.5112 42.874 51.7724 43.1258C53.0336 43.3775 54.1918 43.9978 55.1004 44.908C56.0089 45.8182 56.6271 46.9775 56.8765 48.2392C57.126 49.5008 56.9956 50.8081 56.5018 51.9956C56.008 53.1831 55.1731 54.1975 54.1026 54.9103C53.0321 55.6231 51.7742 56.0023 50.4882 56C48.7663 55.9969 47.116 55.3107 45.8996 54.092C44.6832 52.8734 44 51.2219 44 49.5Z" fill="white"/>
<path opacity="0.6" d="M30 68L30 56H18V68H30Z" fill="white"/>
<g opacity="0.4">
<path opacity="0.5" d="M56.9727 68.9348V55.9993H44.0372V68.9348H56.9727Z" fill="white"/>
<path opacity="0.5" d="M44.0352 43.076V30.1406L31.0997 30.1406V43.076H44.0352Z" fill="white"/>
<path opacity="0.5" d="M31.1133 43.076L31.1133 30.1406L18.1778 30.1406V43.076H31.1133Z" fill="white"/>
<path opacity="0.5" d="M44.0352 56.0116V43.0761H31.0997V56.0116H44.0352Z" fill="white"/>
<path opacity="0.5" d="M31.1133 56.0116L31.1133 43.0761H18.1778V56.0116H31.1133Z" fill="white"/>
<path opacity="0.5" d="M44.0352 68.9348V55.9993H31.0997V68.9348H44.0352Z" fill="white"/>
<path opacity="0.5" d="M18.1777 17.205L18.1777 4.26952L5.24226 4.26952L5.24226 17.205H18.1777Z" fill="white"/>
<path opacity="0.5" d="M-7.74023 10.7549C-7.74256 9.47357 -7.36457 8.22034 -6.65413 7.15395C-5.9437 6.08756 -4.93278 5.25599 -3.7494 4.76456C-2.56602 4.27312 -1.26341 4.14392 -0.00655222 4.39333C1.25031 4.64274 2.40488 5.25955 3.31095 6.16561C4.21701 7.07167 4.8338 8.22624 5.08322 9.4831C5.33263 10.74 5.20343 12.0426 4.71199 13.2259C4.22056 14.4093 3.38899 15.4202 2.3226 16.1307C1.25621 16.8411 0.00298214 17.2191 -1.27838 17.2168C-2.99217 17.2168 -4.63577 16.536 -5.8476 15.3241C-7.05943 14.1123 -7.74023 12.4687 -7.74023 10.7549Z" fill="white"/>
<path opacity="0.5" d="M18.1777 4.28176L18.1777 -8.65371L5.24226 -8.65371L5.24226 4.28176L18.1777 4.28176Z" fill="white"/>
</g>
<g opacity="0.5">
</g>
<path opacity="0.6" d="M57 31V17L44 17V31H57Z" fill="white"/>
<path opacity="0.6" d="M30 17V4C33.713 4 37.274 5.36965 39.8995 7.80762C42.525 10.2456 44 13.5522 44 17H30Z" fill="white"/>
<path opacity="0.6" d="M30 31V17C33.713 17 37.274 18.475 39.8995 21.1005C42.525 23.726 44 27.287 44 31H30Z" fill="white"/>
<path opacity="0.6" d="M30 17L30 4L18 4V17H30Z" fill="white"/>
<path opacity="0.6" d="M18 24C18 22.6155 18.3519 21.2621 19.0112 20.111C19.6705 18.9599 20.6075 18.0626 21.7039 17.5328C22.8003 17.003 24.0067 16.8644 25.1705 17.1345C26.3344 17.4046 27.4035 18.0713 28.2426 19.0503C29.0817 20.0292 29.6532 21.2765 29.8847 22.6344C30.1162 23.9922 29.9974 25.3997 29.5433 26.6788C29.0891 27.9579 28.3201 29.0511 27.3334 29.8203C26.3467 30.5894 25.1867 31 24 31C23.2121 31 22.4319 30.8189 21.7039 30.4672C20.9759 30.1154 20.3145 29.5997 19.7574 28.9497C19.2002 28.2997 18.7582 27.5281 18.4567 26.6788C18.1552 25.8295 18 24.9192 18 24Z" fill="white"/>
<path opacity="0.6" d="M69 10.5C69 9.21441 69.4105 7.95771 70.1797 6.88879C70.9489 5.81987 72.0421 4.98674 73.3212 4.49477C74.6003 4.0028 76.0078 3.8741 77.3656 4.1249C78.7235 4.37571 79.9708 4.99477 80.9497 5.90381C81.9287 6.81285 82.5954 7.97103 82.8655 9.23191C83.1356 10.4928 82.997 11.7997 82.4672 12.9874C81.9373 14.1752 81.0401 15.1903 79.889 15.9045C78.7378 16.6188 77.3845 17 76 17C74.1435 17 72.363 16.3152 71.0503 15.0962C69.7375 13.8772 69 12.2239 69 10.5Z" fill="white"/>
<path opacity="0.6" d="M69 24C69 22.6155 69.4105 21.2621 70.1797 20.111C70.9489 18.9599 72.0421 18.0626 73.3212 17.5328C74.6003 17.003 76.0078 16.8644 77.3656 17.1345C78.7235 17.4046 79.9708 18.0713 80.9497 19.0503C81.9287 20.0292 82.5954 21.2765 82.8655 22.6344C83.1356 23.9922 82.997 25.3997 82.4672 26.6788C81.9373 27.9579 81.0401 29.0511 79.889 29.8203C78.7378 30.5894 77.3845 31 76 31C75.0807 31 74.1705 30.8189 73.3212 30.4672C72.4719 30.1154 71.7003 29.5997 71.0503 28.9497C70.4002 28.2997 69.8846 27.5281 69.5328 26.6788C69.1811 25.8295 69 24.9192 69 24Z" fill="white"/>
<path opacity="0.6" d="M57 10.5118C56.9978 9.22524 57.3482 7.96691 58.0066 6.89618C58.6651 5.82545 59.6021 4.99049 60.6989 4.49706C61.7957 4.00362 63.003 3.87389 64.1679 4.12432C65.3328 4.37475 66.4029 4.99406 67.2426 5.90382C68.0824 6.81357 68.6541 7.97284 68.8852 9.23481C69.1164 10.4968 68.9967 11.8047 68.5412 12.9929C68.0857 14.1811 67.315 15.1961 66.3266 15.9095C65.3382 16.6228 64.1767 17.0023 62.9891 17C61.4007 17 59.8773 16.3164 58.7542 15.0996C57.631 13.8829 57 12.2326 57 10.5118Z" fill="white"/>
<path opacity="0.6" d="M69 -2.01094C69.0025 -3.19716 69.4152 -4.35613 70.1859 -5.34138C70.9566 -6.32664 72.0508 -7.09395 73.3301 -7.5464C74.6094 -7.99885 76.0164 -8.11612 77.3735 -7.88337C78.7305 -7.65063 79.9766 -7.07832 80.9543 -6.23877C81.9319 -5.39922 82.5974 -4.33009 82.8664 -3.16651C83.1355 -2.00292 82.9961 -0.797088 82.4659 0.298631C81.9357 1.39435 81.0385 2.33077 79.8877 2.98958C78.7368 3.64838 77.3839 4 76 4C75.0797 4 74.1684 3.84445 73.3183 3.54224C72.4682 3.24002 71.6959 2.79709 71.0457 2.23878C70.3956 1.68047 69.8802 1.01776 69.5292 0.28854C69.1782 -0.440678 68.9983 -1.22208 69 -2.01094Z" fill="white"/>
<path opacity="0.6" d="M57 -2C57 -3.18716 57.3522 -4.34763 58.012 -5.33456C58.6717 -6.32149 59.6094 -7.09053 60.7064 -7.54434C61.8034 -7.99814 63.0104 -8.1163 64.1746 -7.8839C65.3388 -7.6515 66.4078 -7.07899 67.2465 -6.23878C68.0852 -5.39858 68.6558 -4.32845 68.886 -3.16384C69.1163 -1.99924 68.9959 -0.792474 68.5401 0.303691C68.0843 1.39986 67.3136 2.33617 66.3255 2.99414C65.3373 3.65212 64.1762 4.00215 62.9891 3.99999C62.2017 3.99999 61.422 3.84472 60.6946 3.54306C59.9673 3.2414 59.3066 2.79927 58.7503 2.24198C58.194 1.68468 57.7531 1.02318 57.4528 0.295286C57.1524 -0.432604 56.9986 -1.21259 57 -2Z" fill="white"/>
<path opacity="0.6" d="M57 4V-8L44 -8V4L57 4Z" fill="white"/>
<path opacity="0.6" d="M44 4V-8L30 -8V4L44 4Z" fill="white"/>
<path opacity="0.6" d="M5.00001 49.5C5.00001 48.2139 5.38153 46.9568 6.09629 45.8876C6.81104 44.8184 7.8269 43.9853 9.01531 43.4937C10.2037 43.002 11.5113 42.874 12.7725 43.1258C14.0336 43.3775 15.1918 43.9978 16.1004 44.908C17.009 45.8182 17.6271 46.9775 17.8765 48.2392C18.126 49.5008 17.9956 50.8081 17.5018 51.9956C17.008 53.1831 16.1731 54.1975 15.1026 54.9103C14.0321 55.6231 12.7742 56.0023 11.4882 56C10.6351 56 9.79047 55.8318 9.00252 55.505C8.21457 55.1782 7.49879 54.6992 6.89616 54.0955C6.29352 53.4917 5.81586 52.7751 5.49049 51.9865C5.16513 51.198 4.99845 50.353 5.00001 49.5Z" fill="white"/>
<path opacity="0.6" d="M5 68L5 56C8.44781 56 11.7544 57.2643 14.1924 59.5147C16.6304 61.7652 18 64.8174 18 68H5Z" fill="white"/>
<path opacity="0.6" d="M18 82L18 68H5L5 82H18Z" fill="white"/>
<path opacity="0.6" d="M5 56L5 43H-7L-7 56H5Z" fill="white"/>
<path opacity="0.6" d="M-6.99999 62C-6.99999 60.8128 -6.64781 59.6524 -5.98804 58.6654C-5.32827 57.6785 -4.39055 56.9095 -3.29356 56.4557C-2.19657 56.0019 -0.989613 55.8837 0.17457 56.1161C1.33875 56.3485 2.40783 56.921 3.24651 57.7612C4.08519 58.6014 4.65576 59.6716 4.88604 60.8362C5.11631 62.0008 4.99593 63.2075 4.54013 64.3037C4.08433 65.3998 3.3136 66.3361 2.32547 66.9941C1.33733 67.6521 0.176229 68.0022 -1.01092 68C-1.79834 68 -2.57803 67.8447 -3.30537 67.5431C-4.03271 67.2414 -4.69342 66.7993 -5.2497 66.242C-5.80598 65.6847 -6.2469 65.0231 -6.54724 64.2953C-6.84757 63.5674 -7.00143 62.7874 -6.99999 62Z" fill="white"/>
<path opacity="0.6" d="M-7 82C-7 78.287 -5.73572 74.726 -3.48528 72.1005C-1.23485 69.475 1.8174 68 5 68L5 82H-7Z" fill="white"/>
<path opacity="0.6" d="M5 24.0127V31H18L18 24.0127C18 22.1528 17.3152 20.3691 16.0962 19.054C14.8772 17.7388 13.2239 17 11.5 17C9.77609 17 8.1228 17.7388 6.90381 19.054C5.68482 20.3691 5 22.1528 5 24.0127Z" fill="white"/>
<path opacity="0.6" d="M-7 17L-7 31H5L5 24.0254C5 23.1085 4.84501 22.2005 4.54389 21.3534C4.24278 20.5064 3.80146 19.737 3.24518 19.0892C2.68889 18.4414 2.02858 17.9279 1.30201 17.5781C0.575444 17.2284 -0.203105 17.0492 -0.989089 17.0509L-7 17Z" fill="white"/>
<path opacity="0.6" d="M5 31L5 43C8.44781 43 11.7544 41.7357 14.1924 39.4853C16.6304 37.2348 18 34.1826 18 31L5 31Z" fill="white"/>
<path opacity="0.6" d="M5 43L5 31L-7 31L-7 43H5Z" fill="white"/>
<path opacity="0.6" d="M83 43V31L69 31V43H83Z" fill="white"/>
<path opacity="0.6" d="M69 43H83V56C79.287 56 75.726 54.6304 73.1005 52.1924C70.475 49.7544 69 46.4478 69 43Z" fill="white"/>
<path opacity="0.6" d="M57 43C57 39.5522 58.2643 36.2456 60.5147 33.8076C62.7652 31.3696 65.8174 30 69 30V43H57Z" fill="white"/>
<path opacity="0.6" d="M69 56V43H57V56H69Z" fill="white"/>
<path opacity="0.6" d="M83 68V56H69V68H83Z" fill="white"/>
<path opacity="0.6" d="M83 82V68H69V82H83Z" fill="white"/>
<path opacity="0.6" d="M69 68V56H57V68H69Z" fill="white"/>
<path opacity="0.6" d="M57 82V68C60.1826 68 63.2348 69.475 65.4853 72.1005C67.7357 74.726 69 78.287 69 82H57Z" fill="white"/>
<path opacity="0.6" d="M44 37.0109C43.9977 35.8233 44.3772 34.6618 45.0905 33.6734C45.8038 32.685 46.8189 31.9143 48.0071 31.4588C49.1953 31.0033 50.5032 30.8836 51.7652 31.1148C53.0272 31.3459 54.1864 31.9176 55.0962 32.7574C56.0059 33.5971 56.6253 34.6672 56.8757 35.8321C57.1261 36.997 56.9964 38.2043 56.5029 39.3011C56.0095 40.3979 55.1746 41.3349 54.1038 41.9933C53.0331 42.6518 51.7748 43.0022 50.4882 43C48.7684 42.9971 47.1199 42.3652 45.9038 41.2426C44.6877 40.1201 44.0031 38.5984 44 37.0109Z" fill="white"/>
<path opacity="0.6" d="M44 68H57V82C53.5522 82 50.2456 80.525 47.8076 77.8995C45.3696 75.274 44 71.713 44 68Z" fill="white"/>
<path opacity="0.6" d="M30 82V68H44C44 71.713 42.525 75.274 39.8995 77.8995C37.274 80.525 33.713 82 30 82Z" fill="white"/>
<path opacity="0.6" d="M30 82L30 68H18V82H30Z" fill="white"/>
<path opacity="0.6" d="M44 49.5C44 48.2139 44.3815 46.9568 45.0963 45.8876C45.811 44.8184 46.8269 43.9853 48.0153 43.4937C49.2037 43.002 50.5112 42.874 51.7724 43.1258C53.0336 43.3775 54.1918 43.9978 55.1004 44.908C56.0089 45.8182 56.6271 46.9775 56.8765 48.2392C57.126 49.5008 56.9956 50.8081 56.5018 51.9956C56.008 53.1831 55.1731 54.1975 54.1026 54.9103C53.0321 55.6231 51.7742 56.0023 50.4882 56C48.7663 55.9969 47.116 55.3107 45.8996 54.092C44.6832 52.8734 44 51.2219 44 49.5Z" fill="white"/>
<path opacity="0.6" d="M30 68L30 56H18V68H30Z" fill="white"/>
<g opacity="0.4">
<path opacity="0.5" d="M56.9727 68.9348V55.9993H44.0372V68.9348H56.9727Z" fill="white"/>
<path opacity="0.5" d="M44.0352 43.076V30.1406L31.0997 30.1406V43.076H44.0352Z" fill="white"/>
<path opacity="0.5" d="M31.1133 43.076L31.1133 30.1406L18.1778 30.1406V43.076H31.1133Z" fill="white"/>
<path opacity="0.5" d="M44.0352 56.0116V43.0761H31.0997V56.0116H44.0352Z" fill="white"/>
<path opacity="0.5" d="M31.1133 56.0116L31.1133 43.0761H18.1778V56.0116H31.1133Z" fill="white"/>
<path opacity="0.5" d="M44.0352 68.9348V55.9993H31.0997V68.9348H44.0352Z" fill="white"/>
<path opacity="0.5" d="M18.1777 17.205L18.1777 4.26952L5.24226 4.26952L5.24226 17.205H18.1777Z" fill="white"/>
<path opacity="0.5" d="M-7.74023 10.7549C-7.74256 9.47357 -7.36457 8.22034 -6.65413 7.15395C-5.9437 6.08756 -4.93278 5.25599 -3.7494 4.76456C-2.56602 4.27312 -1.26341 4.14392 -0.00655222 4.39333C1.25031 4.64274 2.40488 5.25955 3.31095 6.16561C4.21701 7.07167 4.8338 8.22624 5.08322 9.4831C5.33263 10.74 5.20343 12.0426 4.71199 13.2259C4.22056 14.4093 3.38899 15.4202 2.3226 16.1307C1.25621 16.8411 0.00298214 17.2191 -1.27838 17.2168C-2.99217 17.2168 -4.63577 16.536 -5.8476 15.3241C-7.05943 14.1123 -7.74023 12.4687 -7.74023 10.7549Z" fill="white"/>
<path opacity="0.5" d="M18.1777 4.28176L18.1777 -8.65371L5.24226 -8.65371L5.24226 4.28176L18.1777 4.28176Z" fill="white"/>
</g>
</g>
</g>
</g>
<defs>
<linearGradient id="paint0_linear" x1="720" y1="0" x2="720" y2="1711" gradientUnits="userSpaceOnUse">
<stop stop-color="#F8EEF6"/>
<stop offset="1" stop-color="#D9E5F2"/>
</linearGradient>
<clipPath id="clip0">
<rect width="1440" height="1711" fill="white" transform="translate(-837 -712)"/>
</clipPath>
</defs>
</svg>
