<svg width="70" height="70" viewBox="0 0 70 70" fill="none" xmlns="http://www.w3.org/2000/svg">
<g clip-path="url(#clip0)">
<rect width="1440" height="1711" transform="translate(-536 -712)" fill="url(#paint0_linear)"/>
<g filter="url(#filter0_d)">
<rect x="-87" y="-106" width="242" height="437" rx="18" fill="#0E47EF"/>
<circle cx="34.5" cy="35.5" r="64.5" fill="white"/>
<mask id="mask0" mask-type="alpha" maskUnits="userSpaceOnUse" x="-30" y="-29" width="129" height="129">
<circle cx="34.5" cy="35.5" r="64.5" fill="white"/>
</mask>
<g mask="url(#mask0)">
</g>
<path d="M10.5411 19.6715H12.081V18.2299L21.0279 18.0677V19.6715H49.4023V18.1458H58.7509V19.6715C58.7509 19.6715 61.9219 22.0743 63.4678 24.6453C65.0137 27.2163 69.4872 49.8748 69.0003 52.1695C68.5134 54.4642 67.3692 55.6236 65.4216 56.5847C63.474 57.5458 61.0272 57.6299 59.4022 55.5395C57.7771 53.4491 52.5733 45.3276 52.5733 45.3276C52.5733 45.3276 51.7639 44.042 51.1917 44.042C50.8409 44.0478 50.5005 44.1612 50.2179 44.3664L50.297 45.8862H42.0866V44.2042H28.8305V45.808H20.3097V43.8018C20.3097 43.8018 20.3888 42.8405 19.7376 43.243C19.0863 43.6455 14.6981 51.827 12.9879 53.9115C11.2776 55.9959 10.7968 57.2033 8.4353 57.3655C6.0738 57.5277 0.145718 54.7946 0.523071 49.8208C0.900423 44.847 5.08172 28.4718 7.43713 24.5432C9.79254 20.6147 10.529 19.6476 10.529 19.6476L10.5411 19.6715ZM24.7893 37.152C24.1642 37.1508 23.5529 37.3326 23.0326 37.6745C22.5123 38.0163 22.1065 38.5028 21.8665 39.0724C21.6265 39.642 21.5631 40.2689 21.6843 40.8741C21.8055 41.4792 22.1059 42.0354 22.5474 42.472C22.9889 42.9087 23.5517 43.2061 24.1646 43.3269C24.7776 43.4477 25.413 43.3863 25.9905 43.1505C26.5681 42.9147 27.0618 42.5151 27.4092 42.0023C27.7565 41.4895 27.9419 40.8864 27.9419 40.2696C27.9419 39.4438 27.61 38.6517 27.0189 38.0672C26.4278 37.4827 25.626 37.1536 24.7893 37.152ZM46.1401 37.152C45.5153 37.152 44.9046 37.3349 44.3851 37.6774C43.8657 38.02 43.4608 38.5068 43.2217 39.0765C42.9826 39.6462 42.92 40.2731 43.0419 40.8779C43.1638 41.4827 43.4647 42.0381 43.9064 42.4741C44.3482 42.9101 44.911 43.207 45.5238 43.3273C46.1365 43.4476 46.7717 43.3859 47.3489 43.1499C47.9261 42.9139 48.4194 42.5144 48.7665 42.0017C49.1136 41.489 49.2988 40.8862 49.2988 40.2696C49.2996 39.8599 49.2185 39.4543 49.06 39.0756C48.9016 38.697 48.669 38.3529 48.3755 38.0633C48.082 37.7736 47.7334 37.544 47.3498 37.3876C46.9662 37.2312 46.5551 37.1512 46.1401 37.152ZM54.1984 26.2493C53.8936 26.2481 53.5952 26.3361 53.3412 26.5024C53.0872 26.6687 52.8889 26.9056 52.7714 27.1832C52.6539 27.4608 52.6226 27.7666 52.6813 28.0618C52.74 28.357 52.8862 28.6284 53.1013 28.8416C53.3164 29.0547 53.5908 29.2 53.8897 29.2591C54.1885 29.3182 54.4984 29.2884 54.7801 29.1736C55.0618 29.0588 55.3027 28.864 55.4722 28.614C55.6416 28.3639 55.7321 28.0698 55.7321 27.7689C55.7329 27.5696 55.6938 27.3722 55.6171 27.1879C55.5404 27.0035 55.4275 26.8359 55.285 26.6947C55.1425 26.5535 54.9732 26.4414 54.7867 26.365C54.6002 26.2885 54.4003 26.2493 54.1984 26.2493ZM49.7188 26.2493C49.414 26.2481 49.1157 26.3361 48.8617 26.5024C48.6077 26.6687 48.4094 26.9056 48.2919 27.1832C48.1744 27.4608 48.1431 27.7666 48.2018 28.0618C48.2605 28.357 48.4067 28.6284 48.6218 28.8416C48.8369 29.0547 49.1112 29.2 49.4101 29.2591C49.7089 29.3182 50.0188 29.2884 50.3006 29.1736C50.5823 29.0588 50.8232 28.864 50.9926 28.614C51.1621 28.3639 51.2526 28.0698 51.2526 27.7689C51.2526 27.3669 51.0912 26.9813 50.8037 26.6964C50.5162 26.4116 50.1262 26.2509 49.7188 26.2493ZM54.1984 30.1838C53.8933 30.1826 53.5948 30.2709 53.3406 30.4375C53.0865 30.604 52.8881 30.8413 52.7708 31.1193C52.6535 31.3972 52.6225 31.7033 52.6818 31.9986C52.741 32.294 52.8877 32.5653 53.1035 32.7782C53.3192 32.9912 53.5941 33.136 53.8934 33.1945C54.1926 33.2529 54.5027 33.2222 54.7843 33.1065C55.0659 32.9907 55.3064 32.795 55.4751 32.5442C55.6439 32.2933 55.7333 31.9986 55.7321 31.6975C55.7321 31.2961 55.5705 30.9111 55.2829 30.6273C54.9952 30.3434 54.6051 30.1838 54.1984 30.1838ZM49.7188 30.1838C49.4138 30.1826 49.1152 30.2709 48.8611 30.4375C48.6069 30.604 48.4086 30.8413 48.2913 31.1193C48.174 31.3972 48.143 31.7033 48.2022 31.9986C48.2614 32.294 48.4082 32.5653 48.6239 32.7782C48.8396 32.9912 49.1146 33.136 49.4138 33.1945C49.7131 33.2529 50.0232 33.2222 50.3048 33.1065C50.5864 32.9907 50.8269 32.795 50.9956 32.5442C51.1643 32.2933 51.2538 31.9986 51.2526 31.6975C51.2526 31.2961 51.091 30.9111 50.8033 30.6273C50.5157 30.3434 50.1256 30.1838 49.7188 30.1838ZM40.0355 36.6174V35.9866C40.0355 35.7445 39.938 35.5121 39.7645 35.3409C39.591 35.1697 39.3557 35.0736 39.1103 35.0736H32.8293C32.5839 35.0736 32.3486 35.1697 32.1751 35.3409C32.0016 35.5121 31.9041 35.7445 31.9041 35.9866V36.6174C31.9041 36.8596 32.0016 37.0917 32.1751 37.263C32.3486 37.4342 32.5839 37.5303 32.8293 37.5303H39.1103C39.3557 37.5303 39.591 37.4342 39.7645 37.263C39.938 37.0917 40.0355 36.8596 40.0355 36.6174ZM40.0355 39.8311V39.2003C40.0355 38.9581 39.938 38.726 39.7645 38.5547C39.591 38.3835 39.3557 38.2872 39.1103 38.2872H32.8293C32.5839 38.2872 32.3486 38.3835 32.1751 38.5547C32.0016 38.726 31.9041 38.9581 31.9041 39.2003V39.8311C31.9041 40.0732 32.0016 40.3056 32.1751 40.4768C32.3486 40.648 32.5839 40.7441 32.8293 40.7441H39.1103C39.3557 40.7441 39.591 40.648 39.7645 40.4768C39.938 40.3056 40.0355 40.0732 40.0355 39.8311ZM19.3055 28.1174V25.0718H16.1101V28.1414H13.0426V31.2951H16.1283V34.3407H19.3237V31.2951H22.4095V28.1414L19.3055 28.1174Z" fill="#0E47EF"/>
</g>
<g opacity="0.2">
<mask id="mask1" mask-type="alpha" maskUnits="userSpaceOnUse" x="-87" y="-106" width="242" height="437">
<rect x="-87" y="-106" width="242" height="437" rx="18" fill="#0E47EF"/>
</mask>
<g mask="url(#mask1)">
<g opacity="0.5">
</g>
<path opacity="0.6" d="M32.6699 56.2319V42.5024H19.3349V56.2319H32.6699Z" fill="white"/>
<path opacity="0.6" d="M4.97511 42.5024L4.97511 29.7536C8.78384 29.7536 12.4366 31.0968 15.1298 33.4877C17.8229 35.8786 19.3359 39.1213 19.3359 42.5024H4.97511Z" fill="white"/>
<path opacity="0.6" d="M4.97511 56.2319L4.97511 42.5024C8.78384 42.5024 12.4366 43.9489 15.1298 46.5237C17.8229 49.0985 19.3359 52.5906 19.3359 56.2319H4.97511Z" fill="white"/>
<path opacity="0.6" d="M4.97461 42.5024L4.97461 29.7536L-7.33467 29.7536L-7.33467 42.5024H4.97461Z" fill="white"/>
<path opacity="0.6" d="M-7.33467 49.3672C-7.33467 48.0095 -6.97371 46.6822 -6.29743 45.5533C-5.62115 44.4244 -4.65992 43.5446 -3.53531 43.025C-2.4107 42.5054 -1.1732 42.3695 0.0206776 42.6344C1.21456 42.8992 2.31121 43.553 3.17195 44.5131C4.03269 45.4731 4.61887 46.6963 4.85635 48.0279C5.09383 49.3596 4.97194 50.7398 4.50611 51.9942C4.04028 53.2486 3.25143 54.3207 2.2393 55.075C1.22718 55.8293 0.0372434 56.2319 -1.18003 56.2319C-1.98827 56.2319 -2.78859 56.0543 -3.53531 55.7094C-4.28202 55.3644 -4.9605 54.8587 -5.53202 54.2213C-6.10353 53.5838 -6.55688 52.8271 -6.86618 51.9942C-7.17548 51.1613 -7.33467 50.2687 -7.33467 49.3672Z" fill="white"/>
<path opacity="0.6" d="M59.3407 36.1396C59.3383 34.8784 59.7273 33.6449 60.4585 32.5951C61.1897 31.5453 62.2302 30.7264 63.4483 30.2422C64.6664 29.758 66.0074 29.6301 67.3016 29.8747C68.5957 30.1194 69.7849 30.7256 70.7186 31.6166C71.6523 32.5076 72.2885 33.6434 72.5468 34.8802C72.805 36.117 72.6737 37.3993 72.1694 38.5647C71.6651 39.7302 70.8105 40.7264 69.7138 41.4273C68.6171 42.1283 67.3275 42.5024 66.0083 42.5024C65.1332 42.504 64.2665 42.3405 63.4576 42.0214C62.6488 41.7023 61.9136 41.2339 61.2943 40.6429C60.6751 40.0519 60.1837 39.35 59.8485 38.5773C59.5133 37.8045 59.3407 36.9762 59.3407 36.1396Z" fill="white"/>
<path opacity="0.6" d="M59.3407 49.3797C59.3383 48.0214 59.7273 46.693 60.4585 45.5624C61.1897 44.4319 62.2302 43.5501 63.4483 43.0286C64.6664 42.5071 66.0074 42.3694 67.3016 42.6328C68.5957 42.8963 69.7849 43.5491 70.7186 44.5087C71.6523 45.4682 72.2885 46.6914 72.5468 48.0233C72.805 49.3553 72.6737 50.7362 72.1694 51.9913C71.6651 53.2464 70.8105 54.3193 69.7138 55.0741C68.6171 55.829 67.3275 56.2319 66.0083 56.2319C64.242 56.2319 62.548 55.5104 61.2979 54.2257C60.0478 52.941 59.344 51.1981 59.3407 49.3797Z" fill="white"/>
<path opacity="0.6" d="M44.979 36.128C44.979 34.8673 45.4001 33.6349 46.1891 32.5866C46.9781 31.5384 48.0996 30.7213 49.4116 30.2389C50.7237 29.7564 52.1674 29.6302 53.5603 29.8761C54.9531 30.1221 56.2325 30.7292 57.2367 31.6207C58.2409 32.5121 58.9248 33.6479 59.2019 34.8845C59.4789 36.121 59.3367 37.4026 58.7933 38.5674C58.2498 39.7322 57.3295 40.7277 56.1486 41.4282C54.9678 42.1286 53.5796 42.5024 52.1594 42.5024C50.2551 42.5024 48.4287 41.8308 47.0821 40.6354C45.7355 39.44 44.979 37.8186 44.979 36.128Z" fill="white"/>
<path opacity="0.6" d="M44.979 49.3672C44.979 48.0095 45.4001 46.6822 46.1891 45.5533C46.9781 44.4244 48.0996 43.5446 49.4116 43.025C50.7237 42.5054 52.1674 42.3695 53.5603 42.6344C54.9531 42.8992 56.2325 43.553 57.2367 44.5131C58.2409 45.4731 58.9248 46.6963 59.2019 48.0279C59.4789 49.3596 59.3367 50.7398 58.7933 51.9942C58.2498 53.2486 57.3295 54.3207 56.1486 55.075C54.9678 55.8293 53.5796 56.2319 52.1594 56.2319C51.2165 56.2319 50.2828 56.0543 49.4116 55.7094C48.5404 55.3644 47.7489 54.8587 47.0821 54.2213C46.4154 53.5838 45.8864 52.8271 45.5256 51.9942C45.1647 51.1613 44.979 50.2687 44.979 49.3672Z" fill="white"/>
<path opacity="0.6" d="M32.6692 36.1396C32.667 34.8779 33.0264 33.6439 33.7018 32.5939C34.3772 31.5438 35.3384 30.725 36.4634 30.2411C37.5885 29.7572 38.8269 29.63 40.0218 29.8756C41.2168 30.1212 42.3144 30.7285 43.1759 31.6207C44.0373 32.5128 44.6237 33.6497 44.8608 34.8873C45.0979 36.1249 44.9751 37.4075 44.5079 38.5728C44.0407 39.738 43.2501 40.7334 42.2362 41.433C41.2224 42.1325 40.0309 42.5047 38.8127 42.5024C37.1833 42.5024 35.6207 41.832 34.4686 40.6388C33.3165 39.4455 32.6692 37.8272 32.6692 36.1396Z" fill="white"/>
<path opacity="0.6" d="M59.3407 23.8696C59.3407 22.7058 59.7318 21.5682 60.4644 20.6006C61.1971 19.633 62.2384 18.8788 63.4567 18.4334C64.675 17.9881 66.0157 17.8716 67.309 18.0986C68.6024 18.3256 69.7904 18.886 70.7229 19.7089C71.6554 20.5318 72.2904 21.5803 72.5477 22.7217C72.8049 23.8631 72.6729 25.0461 72.1682 26.1213C71.6636 27.1965 70.809 28.1155 69.7125 28.762C68.6161 29.4085 67.327 29.7536 66.0083 29.7536C65.1322 29.7551 64.2645 29.6038 63.4548 29.3086C62.6452 29.0134 61.9095 28.5801 61.29 28.0334C60.6706 27.4867 60.1795 26.8375 59.845 26.123C59.5105 25.4085 59.3391 24.6427 59.3407 23.8696Z" fill="white"/>
<path opacity="0.6" d="M44.979 23.8589C44.9816 22.6956 45.4049 21.559 46.1955 20.5928C46.9861 19.6266 48.1084 18.8741 49.4207 18.4304C50.733 17.9867 52.1763 17.8717 53.5683 18.0999C54.9603 18.3282 56.2385 18.8894 57.2414 19.7127C58.2443 20.5361 58.9268 21.5845 59.2028 22.7256C59.4788 23.8667 59.3359 25.0493 58.792 26.1238C58.2482 27.1984 57.3278 28.1167 56.1473 28.7628C54.9668 29.4088 53.579 29.7537 52.1594 29.7537C51.2154 29.7537 50.2806 29.6011 49.4086 29.3047C48.5366 29.0084 47.7444 28.574 47.0775 28.0265C46.4106 27.4789 45.8819 26.829 45.5218 26.1139C45.1618 25.3988 44.9773 24.6325 44.979 23.8589Z" fill="white"/>
<path opacity="0.6" d="M32.6692 23.8696C32.6693 22.7054 33.0305 21.5673 33.7073 20.5995C34.3841 19.6316 35.3459 18.8774 36.4712 18.4324C37.5965 17.9874 38.8345 17.8715 40.0287 18.0994C41.2229 18.3273 42.3195 18.8887 43.1798 19.7127C44.0401 20.5367 44.6254 21.5861 44.8616 22.7282C45.0978 23.8703 44.9743 25.0538 44.5068 26.1288C44.0392 27.2038 43.2486 28.122 42.2351 28.7672C41.2215 29.4125 40.0304 29.7558 38.8127 29.7536C38.005 29.7536 37.2052 29.6014 36.4591 29.3055C35.713 29.0097 35.0353 28.5761 34.4646 28.0296C33.894 27.4831 33.4417 26.8344 33.1337 26.1205C32.8256 25.4067 32.6678 24.6418 32.6692 23.8696Z" fill="white"/>
<path opacity="0.6" d="M59.3407 11.1083V4.25606L72.6758 4.25606V11.1083C72.6758 12.9322 71.9733 14.6815 70.7229 15.9712C69.4725 17.261 67.7766 17.9855 66.0083 17.9855C64.2399 17.9855 62.544 17.261 61.2936 15.9712C60.0432 14.6815 59.3407 12.9322 59.3407 11.1083Z" fill="white"/>
<path opacity="0.6" d="M44.979 11.1083V4.25606L59.3398 4.25606V11.1083C59.3398 12.9322 58.5833 14.6815 57.2368 15.9712C55.8902 17.261 54.0638 17.9855 52.1594 17.9855C50.2551 17.9855 48.4287 17.261 47.0821 15.9712C45.7355 14.6815 44.979 12.9322 44.979 11.1083Z" fill="white"/>
<path opacity="0.6" d="M32.6692 11.1083V4.25606L44.9785 4.25606V11.1083C44.9785 12.9322 44.3301 14.6815 43.1759 15.9712C42.0216 17.261 40.4562 17.9855 38.8239 17.9855C37.1916 17.9855 35.6261 17.261 34.4719 15.9712C33.3177 14.6815 32.6692 12.9322 32.6692 11.1083Z" fill="white"/>
<path opacity="0.6" d="M19.3349 11.127V17.9855H32.6699V11.127C32.6699 9.30473 31.9674 7.5571 30.717 6.26854C29.4666 4.97998 27.7707 4.25606 26.0024 4.25606C24.2341 4.25606 22.5381 4.97998 21.2877 6.26854C20.0373 7.5571 19.3349 9.30473 19.3349 11.127Z" fill="white"/>
<path opacity="0.6" d="M4.97511 11.127V17.9855H19.3359L19.3359 11.127C19.3359 9.30473 18.5794 7.5571 17.2328 6.26854C15.8863 4.97998 14.0599 4.25606 12.1555 4.25606C10.2512 4.25606 8.42479 4.97998 7.0782 6.26854C5.73161 7.5571 4.97511 9.30473 4.97511 11.127Z" fill="white"/>
<path opacity="0.6" d="M-7.33467 11.127V17.9855H4.97461L4.97461 11.127C4.97461 9.30473 4.32617 7.5571 3.17195 6.26854C2.01773 4.97998 0.452282 4.25606 -1.18003 4.25606C-2.81234 4.25606 -4.3778 4.97998 -5.53201 6.26854C-6.68623 7.5571 -7.33467 9.30473 -7.33467 11.127Z" fill="white"/>
<path opacity="0.6" d="M32.6699 29.7537V17.9855L19.3349 17.9855V29.7537H32.6699Z" fill="white"/>
<path opacity="0.6" d="M19.3359 29.7537L19.3359 17.9855L4.97511 17.9855L4.97511 29.7537H19.3359Z" fill="white"/>
<path opacity="0.6" d="M59.3407 -2.10672C59.3431 -0.846483 59.7362 0.384811 60.4703 1.43154C61.2044 2.47828 62.2466 3.29347 63.4651 3.77415C64.6837 4.25483 66.0239 4.37942 67.3165 4.13215C68.609 3.88488 69.7959 3.27686 70.7272 2.38492C71.6585 1.49299 72.2923 0.357147 72.5486 -0.879045C72.8048 -2.11524 72.6721 -3.39631 72.1671 -4.5604C71.6621 -5.7245 70.8075 -6.71935 69.7113 -7.41927C68.6151 -8.11918 67.3265 -8.49273 66.0083 -8.49274C65.1316 -8.49274 64.2636 -8.32748 63.4539 -8.00641C62.6442 -7.68534 61.9086 -7.21477 61.2893 -6.62162C60.67 -6.02847 60.1791 -5.32437 59.8448 -4.54965C59.5104 -3.77493 59.3391 -2.9448 59.3407 -2.10672Z" fill="white"/>
<path opacity="0.6" d="M19.3359 4.25606L19.3359 -8.49274L4.97511 -8.49274L4.97511 4.25606L19.3359 4.25606Z" fill="white"/>
<path opacity="0.6" d="M4.97461 4.25606L4.97461 -8.49274L-7.33467 -8.49274L-7.33467 4.25606L4.97461 4.25606Z" fill="white"/>
<path opacity="0.6" d="M44.979 4.25606L59.3398 4.25606V-8.49274C55.5311 -8.49274 51.8784 -7.14956 49.1852 -4.75869C46.492 -2.36783 44.979 0.874866 44.979 4.25606Z" fill="white"/>
<path opacity="0.6" d="M44.9785 4.25606V-8.49274L32.6692 -8.49274V4.25606L44.9785 4.25606Z" fill="white"/>
<path opacity="0.6" d="M32.6699 4.25606V-8.49274L19.3349 -8.49274V4.25606L32.6699 4.25606Z" fill="white"/>
<path opacity="0.6" d="M72.6758 68V56.2319H59.3407V68H72.6758Z" fill="white"/>
<path opacity="0.6" d="M59.3407 74.3744C59.3407 73.1137 59.7318 71.8812 60.4644 70.833C61.1971 69.7847 62.2384 68.9677 63.4567 68.4853C64.675 68.0028 66.0157 67.8766 67.309 68.1225C68.6024 68.3685 69.7904 68.9756 70.7229 69.8671C71.6554 70.7585 72.2904 71.8943 72.5477 73.1308C72.8049 74.3673 72.6729 75.649 72.1682 76.8138C71.6636 77.9786 70.809 78.9741 69.7125 79.6745C68.6161 80.375 67.327 80.7488 66.0083 80.7488C65.1322 80.7503 64.2645 80.5865 63.4548 80.2667C62.6452 79.9469 61.9095 79.4774 61.29 78.8852C60.6706 78.293 60.1795 77.5897 59.845 76.8156C59.5105 76.0415 59.3391 75.212 59.3407 74.3744Z" fill="white"/>
<path opacity="0.6" d="M59.3398 68V56.2319H44.979V68H59.3398Z" fill="white"/>
<path opacity="0.6" d="M44.979 68H59.3398V80.7488C55.5311 80.7488 51.8784 79.4056 49.1852 77.0148C46.492 74.6239 44.979 71.3812 44.979 68Z" fill="white"/>
<path opacity="0.6" d="M32.6692 68C32.6692 64.6188 33.9661 61.3761 36.2745 58.9853C38.583 56.5944 41.7139 55.2512 44.9785 55.2512V68H32.6692Z" fill="white"/>
<path opacity="0.6" d="M44.9785 80.7488V68H32.6692V80.7488H44.9785Z" fill="white"/>
<path opacity="0.6" d="M19.3349 62.1267C19.3325 60.962 19.7218 59.8229 20.4535 58.8536C21.1852 57.8844 22.2264 57.1285 23.4452 56.6819C24.6641 56.2352 26.0057 56.1177 27.3002 56.3444C28.5947 56.5711 29.7838 57.1318 30.717 57.9553C31.6502 58.7789 32.2855 59.8283 32.5424 60.9707C32.7993 62.1131 32.6662 63.297 32.1601 64.3726C31.6539 65.4482 30.7974 66.3671 29.6991 67.0128C28.6008 67.6586 27.31 68.0021 25.9903 68C24.2261 67.9972 22.5352 67.3775 21.2877 66.2766C20.0403 65.1758 19.3381 63.6835 19.3349 62.1267Z" fill="white"/>
<path opacity="0.6" d="M19.3349 74.3744C19.3349 73.1132 19.7262 71.8803 20.4594 70.8318C21.1926 69.7833 22.2346 68.9663 23.4537 68.4842C24.6727 68.002 26.0139 67.8765 27.3076 68.1234C28.6013 68.3703 29.7894 68.9785 30.7213 69.8712C31.6533 70.7638 32.2874 71.9007 32.5433 73.138C32.7992 74.3753 32.6654 75.6573 32.1589 76.8218C31.6524 77.9864 30.7959 78.9811 29.6978 79.6802C28.5998 80.3792 27.3095 80.7511 25.9902 80.7488C24.224 80.7457 22.5312 80.0728 21.2834 78.8777C20.0357 77.6826 19.3349 76.063 19.3349 74.3744Z" fill="white"/>
<g opacity="0.4">
<path opacity="0.5" d="M19.3711 68.0744L19.3711 55.3889H6.10223L6.10223 68.0744H19.3711Z" fill="white"/>
<path opacity="0.5" d="M6.11523 68.0744L6.11523 55.3889H-7.15363L-7.15363 68.0744H6.11523Z" fill="white"/>
<path opacity="0.5" d="M19.3711 80.76L19.3711 68.0745H6.10223L6.10223 80.76H19.3711Z" fill="white"/>
<path opacity="0.5" d="M6.11523 80.76L6.11523 68.0745H-7.15363L-7.15363 80.76H6.11523Z" fill="white"/>
</g>
</g>
</g>
</g>
<defs>
<filter id="filter0_d" x="-91" y="-106" width="250" height="445" filterUnits="userSpaceOnUse" color-interpolation-filters="sRGB">
<feFlood flood-opacity="0" result="BackgroundImageFix"/>
<feColorMatrix in="SourceAlpha" type="matrix" values="0 0 0 0 0 0 0 0 0 0 0 0 0 0 0 0 0 0 127 0"/>
<feOffset dy="4"/>
<feGaussianBlur stdDeviation="2"/>
<feColorMatrix type="matrix" values="0 0 0 0 0 0 0 0 0 0 0 0 0 0 0 0 0 0 0.25 0"/>
<feBlend mode="normal" in2="BackgroundImageFix" result="effect1_dropShadow"/>
<feBlend mode="normal" in="SourceGraphic" in2="effect1_dropShadow" result="shape"/>
</filter>
<linearGradient id="paint0_linear" x1="720" y1="0" x2="720" y2="1711" gradientUnits="userSpaceOnUse">
<stop stop-color="#F8EEF6"/>
<stop offset="1" stop-color="#D9E5F2"/>
</linearGradient>
<clipPath id="clip0">
<rect width="1440" height="1711" fill="white" transform="translate(-536 -712)"/>
</clipPath>
</defs>
</svg>
