<svg width="70" height="70" viewBox="0 0 70 70" fill="none" xmlns="http://www.w3.org/2000/svg">
<g clip-path="url(#clip0)">
<rect width="1440" height="1711" transform="translate(-1139 -712)" fill="url(#paint0_linear)"/>
<rect x="-86" y="-107" width="242" height="437" rx="18" fill="#0E47EF"/>
<circle cx="35" cy="34" r="64" fill="white"/>
<circle cx="35" cy="34" r="64" fill="white"/>
<mask id="mask0" mask-type="alpha" maskUnits="userSpaceOnUse" x="-29" y="-30" width="128" height="128">
<circle cx="35" cy="34" r="64" fill="white"/>
</mask>
<g mask="url(#mask0)">
</g>
<path d="M38.0932 57.2257C37.8235 57.2257 37.9399 57.4644 37.8818 57.6023L37.5276 57.65C37.5276 57.7084 37.5275 57.7667 37.4905 57.8198C37.3531 57.8834 37.1522 57.7562 37.0887 57.9842C37.0887 57.9842 37.0094 57.9842 36.9724 57.9842H34.5933C34.5087 57.9842 34.4136 57.9841 34.3607 57.8674C34.3343 57.8144 34.1492 57.8251 34.0117 57.7985C34.0117 57.7614 34.0117 57.703 33.9799 57.6288H33.8056L33.832 57.5971C33.7157 57.4592 33.594 57.3213 33.4777 57.1781L33.4038 57.2098C33.4038 56.7962 33.4038 56.3826 33.4038 55.969C33.4038 55.8629 33.4461 55.7303 33.2875 55.6666C33.2875 55.6666 33.2874 55.5658 33.2557 55.5075C33.2557 55.0196 33.2557 54.5264 33.2557 54.0332C33.2557 53.9059 33.3086 53.7416 33.0971 53.6938C33.0971 53.6938 33.06 53.5877 33.06 53.5241C33.06 53.0415 33.06 52.5536 33.06 52.071C33.06 51.949 33.1077 51.7953 32.9068 51.7529C32.8804 51.7529 32.8645 51.6256 32.8645 51.5619C32.8645 51.0952 32.8645 50.6339 32.8645 50.1672C32.8645 50.0983 32.8011 50.0346 32.7746 49.9656C32.7471 49.896 32.7293 49.8228 32.7217 49.7483C32.7217 49.2179 32.7217 48.6876 32.7217 48.1254C32.7217 48.0247 32.7535 47.908 32.5948 47.8709C32.5631 47.8709 32.5419 47.7595 32.5366 47.6958C32.5366 47.1655 32.5367 46.6352 32.5103 46.1049C32.5103 46.0094 32.5103 45.9087 32.3834 45.8769C32.3464 45.8769 32.3252 45.7495 32.3199 45.6753C32.3199 45.2351 32.3199 44.7896 32.3199 44.3495C32.3199 44.2699 32.2512 44.201 32.2301 44.1215C32.2 44.0452 32.1821 43.9647 32.1772 43.8829C32.1772 43.3525 32.1771 42.8222 32.1507 42.26C32.1507 42.154 32.1824 42.0267 32.0185 41.9896C31.9868 41.9896 31.9657 41.8888 31.9657 41.8304C31.9657 41.3585 31.9657 40.8865 31.9393 40.4198C31.9393 40.3297 31.9393 40.2449 31.8336 40.2024C31.7278 40.16 31.7595 40.0592 31.7542 39.9849C31.7542 39.5448 31.7542 39.1099 31.7277 38.675C31.7277 38.6061 31.6537 38.5372 31.622 38.463C31.5982 38.4168 31.584 38.3663 31.5798 38.3145C31.5798 38.0387 31.5798 37.7841 31.5798 37.4924C31.5798 37.4394 31.5798 37.3439 31.548 37.3386C31.3313 37.2909 31.3894 37.1159 31.3841 36.9833C31.3841 36.6864 31.3841 36.3894 31.3841 36.0977C31.3841 36.0394 31.326 35.9916 31.2996 35.9386C31.2687 35.8905 31.2488 35.8362 31.2414 35.7795C31.2414 35.5196 31.2414 35.2492 31.2414 34.9946L31.0721 34.9575C30.94 34.7294 30.8184 34.5173 30.7021 34.3052H30.6652C30.6652 34.1991 30.6651 34.0931 30.6387 33.9764L30.4589 33.9393C30.4589 33.8279 30.4589 33.7166 30.4272 33.5893H30.2422C30.2422 33.462 30.2422 33.3453 30.2422 33.2074C29.9937 33.2074 30.11 32.9687 30.0624 32.8149H29.9038C29.8139 32.6771 29.9937 32.4384 29.7135 32.4172C29.7135 32.3005 29.7135 32.1945 29.7135 32.0778L29.5284 32.046C29.5284 31.9187 29.5284 31.7967 29.502 31.6536H29.3117V31.3089C29.0421 31.3089 29.1901 31.0703 29.1319 30.9271L28.9416 30.8846V30.5081L28.7354 30.4656C28.7354 30.3808 28.7354 30.3066 28.7354 30.2323C28.7354 30.1581 28.7354 30.1369 28.7354 30.1316C28.508 30.0839 28.6137 29.893 28.5715 29.7498L28.3971 29.7073C28.3178 29.5853 28.4975 29.3467 28.2067 29.3202V28.949L28.0058 28.9118C28.0058 28.8058 28.0058 28.6943 28.0058 28.567L27.8313 28.5353C27.7309 28.4027 27.9423 28.1535 27.6304 28.1482V27.8087L27.4295 27.7716V27.3897L27.2234 27.3527V27.0132C26.9273 27.0132 27.0911 26.7587 27.0171 26.6155H26.8426V26.2655L26.6418 26.2337V25.8518C26.3563 25.8518 26.5148 25.6079 26.4461 25.4647L26.2717 25.4329C26.2717 25.3268 26.2717 25.2155 26.2717 25.0935C26.0074 25.0935 26.1501 24.8602 26.0866 24.7117L25.907 24.6692C25.907 24.5473 25.907 24.4253 25.907 24.2927L25.7166 24.2503C25.7166 24.1389 25.7166 24.0329 25.7166 23.9162C25.4469 23.8844 25.6108 23.6564 25.5315 23.5132H25.3677C25.3148 23.3647 25.4363 23.1312 25.1508 23.1418C25.1508 23.0411 25.1508 22.951 25.1508 22.8556C25.1508 22.7601 25.1508 22.76 25.1508 22.76C24.8971 22.6911 25.0187 22.4895 25.0081 22.3463C25.0081 22.0653 25.0081 21.7843 25.0081 21.5032C25.0081 21.4555 25.0716 21.4077 25.0928 21.3547C25.1139 21.3017 25.1668 21.1373 25.2143 20.9994L25.3624 20.9676C25.3624 20.9146 25.3623 20.8562 25.394 20.7819H25.5051L25.8117 20.4213L26.1396 20.3948L26.1923 20.1986H26.5043C26.5995 20.1986 26.7052 20.1986 26.7475 20.0661C26.7475 20.0183 26.9484 20.013 27.0648 20.0024C27.1811 19.9918 27.3397 20.0024 27.3291 20.2039H27.8578C27.8578 20.2729 27.8843 20.3311 27.8895 20.3576L28.2808 20.6122L28.5345 20.9941H28.6773C28.6773 21.1002 28.6773 21.2115 28.6773 21.3282C28.9416 21.3547 28.7882 21.5721 28.857 21.7153L29.0315 21.7525C29.0315 21.8585 29.0315 21.9698 29.0315 22.0918L29.2217 22.129C29.2217 22.2509 29.2217 22.3729 29.2217 22.5108C29.4755 22.5373 29.3487 22.7441 29.4068 22.8926L29.5813 22.9351V23.2691L29.7663 23.3169C29.8297 23.4442 29.6976 23.6404 29.9355 23.7146C29.9778 23.7146 29.9356 23.9373 29.9726 24.0699L30.1522 24.1124C30.1522 24.2131 30.1522 24.3246 30.1522 24.4465C30.406 24.4784 30.2633 24.6905 30.332 24.8337L30.5065 24.8707C30.5065 24.9768 30.5065 25.0882 30.5065 25.2102L30.6915 25.2525C30.6889 25.2914 30.6889 25.3305 30.6915 25.3693C30.7232 25.4754 30.6386 25.6238 30.829 25.6821C30.8766 25.6821 30.866 25.8837 30.8872 26.011L31.0669 26.0533C31.0351 26.3026 31.0934 26.4883 31.4265 26.4034C31.4265 26.3663 31.4264 26.3185 31.4687 26.2496C31.6431 26.2496 31.8176 26.2496 31.9974 26.2496C32.1771 26.2496 32.23 26.2496 32.2617 26.1064C32.2617 26.0799 32.3675 26.0639 32.4256 26.0639C34.6567 26.0639 36.8879 26.0639 39.1189 26.0639H39.5577C39.6951 26.0639 39.8379 26.0639 39.8273 26.223C40.0388 26.345 40.3242 26.1117 40.467 26.414L40.7843 26.4406C40.7843 26.5042 40.7843 26.5625 40.7843 26.6261H40.9746L41.0063 26.7958L41.0486 26.7587L41.4187 27.1564L41.3763 27.2042H41.5614C41.5614 27.3951 41.5614 27.5701 41.5614 27.7345L41.7624 27.7769C41.7624 28.1746 41.7624 28.5618 41.7624 28.9437C41.7624 29.0073 41.8258 29.0603 41.8522 29.1239C41.8766 29.1688 41.8944 29.2171 41.905 29.2671C41.905 29.6118 41.905 29.9565 41.905 30.3277C41.905 30.3861 41.9738 30.4392 42.0056 30.4975C42.0373 30.5558 42.0848 30.6089 42.0848 30.6619C42.0848 31.0013 42.0849 31.3354 42.1166 31.6748C42.1166 31.749 42.1853 31.8179 42.217 31.8922C42.2408 31.9384 42.2552 31.9889 42.2593 32.0407V32.99C42.2593 33.1226 42.2593 33.2551 42.4655 33.2339V34.3317C42.6769 34.3317 42.6717 34.5015 42.6717 34.65C42.6717 34.9151 42.6717 35.1803 42.6717 35.4508C42.6717 35.5568 42.6294 35.6893 42.788 35.7529C42.788 35.7529 42.8198 35.8537 42.8198 35.9068C42.8198 36.506 42.8198 37.1054 42.8198 37.6993C42.8198 37.7683 42.7509 37.8372 42.7139 37.9061H42.6611V38.2403L42.2805 38.5001C42.2012 38.6221 42.1219 38.7388 42.0056 38.8979C41.9316 38.9297 41.7464 38.8394 41.6565 39.0462C41.6565 39.0993 41.4345 39.0463 41.3024 39.0781C41.3024 39.1311 41.3023 39.1895 41.2547 39.2691H39.9173C39.9173 39.582 39.9173 39.8842 39.9173 40.1812C39.9173 40.3456 40.0283 40.5736 39.7533 40.6584C39.7533 40.6584 39.7533 40.7592 39.7533 40.8123C39.7533 41.2789 39.7533 41.7404 39.7533 42.2071C39.7324 42.2796 39.7021 42.3491 39.6634 42.4138C39.6347 42.466 39.6185 42.5241 39.6159 42.5836C39.6159 43.1139 39.6159 43.6442 39.6159 44.148C39.6159 44.2382 39.6159 44.3389 39.4943 44.376C39.452 44.376 39.4255 44.514 39.4202 44.5935C39.4202 45.0761 39.4202 45.564 39.4202 46.0466C39.4202 46.1474 39.4202 46.264 39.288 46.2958C39.2563 46.2958 39.2352 46.4124 39.2352 46.4761C39.2352 47.0435 39.2352 47.6164 39.2035 48.1838C39.2035 48.2687 39.1295 48.3429 39.1031 48.4278C39.0785 48.483 39.0641 48.5423 39.0607 48.6027C39.0607 49.0694 39.0607 49.5414 39.0607 50.0134C39.0607 50.0824 38.9867 50.1513 38.9497 50.2202C38.9167 50.2849 38.8951 50.355 38.8862 50.4271C38.8862 50.915 38.8863 51.3976 38.8599 51.8855C38.8599 51.9862 38.8968 52.1134 38.7435 52.1664C38.717 52.1664 38.7118 52.2832 38.7118 52.3415C38.7118 52.8718 38.7118 53.4021 38.7118 53.9006C38.7118 54.0014 38.7383 54.1181 38.5744 54.1394C38.5479 54.1394 38.5215 54.2612 38.5215 54.3196C38.5215 54.8075 38.5215 55.2901 38.5215 55.778C38.5215 55.8946 38.5532 56.0379 38.3734 56.0856C38.347 56.0856 38.3364 56.1811 38.3364 56.2341C38.3364 56.5629 38.3364 56.8917 38.3364 57.2311L38.0932 57.2257ZM55.6721 30.4127C55.6721 30.1104 55.6721 29.808 55.6721 29.5057C55.6643 29.4408 55.6447 29.3779 55.6141 29.3202C55.5876 29.2565 55.5294 29.2035 55.5241 29.1398C55.5241 28.7103 55.5242 28.286 55.4978 27.8565C55.4978 27.83 55.4978 27.8034 55.4978 27.7769L55.3233 27.7292C55.2968 27.1989 55.2969 27.1988 55.1118 27.1458C55.1272 27.133 55.1413 27.1189 55.154 27.1035C55.0324 26.9762 54.9056 26.8488 54.784 26.7162L54.5249 26.3503C54.4139 26.3503 54.1972 26.3504 54.1866 26.2867C54.1443 26.1064 54.0174 26.186 53.9223 26.1648C53.7267 26.1277 53.4834 26.2549 53.346 25.995C53.346 25.9685 53.2561 25.995 53.2085 25.995H46.3302C46.2139 25.995 46.087 25.995 46.0288 26.1223C45.9927 26.1454 45.9496 26.1548 45.9072 26.1489C45.8121 25.9739 45.7275 25.9473 45.6323 26.1489C45.6323 26.1489 45.553 26.1489 45.5107 26.1489H45.0085C44.9309 26.1675 44.8605 26.2085 44.806 26.2669C44.7515 26.3254 44.7152 26.3987 44.7018 26.4776C44.7018 26.642 44.7018 26.8117 44.7018 26.9814C44.7082 27.0268 44.7245 27.0702 44.7494 27.1086C44.7812 27.1723 44.8446 27.236 44.8499 27.2996C44.8499 27.6337 44.8499 27.9731 44.8499 28.3125C44.8499 28.3655 44.8816 28.461 44.9081 28.4663C45.0561 28.4663 45.0402 28.5937 45.0402 28.6838C45.0402 29.0285 45.0402 29.3732 45.0402 29.7445C45.0402 29.7922 45.0666 29.8771 45.093 29.8824C45.2516 29.8824 45.2252 30.0255 45.2305 30.121C45.2305 30.4392 45.2305 30.7574 45.2305 31.0703C45.2305 31.1233 45.2305 31.2134 45.2728 31.2187C45.4103 31.2187 45.3786 31.3407 45.3786 31.4309C45.3786 31.7491 45.3786 32.0725 45.3786 32.4119C45.5742 32.4119 45.5848 32.534 45.5848 32.6666C45.5848 33.0007 45.5848 33.3294 45.5848 33.6582C45.5848 33.743 45.5848 33.8703 45.5848 33.9021C45.791 34.04 45.7011 34.2415 45.717 34.4324C45.7328 34.6234 45.717 34.8567 45.717 35.0688C45.717 35.2809 45.7169 35.3552 45.9231 35.3605V36.5061L46.1135 36.5644V37.3545C46.1135 37.3917 46.1135 37.4659 46.0765 37.4659C45.8756 37.503 45.9337 37.6568 45.9284 37.7788C45.9284 37.9856 45.9284 38.1871 45.9284 38.394C45.9321 38.415 45.9321 38.4366 45.9284 38.4577L45.7804 38.4842C45.6693 38.6963 45.8756 38.9774 45.5848 39.1152C45.5848 39.1152 45.5848 39.1842 45.5848 39.2213C45.5848 39.2584 45.5848 39.3592 45.5848 39.4335H45.4103C45.3151 39.582 45.5161 39.8364 45.2042 39.8683C45.2042 39.9902 45.2041 40.1706 45.2411 40.2024C45.4156 40.3085 45.368 40.457 45.368 40.5949C45.368 41.0509 45.368 41.5069 45.368 41.963C45.3777 42.0332 45.403 42.1003 45.4421 42.1593C45.4738 42.2229 45.5478 42.2813 45.5478 42.3397C45.5478 42.87 45.5478 43.4002 45.5795 43.9623C45.5795 44.0207 45.5794 44.1109 45.6059 44.1215C45.7697 44.1904 45.7223 44.3337 45.7276 44.4503C45.7276 44.9382 45.7276 45.4314 45.7276 45.9246C45.7276 45.9777 45.7275 46.0677 45.7698 46.0677C45.9495 46.0995 45.9178 46.2374 45.9178 46.3488C45.9178 46.842 45.9178 47.3352 45.9178 47.8231C45.9178 47.8921 45.9443 48.0141 45.9813 48.0194C46.1241 48.0565 46.1029 48.1573 46.1029 48.2527C46.1029 48.7565 46.1029 49.2657 46.1294 49.7695C46.1333 49.8367 46.1475 49.9028 46.1716 49.9656C46.2033 50.0399 46.272 50.1035 46.272 50.1777C46.272 50.708 46.272 51.2384 46.3038 51.7687C46.3038 51.8323 46.3303 51.9438 46.362 51.9491C46.51 51.9756 46.4889 52.0816 46.4889 52.1717C46.4889 52.7021 46.4889 53.2007 46.5153 53.7098C46.5153 53.7734 46.547 53.8795 46.5787 53.8848C46.7109 53.9166 46.695 54.0067 46.695 54.0969C46.695 54.5954 46.695 55.0939 46.695 55.5924C46.695 55.6667 46.695 55.7939 46.7267 55.8098C46.9012 55.8894 46.8378 56.0378 46.843 56.1545C46.843 56.4833 46.843 56.8175 46.843 57.1463C46.8406 57.1727 46.8406 57.1993 46.843 57.2257L47.0387 57.2629C46.9911 57.5493 47.1444 57.65 47.3876 57.6394C47.3876 57.7137 47.4194 57.772 47.4246 57.8145C47.5674 57.8728 47.7524 57.7562 47.8159 57.9683C47.8159 57.9683 47.8899 57.9683 47.9322 57.9683C48.7534 57.9683 49.5728 57.9683 50.3905 57.9683C50.4369 57.9667 50.4822 57.9539 50.5227 57.9311C50.5967 57.8993 50.6602 57.8516 50.7396 57.8198C50.7921 57.8118 50.8455 57.8118 50.8981 57.8198C50.8981 57.7508 50.9245 57.6925 50.9351 57.6394H51.1149V57.6076L51.5326 57.1728C51.5326 56.8281 51.5326 56.4409 51.5326 56.0538C51.5326 56.0007 51.5589 55.8999 51.5854 55.8946C51.7546 55.8681 51.7176 55.7355 51.7228 55.6348C51.7228 55.1999 51.7228 54.7651 51.7228 54.3302C51.7228 54.2666 51.7493 54.1553 51.7811 54.1447C51.9344 54.1129 51.9132 54.0014 51.9132 53.9006C51.9132 53.3703 51.9133 52.84 51.9397 52.3096C51.9317 52.2569 51.9317 52.2034 51.9397 52.1506C51.9922 52.0614 52.0314 51.9649 52.056 51.8643C52.056 51.3021 52.056 50.7399 52.056 50.1777C52.056 50.1194 52.0823 50.0187 52.1035 50.0134C52.2727 50.0134 52.241 49.8649 52.2462 49.7589V48.3005C52.2539 48.2265 52.2699 48.1534 52.2939 48.083C52.3256 48.0034 52.3943 47.9239 52.3996 47.8444C52.3996 47.3618 52.3996 46.8739 52.3996 46.3913C52.3996 46.2375 52.3995 46.0942 52.6163 46.0677V44.5192C52.6163 44.4609 52.6163 44.3601 52.6639 44.3548C52.849 44.3548 52.8014 44.1851 52.8067 44.079C52.8067 43.5805 52.8067 43.0768 52.8067 42.5783C52.8067 42.5252 52.8067 42.4404 52.8067 42.4192C52.96 42.3343 52.923 42.1912 52.923 42.0639C52.923 41.5866 52.923 41.1092 52.923 40.6319C52.923 40.5736 52.923 40.4676 52.96 40.4623C53.1556 40.4146 53.1081 40.2607 53.1134 40.1387C53.1134 39.8524 53.1134 39.5713 53.1134 39.2691H54.4563C54.4563 39.1895 54.4879 39.1312 54.4879 39.1312L55.265 38.8554C55.265 38.8183 55.265 38.7546 55.265 38.6963H55.4554L55.4184 38.6485L55.7884 38.2508C55.8239 38.176 55.8438 38.0948 55.8467 38.0121C55.8585 37.9699 55.8783 37.9303 55.9049 37.8955C55.9366 37.8424 56 37.7947 56 37.747C56 37.1884 56 36.6316 56 36.0765C55.9943 36.0383 55.9798 36.0021 55.9577 35.9705C55.9259 35.9068 55.8625 35.8431 55.8572 35.7795C55.8572 35.456 55.8572 35.1325 55.8572 34.809C55.8403 34.7409 55.8117 34.6763 55.7727 34.6181C55.7463 34.5598 55.6774 34.5067 55.6721 34.4484C55.6721 34.109 55.6722 33.7643 55.6405 33.4196C55.6348 33.3589 55.6187 33.2997 55.5929 33.2445C55.5612 33.1809 55.4978 33.1173 55.4978 33.0484C55.4978 32.7461 55.4978 32.4438 55.4978 32.1415C55.4978 32.062 55.4607 31.924 55.4131 31.9081C55.2809 31.8763 55.3021 31.7862 55.3021 31.7013V30.6936C55.1065 30.6936 55.096 30.5717 55.096 30.4391L55.6721 30.4127ZM26.2453 33.6635H26.0602C26.0602 33.5256 26.0602 33.409 26.0602 33.2817C25.7853 33.2552 25.9545 33.0165 25.8699 32.8839L25.7113 32.8574C25.7113 32.7301 25.7112 32.5393 25.6584 32.5287C25.4522 32.4756 25.5526 32.3165 25.5156 32.2104V32.1309L25.3412 32.0938C25.3412 31.9559 25.3412 31.8286 25.3148 31.712L25.1191 31.6695V31.3301C24.8283 31.3301 25.0134 31.065 24.9182 30.9483L24.749 30.9112C24.749 30.7733 24.749 30.646 24.749 30.5293L24.5746 30.4922C24.5746 30.3596 24.5746 30.1633 24.5164 30.158C24.3314 30.1209 24.4107 29.9883 24.3843 29.8982C24.3787 29.8541 24.3787 29.8096 24.3843 29.7656L24.215 29.7392C24.1463 29.596 24.2733 29.3998 24.0354 29.352C24.0354 29.352 24.0354 29.283 24.0354 29.2512C24.0354 29.2194 24.0354 29.0708 24.0354 28.9701L23.8503 28.9384C23.8503 28.774 23.8872 28.5725 23.6652 28.5565C23.6282 28.424 23.6018 28.3125 23.5648 28.2065C23.5278 28.1004 23.4749 28.095 23.4696 28.0367C23.4644 27.9784 23.4431 27.7822 23.2687 27.8034C23.2264 27.6284 23.3269 27.395 23.052 27.3738C23.0255 27.22 23.0519 27.0663 22.8933 26.955C22.8087 26.9072 22.8934 26.6314 22.6925 26.6208C22.6079 26.4246 22.5339 26.2496 22.4493 26.0905C22.4493 26.0905 22.37 26.0533 22.3383 26.0586C22.2114 26.0957 22.0897 26.1435 21.9469 26.1912C21.8782 26.0533 21.7832 25.9207 21.6616 26.1912C21.6616 26.1912 21.5082 26.1913 21.4976 26.1648C21.4395 26.0163 21.3231 26.0428 21.2174 26.0428H18.2514C18.1087 26.0428 17.9976 26.0427 17.9923 26.2337H17.7227C17.6275 26.2337 17.4532 26.2337 17.4426 26.2337C17.3792 26.467 17.1783 26.3451 17.0355 26.4034C17.0355 26.4564 17.0355 26.5147 17.0355 26.5836H16.8451C16.8562 26.6022 16.8686 26.6199 16.8822 26.6367L16.5015 27.0132L16.4592 26.9814C16.4592 27.0397 16.4592 27.1034 16.4592 27.1777C16.2794 27.1777 16.2689 27.2678 16.2584 27.395C16.2547 27.518 16.2405 27.6405 16.216 27.7611C16.216 27.8512 16.1103 27.9308 16.105 28.0156C16.105 28.4452 16.105 28.8747 16.105 29.3149C15.9041 29.3149 15.8935 29.4209 15.8935 29.5535C15.8935 29.8982 15.8934 30.2376 15.867 30.5823C15.8701 30.6016 15.8701 30.6214 15.867 30.6407L15.682 30.6989C15.682 31.0914 15.682 31.4839 15.682 31.8764C15.6774 31.9362 15.6593 31.9942 15.6291 32.046C15.6027 32.1149 15.5393 32.1786 15.534 32.2423C15.534 32.5605 15.534 32.8787 15.534 33.1916H15.4547C15.3986 33.266 15.3573 33.3507 15.3331 33.4408C15.3331 33.7802 15.3331 34.1143 15.3067 34.4537C15.3067 34.5014 15.3067 34.581 15.3067 34.5916C15.1375 34.6764 15.1798 34.8302 15.1798 34.9628C15.1798 35.2491 15.1798 35.5356 15.1798 35.8273C15.1638 35.8806 15.1387 35.9309 15.1057 35.9758C15.0687 36.0394 15 36.103 15 36.1666C15 36.6969 15 37.2273 15 37.7576C15.1798 37.7576 15.1957 37.8849 15.201 38.0281C15.201 38.0652 15.2009 38.1341 15.2273 38.1394C15.4018 38.1871 15.3383 38.341 15.3648 38.4523C15.3639 38.47 15.3639 38.4878 15.3648 38.5054L15.5499 38.5371C15.5648 38.6106 15.5995 38.6785 15.6503 38.7334C15.6926 38.7918 15.7296 38.8553 15.7772 38.9296C15.844 38.9228 15.9113 38.9228 15.9781 38.9296C16.0331 38.9426 16.0851 38.966 16.1313 38.9986C16.1736 38.9986 16.2159 39.0728 16.2635 39.0834C16.3445 39.0887 16.4258 39.0887 16.5068 39.0834C16.5227 39.1533 16.542 39.2224 16.5649 39.2903H17.8813C17.8813 39.5661 17.8813 39.8206 17.8813 40.0752C17.8813 40.1282 17.9131 40.2237 17.9448 40.229C18.077 40.229 18.0611 40.3456 18.0611 40.4357C18.0611 40.9661 18.0612 41.4964 18.0876 41.9949C18.0876 42.0638 18.1193 42.1752 18.1563 42.1805C18.2937 42.2124 18.2673 42.3078 18.2726 42.3926C18.2726 42.9229 18.2726 43.4533 18.2726 43.9836C18.2791 44.0435 18.2934 44.1024 18.3149 44.1586C18.362 44.2412 18.3959 44.3307 18.4153 44.4238C18.4153 44.9223 18.4154 45.4208 18.4471 45.9246C18.4471 45.9777 18.4789 46.073 18.5053 46.0783C18.6586 46.0783 18.6322 46.211 18.6375 46.3012C18.6375 46.8315 18.6375 47.314 18.6375 47.8231C18.6478 47.8981 18.6729 47.9703 18.7114 48.0353C18.7431 48.099 18.8171 48.1572 18.8171 48.2156C18.8171 48.7459 18.8172 49.2285 18.8489 49.7376C18.8514 49.8124 18.8676 49.8861 18.8965 49.955C18.9373 50.0343 18.9692 50.1179 18.9916 50.2043C18.9916 50.7346 18.9917 51.2649 19.0234 51.7952C19.0234 51.8536 19.0233 51.9491 19.0762 51.9544C19.2295 51.9862 19.2031 52.1028 19.2084 52.1983C19.2084 52.7286 19.2084 53.2113 19.2084 53.7204C19.2124 53.7807 19.2268 53.8398 19.2507 53.8953C19.2942 53.9721 19.3279 54.0542 19.3511 54.1394C19.3511 54.6326 19.3511 55.1256 19.3511 55.6135C19.3662 55.6963 19.3966 55.7756 19.441 55.847C19.4727 55.9053 19.5362 55.9583 19.5362 56.0166C19.5362 56.4037 19.5362 56.791 19.5362 57.1781C19.5345 57.1975 19.5345 57.217 19.5362 57.2364L19.7106 57.2682C19.774 57.6554 19.679 57.5811 20.0861 57.6607C20.0861 57.7137 20.0861 57.772 20.0861 57.8092C20.2235 57.8463 20.3398 57.8675 20.4508 57.9046C20.5619 57.9417 20.5776 58 20.6358 58C21.4447 58 22.2219 58 23.0572 58C23.0995 58 23.1735 58 23.1735 58C23.2317 57.7561 23.4484 57.9046 23.5542 57.8038C23.6026 57.732 23.6733 57.6779 23.7552 57.65C23.8199 57.6439 23.8803 57.6151 23.9258 57.5685C23.9713 57.5219 23.9989 57.4605 24.0036 57.3955C24.0036 57.3319 24.0776 57.2735 24.1146 57.2098H24.1781C24.1781 56.828 24.1781 56.4515 24.1781 56.0697C24.1781 56.006 24.1781 55.8946 24.2309 55.884C24.4001 55.8416 24.3631 55.7091 24.3631 55.5977C24.3631 55.1152 24.3631 54.6273 24.3631 54.1447C24.3674 54.0696 24.3854 53.9958 24.416 53.9272C24.4547 53.8624 24.4849 53.7929 24.5059 53.7204C24.5059 53.2166 24.5059 52.7127 24.5059 52.2036C24.5059 52.1294 24.5376 52.0021 24.5799 51.9862C24.7121 51.9491 24.6962 51.8642 24.6962 51.774C24.6962 51.3073 24.6962 50.8354 24.6962 50.3634C24.6962 50.3051 24.6962 50.2043 24.7437 50.199C24.9129 50.1512 24.8812 50.0188 24.8865 49.9074C24.8865 49.4354 24.8865 48.9633 24.8865 48.4966C24.8881 48.4193 24.9006 48.3425 24.9235 48.2686C24.9722 48.1689 25.0094 48.0639 25.0345 47.9557C25.0345 47.4519 25.0345 46.9482 25.0345 46.439C25.0345 46.386 25.061 46.2852 25.0875 46.2799C25.2461 46.2481 25.2196 46.1315 25.2196 46.036C25.2196 45.5057 25.2196 45.0071 25.2196 44.4927C25.2196 44.4396 25.2196 44.339 25.2671 44.3337C25.431 44.2966 25.4046 44.1746 25.4046 44.0685C25.4046 43.5382 25.4046 42.9707 25.4311 42.4245C25.4367 42.3484 25.4528 42.2735 25.4787 42.2018C25.4787 42.1222 25.5738 42.0426 25.5738 41.9577C25.5738 41.4645 25.5738 40.9714 25.5738 40.4835C25.5738 40.3456 25.5738 40.2237 25.7799 40.2184V39.2531H27.1017C27.1017 39.1736 27.1334 39.1152 27.1493 39.0515H27.2868C27.336 39.0569 27.3856 39.0569 27.4348 39.0515C27.5039 39.0379 27.5669 39.0031 27.6153 38.9517C27.6636 38.9004 27.6948 38.8352 27.7045 38.7653C27.7045 38.516 27.7045 38.2614 27.7045 38.0068C27.6958 37.9628 27.6815 37.92 27.6621 37.8796C27.6251 37.8053 27.5564 37.7364 27.5564 37.6675C27.5564 37.3493 27.5564 37.0364 27.5299 36.7182C27.5299 36.6598 27.5036 36.559 27.4772 36.5537C27.308 36.5219 27.3503 36.3946 27.3397 36.2886C27.3291 36.1825 27.3397 36.0553 27.3397 35.9439L27.1228 35.9068V35.5727C26.8374 35.5727 27.0119 35.3182 26.9326 35.1856L26.7422 35.1431V34.7719L26.5361 34.7295V34.3901C26.2506 34.3901 26.4197 34.1356 26.3404 33.9977H26.166C26.166 33.8598 26.166 33.7589 26.1396 33.6423L26.2453 33.6635ZM49.883 17.0008C49.2592 17.0008 48.6353 17.0008 48.0061 17.0008C47.9691 17.2447 47.7788 17.2022 47.6202 17.2075C47.4616 17.2128 47.3717 17.2076 47.3823 17.3614L46.9964 17.3879C46.9964 17.4621 46.9964 17.5204 46.9699 17.5628C46.8325 17.6318 46.6157 17.5205 46.6104 17.775C46.6104 17.775 46.5734 17.775 46.5575 17.775C46.4518 17.844 46.3514 17.9129 46.2351 18.003C46.2351 18.003 46.2351 18.0773 46.2351 18.1303C46.0078 18.1727 45.8915 18.3478 45.8492 18.7243L45.6641 18.7614C45.6641 18.8833 45.664 18.9842 45.6376 19.1008L45.4579 19.1274C45.4579 19.26 45.4579 19.4561 45.4209 19.4827C45.2094 19.5834 45.2834 19.7584 45.2834 19.9016C45.2834 20.4054 45.2834 20.9092 45.2834 21.4183C45.2834 21.5774 45.1724 21.8002 45.4262 21.901C45.4262 21.901 45.4262 21.9646 45.4262 21.9964C45.4262 22.0282 45.4262 22.1661 45.4262 22.2509C45.7381 22.2509 45.5636 22.5001 45.6535 22.6168L45.828 22.654C45.8013 22.7826 45.8263 22.9166 45.8976 23.0269C45.9688 23.1371 46.0807 23.2147 46.2086 23.2427C46.2086 23.301 46.2086 23.354 46.2086 23.407L46.2616 23.37L46.6475 23.7677L46.6157 23.7994H46.9382C46.9355 23.8489 46.9355 23.8985 46.9382 23.9479L47.7206 24.2184C47.7206 24.2502 47.7206 24.3086 47.7524 24.3828C48.0061 24.3828 48.2441 24.3828 48.482 24.3828C48.5613 24.3828 48.6353 24.473 48.7199 24.4942C48.8045 24.5154 49.0212 24.5525 49.0476 24.4942C49.1217 24.3616 49.2274 24.3722 49.3331 24.3669C49.5552 24.3669 49.7773 24.3669 50.0046 24.3669H50.084C50.084 24.3033 50.1103 24.2449 50.1103 24.2396L50.8506 23.9957C50.8506 23.9268 50.877 23.8737 50.8876 23.8207L51.2153 23.773V23.6404L51.6013 23.37L51.9766 22.9881C52.0559 22.8237 52.0929 22.5533 52.2304 22.4578C52.4577 22.3359 52.3784 22.1714 52.4102 22.0176C52.4156 21.9683 52.4156 21.9185 52.4102 21.8691L52.6163 21.8373C52.6163 21.5297 52.6163 21.2327 52.6163 20.941C52.6163 20.8297 52.5688 20.697 52.7221 20.6281C52.7221 20.6281 52.7221 20.5326 52.7221 20.4849C52.6838 20.4137 52.6518 20.3392 52.6269 20.2622C52.6269 20.0342 52.6269 19.8008 52.6269 19.5675C52.6293 19.5481 52.6293 19.5286 52.6269 19.5092L52.4419 19.4667V19.1168L52.2727 19.069C52.1987 18.9364 52.3149 18.7296 52.0823 18.6978C52.0823 18.6978 52.0823 18.6342 52.0823 18.5971C52.0823 18.5599 52.0823 18.4167 52.0823 18.3266L52.0348 18.3636L51.6648 17.9765L51.4373 17.8069C51.395 17.7591 51.2841 17.7378 51.2788 17.7007C51.2788 17.5416 51.1413 17.5682 51.0461 17.547H50.9245V17.4568C50.9222 17.4268 50.9222 17.3967 50.9245 17.3667C50.8527 17.3706 50.7809 17.3579 50.7149 17.3294C50.6488 17.3009 50.5903 17.2573 50.5439 17.2022C50.5439 17.2022 50.4805 17.2022 50.4435 17.2022H50.5597C50.6073 16.9689 50.4382 16.9955 50.3113 16.9955L49.883 17.0008ZM37.7072 17.5576V17.3879C37.5592 17.3455 37.3636 17.4356 37.3054 17.2129C37.3054 17.2129 37.242 17.2129 37.205 17.2129H36.9142L36.9407 17.1387C36.8561 17.0909 36.7768 17.0114 36.6922 17.0114C36.0736 17.0114 35.4498 17.0114 34.8153 17.0114C34.773 17.2659 34.5774 17.197 34.4135 17.2235C34.3276 17.244 34.2442 17.2742 34.165 17.3136V17.372L33.7897 17.3985C33.7897 17.4675 33.7897 17.5204 33.7897 17.5734C33.7897 17.6265 33.6258 17.6159 33.6258 17.6371C33.6258 17.8228 33.4725 17.7857 33.3667 17.8175C33.3292 17.8251 33.2934 17.8394 33.261 17.8598L33.0918 18.0243L33.0443 17.9977C33.0443 18.0561 33.0443 18.1144 33.0443 18.1834H32.8962L32.6372 18.7509H32.468C32.468 18.8728 32.468 18.9842 32.468 19.1008H32.2882C32.2882 19.2334 32.2883 19.4349 32.246 19.4508C32.0345 19.5357 32.1085 19.7 32.1085 19.8273C32.1085 20.3576 32.1085 20.9358 32.1085 21.4926C32.1085 21.6146 32.0239 21.8001 32.2512 21.8426C32.2512 21.8426 32.2512 21.9115 32.2512 21.9433C32.2512 21.9751 32.2512 22.1131 32.2512 22.198L32.4468 22.2456C32.4468 22.3676 32.4468 22.4737 32.4468 22.5798L32.6372 22.6274C32.6372 22.9987 32.7746 23.1578 33.0178 23.2055C33.0178 23.2639 33.0178 23.3276 33.0178 23.3859L33.0706 23.3434L33.4513 23.7199L33.4196 23.7571L33.7421 23.7941C33.7421 23.8631 33.7421 23.9161 33.7685 23.9692C33.795 24.0222 33.9589 23.9692 33.9695 24.0116C34.0435 24.1813 34.1862 24.1389 34.3078 24.1548C34.4294 24.1707 34.4611 24.1548 34.551 24.1548C34.551 24.2185 34.551 24.2767 34.5774 24.351H36.8667C36.8667 24.2661 36.8983 24.2079 36.9089 24.1601C37.0561 24.1578 37.2029 24.1436 37.3478 24.1177C37.468 24.0597 37.5814 23.9886 37.6861 23.9056C37.6861 23.6457 37.9399 23.8313 38.051 23.7306C38.051 23.6775 38.051 23.6245 38.051 23.6086L38.4475 23.3381H38.4157L38.807 22.9616C38.8757 22.7972 38.955 22.6169 39.0343 22.4313L39.2035 22.3994C39.2035 22.2138 39.2035 22.0441 39.2405 21.8691H39.4308V19.5251L39.2194 19.4827C39.2576 19.3325 39.2426 19.1738 39.177 19.0335C39.1114 18.8932 38.9994 18.7802 38.8599 18.7137C38.8599 18.5917 38.8599 18.475 38.8334 18.3583L38.7858 18.3955C38.6642 18.2629 38.5373 18.1356 38.4157 18.0083L38.0298 17.7379C38.0298 17.5151 37.8078 17.6212 37.665 17.5628L37.7072 17.5576ZM18.5263 19.5092C18.3096 19.6153 18.3889 19.7956 18.3836 19.9441C18.3836 20.4744 18.3836 21.0365 18.3836 21.588C18.3836 21.7047 18.2937 21.8798 18.521 21.9116C18.5295 21.9446 18.5295 21.9793 18.521 22.0123C18.521 22.0919 18.521 22.1767 18.521 22.2669L18.7114 22.304C18.7114 22.426 18.7115 22.5373 18.7485 22.6434L18.9334 22.6805C18.9334 22.8131 18.9334 22.9297 18.9334 23.0252L19.2719 23.285L19.6525 23.6615L19.6948 23.6245C19.6948 23.6828 19.6948 23.7411 19.6948 23.7994L20.0331 23.8313C20.0331 23.9055 20.0596 23.9639 20.0649 23.9798L20.8474 24.2449C20.8474 24.2768 20.8474 24.3351 20.8844 24.4041C21.1593 24.4041 21.413 24.4041 21.6932 24.4041C21.7302 24.4041 21.7726 24.3405 21.8096 24.3033C21.8466 24.2662 21.8096 24.2502 21.8096 24.2237H21.651C21.651 24.0964 21.6509 23.9003 21.5769 23.8844C21.4183 23.8313 21.4712 23.7253 21.4606 23.6351C21.45 23.545 21.4606 23.5237 21.4606 23.4707L21.265 23.4282V20.5433L21.4447 20.5061C21.4447 20.363 21.4871 20.2357 21.5188 20.1137C21.5505 19.9917 21.6139 19.9706 21.6351 19.891C21.6562 19.8115 21.6351 19.6682 21.6351 19.5568L21.8201 19.5251C21.8201 19.4084 21.8201 19.3023 21.8571 19.1856L22.0316 19.1538L21.9893 19.1061L22.354 18.7084L22.3964 18.7403L22.444 18.3902C22.4576 18.4012 22.47 18.4136 22.4809 18.4273L22.8827 18.0083L23.3745 17.775C23.3775 17.7167 23.3775 17.6583 23.3745 17.6H23.7181C23.7498 17.2712 23.7498 17.2712 23.1894 17.1969C23.1101 17.1227 23.0255 17.0325 22.9357 17.0325C22.3012 17.0325 21.6614 17.0325 21.0217 17.0325C21.0217 17.2605 20.842 17.2288 20.6993 17.2447C20.6188 17.2527 20.5402 17.2742 20.4667 17.3083C20.4138 17.3083 20.3715 17.3879 20.3187 17.3985C20.2325 17.4069 20.1458 17.4069 20.0596 17.3985C20.0596 17.4622 20.0596 17.5257 20.0596 17.5734C19.9221 17.6477 19.6896 17.531 19.6948 17.7166C19.5151 17.8863 19.3829 18.0189 19.256 18.1462L19.2877 18.1887H19.1238C19.0392 18.3743 18.9599 18.5598 18.8753 18.7614L18.7326 18.7879C18.7326 18.9099 18.7326 19.0107 18.7061 19.1274L18.5263 19.1538C18.5263 19.2864 18.5264 19.4827 18.4947 19.5092H18.5263ZM36.3116 13.8877C36.4913 13.8877 36.4384 13.7499 36.4384 13.6597C36.4384 11.9309 36.4384 10.202 36.4384 8.47313C36.4397 8.46078 36.4397 8.44831 36.4384 8.43597L36.0578 8.14439C35.9732 7.87923 35.6983 8.07544 35.5291 8.0012C35.5291 8.08605 35.4921 8.1496 35.4868 8.18142C35.3652 8.22385 35.2382 8.22913 35.1748 8.29277C35.1114 8.35641 35.122 8.48902 35.1008 8.58978L34.9316 8.63225V13.6491L35.1114 13.6809C35.1431 13.9991 35.1431 13.9992 35.455 14.0946C35.4786 14.107 35.5001 14.123 35.5185 14.1423C35.6507 14.2907 35.7723 14.2907 35.8939 14.1423C35.9234 14.1166 35.9606 14.1018 35.9996 14.0999C36.0895 14.0999 36.1794 14.0999 36.2798 14.0999C36.2798 14.0098 36.3222 13.893 36.3433 13.893L36.3116 13.8877ZM41.3659 11.7717C41.3659 11.8937 41.3658 12.0051 41.3341 12.1112L41.1649 12.1376C41.1649 12.2119 41.1649 12.3339 41.1173 12.3392C40.9217 12.3392 41.0115 12.5195 40.9798 12.615C40.9773 12.6485 40.9773 12.6822 40.9798 12.7157L40.7948 12.7476C40.7948 12.8695 40.7948 12.9809 40.7948 13.0869H40.668C40.5675 13.3097 40.4882 13.49 40.4142 13.665L40.2397 13.6969C40.1763 13.856 40.3295 14.0786 40.0546 14.1263V14.4552L39.8643 14.487C39.8326 14.6461 39.8961 14.8476 39.6529 14.8582V15.4415L39.8379 15.4734C39.8379 15.5423 39.8379 15.5953 39.8379 15.59C40.1287 15.9294 40.4776 15.8129 40.7948 15.8235C40.797 15.8059 40.797 15.788 40.7948 15.7704L41.0274 15.6166H41.001L41.2178 15.3726V15.1075L41.4134 15.065C41.4134 14.9324 41.4134 14.8159 41.4451 14.7628L41.794 14.4233C41.794 14.3438 41.794 14.2377 41.794 14.1316L42.0056 14.0893C41.9421 13.7764 42.1113 13.6066 42.3545 13.4528C42.3545 13.352 42.3545 13.2354 42.3862 13.1188L42.5659 13.0763C42.6293 12.9278 42.4813 12.7157 42.7457 12.6998C42.7457 12.5831 42.7457 12.4824 42.7774 12.3711L42.9572 12.3339C42.9572 12.2597 42.9572 12.196 42.9572 12.1376L43.1263 12.0953C43.1951 11.9521 43.0577 11.7347 43.3167 11.7241C43.3167 11.5968 43.3167 11.4853 43.3167 11.3687C43.6075 11.3687 43.4753 11.1566 43.5123 11.0081H43.322C43.322 10.8702 43.2955 10.7483 43.285 10.6369C43.1672 10.6199 43.053 10.5842 42.9467 10.5308C42.8515 10.4513 42.4179 10.377 42.3545 10.4671L42.1219 10.6792L41.8999 11.0187C41.699 11.0187 41.7677 11.2255 41.7412 11.3793L41.5879 11.4218C41.5879 11.5384 41.5879 11.6391 41.5879 11.7611L41.3975 11.793L41.3659 11.7717ZM29.6765 13.9673C29.6765 14.0787 29.6765 14.19 29.6765 14.2961L29.8826 14.3279V14.6513H29.9302C29.9831 14.7362 30.036 14.8211 30.1047 14.9218C30.3691 14.9218 30.1892 15.1765 30.2844 15.2931L30.4536 15.3249C30.4536 15.4521 30.4536 15.5742 30.4536 15.6431L30.6968 15.887H31.5533V15.8393L31.8177 15.6537V15.2401L32.0609 15.1393C31.7436 15.0492 31.8388 14.8212 31.8018 14.6409H31.6167C31.6167 14.5719 31.6167 14.5188 31.6167 14.4658C31.6141 14.4128 31.6141 14.3597 31.6167 14.3067C31.4634 14.2643 31.4635 14.2643 31.4212 13.9143H31.2467C31.2467 13.8347 31.2466 13.7286 31.2202 13.7233C30.9929 13.6649 31.1093 13.4687 31.0458 13.3308H30.866C30.866 13.2089 30.866 13.0976 30.866 12.9862L30.6652 12.9437L30.7074 12.912C30.6281 12.737 30.5541 12.562 30.4695 12.3817L30.3109 12.3339C30.3109 12.2172 30.2845 12.1164 30.2687 12.005H30.0836C30.0836 11.8672 30.0836 11.7452 30.0836 11.6179H30.0201C29.9792 11.5528 29.9455 11.4835 29.9196 11.4111C29.9196 11.321 29.9196 11.2042 29.7716 11.2096C29.7716 11.2096 29.7347 11.1778 29.7188 11.1566L29.5972 10.9709H29.5602L29.5284 10.5997C29.4015 10.5997 29.2165 10.5997 29.1901 10.5573C29.0791 10.3292 28.8993 10.4247 28.746 10.4247C28.6476 10.4266 28.5532 10.4642 28.4803 10.5305C28.4074 10.5968 28.3609 10.6874 28.3494 10.7854H28.1696V11.5278L28.36 11.5596C28.36 11.7347 28.3231 11.9308 28.5345 12.0103C28.4394 12.2649 28.8094 12.3126 28.7513 12.5407L28.9416 12.5778C28.9416 12.6945 28.9415 12.8006 28.968 12.9173C29.2587 12.9173 29.0632 13.1771 29.1584 13.2938L29.3276 13.3255C29.3276 13.3998 29.3276 13.4635 29.3276 13.5324C29.4756 13.5324 29.5126 13.5908 29.5284 13.7128C29.5504 13.8001 29.5842 13.8839 29.6288 13.962H29.6818" fill="#0E47EF"/>
<g opacity="0.2">
<mask id="mask1" mask-type="alpha" maskUnits="userSpaceOnUse" x="-86" y="-107" width="242" height="437">
<rect x="-86" y="-107" width="242" height="437" rx="18" fill="#0E47EF"/>
</mask>
<g mask="url(#mask1)">
<g opacity="0.5">
</g>
<path opacity="0.6" d="M57 29V15L44 15V29H57Z" fill="white"/>
<path opacity="0.6" d="M30 15V2C33.713 2 37.274 3.36965 39.8995 5.80762C42.525 8.24559 44 11.5522 44 15L30 15Z" fill="white"/>
<path opacity="0.6" d="M30 29V15C33.713 15 37.274 16.475 39.8995 19.1005C42.525 21.726 44 25.287 44 29H30Z" fill="white"/>
<path opacity="0.6" d="M30 15L30 2L18 2V15L30 15Z" fill="white"/>
<path opacity="0.6" d="M18 22C18 20.6155 18.3519 19.2621 19.0112 18.111C19.6705 16.9599 20.6075 16.0626 21.7039 15.5328C22.8003 15.003 24.0067 14.8644 25.1705 15.1345C26.3344 15.4046 27.4035 16.0713 28.2426 17.0503C29.0817 18.0292 29.6532 19.2765 29.8847 20.6344C30.1162 21.9922 29.9974 23.3997 29.5433 24.6788C29.0891 25.9579 28.3201 27.0511 27.3334 27.8203C26.3467 28.5894 25.1867 29 24 29C23.2121 29 22.4319 28.8189 21.7039 28.4672C20.9759 28.1154 20.3145 27.5997 19.7574 26.9497C19.2002 26.2997 18.7582 25.5281 18.4567 24.6788C18.1552 23.8295 18 22.9192 18 22Z" fill="white"/>
<path opacity="0.6" d="M69 8.49999C69 7.21441 69.4105 5.95771 70.1797 4.88879C70.9489 3.81987 72.0421 2.98674 73.3212 2.49477C74.6003 2.0028 76.0078 1.8741 77.3656 2.1249C78.7235 2.37571 79.9708 2.99477 80.9497 3.90381C81.9287 4.81285 82.5954 5.97103 82.8655 7.23191C83.1356 8.49278 82.997 9.79972 82.4672 10.9874C81.9373 12.1752 81.0401 13.1903 79.889 13.9045C78.7378 14.6188 77.3845 15 76 15C74.1435 15 72.363 14.3152 71.0503 13.0962C69.7375 11.8772 69 10.2239 69 8.49999Z" fill="white"/>
<path opacity="0.6" d="M69 22C69 20.6155 69.4105 19.2621 70.1797 18.111C70.9489 16.9599 72.0421 16.0626 73.3212 15.5328C74.6003 15.003 76.0078 14.8644 77.3656 15.1345C78.7235 15.4046 79.9708 16.0713 80.9497 17.0503C81.9287 18.0292 82.5954 19.2765 82.8655 20.6344C83.1356 21.9922 82.997 23.3997 82.4672 24.6788C81.9373 25.9579 81.0401 27.0511 79.889 27.8203C78.7378 28.5894 77.3845 29 76 29C75.0807 29 74.1705 28.8189 73.3212 28.4672C72.4719 28.1154 71.7003 27.5997 71.0503 26.9497C70.4002 26.2997 69.8846 25.5281 69.5328 24.6788C69.1811 23.8295 69 22.9192 69 22Z" fill="white"/>
<path opacity="0.6" d="M57 8.51182C56.9978 7.22524 57.3482 5.96691 58.0066 4.89618C58.6651 3.82545 59.6021 2.99049 60.6989 2.49706C61.7957 2.00362 63.003 1.87389 64.1679 2.12432C65.3328 2.37475 66.4029 2.99406 67.2426 3.90382C68.0824 4.81357 68.6541 5.97284 68.8852 7.23481C69.1164 8.49679 68.9967 9.80469 68.5412 10.9929C68.0857 12.1811 67.315 13.1961 66.3266 13.9095C65.3382 14.6228 64.1767 15.0023 62.9891 15C61.4007 15 59.8773 14.3164 58.7542 13.0996C57.631 11.8829 57 10.2326 57 8.51182Z" fill="white"/>
<path opacity="0.6" d="M69 -4.01094C69.0025 -5.19716 69.4152 -6.35613 70.1859 -7.34138C70.9566 -8.32664 72.0508 -9.09395 73.3301 -9.5464C74.6094 -9.99885 76.0164 -10.1161 77.3735 -9.88337C78.7305 -9.65063 79.9766 -9.07832 80.9543 -8.23877C81.9319 -7.39922 82.5974 -6.33009 82.8664 -5.16651C83.1355 -4.00292 82.9961 -2.79709 82.4659 -1.70137C81.9357 -0.60565 81.0385 0.330773 79.8877 0.989579C78.7368 1.64838 77.3839 2 76 2C75.0797 2 74.1684 1.84445 73.3183 1.54224C72.4682 1.24002 71.6959 0.797091 71.0457 0.23878C70.3956 -0.319531 69.8802 -0.982243 69.5292 -1.71146C69.1782 -2.44068 68.9983 -3.22208 69 -4.01094Z" fill="white"/>
<path opacity="0.6" d="M57 -4C57 -5.18716 57.3522 -6.34763 58.012 -7.33456C58.6717 -8.32149 59.6094 -9.09053 60.7064 -9.54434C61.8034 -9.99814 63.0104 -10.1163 64.1746 -9.8839C65.3388 -9.6515 66.4078 -9.07899 67.2465 -8.23878C68.0852 -7.39858 68.6558 -6.32845 68.886 -5.16384C69.1163 -3.99924 68.9959 -2.79247 68.5401 -1.69631C68.0843 -0.600143 67.3136 0.336171 66.3255 0.994144C65.3373 1.65212 64.1762 2.00215 62.9891 1.99999C62.2017 1.99999 61.422 1.84472 60.6946 1.54306C59.9673 1.2414 59.3066 0.799273 58.7503 0.241977C58.194 -0.315319 57.7531 -0.976823 57.4528 -1.70471C57.1524 -2.4326 56.9986 -3.21259 57 -4Z" fill="white"/>
<path opacity="0.6" d="M57 2V-10L44 -10V2L57 2Z" fill="white"/>
<path opacity="0.6" d="M44 2V-10L30 -10V2L44 2Z" fill="white"/>
<path opacity="0.6" d="M5.00001 47.5C5.00001 46.2139 5.38153 44.9568 6.09629 43.8876C6.81104 42.8184 7.8269 41.9853 9.01531 41.4937C10.2037 41.002 11.5113 40.874 12.7725 41.1258C14.0336 41.3775 15.1918 41.9978 16.1004 42.908C17.009 43.8182 17.6271 44.9775 17.8765 46.2392C18.126 47.5008 17.9956 48.8081 17.5018 49.9956C17.008 51.1831 16.1731 52.1975 15.1026 52.9103C14.0321 53.6231 12.7742 54.0023 11.4882 54C10.6351 54 9.79047 53.8318 9.00252 53.505C8.21457 53.1782 7.49879 52.6992 6.89616 52.0955C6.29352 51.4917 5.81586 50.7751 5.49049 49.9865C5.16513 49.198 4.99845 48.353 5.00001 47.5Z" fill="white"/>
<path opacity="0.6" d="M5 66L5 54C8.44781 54 11.7544 55.2643 14.1924 57.5147C16.6304 59.7652 18 62.8174 18 66H5Z" fill="white"/>
<path opacity="0.6" d="M18 80L18 66H5L5 80H18Z" fill="white"/>
<path opacity="0.6" d="M5 54L5 41H-7L-7 54H5Z" fill="white"/>
<path opacity="0.6" d="M-6.99999 60C-6.99999 58.8128 -6.64781 57.6524 -5.98804 56.6654C-5.32827 55.6785 -4.39055 54.9095 -3.29356 54.4557C-2.19657 54.0019 -0.989613 53.8837 0.17457 54.1161C1.33875 54.3485 2.40783 54.921 3.24651 55.7612C4.08519 56.6014 4.65576 57.6716 4.88604 58.8362C5.11631 60.0008 4.99593 61.2075 4.54013 62.3037C4.08433 63.3998 3.3136 64.3361 2.32547 64.9941C1.33733 65.6521 0.176229 66.0022 -1.01092 66C-1.79834 66 -2.57803 65.8447 -3.30537 65.5431C-4.03271 65.2414 -4.69342 64.7993 -5.2497 64.242C-5.80598 63.6847 -6.2469 63.0231 -6.54724 62.2953C-6.84757 61.5674 -7.00143 60.7874 -6.99999 60Z" fill="white"/>
<path opacity="0.6" d="M-7 80C-7 76.287 -5.73572 72.726 -3.48528 70.1005C-1.23485 67.475 1.8174 66 5 66L5 80H-7Z" fill="white"/>
<path opacity="0.6" d="M5 22.0127V29H18L18 22.0127C18 20.1528 17.3152 18.3691 16.0962 17.054C14.8772 15.7388 13.2239 15 11.5 15C9.77609 15 8.1228 15.7388 6.90381 17.054C5.68482 18.3691 5 20.1528 5 22.0127Z" fill="white"/>
<path opacity="0.6" d="M-7 15L-7 29H5L5 22.0254C5 21.1085 4.84501 20.2005 4.54389 19.3534C4.24278 18.5064 3.80146 17.737 3.24518 17.0892C2.68889 16.4414 2.02858 15.9279 1.30201 15.5781C0.575444 15.2284 -0.203105 15.0492 -0.989089 15.0509L-7 15Z" fill="white"/>
<path opacity="0.6" d="M5 29L5 41C8.44781 41 11.7544 39.7357 14.1924 37.4853C16.6304 35.2348 18 32.1826 18 29L5 29Z" fill="white"/>
<path opacity="0.6" d="M5 41L5 29L-7 29L-7 41H5Z" fill="white"/>
<path opacity="0.6" d="M83 41V29L69 29V41H83Z" fill="white"/>
<path opacity="0.6" d="M69 41H83V54C79.287 54 75.726 52.6304 73.1005 50.1924C70.475 47.7544 69 44.4478 69 41Z" fill="white"/>
<path opacity="0.6" d="M57 41C57 37.5522 58.2643 34.2456 60.5147 31.8076C62.7652 29.3696 65.8174 28 69 28V41H57Z" fill="white"/>
<path opacity="0.6" d="M69 54V41H57V54H69Z" fill="white"/>
<path opacity="0.6" d="M83 66V54H69V66H83Z" fill="white"/>
<path opacity="0.6" d="M83 80V66H69V80H83Z" fill="white"/>
<path opacity="0.6" d="M69 66V54H57V66H69Z" fill="white"/>
<path opacity="0.6" d="M57 80V66C60.1826 66 63.2348 67.475 65.4853 70.1005C67.7357 72.726 69 76.287 69 80H57Z" fill="white"/>
<path opacity="0.6" d="M44 35.0109C43.9977 33.8233 44.3772 32.6618 45.0905 31.6734C45.8038 30.685 46.8189 29.9143 48.0071 29.4588C49.1953 29.0033 50.5032 28.8836 51.7652 29.1148C53.0272 29.3459 54.1864 29.9176 55.0962 30.7574C56.0059 31.5971 56.6253 32.6672 56.8757 33.8321C57.1261 34.997 56.9964 36.2043 56.5029 37.3011C56.0095 38.3979 55.1746 39.3349 54.1038 39.9933C53.0331 40.6518 51.7748 41.0022 50.4882 41C48.7684 40.9971 47.1199 40.3652 45.9038 39.2426C44.6877 38.1201 44.0031 36.5984 44 35.0109Z" fill="white"/>
<path opacity="0.6" d="M44 66H57V80C53.5522 80 50.2456 78.525 47.8076 75.8995C45.3696 73.274 44 69.713 44 66Z" fill="white"/>
<path opacity="0.6" d="M30 80V66H44C44 69.713 42.525 73.274 39.8995 75.8995C37.274 78.525 33.713 80 30 80Z" fill="white"/>
<path opacity="0.6" d="M30 80L30 66H18V80H30Z" fill="white"/>
<path opacity="0.6" d="M44 47.5C44 46.2139 44.3815 44.9568 45.0963 43.8876C45.811 42.8184 46.8269 41.9853 48.0153 41.4937C49.2037 41.002 50.5112 40.874 51.7724 41.1258C53.0336 41.3775 54.1918 41.9978 55.1004 42.908C56.0089 43.8182 56.6271 44.9775 56.8765 46.2392C57.126 47.5008 56.9956 48.8081 56.5018 49.9956C56.008 51.1831 55.1731 52.1975 54.1026 52.9103C53.0321 53.6231 51.7742 54.0023 50.4882 54C48.7663 53.9969 47.116 53.3107 45.8996 52.092C44.6832 50.8734 44 49.2219 44 47.5Z" fill="white"/>
<path opacity="0.6" d="M30 66L30 54H18V66H30Z" fill="white"/>
<g opacity="0.4">
<path opacity="0.5" d="M56.9727 66.9348V53.9993H44.0372V66.9348H56.9727Z" fill="white"/>
<path opacity="0.5" d="M44.0352 41.076V28.1406L31.0997 28.1406V41.076H44.0352Z" fill="white"/>
<path opacity="0.5" d="M31.1133 41.076L31.1133 28.1406L18.1778 28.1406V41.076H31.1133Z" fill="white"/>
<path opacity="0.5" d="M44.0352 54.0116V41.0761H31.0997V54.0116H44.0352Z" fill="white"/>
<path opacity="0.5" d="M31.1133 54.0116L31.1133 41.0761H18.1778V54.0116H31.1133Z" fill="white"/>
<path opacity="0.5" d="M44.0352 66.9348V53.9993H31.0997V66.9348H44.0352Z" fill="white"/>
<path opacity="0.5" d="M18.1777 15.205L18.1777 2.26952L5.24226 2.26952L5.24226 15.205L18.1777 15.205Z" fill="white"/>
<path opacity="0.5" d="M-7.74023 8.75493C-7.74256 7.47357 -7.36457 6.22034 -6.65413 5.15395C-5.9437 4.08756 -4.93278 3.25599 -3.7494 2.76456C-2.56602 2.27312 -1.26341 2.14392 -0.00655222 2.39333C1.25031 2.64274 2.40488 3.25955 3.31095 4.16561C4.21701 5.07167 4.8338 6.22624 5.08322 7.4831C5.33263 8.73996 5.20343 10.0426 4.71199 11.2259C4.22056 12.4093 3.38899 13.4202 2.3226 14.1307C1.25621 14.8411 0.00298214 15.2191 -1.27838 15.2168C-2.99217 15.2168 -4.63577 14.536 -5.8476 13.3241C-7.05943 12.1123 -7.74023 10.4687 -7.74023 8.75493Z" fill="white"/>
<path opacity="0.5" d="M18.1777 2.28176L18.1777 -10.6537L5.24226 -10.6537L5.24226 2.28176L18.1777 2.28176Z" fill="white"/>
</g>
</g>
</g>
</g>
<defs>
<linearGradient id="paint0_linear" x1="720" y1="0" x2="720" y2="1711" gradientUnits="userSpaceOnUse">
<stop stop-color="#F8EEF6"/>
<stop offset="1" stop-color="#D9E5F2"/>
</linearGradient>
<clipPath id="clip0">
<rect width="1440" height="1711" fill="white" transform="translate(-1139 -712)"/>
</clipPath>
</defs>
</svg>
