<svg width="70" height="70" viewBox="0 0 70 70" fill="none" xmlns="http://www.w3.org/2000/svg">
<g clip-path="url(#clip0)">
<rect width="1440" height="1711" transform="translate(-232 -712)" fill="url(#paint0_linear)"/>
<rect x="-86" y="-106" width="242" height="437" rx="18" fill="#0E47EF"/>
<circle cx="35" cy="35" r="64" fill="white"/>
<circle cx="35" cy="35" r="64" fill="white"/>
<mask id="mask0" mask-type="alpha" maskUnits="userSpaceOnUse" x="-29" y="-29" width="128" height="128">
<circle cx="35" cy="35" r="64" fill="white"/>
</mask>
<g mask="url(#mask0)">
</g>
<path d="M37.211 29.8045C36.4445 30.0564 35.762 30.2629 35.0894 30.5098C34.2248 30.7799 33.3817 31.1167 32.5673 31.5174C32.1546 31.7538 31.8064 32.0914 31.5542 32.4997C31.302 32.9079 31.1539 33.3738 31.1232 33.8551C31.0136 34.7456 31.2026 35.6477 31.6595 36.415C32.1164 37.1823 32.8145 37.7698 33.6404 38.082C34.5652 38.4095 35.4109 38.1627 36.2813 37.8C37.5665 37.2405 38.8825 36.7577 40.2227 36.354C41.5854 35.9664 43.0183 35.9094 44.4065 36.1877C44.6226 36.2344 44.8433 36.2565 45.0643 36.2533C45.7432 36.2987 46.3804 36.6026 46.8495 37.1047C47.1314 37.3515 47.0226 37.6085 46.8495 37.8553C45.8209 39.2358 44.8022 40.6213 43.7735 42.0067C41.6635 44.8549 39.5535 47.7099 37.4434 50.5715C37.3568 50.7064 37.2364 50.8153 37.0947 50.887C36.9531 50.9587 36.7952 50.9907 36.6373 50.9796H13.2211C12.9632 50.972 12.7128 50.8899 12.499 50.7428C11.6781 50.1433 10.877 49.5135 10.0659 48.8938C9.60105 48.5361 9.57135 48.39 9.91258 47.9467C11.8347 45.3437 13.7618 42.744 15.6937 40.1477C17.2911 37.9864 18.9033 35.8351 20.5006 33.6787L27.9187 23.6479C28.3786 23.0232 28.4577 23.0081 29.066 23.4716C31.6474 25.4465 34.2256 27.4248 36.8005 29.4065C36.934 29.5072 37.0478 29.6332 37.2456 29.8146L37.211 29.8045ZM36.6126 26.0007C37.2535 25.4935 37.9994 25.1415 38.7936 24.9713C39.5879 24.8011 40.4097 24.8171 41.1969 25.0183C42.5025 25.3105 43.096 26.6355 42.186 27.5373C40.8256 28.9523 39.1665 30.0326 37.3346 30.6962C36.2219 31.0791 35.0993 31.4267 33.9866 31.7995C32.8739 32.1724 32.0085 32.8929 31.9244 34.2683C31.9595 34.863 32.118 35.4433 32.3893 35.9711C32.6455 36.54 33.1004 36.9914 33.6653 37.2373C34.2303 37.4831 34.8649 37.5058 35.4455 37.3011C36.3703 36.888 37.2605 36.3944 38.1951 36.0215C40.0125 35.3217 41.9626 35.0529 43.8972 35.2356C44.4375 35.2829 44.9816 35.2542 45.5142 35.15C47.342 34.6957 49.0622 33.8734 50.5734 32.7316C51.6014 31.9889 52.5917 31.1936 53.5406 30.3486C55.1292 28.9776 56.5312 27.3967 57.7095 25.6481C57.7972 25.5544 57.8461 25.4299 57.8461 25.3005C57.8461 25.171 57.7972 25.0466 57.7095 24.9529C55.4017 22.0308 53.0938 19.1019 50.786 16.1663C49.9898 15.1587 49.9898 15.1587 48.8079 15.6625C47.6208 16.2271 46.3114 16.4718 45.0049 16.373C43.2345 16.252 41.4492 16.2269 39.6738 16.2521C38.3781 16.2521 37.0923 16.4435 36.0983 17.4712C34.9559 18.6501 33.774 19.7888 32.6612 20.9979C31.9293 21.7889 31.2914 22.6706 30.5743 23.5674L35.5197 27.361C35.827 26.8537 36.1922 26.3852 36.6076 25.9654L36.6126 26.0007ZM24.9316 54.995H46.1967C46.5775 54.995 46.9583 54.995 47.3441 54.995C47.7298 54.995 47.8831 54.8488 47.8682 54.4609C47.8682 53.9571 47.8682 53.413 47.8682 52.8891C47.8682 52.3651 47.7842 52.2694 47.2501 52.2644H2.49454C2.17309 52.2644 2 52.4105 2 52.7682C2 53.272 2 53.7757 2 54.2493C2 54.9799 2 55 2.7418 55H24.9218L24.9316 54.995ZM64 21.7435C63.9181 21.887 63.8184 22.0191 63.7033 22.1365C62.4373 23.1794 61.1614 24.2122 59.8954 25.2551C59.5245 25.5574 59.292 25.366 59.0546 25.0637C57.3304 22.8503 55.6011 20.6418 53.867 18.4385L50.6475 14.3426C50.0936 13.6423 50.0887 13.6373 50.7662 13.0831L54.228 10.2516C54.6681 9.89894 54.7967 9.90909 55.128 10.3323L63.7132 21.2397C63.8195 21.4002 63.9137 21.5686 63.995 21.7435" fill="#0E47EF"/>
<g opacity="0.2">
<mask id="mask1" mask-type="alpha" maskUnits="userSpaceOnUse" x="-85" y="-106" width="242" height="437">
<rect x="-85" y="-106" width="242" height="437" rx="18" fill="#0E47EF"/>
</mask>
<g mask="url(#mask1)">
<g opacity="0.5">
</g>
<path opacity="0.6" d="M58 30V16L45 16V30H58Z" fill="white"/>
<path opacity="0.6" d="M31 16V3C34.713 3 38.274 4.36965 40.8995 6.80762C43.525 9.24559 45 12.5522 45 16L31 16Z" fill="white"/>
<path opacity="0.6" d="M31 30V16C34.713 16 38.274 17.475 40.8995 20.1005C43.525 22.726 45 26.287 45 30H31Z" fill="white"/>
<path opacity="0.6" d="M31 16L31 3L19 3V16H31Z" fill="white"/>
<path opacity="0.6" d="M19 23C19 21.6155 19.3519 20.2621 20.0112 19.111C20.6705 17.9599 21.6075 17.0626 22.7039 16.5328C23.8003 16.003 25.0067 15.8644 26.1705 16.1345C27.3344 16.4046 28.4035 17.0713 29.2426 18.0503C30.0817 19.0292 30.6532 20.2765 30.8847 21.6344C31.1162 22.9922 30.9974 24.3997 30.5433 25.6788C30.0891 26.9579 29.3201 28.0511 28.3334 28.8203C27.3467 29.5894 26.1867 30 25 30C24.2121 30 23.4319 29.8189 22.7039 29.4672C21.9759 29.1154 21.3145 28.5997 20.7574 27.9497C20.2002 27.2997 19.7582 26.5281 19.4567 25.6788C19.1552 24.8295 19 23.9192 19 23Z" fill="white"/>
<path opacity="0.6" d="M58 9.51182C57.9978 8.22524 58.3482 6.96691 59.0066 5.89618C59.6651 4.82545 60.6021 3.99049 61.6989 3.49706C62.7957 3.00362 64.003 2.87389 65.1679 3.12432C66.3328 3.37475 67.4029 3.99406 68.2426 4.90382C69.0824 5.81357 69.6541 6.97284 69.8852 8.23481C70.1164 9.49679 69.9967 10.8047 69.5412 11.9929C69.0857 13.1811 68.315 14.1961 67.3266 14.9095C66.3382 15.6228 65.1767 16.0023 63.9891 16C62.4007 16 60.8773 15.3164 59.7542 14.0996C58.631 12.8829 58 11.2326 58 9.51182Z" fill="white"/>
<path opacity="0.6" d="M70 -3.01094C70.0025 -4.19716 70.4152 -5.35613 71.1859 -6.34138C71.9566 -7.32664 73.0508 -8.09395 74.3301 -8.5464C75.6094 -8.99885 77.0164 -9.11612 78.3735 -8.88337C79.7305 -8.65063 80.9766 -8.07832 81.9543 -7.23877C82.9319 -6.39922 83.5974 -5.33009 83.8664 -4.16651C84.1355 -3.00292 83.9961 -1.79709 83.4659 -0.701369C82.9357 0.39435 82.0385 1.33077 80.8877 1.98958C79.7368 2.64838 78.3839 3 77 3C76.0797 3 75.1684 2.84445 74.3183 2.54224C73.4682 2.24002 72.6959 1.79709 72.0457 1.23878C71.3956 0.680469 70.8802 0.0177574 70.5292 -0.71146C70.1782 -1.44068 69.9983 -2.22208 70 -3.01094Z" fill="white"/>
<path opacity="0.6" d="M58 -3C58 -4.18716 58.3522 -5.34763 59.012 -6.33456C59.6717 -7.32149 60.6094 -8.09053 61.7064 -8.54434C62.8034 -8.99814 64.0104 -9.1163 65.1746 -8.8839C66.3388 -8.6515 67.4078 -8.07899 68.2465 -7.23878C69.0852 -6.39858 69.6558 -5.32845 69.886 -4.16384C70.1163 -2.99924 69.9959 -1.79247 69.5401 -0.696309C69.0843 0.399857 68.3136 1.33617 67.3255 1.99414C66.3373 2.65212 65.1762 3.00215 63.9891 2.99999C63.2017 2.99999 62.422 2.84472 61.6946 2.54306C60.9673 2.2414 60.3066 1.79927 59.7503 1.24198C59.194 0.684681 58.7531 0.0231771 58.4528 -0.704714C58.1524 -1.4326 57.9986 -2.21259 58 -3Z" fill="white"/>
<path opacity="0.6" d="M58 3V-9L45 -9V3L58 3Z" fill="white"/>
<path opacity="0.6" d="M45 3V-9L31 -9V3L45 3Z" fill="white"/>
<path opacity="0.6" d="M6.00001 48.5C6.00001 47.2139 6.38153 45.9568 7.09629 44.8876C7.81104 43.8184 8.8269 42.9853 10.0153 42.4937C11.2037 42.002 12.5113 41.874 13.7725 42.1258C15.0336 42.3775 16.1918 42.9978 17.1004 43.908C18.009 44.8182 18.6271 45.9775 18.8765 47.2392C19.126 48.5008 18.9956 49.8081 18.5018 50.9956C18.008 52.1831 17.1731 53.1975 16.1026 53.9103C15.0321 54.6231 13.7742 55.0023 12.4882 55C11.6351 55 10.7905 54.8318 10.0025 54.505C9.21457 54.1782 8.49879 53.6992 7.89616 53.0955C7.29352 52.4917 6.81586 51.7751 6.49049 50.9865C6.16513 50.198 5.99845 49.353 6.00001 48.5Z" fill="white"/>
<path opacity="0.6" d="M6 67L6 55C9.44781 55 12.7544 56.2643 15.1924 58.5147C17.6304 60.7652 19 63.8174 19 67H6Z" fill="white"/>
<path opacity="0.6" d="M19 81L19 67H6L6 81H19Z" fill="white"/>
<path opacity="0.6" d="M6 55L6 42H-6L-6 55H6Z" fill="white"/>
<path opacity="0.6" d="M-5.99999 61C-5.99999 59.8128 -5.64781 58.6524 -4.98804 57.6654C-4.32827 56.6785 -3.39055 55.9095 -2.29356 55.4557C-1.19657 55.0019 0.0103874 54.8837 1.17457 55.1161C2.33875 55.3485 3.40783 55.921 4.24651 56.7612C5.08519 57.6014 5.65576 58.6716 5.88604 59.8362C6.11631 61.0008 5.99593 62.2075 5.54013 63.3037C5.08433 64.3998 4.3136 65.3361 3.32547 65.9941C2.33733 66.6521 1.17623 67.0022 -0.0109205 67C-0.798337 67 -1.57803 66.8447 -2.30537 66.5431C-3.03271 66.2414 -3.69342 65.7993 -4.2497 65.242C-4.80598 64.6847 -5.2469 64.0231 -5.54724 63.2953C-5.84757 62.5674 -6.00143 61.7874 -5.99999 61Z" fill="white"/>
<path opacity="0.6" d="M-6 81C-6 77.287 -4.73572 73.726 -2.48528 71.1005C-0.234846 68.475 2.8174 67 6 67L6 81H-6Z" fill="white"/>
<path opacity="0.6" d="M6 23.0127V30H19L19 23.0127C19 21.1528 18.3152 19.3691 17.0962 18.054C15.8772 16.7388 14.2239 16 12.5 16C10.7761 16 9.1228 16.7388 7.90381 18.054C6.68482 19.3691 6 21.1528 6 23.0127Z" fill="white"/>
<path opacity="0.6" d="M-6 16L-6 30H6L6 23.0254C6 22.1085 5.84501 21.2005 5.54389 20.3534C5.24278 19.5064 4.80146 18.737 4.24518 18.0892C3.68889 17.4414 3.02858 16.9279 2.30201 16.5781C1.57544 16.2284 0.796895 16.0492 0.0109115 16.0509L-6 16Z" fill="white"/>
<path opacity="0.6" d="M6 30L6 42C9.44781 42 12.7544 40.7357 15.1924 38.4853C17.6304 36.2348 19 33.1826 19 30L6 30Z" fill="white"/>
<path opacity="0.6" d="M6 42L6 30L-6 30L-6 42H6Z" fill="white"/>
<path opacity="0.6" d="M58 42C58 38.5522 59.2643 35.2456 61.5147 32.8076C63.7652 30.3696 66.8174 29 70 29V42H58Z" fill="white"/>
<path opacity="0.6" d="M70 55V42H58V55H70Z" fill="white"/>
<path opacity="0.6" d="M70 67V55H58V67H70Z" fill="white"/>
<path opacity="0.6" d="M58 81V67C61.1826 67 64.2348 68.475 66.4853 71.1005C68.7357 73.726 70 77.287 70 81H58Z" fill="white"/>
<path opacity="0.6" d="M45 36.0109C44.9977 34.8233 45.3772 33.6618 46.0905 32.6734C46.8038 31.685 47.8189 30.9143 49.0071 30.4588C50.1953 30.0033 51.5032 29.8836 52.7652 30.1148C54.0272 30.3459 55.1864 30.9176 56.0962 31.7574C57.0059 32.5971 57.6253 33.6672 57.8757 34.8321C58.1261 35.997 57.9964 37.2043 57.5029 38.3011C57.0095 39.3979 56.1746 40.3349 55.1038 40.9933C54.0331 41.6518 52.7748 42.0022 51.4882 42C49.7684 41.9971 48.1199 41.3652 46.9038 40.2426C45.6877 39.1201 45.0031 37.5984 45 36.0109Z" fill="white"/>
<path opacity="0.6" d="M45 67H58V81C54.5522 81 51.2456 79.525 48.8076 76.8995C46.3696 74.274 45 70.713 45 67Z" fill="white"/>
<path opacity="0.6" d="M31 81V67H45C45 70.713 43.525 74.274 40.8995 76.8995C38.274 79.525 34.713 81 31 81Z" fill="white"/>
<path opacity="0.6" d="M31 81L31 67H19V81H31Z" fill="white"/>
<path opacity="0.6" d="M45 48.5C45 47.2139 45.3815 45.9568 46.0963 44.8876C46.811 43.8184 47.8269 42.9853 49.0153 42.4937C50.2037 42.002 51.5112 41.874 52.7724 42.1258C54.0336 42.3775 55.1918 42.9978 56.1004 43.908C57.0089 44.8182 57.6271 45.9775 57.8765 47.2392C58.126 48.5008 57.9956 49.8081 57.5018 50.9956C57.008 52.1831 56.1731 53.1975 55.1026 53.9103C54.0321 54.6231 52.7742 55.0023 51.4882 55C49.7663 54.9969 48.116 54.3107 46.8996 53.092C45.6832 51.8734 45 50.2219 45 48.5Z" fill="white"/>
<path opacity="0.6" d="M31 67L31 55H19V67H31Z" fill="white"/>
<g opacity="0.4">
<path opacity="0.5" d="M57.9727 67.9348V54.9993H45.0372V67.9348H57.9727Z" fill="white"/>
<path opacity="0.5" d="M45.0352 42.076V29.1406L32.0997 29.1406V42.076H45.0352Z" fill="white"/>
<path opacity="0.5" d="M32.1133 42.076V29.1406L19.1778 29.1406V42.076H32.1133Z" fill="white"/>
<path opacity="0.5" d="M45.0352 55.0116V42.0761H32.0997V55.0116H45.0352Z" fill="white"/>
<path opacity="0.5" d="M32.1133 55.0116V42.0761H19.1778V55.0116H32.1133Z" fill="white"/>
<path opacity="0.5" d="M45.0352 67.9348V54.9993H32.0997V67.9348H45.0352Z" fill="white"/>
<path opacity="0.5" d="M19.1777 16.205L19.1777 3.26952L6.24226 3.26952L6.24226 16.205H19.1777Z" fill="white"/>
<path opacity="0.5" d="M-6.74023 9.75493C-6.74256 8.47357 -6.36457 7.22034 -5.65413 6.15395C-4.9437 5.08756 -3.93278 4.25599 -2.7494 3.76456C-1.56602 3.27312 -0.263412 3.14392 0.993448 3.39333C2.25031 3.64274 3.40488 4.25955 4.31095 5.16561C5.21701 6.07167 5.8338 7.22624 6.08322 8.4831C6.33263 9.73996 6.20343 11.0426 5.71199 12.2259C5.22056 13.4093 4.38899 14.4202 3.3226 15.1307C2.25621 15.8411 1.00298 16.2191 -0.278382 16.2168C-1.99217 16.2168 -3.63577 15.536 -4.8476 14.3241C-6.05943 13.1123 -6.74023 11.4687 -6.74023 9.75493Z" fill="white"/>
<path opacity="0.5" d="M19.1777 3.28176L19.1777 -9.65371L6.24226 -9.65371L6.24226 3.28176L19.1777 3.28176Z" fill="white"/>
</g>
<g opacity="0.5">
</g>
<path opacity="0.6" d="M58 30V16L45 16V30H58Z" fill="white"/>
<path opacity="0.6" d="M31 16V3C34.713 3 38.274 4.36965 40.8995 6.80762C43.525 9.24559 45 12.5522 45 16L31 16Z" fill="white"/>
<path opacity="0.6" d="M31 30V16C34.713 16 38.274 17.475 40.8995 20.1005C43.525 22.726 45 26.287 45 30H31Z" fill="white"/>
<path opacity="0.6" d="M31 16L31 3L19 3V16H31Z" fill="white"/>
<path opacity="0.6" d="M19 23C19 21.6155 19.3519 20.2621 20.0112 19.111C20.6705 17.9599 21.6075 17.0626 22.7039 16.5328C23.8003 16.003 25.0067 15.8644 26.1705 16.1345C27.3344 16.4046 28.4035 17.0713 29.2426 18.0503C30.0817 19.0292 30.6532 20.2765 30.8847 21.6344C31.1162 22.9922 30.9974 24.3997 30.5433 25.6788C30.0891 26.9579 29.3201 28.0511 28.3334 28.8203C27.3467 29.5894 26.1867 30 25 30C24.2121 30 23.4319 29.8189 22.7039 29.4672C21.9759 29.1154 21.3145 28.5997 20.7574 27.9497C20.2002 27.2997 19.7582 26.5281 19.4567 25.6788C19.1552 24.8295 19 23.9192 19 23Z" fill="white"/>
<path opacity="0.6" d="M58 9.51182C57.9978 8.22524 58.3482 6.96691 59.0066 5.89618C59.6651 4.82545 60.6021 3.99049 61.6989 3.49706C62.7957 3.00362 64.003 2.87389 65.1679 3.12432C66.3328 3.37475 67.4029 3.99406 68.2426 4.90382C69.0824 5.81357 69.6541 6.97284 69.8852 8.23481C70.1164 9.49679 69.9967 10.8047 69.5412 11.9929C69.0857 13.1811 68.315 14.1961 67.3266 14.9095C66.3382 15.6228 65.1767 16.0023 63.9891 16C62.4007 16 60.8773 15.3164 59.7542 14.0996C58.631 12.8829 58 11.2326 58 9.51182Z" fill="white"/>
<path opacity="0.6" d="M70 -3.01094C70.0025 -4.19716 70.4152 -5.35613 71.1859 -6.34138C71.9566 -7.32664 73.0508 -8.09395 74.3301 -8.5464C75.6094 -8.99885 77.0164 -9.11612 78.3735 -8.88337C79.7305 -8.65063 80.9766 -8.07832 81.9543 -7.23877C82.9319 -6.39922 83.5974 -5.33009 83.8664 -4.16651C84.1355 -3.00292 83.9961 -1.79709 83.4659 -0.701369C82.9357 0.39435 82.0385 1.33077 80.8877 1.98958C79.7368 2.64838 78.3839 3 77 3C76.0797 3 75.1684 2.84445 74.3183 2.54224C73.4682 2.24002 72.6959 1.79709 72.0457 1.23878C71.3956 0.680469 70.8802 0.0177574 70.5292 -0.71146C70.1782 -1.44068 69.9983 -2.22208 70 -3.01094Z" fill="white"/>
<path opacity="0.6" d="M58 -3C58 -4.18716 58.3522 -5.34763 59.012 -6.33456C59.6717 -7.32149 60.6094 -8.09053 61.7064 -8.54434C62.8034 -8.99814 64.0104 -9.1163 65.1746 -8.8839C66.3388 -8.6515 67.4078 -8.07899 68.2465 -7.23878C69.0852 -6.39858 69.6558 -5.32845 69.886 -4.16384C70.1163 -2.99924 69.9959 -1.79247 69.5401 -0.696309C69.0843 0.399857 68.3136 1.33617 67.3255 1.99414C66.3373 2.65212 65.1762 3.00215 63.9891 2.99999C63.2017 2.99999 62.422 2.84472 61.6946 2.54306C60.9673 2.2414 60.3066 1.79927 59.7503 1.24198C59.194 0.684681 58.7531 0.0231771 58.4528 -0.704714C58.1524 -1.4326 57.9986 -2.21259 58 -3Z" fill="white"/>
<path opacity="0.6" d="M58 3V-9L45 -9V3L58 3Z" fill="white"/>
<path opacity="0.6" d="M45 3V-9L31 -9V3L45 3Z" fill="white"/>
<path opacity="0.6" d="M6.00001 48.5C6.00001 47.2139 6.38153 45.9568 7.09629 44.8876C7.81104 43.8184 8.8269 42.9853 10.0153 42.4937C11.2037 42.002 12.5113 41.874 13.7725 42.1258C15.0336 42.3775 16.1918 42.9978 17.1004 43.908C18.009 44.8182 18.6271 45.9775 18.8765 47.2392C19.126 48.5008 18.9956 49.8081 18.5018 50.9956C18.008 52.1831 17.1731 53.1975 16.1026 53.9103C15.0321 54.6231 13.7742 55.0023 12.4882 55C11.6351 55 10.7905 54.8318 10.0025 54.505C9.21457 54.1782 8.49879 53.6992 7.89616 53.0955C7.29352 52.4917 6.81586 51.7751 6.49049 50.9865C6.16513 50.198 5.99845 49.353 6.00001 48.5Z" fill="white"/>
<path opacity="0.6" d="M6 67L6 55C9.44781 55 12.7544 56.2643 15.1924 58.5147C17.6304 60.7652 19 63.8174 19 67H6Z" fill="white"/>
<path opacity="0.6" d="M19 81L19 67H6L6 81H19Z" fill="white"/>
<path opacity="0.6" d="M6 55L6 42H-6L-6 55H6Z" fill="white"/>
<path opacity="0.6" d="M-5.99999 61C-5.99999 59.8128 -5.64781 58.6524 -4.98804 57.6654C-4.32827 56.6785 -3.39055 55.9095 -2.29356 55.4557C-1.19657 55.0019 0.0103874 54.8837 1.17457 55.1161C2.33875 55.3485 3.40783 55.921 4.24651 56.7612C5.08519 57.6014 5.65576 58.6716 5.88604 59.8362C6.11631 61.0008 5.99593 62.2075 5.54013 63.3037C5.08433 64.3998 4.3136 65.3361 3.32547 65.9941C2.33733 66.6521 1.17623 67.0022 -0.0109205 67C-0.798337 67 -1.57803 66.8447 -2.30537 66.5431C-3.03271 66.2414 -3.69342 65.7993 -4.2497 65.242C-4.80598 64.6847 -5.2469 64.0231 -5.54724 63.2953C-5.84757 62.5674 -6.00143 61.7874 -5.99999 61Z" fill="white"/>
<path opacity="0.6" d="M-6 81C-6 77.287 -4.73572 73.726 -2.48528 71.1005C-0.234846 68.475 2.8174 67 6 67L6 81H-6Z" fill="white"/>
<path opacity="0.6" d="M6 23.0127V30H19L19 23.0127C19 21.1528 18.3152 19.3691 17.0962 18.054C15.8772 16.7388 14.2239 16 12.5 16C10.7761 16 9.1228 16.7388 7.90381 18.054C6.68482 19.3691 6 21.1528 6 23.0127Z" fill="white"/>
<path opacity="0.6" d="M-6 16L-6 30H6L6 23.0254C6 22.1085 5.84501 21.2005 5.54389 20.3534C5.24278 19.5064 4.80146 18.737 4.24518 18.0892C3.68889 17.4414 3.02858 16.9279 2.30201 16.5781C1.57544 16.2284 0.796895 16.0492 0.0109115 16.0509L-6 16Z" fill="white"/>
<path opacity="0.6" d="M6 30L6 42C9.44781 42 12.7544 40.7357 15.1924 38.4853C17.6304 36.2348 19 33.1826 19 30L6 30Z" fill="white"/>
<path opacity="0.6" d="M6 42L6 30L-6 30L-6 42H6Z" fill="white"/>
<path opacity="0.6" d="M58 42C58 38.5522 59.2643 35.2456 61.5147 32.8076C63.7652 30.3696 66.8174 29 70 29V42H58Z" fill="white"/>
<path opacity="0.6" d="M70 55V42H58V55H70Z" fill="white"/>
<path opacity="0.6" d="M70 67V55H58V67H70Z" fill="white"/>
<path opacity="0.6" d="M58 81V67C61.1826 67 64.2348 68.475 66.4853 71.1005C68.7357 73.726 70 77.287 70 81H58Z" fill="white"/>
<path opacity="0.6" d="M45 36.0109C44.9977 34.8233 45.3772 33.6618 46.0905 32.6734C46.8038 31.685 47.8189 30.9143 49.0071 30.4588C50.1953 30.0033 51.5032 29.8836 52.7652 30.1148C54.0272 30.3459 55.1864 30.9176 56.0962 31.7574C57.0059 32.5971 57.6253 33.6672 57.8757 34.8321C58.1261 35.997 57.9964 37.2043 57.5029 38.3011C57.0095 39.3979 56.1746 40.3349 55.1038 40.9933C54.0331 41.6518 52.7748 42.0022 51.4882 42C49.7684 41.9971 48.1199 41.3652 46.9038 40.2426C45.6877 39.1201 45.0031 37.5984 45 36.0109Z" fill="white"/>
<path opacity="0.6" d="M45 67H58V81C54.5522 81 51.2456 79.525 48.8076 76.8995C46.3696 74.274 45 70.713 45 67Z" fill="white"/>
<path opacity="0.6" d="M31 81V67H45C45 70.713 43.525 74.274 40.8995 76.8995C38.274 79.525 34.713 81 31 81Z" fill="white"/>
<path opacity="0.6" d="M31 81L31 67H19V81H31Z" fill="white"/>
<path opacity="0.6" d="M45 48.5C45 47.2139 45.3815 45.9568 46.0963 44.8876C46.811 43.8184 47.8269 42.9853 49.0153 42.4937C50.2037 42.002 51.5112 41.874 52.7724 42.1258C54.0336 42.3775 55.1918 42.9978 56.1004 43.908C57.0089 44.8182 57.6271 45.9775 57.8765 47.2392C58.126 48.5008 57.9956 49.8081 57.5018 50.9956C57.008 52.1831 56.1731 53.1975 55.1026 53.9103C54.0321 54.6231 52.7742 55.0023 51.4882 55C49.7663 54.9969 48.116 54.3107 46.8996 53.092C45.6832 51.8734 45 50.2219 45 48.5Z" fill="white"/>
<path opacity="0.6" d="M31 67L31 55H19V67H31Z" fill="white"/>
<g opacity="0.4">
<path opacity="0.5" d="M57.9727 67.9348V54.9993H45.0372V67.9348H57.9727Z" fill="white"/>
<path opacity="0.5" d="M45.0352 42.076V29.1406L32.0997 29.1406V42.076H45.0352Z" fill="white"/>
<path opacity="0.5" d="M32.1133 42.076V29.1406L19.1778 29.1406V42.076H32.1133Z" fill="white"/>
<path opacity="0.5" d="M45.0352 55.0116V42.0761H32.0997V55.0116H45.0352Z" fill="white"/>
<path opacity="0.5" d="M32.1133 55.0116V42.0761H19.1778V55.0116H32.1133Z" fill="white"/>
<path opacity="0.5" d="M45.0352 67.9348V54.9993H32.0997V67.9348H45.0352Z" fill="white"/>
<path opacity="0.5" d="M19.1777 16.205L19.1777 3.26952L6.24226 3.26952L6.24226 16.205H19.1777Z" fill="white"/>
<path opacity="0.5" d="M-6.74023 9.75493C-6.74256 8.47357 -6.36457 7.22034 -5.65413 6.15395C-4.9437 5.08756 -3.93278 4.25599 -2.7494 3.76456C-1.56602 3.27312 -0.263412 3.14392 0.993448 3.39333C2.25031 3.64274 3.40488 4.25955 4.31095 5.16561C5.21701 6.07167 5.8338 7.22624 6.08322 8.4831C6.33263 9.73996 6.20343 11.0426 5.71199 12.2259C5.22056 13.4093 4.38899 14.4202 3.3226 15.1307C2.25621 15.8411 1.00298 16.2191 -0.278382 16.2168C-1.99217 16.2168 -3.63577 15.536 -4.8476 14.3241C-6.05943 13.1123 -6.74023 11.4687 -6.74023 9.75493Z" fill="white"/>
<path opacity="0.5" d="M19.1777 3.28176L19.1777 -9.65371L6.24226 -9.65371L6.24226 3.28176L19.1777 3.28176Z" fill="white"/>
</g>
</g>
</g>
</g>
<defs>
<linearGradient id="paint0_linear" x1="720" y1="0" x2="720" y2="1711" gradientUnits="userSpaceOnUse">
<stop stop-color="#F8EEF6"/>
<stop offset="1" stop-color="#D9E5F2"/>
</linearGradient>
<clipPath id="clip0">
<rect width="1440" height="1711" fill="white" transform="translate(-232 -712)"/>
</clipPath>
</defs>
</svg>
