<svg width="354" height="354" viewBox="0 0 354 354" fill="none" xmlns="http://www.w3.org/2000/svg">
<path d="M310.035 133.495C318.549 159.897 319.042 188.234 311.452 214.917C303.862 241.6 288.53 265.431 267.396 283.4C246.261 301.369 220.271 312.67 192.715 315.869C165.158 319.068 137.273 314.023 112.583 301.374C87.8938 288.724 67.5096 269.038 54.0087 244.803C40.5078 220.569 34.4954 192.874 36.7338 165.223C38.9722 137.572 49.3602 111.207 66.5833 89.4594C83.8065 67.7121 107.093 51.5588 133.496 43.0452C168.901 31.6289 207.39 34.7466 240.497 51.7092C273.605 68.6718 298.619 98.0897 310.035 133.495Z" fill="white"/>
<path d="M122.827 46.8643L135.364 53.7536L118.343 60.4482L122.827 46.8643Z" fill="#0E47EF"/>
<path d="M100.002 57.6885L99.4684 56.8427C95.3434 50.303 97.3009 41.6575 103.841 37.5325L104.686 36.9989L112.689 49.6859L100.002 57.6885Z" fill="#0E47EF"/>
</svg>
