<svg width="530" height="291" viewBox="0 0 530 291" fill="none" xmlns="http://www.w3.org/2000/svg">
<rect x="22.0234" width="492" height="276" fill="#0E47EF"/>
<circle cx="506.022" cy="269" r="7" fill="white"/>
<circle cx="522.021" cy="283" r="7" fill="#0E47EF"/>
<path d="M500.117 117.948L498.878 132.199L485.879 119.331L500.117 117.948Z" fill="white"/>
<path d="M37.1136 114.806L51.0388 114.806L37.1135 101.999L37.1136 114.806Z" fill="white"/>
<path d="M36.5958 144.861L36.5927 130.996L22.5187 144.859L36.5958 144.861Z" fill="white"/>
<path d="M7.00376 145.499L7.00467 131.14L22.0231 145.498L7.00376 145.499Z" fill="#0E47EF"/>
<path d="M20.6166 276.016L20.5526 290.375L5.59746 275.951L20.6166 276.016Z" fill="#0E47EF"/>
<rect x="499.022" y="103" width="15" height="15" fill="white"/>
<rect width="15" height="15" transform="matrix(1 0 0 -1 22.0225 130)" fill="white"/>
<rect x="514.021" y="103" width="15" height="15" fill="#0E47EF"/>
<path d="M514.021 261H515.021C522.753 261 529.021 267.268 529.021 275V276H514.021V261Z" fill="#0E47EF"/>
<path d="M21.0225 261H22.0225C29.7544 261 36.0225 267.268 36.0225 275V276H21.0225V261Z" fill="white"/>
<rect width="15" height="15" transform="matrix(1 0 0 -1 7.02246 130)" fill="#0E47EF"/>
</svg>
