<svg width="51" height="51" viewBox="0 0 51 51" fill="none" xmlns="http://www.w3.org/2000/svg">
<g filter="url(#filter0_d)">
<path d="M4.36865 23.2624C4.36865 11.5173 13.8846 2 25.631 2C37.3761 2 46.8934 11.5173 46.8934 23.2624C46.8934 35.0074 37.3774 44.5247 25.631 44.5247C13.886 44.5247 4.36865 35.0074 4.36865 23.2624Z" fill="url(#paint0_linear)"/>
</g>
<path fill-rule="evenodd" clip-rule="evenodd" d="M31.7038 33.1075C31.7038 33.1075 30.9174 32.168 30.262 31.3379C33.1237 30.5296 34.2159 28.7384 34.2159 28.7384C33.3203 29.3282 32.4683 29.7433 31.7038 30.0271C30.6116 30.486 29.563 30.7916 28.5363 30.9665C26.4391 31.3597 24.5168 31.2505 22.8785 30.9447C21.6332 30.7043 20.5628 30.3549 19.6673 30.0054C19.1648 29.8088 18.6187 29.5685 18.0725 29.2627C18.0397 29.2407 18.0069 29.2243 17.9741 29.2079C17.9414 29.1916 17.9087 29.1752 17.8759 29.1533C17.8323 29.1315 17.8104 29.1097 17.7886 29.0879C17.3954 28.8695 17.1769 28.7166 17.1769 28.7166C17.1769 28.7166 18.2255 30.4642 20.9998 31.2941C20.3445 32.1244 19.5362 33.1073 19.5362 33.1073C14.7084 32.9544 12.8735 29.787 12.8735 29.787C12.8735 22.7529 16.0192 17.0513 16.0192 17.0513C19.1648 14.6921 22.1575 14.7576 22.1575 14.7576L22.376 15.0199C18.444 16.1555 16.6308 17.8815 16.6308 17.8815C16.6308 17.8815 17.1114 17.6194 17.9195 17.248C20.257 16.2212 22.1139 15.9373 22.8785 15.8718C22.8945 15.8691 22.9102 15.8664 22.9256 15.8638C23.0365 15.8448 23.1348 15.828 23.2499 15.828C24.7138 15.6373 26.1952 15.6227 27.6626 15.7844C29.7377 16.0247 31.966 16.6363 34.2377 17.8815C34.2377 17.8815 32.5121 16.2432 28.7984 15.1072L29.1042 14.7578C29.1042 14.7578 32.0969 14.6921 35.2426 17.0515C35.2426 17.0515 38.3884 22.7529 38.3884 29.787C38.3884 29.787 36.5314 32.9544 31.7038 33.1073V33.1075ZM21.5461 22.9065C20.301 22.9065 19.3181 23.9987 19.3181 25.3312C19.3181 26.6638 20.3228 27.756 21.5461 27.756C22.7914 27.756 23.7743 26.6638 23.7743 25.3312C23.7962 23.9987 22.7912 22.9065 21.5461 22.9065ZM29.5196 22.9065C28.2743 22.9065 27.2913 23.9987 27.2913 25.3312C27.2913 26.6638 28.2963 27.756 29.5196 27.756C30.7647 27.756 31.7476 26.6638 31.7476 25.3312C31.7476 23.9987 30.7647 22.9065 29.5196 22.9065Z" fill="white"/>
<defs>
<filter id="filter0_d" x="0.368652" y="0" width="50.5247" height="50.5247" filterUnits="userSpaceOnUse" color-interpolation-filters="sRGB">
<feFlood flood-opacity="0" result="BackgroundImageFix"/>
<feColorMatrix in="SourceAlpha" type="matrix" values="0 0 0 0 0 0 0 0 0 0 0 0 0 0 0 0 0 0 127 0"/>
<feOffset dy="2"/>
<feGaussianBlur stdDeviation="2"/>
<feColorMatrix type="matrix" values="0 0 0 0 0.921569 0 0 0 0 0.541176 0 0 0 0 0.564706 0 0 0 0.28 0"/>
<feBlend mode="normal" in2="BackgroundImageFix" result="effect1_dropShadow"/>
<feBlend mode="normal" in="SourceGraphic" in2="effect1_dropShadow" result="shape"/>
</filter>
<linearGradient id="paint0_linear" x1="25.3687" y1="2" x2="25.3687" y2="64.5" gradientUnits="userSpaceOnUse">
<stop offset="0.244792" stop-color="#EB8A90"/>
<stop offset="1" stop-color="#F9C2CA"/>
</linearGradient>
</defs>
</svg>
